<svg width="201" height="102" viewBox="0 0 311 102" fill="none" xmlns="http://www.w3.org/2000/svg">
<g filter="url(#filter0_d_629_6180)">
<rect x="18.4473" y="12.5322" width="273.926" height="65.598" rx="29.5551" fill="#4C2A76"/>
</g>
<path d="M106.801 32.5742V35.9262H96.1684V43.315H104.458V46.667H96.1684V57.624H92.0595V32.5742H106.801ZM109.239 47.6041C109.239 45.6097 109.648 43.8436 110.465 42.3058C111.306 40.768 112.435 39.5786 113.853 38.7376C115.295 37.8725 116.88 37.44 118.61 37.44C120.172 37.44 121.53 37.7524 122.683 38.3771C123.861 38.9778 124.798 39.7347 125.495 40.6478V37.7644H129.64V57.624H125.495V54.6685C124.798 55.6056 123.849 56.3866 122.647 57.0113C121.446 57.636 120.076 57.9484 118.538 57.9484C116.832 57.9484 115.27 57.5159 113.853 56.6509C112.435 55.7618 111.306 54.5364 110.465 52.9745C109.648 51.3886 109.239 49.5985 109.239 47.6041ZM125.495 47.6762C125.495 46.3066 125.206 45.1171 124.63 44.1079C124.077 43.0987 123.344 42.3298 122.431 41.8012C121.518 41.2726 120.533 41.0083 119.475 41.0083C118.418 41.0083 117.433 41.2726 116.52 41.8012C115.607 42.3058 114.862 43.0627 114.285 44.0719C113.733 45.0571 113.456 46.2345 113.456 47.6041C113.456 48.9737 113.733 50.1752 114.285 51.2084C114.862 52.2416 115.607 53.0346 116.52 53.5872C117.457 54.1159 118.442 54.3802 119.475 54.3802C120.533 54.3802 121.518 54.1159 122.431 53.5872C123.344 53.0586 124.077 52.2897 124.63 51.2805C125.206 50.2473 125.495 49.0458 125.495 47.6762ZM139.145 40.7199C139.842 39.7588 140.791 38.9778 141.993 38.3771C143.218 37.7524 144.576 37.44 146.066 37.44C147.82 37.44 149.406 37.8605 150.823 38.7015C152.241 39.5425 153.358 40.7439 154.175 42.3058C154.992 43.8436 155.401 45.6097 155.401 47.6041C155.401 49.5985 154.992 51.3886 154.175 52.9745C153.358 54.5364 152.229 55.7618 150.787 56.6509C149.369 57.5159 147.796 57.9484 146.066 57.9484C144.528 57.9484 143.158 57.6481 141.957 57.0473C140.779 56.4466 139.842 55.6777 139.145 54.7406V57.624H135.036V30.9523H139.145V40.7199ZM151.22 47.6041C151.22 46.2345 150.931 45.0571 150.355 44.0719C149.802 43.0627 149.057 42.3058 148.12 41.8012C147.207 41.2726 146.222 41.0083 145.164 41.0083C144.131 41.0083 143.146 41.2726 142.209 41.8012C141.296 42.3298 140.551 43.0987 139.974 44.1079C139.422 45.1171 139.145 46.3066 139.145 47.6762C139.145 49.0458 139.422 50.2473 139.974 51.2805C140.551 52.2897 141.296 53.0586 142.209 53.5872C143.146 54.1159 144.131 54.3802 145.164 54.3802C146.222 54.3802 147.207 54.1159 148.12 53.5872C149.057 53.0346 149.802 52.2416 150.355 51.2084C150.931 50.1752 151.22 48.9737 151.22 47.6041ZM163.573 40.6478C164.174 39.6386 164.966 38.8577 165.952 38.305C166.961 37.7284 168.15 37.44 169.52 37.44V41.6931H168.475C166.865 41.6931 165.639 42.1016 164.798 42.9185C163.981 43.7355 163.573 45.1532 163.573 47.1716V57.624H159.464V37.7644H163.573V40.6478ZM175.387 35.1333C174.642 35.1333 174.018 34.881 173.513 34.3764C173.008 33.8718 172.756 33.247 172.756 32.5021C172.756 31.7573 173.008 31.1325 173.513 30.6279C174.018 30.1233 174.642 29.871 175.387 29.871C176.108 29.871 176.721 30.1233 177.225 30.6279C177.73 31.1325 177.982 31.7573 177.982 32.5021C177.982 33.247 177.73 33.8718 177.225 34.3764C176.721 34.881 176.108 35.1333 175.387 35.1333ZM177.406 37.7644V57.624H173.297V37.7644H177.406ZM181.431 47.6762C181.431 45.6338 181.839 43.8436 182.656 42.3058C183.497 40.7439 184.65 39.5425 186.116 38.7015C187.582 37.8605 189.264 37.44 191.162 37.44C193.565 37.44 195.547 38.0167 197.109 39.1701C198.695 40.2994 199.764 41.9213 200.317 44.0359H195.884C195.523 43.0507 194.947 42.2818 194.154 41.7291C193.361 41.1765 192.364 40.9001 191.162 40.9001C189.48 40.9001 188.135 41.5008 187.125 42.7023C186.14 43.8797 185.648 45.5376 185.648 47.6762C185.648 49.8147 186.14 51.4847 187.125 52.6862C188.135 53.8876 189.48 54.4883 191.162 54.4883C193.541 54.4883 195.115 53.4431 195.884 51.3526H200.317C199.74 53.371 198.659 54.9809 197.073 56.1823C195.487 57.3597 193.517 57.9484 191.162 57.9484C189.264 57.9484 187.582 57.5279 186.116 56.6869C184.65 55.8219 183.497 54.6205 182.656 53.0826C181.839 51.5208 181.431 49.7186 181.431 47.6762ZM211.62 57.9484C210.059 57.9484 208.653 57.6721 207.403 57.1194C206.178 56.5427 205.205 55.7738 204.484 54.8127C203.763 53.8275 203.379 52.7342 203.331 51.5328H207.584C207.656 52.3738 208.052 53.0826 208.773 53.6593C209.518 54.212 210.443 54.4883 211.548 54.4883C212.702 54.4883 213.591 54.272 214.216 53.8395C214.864 53.383 215.189 52.8063 215.189 52.1095C215.189 51.3646 214.828 50.8119 214.107 50.4515C213.411 50.0911 212.293 49.6946 210.755 49.2621C209.266 48.8536 208.052 48.4571 207.115 48.0727C206.178 47.6882 205.361 47.0995 204.664 46.3066C203.991 45.5136 203.655 44.4684 203.655 43.1708C203.655 42.1136 203.967 41.1524 204.592 40.2874C205.217 39.3983 206.106 38.7015 207.259 38.1969C208.437 37.6923 209.782 37.44 211.296 37.44C213.555 37.44 215.369 38.0167 216.739 39.1701C218.132 40.2994 218.877 41.8493 218.973 43.8196H214.864C214.792 42.9305 214.432 42.2217 213.783 41.6931C213.134 41.1644 212.257 40.9001 211.152 40.9001C210.071 40.9001 209.242 41.1044 208.665 41.5129C208.088 41.9213 207.8 42.462 207.8 43.1348C207.8 43.6634 207.992 44.1079 208.377 44.4684C208.761 44.8288 209.23 45.1171 209.782 45.3334C210.335 45.5256 211.152 45.7779 212.233 46.0903C213.675 46.4748 214.852 46.8712 215.765 47.2797C216.703 47.6642 217.507 48.2409 218.18 49.0098C218.853 49.7787 219.201 50.7999 219.226 52.0734C219.226 53.2028 218.913 54.212 218.288 55.101C217.664 55.9901 216.775 56.6869 215.621 57.1915C214.492 57.6961 213.158 57.9484 211.62 57.9484Z" fill="#FFB8BC"/>
<defs>
<filter id="filter0_d_629_6180" x="0.425835" y="0.277653" width="309.969" height="101.641" filterUnits="userSpaceOnUse" color-interpolation-filters="sRGB">
<feFlood flood-opacity="0" result="BackgroundImageFix"/>
<feColorMatrix in="SourceAlpha" type="matrix" values="0 0 0 0 0 0 0 0 0 0 0 0 0 0 0 0 0 0 127 0" result="hardAlpha"/>
<feOffset dy="5.76686"/>
<feGaussianBlur stdDeviation="9.01072"/>
<feComposite in2="hardAlpha" operator="out"/>
<feColorMatrix type="matrix" values="0 0 0 0 0.298039 0 0 0 0 0.164706 0 0 0 0 0.462745 0 0 0 0.55 0"/>
<feBlend mode="normal" in2="BackgroundImageFix" result="effect1_dropShadow_629_6180"/>
<feBlend mode="normal" in="SourceGraphic" in2="effect1_dropShadow_629_6180" result="shape"/>
</filter>
</defs>
</svg>
