<svg width="329" height="102" viewBox="0 0 329 102" fill="none" xmlns="http://www.w3.org/2000/svg">
<g filter="url(#filter0_d_629_6184)">
<rect x="18.0762" y="12.5957" width="292.668" height="65.598" rx="29.5551" fill="#4C2A76"/>
</g>
<path d="M108.674 40.0986C108.674 41.3721 108.373 42.5735 107.772 43.7029C107.172 44.8322 106.211 45.7573 104.889 46.4782C103.567 47.175 101.873 47.5234 99.807 47.5234H95.2656V57.6875H91.1567V32.6377H99.807C101.729 32.6377 103.351 32.9741 104.673 33.6469C106.018 34.2957 107.016 35.1847 107.664 36.3141C108.337 37.4434 108.674 38.7049 108.674 40.0986ZM99.807 44.1714C101.369 44.1714 102.534 43.823 103.303 43.1262C104.072 42.4053 104.457 41.3961 104.457 40.0986C104.457 37.3593 102.907 35.9897 99.807 35.9897H95.2656V44.1714H99.807ZM111.223 47.6676C111.223 45.6732 111.631 43.9071 112.448 42.3693C113.289 40.8315 114.419 39.642 115.836 38.801C117.278 37.936 118.864 37.5035 120.594 37.5035C122.156 37.5035 123.513 37.8159 124.667 38.4406C125.844 39.0413 126.781 39.7982 127.478 40.7113V37.8279H131.623V57.6875H127.478V54.732C126.781 55.6691 125.832 56.45 124.631 57.0748C123.429 57.6995 122.06 58.0119 120.522 58.0119C118.816 58.0119 117.254 57.5794 115.836 56.7143C114.419 55.8253 113.289 54.5998 112.448 53.038C111.631 51.4521 111.223 49.662 111.223 47.6676ZM127.478 47.7397C127.478 46.37 127.19 45.1806 126.613 44.1714C126.06 43.1622 125.328 42.3933 124.414 41.8647C123.501 41.3361 122.516 41.0717 121.459 41.0717C120.402 41.0717 119.416 41.3361 118.503 41.8647C117.59 42.3693 116.845 43.1262 116.269 44.1354C115.716 45.1206 115.44 46.298 115.44 47.6676C115.44 49.0372 115.716 50.2386 116.269 51.2719C116.845 52.3051 117.59 53.098 118.503 53.6507C119.441 54.1793 120.426 54.4436 121.459 54.4436C122.516 54.4436 123.501 54.1793 124.414 53.6507C125.328 53.1221 126.06 52.3532 126.613 51.344C127.19 50.3107 127.478 49.1093 127.478 47.7397ZM141.814 41.1799V52.1729C141.814 52.9178 141.982 53.4585 142.318 53.7949C142.679 54.1072 143.279 54.2634 144.12 54.2634H146.643V57.6875H143.399C141.549 57.6875 140.132 57.255 139.146 56.39C138.161 55.5249 137.669 54.1193 137.669 52.1729V41.1799H135.326V37.8279H137.669V32.89H141.814V37.8279H146.643V41.1799H141.814ZM155.224 41.1799V52.1729C155.224 52.9178 155.392 53.4585 155.729 53.7949C156.089 54.1072 156.69 54.2634 157.531 54.2634H160.054V57.6875H156.81C154.96 57.6875 153.542 57.255 152.557 56.39C151.572 55.5249 151.079 54.1193 151.079 52.1729V41.1799H148.736V37.8279H151.079V32.89H155.224V37.8279H160.054V41.1799H155.224ZM182.042 47.2711C182.042 48.016 181.994 48.6888 181.898 49.2895H166.724C166.844 50.8754 167.433 52.1489 168.49 53.1101C169.548 54.0712 170.845 54.5518 172.383 54.5518C174.594 54.5518 176.155 53.6267 177.069 51.7765H181.502C180.901 53.6026 179.808 55.1044 178.222 56.2818C176.66 57.4352 174.714 58.0119 172.383 58.0119C170.485 58.0119 168.779 57.5914 167.265 56.7504C165.775 55.8854 164.598 54.6839 163.733 53.1461C162.892 51.5842 162.471 49.7821 162.471 47.7397C162.471 45.6972 162.88 43.9071 163.697 42.3693C164.538 40.8074 165.703 39.606 167.193 38.765C168.707 37.924 170.437 37.5035 172.383 37.5035C174.257 37.5035 175.927 37.912 177.393 38.729C178.859 39.5459 180 40.6993 180.817 42.1891C181.634 43.6548 182.042 45.3488 182.042 47.2711ZM177.753 45.9736C177.729 44.4598 177.189 43.2463 176.131 42.3332C175.074 41.4202 173.765 40.9636 172.203 40.9636C170.785 40.9636 169.572 41.4202 168.562 42.3332C167.553 43.2223 166.953 44.4357 166.76 45.9736H177.753ZM190.195 40.7113C190.796 39.7021 191.589 38.9212 192.574 38.3685C193.583 37.7918 194.772 37.5035 196.142 37.5035V41.7566H195.097C193.487 41.7566 192.261 42.165 191.42 42.982C190.603 43.799 190.195 45.2167 190.195 47.2351V57.6875H186.086V37.8279H190.195V40.7113ZM209.939 37.5035C211.501 37.5035 212.894 37.8279 214.12 38.4767C215.369 39.1254 216.342 40.0866 217.039 41.3601C217.736 42.6336 218.084 44.1714 218.084 45.9736V57.6875H214.012V46.5863C214.012 44.8082 213.567 43.4506 212.678 42.5135C211.789 41.5523 210.576 41.0717 209.038 41.0717C207.5 41.0717 206.274 41.5523 205.361 42.5135C204.472 43.4506 204.028 44.8082 204.028 46.5863V57.6875H199.919V37.8279H204.028V40.0986C204.701 39.2816 205.554 38.6449 206.587 38.1883C207.644 37.7318 208.761 37.5035 209.939 37.5035ZM230.534 58.0119C228.972 58.0119 227.567 57.7356 226.317 57.1829C225.092 56.6062 224.119 55.8373 223.398 54.8762C222.677 53.891 222.292 52.7977 222.244 51.5963H226.497C226.569 52.4373 226.966 53.1461 227.687 53.7228C228.432 54.2754 229.357 54.5518 230.462 54.5518C231.615 54.5518 232.505 54.3355 233.129 53.903C233.778 53.4465 234.102 52.8698 234.102 52.1729C234.102 51.4281 233.742 50.8754 233.021 50.515C232.324 50.1545 231.207 49.7581 229.669 49.3256C228.179 48.9171 226.966 48.5206 226.029 48.1361C225.092 47.7517 224.275 47.163 223.578 46.37C222.905 45.5771 222.569 44.5319 222.569 43.2343C222.569 42.1771 222.881 41.2159 223.506 40.3509C224.131 39.4618 225.02 38.765 226.173 38.2604C227.35 37.7558 228.696 37.5035 230.21 37.5035C232.469 37.5035 234.283 38.0802 235.652 39.2336C237.046 40.3629 237.791 41.9127 237.887 43.8831H233.778C233.706 42.994 233.346 42.2852 232.697 41.7566C232.048 41.2279 231.171 40.9636 230.066 40.9636C228.984 40.9636 228.155 41.1679 227.579 41.5763C227.002 41.9848 226.714 42.5255 226.714 43.1983C226.714 43.7269 226.906 44.1714 227.29 44.5319C227.675 44.8923 228.143 45.1806 228.696 45.3969C229.249 45.5891 230.066 45.8414 231.147 46.1538C232.589 46.5382 233.766 46.9347 234.679 47.3432C235.616 47.7277 236.421 48.3043 237.094 49.0733C237.767 49.8422 238.115 50.8634 238.139 52.1369C238.139 53.2662 237.827 54.2754 237.202 55.1645C236.577 56.0536 235.688 56.7504 234.535 57.255C233.406 57.7596 232.072 58.0119 230.534 58.0119Z" fill="#FFB8BC"/>
<defs>
<filter id="filter0_d_629_6184" x="0.0547409" y="0.34113" width="328.711" height="101.641" filterUnits="userSpaceOnUse" color-interpolation-filters="sRGB">
<feFlood flood-opacity="0" result="BackgroundImageFix"/>
<feColorMatrix in="SourceAlpha" type="matrix" values="0 0 0 0 0 0 0 0 0 0 0 0 0 0 0 0 0 0 127 0" result="hardAlpha"/>
<feOffset dy="5.76686"/>
<feGaussianBlur stdDeviation="9.01072"/>
<feComposite in2="hardAlpha" operator="out"/>
<feColorMatrix type="matrix" values="0 0 0 0 0.298039 0 0 0 0 0.164706 0 0 0 0 0.462745 0 0 0 0.55 0"/>
<feBlend mode="normal" in2="BackgroundImageFix" result="effect1_dropShadow_629_6184"/>
<feBlend mode="normal" in="SourceGraphic" in2="effect1_dropShadow_629_6184" result="shape"/>
</filter>
</defs>
</svg>
