<svg width="30" height="27" viewBox="0 0 30 27" fill="none" xmlns="http://www.w3.org/2000/svg">
    <g clip-path="url(#clip0_1183_9771)">
        <path d="M11.3037 26.1908C10.4272 25.6825 9.5784 25.1923 8.73171 24.6993C6.21178 23.2323 3.69323 21.7624 1.17052 20.3003C0.970648 20.1845 0.876263 20.0618 0.876957 19.8129C0.885979 15.9542 0.883203 12.0949 0.883897 8.23619C0.883897 8.13648 0.897083 8.03677 0.907493 7.88477C1.59456 8.22573 2.24901 8.53741 2.8861 8.88116C2.97563 8.92927 3.02005 9.13287 3.02005 9.26535C3.02768 11.5433 3.03601 13.822 3.01727 16.0999C3.01311 16.572 3.15746 16.8453 3.6044 17.0315C4.60724 17.4505 5.58717 17.9226 6.5796 18.3668C7.13064 18.6136 7.49569 18.3751 7.49638 17.772C7.49916 15.7151 7.49777 13.6581 7.49846 11.6012C7.49846 11.475 7.49846 11.3488 7.49846 11.1542C8.04534 11.4213 8.54988 11.6653 9.05303 11.9143C9.73732 12.2524 10.4237 12.5864 11.099 12.9413C11.2045 12.9964 11.3245 13.1526 11.3252 13.2628C11.3363 17.5049 11.3349 21.7478 11.3335 25.9899C11.3335 26.0422 11.3183 26.0959 11.3037 26.1908Z" fill="#270641" />
        <path d="M22.8878 7.89551C22.8878 9.57592 22.8878 11.2103 22.8878 12.844C17.5912 13.1048 14.1628 18.7694 16.6682 23.7506C15.2871 24.5553 13.9039 25.362 12.4778 26.1931C12.4618 26.076 12.441 25.993 12.441 25.91C12.4396 21.7153 12.4403 17.5199 12.4375 13.3251C12.4375 13.1508 12.4597 13.0309 12.645 12.9395C15.9964 11.2898 19.3435 9.631 22.6914 7.9743C22.7407 7.95059 22.7934 7.93316 22.8878 7.89551Z" fill="#270641" />
        <path d="M8.14941 10.2008C9.37919 9.4805 10.5555 8.79091 11.7333 8.10201C13.7195 6.93967 15.7092 5.78221 17.6899 4.61081C17.9113 4.47972 18.0667 4.4846 18.2847 4.61359C19.5866 5.38547 20.8983 6.1406 22.2703 6.93897C21.7929 7.17883 21.3667 7.39498 20.9392 7.60626C17.996 9.06215 15.0534 10.518 12.1066 11.967C11.9998 12.0192 11.8311 12.0437 11.7319 11.9962C10.5965 11.4503 9.46872 10.8883 8.33888 10.3291C8.29099 10.3047 8.24796 10.2677 8.14941 10.2008Z" fill="#270641" />
        <path d="M24.9327 15.3613C22.6085 14.4389 19.7429 15.5461 18.5735 17.7892C16.7081 21.3669 19.2294 25.5505 23.2498 25.5498C23.3761 25.5498 23.5121 25.54 23.6273 25.5818C23.8855 25.6753 24.0145 25.8817 23.9701 26.1557C23.9209 26.4597 23.7196 26.6096 23.4128 26.6229C22.3142 26.6696 21.2718 26.4409 20.2995 25.934C17.858 24.6622 16.5484 22.0941 16.9253 19.3539C17.4645 15.4366 21.6133 12.9453 25.3026 14.3322C25.5448 14.4235 25.6913 14.3956 25.8065 14.169C25.8377 14.1076 25.8828 14.0526 25.9265 13.9989C26.116 13.7667 26.3179 13.7646 26.4408 14.0254C26.7573 14.6961 27.0591 15.3746 27.3479 16.0579C27.452 16.3047 27.3138 16.4818 27.0494 16.4581C26.3471 16.3954 25.6455 16.325 24.9459 16.2399C24.5496 16.1918 24.4872 16.014 24.719 15.6737C24.7835 15.5796 24.848 15.4854 24.9327 15.3613Z" fill="#270641" />
        <path d="M13.8459 2.03626C13.1463 2.44067 12.4884 2.82278 11.8291 3.20209C9.18425 4.72561 6.53662 6.24426 3.89593 7.77545C3.64401 7.92118 3.4483 7.92606 3.19568 7.788C2.66893 7.50142 2.12414 7.24762 1.51758 6.9457C1.94023 6.69399 2.31568 6.46459 2.69669 6.24356C5.67536 4.51085 8.65542 2.78233 11.6299 1.04266C11.8305 0.925518 11.97 0.929701 12.1622 1.04824C12.7008 1.38153 13.2532 1.69111 13.8459 2.03626Z" fill="#270641" />
        <path d="M4.76465 8.55215C5.40869 8.17841 5.99304 7.83675 6.58017 7.49858C9.26666 5.95205 11.9545 4.4083 14.6376 2.85689C14.8583 2.72929 15.0304 2.70279 15.2608 2.84991C15.766 3.17275 16.2928 3.46211 16.8757 3.80308C16.3622 4.10708 15.8923 4.38808 15.4204 4.6642C12.6853 6.26582 9.94817 7.86395 7.21588 9.47114C7.01392 9.59038 6.85152 9.60781 6.64055 9.49764C6.04231 9.18108 5.43228 8.88614 4.76465 8.55215Z" fill="#270641" />
        <path d="M6.38775 17.0607C5.63892 16.7219 4.94422 16.4123 4.25576 16.0894C4.19469 16.0609 4.13986 15.9444 4.13986 15.8684C4.13848 13.7773 4.14403 11.6862 4.14889 9.59581C4.14889 9.58535 4.15791 9.57489 4.18567 9.51562C4.5521 9.69343 4.9227 9.86495 5.28567 10.0525C5.6521 10.2415 6.14623 10.3614 6.335 10.6675C6.51753 10.9625 6.38636 11.4561 6.38636 11.8619C6.38844 13.5695 6.38775 15.2764 6.38775 17.0607Z" fill="#270641" />
        <path d="M22.6874 19.2239C22.6874 18.6898 22.6861 18.155 22.6874 17.6209C22.6888 17.1516 22.8644 16.9173 23.2135 16.9131C23.5702 16.909 23.7604 17.1586 23.7611 17.6397C23.7625 18.5922 23.7514 19.5446 23.7715 20.4971C23.775 20.6526 23.8784 20.8457 23.997 20.9517C24.3156 21.2369 24.6709 21.4802 25.0054 21.748C25.2914 21.9767 25.3573 22.2946 25.1824 22.5394C24.9867 22.8127 24.6744 22.8524 24.36 22.6182C23.8777 22.2577 23.3926 21.8993 22.9387 21.5046C22.8027 21.3861 22.7083 21.1532 22.6986 20.967C22.6687 20.3862 22.6874 19.8047 22.6874 19.2239Z" fill="#270641" />
        <path d="M29.5069 21.392C29.2577 22.0118 29.0315 22.6422 28.7497 23.2467C28.6373 23.4873 28.3611 23.5347 28.1099 23.4106C27.8496 23.2816 27.7337 23.0549 27.8246 22.774C28.0023 22.2238 28.1945 21.6779 28.3958 21.1368C28.4929 20.8746 28.7095 20.7735 28.9815 20.816C29.2348 20.8551 29.4299 21.1005 29.5069 21.392Z" fill="#270641" />
        <path d="M29.5087 19.2587C29.4428 19.5927 29.2735 19.7879 28.9799 19.8318C28.696 19.8744 28.4885 19.7245 28.4011 19.4469C28.256 18.9854 28.1145 18.5217 27.9889 18.0538C27.9118 17.7665 27.9895 17.5148 28.2803 17.39C28.5649 17.2687 28.8432 17.3482 28.9556 17.6257C29.1714 18.1577 29.3276 18.7134 29.5087 19.2587Z" fill="#270641" />
        <path d="M25.9514 25.9337C25.7918 25.7942 25.5891 25.6882 25.5003 25.5216C25.3879 25.3082 25.442 25.0621 25.662 24.9038C25.9993 24.6619 26.3373 24.4199 26.685 24.1933C26.9022 24.0518 27.1624 24.0525 27.3096 24.2623C27.4192 24.4178 27.5164 24.7204 27.4394 24.8466C27.1166 25.3773 26.5656 25.6325 25.9514 25.9337Z" fill="#270641" />
    </g>
    <defs>
        <clipPath id="clip0_1183_9771">
            <rect width="28.6333" height="25.6712" fill="white" transform="translate(0.874023 0.957031)" />
        </clipPath>
    </defs>
</svg>
    