<svg width="22" height="18" viewBox="0 0 22 18" fill="none" xmlns="http://www.w3.org/2000/svg">
    <path d="M16.2024 15.9627C16.0952 16.4605 16.0402 16.7636 15.8114 17.0983C15.6589 17.3214 15.4091 17.4494 15.1545 17.4172C14.9333 17.3892 14.7192 17.2865 14.5038 17.1967C12.0137 16.1585 10.0041 14.3304 7.97374 12.5359C7.48982 12.1082 6.46863 11.118 5.88867 10.5978C7.30064 9.51643 7.88515 8.84766 7.88515 8.84766C10.1604 10.9875 12.8131 13.4925 15.5815 14.7455C16.0227 14.9452 16.4355 14.8805 16.2024 15.9627Z" fill="#270641" />
    <path d="M13.3887 7.92061C12.7482 7.37228 11.6279 6.46191 10.9954 5.93337C9.38821 4.59035 7.67414 3.46948 5.70778 2.83082C4.64274 2.48491 4.50286 1.32524 5.30807 0.300881C5.4544 0.114667 5.68321 -0.00756421 5.90424 0.0425291C9.56655 0.873145 12.338 3.30415 15.4243 6.37229C14.3801 6.96992 13.3887 7.92061 13.3887 7.92061Z" fill="#270641" />
    <path d="M11.1816 10.7995C13.4684 8.29212 17.9084 5.2626 20.1475 5.15121C20.4092 5.13822 20.6578 5.27999 20.7952 5.52158C21.0158 5.90915 21.0871 6.37317 21.1529 6.82947C21.2165 7.27036 21.0044 7.64665 20.6184 7.76377C17.9434 8.57548 15.3454 10.549 13.2367 12.4332C12.5274 12.0704 11.1816 10.7995 11.1816 10.7995Z" fill="#270641" />
    <path d="M9.93405 6.0513C7.30716 8.42746 4.45675 11.2624 1.3753 12.2774C1.11515 12.3631 0.827937 12.2924 0.640822 12.0786C0.389102 11.7911 0.292731 11.4952 0.190653 11.2071C-0.165875 10.2009 -0.0647897 9.9066 0.858213 9.52181C3.02485 8.61834 4.82759 7.11688 6.57177 5.51193C6.83589 5.2689 7.35977 4.80229 7.64871 4.54492C8.60423 4.82236 9.93405 6.0513 9.93405 6.0513Z" fill="#270641" />
    <path d="M5.20128 14.8192C5.95462 14.401 7.11437 13.9074 7.87044 13.4473C8.48117 14.0306 9.89521 15.1927 9.89521 15.1927C8.86988 15.9353 7.23456 17.0408 6.09607 17.3597C5.82086 17.4369 5.5286 17.3208 5.35472 17.0772C5.02185 16.6106 4.82936 16.1152 4.81282 15.5257C4.80455 15.23 4.95832 14.9541 5.20128 14.8192Z" fill="#270641" />
    <path d="M11.3096 1.80179C12.6559 0.91965 14.1706 0.257236 15.2086 0.016627C15.4941 -0.0495068 15.7924 0.0855389 15.9491 0.352404C16.247 0.859699 16.3708 1.3695 16.3403 1.92716C16.3254 2.20227 16.1846 2.45193 15.9614 2.58393C15.3102 2.96917 14.1504 3.26955 13.4838 3.58472C13.4838 3.58472 12.3083 2.51054 11.3096 1.80179Z" fill="#270641" />
    <path d="M19.3182 9.08984C21.1364 9.85486 21.8071 10.1143 20.4806 12.0992C20.3251 12.3318 20.078 12.3334 19.8199 12.2673C18.9926 12.0557 17.5246 11.1393 16.7119 10.6271C18.2098 9.50457 19.3182 9.08984 19.3182 9.08984Z" fill="#270641" />
    <path d="M2.09321 8.2009C1.6442 8.06182 0.789941 7.91503 0.398753 7.65695C0.221895 7.54028 0.102942 7.33712 0.0775465 7.11453C0.0132721 6.55167 0.146701 6.04474 0.400076 5.53466C0.538552 5.25606 0.82121 5.09485 1.11156 5.1297C1.98344 5.23464 3.55912 5.9484 4.41214 6.37092C3.17678 7.60327 2.09321 8.2009 2.09321 8.2009Z" fill="#270641" />
</svg>
    