<svg width="182" height="182" viewBox="0 0 182 182" fill="none" xmlns="http://www.w3.org/2000/svg">
    <g filter="url(#filter0_d_1167_1105)">
        <rect x="37" y="26" width="107.199" height="107.199" rx="26.5268" fill="#4C2A76" />
    </g>
    <path d="M120.621 80.4463C120.556 96.4928 107.673 109.416 91.6432 109.424C75.5823 109.431 62.6779 96.5054 62.6329 80.4867C62.588 64.4519 75.6138 51.4086 91.6252 51.4356C107.672 51.4626 120.571 64.3809 120.621 80.4463ZM70.9946 65.6739C68.1628 69.6617 66.5715 74.1512 66.3 79.1497C69.5275 79.1497 72.7091 79.1497 75.9311 79.1497C76.1019 75.7041 76.6935 72.3493 77.7579 69.186C75.496 68.0117 73.2862 66.8644 70.9946 65.6739ZM112.251 65.6766C109.959 66.8662 107.736 68.018 105.485 69.186C106.554 72.361 107.144 75.705 107.312 79.1497C110.524 79.1497 113.706 79.1497 116.944 79.1497C116.674 74.1593 115.088 69.6689 112.251 65.6766ZM75.9239 81.7231C72.7001 81.7231 69.5212 81.7231 66.2991 81.7231C66.5787 86.7251 68.1628 91.2165 70.9991 95.1926C73.2485 94.021 75.4412 92.8799 77.6779 91.7155C76.6377 88.5361 76.0642 85.1885 75.9239 81.7231ZM112.249 95.1935C115.087 91.2012 116.673 86.7108 116.945 81.7186C113.71 81.7186 110.529 81.7186 107.321 81.7186C107.187 85.1813 106.604 88.5406 105.571 91.7155C107.81 92.8817 109.992 94.0183 112.249 95.1935ZM78.4852 81.7141C78.3315 83.6284 79.3959 89.5638 80.1385 90.962C83.4496 89.9019 86.8514 89.3102 90.3378 89.179C90.3378 86.6685 90.3378 84.2039 90.3378 81.7132C86.3749 81.7141 82.4418 81.7141 78.4852 81.7141ZM92.8982 89.1835C96.4232 89.3084 99.8233 89.9109 103.159 90.9737C104.148 87.9336 104.677 84.8756 104.795 81.7303C100.792 81.7303 96.8484 81.7303 92.8982 81.7303C92.8982 84.2264 92.8982 86.6802 92.8982 89.1835ZM78.4573 79.1425C82.4445 79.1425 86.3857 79.1425 90.3414 79.1425C90.3414 76.641 90.3414 74.1773 90.3414 71.683C86.8694 71.5616 83.4999 70.9664 80.1745 69.9179C79.1505 72.9364 78.6129 75.9909 78.4573 79.1425ZM92.9054 79.1533C96.8772 79.1533 100.809 79.1533 104.789 79.1533C104.627 75.9837 104.097 72.9176 103.066 69.917C99.7289 70.9799 96.3675 71.5544 92.9063 71.6857C92.9054 74.1737 92.9054 76.6383 92.9054 79.1533ZM92.9072 105.707C93.2713 105.801 93.5401 105.694 93.8098 105.446C95.7453 103.663 97.4715 101.7 98.9548 99.5257C100.273 97.5943 101.384 95.5513 102.286 93.3457C99.2263 92.3674 96.1229 91.8198 92.9072 91.7083C92.9072 96.402 92.9072 101.054 92.9072 105.707ZM90.3297 105.841C90.3297 101.042 90.3297 96.393 90.3297 91.7056C87.1085 91.827 84.0069 92.3656 80.9782 93.343C80.998 93.4203 81.0015 93.4509 81.0123 93.4779C82.9542 98.1221 85.7942 102.132 89.5296 105.504C89.7148 105.671 90.0141 105.713 90.3297 105.841ZM90.3459 55.1428C88.5847 55.3721 81.9302 64.335 81.1193 67.519C82.5371 68.2572 88.9578 69.3542 90.3459 69.0871C90.3459 64.4528 90.3459 59.8131 90.3459 55.1428ZM102.164 67.5603C102.131 67.4443 102.123 67.3994 102.105 67.3589C101.902 66.9093 101.704 66.4579 101.49 66.0129C99.5248 61.9262 96.8349 58.3879 93.4403 55.3847C93.3018 55.2615 93.1256 55.1806 92.9117 55.0457C92.9117 59.8185 92.9117 64.469 92.9117 69.1599C96.0825 69.0448 99.1427 68.5143 102.164 67.5603ZM110.548 63.6166C108.356 60.4812 100.487 55.7768 97.5371 55.8478C100.537 59.0578 102.87 62.6698 104.562 66.7052C106.677 65.8627 108.663 64.8421 110.548 63.6166ZM85.6611 55.8244C80.5314 57.0545 76.226 59.6495 72.6938 63.5527C73.5029 64.2964 77.6401 66.4283 78.7037 66.6576C80.3866 62.6473 82.7178 59.0497 85.6611 55.8244ZM110.566 97.2562C108.69 96.0477 106.751 95.037 104.793 94.2547C103.753 96.1637 102.826 98.0924 101.689 99.8871C100.556 101.675 99.211 103.328 98.01 104.971C103.117 103.733 107.713 100.587 110.566 97.2562ZM72.5805 97.1869C76.1586 101.139 80.3641 103.71 85.4804 105.048C82.4867 101.777 80.232 98.1895 78.5392 94.101C76.5362 95.1386 74.6033 96.1394 72.5805 97.1869Z" fill="#FFB8BC" stroke="#FFB8BC" stroke-width="1.5" />
    <defs>
        <filter id="filter0_d_1167_1105" x="0.157276" y="0.946948" width="180.885" height="180.884" filterUnits="userSpaceOnUse" color-interpolation-filters="sRGB">
            <feFlood flood-opacity="0" result="BackgroundImageFix" />
            <feColorMatrix in="SourceAlpha" type="matrix" values="0 0 0 0 0 0 0 0 0 0 0 0 0 0 0 0 0 0 127 0" result="hardAlpha" />
            <feOffset dy="11.7897" />
            <feGaussianBlur stdDeviation="18.4214" />
            <feComposite in2="hardAlpha" operator="out" />
            <feColorMatrix type="matrix" values="0 0 0 0 0.298039 0 0 0 0 0.164706 0 0 0 0 0.462745 0 0 0 0.55 0" />
            <feBlend mode="normal" in2="BackgroundImageFix" result="effect1_dropShadow_1167_1105" />
            <feBlend mode="normal" in="SourceGraphic" in2="effect1_dropShadow_1167_1105" result="shape" />
        </filter>
    </defs>
</svg>
    