<svg width="182" height="182" viewBox="0 0 182 182" fill="none" xmlns="http://www.w3.org/2000/svg">
    <g filter="url(#filter0_d_1167_1108)">
        <rect x="37.3984" y="26" width="107.199" height="107.199" rx="26.5268" fill="#4C2A76" />
    </g>
    <path d="M120.49 68.4262C120.454 66.0067 120.006 63.6065 119.148 61.3436C117.647 57.4795 114.59 54.4241 110.72 52.9283C108.483 52.0877 106.117 51.6371 103.723 51.5859C100.643 51.4485 99.667 51.4102 91.8501 51.4102C84.0332 51.4102 83.0313 51.4102 79.9743 51.5859C77.5831 51.6371 75.2176 52.0877 72.98 52.9283C69.11 54.4241 66.0498 57.4795 64.5517 61.3436C63.7099 63.5777 63.2553 65.9396 63.2105 68.3271C63.0729 71.4049 63.0312 72.3798 63.0312 80.1846C63.0312 87.9895 63.0312 88.9867 63.2105 92.0421C63.2585 94.4328 63.7099 96.7915 64.5517 99.032C66.053 102.893 69.11 105.948 72.9832 107.444C75.2112 108.313 77.5767 108.806 79.9775 108.882C83.0601 109.02 84.0364 109.061 91.8533 109.061C99.6702 109.061 100.672 109.061 103.729 108.882C106.12 108.834 108.486 108.384 110.727 107.543C114.597 106.044 117.654 102.989 119.155 99.1279C119.997 96.8906 120.448 94.5319 120.496 92.138C120.634 89.0634 120.675 88.0886 120.675 80.2805C120.669 72.4756 120.669 71.4848 120.49 68.4262V68.4262ZM91.8309 94.9442C83.6555 94.9442 77.0325 88.3315 77.0325 80.1686C77.0325 72.0058 83.6555 65.3931 91.8309 65.3931C99.9999 65.3931 106.629 72.0058 106.629 80.1686C106.629 88.3315 99.9999 94.9442 91.8309 94.9442ZM107.218 68.2919C105.307 68.2919 103.768 66.7514 103.768 64.8466C103.768 62.9417 105.307 61.4012 107.218 61.4012C109.123 61.4012 110.666 62.9417 110.666 64.8466C110.666 66.7514 109.123 68.2919 107.218 68.2919Z" fill="#FFB8BC" />
    <path d="M91.8275 89.768C97.1365 89.768 101.44 85.4709 101.44 80.1701C101.44 74.8694 97.1365 70.5723 91.8275 70.5723C86.5186 70.5723 82.2148 74.8694 82.2148 80.1701C82.2148 85.4709 86.5186 89.768 91.8275 89.768Z" fill="#FFB8BC" />
    <defs>
        <filter id="filter0_d_1167_1108" x="0.555714" y="0.946948" width="180.885" height="180.884" filterUnits="userSpaceOnUse" color-interpolation-filters="sRGB">
            <feFlood flood-opacity="0" result="BackgroundImageFix" />
            <feColorMatrix in="SourceAlpha" type="matrix" values="0 0 0 0 0 0 0 0 0 0 0 0 0 0 0 0 0 0 127 0" result="hardAlpha" />
            <feOffset dy="11.7897" />
            <feGaussianBlur stdDeviation="18.4214" />
            <feComposite in2="hardAlpha" operator="out" />
            <feColorMatrix type="matrix" values="0 0 0 0 0.298039 0 0 0 0 0.164706 0 0 0 0 0.462745 0 0 0 0.55 0" />
            <feBlend mode="normal" in2="BackgroundImageFix" result="effect1_dropShadow_1167_1108" />
            <feBlend mode="normal" in="SourceGraphic" in2="effect1_dropShadow_1167_1108" result="shape" />
        </filter>
    </defs>
</svg>
    