<svg width="486" height="78" viewBox="0 0 486 78" fill="none" xmlns="http://www.w3.org/2000/svg">
    <path d="M145.372 7.34385L145.088 7.3028C145.023 7.29459 144.961 7.28638 144.899 7.27817C144.891 7.27406 144.879 7.27407 144.871 7.27407C144.854 7.27407 144.838 7.26996 144.825 7.26996C145.166 7.32744 145.766 7.42185 146.58 7.54912C146.177 7.47522 145.779 7.40543 145.372 7.34385ZM144.484 7.2207C144.484 7.2207 144.493 7.22071 144.501 7.22481C144.513 7.22481 144.53 7.22891 144.55 7.23302C144.562 7.23302 144.575 7.23713 144.591 7.23713C144.554 7.22892 144.517 7.2207 144.484 7.2207Z" fill="#270641" stroke="#270641" stroke-width="0.822129" />
    <path d="M212.931 6.65945C211.69 4.71768 209.783 3.6257 207.688 2.94013C201.475 0.899837 195.07 0.497518 188.672 1.59772C180.972 2.93191 173.35 4.77105 166.948 9.55773H166.944C166.92 9.57415 166.907 9.58646 166.883 9.60288C166.747 9.70551 166.607 9.79993 166.476 9.88614C162.457 9.26625 159.347 8.69153 156.824 8.1948C154.404 7.7227 151.926 7.43533 149.478 7.27112C146.959 7.14386 144.592 6.82365 142.123 6.75797C137.048 6.63071 131.789 6.93449 126.78 7.66522C120.099 8.64226 113.476 9.95183 106.922 11.7089C101.35 13.2032 95.7829 14.7262 90.2113 16.2246C81.8292 18.4825 73.6279 21.3561 65.2705 23.6756C62.0203 24.5746 58.7497 25.3915 55.4338 26.0607C49.0692 27.3374 42.7169 28.8071 36.1674 29.1026C29.8561 29.39 23.5737 29.8046 17.357 28.1831C12.5291 26.9228 7.79565 25.5845 4.0648 21.9801C2.93486 20.8922 2.1172 19.5703 2.79105 18.2813C3.08278 17.7353 3.45258 17.2304 3.72787 16.6721C3.99084 16.1343 4.40173 15.6827 4.64826 15.1285C4.91122 14.5045 4.9934 13.6301 4.34009 13.2319C3.84703 12.9281 3.32931 13.0554 2.85679 13.6301C0.638004 16.3313 -0.0933739 21.5203 3.5101 24.4925C4.33598 25.1699 5.19885 25.8595 6.07403 26.4178C10.9718 29.5337 16.4777 31.0855 22.1808 31.5247C28.9522 32.0625 35.7359 32.0707 42.5443 31.2907C60.1919 29.2669 77.5519 25.486 94.7475 21.0605C99.6 19.8125 104.366 18.2197 109.227 17.0128C116.759 15.1408 124.319 13.3756 131.904 11.7581C134.801 11.1423 137.812 11.0602 140.857 10.7195C140.726 11.7253 140.274 12.2672 139.875 12.8378C129.923 26.9474 122.158 42.2147 116.151 58.3564C114.392 63.0733 113.057 68.0078 113.915 73.1967C114.145 74.6007 114.491 75.976 115.575 76.9858C115.986 77.3676 116.574 77.7946 117.137 77.421C117.626 77.0926 117.4 76.5014 117.223 76.0047C116.13 72.9299 116.245 69.8017 116.96 66.7023C118.977 58.0157 122.667 49.9571 126.497 41.9725C131.555 31.4303 138.182 21.8077 144.485 11.9962C145.533 10.3706 147.197 10.3336 148.742 10.4527C151.606 10.6784 154.511 10.7606 157.354 11.1834C159.343 11.479 161.262 11.4995 163.723 11.9387C160.789 14.3813 158.299 16.59 156.278 19.2583C155.879 19.7879 155.333 20.1656 156.146 20.8183C156.874 21.3972 157.136 20.8635 157.506 20.416C159.561 17.9241 162.047 15.8674 164.294 13.5644C165.28 12.5545 166.402 12.1481 167.77 12.3739C172.245 13.1005 176.732 13.8066 181.202 14.5579C187.443 15.6088 193.746 15.7525 200.049 15.8223C203.994 15.8633 207.901 15.3666 211.394 13.2688C214.295 11.52 214.743 9.49205 212.931 6.65945ZM209.697 11.7827C207.261 13.314 204.598 14.0899 201.689 14.2007C201.451 14.2048 201.216 14.213 200.978 14.2212L194.42 14.0817C191.561 14.016 187.616 13.5398 184.789 13.1087C179.435 12.2959 174.71 11.1547 169.093 10.2885C169.27 10.1653 169.447 10.0421 169.627 9.9272C173.843 7.06176 178.552 5.61261 183.335 4.31536C189.888 2.54602 196.545 2.43108 203.226 3.19465C205.814 3.49022 208.407 4.24969 210.326 6.24482C212.401 8.40827 212.187 10.2146 209.697 11.7827Z" fill="#270641" stroke="#270641" stroke-width="0.822129" />
    <path d="M226.509 52.6925C224.266 53.5176 222.224 54.7287 220.165 55.911C215.83 58.4069 211.528 60.9727 207.14 63.3866C206.022 63.9982 204.596 64.8727 203.351 63.9408C201.909 62.8693 202.102 61.1041 202.213 59.4866C202.23 59.2321 202.341 58.9899 202.382 58.7354C202.723 56.7402 203.651 54.9914 204.633 53.2508C205.085 52.4503 205.694 51.5102 204.494 50.722C201.646 48.8418 198.922 48.7351 196.346 51.0093C193.363 53.649 189.747 55.1884 186.423 57.2123C184.258 58.526 182.014 59.8191 179.45 60.3733C177.342 60.8249 176.636 60.2871 176.952 58.177C177.026 57.6844 177.26 57.2123 177.474 56.7525C178.546 54.4249 179.643 52.1136 180.708 49.786C181.279 48.5462 181.546 47.327 180.272 46.3007C179.109 45.3647 178.156 46.0174 177.116 46.6003C174.191 48.2465 172.256 50.9724 169.84 53.1687C168.956 53.9692 168.175 54.9052 167.009 55.3773C166.536 54.5029 167.161 54.0965 167.485 53.5751C168.208 52.3723 168.907 51.1489 169.622 49.9379C170.263 48.8541 169.54 48.2465 168.796 47.717C167.97 47.1258 167.382 47.5856 166.848 48.263C166.096 49.2195 165.225 50.1062 164.835 51.2926C164.301 52.906 163.035 53.8584 161.589 54.3551C156.354 56.1368 152.192 59.4948 148.19 63.1197C146.008 65.0943 144.126 67.422 141.513 68.8917C140.141 69.6634 139.212 69.3063 139.109 67.7915C139.015 66.4039 138.945 65.0122 139.339 63.5918C140.49 59.4702 142.327 55.7098 144.886 52.2861C145.519 51.4322 146.099 50.5619 145.038 49.5807C143.929 48.5585 143.037 49.1784 142.183 49.9338C141.805 50.2704 141.505 50.7056 141.193 51.1079C139.298 53.5956 138.403 56.5637 137.252 59.4004C136.163 62.0893 136.003 64.8521 136.763 67.6683C137.24 69.4417 138.131 70.9155 140.022 71.3384C141.903 71.7653 143.395 70.8868 144.582 69.4705C146.855 66.7734 149.386 64.3267 152.065 62.0318C155.302 59.269 158.91 57.0933 162.719 55.2295C163.204 54.9914 163.779 54.3592 164.157 55.5292C165.192 58.7477 166.388 58.957 168.808 56.6417C171.22 54.3428 173.32 51.7154 176.011 49.708C176.463 49.3714 176.981 48.7556 177.49 49.1456C178.033 49.552 177.515 50.217 177.314 50.7302C177.034 51.4363 176.759 52.1711 176.34 52.7992C175.428 54.1704 175.021 55.7057 174.766 57.2903C174.162 61.0096 176.673 63.2429 180.33 62.2289C181.065 62.0277 181.784 61.7363 182.47 61.4037C185.597 59.9053 188.514 58.0457 191.477 56.2558C191.904 55.9931 192.311 55.4307 192.825 55.718C193.461 56.0711 192.812 56.6171 192.804 57.0809C192.771 58.5342 192.352 60.1886 193.909 61.1082C195.335 61.9456 196.268 60.6812 197.274 59.9464C198.17 59.2896 198.758 58.8175 199.054 60.5663C199.543 63.4646 201.852 66.3341 205.998 65.6321C207.366 65.4022 208.512 64.6756 209.667 63.9859C215.723 60.3898 221.274 55.9233 227.902 53.296C228.21 53.1728 228.477 53.0045 228.469 52.5857C227.791 52.1588 227.187 52.4421 226.509 52.6925ZM201.083 52.3107C199.699 54.6589 198.544 57.2123 195.43 58.6902C196.029 55.2541 198.026 53.2426 200.245 51.3829C200.479 51.19 200.862 51.0914 201.112 51.4117C201.33 51.6908 201.26 52.0151 201.083 52.3107Z" fill="#270641" stroke="#270641" stroke-width="0.822129" />
    <path d="M405.169 58.1471C405.203 58.1257 405.298 58.0484 405.431 57.9453C405.336 58.0054 405.25 58.0741 405.169 58.1471ZM405.16 58.1514V58.1557C405.16 58.1557 405.164 58.1514 405.169 58.1471C405.164 58.1471 405.16 58.1471 405.16 58.1514Z" fill="#270641" stroke="#270641" stroke-width="0.822129" />
    <path d="M373.62 50.3158C372.42 49.2361 371.245 49.5728 370.201 51.6007C369.782 52.4095 369.371 53.0334 368.496 53.1812C366.857 53.4522 365.493 54.2897 364.169 55.1805C360.241 57.8325 356.137 60.2011 352.065 62.6109C350.906 63.2924 349.698 63.8384 348.35 64.0847C346.559 64.4131 345.548 63.7029 345.417 61.8843C345.182 58.6289 345.556 55.5253 347.451 52.7132C348.449 51.2354 347.976 50.3897 346.226 50.2583C345.926 50.2378 345.651 50.3158 345.322 50.1926C342.302 49.0596 340.724 49.4086 338.962 52.0893C338.099 53.4029 337.195 54.6879 336.159 55.866C335.128 57.0401 333.965 58.1034 332.65 58.9491C332.046 59.335 331.418 59.6962 330.875 60.1724C330.847 60.1971 330.637 60.3407 330.637 60.353C330.197 60.6732 329.721 61.0181 330.247 61.5641C330.37 61.6913 330.53 61.7776 330.711 61.7242C330.871 61.679 331.003 61.56 331.126 61.4573C331.282 61.3301 331.455 61.2316 331.623 61.1207C332.038 60.8498 332.42 60.5337 332.782 60.1929C332.905 60.0821 333.049 59.9713 333.156 59.844C333.69 59.3226 334.208 58.7849 334.799 58.3251C334.992 58.1732 335.194 58.0295 335.403 57.8981C335.506 57.8324 335.613 57.7668 335.724 57.7093C335.757 57.6888 336.061 57.5574 336.061 57.541C336.135 58.9368 336.176 60.1191 337.63 60.6979C338.962 61.2275 339.677 60.3736 340.535 59.7537C340.934 59.4663 341.205 58.8711 341.825 59.1379C342.413 59.3965 342.265 59.9877 342.323 60.4885C342.725 63.8835 345.265 65.7514 348.654 65.2957C351.744 64.8893 353.934 62.8203 356.428 61.3096C360.574 58.7931 364.371 55.6854 368.993 53.9818C369.61 53.756 370.279 53.21 370.875 54.031C371.454 54.8151 371.594 55.6033 370.99 56.4983C370.131 57.7668 369.351 59.0969 368.537 60.4023C366.544 63.6085 364.498 66.7982 363.808 70.6038C363.397 72.8863 365.016 75.7476 367 76.3921C368.776 76.9669 371.035 75.8092 372.202 73.6047C370.855 73.5513 370.144 74.6679 369.104 75.0333C367.169 75.6983 366.298 75.2221 365.817 73.2229C365.242 70.8131 366.335 68.859 367.424 66.9214C369.26 63.629 371.179 60.3736 373.086 57.114C373.554 56.3053 373.965 55.4966 373.287 54.6304C372.593 53.756 372.893 53.1279 373.673 52.5326C374.635 51.7855 374.458 51.063 373.62 50.3158ZM343.506 54.0844C342.59 55.8291 340.946 56.9416 339.734 58.4318C339.508 58.711 339.019 59.1092 338.563 58.7438C338.234 58.4811 338.308 58.0377 338.44 57.6641C339.34 55.1189 340.987 53.0868 342.976 51.3421C343.543 50.8454 344.27 51.026 344.718 51.8717C344.299 52.6353 343.892 53.3537 343.506 54.0844Z" fill="#270641" stroke="#270641" stroke-width="0.822129" />
    <path d="M328.94 47.9089C328.64 47.8227 328.307 47.8268 327.987 47.8227C324.408 47.757 322.658 50.3433 321.084 52.8885C320.349 54.079 319.675 55.0889 318.356 55.5816C314.991 56.7351 311.58 57.0882 307.977 56.4026C308.819 55.0232 309.526 53.8122 310.29 52.634C311.551 50.6881 311.958 48.4549 312.102 46.2463C312.32 42.9703 307.743 40.4087 304.501 42.1945C300.018 44.6617 296.961 48.1799 300.626 53.3114C301.587 54.662 301.333 55.6267 300.133 56.5668C296.398 59.4938 292.757 62.5481 288.92 65.3355C285.752 67.6221 280.755 67.5565 278.915 63.0038C278.081 60.9307 276.988 58.9519 275.841 57.0307C275.106 55.8032 275.562 55.2655 276.634 54.8755C279.042 54.001 281.281 52.7695 283.607 51.7391C290.395 48.7259 296.188 44.284 301.513 39.2757C306.773 34.3289 311.091 28.6021 313.528 21.6684C315.632 15.6707 314.148 10.7444 307.878 8.11709C302.298 5.77712 296.825 7.08258 291.808 9.80844C282.292 14.9728 275.241 22.6619 270.13 32.1613C269.625 33.1014 269.021 33.9922 268.466 34.9036C269.39 30.8928 270.524 27.038 272.11 23.331C275.007 16.5492 277.563 9.55392 283.636 4.7344C283.907 4.51683 284.055 4.23356 283.928 3.89283C283.747 3.40431 283.328 3.48642 282.95 3.54389C282.424 3.626 282.058 4.00777 281.647 4.31566C277.366 7.53004 274.724 12.0458 272.086 16.5123C268.289 22.9574 266.387 30.1744 263.946 37.1861C260.1 48.2661 258.284 59.736 256.932 71.3168C256.838 72.142 256.912 73.1395 257.98 73.2914C258.999 73.4351 258.95 72.4293 259.122 71.8012C260.384 67.1008 261.542 62.3675 262.409 57.5726C262.689 56.0372 263.207 55.2901 264.94 55.8936C266.95 56.5832 269.021 56.9691 271.178 56.3615C272.295 56.0454 273.15 56.5258 273.709 57.5972C274.847 59.7525 276.071 61.8666 277.201 64.026C278.438 66.3865 280.123 68.0491 282.97 68.1764C285.382 68.2831 287.478 67.4785 289.409 66.1155C292.449 63.9726 295.482 61.8297 298.53 59.7073C298.954 59.4158 299.348 58.9109 300.001 59.4405C302.294 61.2919 303.083 61.296 305.228 59.1244C306.214 58.1268 307.167 57.7984 308.577 57.7984C310.253 57.7984 311.929 57.9995 313.61 57.9133C315.056 57.8394 316.297 57.2154 317.661 56.8213C318.532 56.5709 320.016 55.5528 320.78 56.3246C321.532 57.0841 322.485 57.199 323.389 57.4084C326.138 58.0447 326.886 59.3214 325.587 61.8009C324.137 64.5761 321.741 66.3906 318.873 67.5688C317.867 67.9834 316.733 68.9933 315.714 67.9998C314.678 66.9899 315.825 66.0334 316.285 65.1015C316.605 64.4529 316.782 63.792 315.685 63.8536C314.23 63.9357 312.879 65.7994 312.953 67.5524C313.031 69.2848 314.107 69.8349 315.66 69.8184C320.907 69.7528 324.622 66.9694 327.354 62.8355C329.536 59.5308 328.402 57.3755 324.49 56.6612C323.631 56.5052 322.699 56.3328 322.584 55.1218C322.358 52.6915 326.179 48.7915 328.694 48.9352C329.018 48.9557 329.384 49.0132 329.462 48.6068C329.536 48.2455 329.257 47.9951 328.94 47.9089ZM270.668 54.3705C270.455 55.0684 269.69 55.093 269.033 55.0971C268.84 55.1012 268.647 55.0971 268.454 55.1013C267.057 55.1916 265.828 54.5963 264.575 54.116C264.004 53.8984 263.531 53.5577 263.679 52.8352C263.815 52.166 264.361 52.1537 264.883 52.1373C266.51 52.0798 268.088 52.3138 269.542 53.061C270.077 53.336 270.931 53.5331 270.668 54.3705ZM273.253 53.4551C271.272 51.267 268.737 50.3515 265.828 50.5404C264.534 50.6225 264.394 50.1093 264.797 49.0871C269.678 36.8207 275.603 25.166 285.575 16.1715C290.309 11.9021 295.778 8.77803 302.516 8.84371C304.02 8.86013 305.462 9.18856 306.834 9.70171C309.674 10.7609 310.915 12.8545 310.968 17.0952C310.841 22.7234 308.178 28.052 304.418 33.007C296.854 42.9703 286.865 49.5017 275.303 53.8779C274.498 54.1817 273.881 54.1529 273.253 53.4551ZM304.275 57.2236C303.851 58.1145 303.108 58.8411 302.163 59.2352C301.653 59.0381 301.238 58.7344 301.505 58.2458C301.933 57.4782 301.99 56.2507 303.264 56.341C303.699 56.3698 304.488 56.7762 304.275 57.2236ZM304.271 55.4995C303.247 54.6948 304.365 54.2884 304.624 53.8327C304.998 53.1841 305.647 52.6956 306.136 52.1086C306.489 51.6898 307.028 51.2547 306.387 50.6471C305.791 50.0724 305.24 50.0354 304.546 50.5978C303.687 51.2916 303.457 52.4452 302.611 53.1513C300.425 50.0929 301.67 45.8399 305.047 44.6001C307.221 43.8037 309.481 45.4335 309.329 47.7037C309.144 50.4665 308.084 52.8762 306.329 55.0068C305.758 55.7006 305.203 56.2261 304.271 55.4995Z" fill="#270641" stroke="#270641" stroke-width="0.822129" />
    <path d="M389.764 44.3657C388.827 44.1276 387.587 44.1153 387.574 42.6457C387.57 41.8739 388.039 40.8476 388.836 41.1021C389.953 41.4592 391.716 41.2909 391.995 42.6703C392.184 43.5981 391.03 44.3329 389.764 44.3657Z" fill="#270641" stroke="#270641" stroke-width="0.822129" />
    <path d="M149.337 44.3991C148.265 44.3129 147.201 44.0624 147.11 42.7857C147.057 42.0427 147.431 41.041 148.392 41.2668C149.547 41.5418 151.277 41.4351 151.556 42.8062C151.733 43.6807 150.558 44.4976 149.337 44.3991Z" fill="#270641" stroke="#270641" stroke-width="0.822129" />
    <path d="M461.921 65.125C461.416 64.5996 460.832 64.1521 460.163 63.8647C459.744 63.6841 459.292 63.5527 458.79 63.4912C457.097 63.2818 455.351 63.7539 453.819 64.4477C453.272 64.694 452.734 64.9772 452.2 65.2728C451.834 65.4781 451.472 65.6874 451.107 65.8927C449.134 67.0011 447.096 68.1834 444.763 68.2039C444.089 68.2121 443.337 68.2204 442.692 68.0069C442.269 67.8673 441.722 67.7236 441.352 67.4691C440.95 67.2023 440.588 66.8656 440.288 66.4551C439.298 65.1168 439.113 63.2407 439.035 61.611C439.027 61.4426 439.027 61.2661 439.031 61.0855C439.055 60.014 439.228 58.7948 438.714 57.867C437.93 56.4548 435.818 57.1609 434.716 57.7151C432.153 59.0288 430.036 61.0855 427.892 62.9657C427.09 63.6718 426.244 64.345 425.336 64.9074C424.794 65.2441 424.222 65.5396 423.627 65.7819C423.438 65.8599 423.245 65.9296 423.051 65.9953C422.616 66.139 422.147 66.254 421.708 66.1226C420.812 65.8558 420.504 64.7391 420.496 63.8072C420.471 60.5847 422.205 57.5099 421.983 54.2996C421.93 53.5524 421.765 52.8012 421.391 52.1485C421.017 51.4998 420.418 50.962 419.69 50.765C418.967 50.5721 418.207 50.7322 417.496 51.0031C417.324 51.0688 417.155 51.1386 416.991 51.2125C416.177 51.5778 415.405 52.0171 414.641 52.4769C414.636 52.4769 414.632 52.481 414.628 52.4851C412.956 53.495 411.341 54.628 409.533 55.3751C409.266 55.486 408.995 55.5927 408.732 55.7077C408.514 55.8021 407.602 56.1264 407.364 56.1839C407.302 56.2003 407.265 56.2167 407.245 56.2167C409.106 53.3431 410.98 50.3914 411.127 46.9718C411.181 45.7484 410.98 44.4594 410.248 43.47C409.373 42.2877 407.857 41.713 406.39 41.6391C403.867 41.516 401.32 42.7804 399.898 44.8617C398.472 46.943 398.222 49.7715 399.253 52.0746C399.631 52.9161 400.177 53.7413 400.136 54.6608C400.075 55.9088 398.978 56.8161 397.983 57.5755C394.043 60.5888 390.32 63.8811 386.844 67.4198C386.17 68.1054 385.48 68.8197 384.592 69.1974C383.705 69.571 382.559 69.5135 381.918 68.7951C381.334 68.1424 381.326 67.1653 381.412 66.295C381.881 61.3934 384.173 56.8284 386.988 52.7807C387.378 52.2182 387.793 51.6353 387.896 50.9579C388.003 50.2806 387.682 49.4842 387.021 49.2912C386.232 49.0613 385.5 49.7633 384.999 50.4202C383.273 52.6739 381.868 55.1658 380.771 57.789C379.456 60.9213 378.585 64.4436 379.53 67.7072C380.056 69.5217 381.47 71.3526 383.356 71.3157C384.74 71.291 385.883 70.2812 386.885 69.3329C390.374 66.0323 393.866 62.7317 397.355 59.4311C397.535 59.2628 397.724 59.0863 397.959 59.0124C398.406 58.8769 398.879 59.1437 399.208 59.4763C399.536 59.8088 399.795 60.2152 400.181 60.4738C401.069 61.0691 402.302 60.6791 403.144 60.0222C403.986 59.3695 404.635 58.4746 405.535 57.8998C405.609 57.8547 405.683 57.8095 405.769 57.7644C405.782 57.7562 405.79 57.748 405.802 57.748C406.02 57.6248 406.25 57.5263 406.48 57.4483C406.484 57.4442 406.493 57.4401 406.501 57.4401C406.591 57.399 406.682 57.358 406.78 57.321V57.3169H406.784C407.002 57.2471 407.216 57.165 407.429 57.0829C407.721 56.9721 408.009 56.8694 408.296 56.7545C408.436 56.697 408.58 56.6396 408.724 56.578C409.007 56.4589 409.291 56.3358 409.574 56.2085C410.137 55.9499 410.692 55.6789 411.247 55.3998C411.797 55.1165 412.348 54.825 412.89 54.5295C413.437 54.2339 413.979 53.9301 414.521 53.6304C414.883 53.4252 415.245 53.224 415.606 53.0229C416.087 52.756 416.568 52.4892 417.052 52.2305C417.574 51.9473 418.149 51.664 418.737 51.7502C419.267 51.8324 419.715 52.2182 419.974 52.6903C420.233 53.1583 420.323 53.7043 420.344 54.238C420.422 56.0279 419.818 57.7685 419.341 59.4927C418.864 61.221 418.511 63.0847 419.086 64.7802C419.321 65.474 419.723 66.1349 420.335 66.5372C421.289 67.1571 422.567 67.0339 423.614 66.5906C423.668 66.566 423.725 66.5454 423.779 66.5167C424.342 66.2704 424.896 65.9584 425.435 65.6218C425.932 65.3098 426.412 64.9772 426.864 64.6488C427.933 63.8729 428.853 62.9164 429.806 62.0051C430.747 61.1101 431.77 60.3096 432.835 59.5666C433.603 59.0288 434.495 58.4746 435.44 58.3145C435.834 58.2447 436.237 58.2447 436.644 58.3432C438.016 58.6675 437.864 60.3507 437.835 61.4385C437.827 61.7259 437.827 62.0174 437.835 62.3129V62.3253C437.901 64.8582 438.612 67.6703 440.954 68.8402C440.966 68.8485 440.974 68.8526 440.987 68.8567C441.176 68.9511 441.373 69.0332 441.582 69.103C441.665 69.1317 441.743 69.1563 441.833 69.181C444.985 70.1005 448.033 68.3764 450.7 66.8533C450.967 66.7014 451.242 66.5495 451.522 66.3976C451.912 66.1883 452.315 65.9871 452.721 65.7983C455.277 64.6119 458.149 63.9797 460.541 65.9379C461.86 67.0134 463.01 68.1588 464.658 68.7705C466.219 69.3452 467.785 69.5463 469.436 69.4519C473.311 69.2343 477.21 68.4749 480.97 67.5471C481.923 67.3131 482.876 67.0586 483.821 66.7876C484.035 66.7261 484.245 66.5454 484.413 66.3525C467.604 71.4553 464.35 67.6497 461.921 65.125ZM403.304 57.1732C402.914 57.9778 402.281 58.7784 401.361 59.037C400.613 58.9713 400.564 58.4499 400.736 58.06C401.069 57.3169 401.18 56.2413 402.236 56.1962C402.643 56.1757 403.608 56.541 403.304 57.1732ZM405.17 58.138C405.166 58.1421 405.161 58.1462 405.161 58.1462V58.1421C405.161 58.138 405.166 58.138 405.17 58.138C405.248 58.0682 405.33 58.0025 405.42 57.945C405.293 58.0435 405.202 58.1174 405.17 58.138ZM404.96 55.5558C404.405 56.2372 403.925 55.72 403.473 55.3998C402.938 55.0221 402.938 54.6075 403.423 54.1395C404.064 53.5073 404.709 52.871 405.272 52.1772C405.638 51.7256 406.279 51.1919 405.609 50.5556C404.952 49.9316 404.237 50.0384 403.526 50.5844C402.688 51.2248 402.721 52.4974 401.583 53.0762C399.849 49.5827 400.732 46.1425 403.666 44.7303C406.119 43.5603 408.379 44.9602 408.407 47.6409C408.436 50.8019 406.838 53.2404 404.96 55.5558Z" fill="#270641" />
    <path d="M405.17 58.138C405.166 58.1421 405.161 58.1462 405.161 58.1462V58.1421C405.161 58.138 405.166 58.138 405.17 58.138ZM405.17 58.138C405.248 58.0682 405.33 58.0025 405.42 57.945C405.293 58.0435 405.202 58.1174 405.17 58.138ZM461.921 65.125C461.416 64.5996 460.832 64.1521 460.163 63.8647C459.744 63.6841 459.292 63.5527 458.79 63.4912C457.097 63.2818 455.351 63.7539 453.819 64.4477C453.272 64.694 452.734 64.9772 452.2 65.2728C451.834 65.4781 451.472 65.6874 451.107 65.8927C449.134 67.0011 447.096 68.1834 444.763 68.2039C444.089 68.2121 443.337 68.2204 442.692 68.0069C442.269 67.8673 441.722 67.7236 441.352 67.4691C440.95 67.2023 440.588 66.8656 440.288 66.4551C439.298 65.1168 439.113 63.2407 439.035 61.611C439.027 61.4426 439.027 61.2661 439.031 61.0855C439.055 60.014 439.228 58.7948 438.714 57.867C437.93 56.4548 435.818 57.1609 434.716 57.7151C432.153 59.0288 430.036 61.0855 427.892 62.9657C427.09 63.6718 426.244 64.345 425.336 64.9074C424.794 65.2441 424.222 65.5396 423.627 65.7819C423.438 65.8599 423.245 65.9296 423.051 65.9953C422.616 66.139 422.147 66.254 421.708 66.1226C420.812 65.8558 420.504 64.7391 420.496 63.8072C420.471 60.5847 422.205 57.5099 421.983 54.2996C421.93 53.5524 421.765 52.8012 421.391 52.1485C421.017 51.4998 420.418 50.962 419.69 50.765C418.967 50.5721 418.207 50.7322 417.496 51.0031C417.324 51.0688 417.155 51.1386 416.991 51.2125C416.177 51.5778 415.405 52.0171 414.641 52.4769C414.636 52.4769 414.632 52.481 414.628 52.4851C412.956 53.495 411.341 54.628 409.533 55.3751C409.266 55.486 408.995 55.5927 408.732 55.7077C408.514 55.8021 407.602 56.1264 407.364 56.1839C407.302 56.2003 407.265 56.2167 407.245 56.2167C409.106 53.3431 410.98 50.3914 411.127 46.9718C411.181 45.7484 410.98 44.4594 410.248 43.47C409.373 42.2877 407.857 41.713 406.39 41.6391C403.867 41.516 401.32 42.7804 399.898 44.8617C398.472 46.943 398.222 49.7715 399.253 52.0746C399.631 52.9161 400.177 53.7413 400.136 54.6608C400.075 55.9088 398.978 56.8161 397.983 57.5755C394.043 60.5888 390.32 63.8811 386.844 67.4198C386.17 68.1054 385.48 68.8197 384.592 69.1974C383.705 69.571 382.559 69.5135 381.918 68.7951C381.334 68.1424 381.326 67.1653 381.412 66.295C381.881 61.3934 384.173 56.8284 386.988 52.7807C387.378 52.2182 387.793 51.6353 387.896 50.9579C388.003 50.2806 387.682 49.4842 387.021 49.2912C386.232 49.0613 385.5 49.7633 384.999 50.4202C383.273 52.6739 381.868 55.1658 380.771 57.789C379.456 60.9213 378.585 64.4436 379.53 67.7072C380.056 69.5217 381.47 71.3526 383.356 71.3157C384.74 71.291 385.883 70.2812 386.885 69.3329C390.374 66.0323 393.866 62.7317 397.355 59.4311C397.535 59.2628 397.724 59.0863 397.959 59.0124C398.406 58.8769 398.879 59.1437 399.208 59.4763C399.536 59.8088 399.795 60.2152 400.181 60.4738C401.069 61.0691 402.302 60.6791 403.144 60.0222C403.986 59.3695 404.635 58.4746 405.535 57.8998C405.609 57.8547 405.683 57.8095 405.769 57.7644C405.782 57.7562 405.79 57.748 405.802 57.748C406.02 57.6248 406.25 57.5263 406.48 57.4483C406.484 57.4442 406.493 57.4401 406.501 57.4401C406.591 57.399 406.682 57.358 406.78 57.321V57.3169H406.784C407.002 57.2471 407.216 57.165 407.429 57.0829C407.721 56.9721 408.009 56.8694 408.296 56.7545C408.436 56.697 408.58 56.6396 408.724 56.578C409.007 56.4589 409.291 56.3358 409.574 56.2085C410.137 55.9499 410.692 55.6789 411.247 55.3998C411.797 55.1165 412.348 54.825 412.89 54.5295C413.437 54.2339 413.979 53.9301 414.521 53.6304C414.883 53.4252 415.245 53.224 415.606 53.0229C416.087 52.756 416.568 52.4892 417.052 52.2305C417.574 51.9473 418.149 51.664 418.737 51.7502C419.267 51.8324 419.715 52.2182 419.974 52.6903C420.233 53.1583 420.323 53.7043 420.344 54.238C420.422 56.0279 419.818 57.7685 419.341 59.4927C418.864 61.221 418.511 63.0847 419.086 64.7802C419.321 65.474 419.723 66.1349 420.335 66.5372C421.289 67.1571 422.567 67.0339 423.614 66.5906C423.668 66.566 423.725 66.5454 423.779 66.5167C424.342 66.2704 424.896 65.9584 425.435 65.6218C425.932 65.3098 426.412 64.9772 426.864 64.6488C427.933 63.8729 428.853 62.9164 429.806 62.0051C430.747 61.1101 431.77 60.3096 432.835 59.5666C433.603 59.0288 434.495 58.4746 435.44 58.3145C435.834 58.2447 436.237 58.2447 436.644 58.3432C438.016 58.6675 437.864 60.3507 437.835 61.4385C437.827 61.7259 437.827 62.0174 437.835 62.3129V62.3253C437.901 64.8582 438.612 67.6703 440.954 68.8402C440.966 68.8485 440.974 68.8526 440.987 68.8567C441.176 68.9511 441.373 69.0332 441.582 69.103C441.665 69.1317 441.743 69.1563 441.833 69.181C444.985 70.1005 448.033 68.3764 450.7 66.8533C450.967 66.7014 451.242 66.5495 451.522 66.3976C451.912 66.1883 452.315 65.9871 452.721 65.7983C455.277 64.6119 458.149 63.9797 460.541 65.9379C461.86 67.0134 463.01 68.1588 464.658 68.7705C466.219 69.3452 467.785 69.5463 469.436 69.4519C473.311 69.2343 477.21 68.4749 480.97 67.5471C481.923 67.3131 482.876 67.0586 483.821 66.7876C484.035 66.7261 484.245 66.5454 484.413 66.3525C467.604 71.4553 464.35 67.6497 461.921 65.125ZM403.304 57.1732C402.914 57.9778 402.281 58.7784 401.361 59.037C400.613 58.9713 400.564 58.4499 400.736 58.06C401.069 57.3169 401.18 56.2413 402.236 56.1962C402.643 56.1757 403.608 56.541 403.304 57.1732ZM404.96 55.5558C404.405 56.2372 403.925 55.72 403.473 55.3998C402.938 55.0221 402.938 54.6075 403.423 54.1395C404.064 53.5073 404.709 52.871 405.272 52.1772C405.638 51.7256 406.279 51.1919 405.609 50.5556C404.952 49.9316 404.237 50.0384 403.526 50.5844C402.688 51.2248 402.721 52.4974 401.583 53.0762C399.849 49.5827 400.732 46.1425 403.666 44.7303C406.119 43.5603 408.379 44.9602 408.407 47.6409C408.436 50.8019 406.838 53.2404 404.96 55.5558Z" stroke="#270641" stroke-width="0.822129" />
    <path d="M405.17 58.1387C405.165 58.1434 405.16 58.1481 405.16 58.1481V58.1434C405.16 58.1387 405.165 58.1387 405.17 58.1387Z" fill="#270641" stroke="#270641" stroke-width="0.822129" />
    <path d="M405.43 57.9453C405.297 58.0484 405.202 58.1257 405.168 58.1471C405.25 58.0741 405.336 58.0054 405.43 57.9453Z" fill="#270641" stroke="#270641" stroke-width="0.822129" />
    <path d="M422.539 46.907V46.9361C422.539 46.9278 422.535 46.9112 422.535 46.8945C422.535 46.8987 422.539 46.9028 422.539 46.907Z" fill="#270641" stroke="#270641" stroke-width="0.822129" />
    <path d="M406.782 57.3203L406.777 57.3254V57.3203H406.782Z" fill="#270641" stroke="#270641" stroke-width="0.822129" />
</svg>
    