<svg width="182" height="182" viewBox="0 0 182 182" fill="none" xmlns="http://www.w3.org/2000/svg">
    <g filter="url(#filter0_d_1167_1101)">
        <rect x="37.1992" y="26" width="107.199" height="107.199" rx="26.5268" fill="#4C2A76" />
    </g>
    <path d="M112.394 56.4454C106.827 50.9779 99.4224 47.9707 91.5345 47.9707C75.2864 47.9707 62.0619 60.9325 62.0619 76.8686C62.0619 81.9607 63.423 86.9398 66.0002 91.3139L61.8164 106.291L77.4471 102.271C81.7574 104.571 86.6069 105.792 91.5308 105.792H91.5419C107.79 105.792 121.026 92.8302 121.026 76.8941C121.026 69.1703 117.958 61.9166 112.39 56.4491L112.394 56.4454ZM91.5419 100.915C87.1387 100.915 82.8247 99.7521 79.0612 97.5651L78.1649 97.0402L68.8898 99.4204L71.3667 90.5593L70.7865 89.6481C68.3208 85.8317 67.0341 81.4139 67.0341 76.8686C67.0341 63.6225 78.0273 52.8441 91.5568 52.8441C98.0984 52.8441 104.261 55.3519 108.883 59.8827C113.51 64.4281 116.054 70.4533 116.054 76.8759C116.042 90.1329 105.049 100.911 91.5419 100.911V100.915ZM104.979 82.9193C104.246 82.5548 100.62 80.8125 99.9468 80.5719C99.2736 80.3314 98.7827 80.2074 98.2844 80.9364C97.7972 81.6545 96.3803 83.2838 95.9489 83.7723C95.5175 84.2498 95.0898 84.319 94.3572 83.9545C93.6246 83.59 91.2407 82.8282 88.4292 80.3678C86.2424 78.4542 84.7586 76.0849 84.3272 75.3668C83.8958 74.6487 84.2788 74.2514 84.6545 73.8979C84.9929 73.5771 85.3871 73.0559 85.759 72.633C86.1309 72.2102 86.2462 71.915 86.4916 71.4265C86.7371 70.949 86.6181 70.5262 86.4321 70.1617C86.2462 69.7972 84.7697 66.2433 84.1673 64.7962C83.576 63.3819 82.9586 63.5788 82.5049 63.5532C82.0735 63.5314 81.5863 63.5314 81.0991 63.5314C80.612 63.5314 79.8087 63.7136 79.1355 64.4317C78.4624 65.1498 76.5546 66.903 76.5546 70.457C76.5546 74.0109 79.1913 77.4408 79.5632 77.9293C79.9351 78.4068 84.7586 85.7078 92.1481 88.8316C93.9035 89.5715 95.2758 90.0162 96.3431 90.3589C98.1096 90.9056 99.7125 90.8254 100.981 90.6432C102.398 90.4391 105.339 88.9009 105.957 87.2132C106.574 85.5255 106.574 84.0821 106.388 83.7832C106.213 83.4625 105.726 83.2838 104.982 82.9157L104.979 82.9193Z" fill="#FFB8BC" />
    <defs>
        <filter id="filter0_d_1167_1101" x="0.356495" y="0.946948" width="180.885" height="180.884" filterUnits="userSpaceOnUse" color-interpolation-filters="sRGB">
            <feFlood flood-opacity="0" result="BackgroundImageFix" />
            <feColorMatrix in="SourceAlpha" type="matrix" values="0 0 0 0 0 0 0 0 0 0 0 0 0 0 0 0 0 0 127 0" result="hardAlpha" />
            <feOffset dy="11.7897" />
            <feGaussianBlur stdDeviation="18.4214" />
            <feComposite in2="hardAlpha" operator="out" />
            <feColorMatrix type="matrix" values="0 0 0 0 0.298039 0 0 0 0 0.164706 0 0 0 0 0.462745 0 0 0 0.55 0" />
            <feBlend mode="normal" in2="BackgroundImageFix" result="effect1_dropShadow_1167_1101" />
            <feBlend mode="normal" in="SourceGraphic" in2="effect1_dropShadow_1167_1101" result="shape" />
        </filter>
    </defs>
</svg>
    