<svg width="115" height="120" viewBox="0 0 115 120" fill="none" xmlns="http://www.w3.org/2000/svg">
    <ellipse cx="57.5913" cy="60.0011" rx="57.2378" ry="59.0362" fill="#4C2A76" />
    <ellipse cx="72.6869" cy="46.446" rx="16.4194" ry="16.9353" stroke="#FFB8BC" stroke-width="5.4767" />
    <mask id="mask0_630_7680" style="mask-type:alpha" maskUnits="userSpaceOnUse" x="19" y="33" width="64" height="66">
        <path
            d="M56.0182 33.6162H19.4478L37.6086 98.2782H81.3935L82.8862 66.717C73.4326 69.7961 63.4815 68.7697 55.5206 59.0191C49.1519 51.2186 51.2914 37.7217 56.0182 33.6162Z"
            fill="#D9D9D9" />
    </mask>
    <g mask="url(#mask0_630_7680)">
        <path
            d="M43.9076 94.9362C45.95 94.9362 47.6056 93.2285 47.6056 91.1219C47.6056 89.0153 45.95 87.3076 43.9076 87.3076C41.8652 87.3076 40.2095 89.0153 40.2095 91.1219C40.2095 93.2285 41.8652 94.9362 43.9076 94.9362Z"
            fill="#FFB8BC" />
        <path
            d="M69.7953 94.9362C71.8377 94.9362 73.4933 93.2285 73.4933 91.1219C73.4933 89.0153 71.8377 87.3076 69.7953 87.3076C67.7529 87.3076 66.0972 89.0153 66.0972 91.1219C66.0972 93.2285 67.7529 94.9362 69.7953 94.9362Z"
            fill="#FFB8BC" />
        <path
            d="M77.1907 51.0732H36.1789L34.6627 43.0632C34.5763 42.6259 34.3439 42.2338 34.006 41.955C33.6682 41.6762 33.2462 41.5285 32.8137 41.5375H25.4175V45.3518H31.2974L38.3608 81.9689C38.4472 82.4062 38.6796 82.7983 39.0175 83.0771C39.3553 83.3559 39.7773 83.5036 40.2098 83.4946H73.4926V79.6804H41.7261L40.2098 72.0518H73.4926C73.9201 72.0626 74.3379 71.9202 74.675 71.649C75.0122 71.3778 75.2477 70.9944 75.3417 70.5642L79.0398 53.3999C79.1017 53.117 79.1003 52.8231 79.0356 52.5408C78.9708 52.2585 78.8445 51.9951 78.6662 51.7708C78.4879 51.5464 78.2623 51.367 78.0066 51.2461C77.751 51.1252 77.4719 51.0661 77.1907 51.0732ZM72.0134 68.2375H39.5072L36.9185 54.8875H74.8794L72.0134 68.2375Z"
            fill="#FFB8BC" />
        <path
            d="M43.9076 94.9362C45.95 94.9362 47.6056 93.2285 47.6056 91.1219C47.6056 89.0153 45.95 87.3076 43.9076 87.3076C41.8652 87.3076 40.2095 89.0153 40.2095 91.1219C40.2095 93.2285 41.8652 94.9362 43.9076 94.9362Z"
            fill="#FFB8BC" />
        <path
            d="M69.7953 94.9362C71.8377 94.9362 73.4933 93.2285 73.4933 91.1219C73.4933 89.0153 71.8377 87.3076 69.7953 87.3076C67.7529 87.3076 66.0972 89.0153 66.0972 91.1219C66.0972 93.2285 67.7529 94.9362 69.7953 94.9362Z"
            fill="#FFB8BC" />
        <path
            d="M77.1907 51.0732H36.1789L34.6627 43.0632C34.5763 42.6259 34.3439 42.2338 34.006 41.955C33.6682 41.6762 33.2462 41.5285 32.8137 41.5375H25.4175V45.3518H31.2974L38.3608 81.9689C38.4472 82.4062 38.6796 82.7983 39.0175 83.0771C39.3553 83.3559 39.7773 83.5036 40.2098 83.4946H73.4926V79.6804H41.7261L40.2098 72.0518H73.4926C73.9201 72.0626 74.3379 71.9202 74.675 71.649C75.0122 71.3778 75.2477 70.9944 75.3417 70.5642L79.0398 53.3999C79.1017 53.117 79.1003 52.8231 79.0356 52.5408C78.9708 52.2585 78.8445 51.9951 78.6662 51.7708C78.4879 51.5464 78.2623 51.367 78.0066 51.2461C77.751 51.1252 77.4719 51.0661 77.1907 51.0732ZM57.2611 52.5408L45.8173 54.8875H36.9185H74.8794L57.2611 52.5408Z"
            fill="#FFB8BC" />
    </g>
    <path d="M62.5347 46.5373L70.5109 53.393L81.1458 39.6816" stroke="#FFB8BC" stroke-width="4.56392" />
</svg>