 <svg width="115" height="120" viewBox="0 0 115 120" fill="none" xmlns="http://www.w3.org/2000/svg">
            <ellipse cx="57.2378" cy="59.7254" rx="57.2378" ry="59.531" fill="#4C2A76" />
            <ellipse cx="74.2724" cy="47.6319" rx="16.4194" ry="17.0772" stroke="#FFB8BC" stroke-width="5.4767" />
            <mask
              id="mask0_1510_1694"
              style="mask-type:alpha"
              maskUnits="userSpaceOnUse"
              x="21"
              y="34"
              width="64"
              height="66"
            >
              <path
                d="M57.6036 34.6943H21.0332L39.194 99.8982H82.979L84.4717 68.0725C75.0181 71.1775 65.067 70.1425 57.1061 60.3102C50.7373 52.4443 52.8768 38.8343 57.6036 34.6943Z"
                fill="#D9D9D9"
              />
            </mask>
            <g mask="url(#mask0_1510_1694)">
              <path
                d="M45.493 96.5284C47.5354 96.5284 49.1911 94.8064 49.1911 92.6822C49.1911 90.558 47.5354 88.8359 45.493 88.8359C43.4506 88.8359 41.7949 90.558 41.7949 92.6822C41.7949 94.8064 43.4506 96.5284 45.493 96.5284Z"
                fill="#FFB8BC"
              />
              <path
                d="M71.3807 96.5284C73.4231 96.5284 75.0788 94.8064 75.0788 92.6822C75.0788 90.558 73.4231 88.8359 71.3807 88.8359C69.3383 88.8359 67.6826 90.558 67.6826 92.6822C67.6826 94.8064 69.3383 96.5284 71.3807 96.5284Z"
                fill="#FFB8BC"
              />
              <path
                d="M78.7762 52.2977H37.7644L36.2482 44.2205C36.1617 43.7796 35.9293 43.3842 35.5915 43.1031C35.2536 42.8219 34.8317 42.673 34.3991 42.682H27.0029V46.5283H32.8829L39.9462 83.4523C40.0327 83.8933 40.2651 84.2887 40.6029 84.5698C40.9408 84.8509 41.3627 84.9999 41.7953 84.9908H75.0781V81.1446H43.3115L41.7953 73.4521H75.0781C75.5055 73.4629 75.9234 73.3194 76.2605 73.0459C76.5976 72.7724 76.8332 72.3858 76.9271 71.952L80.6252 54.6439C80.6872 54.3585 80.6857 54.0623 80.621 53.7776C80.5563 53.4929 80.4299 53.2273 80.2516 53.0011C80.0733 52.7748 79.8478 52.5939 79.5921 52.472C79.3364 52.3501 79.0574 52.2905 78.7762 52.2977ZM73.5989 69.6058H41.0926L38.504 56.1439H76.4649L73.5989 69.6058Z"
                fill="#FFB8BC"
              />
              <path
                d="M45.493 96.5284C47.5354 96.5284 49.1911 94.8064 49.1911 92.6822C49.1911 90.558 47.5354 88.8359 45.493 88.8359C43.4506 88.8359 41.7949 90.558 41.7949 92.6822C41.7949 94.8064 43.4506 96.5284 45.493 96.5284Z"
                fill="#FFB8BC"
              />
              <path
                d="M71.3807 96.5284C73.4231 96.5284 75.0788 94.8064 75.0788 92.6822C75.0788 90.558 73.4231 88.8359 71.3807 88.8359C69.3383 88.8359 67.6826 90.558 67.6826 92.6822C67.6826 94.8064 69.3383 96.5284 71.3807 96.5284Z"
                fill="#FFB8BC"
              />
              <path
                d="M78.7762 52.2977H37.7644L36.2482 44.2205C36.1617 43.7796 35.9293 43.3842 35.5915 43.1031C35.2536 42.8219 34.8317 42.673 34.3991 42.682H27.0029V46.5283H32.8829L39.9462 83.4523C40.0327 83.8933 40.2651 84.2887 40.6029 84.5698C40.9408 84.8509 41.3627 84.9999 41.7953 84.9908H75.0781V81.1446H43.3115L41.7953 73.4521H75.0781C75.5055 73.4629 75.9234 73.3194 76.2605 73.0459C76.5976 72.7724 76.8332 72.3858 76.9271 71.952L80.6252 54.6439C80.6872 54.3585 80.6857 54.0623 80.621 53.7776C80.5563 53.4929 80.4299 53.2273 80.2516 53.0011C80.0733 52.7748 79.8478 52.5939 79.5921 52.472C79.3364 52.3501 79.0574 52.2905 78.7762 52.2977ZM58.8465 53.7776L47.4027 56.1439H38.504H76.4649L58.8465 53.7776Z"
                fill="#FFB8BC"
              />
            </g>
            <path d="M64.1201 47.7237L72.0963 54.6368L82.7312 40.8105" stroke="#FFB8BC" stroke-width="4.56392" />
          </svg>