<svg width="116" height="119" viewBox="0 0 116 119" fill="none" xmlns="http://www.w3.org/2000/svg">
<ellipse cx="58.2046" cy="59.7843" rx="57.2378" ry="59.0362" fill="#4C2A76"/>
<path d="M52.0921 30.6582V37.4441L57.9144 41.4376V36.6635H87.026V81.7029H72.4702V87.7082H92.8483V30.6582H52.0921ZM44.8142 39.6661L22.9805 54.6792V87.7082H66.6479V54.6792L44.8142 39.6661ZM63.7367 42.6687V45.4612L68.4237 48.674H69.559V42.6687H63.7367ZM75.3813 42.6687V48.674H81.2036V42.6687H75.3813ZM44.8142 47.1727L60.8255 57.6819V81.7029H52.0921V63.6871H37.5363V81.7029H28.8028V57.6819L44.8142 47.1727ZM75.3813 54.6792V60.6845H81.2036V54.6792H75.3813ZM75.3813 66.6898V72.695H81.2036V66.6898H75.3813Z" fill="#FFB8BC" stroke="#4C2A76" stroke-width="1.82557"/>
</svg>
