<svg width="115" height="119" viewBox="0 0 115 119" fill="none" xmlns="http://www.w3.org/2000/svg">
<ellipse cx="57.5893" cy="59.8585" rx="57.2378" ry="59.0362" fill="#4C2A76"/>
<path d="M56.8056 72.6591C55.2988 72.4873 53.8444 72.1361 52.4631 71.6263C52.5096 70.5872 52.5337 69.5037 52.5337 68.3739L52.5339 68.0196C52.534 67.6633 52.5343 67.2854 52.5328 66.8895C53.861 67.5403 55.297 67.9952 56.8056 68.2178V57.358C56.8056 53.7077 59.6746 50.7485 63.2138 50.7485H73.7428C72.706 43.2746 66.4744 37.5294 58.9416 37.5294C56.4398 37.5294 54.0816 38.1631 52.0095 39.2834C51.6535 37.8039 51.1096 36.4534 50.3579 35.2045C52.9416 33.8725 55.8567 33.123 58.9416 33.123C68.8371 33.123 76.9862 40.8343 78.0487 50.7485H84.5744C88.1134 50.7485 90.9826 53.7077 90.9826 57.358V79.3898C90.9826 83.04 88.1134 85.9994 84.5744 85.9994H63.2138C59.6746 85.9994 56.8056 83.04 56.8056 79.3898V72.6591ZM78.0487 55.1548C77.064 64.3457 69.9885 71.6434 61.0777 72.6591V79.3898C61.0777 80.6064 62.0341 81.593 63.2138 81.593H84.5744C85.7539 81.593 86.7105 80.6064 86.7105 79.3898V57.358C86.7105 56.1413 85.7539 55.1548 84.5744 55.1548H78.0487ZM73.7428 55.1548H63.2138C62.0341 55.1548 61.0777 56.1413 61.0777 57.358V68.2178C67.6262 67.2516 72.806 61.9091 73.7428 55.1548Z" fill="#FFB8BC"/>
<path d="M47.3878 57.6273C46.9396 55.9279 46.2127 54.2212 44.967 52.9158C46.9806 50.9384 48.2638 47.8045 48.2638 44.1391C48.2638 41.0663 47.6605 38.9584 46.57 37.2713C46.0479 36.4635 45.4581 35.8218 44.9089 35.2742C44.6183 34.9845 44.3919 34.7691 44.1797 34.5673C43.918 34.3184 43.6779 34.0902 43.366 33.7685C42.7248 33.1071 42.6566 32.5782 42.6566 32.297C42.6566 32.1267 42.6845 31.9884 42.7079 31.9039C42.7159 31.8752 42.7227 31.8551 42.7263 31.8449C43.1219 30.9634 42.911 29.9146 42.2012 29.2683C41.4751 28.6072 40.4086 28.5327 39.6027 29.0868L39.5952 29.092L39.5831 29.1005L39.5451 29.1271L39.4178 29.2183C39.3112 29.2956 39.1625 29.4057 38.9812 29.5457C38.6195 29.8249 38.1227 30.2271 37.5694 30.7285C36.4959 31.7014 35.106 33.1402 34.1172 34.8596C33.2913 36.1798 32.574 37.821 32.06 39.4075C31.5484 40.9866 31.1753 42.704 31.1753 44.1391C31.1753 47.8045 32.4585 50.9384 34.4721 52.9158C33.2264 54.2212 32.4996 55.9279 32.0513 57.6273C31.1747 60.95 31.1751 65.0459 31.1753 68.2169V68.374C31.1753 77.4432 32.8218 82.8304 34.6838 86.0312C35.6174 87.636 36.5931 88.6693 37.4069 89.3223C37.8115 89.6466 38.1696 89.8722 38.4531 90.0251C38.5946 90.1018 38.717 90.1599 38.8167 90.2031C38.8167 90.2031 39.3587 90.4058 39.7196 90.4058C40.0804 90.4058 40.6224 90.2031 40.6224 90.2031C40.7221 90.1599 40.8445 90.1018 40.9861 90.0251C41.2695 89.8722 41.6276 89.6466 42.0323 89.3223C42.846 88.6693 43.8218 87.636 44.7553 86.0312C46.6174 82.8304 48.2638 77.4432 48.2638 68.374L48.2638 68.2169C48.2641 65.0459 48.2644 60.9499 47.3878 57.6273V57.6273ZM37.5288 55.9942C38.0071 55.4986 38.6538 55.1549 39.7196 55.1549C40.7853 55.1549 41.432 55.4986 41.9103 55.9942C42.4493 56.5528 42.9163 57.46 43.2656 58.7841C43.9766 61.4793 43.9917 65.0134 43.9917 68.374C43.9917 76.9303 42.4341 81.4574 41.092 83.7645C40.5805 84.6436 40.0937 85.2129 39.7196 85.5707C39.3454 85.2129 38.8586 84.6436 38.3471 83.7645C37.0051 81.4574 35.4474 76.9303 35.4474 68.374C35.4474 65.0134 35.4625 61.4793 36.1735 58.7841C36.5228 57.46 36.9898 56.5528 37.5288 55.9942ZM39.7196 50.7486C38.076 50.7486 35.4474 48.8642 35.4474 44.1391C35.4474 43.3755 35.67 42.168 36.1119 40.8042C36.5459 39.4647 37.1302 38.1631 37.7248 37.2202C37.7424 37.1923 37.7595 37.1638 37.7759 37.135C38.1464 36.4844 38.6318 35.8536 39.1514 35.2758C39.4443 35.8159 39.8348 36.3578 40.3452 36.8842C40.6592 37.2081 41.065 37.5977 41.4114 37.9302C41.62 38.1306 41.8072 38.3102 41.9397 38.4423C42.3917 38.893 42.7365 39.2841 43.0154 39.7155C43.527 40.507 43.9917 41.7039 43.9917 44.1391C43.9917 48.8642 41.3632 50.7486 39.7196 50.7486V50.7486Z" fill="#FFB8BC"/>
</svg>
