<svg width="116" height="119" viewBox="0 0 116 119" fill="none" xmlns="http://www.w3.org/2000/svg">
<ellipse cx="58.2046" cy="59.6378" rx="57.2378" ry="59.0362" fill="#4C2A76"/>
<path d="M68.4005 47.8851H66.8123V49.5098H65.3335V47.8851H63.7453V46.4885H65.3335V44.8546H66.8123V46.4885H68.4005V47.8851ZM70.9009 48.5057C70.9496 48.7735 71.0591 48.9804 71.2295 49.1264C71.406 49.2664 71.6402 49.3364 71.9323 49.3364C72.3096 49.3364 72.5834 49.1812 72.7538 48.8709C72.9242 48.5544 73.0094 48.025 73.0094 47.2826C72.8695 47.4773 72.6717 47.6295 72.4161 47.739C72.1666 47.8485 71.8958 47.9033 71.6037 47.9033C71.2143 47.9033 70.8613 47.8242 70.5449 47.666C70.2345 47.5017 69.9881 47.2613 69.8055 46.9449C69.623 46.6224 69.5317 46.2329 69.5317 45.7765C69.5317 45.1011 69.7325 44.5656 70.1341 44.17C70.5358 43.7684 71.0834 43.5676 71.7772 43.5676C72.6413 43.5676 73.2498 43.8445 73.6027 44.3982C73.9618 44.952 74.1413 45.7856 74.1413 46.8992C74.1413 47.6903 74.0713 48.3384 73.9313 48.8435C73.7975 49.3485 73.5632 49.7319 73.2285 49.9936C72.8999 50.2552 72.4496 50.3861 71.8776 50.3861C71.4273 50.3861 71.0439 50.3009 70.7275 50.1305C70.411 49.954 70.1676 49.7258 69.9972 49.4459C69.8329 49.1599 69.7386 48.8465 69.7143 48.5057H70.9009ZM71.8684 46.8627C72.1849 46.8627 72.4344 46.7654 72.6169 46.5706C72.7995 46.3759 72.8908 46.1143 72.8908 45.7856C72.8908 45.4266 72.7934 45.1497 72.5987 44.955C72.41 44.7542 72.1514 44.6538 71.8228 44.6538C71.4942 44.6538 71.2325 44.7572 71.0378 44.9641C70.8492 45.165 70.7548 45.4327 70.7548 45.7674C70.7548 46.0899 70.8461 46.3546 71.0287 46.5615C71.2173 46.7623 71.4972 46.8627 71.8684 46.8627ZM74.9808 44.9002V43.7228H77.1806V50.377H75.8662V44.9002H74.9808Z" fill="#FFB8BC"/>
<path d="M73.6897 90.4111L78.2014 85.7507C78.6262 85.3144 78.9565 84.7903 79.1704 84.2127C79.3843 83.6352 79.4771 83.0174 79.4426 82.4002C79.408 81.783 79.247 81.1803 78.97 80.632C78.6931 80.0837 78.3066 79.6022 77.836 79.2193L70.7461 73.5446C70.0014 72.9409 69.0818 72.6128 68.1347 72.6128C67.1876 72.6128 66.2679 72.9409 65.5233 73.5446L63.9551 74.833C63.1423 75.4974 62.1211 75.8303 61.0857 75.7684C60.0504 75.7064 59.0732 75.254 58.3403 74.4972L45.7153 61.4755C44.9714 60.7176 44.5253 59.7029 44.4628 58.6263C44.4002 57.5497 44.7256 56.4873 45.3765 55.6432L46.6057 54.0463C47.1904 53.2767 47.5081 52.3272 47.5081 51.3494C47.5081 50.3717 47.1904 49.4222 46.6057 48.6526L41.1438 41.3673C40.7758 40.8782 40.311 40.4755 39.7803 40.1861C39.2496 39.8967 38.6653 39.7273 38.0661 39.689C37.467 39.6507 36.8669 39.7446 36.3056 39.9642C35.7444 40.1839 35.235 40.5243 34.8113 40.9629L30.2996 45.6165C27.1898 48.7896 27.2031 57.8226 44.5326 75.7171C61.862 93.6117 70.8324 93.3375 73.6897 90.4111V90.4111Z" stroke="#FFB8BC" stroke-width="0.912784"/>
<path d="M72.0472 61.4341C79.6326 61.4341 85.7818 55.0855 85.7818 47.2541C85.7818 39.4228 79.6326 33.0742 72.0472 33.0742C64.4617 33.0742 58.3125 39.4228 58.3125 47.2541C58.3125 55.0855 64.4617 61.4341 72.0472 61.4341Z" stroke="#FFB8BC" stroke-width="0.912784"/>
<path d="M69.4621 93.3368C67.6135 93.2923 65.787 92.9118 64.0665 92.2128C58.3056 90.0265 51.4415 84.8178 43.5675 76.7238C23.1283 55.5944 26.8029 47.2332 29.3279 44.622L33.8463 39.9684C34.4065 39.3898 35.0796 38.9408 35.8209 38.6511C36.5623 38.3615 37.3549 38.2378 38.1461 38.2884C38.9374 38.3389 39.7091 38.5626 40.4101 38.9444C41.1111 39.3262 41.7254 39.8575 42.212 40.503L47.7072 47.7883C48.4805 48.8037 48.9008 50.0575 48.9008 51.3487C48.9008 52.6399 48.4805 53.8937 47.7072 54.9091L46.4447 56.5334C46.0086 57.1051 45.7908 57.8218 45.8325 58.548C45.8741 59.2742 46.1723 59.9594 46.6706 60.4741L59.2956 73.4958C59.7928 74.0107 60.4563 74.3189 61.1596 74.3619C61.8629 74.4049 62.557 74.1796 63.1097 73.7288L64.6779 72.4472C65.6613 71.6474 66.8773 71.2124 68.1298 71.2124C69.3823 71.2124 70.5982 71.6474 71.5817 72.4472L78.6451 78.122C79.268 78.6252 79.7805 79.2589 80.1488 79.9812C80.5171 80.7036 80.7328 81.4982 80.7818 82.3127C80.8307 83.1273 80.7118 83.9433 80.4329 84.7071C80.1539 85.4708 79.7213 86.1649 79.1634 86.7437L74.6516 91.4041C73.9672 92.11 72.3725 93.3368 69.4621 93.3368V93.3368ZM37.7933 41.0787C37.0432 41.085 36.3263 41.398 35.7998 41.9491L31.2548 46.6026C28.2581 49.7004 30.185 58.939 45.4945 74.7021C52.9499 82.4191 59.6943 87.5524 65.0101 89.5673C68.4786 90.8832 71.3691 90.8284 72.7313 89.4234L77.243 84.763C77.5324 84.4651 77.7569 84.107 77.9016 83.7125C78.0463 83.3181 78.1078 82.8964 78.082 82.4755C78.0562 82.0546 77.9437 81.6442 77.7521 81.2717C77.5605 80.8992 77.2941 80.5731 76.9706 80.3151L69.9073 74.6472C69.4019 74.2359 68.7769 74.0122 68.1331 74.0122C67.4893 74.0122 66.8643 74.2359 66.359 74.6472L64.7908 75.9288C63.7205 76.809 62.3741 77.2533 61.0073 77.1775C59.6404 77.1017 58.348 76.511 57.3753 75.5176L44.7503 62.4959C43.7831 61.4952 43.205 60.1635 43.1255 58.7528C43.0459 57.3421 43.4703 55.9503 44.3184 54.8406L45.561 53.2163C45.9587 52.6945 46.1749 52.0501 46.1749 51.3864C46.1749 50.7227 45.9587 50.0782 45.561 49.5565L40.0658 42.2232C39.8161 41.8886 39.4991 41.6136 39.1367 41.4172C38.7742 41.2209 38.3749 41.1077 37.966 41.0855L37.7933 41.0787Z" fill="#FFB8BC" stroke="#FFB8BC" stroke-width="0.912784"/>
<path d="M72.0388 62.8387C69.0517 62.8401 66.1312 61.9278 63.6467 60.2171C61.1622 58.5065 59.2253 56.0745 58.0809 53.2285C56.9366 50.3825 56.6362 47.2504 57.2176 44.2283C57.7991 41.2062 59.2364 38.4298 61.3477 36.2502C63.4591 34.0706 66.1496 32.5857 69.0791 31.9833C72.0087 31.3809 75.0456 31.688 77.8059 32.8658C80.5662 34.0436 82.9259 36.0392 84.5866 38.6003C86.2473 41.1613 87.1344 44.1728 87.1357 47.2538C87.1339 51.3843 85.5432 55.3452 82.7128 58.2672C79.8823 61.1891 76.0435 62.8333 72.0388 62.8387V62.8387ZM72.0388 34.4789C69.587 34.4761 67.1895 35.2237 65.1497 36.6268C63.1099 38.0299 61.5194 40.0256 60.5796 42.3614C59.6398 44.6971 59.3929 47.2679 59.8701 49.7484C60.3473 52.2289 61.5272 54.5077 63.2604 56.2963C64.9937 58.085 67.2024 59.3032 69.6071 59.7967C72.0118 60.2902 74.5044 60.0369 76.7695 59.0689C79.0345 58.1008 80.9703 56.4614 82.3318 54.3583C83.6933 52.2551 84.4193 49.7827 84.418 47.2538C84.4145 43.868 83.1093 40.6218 80.7887 38.227C78.4681 35.8322 75.3215 34.4843 72.0388 34.4789V34.4789Z" fill="#FFB8BC" stroke="#FFB8BC" stroke-width="0.912784"/>
</svg>
