<svg width="116" height="119" viewBox="0 0 116 119" fill="none" xmlns="http://www.w3.org/2000/svg">
<ellipse cx="58.2046" cy="59.9288" rx="57.2378" ry="59.0362" fill="#4C2A76"/>
<path d="M54.8878 35.7702C53.1757 35.7702 51.502 36.2939 50.0785 37.275C48.6549 38.256 47.5454 39.6505 46.8902 41.2819C46.2351 42.9134 46.0636 44.7086 46.3976 46.4405C46.7317 48.1725 47.5561 49.7634 48.7667 51.012C49.9774 52.2607 51.5198 53.1111 53.199 53.4556C54.8782 53.8001 56.6187 53.6233 58.2004 52.9475C59.7822 52.2717 61.1342 51.1273 62.0853 49.6591C63.0365 48.1908 63.5442 46.4646 63.5442 44.6987C63.5442 42.3307 62.6322 40.0597 61.0088 38.3853C59.3854 36.7109 57.1836 35.7702 54.8878 35.7702ZM54.8878 49.1629C54.0317 49.1629 53.1949 48.9011 52.4831 48.4105C51.7714 47.92 51.2166 47.2228 50.889 46.4071C50.5614 45.5913 50.4757 44.6937 50.6427 43.8278C50.8097 42.9618 51.2219 42.1663 51.8272 41.542C52.4326 40.9177 53.2038 40.4925 54.0434 40.3202C54.883 40.148 55.7532 40.2364 56.5441 40.5743C57.335 40.9122 58.011 41.4844 58.4865 42.2185C58.9621 42.9526 59.216 43.8157 59.216 44.6987C59.216 45.8827 58.76 47.0182 57.9483 47.8554C57.1366 48.6926 56.0357 49.1629 54.8878 49.1629ZM57.0519 26.8418H52.7236C48.7059 26.8418 44.8528 28.488 42.0118 31.4182C39.1709 34.3484 37.5749 38.3226 37.5749 42.4666V49.1629H35.4107C34.8368 49.1629 34.2863 49.3981 33.8805 49.8167C33.4746 50.2353 33.2466 50.803 33.2466 51.395C33.2466 51.987 33.4746 52.5548 33.8805 52.9734C34.2863 53.392 34.8368 53.6271 35.4107 53.6271H37.5749V58.0913H18.2256C17.6517 58.0913 17.1012 58.3265 16.6954 58.7451C16.2895 59.1637 16.0615 59.7315 16.0615 60.3235V64.7877C16.0615 65.3797 16.2895 65.9474 16.6954 66.366C17.1012 66.7846 17.6517 67.0198 18.2256 67.0198C18.7996 67.0198 19.35 66.7846 19.7559 66.366C20.1617 65.9474 20.3897 65.3797 20.3897 64.7877V62.5556H57.0519C61.0696 62.5556 64.9227 60.9094 67.7637 57.9792C70.6046 55.049 72.2007 51.0747 72.2007 46.9308V42.4666C72.2007 38.3226 70.6046 34.3484 67.7637 31.4182C64.9227 28.488 61.0696 26.8418 57.0519 26.8418ZM67.8724 46.9308C67.8724 48.3964 67.5926 49.8477 67.0488 51.2018C66.505 52.5558 65.708 53.7861 64.7032 54.8225C63.6984 55.8588 62.5055 56.6809 61.1927 57.2418C59.8799 57.8027 58.4728 58.0913 57.0519 58.0913H41.9031V42.4666C41.9031 39.5066 43.0431 36.6679 45.0724 34.5749C47.1016 32.4819 49.8539 31.306 52.7236 31.306H57.0519C58.4728 31.306 59.8799 31.5947 61.1927 32.1556C62.5055 32.7164 63.6984 33.5385 64.7032 34.5749C65.708 35.6112 66.505 36.8416 67.0488 38.1956C67.5926 39.5497 67.8724 41.0009 67.8724 42.4666V46.9308Z" fill="#FFB8BC"/>
<path d="M26.126 67.0654V86.5279H29.5733H97.8304V83.7476V69.8458V67.0654H29.5733H26.126ZM29.5733 69.8458H34.2026H38.8318V75.4065H43.4611V69.8458H48.0904V78.1869H52.7197V69.8458H57.3489V75.4065H61.9782V69.8458H66.6075V75.4065H71.2367V69.8458H75.866V78.1869H80.4953V69.8458H89.7538H94.3831V83.7476H29.5733V78.1869V69.8458Z" fill="#FFB8BC"/>
</svg>
