<svg width="87" height="84" viewBox="0 0 87 84" fill="none" xmlns="http://www.w3.org/2000/svg">
<g filter="url(#filter0_f_557_2495)">
<rect x="15.0641" y="15.7988" width="56.2987" height="53.3356" rx="16.297" fill="#4C2A76" fill-opacity="0.75"/>
</g>
<rect x="12.1011" y="6.90918" width="62.2249" height="59.2618" rx="16.297" fill="#4C2A76"/>
<path d="M47.8075 52.9245C46.2708 52.9245 44.8414 51.25 43.5227 51.25C42.2047 51.25 40.7746 52.9245 39.2373 52.9245C37.9709 52.9245 36.2162 51.25 34.9532 51.25C33.7398 51.25 31.6123 52.3172 30.9061 52.6896C30.9971 53.1888 31.1031 53.6927 31.2436 54.2116C31.2436 54.2116 33.934 52.6444 35.3369 52.6444C36.5429 52.6444 38.2187 54.3182 39.4288 54.3182C40.8962 54.3182 42.2631 52.6444 43.522 52.6444C44.781 52.6444 46.1486 54.3189 47.616 54.3189C48.8254 54.3189 50.5026 52.6451 51.7072 52.6451C53.1088 52.6451 55.8005 54.2122 55.8005 54.2122C55.9417 53.6933 56.0476 53.1895 56.138 52.6902C55.4331 52.3192 53.3036 51.2507 52.0915 51.2507C50.8279 51.2507 49.0739 52.9245 47.8075 52.9245Z" fill="#FFB8BC"/>
<path d="M34.5395 49.1155C35.8629 49.1155 37.7011 50.79 39.0307 50.79C40.6407 50.79 42.1407 49.1155 43.5225 49.1155C44.9044 49.1155 46.4051 50.79 48.0144 50.79C49.3453 50.79 51.1821 49.1155 52.5076 49.1155C53.6151 49.1155 55.458 49.8301 56.4012 50.2488C55.9836 42.7618 50.3992 37.8496 48.6018 34.2788H48.9555V33.6244V31.007V30.3527H48.542C49.401 28.0991 51.011 25.1107 50.2403 22.0274C50.2403 22.0274 50.0719 22.0281 49.788 22.0431V16.54H48.9623V22.1131C47.5112 22.2708 45.1353 22.7269 43.5225 24.0526C41.9098 22.7263 39.5325 22.2708 38.0814 22.1131V16.54H37.2577V22.0438C36.9745 22.0287 36.8054 22.0281 36.8054 22.0281C36.0334 25.1114 37.6441 28.0991 38.5037 30.3534H38.0888V31.0077V33.6251V34.2794H38.4433C36.6466 37.8502 31.0662 42.7631 30.6472 50.2488C31.5911 49.8287 33.4306 49.1155 34.5395 49.1155ZM48.2772 31.0888V33.5426H47.3591V33.544C49.1545 36.7653 49.7813 42.237 49.7813 42.237L46.4567 43.3873C46.4567 43.3873 46.454 38.8383 45.324 34.1087C45.5468 33.894 45.6887 33.5263 45.7566 33.1023L47.135 36.0305C47.0169 34.9181 46.3066 33.6748 45.7858 32.8687C45.8428 32.2529 45.7593 31.5698 45.5481 31.0888H48.2772ZM42.3648 30.6753C42.8381 30.2192 44.4949 30.2192 44.9689 30.6753C45.449 31.1373 45.7552 33.3804 44.9689 34.1375C44.4976 34.5909 42.8353 34.5909 42.3648 34.1375C41.4976 33.3018 41.9241 31.1 42.3648 30.6753ZM40.1443 33.5426H38.7679V31.0888H41.7849C41.5866 31.539 41.499 32.1685 41.537 32.7542C40.9062 33.6127 40.4533 34.5366 40.2618 34.9161L41.5784 33.1114C41.626 33.4085 41.7095 33.6788 41.8331 33.8875C41.2002 35.9042 40.6407 39.3899 40.6407 39.3899L38.0685 38.8174C38.0685 38.8174 38.6959 35.8479 40.1443 33.5426Z" fill="#FFB8BC"/>
<defs>
<filter id="filter0_f_557_2495" x="0.24863" y="0.983371" width="85.9296" height="82.9669" filterUnits="userSpaceOnUse" color-interpolation-filters="sRGB">
<feFlood flood-opacity="0" result="BackgroundImageFix"/>
<feBlend mode="normal" in="SourceGraphic" in2="BackgroundImageFix" result="shape"/>
<feGaussianBlur stdDeviation="7.40773" result="effect1_foregroundBlur_557_2495"/>
</filter>
</defs>
</svg>
