<svg width="87" height="84" viewBox="0 0 87 84" fill="none" xmlns="http://www.w3.org/2000/svg">
<g filter="url(#filter0_f_557_3479)">
<rect x="15.704" y="15.7988" width="56.2987" height="53.3356" rx="16.297" fill="#4C2A76" fill-opacity="0.75"/>
</g>
<rect x="12.741" y="6.90918" width="62.2249" height="59.2618" rx="16.297" fill="#4C2A76"/>
<g clip-path="url(#clip0_557_3479)">
<path d="M51.6444 52.8357H36.0648C34.531 52.8357 33.4911 51.4417 34.0816 50.1796L37.762 42.2983C39.3701 38.8511 39.3701 34.9745 37.762 31.5273L34.0816 23.6384C33.4911 22.3764 34.531 20.9824 36.0648 20.9824H51.6444C53.1783 20.9824 54.2181 22.3764 53.6276 23.6384L49.9472 31.5198C48.3391 34.9669 48.3391 38.8436 49.9472 42.2907L53.6276 50.1721C54.2181 51.4417 53.1783 52.8357 51.6444 52.8357Z" fill="#FFB8BC"/>
<path d="M57.8773 48.9369C57.621 48.9369 57.3722 48.8201 57.2348 48.6092L54.0594 43.7492C51.3 39.5222 51.2815 34.263 54.0112 30.0209L57.2311 25.0216C57.4353 24.7051 57.8884 24.5959 58.245 24.7767C58.6015 24.9613 58.724 25.3644 58.5198 25.6809L55.2999 30.6802C52.8339 34.5116 52.8487 39.2623 55.3444 43.0786L58.5198 47.9386C58.7278 48.255 58.6052 48.6619 58.2524 48.8465C58.1335 48.9068 58.0036 48.9369 57.8773 48.9369Z" fill="#FFB8BC"/>
<path d="M29.7831 48.9365C29.6568 48.9365 29.5268 48.9063 29.408 48.8461C29.0552 48.6615 28.9326 48.2546 29.1406 47.9381L32.3159 43.0782C34.8079 39.2618 34.8265 34.5112 32.3568 30.6797L29.1369 25.6804C28.9326 25.364 29.0552 24.9571 29.4117 24.7763C29.7682 24.5917 30.2213 24.7009 30.4256 25.0211L33.6455 30.0205C36.3752 34.2625 36.3566 39.5218 33.5972 43.7488L30.4219 48.6087C30.2845 48.8197 30.0356 48.9365 29.7831 48.9365Z" fill="#FFB8BC"/>
<path d="M59.7419 39.6994C59.5525 39.6994 59.3631 39.6354 59.2183 39.5035L56.5257 37.0962C56.4514 37.0284 56.3883 36.9493 56.3512 36.8551C56.3029 36.7383 56.2917 36.6102 56.3177 36.4934C56.3214 36.4746 56.3289 36.4557 56.3326 36.4369C56.3697 36.3201 56.4477 36.2109 56.5517 36.128C56.5517 36.128 56.5517 36.128 56.5554 36.128L59.6193 33.7432C59.9276 33.5021 60.3993 33.5322 60.6667 33.8073C60.7892 33.9316 60.8486 34.0898 60.8486 34.2443C60.8486 34.4289 60.7632 34.6135 60.5924 34.7453L59.0251 35.966H64.3062C64.7148 35.966 65.049 36.2636 65.049 36.629C65.049 36.9945 64.7148 37.2921 64.3062 37.2921H58.8357L60.2656 38.5692C60.5552 38.8292 60.5552 39.2474 60.2656 39.5073C60.1207 39.6354 59.9313 39.6994 59.7419 39.6994Z" fill="#FFB8BC"/>
<path d="M29.1678 39.6983C28.9784 39.6983 28.789 39.6343 28.6442 39.5024C28.3545 39.2425 28.3545 38.8243 28.6442 38.5643L30.074 37.2872H24.596C24.1875 37.2872 23.8533 36.9896 23.8533 36.6241C23.8533 36.2587 24.1875 35.9611 24.596 35.9611H29.8772L28.3099 34.7405C28.1428 34.6086 28.0537 34.424 28.0537 34.2394C28.0537 34.0849 28.1131 33.9305 28.2356 33.8024C28.5067 33.5274 28.9747 33.4972 29.2829 33.7383L32.3469 36.1231C32.3469 36.1231 32.3469 36.1231 32.3506 36.1231C32.4583 36.206 32.5326 36.3152 32.5697 36.432C32.5771 36.4508 32.5808 36.4697 32.5846 36.4885C32.6106 36.6091 32.6031 36.7334 32.5511 36.8502C32.514 36.9444 32.4509 37.0235 32.3766 37.0913L29.684 39.4987C29.5466 39.6343 29.3572 39.6983 29.1678 39.6983Z" fill="#FFB8BC"/>
</g>
<defs>
<filter id="filter0_f_557_3479" x="0.888522" y="0.983371" width="85.9296" height="82.9669" filterUnits="userSpaceOnUse" color-interpolation-filters="sRGB">
<feFlood flood-opacity="0" result="BackgroundImageFix"/>
<feBlend mode="normal" in="SourceGraphic" in2="BackgroundImageFix" result="shape"/>
<feGaussianBlur stdDeviation="7.40773" result="effect1_foregroundBlur_557_3479"/>
</filter>
<clipPath id="clip0_557_3479">
<rect width="38.5202" height="31.8532" fill="white" transform="translate(24.5929 20.9844)"/>
</clipPath>
</defs>
</svg>
