<svg width="87" height="84" viewBox="0 0 87 84" fill="none" xmlns="http://www.w3.org/2000/svg">
<g filter="url(#filter0_f_557_3496)">
<rect x="15.6017" y="15.7988" width="56.2987" height="53.3356" rx="16.297" fill="#4C2A76" fill-opacity="0.75"/>
</g>
<rect x="12.6387" y="6.90918" width="62.2249" height="59.2618" rx="16.297" fill="#4C2A76"/>
<path d="M54.6737 49.7144C54.4593 50.6335 54.3493 51.1932 53.8916 51.811C53.5865 52.2229 53.0869 52.4594 52.5778 52.3998C52.1354 52.3482 51.707 52.1586 51.2764 51.9928C46.2959 50.0759 42.2765 46.7008 38.2157 43.3877C37.2478 42.598 35.2054 40.7698 34.0454 39.8093C36.8695 37.8129 38.0385 36.5781 38.0385 36.5781C42.5892 40.5289 47.8948 45.1538 53.4318 47.4671C54.3142 47.8359 55.1398 47.7165 54.6737 49.7144Z" fill="#FFB8BC" stroke="#4C2A76" stroke-width="1.48155"/>
<path d="M49.0471 34.8657C47.766 33.8533 45.5253 32.1725 44.2603 31.1967C41.0458 28.7171 37.6175 26.6477 33.6847 25.4686C31.5545 24.8299 31.2747 22.6889 32.8852 20.7976C33.1779 20.4538 33.6355 20.2281 34.0776 20.3206C41.4025 21.8542 46.9457 26.3425 53.1184 32.0071C51.03 33.1105 49.0471 34.8657 49.0471 34.8657Z" fill="#FFB8BC" stroke="#4C2A76" stroke-width="1.48155"/>
<path d="M44.6345 40.1827C49.2082 35.5534 58.0885 29.9601 62.5668 29.7544C63.0903 29.7305 63.5875 29.9922 63.8625 30.4382C64.3035 31.1538 64.4462 32.0105 64.5779 32.853C64.7051 33.667 64.2807 34.3617 63.5087 34.5779C58.1585 36.0766 52.9624 39.7202 48.7448 43.199C47.3262 42.5291 44.6345 40.1827 44.6345 40.1827Z" fill="#FFB8BC"/>
<path d="M44.6345 40.1827C49.2082 35.5534 58.0885 29.9601 62.5668 29.7544C63.0903 29.7305 63.5875 29.9922 63.8625 30.4382C64.3035 31.1538 64.4462 32.0105 64.5779 32.853C64.7051 33.667 64.2807 34.3617 63.5087 34.5779C58.1585 36.0766 52.9624 39.7202 48.7448 43.199C47.3262 42.5291 44.6345 40.1827 44.6345 40.1827" stroke="#4C2A76" stroke-width="1.48155"/>
<path d="M42.1379 31.4179C36.8839 35.8049 31.1829 41.0391 25.0198 42.9129C24.4994 43.0711 23.925 42.9406 23.5507 42.546C23.0473 42.0151 22.8545 41.4687 22.6504 40.937C21.9373 39.0792 22.1395 38.5358 23.9855 37.8254C28.319 36.1573 31.9246 33.3853 35.4131 30.4221C35.9413 29.9734 36.9891 29.1119 37.567 28.6367C39.4781 29.1489 42.1379 31.4179 42.1379 31.4179Z" fill="#FFB8BC"/>
<path d="M42.1379 31.4179C36.8839 35.8049 31.1829 41.0391 25.0198 42.9129C24.4994 43.0711 23.925 42.9406 23.5507 42.546C23.0473 42.0151 22.8545 41.4687 22.6504 40.937C21.9373 39.0792 22.1395 38.5358 23.9855 37.8254C28.319 36.1573 31.9246 33.3853 35.4131 30.4221C35.9413 29.9734 36.9891 29.1119 37.567 28.6367C39.4781 29.1489 42.1379 31.4179 42.1379 31.4179" stroke="#4C2A76" stroke-width="1.48155"/>
<path d="M32.6725 47.6033C34.1792 46.8312 36.4988 45.9199 38.011 45.0703C39.2325 46.1474 42.0607 48.2929 42.0607 48.2929C40.01 49.6638 36.7392 51.705 34.4621 52.2938C33.9117 52.4362 33.3272 52.222 32.9794 51.7721C32.3136 50.9106 31.9286 49.996 31.8955 48.9077C31.879 48.3617 32.1866 47.8523 32.6725 47.6033Z" fill="#FFB8BC"/>
<path d="M32.6725 47.6033C34.1792 46.8312 36.4988 45.9199 38.011 45.0703C39.2325 46.1474 42.0607 48.2929 42.0607 48.2929C40.01 49.6638 36.7392 51.705 34.4621 52.2938C33.9117 52.4362 33.3272 52.222 32.9794 51.7721C32.3136 50.9106 31.9286 49.996 31.8955 48.9077C31.879 48.3617 32.1866 47.8523 32.6725 47.6033" stroke="#4C2A76" stroke-width="1.48155"/>
<path d="M44.8887 23.5707C47.5813 21.9421 50.611 20.7191 52.6871 20.2748C53.2581 20.1527 53.8547 20.4021 54.168 20.8948C54.7638 21.8314 55.0115 22.7726 54.9506 23.8022C54.9206 24.3101 54.6391 24.7711 54.1927 25.0148C52.8903 25.726 50.5705 26.2806 49.2373 26.8625C49.2373 26.8625 46.8863 24.8793 44.8887 23.5707Z" fill="#FFB8BC" stroke="#4C2A76" stroke-width="1.48155"/>
<path d="M60.9071 37.0254C64.5437 38.4378 65.8851 38.9168 63.232 42.5815C62.921 43.011 62.4268 43.0138 61.9106 42.8919C60.2559 42.5011 57.3197 40.8092 55.6943 39.8637C58.6903 37.7911 60.9071 37.0254 60.9071 37.0254Z" fill="#FFB8BC"/>
<path d="M60.9071 37.0254C64.5437 38.4378 65.8851 38.9168 63.232 42.5815C62.921 43.011 62.4268 43.0138 61.9106 42.8919C60.2559 42.5011 57.3197 40.8092 55.6943 39.8637C58.6903 37.7911 60.9071 37.0254 60.9071 37.0254" stroke="#4C2A76" stroke-width="1.48155"/>
<path d="M26.4555 35.383C25.5574 35.1263 23.8489 34.8553 23.0665 34.3788C22.7127 34.1634 22.4748 33.7883 22.424 33.3773C22.2955 32.3381 22.5623 31.4022 23.0691 30.4605C23.3461 29.9461 23.9114 29.6484 24.4921 29.7128C26.2359 29.9065 29.3874 31.2243 31.0935 32.0044C28.6227 34.2797 26.4555 35.383 26.4555 35.383Z" fill="#FFB8BC"/>
<path d="M26.4555 35.383C25.5574 35.1263 23.8489 34.8553 23.0665 34.3788C22.7127 34.1634 22.4748 33.7883 22.424 33.3773C22.2955 32.3381 22.5623 31.4022 23.0691 30.4605C23.3461 29.9461 23.9114 29.6484 24.4921 29.7128C26.2359 29.9065 29.3874 31.2243 31.0935 32.0044C28.6227 34.2797 26.4555 35.383 26.4555 35.383" stroke="#4C2A76" stroke-width="1.48155"/>
<defs>
<filter id="filter0_f_557_3496" x="0.786227" y="0.983371" width="85.9296" height="82.9669" filterUnits="userSpaceOnUse" color-interpolation-filters="sRGB">
<feFlood flood-opacity="0" result="BackgroundImageFix"/>
<feBlend mode="normal" in="SourceGraphic" in2="BackgroundImageFix" result="shape"/>
<feGaussianBlur stdDeviation="7.40773" result="effect1_foregroundBlur_557_3496"/>
</filter>
</defs>
</svg>
