<svg width="250" height="54" viewBox="0 0 250 54" fill="none" xmlns="http://www.w3.org/2000/svg">
<g filter="url(#filter0_d_1200_273)">
<rect x="9" y="5" width="232" height="35" rx="5.18541" fill="#4C2A76"/>
</g>
<path d="M74.1294 17.1349V27.4316H72.4404V20.3795L69.2996 27.4316H68.1291L64.9734 20.3795V27.4316H63.2845V17.1349H65.1068L68.7218 25.2093L72.3219 17.1349H74.1294ZM83.8311 23.15C83.8311 23.4562 83.8113 23.7327 83.7718 23.9796H77.5345C77.5839 24.6315 77.8259 25.155 78.2605 25.5501C78.6951 25.9452 79.2284 26.1427 79.8606 26.1427C80.7692 26.1427 81.4112 25.7624 81.7866 25.0019H83.6089C83.3619 25.7526 82.9125 26.3699 82.2607 26.8538C81.6187 27.3279 80.8186 27.565 79.8606 27.565C79.0803 27.565 78.379 27.3921 77.7568 27.0464C77.1444 26.6909 76.6604 26.197 76.3048 25.5649C75.9591 24.9229 75.7863 24.1821 75.7863 23.3426C75.7863 22.503 75.9542 21.7672 76.29 21.1351C76.6357 20.4931 77.1148 19.9992 77.7271 19.6535C78.3494 19.3078 79.0605 19.135 79.8606 19.135C80.631 19.135 81.3174 19.3029 81.9199 19.6387C82.5224 19.9745 82.9916 20.4486 83.3274 21.061C83.6632 21.6635 83.8311 22.3598 83.8311 23.15ZM82.0681 22.6166C82.0582 21.9944 81.8359 21.4956 81.4014 21.1203C80.9668 20.7449 80.4285 20.5573 79.7865 20.5573C79.2037 20.5573 78.7049 20.7449 78.2901 21.1203C77.8753 21.4857 77.6284 21.9845 77.5493 22.6166H82.0681ZM84.9302 23.3129C84.9302 22.4932 85.0981 21.7672 85.4339 21.1351C85.7796 20.5029 86.2439 20.014 86.8266 19.6683C87.4192 19.3128 88.0711 19.135 88.7822 19.135C89.4242 19.135 89.9823 19.2634 90.4564 19.5202C90.9404 19.7671 91.3256 20.0782 91.612 20.4536V19.2683H93.3158V27.4316H91.612V26.2168C91.3256 26.602 90.9354 26.923 90.4416 27.1798C89.9477 27.4366 89.3847 27.565 88.7526 27.565C88.0513 27.565 87.4093 27.3872 86.8266 27.0316C86.2439 26.6662 85.7796 26.1624 85.4339 25.5204C85.0981 24.8686 84.9302 24.1327 84.9302 23.3129ZM91.612 23.3426C91.612 22.7796 91.4935 22.2907 91.2564 21.8758C91.0292 21.461 90.728 21.1449 90.3527 20.9277C89.9773 20.7104 89.5724 20.6017 89.1378 20.6017C88.7032 20.6017 88.2983 20.7104 87.9229 20.9277C87.5476 21.1351 87.2414 21.4462 87.0044 21.861C86.7772 22.266 86.6636 22.75 86.6636 23.3129C86.6636 23.8759 86.7772 24.3698 87.0044 24.7945C87.2414 25.2192 87.5476 25.5451 87.9229 25.7723C88.3081 25.9896 88.7131 26.0982 89.1378 26.0982C89.5724 26.0982 89.9773 25.9896 90.3527 25.7723C90.728 25.555 91.0292 25.239 91.2564 24.8241C91.4935 24.3994 91.612 23.9056 91.612 23.3426ZM98.4972 27.565C97.8552 27.565 97.2774 27.4514 96.7638 27.2242C96.2601 26.9872 95.8601 26.6711 95.5638 26.276C95.2675 25.8711 95.1094 25.4217 95.0897 24.9278H96.8379C96.8675 25.2735 97.0305 25.5649 97.3268 25.8019C97.633 26.0291 98.0133 26.1427 98.4676 26.1427C98.9417 26.1427 99.3072 26.0538 99.564 25.876C99.8306 25.6884 99.964 25.4513 99.964 25.1649C99.964 24.8587 99.8158 24.6315 99.5195 24.4834C99.2331 24.3352 98.7738 24.1722 98.1417 23.9945C97.5293 23.8265 97.0305 23.6636 96.6453 23.5055C96.2601 23.3475 95.9243 23.1055 95.6379 22.7796C95.3613 22.4536 95.223 22.024 95.223 21.4906C95.223 21.0561 95.3514 20.661 95.6082 20.3054C95.865 19.94 96.2305 19.6535 96.7046 19.4461C97.1885 19.2387 97.7417 19.135 98.3639 19.135C99.2923 19.135 100.038 19.372 100.601 19.8461C101.174 20.3103 101.48 20.9474 101.52 21.7573H99.8306C99.801 21.3919 99.6528 21.1005 99.3862 20.8832C99.1195 20.6659 98.759 20.5573 98.3046 20.5573C97.8602 20.5573 97.5194 20.6412 97.2824 20.8091C97.0453 20.977 96.9268 21.1993 96.9268 21.4758C96.9268 21.6931 97.0058 21.8758 97.1638 22.024C97.3219 22.1722 97.5145 22.2907 97.7417 22.3796C97.9688 22.4586 98.3046 22.5623 98.7491 22.6907C99.3417 22.8487 99.8257 23.0117 100.201 23.1796C100.586 23.3376 100.917 23.5747 101.194 23.8907C101.47 24.2068 101.613 24.6266 101.623 25.1501C101.623 25.6143 101.495 26.0291 101.238 26.3946C100.981 26.76 100.616 27.0464 100.142 27.2539C99.6775 27.4613 99.1294 27.565 98.4972 27.565ZM110.841 19.2683V27.4316H109.152V26.4686C108.886 26.8045 108.535 27.0711 108.1 27.2687C107.676 27.4563 107.221 27.5502 106.737 27.5502C106.095 27.5502 105.517 27.4168 105.004 27.1501C104.5 26.8835 104.1 26.4884 103.804 25.9649C103.517 25.4414 103.374 24.8093 103.374 24.0685V19.2683H105.048V23.8167C105.048 24.5476 105.231 25.1106 105.597 25.5056C105.962 25.8908 106.461 26.0834 107.093 26.0834C107.725 26.0834 108.224 25.8908 108.589 25.5056C108.965 25.1106 109.152 24.5476 109.152 23.8167V19.2683H110.841ZM114.759 20.4536C115.006 20.0387 115.331 19.7177 115.736 19.4906C116.151 19.2535 116.64 19.135 117.203 19.135V20.8832H116.773C116.112 20.8832 115.608 21.0511 115.262 21.3869C114.926 21.7228 114.759 22.3055 114.759 23.1352V27.4316H113.07V19.2683H114.759V20.4536ZM126.237 23.15C126.237 23.4562 126.218 23.7327 126.178 23.9796H119.941C119.99 24.6315 120.232 25.155 120.667 25.5501C121.101 25.9452 121.635 26.1427 122.267 26.1427C123.176 26.1427 123.818 25.7624 124.193 25.0019H126.015C125.768 25.7526 125.319 26.3699 124.667 26.8538C124.025 27.3279 123.225 27.565 122.267 27.565C121.487 27.565 120.785 27.3921 120.163 27.0464C119.551 26.6909 119.067 26.197 118.711 25.5649C118.366 24.9229 118.193 24.1821 118.193 23.3426C118.193 22.503 118.361 21.7672 118.696 21.1351C119.042 20.4931 119.521 19.9992 120.133 19.6535C120.756 19.3078 121.467 19.135 122.267 19.135C123.037 19.135 123.724 19.3029 124.326 19.6387C124.929 19.9745 125.398 20.4486 125.734 21.061C126.07 21.6635 126.237 22.3598 126.237 23.15ZM124.474 22.6166C124.465 21.9944 124.242 21.4956 123.808 21.1203C123.373 20.7449 122.835 20.5573 122.193 20.5573C121.61 20.5573 121.111 20.7449 120.696 21.1203C120.282 21.4857 120.035 21.9845 119.956 22.6166H124.474ZM137.781 19.135C138.423 19.135 138.996 19.2683 139.5 19.535C140.014 19.8017 140.414 20.1968 140.7 20.7202C140.996 21.2437 141.145 21.8758 141.145 22.6166V27.4316H139.47V22.8685C139.47 22.1376 139.288 21.5795 138.922 21.1943C138.557 20.7993 138.058 20.6017 137.426 20.6017C136.794 20.6017 136.29 20.7993 135.915 21.1943C135.549 21.5795 135.367 22.1376 135.367 22.8685V27.4316H133.692V22.8685C133.692 22.1376 133.51 21.5795 133.144 21.1943C132.779 20.7993 132.28 20.6017 131.648 20.6017C131.016 20.6017 130.512 20.7993 130.137 21.1943C129.771 21.5795 129.589 22.1376 129.589 22.8685V27.4316H127.9V19.2683H129.589V20.2017C129.865 19.8659 130.216 19.6041 130.64 19.4165C131.065 19.2288 131.519 19.135 132.003 19.135C132.655 19.135 133.238 19.2733 133.752 19.5498C134.265 19.8264 134.66 20.2264 134.937 20.7499C135.184 20.256 135.569 19.8659 136.093 19.5794C136.616 19.2831 137.179 19.135 137.781 19.135ZM150.776 23.15C150.776 23.4562 150.756 23.7327 150.716 23.9796H144.479C144.528 24.6315 144.77 25.155 145.205 25.5501C145.64 25.9452 146.173 26.1427 146.805 26.1427C147.714 26.1427 148.356 25.7624 148.731 25.0019H150.553C150.306 25.7526 149.857 26.3699 149.205 26.8538C148.563 27.3279 147.763 27.565 146.805 27.565C146.025 27.565 145.323 27.3921 144.701 27.0464C144.089 26.6909 143.605 26.197 143.249 25.5649C142.904 24.9229 142.731 24.1821 142.731 23.3426C142.731 22.503 142.899 21.7672 143.234 21.1351C143.58 20.4931 144.059 19.9992 144.672 19.6535C145.294 19.3078 146.005 19.135 146.805 19.135C147.575 19.135 148.262 19.3029 148.864 19.6387C149.467 19.9745 149.936 20.4486 150.272 21.061C150.608 21.6635 150.776 22.3598 150.776 23.15ZM149.013 22.6166C149.003 21.9944 148.78 21.4956 148.346 21.1203C147.911 20.7449 147.373 20.5573 146.731 20.5573C146.148 20.5573 145.649 20.7449 145.235 21.1203C144.82 21.4857 144.573 21.9845 144.494 22.6166H149.013ZM156.556 19.135C157.198 19.135 157.771 19.2683 158.275 19.535C158.789 19.8017 159.189 20.1968 159.475 20.7202C159.761 21.2437 159.905 21.8758 159.905 22.6166V27.4316H158.231V22.8685C158.231 22.1376 158.048 21.5795 157.682 21.1943C157.317 20.7993 156.818 20.6017 156.186 20.6017C155.554 20.6017 155.05 20.7993 154.675 21.1943C154.309 21.5795 154.127 22.1376 154.127 22.8685V27.4316H152.438V19.2683H154.127V20.2017C154.403 19.8659 154.754 19.6041 155.179 19.4165C155.613 19.2288 156.072 19.135 156.556 19.135ZM164.029 20.6462V25.1649C164.029 25.4711 164.099 25.6933 164.237 25.8316C164.385 25.96 164.632 26.0242 164.978 26.0242H166.015V27.4316H164.681C163.921 27.4316 163.338 27.2539 162.933 26.8983C162.528 26.5427 162.326 25.9649 162.326 25.1649V20.6462H161.363V19.2683H162.326V17.2386H164.029V19.2683H166.015V20.6462H164.029ZM180.294 17.1349L176.428 27.4316H174.472L170.59 17.1349H172.398L175.45 25.6982L178.517 17.1349H180.294ZM182.566 18.1868C182.26 18.1868 182.003 18.0831 181.796 17.8757C181.588 17.6683 181.485 17.4115 181.485 17.1053C181.485 16.7991 181.588 16.5423 181.796 16.3349C182.003 16.1274 182.26 16.0237 182.566 16.0237C182.862 16.0237 183.114 16.1274 183.322 16.3349C183.529 16.5423 183.633 16.7991 183.633 17.1053C183.633 17.4115 183.529 17.6683 183.322 17.8757C183.114 18.0831 182.862 18.1868 182.566 18.1868ZM183.396 19.2683V27.4316H181.707V19.2683H183.396ZM185.05 23.3129C185.05 22.4932 185.218 21.7672 185.554 21.1351C185.9 20.5029 186.364 20.014 186.947 19.6683C187.539 19.3128 188.196 19.135 188.917 19.135C189.45 19.135 189.974 19.2535 190.488 19.4906C191.011 19.7177 191.426 20.0239 191.732 20.4091V16.4682H193.436V27.4316H191.732V26.202C191.456 26.597 191.07 26.923 190.576 27.1798C190.092 27.4366 189.534 27.565 188.902 27.565C188.191 27.565 187.539 27.3872 186.947 27.0316C186.364 26.6662 185.9 26.1624 185.554 25.5204C185.218 24.8686 185.05 24.1327 185.05 23.3129ZM191.732 23.3426C191.732 22.7796 191.614 22.2907 191.377 21.8758C191.149 21.461 190.848 21.1449 190.473 20.9277C190.097 20.7104 189.692 20.6017 189.258 20.6017C188.823 20.6017 188.418 20.7104 188.043 20.9277C187.668 21.1351 187.362 21.4462 187.124 21.861C186.897 22.266 186.784 22.75 186.784 23.3129C186.784 23.8759 186.897 24.3698 187.124 24.7945C187.362 25.2192 187.668 25.5451 188.043 25.7723C188.428 25.9896 188.833 26.0982 189.258 26.0982C189.692 26.0982 190.097 25.9896 190.473 25.7723C190.848 25.555 191.149 25.239 191.377 24.8241C191.614 24.3994 191.732 23.9056 191.732 23.3426ZM203.136 23.15C203.136 23.4562 203.116 23.7327 203.077 23.9796H196.839C196.889 24.6315 197.131 25.155 197.565 25.5501C198 25.9452 198.533 26.1427 199.165 26.1427C200.074 26.1427 200.716 25.7624 201.092 25.0019H202.914C202.667 25.7526 202.217 26.3699 201.566 26.8538C200.924 27.3279 200.124 27.565 199.165 27.565C198.385 27.565 197.684 27.3921 197.062 27.0464C196.449 26.6909 195.965 26.197 195.61 25.5649C195.264 24.9229 195.091 24.1821 195.091 23.3426C195.091 22.503 195.259 21.7672 195.595 21.1351C195.941 20.4931 196.42 19.9992 197.032 19.6535C197.654 19.3078 198.365 19.135 199.165 19.135C199.936 19.135 200.622 19.3029 201.225 19.6387C201.827 19.9745 202.296 20.4486 202.632 21.061C202.968 21.6635 203.136 22.3598 203.136 23.15ZM201.373 22.6166C201.363 21.9944 201.141 21.4956 200.706 21.1203C200.272 20.7449 199.733 20.5573 199.091 20.5573C198.509 20.5573 198.01 20.7449 197.595 21.1203C197.18 21.4857 196.933 21.9845 196.854 22.6166H201.373ZM208.339 27.565C207.569 27.565 206.872 27.3921 206.25 27.0464C205.628 26.6909 205.139 26.197 204.783 25.5649C204.428 24.9229 204.25 24.1821 204.25 23.3426C204.25 22.5129 204.433 21.7771 204.798 21.1351C205.164 20.4931 205.662 19.9992 206.295 19.6535C206.927 19.3078 207.633 19.135 208.413 19.135C209.193 19.135 209.9 19.3078 210.532 19.6535C211.164 19.9992 211.663 20.4931 212.028 21.1351C212.394 21.7771 212.576 22.5129 212.576 23.3426C212.576 24.1722 212.389 24.9081 212.013 25.5501C211.638 26.1921 211.124 26.6909 210.472 27.0464C209.83 27.3921 209.119 27.565 208.339 27.565ZM208.339 26.0982C208.774 26.0982 209.179 25.9945 209.554 25.7871C209.939 25.5797 210.25 25.2686 210.487 24.8538C210.724 24.4389 210.843 23.9352 210.843 23.3426C210.843 22.75 210.729 22.2512 210.502 21.8462C210.275 21.4314 209.974 21.1203 209.598 20.9128C209.223 20.7054 208.818 20.6017 208.383 20.6017C207.949 20.6017 207.544 20.7054 207.169 20.9128C206.803 21.1203 206.512 21.4314 206.295 21.8462C206.077 22.2512 205.969 22.75 205.969 23.3426C205.969 24.2216 206.191 24.9031 206.635 25.3871C207.09 25.8612 207.658 26.0982 208.339 26.0982ZM217.209 27.565C216.567 27.565 215.989 27.4514 215.476 27.2242C214.972 26.9872 214.572 26.6711 214.276 26.276C213.979 25.8711 213.821 25.4217 213.801 24.9278H215.55C215.579 25.2735 215.742 25.5649 216.039 25.8019C216.345 26.0291 216.725 26.1427 217.179 26.1427C217.653 26.1427 218.019 26.0538 218.276 25.876C218.542 25.6884 218.676 25.4513 218.676 25.1649C218.676 24.8587 218.528 24.6315 218.231 24.4834C217.945 24.3352 217.486 24.1722 216.853 23.9945C216.241 23.8265 215.742 23.6636 215.357 23.5055C214.972 23.3475 214.636 23.1055 214.35 22.7796C214.073 22.4536 213.935 22.024 213.935 21.4906C213.935 21.0561 214.063 20.661 214.32 20.3054C214.577 19.94 214.942 19.6535 215.416 19.4461C215.9 19.2387 216.453 19.135 217.076 19.135C218.004 19.135 218.75 19.372 219.313 19.8461C219.886 20.3103 220.192 20.9474 220.231 21.7573H218.542C218.513 21.3919 218.365 21.1005 218.098 20.8832C217.831 20.6659 217.471 20.5573 217.016 20.5573C216.572 20.5573 216.231 20.6412 215.994 20.8091C215.757 20.977 215.639 21.1993 215.639 21.4758C215.639 21.6931 215.718 21.8758 215.876 22.024C216.034 22.1722 216.226 22.2907 216.453 22.3796C216.681 22.4586 217.016 22.5623 217.461 22.6907C218.053 22.8487 218.537 23.0117 218.913 23.1796C219.298 23.3376 219.629 23.5747 219.905 23.8907C220.182 24.2068 220.325 24.6266 220.335 25.1501C220.335 25.6143 220.207 26.0291 219.95 26.3946C219.693 26.76 219.328 27.0464 218.854 27.2539C218.389 27.4613 217.841 27.565 217.209 27.565Z" fill="#FFB8BC"/>
<rect x="29" y="16" width="14.2411" height="12.25" rx="2" fill="#FFB8BC"/>
<path d="M44.5358 20.2983C44.5358 20.1696 44.6178 20.0553 44.7397 20.0141L49.3183 18.4668C49.5128 18.4011 49.7143 18.5458 49.7143 18.7511V24.915C49.7143 25.1203 49.5128 25.2649 49.3183 25.1992L44.7397 23.6519C44.6178 23.6107 44.5358 23.4964 44.5358 23.3677V20.2983Z" fill="#FFB8BC"/>
<defs>
<filter id="filter0_d_1200_273" x="0.110727" y="0.555363" width="249.779" height="52.7785" filterUnits="userSpaceOnUse" color-interpolation-filters="sRGB">
<feFlood flood-opacity="0" result="BackgroundImageFix"/>
<feColorMatrix in="SourceAlpha" type="matrix" values="0 0 0 0 0 0 0 0 0 0 0 0 0 0 0 0 0 0 127 0" result="hardAlpha"/>
<feMorphology radius="1.48155" operator="erode" in="SourceAlpha" result="effect1_dropShadow_1200_273"/>
<feOffset dy="4.44464"/>
<feGaussianBlur stdDeviation="5.18541"/>
<feComposite in2="hardAlpha" operator="out"/>
<feColorMatrix type="matrix" values="0 0 0 0 0.298039 0 0 0 0 0.164706 0 0 0 0 0.462745 0 0 0 0.65 0"/>
<feBlend mode="normal" in2="BackgroundImageFix" result="effect1_dropShadow_1200_273"/>
<feBlend mode="normal" in="SourceGraphic" in2="effect1_dropShadow_1200_273" result="shape"/>
</filter>
</defs>
</svg>
