<svg width="482" height="93" viewBox="0 0 482 93" fill="none" xmlns="http://www.w3.org/2000/svg">
<g filter="url(#filter0_d_1524_278)">
<rect x="16" y="8" width="450.34" height="61" rx="9.03743" fill="#4C2A76"/>
</g>
<path d="M134.681 28.4556V46.4014H131.738V34.1105L126.264 46.4014H124.224L118.724 34.1105V46.4014H115.78V28.4556H118.956L125.257 42.5282L131.531 28.4556H134.681ZM151.59 38.939C151.59 39.4727 151.556 39.9547 151.487 40.385H140.616C140.702 41.5212 141.124 42.4335 141.881 43.1221C142.639 43.8106 143.568 44.1549 144.67 44.1549C146.254 44.1549 147.373 43.4922 148.027 42.1667H151.203C150.772 43.475 149.989 44.5508 148.853 45.3943C147.734 46.2206 146.34 46.6338 144.67 46.6338C143.31 46.6338 142.088 46.3325 141.003 45.73C139.936 45.1103 139.093 44.2496 138.473 43.1479C137.87 42.029 137.569 40.7379 137.569 39.2747C137.569 37.8115 137.862 36.5291 138.447 35.4273C139.05 34.3084 139.884 33.4477 140.952 32.8452C142.036 32.2427 143.276 31.9415 144.67 31.9415C146.013 31.9415 147.209 32.2341 148.259 32.8194C149.309 33.4047 150.127 34.231 150.712 35.2982C151.297 36.3483 151.59 37.5619 151.59 38.939ZM148.517 38.0095C148.5 36.925 148.113 36.0557 147.355 35.4015C146.598 34.7474 145.66 34.4203 144.541 34.4203C143.525 34.4203 142.656 34.7474 141.933 35.4015C141.21 36.0384 140.78 36.9078 140.642 38.0095H148.517ZM153.506 39.2231C153.506 37.7943 153.798 36.5291 154.384 35.4273C154.986 34.3256 155.795 33.4735 156.811 32.871C157.844 32.2513 158.98 31.9415 160.219 31.9415C161.338 31.9415 162.311 32.1653 163.137 32.6128C163.98 33.0432 164.652 33.5854 165.151 34.2396V32.1739H168.121V46.4014H165.151V44.284C164.652 44.9554 163.972 45.5148 163.111 45.9624C162.25 46.41 161.269 46.6338 160.168 46.6338C158.945 46.6338 157.826 46.3239 156.811 45.7042C155.795 45.0673 154.986 44.1893 154.384 43.0704C153.798 41.9343 153.506 40.6518 153.506 39.2231ZM165.151 39.2747C165.151 38.2935 164.944 37.4414 164.531 36.7184C164.135 35.9954 163.61 35.4446 162.956 35.0658C162.302 34.6871 161.596 34.4978 160.839 34.4978C160.081 34.4978 159.376 34.6871 158.722 35.0658C158.067 35.4273 157.534 35.9696 157.121 36.6926C156.725 37.3984 156.527 38.2419 156.527 39.2231C156.527 40.2043 156.725 41.065 157.121 41.8052C157.534 42.5454 158.067 43.1135 158.722 43.5094C159.393 43.8881 160.099 44.0775 160.839 44.0775C161.596 44.0775 162.302 43.8881 162.956 43.5094C163.61 43.1307 164.135 42.5798 164.531 41.8568C164.944 41.1166 165.151 40.2559 165.151 39.2747ZM177.151 46.6338C176.032 46.6338 175.025 46.4358 174.13 46.0399C173.252 45.6267 172.555 45.0759 172.038 44.3873C171.522 43.6815 171.247 42.8983 171.212 42.0376H174.259C174.311 42.6401 174.595 43.1479 175.111 43.561C175.645 43.957 176.308 44.1549 177.099 44.1549C177.926 44.1549 178.563 44 179.01 43.6901C179.475 43.3631 179.707 42.9499 179.707 42.4507C179.707 41.9171 179.449 41.5212 178.933 41.2629C178.434 41.0047 177.633 40.7207 176.531 40.4108C175.464 40.1182 174.595 39.8342 173.923 39.5587C173.252 39.2833 172.667 38.8616 172.168 38.2935C171.686 37.7254 171.445 36.9766 171.445 36.0471C171.445 35.2896 171.668 34.6011 172.116 33.9814C172.563 33.3444 173.2 32.8452 174.027 32.4837C174.87 32.1222 175.834 31.9415 176.919 31.9415C178.537 31.9415 179.836 32.3546 180.818 33.1809C181.816 33.99 182.35 35.1003 182.419 36.5118H179.475C179.423 35.8749 179.165 35.3671 178.7 34.9884C178.236 34.6097 177.607 34.4203 176.815 34.4203C176.041 34.4203 175.447 34.5666 175.034 34.8593C174.621 35.1519 174.414 35.5392 174.414 36.0212C174.414 36.3999 174.552 36.7184 174.827 36.9766C175.103 37.2348 175.438 37.4414 175.834 37.5963C176.23 37.734 176.815 37.9148 177.59 38.1386C178.623 38.414 179.466 38.698 180.121 38.9907C180.792 39.2661 181.369 39.6792 181.851 40.2301C182.333 40.7809 182.582 41.5125 182.599 42.4249C182.599 43.234 182.376 43.957 181.928 44.5939C181.48 45.2308 180.844 45.73 180.017 46.0915C179.208 46.453 178.253 46.6338 177.151 46.6338ZM198.665 32.1739V46.4014H195.721V44.723C195.256 45.3083 194.645 45.7731 193.888 46.1173C193.148 46.4444 192.356 46.6079 191.512 46.6079C190.393 46.6079 189.386 46.3755 188.491 45.9108C187.613 45.446 186.916 44.7574 186.4 43.8451C185.9 42.9327 185.651 41.831 185.651 40.5399V32.1739H188.569V40.101C188.569 41.3748 188.887 42.356 189.524 43.0446C190.161 43.716 191.03 44.0516 192.132 44.0516C193.234 44.0516 194.103 43.716 194.74 43.0446C195.394 42.356 195.721 41.3748 195.721 40.101V32.1739H198.665ZM205.492 34.2396C205.923 33.5166 206.491 32.9571 207.196 32.5612C207.919 32.148 208.772 31.9415 209.753 31.9415V34.9884H209.004C207.851 34.9884 206.973 35.281 206.37 35.8663C205.785 36.4516 205.492 37.4672 205.492 38.9132V46.4014H202.549V32.1739H205.492V34.2396ZM225.498 38.939C225.498 39.4727 225.464 39.9547 225.395 40.385H214.524C214.61 41.5212 215.032 42.4335 215.79 43.1221C216.547 43.8106 217.476 44.1549 218.578 44.1549C220.162 44.1549 221.281 43.4922 221.935 42.1667H225.111C224.681 43.475 223.897 44.5508 222.761 45.3943C221.642 46.2206 220.248 46.6338 218.578 46.6338C217.218 46.6338 215.996 46.3325 214.912 45.73C213.844 45.1103 213.001 44.2496 212.381 43.1479C211.779 42.029 211.477 40.7379 211.477 39.2747C211.477 37.8115 211.77 36.5291 212.355 35.4273C212.958 34.3084 213.793 33.4477 214.86 32.8452C215.944 32.2427 217.184 31.9415 218.578 31.9415C219.921 31.9415 221.117 32.2341 222.167 32.8194C223.217 33.4047 224.035 34.231 224.62 35.2982C225.206 36.3483 225.498 37.5619 225.498 38.939ZM222.426 38.0095C222.408 36.925 222.021 36.0557 221.264 35.4015C220.506 34.7474 219.568 34.4203 218.449 34.4203C217.433 34.4203 216.564 34.7474 215.841 35.4015C215.118 36.0384 214.688 36.9078 214.55 38.0095H222.426ZM245.618 31.9415C246.737 31.9415 247.735 32.1739 248.613 32.6387C249.508 33.1034 250.205 33.792 250.705 34.7044C251.221 35.6167 251.479 36.7184 251.479 38.0095V46.4014H248.561V38.4484C248.561 37.1746 248.243 36.202 247.606 35.5306C246.969 34.8421 246.1 34.4978 244.998 34.4978C243.896 34.4978 243.019 34.8421 242.364 35.5306C241.727 36.202 241.409 37.1746 241.409 38.4484V46.4014H238.491V38.4484C238.491 37.1746 238.173 36.202 237.536 35.5306C236.899 34.8421 236.03 34.4978 234.928 34.4978C233.826 34.4978 232.948 34.8421 232.294 35.5306C231.657 36.202 231.339 37.1746 231.339 38.4484V46.4014H228.395V32.1739H231.339V33.8006C231.821 33.2153 232.432 32.7592 233.172 32.4321C233.912 32.105 234.704 31.9415 235.548 31.9415C236.684 31.9415 237.699 32.1825 238.594 32.6645C239.49 33.1465 240.178 33.8436 240.66 34.756C241.091 33.8953 241.762 33.2153 242.674 32.7161C243.587 32.1997 244.568 31.9415 245.618 31.9415ZM268.265 38.939C268.265 39.4727 268.23 39.9547 268.161 40.385H257.291C257.377 41.5212 257.798 42.4335 258.556 43.1221C259.313 43.8106 260.243 44.1549 261.345 44.1549C262.928 44.1549 264.047 43.4922 264.701 42.1667H267.877C267.447 43.475 266.664 44.5508 265.528 45.3943C264.409 46.2206 263.014 46.6338 261.345 46.6338C259.985 46.6338 258.762 46.3325 257.678 45.73C256.611 45.1103 255.767 44.2496 255.148 43.1479C254.545 42.029 254.244 40.7379 254.244 39.2747C254.244 37.8115 254.536 36.5291 255.122 35.4273C255.724 34.3084 256.559 33.4477 257.626 32.8452C258.711 32.2427 259.95 31.9415 261.345 31.9415C262.687 31.9415 263.884 32.2341 264.934 32.8194C265.984 33.4047 266.802 34.231 267.387 35.2982C267.972 36.3483 268.265 37.5619 268.265 38.939ZM265.192 38.0095C265.175 36.925 264.787 36.0557 264.03 35.4015C263.273 34.7474 262.334 34.4203 261.216 34.4203C260.2 34.4203 259.331 34.7474 258.608 35.4015C257.885 36.0384 257.454 36.9078 257.317 38.0095H265.192ZM278.34 31.9415C279.459 31.9415 280.457 32.1739 281.335 32.6387C282.23 33.1034 282.927 33.792 283.427 34.7044C283.926 35.6167 284.175 36.7184 284.175 38.0095V46.4014H281.258V38.4484C281.258 37.1746 280.939 36.202 280.302 35.5306C279.665 34.8421 278.796 34.4978 277.694 34.4978C276.593 34.4978 275.715 34.8421 275.061 35.5306C274.424 36.202 274.105 37.1746 274.105 38.4484V46.4014H271.162V32.1739H274.105V33.8006C274.587 33.2153 275.198 32.7592 275.938 32.4321C276.696 32.105 277.496 31.9415 278.34 31.9415ZM291.364 34.5752V42.4507C291.364 42.9844 291.485 43.3717 291.726 43.6127C291.984 43.8365 292.414 43.9484 293.017 43.9484H294.824V46.4014H292.501C291.175 46.4014 290.159 46.0915 289.454 45.4718C288.748 44.8521 288.395 43.8451 288.395 42.4507V34.5752H286.717V32.1739H288.395V28.6364H291.364V32.1739H294.824V34.5752H291.364ZM319.712 28.4556L312.973 46.4014H309.564L302.799 28.4556H305.949L311.268 43.3803L316.613 28.4556H319.712ZM323.671 30.2889C323.138 30.2889 322.69 30.1082 322.329 29.7467C321.967 29.3852 321.786 28.9376 321.786 28.404C321.786 27.8703 321.967 27.4228 322.329 27.0613C322.69 26.6998 323.138 26.519 323.671 26.519C324.188 26.519 324.627 26.6998 324.988 27.0613C325.35 27.4228 325.53 27.8703 325.53 28.404C325.53 28.9376 325.35 29.3852 324.988 29.7467C324.627 30.1082 324.188 30.2889 323.671 30.2889ZM325.117 32.1739V46.4014H322.174V32.1739H325.117ZM328.001 39.2231C328.001 37.7943 328.293 36.5291 328.879 35.4273C329.481 34.3256 330.29 33.4735 331.306 32.871C332.339 32.2513 333.483 31.9415 334.74 31.9415C335.67 31.9415 336.582 32.148 337.477 32.5612C338.389 32.9571 339.112 33.4908 339.646 34.1621V27.2937H342.616V46.4014H339.646V44.2582C339.164 44.9468 338.493 45.5148 337.632 45.9624C336.789 46.41 335.816 46.6338 334.714 46.6338C333.475 46.6338 332.339 46.3239 331.306 45.7042C330.29 45.0673 329.481 44.1893 328.879 43.0704C328.293 41.9343 328.001 40.6518 328.001 39.2231ZM339.646 39.2747C339.646 38.2935 339.44 37.4414 339.026 36.7184C338.63 35.9954 338.105 35.4446 337.451 35.0658C336.797 34.6871 336.091 34.4978 335.334 34.4978C334.577 34.4978 333.871 34.6871 333.217 35.0658C332.562 35.4273 332.029 35.9696 331.616 36.6926C331.22 37.3984 331.022 38.2419 331.022 39.2231C331.022 40.2043 331.22 41.065 331.616 41.8052C332.029 42.5454 332.562 43.1135 333.217 43.5094C333.888 43.8881 334.594 44.0775 335.334 44.0775C336.091 44.0775 336.797 43.8881 337.451 43.5094C338.105 43.1307 338.63 42.5798 339.026 41.8568C339.44 41.1166 339.646 40.2559 339.646 39.2747ZM359.522 38.939C359.522 39.4727 359.487 39.9547 359.418 40.385H348.548C348.634 41.5212 349.055 42.4335 349.813 43.1221C350.57 43.8106 351.5 44.1549 352.601 44.1549C354.185 44.1549 355.304 43.4922 355.958 42.1667H359.134C358.704 43.475 357.921 44.5508 356.785 45.3943C355.666 46.2206 354.271 46.6338 352.601 46.6338C351.242 46.6338 350.019 46.3325 348.935 45.73C347.868 45.1103 347.024 44.2496 346.404 43.1479C345.802 42.029 345.501 40.7379 345.501 39.2747C345.501 37.8115 345.793 36.5291 346.379 35.4273C346.981 34.3084 347.816 33.4477 348.883 32.8452C349.968 32.2427 351.207 31.9415 352.601 31.9415C353.944 31.9415 355.141 32.2341 356.191 32.8194C357.241 33.4047 358.058 34.231 358.644 35.2982C359.229 36.3483 359.522 37.5619 359.522 38.939ZM356.449 38.0095C356.432 36.925 356.044 36.0557 355.287 35.4015C354.529 34.7474 353.591 34.4203 352.472 34.4203C351.457 34.4203 350.587 34.7474 349.864 35.4015C349.141 36.0384 348.711 36.9078 348.573 38.0095H356.449ZM368.59 46.6338C367.247 46.6338 366.033 46.3325 364.949 45.73C363.864 45.1103 363.012 44.2496 362.393 43.1479C361.773 42.029 361.463 40.7379 361.463 39.2747C361.463 37.8287 361.781 36.5463 362.418 35.4273C363.055 34.3084 363.925 33.4477 365.026 32.8452C366.128 32.2427 367.359 31.9415 368.719 31.9415C370.079 31.9415 371.309 32.2427 372.411 32.8452C373.513 33.4477 374.382 34.3084 375.019 35.4273C375.656 36.5463 375.975 37.8287 375.975 39.2747C375.975 40.7207 375.647 42.0032 374.993 43.1221C374.339 44.241 373.444 45.1103 372.308 45.73C371.189 46.3325 369.95 46.6338 368.59 46.6338ZM368.59 44.0775C369.347 44.0775 370.053 43.8967 370.707 43.5352C371.378 43.1737 371.921 42.6315 372.334 41.9085C372.747 41.1855 372.953 40.3076 372.953 39.2747C372.953 38.2419 372.755 37.3725 372.36 36.6668C371.964 35.9438 371.439 35.4015 370.784 35.04C370.13 34.6785 369.425 34.4978 368.667 34.4978C367.91 34.4978 367.204 34.6785 366.55 35.04C365.913 35.4015 365.405 35.9438 365.026 36.6668C364.648 37.3725 364.458 38.2419 364.458 39.2747C364.458 40.8068 364.846 41.9945 365.62 42.838C366.412 43.6643 367.402 44.0775 368.59 44.0775ZM384.049 46.6338C382.93 46.6338 381.923 46.4358 381.028 46.0399C380.15 45.6267 379.453 45.0759 378.936 44.3873C378.42 43.6815 378.144 42.8983 378.11 42.0376H381.157C381.208 42.6401 381.492 43.1479 382.009 43.561C382.542 43.957 383.205 44.1549 383.997 44.1549C384.823 44.1549 385.46 44 385.908 43.6901C386.373 43.3631 386.605 42.9499 386.605 42.4507C386.605 41.9171 386.347 41.5212 385.83 41.2629C385.331 41.0047 384.531 40.7207 383.429 40.4108C382.362 40.1182 381.492 39.8342 380.821 39.5587C380.15 39.2833 379.564 38.8616 379.065 38.2935C378.583 37.7254 378.342 36.9766 378.342 36.0471C378.342 35.2896 378.566 34.6011 379.014 33.9814C379.461 33.3444 380.098 32.8452 380.924 32.4837C381.768 32.1222 382.732 31.9415 383.816 31.9415C385.434 31.9415 386.734 32.3546 387.715 33.1809C388.714 33.99 389.247 35.1003 389.316 36.5118H386.373C386.321 35.8749 386.063 35.3671 385.598 34.9884C385.133 34.6097 384.505 34.4203 383.713 34.4203C382.938 34.4203 382.345 34.5666 381.931 34.8593C381.518 35.1519 381.312 35.5392 381.312 36.0212C381.312 36.3999 381.449 36.7184 381.725 36.9766C382 37.2348 382.336 37.4414 382.732 37.5963C383.128 37.734 383.713 37.9148 384.488 38.1386C385.521 38.414 386.364 38.698 387.018 38.9907C387.69 39.2661 388.266 39.6792 388.748 40.2301C389.23 40.7809 389.48 41.5125 389.497 42.4249C389.497 43.234 389.273 43.957 388.826 44.5939C388.378 45.2308 387.741 45.73 386.915 46.0915C386.106 46.453 385.15 46.6338 384.049 46.6338Z" fill="#FFB8BC"/>
<g filter="url(#filter1_d_1524_278)">
<ellipse cx="424.5" cy="38" rx="17.5" ry="18" fill="white"/>
</g>
<path d="M416.722 38.0006H432.667M432.667 38.0006L426.509 31.6006M432.667 38.0006L426.509 44.4006" stroke="#7026A0" stroke-width="3" stroke-linecap="round" stroke-linejoin="round"/>
<rect x="50.8569" y="27.1729" width="24.8202" height="21.35" rx="3.48571" fill="#FFB8BC"/>
<path d="M77.9336 34.6645C77.9336 34.4402 78.0766 34.2409 78.2891 34.1691L86.2689 31.4725C86.6078 31.358 86.9591 31.6101 86.9591 31.9679V42.7107C86.9591 43.0685 86.6078 43.3205 86.2689 43.206L78.2891 40.5094C78.0766 40.4376 77.9336 40.2383 77.9336 40.014V34.6645Z" fill="#FFB8BC"/>
<defs>
<filter id="filter0_d_1524_278" x="0.507265" y="0.253633" width="481.325" height="91.9855" filterUnits="userSpaceOnUse" color-interpolation-filters="sRGB">
<feFlood flood-opacity="0" result="BackgroundImageFix"/>
<feColorMatrix in="SourceAlpha" type="matrix" values="0 0 0 0 0 0 0 0 0 0 0 0 0 0 0 0 0 0 127 0" result="hardAlpha"/>
<feMorphology radius="2.58212" operator="erode" in="SourceAlpha" result="effect1_dropShadow_1524_278"/>
<feOffset dy="7.74637"/>
<feGaussianBlur stdDeviation="9.03743"/>
<feComposite in2="hardAlpha" operator="out"/>
<feColorMatrix type="matrix" values="0 0 0 0 0.298039 0 0 0 0 0.164706 0 0 0 0 0.462745 0 0 0 0.65 0"/>
<feBlend mode="normal" in2="BackgroundImageFix" result="effect1_dropShadow_1524_278"/>
<feBlend mode="normal" in="SourceGraphic" in2="effect1_dropShadow_1524_278" result="shape"/>
</filter>
<filter id="filter1_d_1524_278" x="392" y="9" width="65" height="66" filterUnits="userSpaceOnUse" color-interpolation-filters="sRGB">
<feFlood flood-opacity="0" result="BackgroundImageFix"/>
<feColorMatrix in="SourceAlpha" type="matrix" values="0 0 0 0 0 0 0 0 0 0 0 0 0 0 0 0 0 0 127 0" result="hardAlpha"/>
<feOffset dy="4"/>
<feGaussianBlur stdDeviation="7.5"/>
<feComposite in2="hardAlpha" operator="out"/>
<feColorMatrix type="matrix" values="0 0 0 0 0 0 0 0 0 0 0 0 0 0 0 0 0 0 0.25 0"/>
<feBlend mode="normal" in2="BackgroundImageFix" result="effect1_dropShadow_1524_278"/>
<feBlend mode="normal" in="SourceGraphic" in2="effect1_dropShadow_1524_278" result="shape"/>
</filter>
</defs>
</svg>
