<svg width="125" height="125" viewBox="0 0 125 125" fill="none" xmlns="http://www.w3.org/2000/svg">
<circle cx="62.5" cy="62.5" r="62.5" fill="#270641"/>
<path d="M39.5908 50.8477C39.5908 50.8477 39.5929 50.8477 39.595 50.8487C39.5982 50.8487 39.6024 50.8498 39.6076 50.8508C39.6107 50.8508 39.6139 50.8518 39.6181 50.8518C39.6087 50.8498 39.5992 50.8477 39.5908 50.8477Z" fill="#FFB8BC"/>
<path d="M84.3905 60.5638C84.3173 60.5428 84.2361 60.5438 84.1579 60.5428C83.2848 60.5267 82.8578 61.1572 82.4739 61.7776C82.2945 62.0679 82.1301 62.314 81.8083 62.4341C80.9873 62.7153 80.1554 62.8014 79.2762 62.6343C79.4817 62.298 79.6542 62.0028 79.8406 61.7156C80.1483 61.2413 80.2476 60.6969 80.2827 60.1585C80.3358 59.3599 79.2191 58.7355 78.4282 59.1708C77.3346 59.7722 76.5888 60.6298 77.483 61.8807C77.7175 62.21 77.6554 62.4451 77.3627 62.6743C76.4515 63.3878 75.5634 64.1323 74.6271 64.8118C73.8543 65.3692 72.6354 65.3532 72.1863 64.2434C71.9828 63.7381 71.7162 63.2557 71.4365 62.7874C71.2571 62.4882 71.3683 62.3571 71.63 62.262C72.2174 62.0488 72.7637 61.7486 73.331 61.4974C74.987 60.7629 76.4004 59.6801 77.6995 58.4593C78.9825 57.2534 80.0361 55.8574 80.6305 54.1672C81.1437 52.7051 80.7819 51.5042 79.2522 50.8638C77.8909 50.2934 76.5557 50.6116 75.3318 51.2761C73.0103 52.535 71.2902 54.4093 70.0432 56.725C69.9199 56.9542 69.7725 57.1713 69.6372 57.3935C69.8627 56.4158 70.1394 55.4761 70.5263 54.5725C71.233 52.9193 71.8565 51.214 73.338 50.0392C73.4042 49.9862 73.4403 49.9171 73.4092 49.834C73.3651 49.715 73.2629 49.735 73.1707 49.749C73.0423 49.769 72.9531 49.8621 72.8529 49.9371C71.8084 50.7207 71.1639 51.8215 70.5203 52.9103C69.5941 54.4814 69.13 56.2407 68.5346 57.9499C67.5963 60.6508 67.1533 63.4468 66.8235 66.2699C66.8004 66.471 66.8185 66.7142 67.0791 66.7512C67.3277 66.7863 67.3156 66.5411 67.3578 66.388C67.6655 65.2421 67.9482 64.0883 68.1597 62.9195C68.2278 62.5452 68.3541 62.3631 68.7771 62.5102C69.2673 62.6783 69.7725 62.7724 70.2988 62.6243C70.5714 62.5472 70.7799 62.6643 70.9163 62.9255C71.1939 63.4509 71.4926 63.9662 71.7683 64.4926C72.07 65.068 72.481 65.4733 73.1757 65.5043C73.7641 65.5304 74.2753 65.3342 74.7464 65.002C75.4882 64.4796 76.228 63.9572 76.9717 63.4398C77.075 63.3688 77.1712 63.2457 77.3306 63.3748C77.8899 63.8261 78.0824 63.8271 78.6056 63.2977C78.8462 63.0546 79.0788 62.9745 79.4226 62.9745C79.8316 62.9745 80.2406 63.0235 80.6505 63.0025C81.0034 62.9845 81.3061 62.8324 81.6389 62.7363C81.8514 62.6753 82.2133 62.4271 82.3997 62.6152C82.5832 62.8004 82.8157 62.8284 83.0362 62.8794C83.7068 63.0346 83.8893 63.3458 83.5725 63.9502C83.2187 64.6267 82.6343 65.069 81.9346 65.3562C81.689 65.4573 81.4124 65.7035 81.1638 65.4613C80.9112 65.2151 81.1908 64.982 81.3031 64.7548C81.3813 64.5967 81.4244 64.4356 81.1567 64.4506C80.8019 64.4706 80.4721 64.9249 80.4902 65.3522C80.5092 65.7745 80.7718 65.9086 81.1507 65.9046C82.4308 65.8886 83.337 65.2101 84.0036 64.2024C84.5358 63.3968 84.2592 62.8714 83.3049 62.6973C83.0954 62.6593 82.8678 62.6173 82.8398 62.322C82.7846 61.7296 83.7169 60.7789 84.3303 60.814C84.4095 60.819 84.4987 60.833 84.5178 60.7339C84.5358 60.6458 84.4677 60.5848 84.3905 60.5638ZM70.1745 62.1389C70.1224 62.309 69.9359 62.315 69.7755 62.316C69.7284 62.317 69.6813 62.316 69.6342 62.317C69.2934 62.3391 68.9937 62.1939 68.6879 62.0769C68.5486 62.0238 68.4333 61.9408 68.4694 61.7646C68.5025 61.6015 68.6358 61.5985 68.7631 61.5945C69.1601 61.5805 69.545 61.6375 69.8998 61.8197C70.0301 61.8867 70.2386 61.9348 70.1745 62.1389ZM70.805 61.9157C70.3218 61.3824 69.7034 61.1592 68.9937 61.2052C68.6779 61.2252 68.6438 61.1002 68.7421 60.851C69.9329 57.8608 71.3784 55.0198 73.8112 52.8272C74.9659 51.7864 76.3001 51.0249 77.9441 51.0409C78.3109 51.0449 78.6628 51.125 78.9976 51.2501C79.6902 51.5082 79.993 52.0186 80.006 53.0524C79.9749 54.4243 79.3254 55.7233 78.4082 56.9312C76.5628 59.3599 74.1259 60.9521 71.3052 62.0188C71.1087 62.0929 70.9584 62.0859 70.805 61.9157ZM78.3731 62.8344C78.2698 63.0516 78.0884 63.2287 77.8579 63.3248C77.7336 63.2767 77.6323 63.2027 77.6975 63.0836C77.8017 62.8965 77.8158 62.5972 78.1265 62.6193C78.2328 62.6263 78.4252 62.7253 78.3731 62.8344ZM78.3721 62.4141C78.1225 62.218 78.3951 62.1189 78.4583 62.0078C78.5495 61.8497 78.7079 61.7306 78.8272 61.5875C78.9134 61.4854 79.0447 61.3794 78.8883 61.2313C78.743 61.0912 78.6087 61.0821 78.4393 61.2192C78.2297 61.3884 78.1736 61.6696 77.9671 61.8417C77.4338 61.0962 77.7376 60.0594 78.5615 59.7572C79.0918 59.563 79.6431 59.9603 79.606 60.5137C79.5609 61.1872 79.3023 61.7746 78.8743 62.294C78.735 62.4631 78.5996 62.5912 78.3721 62.4141Z" fill="#FFB8BC"/>
<g opacity="0.75">
<path d="M29.6668 29.597C31.8199 27.4284 34.1986 25.485 36.7527 23.8048C39.3058 22.1236 42.0324 20.7066 44.8702 19.5687C50.5477 17.2901 56.6633 16.1333 62.78 16.0882C68.8966 16.0442 75.0283 17.107 80.753 19.2735C86.4746 21.4341 91.7843 24.7305 96.1468 29.0225C98.328 31.1651 100.292 33.5278 101.996 36.0646C103.701 38.6014 105.144 41.3114 106.301 44.1394C108.618 49.7945 109.772 55.9139 109.729 62.0203C109.687 68.1277 108.461 74.2241 106.132 79.8722C103.806 85.5212 100.376 90.716 96.0796 95.0661C93.9345 97.2437 91.5798 99.2151 89.0518 100.936C86.5248 102.658 83.8263 104.129 81.0086 105.321C75.3741 107.707 69.2635 108.963 63.1428 109.005C57.0222 109.056 50.8936 107.89 45.222 105.591C39.5474 103.297 34.343 99.8616 29.9916 95.5635C25.6352 91.2714 22.1208 86.1247 19.7571 80.4856C17.3854 74.8516 16.1485 68.7482 16.1214 62.6398C16.0913 56.5304 17.2732 50.419 19.5907 44.7659C20.7485 41.9399 22.1869 39.2279 23.879 36.6851C25.57 34.1402 27.5136 31.7645 29.6668 29.597ZM29.6738 29.603C27.5237 31.7735 25.583 34.1502 23.896 36.6951C22.208 39.2399 20.7735 41.9509 19.6208 44.7769C17.3113 50.428 16.1385 56.5364 16.1785 62.6378C16.2146 68.7392 17.4596 74.8305 19.8363 80.4506C21.0241 83.2606 22.4866 85.9536 24.2017 88.4774C25.9158 91.0012 27.8815 93.3539 30.0537 95.4984C34.3961 99.7885 39.5905 103.219 45.2541 105.51C50.9146 107.806 57.0322 108.97 63.1418 108.921C69.2515 108.877 75.352 107.632 80.9805 105.255C83.7952 104.069 86.4917 102.604 89.0167 100.886C91.5428 99.1701 93.8974 97.2037 96.0425 95.0311C100.338 90.689 103.77 85.5012 106.098 79.8592C107.262 77.0381 108.154 74.105 108.759 71.1139C109.363 68.1227 109.675 65.0725 109.693 62.0213C109.73 55.9189 108.57 49.8075 106.251 44.1615C105.093 41.3384 103.649 38.6325 101.944 36.1006C100.24 33.5688 98.2759 31.2111 96.0966 29.0736C93.9184 26.935 91.5017 25.0407 88.9165 23.4155C86.3313 21.7903 83.5787 20.4334 80.7239 19.3476C75.0122 17.176 68.8906 16.1062 62.78 16.1423C56.6694 16.1783 50.5578 17.3271 44.8812 19.5968C42.0434 20.7306 39.3179 22.1446 36.7638 23.8208C34.2097 25.498 31.828 27.4384 29.6738 29.603Z" fill="#FFB8BC"/>
</g>
<g opacity="0.75">
<path d="M84.6854 21.8812C90.1625 24.5852 95.0843 28.3919 99.1049 32.9852C101.116 35.2819 102.902 37.7747 104.425 40.4196C105.947 43.0635 107.207 45.8595 108.181 48.7516C110.129 54.5347 110.923 60.7032 110.508 66.7916C110.099 72.881 108.471 78.8853 105.747 84.3482C103.026 89.8132 99.2092 94.7277 94.6011 98.7346C92.2986 100.74 89.8006 102.52 87.1503 104.038C84.5 105.557 81.6993 106.811 78.8033 107.779C73.0095 109.717 66.8357 110.508 60.7391 110.095C54.6426 109.686 48.6282 108.07 43.1561 105.354C37.68 102.644 32.7542 98.8387 28.7346 94.2414C26.7228 91.9447 24.9365 89.4519 23.4129 86.806C21.8882 84.1611 20.6312 81.3641 19.6579 78.471C17.7102 72.6858 16.9193 66.5164 17.3353 60.427C17.7473 54.3376 19.3672 48.3313 22.0907 42.8663C23.45 40.1334 25.0819 37.5355 26.9523 35.1217C27.8876 33.9149 28.881 32.753 29.9295 31.6422L30.7264 30.8196L31.5493 30.0231L31.9613 29.6248C32.0305 29.5587 32.0976 29.4917 32.1678 29.4266L32.3813 29.2365L33.2364 28.475C33.3807 28.3499 33.518 28.2168 33.6674 28.0977L34.1105 27.7344L34.9966 27.0079C35.2993 26.7747 35.605 26.5466 35.9098 26.3164C36.2155 26.0882 36.5142 25.8501 36.833 25.6379C37.4625 25.2046 38.081 24.7573 38.7335 24.359C39.0563 24.1548 39.3771 23.9467 39.7018 23.7465L40.6922 23.1711C43.3365 21.64 46.1472 20.4041 49.0422 19.4304L49.5845 19.2453L50.1328 19.0802L51.2304 18.7519C51.5983 18.6489 51.9692 18.5598 52.3391 18.4627C52.7089 18.3697 53.0768 18.2666 53.4517 18.1915L54.5714 17.9494L54.8511 17.8893L55.1327 17.8393L55.6971 17.7392L56.2614 17.6401C56.4499 17.6071 56.6373 17.5721 56.8268 17.5491L57.9615 17.393C58.3394 17.3349 58.7193 17.3019 59.1002 17.2639C59.4801 17.2279 59.86 17.1868 60.241 17.1538L61.3847 17.0847L61.9561 17.0507L62.5284 17.0377L63.6742 17.0127C64.0561 17.0127 64.438 17.0237 64.8199 17.0277C65.5837 17.0267 66.3456 17.0867 67.1084 17.1248C67.2988 17.1328 67.4893 17.1498 67.6797 17.1688L68.2501 17.2218L68.8205 17.2749L69.1052 17.3009C69.2004 17.3109 69.2946 17.3249 69.3888 17.3369C70.1456 17.44 70.9055 17.5231 71.6563 17.6642C72.0322 17.7302 72.4101 17.7893 72.785 17.8603L73.9056 18.0965L74.466 18.2156L75.0213 18.3547L76.132 18.6339C79.079 19.4434 81.9459 20.5342 84.6854 21.8812L84.6814 21.8892C81.9398 20.5462 79.073 19.4605 76.1269 18.6599L75.0163 18.3827L74.461 18.2436L73.9006 18.1255L72.7799 17.8913C72.405 17.8203 72.0281 17.7622 71.6522 17.6962C70.9014 17.5561 70.1426 17.474 69.3858 17.372C69.2916 17.3599 69.1964 17.3459 69.1021 17.3359L68.8175 17.3099L68.2471 17.2579L67.6767 17.2058C67.4873 17.1878 67.2968 17.1698 67.1064 17.1628C66.3446 17.1268 65.5827 17.0677 64.8189 17.0697C64.437 17.0657 64.0561 17.0547 63.6742 17.0557L62.5294 17.0827L61.9571 17.0968L61.3857 17.1318L60.243 17.2018C59.863 17.2349 59.4831 17.2759 59.1042 17.3129C58.7243 17.3509 58.3444 17.385 57.9675 17.443L56.8338 17.6001C56.6443 17.6231 56.4569 17.6582 56.2695 17.6922L55.7061 17.7923L55.1428 17.8923L54.8611 17.9424L54.5814 18.0024L53.4627 18.2456C53.0888 18.3206 52.721 18.4237 52.3511 18.5178C51.9822 18.6149 51.6113 18.7049 51.2444 18.808L50.1488 19.1372L49.6015 19.3023L49.0602 19.4885C46.1703 20.4652 43.3656 21.7031 40.7273 23.2352L39.7389 23.8106C39.4141 24.0107 39.0954 24.2189 38.7726 24.423C38.1221 24.8213 37.5046 25.2696 36.8771 25.703C36.5603 25.9151 36.2626 26.1533 35.9569 26.3814C35.6532 26.6126 35.3474 26.8398 35.0467 27.0729L34.1636 27.7995L33.7225 28.1627C33.5742 28.2818 33.4368 28.4139 33.2925 28.54C28.6905 32.5399 24.8834 37.4494 22.1699 42.9054C19.4514 48.3593 17.8335 54.3546 17.4205 60.432C17.0035 66.5094 17.7924 72.6678 19.7361 78.443C21.6737 84.2201 24.7701 89.605 28.7857 94.1933C32.7943 98.7876 37.7091 102.594 43.1761 105.307C48.6412 108.024 54.6476 109.642 60.7391 110.057C66.8297 110.475 73.0035 109.689 78.7893 107.744C81.6832 106.773 84.4799 105.517 87.1263 103.998C89.7726 102.48 92.2665 100.699 94.564 98.6936C99.163 94.6867 102.971 89.7761 105.682 84.3162C107.039 81.5872 108.123 78.7252 108.917 75.7841C109.712 72.8429 110.215 69.8248 110.426 66.7856C110.845 60.7072 110.059 54.5488 108.117 48.7706C107.148 45.8815 105.893 43.0885 104.373 40.4466C102.855 37.8037 101.074 35.3119 99.0668 33.0162C97.061 30.7196 94.8297 28.6191 92.4199 26.7487C91.212 25.817 89.961 24.9414 88.6699 24.1278C87.3758 23.3192 86.0437 22.5717 84.6784 21.8892L84.6854 21.8812Z" fill="#FFB8BC"/>
</g>
<g opacity="0.75">
<path d="M17.1228 56.8536L17.3554 55.2505L17.6551 53.6583L18.0109 52.0772C18.1463 51.5538 18.2916 51.0334 18.4319 50.512L18.9171 48.9659L19.4544 47.4368C19.6529 46.9345 19.8443 46.4301 20.0368 45.9247L20.6663 44.4317C21.5364 42.4532 22.5478 40.5359 23.7045 38.7085L24.5957 37.3536L25.5399 36.0356L26.5303 34.7517L27.5708 33.5088L27.5778 33.5148L26.5654 34.7797L25.5931 36.0746L24.6678 37.4026L23.7847 38.7586C22.639 40.5869 21.6075 42.4873 20.7134 44.4517L20.0719 45.9378C19.8754 46.4401 19.6779 46.9425 19.4895 47.4478L18.9692 48.9809L18.5061 50.5321L18.0891 52.0952L17.7182 53.6703L17.4035 55.2575L17.1348 56.8536H17.1228Z" fill="#FFB8BC"/>
</g>
<g opacity="0.75">
<path d="M26.5169 91.3504C25.5656 90.1505 24.6705 88.9046 23.8485 87.6127C23.0266 86.3208 22.2607 84.9918 21.5811 83.6198C20.8965 82.2498 20.276 80.8478 19.7337 79.4168C19.2004 77.9828 18.6952 76.5357 18.3003 75.0557C17.8973 73.5786 17.5615 72.0835 17.3029 70.5744C17.0523 69.0643 16.8779 67.5412 16.7756 66.0141C16.7556 65.6319 16.7245 65.2506 16.7135 64.8673L16.6814 63.7195L16.6854 62.5717L16.6874 62.2845L16.6974 61.9972L16.7175 61.4238C16.7786 59.8947 16.915 58.3686 17.1245 56.8525L17.1285 56.8535C16.927 58.3706 16.7997 59.8967 16.7466 61.4258L16.7295 61.9992L16.7215 62.2855V62.5727L16.7235 63.7195L16.7576 64.8663C16.7676 65.2486 16.7997 65.6299 16.8187 66.0121C16.92 67.5382 17.0934 69.0593 17.343 70.5684C17.6016 72.0765 17.9274 73.5726 18.3253 75.0496C19.1242 78.0038 20.2269 80.8758 21.6102 83.6058C22.2978 84.9728 23.0566 86.3038 23.8736 87.5977C24.0771 87.9219 24.2896 88.2402 24.5001 88.5594C24.7166 88.8746 24.9281 89.1938 25.1527 89.5041C25.5907 90.1315 26.0528 90.742 26.5199 91.3484L26.5169 91.3504Z" fill="#FFB8BC"/>
</g>
<g opacity="0.85">
<path d="M72.6433 108.531C77.107 107.691 81.4444 106.191 85.464 104.084C89.4866 101.98 93.1824 99.2651 96.4111 96.0788C98.028 94.4886 99.5186 92.7704 100.884 90.9591C101.564 90.0524 102.209 89.1178 102.821 88.1641C102.972 87.9239 103.129 87.6877 103.275 87.4445L103.715 86.717C103.997 86.2257 104.282 85.7353 104.549 85.235C106.711 81.2471 108.25 76.927 109.125 72.4798C110.88 63.5834 109.906 54.1726 106.361 45.8256C105.48 43.7371 104.43 41.7206 103.25 39.7862C102.66 38.8185 102.03 37.8758 101.367 36.9552C100.706 36.0345 100.009 35.1389 99.3011 34.2532C97.8807 32.485 96.3991 30.7637 94.8183 29.1365C94.0284 28.323 93.2115 27.5334 92.3554 26.7889C91.5014 26.0423 90.6033 25.3438 89.641 24.7404L89.645 24.7344C90.6093 25.3348 91.5104 26.0313 92.3665 26.7758C93.2255 27.5184 94.0445 28.3049 94.8374 29.1175C96.4242 30.7417 97.9107 32.4589 99.3371 34.2242C100.048 35.1088 100.749 36.0025 101.412 36.9232C102.078 37.8428 102.712 38.7845 103.306 39.7522C104.495 41.6856 105.54 43.708 106.423 45.7995C108.196 49.9786 109.328 54.4258 109.793 58.94C110.261 63.4543 110.05 68.0376 109.166 72.4878C108.729 74.7144 108.111 76.904 107.347 79.0395C106.573 81.172 105.649 83.2495 104.573 85.247C104.307 85.7483 104.023 86.2397 103.741 86.732L103.303 87.4616C103.157 87.7047 103.001 87.9419 102.851 88.1831C102.239 89.1388 101.597 90.0754 100.917 90.9841C99.5547 92.7994 98.0651 94.5206 96.4492 96.1168C90.0118 102.531 81.5887 106.919 72.6463 108.538L72.6433 108.531Z" fill="#FFB8BC"/>
</g>
<g opacity="0.85">
<path d="M85.5716 22.1387C84.9471 21.8094 84.3196 21.4852 83.6801 21.185C83.0446 20.8778 82.4001 20.5896 81.7525 20.3094C80.4524 19.758 79.1292 19.2636 77.785 18.8313C76.4398 18.404 75.0795 18.0207 73.7023 17.7095C72.325 17.4003 70.9326 17.1521 69.5323 16.967C66.7306 16.6047 63.8938 16.5226 61.0751 16.6968C59.6657 16.7818 58.2613 16.9369 56.864 17.1411C55.4676 17.3482 54.0763 17.5984 52.703 17.9266C47.2039 19.2026 41.9273 21.4652 37.2591 24.6395C36.9694 24.8416 36.6767 25.0368 36.39 25.2439L35.536 25.8694L34.7 26.5178C34.4203 26.733 34.1537 26.9642 33.879 27.1863C32.7954 28.09 31.7559 29.0467 30.7646 30.0504C29.7702 31.0521 28.839 32.1139 27.9508 33.2097C27.0637 34.3074 26.2307 35.4473 25.4519 36.6251L25.4438 36.6201C26.9875 34.2564 28.7487 32.0318 30.7275 30.0144C31.7168 29.0056 32.7543 28.0449 33.8359 27.1353C34.1096 26.9121 34.3762 26.68 34.6559 26.4628L35.4909 25.8103L36.3439 25.1809C36.6296 24.9737 36.9233 24.7756 37.212 24.5724C39.5456 22.9773 42.0345 21.6063 44.6337 20.4905C45.9318 19.9311 47.254 19.4247 48.5982 18.9854C49.9434 18.5481 51.3067 18.1678 52.683 17.8446C54.0593 17.5173 55.4526 17.2672 56.851 17.06C57.5496 16.9519 58.2533 16.8759 58.955 16.7938C59.6587 16.7268 60.3633 16.6677 61.07 16.6317C62.4824 16.5567 63.8968 16.5376 65.3102 16.5907C66.7226 16.6437 68.1329 16.7618 69.5363 16.9309C70.9386 17.1071 72.334 17.3462 73.7153 17.6494C75.0956 17.9567 76.4629 18.3209 77.8081 18.7582C79.1523 19.1986 80.4744 19.7019 81.7725 20.2603C83.0697 20.8217 84.3377 21.4492 85.5746 22.1317L85.5716 22.1387Z" fill="#FFB8BC"/>
</g>
<path d="M72.1055 108.822C66.1773 109.922 60.0206 109.893 54.1185 108.611C51.1684 107.976 48.2825 107.046 45.5159 105.843C42.7523 104.636 40.0909 103.186 37.615 101.461C35.1361 99.7434 32.8205 97.787 30.7255 95.6164C28.6305 93.4468 26.749 91.0721 25.1191 88.5343C23.4862 85.9985 22.1169 83.2955 21.0293 80.4845C19.9407 77.6745 19.1338 74.7544 18.6316 71.7842L18.6406 71.7822C19.1729 74.7464 19.9908 77.6585 21.0905 80.4605C22.1901 83.2625 23.5714 85.9524 25.1933 88.4863C28.4421 93.5539 32.7042 97.9671 37.6421 101.42C37.7924 101.534 37.9538 101.631 38.1102 101.736L38.5823 102.046L39.5266 102.666L40.4979 103.243L40.9841 103.531C41.1474 103.625 41.3048 103.728 41.4732 103.813L42.4706 104.345L42.9698 104.611L43.2194 104.743L43.475 104.864L44.4975 105.347L45.0087 105.589C45.1781 105.671 45.3555 105.736 45.5289 105.811C48.2975 107.002 51.1844 107.919 54.1325 108.543C57.0815 109.162 60.0887 109.504 63.103 109.546L63.6683 109.557L63.951 109.562C64.0452 109.563 64.1394 109.557 64.2337 109.555L65.3634 109.522L65.9287 109.505L66.2114 109.497L66.4931 109.475L67.6198 109.387L68.1831 109.343L68.4648 109.321L68.7454 109.292C69.1203 109.252 69.4942 109.208 69.8681 109.16C70.6159 109.063 71.3607 108.947 72.1025 108.813L72.1055 108.822Z" fill="#FFB8BC"/>
<path d="M15.9231 57.6431C16.0123 57.6792 16.0273 57.7502 15.9592 57.8183L15.5953 58.0594C15.3687 58.2886 15.4108 58.6028 15.4479 59.1862L15.455 59.4384C15.465 59.6035 15.3307 59.6316 15.2745 59.4755L15.1803 59.2413C14.9818 58.6909 14.8585 58.3707 14.5588 58.2506L14.0767 58.2075C13.9874 58.1715 13.9724 58.1005 14.0406 58.0324L14.4586 57.7952C14.6851 57.5661 14.7012 57.3029 14.6641 56.7195L14.658 56.5103C14.648 56.3452 14.7823 56.3172 14.8385 56.4733L14.9117 56.6774C15.1101 57.2278 15.2224 57.45 15.5211 57.5711L15.9231 57.6431Z" fill="#FFB8BC"/>
<path d="M14.2336 56.3662C14.373 56.3374 14.453 56.1556 14.4124 55.9603C14.3719 55.7649 14.226 55.6299 14.0867 55.6587C13.9474 55.6876 13.8674 55.8693 13.9079 56.0647C13.9485 56.2601 14.0943 56.3951 14.2336 56.3662Z" fill="#FFB8BC"/>
<path d="M13.8086 57.652C13.9241 57.6281 13.9922 57.4859 13.9607 57.3343C13.9292 57.1828 13.8101 57.0793 13.6947 57.1032C13.5792 57.1271 13.5111 57.2693 13.5426 57.4209C13.574 57.5724 13.6932 57.6759 13.8086 57.652Z" fill="#FFB8BC"/>
<path d="M16.6357 57.4663C16.6971 57.4663 16.7469 57.4166 16.7469 57.3552C16.7469 57.2939 16.6971 57.2441 16.6357 57.2441C16.5742 57.2441 16.5244 57.2939 16.5244 57.3552C16.5244 57.4166 16.5742 57.4663 16.6357 57.4663Z" fill="#FFB8BC"/>
<path d="M16.0571 58.8868C16.1252 58.8868 16.1804 58.8317 16.1804 58.7637C16.1804 58.6957 16.1252 58.6406 16.0571 58.6406C15.989 58.6406 15.9338 58.6957 15.9338 58.7637C15.9338 58.8317 15.989 58.8868 16.0571 58.8868Z" fill="#FFB8BC"/>
<path d="M14.4117 59.312C14.4616 59.312 14.502 59.2716 14.502 59.2219C14.502 59.1722 14.4616 59.1318 14.4117 59.1318C14.3619 59.1318 14.3215 59.1722 14.3215 59.2219C14.3215 59.2716 14.3619 59.312 14.4117 59.312Z" fill="#FFB8BC"/>
<path d="M14.0885 59.9647C14.1649 59.9647 14.2269 59.9028 14.2269 59.8266C14.2269 59.7503 14.1649 59.6885 14.0885 59.6885C14.0121 59.6885 13.9502 59.7503 13.9502 59.8266C13.9502 59.9028 14.0121 59.9647 14.0885 59.9647Z" fill="#FFB8BC"/>
<path d="M16.7597 58.4961C16.8796 58.4713 16.9505 58.3253 16.9183 58.17C16.886 58.0146 16.7628 57.9088 16.6429 57.9336C16.5231 57.9584 16.4522 58.1044 16.4844 58.2597C16.5167 58.4151 16.6399 58.5209 16.7597 58.4961Z" fill="#FFB8BC"/>
<path d="M16.3812 59.3686C16.4311 59.3686 16.4714 59.3283 16.4714 59.2785C16.4714 59.2288 16.4311 59.1885 16.3812 59.1885C16.3314 59.1885 16.291 59.2288 16.291 59.2785C16.291 59.3283 16.3314 59.3686 16.3812 59.3686Z" fill="#FFB8BC"/>
<path d="M17.1179 57.5C17.1849 57.5 17.2392 57.4458 17.2392 57.3789C17.2392 57.312 17.1849 57.2578 17.1179 57.2578C17.0509 57.2578 16.9966 57.312 16.9966 57.3789C16.9966 57.4458 17.0509 57.5 17.1179 57.5Z" fill="#FFB8BC"/>
<path d="M15.6157 56.4902C15.6827 56.4902 15.737 56.436 15.737 56.3691C15.737 56.3023 15.6827 56.248 15.6157 56.248C15.5487 56.248 15.4944 56.3023 15.4944 56.3691C15.4944 56.436 15.5487 56.4902 15.6157 56.4902Z" fill="#FFB8BC"/>
<path d="M13.8759 62.3499C13.929 62.3729 13.9581 62.448 13.919 62.49L13.7165 62.6792C13.5852 62.8193 13.6022 62.9694 13.6273 63.3286L13.6333 63.4837C13.6403 63.5848 13.5611 63.6018 13.527 63.5057L13.4358 63.2606C13.3386 62.9153 13.2835 62.8623 13.107 62.7872L12.8173 62.7192C12.7642 62.6962 12.7622 62.6041 12.8013 62.5621L13.0018 62.41C13.1331 62.2699 13.1652 62.2178 13.1401 61.8586L13.1471 61.6784C13.1401 61.5774 13.2193 61.5603 13.2534 61.6564L13.2975 61.7825C13.4178 62.1217 13.4509 62.2088 13.6273 62.2849L13.8759 62.3499Z" fill="#FFB8BC"/>
<path d="M12.7667 62.002C12.8116 62.002 12.8479 61.9563 12.8479 61.8999C12.8479 61.8436 12.8116 61.7979 12.7667 61.7979C12.7219 61.7979 12.6855 61.8436 12.6855 61.8999C12.6855 61.9563 12.7219 62.002 12.7667 62.002Z" fill="#FFB8BC"/>
<path d="M12.7667 63.372C12.8166 63.372 12.8569 63.3366 12.8569 63.2929C12.8569 63.2493 12.8166 63.2139 12.7667 63.2139C12.7169 63.2139 12.6765 63.2493 12.6765 63.2929C12.6765 63.3366 12.7169 63.372 12.7667 63.372Z" fill="#FFB8BC"/>
<path d="M14.5029 63.448C14.5444 63.448 14.5781 63.4144 14.5781 63.3729C14.5781 63.3315 14.5444 63.2979 14.5029 63.2979C14.4614 63.2979 14.4277 63.3315 14.4277 63.3729C14.4277 63.4144 14.4614 63.448 14.5029 63.448Z" fill="#FFB8BC"/>
<path d="M14.1597 63.1605C14.1968 63.1605 14.2269 63.1304 14.2269 63.0934C14.2269 63.0564 14.1968 63.0264 14.1597 63.0264C14.1226 63.0264 14.0925 63.0564 14.0925 63.0934C14.0925 63.1304 14.1226 63.1605 14.1597 63.1605Z" fill="#FFB8BC"/>
<path d="M75.7682 15.6382C75.8183 15.6112 75.8965 15.6342 75.9045 15.6913L75.9266 15.9675C75.9546 16.1576 76.083 16.2367 76.3797 16.4408L76.505 16.5329C76.5892 16.5909 76.5521 16.662 76.4558 16.6289L76.2062 16.5479C75.8745 16.4098 75.7993 16.4198 75.6299 16.5099L75.3963 16.694C75.3462 16.721 75.272 16.665 75.264 16.6089L75.27 16.3568C75.2419 16.1666 75.2209 16.1096 74.9242 15.9054L74.7869 15.7883C74.7027 15.7303 74.7397 15.6592 74.836 15.6923L74.9623 15.7363C75.3031 15.8534 75.3913 15.8814 75.5607 15.7913L75.7682 15.6382Z" fill="#FFB8BC"/>
<path d="M78.257 17.0969C78.287 17.0829 78.3201 17.0989 78.3131 17.1309L78.272 17.286C78.2499 17.3931 78.2971 17.4411 78.4033 17.5642L78.4474 17.6193C78.4775 17.6543 78.4464 17.6933 78.4053 17.6713L78.2991 17.6193C78.1637 17.5322 78.1256 17.5362 78.0264 17.5812L77.878 17.6773C77.848 17.6913 77.8229 17.6573 77.8299 17.6263L77.8801 17.4862C77.9021 17.3791 77.9031 17.3461 77.7969 17.224L77.7517 17.1539C77.7217 17.1189 77.7527 17.0799 77.7938 17.1019L77.847 17.1299C77.9903 17.205 78.0284 17.224 78.1276 17.178L78.257 17.0969Z" fill="#FFB8BC"/>
<path d="M74.8073 16.2852C74.8352 16.2502 74.822 16.1933 74.7778 16.1583C74.7336 16.1232 74.6751 16.1232 74.6472 16.1582C74.6193 16.1933 74.6325 16.2501 74.6767 16.2852C74.7209 16.3203 74.7794 16.3203 74.8073 16.2852Z" fill="#FFB8BC"/>
<path d="M75.8825 17.1353C75.9135 17.0963 75.9109 17.0428 75.8767 17.0156C75.8424 16.9884 75.7895 16.998 75.7585 17.0369C75.7275 17.0759 75.7301 17.1294 75.7644 17.1566C75.7986 17.1838 75.8515 17.1742 75.8825 17.1353Z" fill="#FFB8BC"/>
<path d="M73.9724 16.6324C74.0034 16.5934 74.0007 16.5398 73.9665 16.5127C73.9323 16.4855 73.8794 16.495 73.8484 16.534C73.8174 16.5729 73.82 16.6265 73.8542 16.6537C73.8885 16.6808 73.9414 16.6713 73.9724 16.6324Z" fill="#FFB8BC"/>
<path d="M76.9609 15.8591C77.0024 15.8591 77.0361 15.8255 77.0361 15.784C77.0361 15.7426 77.0024 15.709 76.9609 15.709C76.9194 15.709 76.8857 15.7426 76.8857 15.784C76.8857 15.8255 76.9194 15.8591 76.9609 15.8591Z" fill="#FFB8BC"/>
<path d="M78.7956 17.1648C78.8372 17.1648 78.8708 17.1312 78.8708 17.0897C78.8708 17.0483 78.8372 17.0146 78.7956 17.0146C78.7541 17.0146 78.7205 17.0483 78.7205 17.0897C78.7205 17.1312 78.7541 17.1648 78.7956 17.1648Z" fill="#FFB8BC"/>
<path d="M79.092 17.5339C79.1335 17.5339 79.1672 17.5003 79.1672 17.4588C79.1672 17.4174 79.1335 17.3838 79.092 17.3838C79.0505 17.3838 79.0168 17.4174 79.0168 17.4588C79.0168 17.5003 79.0505 17.5339 79.092 17.5339Z" fill="#FFB8BC"/>
<path d="M77.1125 17.4607C77.1541 17.4607 77.1877 17.4271 77.1877 17.3856C77.1877 17.3441 77.1541 17.3105 77.1125 17.3105C77.071 17.3105 77.0374 17.3441 77.0374 17.3856C77.0374 17.4271 77.071 17.4607 77.1125 17.4607Z" fill="#FFB8BC"/>
<path d="M76.5286 15.9446C76.5657 15.9446 76.5957 15.9146 76.5957 15.8776C76.5957 15.8406 76.5657 15.8105 76.5286 15.8105C76.4915 15.8105 76.4614 15.8406 76.4614 15.8776C76.4614 15.9146 76.4915 15.9446 76.5286 15.9446Z" fill="#FFB8BC"/>
<path d="M26.9813 93.4482C27.0014 93.4863 26.9994 93.5283 26.9763 93.5563L26.7718 93.8065C26.6916 93.9046 26.6626 94.0447 26.6916 94.1908L26.7678 94.5631C26.7758 94.6041 26.7618 94.6411 26.7307 94.6571C26.6997 94.6731 26.6616 94.6641 26.6325 94.6331L26.3719 94.3559C26.2696 94.2478 26.1383 94.1898 26.011 94.1988L25.6882 94.2208C25.6521 94.2228 25.6171 94.1998 25.597 94.1628C25.577 94.1257 25.579 94.0817 25.602 94.0547L25.8065 93.8045C25.8867 93.7064 25.9158 93.5663 25.8867 93.4192L25.8115 93.047C25.8035 93.0059 25.8175 92.9689 25.8486 92.9529C25.8797 92.9369 25.9178 92.9469 25.9469 92.9769L26.2075 93.2541C26.3097 93.3632 26.441 93.4202 26.5683 93.4112L26.8911 93.3892C26.9262 93.3872 26.9623 93.4102 26.9813 93.4482Z" fill="#FFB8BC"/>
<path d="M23.0571 91.1677C23.0712 91.1938 23.0692 91.2238 23.0541 91.2428L22.9128 91.4159C22.8576 91.484 22.8376 91.581 22.8576 91.6821L22.9098 91.9403C22.9158 91.9683 22.9058 91.9943 22.8837 92.0054C22.8627 92.0164 22.8356 92.0104 22.8155 91.9883L22.6351 91.7962C22.5639 91.7212 22.4737 91.6811 22.3855 91.6871L22.162 91.7021C22.1369 91.7041 22.1129 91.6881 22.0988 91.6621C22.0848 91.6361 22.0868 91.6061 22.1018 91.5871L22.2432 91.4139C22.2983 91.3459 22.3184 91.2488 22.2983 91.1477L22.2462 90.8896C22.2402 90.8615 22.2502 90.8355 22.2722 90.8245C22.2933 90.8135 22.3204 90.8205 22.3404 90.8415L22.5208 91.0327C22.592 91.1077 22.6822 91.1477 22.7704 91.1417L22.994 91.1267C23.018 91.1257 23.0431 91.1417 23.0571 91.1677Z" fill="#FFB8BC"/>
<path d="M22.823 89.0568C22.833 89.0768 22.832 89.0988 22.821 89.1128L22.7148 89.2429C22.6737 89.294 22.6576 89.366 22.6737 89.4421L22.7127 89.6352C22.7168 89.6562 22.7097 89.6752 22.6937 89.6842C22.6777 89.6922 22.6576 89.6872 22.6426 89.6722L22.5073 89.5291C22.4541 89.4731 22.386 89.4431 22.3208 89.4481L22.1534 89.4591C22.1354 89.4601 22.1163 89.4481 22.1063 89.4291C22.0963 89.409 22.0973 89.387 22.1083 89.373L22.2146 89.2429C22.2567 89.1919 22.2717 89.1198 22.2557 89.0438L22.2166 88.8506C22.2126 88.8296 22.2196 88.8106 22.2356 88.8016C22.2516 88.7936 22.2717 88.7986 22.2867 88.8146L22.4221 88.9577C22.4752 89.0138 22.5433 89.0438 22.6085 89.0388L22.7759 89.0268C22.7949 89.0248 22.813 89.0368 22.823 89.0568Z" fill="#FFB8BC"/>
<path d="M24.6905 92.5078C24.5491 92.5078 24.5491 92.727 24.6905 92.727C24.8318 92.727 24.8318 92.5078 24.6905 92.5078Z" fill="#FFB8BC"/>
<path d="M21.9022 90.2197C21.781 90.2197 21.781 90.4079 21.9022 90.4079C22.0235 90.4079 22.0235 90.2197 21.9022 90.2197Z" fill="#FFB8BC"/>
<path d="M21.7211 90.8184C21.5998 90.8184 21.5998 91.0065 21.7211 91.0065C21.8424 91.0065 21.8424 90.8184 21.7211 90.8184Z" fill="#FFB8BC"/>
<path d="M23.6484 91.2422C23.5542 91.2422 23.5532 91.3893 23.6484 91.3893C23.7437 91.3893 23.7437 91.2422 23.6484 91.2422Z" fill="#FFB8BC"/>
<path d="M21.7431 89.0479C21.6559 89.0479 21.6559 89.1829 21.7431 89.1829C21.8303 89.1839 21.8303 89.0479 21.7431 89.0479Z" fill="#FFB8BC"/>
<path d="M21.5401 91.6963C21.479 91.6963 21.478 91.7919 21.5401 91.7919C21.6013 91.7919 21.6013 91.6963 21.5401 91.6963Z" fill="#FFB8BC"/>
<path d="M22.9762 92.3838C22.9165 92.3838 22.9165 92.4769 22.9762 92.4769C23.036 92.4769 23.036 92.3838 22.9762 92.3838Z" fill="#FFB8BC"/>
<path d="M23.8358 91.9629C23.7761 91.9629 23.7761 92.056 23.8358 92.056C23.8956 92.056 23.8956 91.9629 23.8358 91.9629Z" fill="#FFB8BC"/>
<path d="M24.0163 91.6367C23.9565 91.6367 23.9565 91.7299 24.0163 91.7299C24.076 91.7299 24.076 91.6367 24.0163 91.6367Z" fill="#FFB8BC"/>
<path d="M22.5837 88.5674C22.5281 88.5674 22.5281 88.6532 22.5837 88.6532C22.6392 88.6532 22.6392 88.5674 22.5837 88.5674Z" fill="#FFB8BC"/>
<path d="M21.7045 88.5254C21.6489 88.5254 21.6489 88.6112 21.7045 88.6112C21.7601 88.6112 21.7601 88.5254 21.7045 88.5254Z" fill="#FFB8BC"/>
<path d="M22.3251 92.1982C22.2269 92.1982 22.2269 92.3524 22.3251 92.3524C22.4224 92.3524 22.4224 92.1982 22.3251 92.1982Z" fill="#FFB8BC"/>
<path d="M23.3577 91.6621C23.2535 91.6621 23.2535 91.8252 23.3577 91.8252C23.462 91.8252 23.462 91.6621 23.3577 91.6621Z" fill="#FFB8BC"/>
<path d="M28.6507 94.8613C28.5093 94.8613 28.5093 95.0805 28.6507 95.0805C28.792 95.0805 28.792 94.8613 28.6507 94.8613Z" fill="#FFB8BC"/>
<path d="M29.5203 94.3818C29.379 94.3818 29.379 94.601 29.5203 94.601C29.6616 94.6 29.6616 94.3818 29.5203 94.3818Z" fill="#FFB8BC"/>
<path d="M25.5826 94.8613C25.4412 94.8613 25.4412 95.0805 25.5826 95.0805C25.7239 95.0805 25.7239 94.8613 25.5826 94.8613Z" fill="#FFB8BC"/>
<path d="M24.6904 93.4756C24.4328 93.4756 24.4318 93.8068 24.6904 93.8068C24.948 93.8068 24.949 93.4756 24.6904 93.4756Z" fill="#FFB8BC"/>
<path d="M28.6506 93.8057C28.4251 93.8057 28.4251 94.0959 28.6506 94.0959C28.8771 94.0959 28.8771 93.8057 28.6506 93.8057Z" fill="#FFB8BC"/>
<path d="M27.5157 94.2002C27.233 94.2002 27.233 94.6385 27.5157 94.6385C27.7984 94.6375 27.7984 94.2002 27.5157 94.2002Z" fill="#FFB8BC"/>
<path d="M108.27 85.8976C108.245 85.9326 108.207 85.9506 108.172 85.9436L107.855 85.8775C107.731 85.8515 107.592 85.8906 107.476 85.9846L107.179 86.2238C107.146 86.2498 107.107 86.2538 107.079 86.2338C107.051 86.2138 107.041 86.1758 107.055 86.1357L107.181 85.7765C107.23 85.6354 107.221 85.4933 107.155 85.3842L106.987 85.108C106.969 85.078 106.972 85.0349 106.997 84.9999C107.022 84.9649 107.06 84.9469 107.095 84.9539L107.412 85.0199C107.536 85.0459 107.675 85.0069 107.791 84.9128L108.087 84.6737C108.121 84.6477 108.16 84.6427 108.188 84.6627C108.216 84.6827 108.226 84.7217 108.212 84.7607L108.085 85.12C108.036 85.2611 108.045 85.4042 108.112 85.5123L108.28 85.7885C108.298 85.8195 108.294 85.8625 108.27 85.8976Z" fill="#FFB8BC"/>
<path d="M109.509 81.2989C109.494 81.3209 109.467 81.3299 109.442 81.3219L109.208 81.2539C109.117 81.2268 109.02 81.2429 108.942 81.2969L108.746 81.434C108.724 81.449 108.696 81.449 108.674 81.433C108.652 81.418 108.642 81.391 108.649 81.3659L108.713 81.1358C108.738 81.0457 108.72 80.9486 108.665 80.8716L108.522 80.6744C108.506 80.6524 108.506 80.6244 108.521 80.6034C108.536 80.5814 108.564 80.5724 108.589 80.5804L108.822 80.6484C108.914 80.6754 109.011 80.6594 109.088 80.6054L109.284 80.4683C109.306 80.4533 109.334 80.4533 109.356 80.4683C109.378 80.4843 109.388 80.5103 109.381 80.5363L109.317 80.7665C109.292 80.8566 109.31 80.9536 109.365 81.0307L109.508 81.2278C109.524 81.2489 109.525 81.2769 109.509 81.2989Z" fill="#FFB8BC"/>
<path d="M110.926 79.9859C110.912 80.0059 110.888 80.0139 110.864 80.0069L110.65 79.9448C110.567 79.9208 110.478 79.9348 110.408 79.9838L110.228 80.1089C110.208 80.1229 110.183 80.1229 110.162 80.1079C110.142 80.0939 110.133 80.0699 110.14 80.0469L110.198 79.8367C110.221 79.7537 110.205 79.6666 110.154 79.5956L110.024 79.4154C110.01 79.3954 110.009 79.3704 110.023 79.3504C110.037 79.3304 110.061 79.3224 110.085 79.3294L110.298 79.3914C110.383 79.4154 110.471 79.4014 110.541 79.3524L110.72 79.2273C110.74 79.2133 110.767 79.2133 110.786 79.2273C110.806 79.2413 110.815 79.2653 110.808 79.2893L110.749 79.4995C110.726 79.5826 110.742 79.6696 110.794 79.7407L110.924 79.9208C110.94 79.9408 110.94 79.9658 110.926 79.9859Z" fill="#FFB8BC"/>
<path d="M109.573 78.315C109.563 78.33 109.545 78.336 109.527 78.331L109.369 78.285C109.307 78.267 109.241 78.278 109.189 78.314L109.057 78.4071C109.042 78.4171 109.023 78.4171 109.008 78.4071C108.993 78.3971 108.987 78.3791 108.991 78.361L109.034 78.2049C109.051 78.1439 109.039 78.0788 109.001 78.0268L108.905 77.8937C108.894 77.8787 108.894 77.8597 108.904 77.8457C108.914 77.8307 108.932 77.8247 108.95 77.8297L109.108 77.8757C109.17 77.8937 109.235 77.8827 109.288 77.8467L109.42 77.7536C109.435 77.7436 109.454 77.7436 109.469 77.7536C109.484 77.7646 109.49 77.7816 109.486 77.7996L109.443 77.9557C109.426 78.0168 109.438 78.0818 109.476 78.1339L109.572 78.267C109.583 78.281 109.583 78.3 109.573 78.315Z" fill="#FFB8BC"/>
<path d="M108.049 83.4332C107.984 83.3081 107.79 83.4092 107.855 83.5343C107.92 83.6584 108.114 83.5583 108.049 83.4332Z" fill="#FFB8BC"/>
<path d="M105.643 86.5524C105.578 86.4273 105.384 86.5283 105.449 86.6534C105.514 86.7785 105.709 86.6784 105.643 86.5524Z" fill="#FFB8BC"/>
<path d="M109.336 81.8121C109.271 81.687 109.077 81.7881 109.142 81.9132C109.207 82.0383 109.401 81.9372 109.336 81.8121Z" fill="#FFB8BC"/>
<path d="M106.37 85.3092C106.305 85.1841 106.11 85.2852 106.175 85.4103C106.239 85.5344 106.435 85.4343 106.37 85.3092Z" fill="#FFB8BC"/>
<path d="M108.21 81.3971C108.145 81.272 107.95 81.3731 108.015 81.4982C108.08 81.6232 108.275 81.5222 108.21 81.3971Z" fill="#FFB8BC"/>
<path d="M109.743 79.861C109.677 79.7359 109.483 79.8369 109.548 79.962C109.613 80.0861 109.808 79.986 109.743 79.861Z" fill="#FFB8BC"/>
<path d="M108.929 80.0655C108.897 80.0035 108.799 80.0535 108.832 80.1156C108.865 80.1786 108.962 80.1276 108.929 80.0655Z" fill="#FFB8BC"/>
<path d="M110.005 78.8956C109.973 78.8336 109.875 78.8836 109.908 78.9456C109.941 79.0087 110.038 78.9586 110.005 78.8956Z" fill="#FFB8BC"/>
<path d="M109.288 79.1915C109.256 79.1295 109.158 79.1795 109.191 79.2415C109.223 79.3046 109.32 79.2545 109.288 79.1915Z" fill="#FFB8BC"/>
<path d="M108.384 82.0675C108.352 82.0054 108.254 82.0555 108.287 82.1175C108.319 82.1806 108.417 82.1305 108.384 82.0675Z" fill="#FFB8BC"/>
<path d="M110.06 80.6476C110.028 80.5855 109.93 80.6355 109.963 80.6976C109.996 80.7606 110.093 80.7106 110.06 80.6476Z" fill="#FFB8BC"/>
<path d="M106.258 85.9684C106.193 85.8433 105.998 85.9444 106.063 86.0694C106.128 86.1945 106.323 86.0935 106.258 85.9684Z" fill="#FFB8BC"/>
<path d="M105.644 87.4527C105.579 87.3277 105.384 87.4287 105.449 87.5538C105.515 87.6789 105.709 87.5778 105.644 87.4527Z" fill="#FFB8BC"/>
<path d="M107.191 83.8794C107.071 83.6513 106.777 83.8034 106.896 84.0325C107.015 84.2607 107.31 84.1076 107.191 83.8794Z" fill="#FFB8BC"/>
<path d="M107.827 86.6768C107.725 86.4806 107.419 86.6387 107.521 86.8349C107.624 87.031 107.929 86.8729 107.827 86.6768Z" fill="#FFB8BC"/>
<path d="M106.648 86.684C106.518 86.4338 106.129 86.635 106.259 86.8862C106.389 87.1364 106.778 86.9342 106.648 86.684Z" fill="#FFB8BC"/>
<path d="M107.755 38.4752C107.844 38.5112 107.859 38.5822 107.791 38.6503L107.427 38.8915C107.2 39.1206 107.242 39.4349 107.279 40.0183L107.287 40.2705C107.297 40.4356 107.162 40.4636 107.106 40.3075L107.012 40.0733C106.813 39.5229 106.69 39.2027 106.39 39.0826L105.908 39.0396C105.819 39.0035 105.804 38.9325 105.872 38.8644L106.29 38.6273C106.517 38.3981 106.533 38.1349 106.496 37.5515L106.49 37.3424C106.48 37.1772 106.614 37.1492 106.67 37.3053L106.743 37.5095C106.942 38.0599 107.054 38.282 107.353 38.4031L107.755 38.4752Z" fill="#FFB8BC"/>
<path d="M107.616 37.4985C107.768 37.4671 107.855 37.2692 107.811 37.0565C107.767 36.8438 107.608 36.6969 107.456 36.7283C107.304 36.7597 107.217 36.9576 107.261 37.1703C107.306 37.3829 107.464 37.5299 107.616 37.4985Z" fill="#FFB8BC"/>
<path d="M106.067 37.1983C106.206 37.1694 106.286 36.9877 106.246 36.7923C106.205 36.5969 106.059 36.4619 105.92 36.4908C105.781 36.5196 105.701 36.7013 105.741 36.8967C105.782 37.0921 105.928 37.2271 106.067 37.1983Z" fill="#FFB8BC"/>
<path d="M105.642 38.4811C105.757 38.4572 105.825 38.315 105.794 38.1634C105.762 38.0119 105.643 37.9084 105.528 37.9323C105.412 37.9562 105.344 38.0984 105.376 38.25C105.407 38.4015 105.526 38.505 105.642 38.4811Z" fill="#FFB8BC"/>
<path d="M108.467 38.3013C108.529 38.3013 108.579 38.2515 108.579 38.1902C108.579 38.1288 108.529 38.0791 108.467 38.0791C108.406 38.0791 108.356 38.1288 108.356 38.1902C108.356 38.2515 108.406 38.3013 108.467 38.3013Z" fill="#FFB8BC"/>
<path d="M107.888 39.7247C107.957 39.7247 108.012 39.6696 108.012 39.6016C108.012 39.5336 107.957 39.4785 107.888 39.4785C107.82 39.4785 107.765 39.5336 107.765 39.6016C107.765 39.6696 107.82 39.7247 107.888 39.7247Z" fill="#FFB8BC"/>
<path d="M106.243 40.1469C106.293 40.1469 106.334 40.1066 106.334 40.0569C106.334 40.0071 106.293 39.9668 106.243 39.9668C106.193 39.9668 106.153 40.0071 106.153 40.0569C106.153 40.1066 106.193 40.1469 106.243 40.1469Z" fill="#FFB8BC"/>
<path d="M105.919 40.7996C105.995 40.7996 106.057 40.7378 106.057 40.6615C106.057 40.5853 105.995 40.5234 105.919 40.5234C105.842 40.5234 105.781 40.5853 105.781 40.6615C105.781 40.7378 105.842 40.7996 105.919 40.7996Z" fill="#FFB8BC"/>
<path d="M108.593 39.3281C108.713 39.3033 108.784 39.1573 108.752 39.002C108.72 38.8467 108.596 38.7409 108.476 38.7657C108.357 38.7904 108.286 38.9365 108.318 39.0918C108.35 39.2471 108.473 39.3529 108.593 39.3281Z" fill="#FFB8BC"/>
<path d="M108.213 40.2036C108.262 40.2036 108.303 40.1632 108.303 40.1135C108.303 40.0638 108.262 40.0234 108.213 40.0234C108.163 40.0234 108.122 40.0638 108.122 40.1135C108.122 40.1632 108.163 40.2036 108.213 40.2036Z" fill="#FFB8BC"/>
<path d="M108.949 38.3349C109.016 38.3349 109.071 38.2807 109.071 38.2139C109.071 38.147 109.016 38.0928 108.949 38.0928C108.882 38.0928 108.828 38.147 108.828 38.2139C108.828 38.2807 108.882 38.3349 108.949 38.3349Z" fill="#FFB8BC"/>
<path d="M110.856 42.3327C110.863 42.3677 110.852 42.4017 110.828 42.4197L110.61 42.5758C110.523 42.6369 110.469 42.744 110.459 42.8701L110.435 43.1903C110.432 43.2253 110.412 43.2523 110.384 43.2583C110.356 43.2643 110.328 43.2473 110.312 43.2163L110.167 42.9311C110.11 42.819 110.019 42.742 109.917 42.7199L109.655 42.6629C109.626 42.6569 109.603 42.6299 109.596 42.5939C109.589 42.5588 109.6 42.5238 109.624 42.5068L109.843 42.3507C109.929 42.2896 109.983 42.1826 109.993 42.0565L110.017 41.7362C110.02 41.7012 110.04 41.6742 110.067 41.6682C110.095 41.6622 110.124 41.6792 110.139 41.7102L110.284 41.9954C110.34 42.1075 110.432 42.1846 110.534 42.2066L110.796 42.2626C110.826 42.2706 110.849 42.2976 110.856 42.3327Z" fill="#FFB8BC"/>
<path d="M109.843 40.8349C109.704 40.7949 109.642 41.0151 109.781 41.0561C109.92 41.0971 109.982 40.8759 109.843 40.8349Z" fill="#FFB8BC"/>
<path d="M109.438 41.4785C109.3 41.4384 109.238 41.6586 109.377 41.6996C109.516 41.7397 109.578 41.5195 109.438 41.4785Z" fill="#FFB8BC"/>
<path d="M111.51 42.6192C111.402 42.5871 111.354 42.7603 111.462 42.7923C111.57 42.8233 111.618 42.6512 111.51 42.6192Z" fill="#FFB8BC"/>
<path d="M108.696 41.8536C108.635 41.8366 108.608 41.9307 108.669 41.9487C108.73 41.9657 108.757 41.8706 108.696 41.8536Z" fill="#FFB8BC"/>
<path d="M110.158 43.5744C110.101 43.5573 110.075 43.6494 110.133 43.6654C110.19 43.6834 110.216 43.5914 110.158 43.5744Z" fill="#FFB8BC"/>
<path d="M111.486 43.5316C111.421 43.5126 111.391 43.6167 111.457 43.6357C111.523 43.6547 111.552 43.5506 111.486 43.5316Z" fill="#FFB8BC"/>
<path d="M111.799 43.2054C111.734 43.1864 111.705 43.2905 111.77 43.3095C111.836 43.3285 111.866 43.2244 111.799 43.2054Z" fill="#FFB8BC"/>
<path d="M73.4645 14.8509C73.4355 14.936 73.5698 14.982 73.5989 14.8969C73.6289 14.8119 73.4936 14.7658 73.4645 14.8509Z" fill="#FFB8BC"/>
<path d="M111.039 43.0169C110.92 42.9819 110.867 43.1741 110.986 43.2091C111.105 43.2441 111.159 43.052 111.039 43.0169Z" fill="#FFB8BC"/>
<path d="M31.3229 28.6147C31.3019 28.6557 31.2648 28.6798 31.2267 28.6778L30.8829 28.6568C30.7476 28.6487 30.6082 28.7108 30.501 28.8269L30.2253 29.1241C30.1952 29.1571 30.1541 29.1671 30.1211 29.1501C30.088 29.1331 30.0719 29.0941 30.081 29.05L30.1582 28.6527C30.1882 28.4966 30.1561 28.3475 30.0699 28.2445L29.8504 27.9793C29.8264 27.9502 29.8233 27.9052 29.8444 27.8642C29.8654 27.8231 29.9035 27.7991 29.9406 27.8011L30.2845 27.8221C30.4198 27.8302 30.5591 27.7681 30.6674 27.652L30.943 27.3548C30.9731 27.3218 31.0142 27.3118 31.0473 27.3278C31.0804 27.3448 31.0964 27.3838 31.0874 27.4279L31.0102 27.8252C30.9801 27.9813 31.0122 28.1304 31.0984 28.2334L31.3189 28.4986C31.341 28.5297 31.343 28.5747 31.3229 28.6147Z" fill="#FFB8BC"/>
<path d="M29.3712 28.2128C29.2258 28.0107 28.9111 28.2368 29.0574 28.438C29.2018 28.6401 29.5165 28.415 29.3712 28.2128Z" fill="#FFB8BC"/>
<path d="M30.1097 26.9425C30.0045 26.7974 29.7779 26.9595 29.8832 27.1046C29.9874 27.2497 30.214 27.0876 30.1097 26.9425Z" fill="#FFB8BC"/>
<path d="M31.4503 26.5216C31.3451 26.3765 31.1185 26.5386 31.2238 26.6837C31.329 26.8298 31.5556 26.6677 31.4503 26.5216Z" fill="#FFB8BC"/>
<path d="M31.8543 27.6243C31.7911 27.5363 31.6548 27.6344 31.718 27.7224C31.7811 27.8095 31.9184 27.7114 31.8543 27.6243Z" fill="#FFB8BC"/>
<path d="M29.0734 27.2988C29.0162 27.2197 28.908 27.2968 28.9661 27.3758C29.0223 27.4549 29.1305 27.3778 29.0734 27.2988Z" fill="#FFB8BC"/>
<path d="M30.8677 26.1107C30.8046 26.0226 30.6682 26.1207 30.7314 26.2087C30.7945 26.2968 30.9309 26.1987 30.8677 26.1107Z" fill="#FFB8BC"/>
<path d="M29.4522 29.2992C29.389 29.2111 29.2527 29.3092 29.3159 29.3972C29.379 29.4853 29.5153 29.3872 29.4522 29.2992Z" fill="#FFB8BC"/>
<path d="M26.5727 32.3477C25.9893 32.3477 25.9883 33.2523 26.5727 33.2523C27.1551 33.2523 27.1561 32.3477 26.5727 32.3477Z" fill="#FFB8BC"/>
<path d="M34.8032 28.6113C34.2198 28.6113 34.2188 29.516 34.8032 29.516C35.3866 29.517 35.3876 28.6113 34.8032 28.6113Z" fill="#FFB8BC"/>
<path d="M18.6381 68.5967C18.0547 68.5967 18.0537 69.5013 18.6381 69.5013C19.2205 69.5013 19.2215 68.5967 18.6381 68.5967Z" fill="#FFB8BC"/>
<path d="M16.5947 64.9688C16.0113 64.9688 16.0103 65.8734 16.5947 65.8734C17.1781 65.8734 17.1791 64.9688 16.5947 64.9688Z" fill="#FFB8BC"/>
<path d="M30.0637 91.3525C29.4803 91.3525 29.4793 92.2572 30.0637 92.2572C30.6471 92.2582 30.6481 91.3525 30.0637 91.3525Z" fill="#FFB8BC"/>
<path d="M19.3954 84.1025C18.812 84.1025 18.811 85.0072 19.3954 85.0072C19.9788 85.0082 19.9798 84.1025 19.3954 84.1025Z" fill="#FFB8BC"/>
<path d="M42.7241 106.26C42.1407 106.26 42.1397 107.164 42.7241 107.164C43.3075 107.165 43.3085 106.26 42.7241 106.26Z" fill="#FFB8BC"/>
<path d="M72.645 105.809C72.0616 105.809 72.0606 106.713 72.645 106.713C73.2283 106.713 73.2294 105.809 72.645 105.809Z" fill="#FFB8BC"/>
<path d="M76.3547 106.711C75.7713 106.711 75.7703 107.616 76.3547 107.616C76.9381 107.617 76.9391 106.711 76.3547 106.711Z" fill="#FFB8BC"/>
<path d="M86.3603 100.25C85.7769 100.25 85.7759 101.155 86.3603 101.155C86.9437 101.155 86.9447 100.25 86.3603 100.25Z" fill="#FFB8BC"/>
<path d="M95.6655 33.9658C95.0821 33.9658 95.0811 34.8705 95.6655 34.8705C96.2489 34.8715 96.2499 33.9658 95.6655 33.9658Z" fill="#FFB8BC"/>
<path d="M104.519 40.8154C103.936 40.8154 103.935 41.7201 104.519 41.7201C105.103 41.7211 105.104 40.8154 104.519 40.8154Z" fill="#FFB8BC"/>
<path d="M68.6022 17.9033C68.0188 17.9033 68.0178 18.808 68.6022 18.808C69.1856 18.809 69.1866 17.9033 68.6022 17.9033Z" fill="#FFB8BC"/>
<path d="M73.6524 15.6299C73.5211 15.6299 73.5211 15.811 73.6524 15.811C73.7848 15.811 73.7848 15.6299 73.6524 15.6299Z" fill="#FFB8BC"/>
<path d="M73.8714 16.3271C73.5797 16.3271 73.5797 16.7795 73.8714 16.7795C74.1631 16.7795 74.1631 16.3271 73.8714 16.3271Z" fill="#FFB8BC"/>
<path d="M74.4758 15.0195C74.2683 15.0195 74.2673 15.2447 74.4758 15.2447C74.6833 15.2447 74.6833 15.0195 74.4758 15.0195Z" fill="#FFB8BC"/>
<path d="M42.2861 20.2705C41.7027 20.2705 41.7017 21.1752 42.2861 21.1752C42.8695 21.1762 42.8705 20.2705 42.2861 20.2705Z" fill="#FFB8BC"/>
<path d="M107.426 60.5209V60.5285C107.426 60.5263 107.425 60.522 107.425 60.5176C107.425 60.5187 107.426 60.5198 107.426 60.5209Z" fill="#FFB8BC"/>
<path d="M103.583 63.0586L103.581 63.0609V63.0586H103.583Z" fill="#FFB8BC"/>
<path d="M102.987 63.0619C102.996 63.0567 103.019 63.0378 103.051 63.0127C103.028 63.0273 103.007 63.0441 102.987 63.0619ZM102.985 63.0629C102.985 63.064 102.986 63.0629 102.987 63.0619C102.986 63.0619 102.985 63.0619 102.985 63.0629Z" fill="#FFB8BC"/>
<path d="M102.989 63.0586C102.987 63.0604 102.985 63.0621 102.985 63.0621V63.0604C102.985 63.0586 102.987 63.0586 102.989 63.0586Z" fill="#FFB8BC"/>
<path d="M103.051 63.0117C103.019 63.0368 102.995 63.0557 102.987 63.0609C103.007 63.0431 103.028 63.0264 103.051 63.0117Z" fill="#FFB8BC"/>
<path d="M107.225 60.3207V60.3283C107.225 60.3261 107.224 60.3218 107.224 60.3174C107.224 60.3185 107.225 60.3196 107.225 60.3207Z" fill="#FFB8BC"/>
<path d="M103.382 62.8584L103.38 62.8608V62.8584H103.382Z" fill="#FFB8BC"/>
<path d="M29.5677 76.8291L29.5276 77.6217H29.714L29.718 77.5727C29.7271 77.4506 29.7561 77.3525 29.8043 77.2825C29.8514 77.2134 29.9065 77.1684 29.9706 77.1444C30.0067 77.1323 30.0829 77.1173 30.2453 77.1173H30.545V79.3039C30.545 79.5041 30.521 79.5691 30.5069 79.5891C30.4648 79.6492 30.3927 79.6792 30.2864 79.6792H30.13V79.8643H31.4813V79.6792H31.3269C31.2287 79.6792 31.1565 79.6542 31.1134 79.6061C31.0993 79.5901 31.0683 79.5301 31.0683 79.3039V77.1173H31.4291C31.5414 77.1173 31.6316 77.1353 31.6978 77.1704C31.7629 77.2054 31.8151 77.2584 31.8542 77.3335C31.8782 77.3795 31.8983 77.4606 31.9133 77.5747L31.9193 77.6207H32.1038L32.0667 76.8281H29.5677V76.8291Z" fill="#FFB8BC" stroke="#FFB8BC" stroke-width="0.274123"/>
<path d="M35.6723 77.0152H35.8287C35.8889 77.0152 35.945 77.0302 36.0001 77.0602C36.0352 77.0803 36.0583 77.1023 36.0683 77.1263C36.0793 77.1543 36.0923 77.2254 36.0923 77.4035V78.1891H34.8343V77.4035C34.8343 77.2324 34.8464 77.1633 34.8574 77.1353C34.8704 77.1013 34.8925 77.0763 34.9256 77.0592C34.9797 77.0302 35.0378 77.0162 35.098 77.0162H35.2574V76.8311H33.8931V77.0162H34.0495C34.1106 77.0162 34.1667 77.0312 34.2219 77.0612C34.256 77.0813 34.278 77.1033 34.288 77.1283C34.2991 77.1563 34.3121 77.2274 34.3121 77.4055V79.2969C34.3121 79.519 34.283 79.5811 34.271 79.5971C34.2259 79.6551 34.1537 79.6821 34.0485 79.6821H33.8921V79.8673H35.2564V79.6821H35.097C35.0368 79.6821 34.9797 79.6671 34.9256 79.6371C34.8905 79.6171 34.8674 79.5951 34.8574 79.5711C34.8464 79.543 34.8333 79.472 34.8333 79.2969V78.4573H36.0913V79.2969C36.0913 79.518 36.0613 79.5811 36.0482 79.5971C36.0031 79.6551 35.932 79.6821 35.8277 79.6821H35.6713V79.8673H37.0326V79.6821H36.8762C36.8151 79.6821 36.7589 79.6671 36.7038 79.6371C36.6697 79.6171 36.6477 79.5951 36.6377 79.5701C36.6266 79.542 36.6136 79.471 36.6136 79.2949V77.4035C36.6136 77.2324 36.6256 77.1633 36.6357 77.1343C36.6477 77.1003 36.6697 77.0763 36.7048 77.0582C36.7589 77.0292 36.8171 77.0152 36.8772 77.0152H37.0336V76.8301H35.6723V77.0152Z" fill="#FFB8BC" stroke="#FFB8BC" stroke-width="0.274123"/>
<path d="M41.2577 79.0538C41.1665 79.2279 41.0772 79.36 40.993 79.445C40.9299 79.5061 40.8647 79.5481 40.7976 79.5681C40.7274 79.5891 40.6111 79.6001 40.4518 79.6001H39.9536C39.8563 79.6001 39.8253 79.5881 39.8152 79.5821C39.7972 79.5711 39.7842 79.5581 39.7771 79.5411C39.7751 79.5361 39.7641 79.5001 39.7641 79.3239V78.4103H40.3565C40.4708 78.4103 40.555 78.4233 40.6061 78.4483C40.6552 78.4723 40.6893 78.5034 40.7094 78.5434C40.7194 78.5634 40.7394 78.6234 40.7645 78.8016L40.7705 78.8466H40.9499V77.7208H40.7665L40.7635 77.7708C40.7555 77.9229 40.7194 78.028 40.6552 78.0841C40.6232 78.1121 40.546 78.1461 40.3545 78.1461H39.7621V77.0933H40.5149C40.6873 77.0933 40.7665 77.1094 40.7996 77.1214C40.8617 77.1474 40.9078 77.1844 40.9389 77.2324C40.962 77.2685 40.9961 77.3485 41.0321 77.5317L41.0402 77.5747H41.2236L41.1855 76.8271H38.8199V77.0123H38.9762C39.0815 77.0123 39.1557 77.0353 39.1957 77.0803C39.2088 77.0953 39.2389 77.1554 39.2389 77.3896V79.2939C39.2389 79.4631 39.2268 79.5311 39.2168 79.5591C39.2048 79.5921 39.1827 79.6172 39.1476 79.6342C39.0935 79.6632 39.0354 79.6782 38.9752 79.6782H38.8188V79.8633H41.1725L41.4622 79.0227H41.2697L41.2577 79.0538Z" fill="#FFB8BC" stroke="#FFB8BC" stroke-width="0.274123"/>
<path d="M48.3185 76.9832C48.084 76.8811 47.7401 76.8301 47.2961 76.8301H46.0481V77.0152H46.2115C46.3077 77.0152 46.3769 77.0402 46.423 77.0923C46.437 77.1083 46.4711 77.1713 46.4711 77.4015V79.2949C46.4711 79.497 46.4471 79.564 46.432 79.5861C46.3899 79.6501 46.3177 79.6811 46.2125 79.6811H46.0491V79.8663H47.4144C47.9978 79.8663 48.4388 79.7061 48.7265 79.3909C48.9831 79.1087 49.1124 78.7525 49.1124 78.3332C49.1124 78.0209 49.0393 77.7407 48.8959 77.5016C48.7506 77.2614 48.5571 77.0873 48.3185 76.9832ZM48.512 78.3552C48.512 78.7415 48.4057 79.0507 48.1952 79.2748C47.9857 79.498 47.7181 79.6101 47.4003 79.6101C47.2901 79.6101 47.1527 79.5931 46.9924 79.56V77.1513C47.1377 77.1173 47.269 77.1003 47.3833 77.1003C47.7131 77.1003 47.9867 77.2124 48.1962 77.4335C48.4057 77.6557 48.512 77.9659 48.512 78.3552Z" fill="#FFB8BC" stroke="#FFB8BC" stroke-width="0.274123"/>
<path d="M53.4127 79.0538C53.3215 79.2279 53.2323 79.36 53.1481 79.445C53.0849 79.5061 53.0198 79.5481 52.9526 79.5681C52.8824 79.5891 52.7662 79.6001 52.6068 79.6001H52.1086C52.0114 79.6001 51.9803 79.5881 51.9703 79.5821C51.9522 79.5711 51.9392 79.5581 51.9322 79.5411C51.9302 79.5361 51.9191 79.5001 51.9191 79.3239V78.4103H52.5116C52.6258 78.4103 52.71 78.4233 52.7611 78.4483C52.8103 78.4723 52.8443 78.5034 52.8644 78.5434C52.8744 78.5634 52.8945 78.6234 52.9195 78.8016L52.9255 78.8466H53.105V77.7208H52.9215L52.9185 77.7708C52.9105 77.9229 52.8744 78.028 52.8103 78.0841C52.7782 78.1121 52.701 78.1461 52.5095 78.1461H51.9171V77.0933H52.6699C52.8423 77.0933 52.9215 77.1094 52.9546 77.1214C53.0168 77.1474 53.0629 77.1844 53.0939 77.2324C53.117 77.2685 53.1511 77.3485 53.1872 77.5317L53.1952 77.5747H53.3786L53.3405 76.8271H50.9749V77.0123H51.1313C51.2365 77.0123 51.3107 77.0353 51.3508 77.0803C51.3638 77.0953 51.3939 77.1554 51.3939 77.3896V79.2939C51.3939 79.4631 51.3819 79.5311 51.3718 79.5591C51.3598 79.5921 51.3377 79.6172 51.3027 79.6342C51.2485 79.6632 51.1904 79.6782 51.1303 79.6782H50.9739V79.8633H53.3275L53.6172 79.0227H53.4247L53.4127 79.0538Z" fill="#FFB8BC" stroke="#FFB8BC" stroke-width="0.274123"/>
<path d="M57.3081 78.4109C57.2058 78.3308 57.0144 78.2158 56.7387 78.0677C56.4099 77.8915 56.2004 77.7504 56.1152 77.6474C56.0611 77.5833 56.035 77.5143 56.035 77.4372C56.035 77.3351 56.0781 77.2451 56.1653 77.163C56.2546 77.0799 56.3638 77.0399 56.5022 77.0399C56.6254 77.0399 56.7467 77.0719 56.862 77.135C56.9773 77.198 57.0665 77.2831 57.1286 77.3902C57.1918 77.4992 57.2369 77.6484 57.262 77.8355L57.268 77.8815H57.4474V76.7617H57.272L57.263 76.8037C57.2469 76.8808 57.2279 76.9048 57.2209 76.9118C57.2068 76.9248 57.1888 76.9308 57.1647 76.9308C57.1527 76.9308 57.1156 76.9258 57.0154 76.8808C56.835 76.8017 56.6605 76.7617 56.4981 76.7617C56.2355 76.7617 56.016 76.8428 55.8446 77.0039C55.6722 77.166 55.585 77.3611 55.585 77.5863C55.585 77.7154 55.615 77.8365 55.6732 77.9446C55.7313 78.0516 55.8175 78.1497 55.9288 78.2378C56.038 78.3238 56.2155 78.4349 56.4721 78.579C56.7197 78.7181 56.873 78.8092 56.9272 78.8502C57.0044 78.9093 57.0615 78.9723 57.0976 79.0384C57.1327 79.1034 57.1507 79.1685 57.1507 79.2315C57.1507 79.3466 57.1046 79.4446 57.0114 79.5297C56.9171 79.6148 56.7858 79.6588 56.6194 79.6588C56.4731 79.6588 56.3368 79.6258 56.2145 79.5607C56.0932 79.4967 56.002 79.4156 55.9438 79.3196C55.8837 79.2215 55.8356 79.0684 55.7995 78.8652L55.7915 78.8212H55.614V79.932H55.7925L55.7995 79.887C55.8115 79.8079 55.8275 79.7869 55.8315 79.7819C55.8386 79.7749 55.8506 79.7659 55.8797 79.7659C55.8977 79.7659 55.9538 79.7749 56.1313 79.8319C56.2766 79.879 56.3698 79.905 56.4169 79.913C56.4941 79.926 56.5783 79.933 56.6665 79.933C56.9502 79.933 57.1868 79.8469 57.3682 79.6778C57.5507 79.5077 57.6439 79.3015 57.6439 79.0654C57.6439 78.9413 57.6148 78.8202 57.5567 78.7061C57.4965 78.594 57.4133 78.495 57.3081 78.4109Z" fill="#FFB8BC" stroke="#FFB8BC" stroke-width="0.274123"/>
<path d="M59.5955 77.0142H59.7519C59.812 77.0142 59.8701 77.0292 59.9243 77.0592C59.9584 77.0793 59.9804 77.1013 59.9904 77.1263C60.0015 77.1543 60.0145 77.2254 60.0145 77.4015V79.2949C60.0145 79.517 59.9854 79.5791 59.9734 79.5951C59.9283 79.6531 59.8561 79.6801 59.7509 79.6801H59.5945V79.8653H60.9587V79.6801H60.7994C60.7382 79.6801 60.6831 79.6651 60.628 79.6351C60.5929 79.6151 60.5698 79.5931 60.5598 79.5691C60.5488 79.541 60.5357 79.47 60.5357 79.2939V77.4005C60.5357 77.1793 60.5658 77.1163 60.5788 77.1003C60.6239 77.0422 60.6951 77.0152 60.7994 77.0152H60.9587V76.8301H59.5945V77.0142H59.5955Z" fill="#FFB8BC" stroke="#FFB8BC" stroke-width="0.274123"/>
<path d="M64.6767 78.3488H64.7299C64.8662 78.3488 64.9273 78.3648 64.9544 78.3789C64.9915 78.3979 65.0176 78.4239 65.0346 78.4589C65.0446 78.4799 65.0627 78.543 65.0627 78.7241V79.5407C64.9815 79.5847 64.8963 79.6187 64.8091 79.6418C64.7128 79.6678 64.6126 79.6808 64.5093 79.6808C64.3349 79.6808 64.1625 79.6288 63.9971 79.5277C63.8317 79.4266 63.6954 79.2635 63.5921 79.0433C63.4879 78.8212 63.4348 78.571 63.4348 78.3008C63.4348 77.9686 63.514 77.6784 63.6703 77.4392C63.8568 77.157 64.1214 77.0199 64.4793 77.0199C64.7379 77.0199 64.9524 77.0999 65.1158 77.258C65.2301 77.3681 65.3253 77.5363 65.3985 77.7574L65.4105 77.7934H65.5819L65.4977 76.7627H65.3193L65.3163 76.8127C65.3113 76.8998 65.2962 76.9258 65.2912 76.9318C65.2792 76.9468 65.2702 76.9488 65.2631 76.9488C65.2561 76.9488 65.223 76.9458 65.1188 76.9068C64.9544 76.8458 64.8301 76.8077 64.7399 76.7897C64.6497 76.7717 64.5484 76.7627 64.4382 76.7627C64.1375 76.7627 63.8718 76.8287 63.6493 76.9578C63.3847 77.1139 63.1741 77.3391 63.0228 77.6273C62.8955 77.8705 62.8303 78.1277 62.8303 78.3929C62.8303 78.7591 62.9456 79.0874 63.1731 79.3686C63.4769 79.7428 63.9259 79.933 64.5073 79.933C64.7078 79.933 64.8943 79.911 65.0597 79.8689C65.2251 79.8259 65.3935 79.7589 65.5629 79.6678L65.5909 79.6528V78.7241C65.5909 78.54 65.611 78.4649 65.627 78.4339C65.6591 78.3769 65.7202 78.3488 65.8125 78.3488H65.9197V78.1607H64.6767V78.3488Z" fill="#FFB8BC" stroke="#FFB8BC" stroke-width="0.274123"/>
<path d="M69.7057 77.0152H69.8601C69.9594 77.0152 70.0315 77.0392 70.0746 77.0883C70.0887 77.1043 70.1217 77.1643 70.1217 77.3905V78.9326L68.4046 76.8301H67.5295V77.0152H67.5827C67.6619 77.0152 67.721 77.0212 67.7571 77.0322C67.8363 77.0572 67.8964 77.0853 67.9365 77.1133C67.9636 77.1323 68.0147 77.1783 68.1079 77.2864V79.3049C68.1079 79.505 68.0839 79.5701 68.0698 79.5901C68.0277 79.6501 67.9556 79.6801 67.8473 79.6801H67.6929V79.8653H68.8206V79.6801H68.6643C68.566 79.6801 68.4938 79.6551 68.4507 79.6071C68.4367 79.5911 68.4056 79.531 68.4056 79.3049V77.6487L70.2631 79.9143H70.4195V77.3905C70.4195 77.1903 70.4435 77.1253 70.4575 77.1053C70.4996 77.0452 70.5718 77.0152 70.6781 77.0152H70.8344V76.8301H69.7068V77.0152H69.7057Z" fill="#FFB8BC" stroke="#FFB8BC" stroke-width="0.274123"/>
<path d="M77.1777 77.0152H77.3341C77.3952 77.0152 77.4504 77.0302 77.5055 77.0602C77.5406 77.0803 77.5636 77.1023 77.5737 77.1263C77.5827 77.1493 77.5977 77.2164 77.5977 77.4035V78.1891H76.3397V77.4035C76.3397 77.2324 76.3517 77.1633 76.3628 77.1353C76.3758 77.1013 76.3979 77.0763 76.4309 77.0582C76.4851 77.0292 76.5432 77.0152 76.6033 77.0152H76.7627V76.8301H75.3985V77.0152H75.5548C75.616 77.0152 75.6721 77.0302 75.7273 77.0602C75.7613 77.0803 75.7834 77.1023 75.7934 77.1273C75.8044 77.1553 75.8175 77.2264 75.8175 77.4045V79.2959C75.8175 79.518 75.7884 79.5801 75.7764 79.5961C75.7313 79.6541 75.6591 79.6811 75.5538 79.6811H75.3975V79.8663H76.7617V79.6811H76.6023C76.5412 79.6811 76.4861 79.6661 76.4309 79.6361C76.3958 79.6161 76.3728 79.5941 76.3638 79.5701C76.3527 79.542 76.3387 79.471 76.3387 79.2959V78.4563H77.5967V79.2959C77.5967 79.517 77.5666 79.5801 77.5536 79.5961C77.5085 79.6541 77.4363 79.6811 77.3331 79.6811H77.1767V79.8663H78.538V79.6811H78.3816C78.3205 79.6811 78.2643 79.6661 78.2092 79.6361C78.1751 79.6161 78.1531 79.5941 78.143 79.5691C78.132 79.541 78.119 79.47 78.119 79.2949V77.4035C78.119 77.2324 78.131 77.1633 78.141 77.1343C78.1531 77.1003 78.1751 77.0763 78.2102 77.0582C78.2643 77.0292 78.3225 77.0152 78.3826 77.0152H78.539V76.8301H77.1777V77.0152Z" fill="#FFB8BC" stroke="#FFB8BC" stroke-width="0.274123"/>
<path d="M81.911 76.7627C81.515 76.7627 81.1702 76.8958 80.8855 77.159C80.5587 77.4622 80.3923 77.8585 80.3923 78.3368C80.3923 78.8042 80.5357 79.1914 80.8194 79.4867C81.103 79.7829 81.4589 79.933 81.8769 79.933C82.2899 79.933 82.6467 79.7789 82.9374 79.4756C83.2271 79.1724 83.3745 78.7872 83.3745 78.3298C83.3745 77.8855 83.2281 77.5092 82.9404 77.211C82.6517 76.9138 82.3049 76.7627 81.911 76.7627ZM81.8699 77.0259C82.1355 77.0259 82.337 77.1159 82.4863 77.3001C82.6758 77.5353 82.771 77.9015 82.771 78.3889C82.771 78.8362 82.6848 79.1674 82.5134 79.3706C82.343 79.5747 82.1325 79.6738 81.8709 79.6738C81.6273 79.6738 81.4368 79.5837 81.2885 79.3996C81.092 79.1524 80.9928 78.7922 80.9928 78.3278C80.9928 77.8755 81.089 77.5292 81.2775 77.2981C81.4288 77.1149 81.6223 77.0259 81.8699 77.0259Z" fill="#FFB8BC" stroke="#FFB8BC" stroke-width="0.274123"/>
<path d="M87.2658 77.0143H87.4292C87.5255 77.0143 87.5946 77.0393 87.6407 77.0913C87.6548 77.1073 87.6878 77.1704 87.6878 77.4005V78.5874C87.6878 78.8896 87.6608 79.1058 87.6086 79.2289C87.5585 79.3479 87.4613 79.447 87.321 79.5241C87.1776 79.6031 87.0132 79.6432 86.8308 79.6432C86.6895 79.6432 86.5702 79.6181 86.4749 79.5691C86.3807 79.5201 86.3075 79.458 86.2574 79.383C86.2073 79.3079 86.1722 79.1998 86.1522 79.0607C86.1321 78.9166 86.1211 78.7875 86.1211 78.6765V77.3985C86.1211 77.1984 86.1492 77.1283 86.1662 77.1043C86.2083 77.0423 86.2785 77.0133 86.3827 77.0133H86.5481V76.8281H85.1738V77.0133H85.3372C85.4324 77.0133 85.4996 77.0353 85.5387 77.0793C85.5668 77.1113 85.5998 77.1924 85.5998 77.3985V78.5444C85.5998 78.9066 85.6239 79.1488 85.672 79.2849C85.7452 79.482 85.8705 79.6412 86.0449 79.7582C86.2193 79.8743 86.4749 79.9334 86.8037 79.9334C87.1075 79.9334 87.352 79.8713 87.5315 79.7502C87.7109 79.6281 87.8342 79.479 87.8963 79.3069C87.9565 79.1398 87.9866 78.9036 87.9866 78.6044V77.4176C87.9866 77.2114 88.0116 77.1524 88.0236 77.1343C88.0758 77.0533 88.1489 77.0143 88.2452 77.0143H88.4086V76.8291H87.2638V77.0143H87.2658Z" fill="#FFB8BC" stroke="#FFB8BC" stroke-width="0.274123"/>
<path d="M92.0654 78.4109C91.9632 78.3309 91.7717 78.2158 91.496 78.0677C91.1673 77.8916 90.9578 77.7505 90.8726 77.6474C90.8184 77.5833 90.7924 77.5143 90.7924 77.4372C90.7924 77.3352 90.8355 77.2451 90.9227 77.164C91.0119 77.081 91.1212 77.0409 91.2595 77.0409C91.3828 77.0409 91.5041 77.073 91.6193 77.136C91.7346 77.1991 91.8238 77.2841 91.886 77.3902C91.9491 77.4993 91.9942 77.6494 92.0193 77.8355L92.0253 77.8816H92.2047V76.7617H92.0293L92.0203 76.8038C92.0043 76.8808 91.9852 76.9048 91.9782 76.9109C91.9642 76.9239 91.9461 76.9299 91.9221 76.9299C91.91 76.9299 91.8729 76.9249 91.7727 76.8798C91.5923 76.8008 91.4179 76.7607 91.2555 76.7607C90.9928 76.7607 90.7733 76.8418 90.6019 77.0029C90.4295 77.165 90.3423 77.3602 90.3423 77.5853C90.3423 77.7144 90.3724 77.8355 90.4315 77.9436C90.4896 78.0507 90.5758 78.1487 90.6861 78.2368C90.7954 78.3229 90.9728 78.4339 91.2294 78.578C91.478 78.7171 91.6304 78.8082 91.6845 78.8492C91.7617 78.9083 91.8188 78.9713 91.8549 79.0374C91.89 79.1024 91.908 79.1675 91.908 79.2305C91.908 79.3456 91.8619 79.4437 91.7687 79.5287C91.6745 79.6138 91.5432 79.6578 91.3768 79.6578C91.2304 79.6578 91.0941 79.6248 90.9718 79.5598C90.8505 79.4957 90.7593 79.4147 90.7011 79.3186C90.641 79.2205 90.5929 79.0674 90.5568 78.8643L90.5488 78.8202H90.3714V79.931H90.5498L90.5568 79.886C90.5688 79.8069 90.5849 79.7859 90.5889 79.7809C90.5959 79.7739 90.6079 79.7649 90.636 79.7649C90.654 79.7649 90.7102 79.7739 90.8876 79.831C91.0319 79.878 91.1262 79.904 91.1733 79.912C91.2505 79.925 91.3347 79.932 91.4229 79.932C91.7066 79.932 91.9431 79.846 92.1246 79.6768C92.307 79.5067 92.4002 79.3006 92.4002 79.0644C92.4002 78.9403 92.3711 78.8192 92.313 78.7051C92.2549 78.5941 92.1717 78.495 92.0654 78.4109Z" fill="#FFB8BC" stroke="#FFB8BC" stroke-width="0.274123"/>
<path d="M96.7845 79.0257L96.7694 79.0537C96.6782 79.2279 96.589 79.36 96.5048 79.445C96.4416 79.5061 96.3765 79.5481 96.3093 79.5681C96.2392 79.5891 96.1229 79.6001 95.9635 79.6001H95.4653C95.3681 79.6001 95.337 79.5881 95.327 79.5821C95.3089 79.5711 95.2959 79.5581 95.2889 79.5411C95.2859 79.5331 95.2758 79.496 95.2758 79.3249V78.4113H95.8683C95.9825 78.4113 96.0667 78.4243 96.1179 78.4493C96.167 78.4733 96.2011 78.5043 96.2211 78.5444C96.2311 78.5644 96.2512 78.6244 96.2762 78.8025L96.2823 78.8476H96.4607V77.7218H96.2772L96.2742 77.7718C96.2662 77.9239 96.2301 78.029 96.166 78.085C96.1339 78.1131 96.0567 78.1471 95.8653 78.1471H95.2728V77.0943H96.0256C96.1981 77.0943 96.2772 77.1103 96.3103 77.1223C96.3725 77.1484 96.4186 77.1854 96.4497 77.2334C96.4727 77.2694 96.5068 77.3505 96.5429 77.5326L96.5509 77.5757H96.7343L96.6962 76.8281H94.3306V77.0133H94.487C94.5922 77.0133 94.6664 77.0363 94.7065 77.0813C94.7165 77.0933 94.7496 77.1504 94.7496 77.3905V79.2949C94.7496 79.464 94.7376 79.5321 94.7275 79.5601C94.7155 79.5931 94.6935 79.6181 94.6584 79.6351C94.6042 79.6642 94.5461 79.6782 94.486 79.6782H94.3296V79.8633H96.6832L96.9729 79.0227H96.7845V79.0257Z" fill="#FFB8BC" stroke="#FFB8BC" stroke-width="0.274123"/>
<path d="M41.2577 79.0547C41.1665 79.2289 41.0772 79.361 40.993 79.446C40.9299 79.5071 40.8647 79.5491 40.7976 79.5691C40.7274 79.5901 40.6111 79.6011 40.4518 79.6011H39.9536C39.8563 79.6011 39.8253 79.5891 39.8152 79.5831C39.7972 79.5721 39.7842 79.5591 39.7771 79.5421C39.7751 79.5371 39.7641 79.5011 39.7641 79.3249V78.4113H40.3565C40.4708 78.4113 40.555 78.4243 40.6061 78.4493C40.6552 78.4733 40.6893 78.5043 40.7094 78.5444C40.7194 78.5644 40.7394 78.6244 40.7645 78.8026L40.7705 78.8476H40.9499V77.7218H40.7665L40.7635 77.7718C40.7555 77.9239 40.7194 78.029 40.6552 78.085C40.6232 78.1131 40.546 78.1471 40.3545 78.1471H39.7621V77.0943H40.5149C40.6873 77.0943 40.7665 77.1103 40.7996 77.1223C40.8617 77.1484 40.9078 77.1854 40.9389 77.2334C40.962 77.2694 40.9961 77.3495 41.0321 77.5326L41.0402 77.5757H41.2236L41.1855 76.8281H38.8199V77.0133H38.9762C39.0815 77.0133 39.1557 77.0363 39.1957 77.0813C39.2088 77.0963 39.2389 77.1564 39.2389 77.3905V79.2949C39.2389 79.464 39.2268 79.5321 39.2168 79.5601C39.2048 79.5931 39.1827 79.6181 39.1476 79.6351C39.0935 79.6642 39.0354 79.6792 38.9752 79.6792H38.8188V79.8643H41.1725L41.4622 79.0237H41.2697L41.2577 79.0547Z" fill="#FFB8BC" stroke="#FFB8BC" stroke-width="0.274123"/>
<path d="M48.3185 76.9832C48.084 76.8811 47.7401 76.8301 47.2961 76.8301H46.0481V77.0152H46.2115C46.3077 77.0152 46.3769 77.0402 46.423 77.0923C46.437 77.1083 46.4711 77.1713 46.4711 77.4015V79.2949C46.4711 79.497 46.4471 79.564 46.432 79.5861C46.3899 79.6501 46.3177 79.6811 46.2125 79.6811H46.0491V79.8663H47.4144C47.9978 79.8663 48.4388 79.7061 48.7265 79.3909C48.9831 79.1087 49.1124 78.7525 49.1124 78.3332C49.1124 78.0209 49.0393 77.7407 48.8959 77.5016C48.7506 77.2614 48.5571 77.0873 48.3185 76.9832ZM48.512 78.3552C48.512 78.7415 48.4057 79.0507 48.1952 79.2748C47.9857 79.498 47.7181 79.6101 47.4003 79.6101C47.2901 79.6101 47.1527 79.5931 46.9924 79.56V77.1513C47.1377 77.1173 47.269 77.1003 47.3833 77.1003C47.7131 77.1003 47.9867 77.2124 48.1962 77.4335C48.4057 77.6557 48.512 77.9659 48.512 78.3552Z" fill="#FFB8BC" stroke="#FFB8BC" stroke-width="0.274123"/>
<path d="M57.3083 78.4119C57.2061 78.3318 57.0146 78.2167 56.739 78.0686C56.4102 77.8925 56.2007 77.7514 56.1155 77.6483C56.0613 77.5843 56.0353 77.5152 56.0353 77.4382C56.0353 77.3361 56.0784 77.246 56.1656 77.164C56.2548 77.0809 56.3641 77.0409 56.5024 77.0409C56.6257 77.0409 56.747 77.0729 56.8623 77.136C56.9775 77.199 57.0667 77.2841 57.1289 77.3911C57.192 77.5002 57.2372 77.6493 57.2622 77.8365L57.2682 77.8825H57.4477V76.7627H57.2722L57.2632 76.8047C57.2472 76.8818 57.2281 76.9058 57.2211 76.9128C57.2071 76.9258 57.189 76.9318 57.165 76.9318C57.153 76.9318 57.1159 76.9268 57.0156 76.8818C56.8352 76.8027 56.6608 76.7627 56.4984 76.7627C56.2358 76.7627 56.0162 76.8438 55.8448 77.0049C55.6724 77.167 55.5852 77.3621 55.5852 77.5873C55.5852 77.7164 55.6153 77.8375 55.6734 77.9455C55.7316 78.0526 55.8178 78.1507 55.929 78.2388C56.0383 78.3248 56.2157 78.4359 56.4723 78.58C56.7199 78.7191 56.8733 78.8102 56.9274 78.8512C57.0046 78.9102 57.0617 78.9733 57.0978 79.0393C57.1329 79.1044 57.1509 79.1694 57.1509 79.2325C57.1509 79.3476 57.1048 79.4456 57.0116 79.5307C56.9174 79.6157 56.7861 79.6598 56.6197 79.6598C56.4733 79.6598 56.337 79.6268 56.2147 79.5617C56.0934 79.4977 56.0022 79.4166 55.9441 79.3205C55.8839 79.2225 55.8358 79.0694 55.7997 78.8662L55.7917 78.8222H55.6143V79.933H55.7927L55.7997 79.8879C55.8117 79.8089 55.8278 79.7879 55.8318 79.7829C55.8388 79.7759 55.8508 79.7669 55.8799 79.7669C55.898 79.7669 55.9541 79.7759 56.1315 79.8329C56.2769 79.8799 56.3701 79.906 56.4172 79.914C56.4944 79.927 56.5786 79.934 56.6668 79.934C56.9505 79.934 57.187 79.8479 57.3685 79.6788C57.5509 79.5087 57.6441 79.3025 57.6441 79.0664C57.6441 78.9423 57.6151 78.8212 57.5569 78.7071C57.4968 78.595 57.4136 78.4959 57.3083 78.4119Z" fill="#FFB8BC" stroke="#FFB8BC" stroke-width="0.274123"/>
<path d="M64.6765 78.3488H64.7296C64.8659 78.3488 64.9271 78.3648 64.9542 78.3789C64.9912 78.3979 65.0173 78.4239 65.0344 78.4589C65.0444 78.4799 65.0624 78.543 65.0624 78.7241V79.5407C64.9812 79.5847 64.896 79.6187 64.8088 79.6418C64.7126 79.6678 64.6123 79.6808 64.5091 79.6808C64.3347 79.6808 64.1623 79.6288 63.9969 79.5277C63.8315 79.4266 63.6952 79.2635 63.5919 79.0433C63.4877 78.8212 63.4345 78.571 63.4345 78.3008C63.4345 77.9686 63.5137 77.6784 63.6701 77.4392C63.8565 77.157 64.1212 77.0199 64.479 77.0199C64.7376 77.0199 64.9522 77.0999 65.1155 77.258C65.2298 77.3681 65.325 77.5363 65.3982 77.7574L65.4103 77.7934H65.5817L65.4975 76.7627H65.319L65.316 76.8127C65.311 76.8998 65.296 76.9258 65.291 76.9318C65.2789 76.9468 65.2699 76.9488 65.2629 76.9488C65.2559 76.9488 65.2228 76.9458 65.1186 76.9068C64.9542 76.8458 64.8299 76.8077 64.7396 76.7897C64.6494 76.7717 64.5482 76.7627 64.4379 76.7627C64.1372 76.7627 63.8716 76.8287 63.649 76.9578C63.3844 77.1139 63.1739 77.3391 63.0225 77.6273C62.8952 77.8705 62.8301 78.1277 62.8301 78.3929C62.8301 78.7591 62.9454 79.0874 63.1729 79.3686C63.4766 79.7428 63.9257 79.933 64.5071 79.933C64.7076 79.933 64.894 79.911 65.0594 79.8689C65.2248 79.8259 65.3932 79.7589 65.5626 79.6678L65.5907 79.6528V78.7241C65.5907 78.54 65.6107 78.4649 65.6268 78.4339C65.6588 78.3769 65.72 78.3488 65.8122 78.3488H65.9195V78.1607H64.6765V78.3488Z" fill="#FFB8BC" stroke="#FFB8BC" stroke-width="0.274123"/>
<path d="M69.7057 77.0152H69.8601C69.9594 77.0152 70.0315 77.0392 70.0746 77.0883C70.0887 77.1043 70.1217 77.1643 70.1217 77.3905V78.9326L68.4046 76.8301H67.5295V77.0152H67.5827C67.6619 77.0152 67.721 77.0212 67.7571 77.0322C67.8363 77.0572 67.8964 77.0853 67.9365 77.1133C67.9636 77.1323 68.0147 77.1783 68.1079 77.2864V79.3049C68.1079 79.505 68.0839 79.5701 68.0698 79.5901C68.0277 79.6501 67.9556 79.6801 67.8473 79.6801H67.6929V79.8653H68.8206V79.6801H68.6643C68.566 79.6801 68.4938 79.6551 68.4507 79.6071C68.4367 79.5911 68.4056 79.531 68.4056 79.3049V77.6487L70.2631 79.9143H70.4195V77.3905C70.4195 77.1903 70.4435 77.1253 70.4575 77.1053C70.4996 77.0452 70.5718 77.0152 70.6781 77.0152H70.8344V76.8301H69.7068V77.0152H69.7057Z" fill="#FFB8BC" stroke="#FFB8BC" stroke-width="0.274123"/>
<path d="M77.1777 77.0152H77.3341C77.3952 77.0152 77.4504 77.0302 77.5055 77.0602C77.5406 77.0803 77.5636 77.1023 77.5737 77.1263C77.5827 77.1493 77.5977 77.2164 77.5977 77.4035V78.1891H76.3397V77.4035C76.3397 77.2324 76.3517 77.1633 76.3628 77.1353C76.3758 77.1013 76.3979 77.0763 76.4309 77.0582C76.4851 77.0292 76.5432 77.0152 76.6033 77.0152H76.7627V76.8301H75.3985V77.0152H75.5548C75.616 77.0152 75.6721 77.0302 75.7273 77.0602C75.7613 77.0803 75.7834 77.1023 75.7934 77.1273C75.8044 77.1553 75.8175 77.2264 75.8175 77.4045V79.2959C75.8175 79.518 75.7884 79.5801 75.7764 79.5961C75.7313 79.6541 75.6591 79.6811 75.5538 79.6811H75.3975V79.8663H76.7617V79.6811H76.6023C76.5412 79.6811 76.4861 79.6661 76.4309 79.6361C76.3958 79.6161 76.3728 79.5941 76.3638 79.5701C76.3527 79.542 76.3387 79.471 76.3387 79.2959V78.4563H77.5967V79.2959C77.5967 79.517 77.5666 79.5801 77.5536 79.5961C77.5085 79.6541 77.4363 79.6811 77.3331 79.6811H77.1767V79.8663H78.538V79.6811H78.3816C78.3205 79.6811 78.2643 79.6661 78.2092 79.6361C78.1751 79.6161 78.1531 79.5941 78.143 79.5691C78.132 79.541 78.119 79.47 78.119 79.2949V77.4035C78.119 77.2324 78.131 77.1633 78.141 77.1343C78.1531 77.1003 78.1751 77.0763 78.2102 77.0582C78.2643 77.0292 78.3225 77.0152 78.3826 77.0152H78.539V76.8301H77.1777V77.0152Z" fill="#FFB8BC" stroke="#FFB8BC" stroke-width="0.274123"/>
<path d="M92.0654 78.4109C91.9632 78.3309 91.7717 78.2158 91.496 78.0677C91.1673 77.8916 90.9578 77.7505 90.8726 77.6474C90.8184 77.5833 90.7924 77.5143 90.7924 77.4372C90.7924 77.3352 90.8355 77.2451 90.9227 77.164C91.0119 77.081 91.1212 77.0409 91.2595 77.0409C91.3828 77.0409 91.5041 77.073 91.6193 77.136C91.7346 77.1991 91.8238 77.2841 91.886 77.3902C91.9491 77.4993 91.9942 77.6494 92.0193 77.8355L92.0253 77.8816H92.2047V76.7617H92.0293L92.0203 76.8038C92.0043 76.8808 91.9852 76.9048 91.9782 76.9109C91.9642 76.9239 91.9461 76.9299 91.9221 76.9299C91.91 76.9299 91.8729 76.9249 91.7727 76.8798C91.5923 76.8008 91.4179 76.7607 91.2555 76.7607C90.9928 76.7607 90.7733 76.8418 90.6019 77.0029C90.4295 77.165 90.3423 77.3602 90.3423 77.5853C90.3423 77.7144 90.3724 77.8355 90.4315 77.9436C90.4896 78.0507 90.5758 78.1487 90.6861 78.2368C90.7954 78.3229 90.9728 78.4339 91.2294 78.578C91.478 78.7171 91.6304 78.8082 91.6845 78.8492C91.7617 78.9083 91.8188 78.9713 91.8549 79.0374C91.89 79.1024 91.908 79.1675 91.908 79.2305C91.908 79.3456 91.8619 79.4437 91.7687 79.5287C91.6745 79.6138 91.5432 79.6578 91.3768 79.6578C91.2304 79.6578 91.0941 79.6248 90.9718 79.5598C90.8505 79.4957 90.7593 79.4147 90.7011 79.3186C90.641 79.2205 90.5929 79.0674 90.5568 78.8643L90.5488 78.8202H90.3714V79.931H90.5498L90.5568 79.886C90.5688 79.8069 90.5849 79.7859 90.5889 79.7809C90.5959 79.7739 90.6079 79.7649 90.636 79.7649C90.654 79.7649 90.7102 79.7739 90.8876 79.831C91.0319 79.878 91.1262 79.904 91.1733 79.912C91.2505 79.925 91.3347 79.932 91.4229 79.932C91.7066 79.932 91.9431 79.846 92.1246 79.6768C92.307 79.5067 92.4002 79.3006 92.4002 79.0644C92.4002 78.9403 92.3711 78.8192 92.313 78.7051C92.2549 78.5941 92.1717 78.495 92.0654 78.4109Z" fill="#FFB8BC" stroke="#FFB8BC" stroke-width="0.274123"/>
<path d="M96.7842 79.0267L96.7692 79.0547C96.678 79.2288 96.5887 79.3609 96.5045 79.446C96.4414 79.507 96.3762 79.5491 96.3091 79.5691C96.2389 79.5901 96.1226 79.6011 95.9633 79.6011H95.4651C95.3678 79.6011 95.3367 79.5891 95.3267 79.5831C95.3087 79.5721 95.2957 79.5591 95.2886 79.5421C95.2856 79.534 95.2756 79.497 95.2756 79.3259V78.4122H95.868C95.9823 78.4122 96.0665 78.4253 96.1176 78.4503C96.1667 78.4743 96.2008 78.5053 96.2209 78.5453C96.2309 78.5654 96.2509 78.6254 96.276 78.8035L96.282 78.8486H96.4604V77.7227H96.277L96.274 77.7728C96.266 77.9249 96.2299 78.03 96.1657 78.086C96.1337 78.114 96.0565 78.1481 95.865 78.1481H95.2726V77.0953H96.0254C96.1978 77.0953 96.277 77.1113 96.3101 77.1233C96.3722 77.1493 96.4183 77.1864 96.4494 77.2344C96.4725 77.2704 96.5065 77.3515 96.5426 77.5336L96.5507 77.5766H96.7341L96.696 76.8291H94.3303V77.0142H94.4867C94.592 77.0142 94.6661 77.0373 94.7062 77.0823C94.7163 77.0943 94.7493 77.1513 94.7493 77.3915V79.2959C94.7493 79.465 94.7373 79.533 94.7273 79.5611C94.7153 79.5941 94.6932 79.6191 94.6581 79.6361C94.604 79.6651 94.5459 79.6792 94.4857 79.6792H94.3293V79.8643H96.683L96.9727 79.0237H96.7842V79.0267Z" fill="#FFB8BC" stroke="#FFB8BC" stroke-width="0.274123"/>
<path d="M39.6079 50.6746L39.5387 50.6645C39.5227 50.6625 39.5076 50.6605 39.4926 50.6585C39.4906 50.6575 39.4876 50.6575 39.4856 50.6575C39.4816 50.6575 39.4776 50.6565 39.4746 50.6565C39.5578 50.6705 39.7041 50.6936 39.9026 50.7246C39.8043 50.7066 39.7071 50.6896 39.6079 50.6746ZM39.3914 50.6445C39.3914 50.6445 39.3934 50.6445 39.3954 50.6455C39.3984 50.6455 39.4024 50.6465 39.4074 50.6475C39.4104 50.6475 39.4134 50.6485 39.4174 50.6485C39.4084 50.6465 39.3994 50.6445 39.3914 50.6445Z" fill="#FFB8BC" stroke="#FFB8BC" stroke-width="0.274123"/>
<path d="M56.0895 50.5065C55.7868 50.0332 55.3217 49.767 54.8105 49.5999C53.2948 49.1025 51.7321 49.0045 50.1714 49.2727C48.2929 49.5979 46.4334 50.0462 44.8717 51.2131H44.8707C44.8647 51.2171 44.8617 51.2201 44.8557 51.2241C44.8226 51.2491 44.7885 51.2721 44.7564 51.2931C43.7761 51.142 43.0173 51.0019 42.4018 50.8808C41.8114 50.7657 41.2069 50.6957 40.6095 50.6557C39.995 50.6246 39.4176 50.5466 38.8152 50.5306C37.5772 50.4995 36.2942 50.5736 35.0723 50.7517C33.4424 50.9899 31.8265 51.3091 30.2277 51.7374C28.8684 52.1017 27.5102 52.473 26.1509 52.8382C24.106 53.3886 22.1052 54.0891 20.0664 54.6545C19.2735 54.8737 18.4756 55.0728 17.6666 55.236C16.1139 55.5472 14.5642 55.9054 12.9664 55.9775C11.4267 56.0475 9.89403 56.1486 8.37741 55.7533C7.19959 55.4461 6.04483 55.1199 5.13465 54.2412C4.85899 53.976 4.65951 53.6538 4.82391 53.3396C4.89508 53.2065 4.98529 53.0834 5.05245 52.9473C5.11661 52.8162 5.21685 52.7061 5.27699 52.571C5.34114 52.4189 5.36119 52.2058 5.20181 52.1087C5.08152 52.0346 4.95522 52.0657 4.83995 52.2058C4.29865 52.8642 4.12022 54.1292 4.99933 54.8537C5.20081 55.0188 5.41131 55.1869 5.62482 55.323C6.81968 56.0826 8.16289 56.4608 9.55422 56.5679C11.2062 56.699 12.8611 56.701 14.5221 56.5109C18.8274 56.0175 23.0625 55.0959 27.2576 54.0171C28.4414 53.7129 29.6042 53.3246 30.79 53.0304C32.6274 52.574 34.4718 52.1437 36.3222 51.7494C37.0289 51.5993 37.7637 51.5793 38.5065 51.4963C38.4744 51.7414 38.3641 51.8735 38.2669 52.0126C35.8391 55.4521 33.9446 59.1738 32.4791 63.1086C32.05 64.2585 31.7242 65.4613 31.9337 66.7262C31.9899 67.0685 32.0741 67.4037 32.3387 67.6499C32.439 67.743 32.5823 67.847 32.7196 67.756C32.8389 67.6759 32.7838 67.5318 32.7407 67.4107C32.474 66.6612 32.5021 65.8986 32.6765 65.1431C33.1687 63.0256 34.0689 61.0612 35.0031 59.1147C36.237 56.5449 37.8539 54.1992 39.3916 51.8075C39.6472 51.4112 40.0532 51.4022 40.4301 51.4312C41.1287 51.4863 41.8374 51.5063 42.5311 51.6093C43.0163 51.6814 43.4844 51.6864 44.0848 51.7935C43.3691 52.3889 42.7616 52.9273 42.2685 53.5778C42.1712 53.7069 42.0379 53.7989 42.2364 53.958C42.4138 54.0991 42.478 53.969 42.5682 53.86C43.0694 53.2525 43.6758 52.7512 44.2241 52.1898C44.4647 51.9436 44.7384 51.8445 45.0722 51.8995C46.1638 52.0767 47.2584 52.2488 48.349 52.4319C49.8717 52.6881 51.4093 52.7231 52.947 52.7402C53.9093 52.7502 54.8626 52.6291 55.7146 52.1177C56.4223 51.6914 56.5316 51.197 56.0895 50.5065ZM55.3006 51.7554C54.7062 52.1287 54.0567 52.3179 53.347 52.3449C53.2888 52.3459 53.2317 52.3479 53.1735 52.3499L51.5737 52.3159C50.8761 52.2998 49.9138 52.1838 49.2241 52.0787C47.918 51.8805 46.7652 51.6023 45.3949 51.3912C45.438 51.3612 45.4812 51.3311 45.5253 51.3031C46.5537 50.6046 47.7025 50.2514 48.8693 49.9351C50.4681 49.5038 52.092 49.4758 53.7219 49.6619C54.3534 49.734 54.9859 49.9191 55.454 50.4055C55.9602 50.9329 55.9081 51.3732 55.3006 51.7554Z" fill="#FFB8BC" stroke="#FFB8BC" stroke-width="0.274123"/>
<path d="M59.4019 61.7295C58.8546 61.9306 58.3564 62.2258 57.8542 62.514C56.7967 63.1225 55.7472 63.7479 54.6766 64.3364C54.404 64.4855 54.0561 64.6986 53.7524 64.4715C53.4006 64.2103 53.4477 63.78 53.4747 63.3857C53.4787 63.3236 53.5058 63.2646 53.5158 63.2025C53.599 62.7162 53.8256 62.2899 54.0651 61.8656C54.1754 61.6704 54.3238 61.4413 54.0311 61.2491C53.3364 60.7908 52.6718 60.7648 52.0433 61.3192C51.3156 61.9626 50.4335 62.3379 49.6225 62.8313C49.0943 63.1515 48.5469 63.4667 47.9215 63.6018C47.4072 63.7119 47.2348 63.5808 47.312 63.0664C47.33 62.9464 47.3872 62.8313 47.4393 62.7192C47.7009 62.1518 47.9686 61.5884 48.2282 61.021C48.3675 60.7187 48.4327 60.4215 48.1219 60.1714C47.8383 59.9432 47.6057 60.1023 47.3521 60.2444C46.6384 60.6457 46.1663 61.3102 45.5768 61.8456C45.3613 62.0407 45.1709 62.2689 44.8862 62.3839C44.7709 62.1708 44.9233 62.0717 45.0025 61.9446C45.1789 61.6514 45.3493 61.3532 45.5237 61.058C45.6801 60.7938 45.5037 60.6457 45.3222 60.5166C45.1208 60.3725 44.9774 60.4846 44.8471 60.6497C44.6637 60.8829 44.4512 61.099 44.3559 61.3882C44.2256 61.7815 43.9169 62.0137 43.564 62.1348C42.287 62.5691 41.2716 63.3877 40.2952 64.2713C39.7629 64.7527 39.3038 65.3201 38.6663 65.6783C38.3315 65.8665 38.105 65.7794 38.0799 65.4101C38.0569 65.0719 38.0398 64.7326 38.1361 64.3864C38.4167 63.3817 38.8648 62.465 39.4893 61.6304C39.6437 61.4223 39.785 61.2101 39.5264 60.9709C39.2557 60.7218 39.0382 60.8729 38.8297 61.057C38.7375 61.1391 38.6643 61.2451 38.5881 61.3432C38.126 61.9496 37.9075 62.6732 37.6268 63.3647C37.3612 64.0201 37.3221 64.6936 37.5075 65.3801C37.6238 65.8124 37.8413 66.1717 38.3025 66.2748C38.7615 66.3788 39.1254 66.1647 39.4151 65.8194C39.9694 65.162 40.5869 64.5655 41.2405 64.0061C42.0304 63.3326 42.9105 62.8023 43.8397 62.3479C43.958 62.2899 44.0983 62.1358 44.1905 62.421C44.4431 63.2055 44.7348 63.2566 45.3252 62.6922C45.9137 62.1318 46.4259 61.4913 47.0824 61.002C47.1927 60.9199 47.319 60.7698 47.4433 60.8649C47.5756 60.9639 47.4493 61.126 47.4002 61.2511C47.332 61.4233 47.2649 61.6024 47.1626 61.7555C46.9401 62.0897 46.8409 62.464 46.7787 62.8503C46.6314 63.7569 47.2438 64.3013 48.136 64.0542C48.3154 64.0051 48.4908 63.9341 48.6582 63.853C49.421 63.4877 50.1327 63.0344 50.8555 62.5981C50.9597 62.5341 51.059 62.397 51.1843 62.467C51.3396 62.5531 51.1812 62.6862 51.1792 62.7992C51.1712 63.1535 51.069 63.5568 51.4489 63.781C51.7967 63.9851 52.0243 63.6769 52.2699 63.4978C52.4884 63.3376 52.6317 63.2226 52.7039 63.6489C52.8232 64.3554 53.3865 65.0549 54.3979 64.8838C54.7317 64.8277 55.0114 64.6506 55.2931 64.4825C56.7706 63.6058 58.1249 62.517 59.7417 61.8766C59.8169 61.8466 59.8821 61.8055 59.8801 61.7035C59.7147 61.5994 59.5673 61.6684 59.4019 61.7295ZM53.1991 61.6364C52.8613 62.2088 52.5796 62.8313 51.8198 63.1915C51.9661 62.3539 52.4533 61.8636 52.9946 61.4102C53.0517 61.3632 53.1449 61.3392 53.2061 61.4173C53.2592 61.4853 53.2422 61.5644 53.1991 61.6364Z" fill="#FFB8BC" stroke="#FFB8BC" stroke-width="0.274123"/>
<path d="M102.987 63.0599C102.996 63.0547 103.019 63.0359 103.051 63.0107C103.028 63.0254 103.007 63.0421 102.987 63.0599ZM102.985 63.061V63.062C102.985 63.062 102.986 63.061 102.987 63.0599C102.986 63.0599 102.985 63.0599 102.985 63.061Z" fill="#FFB8BC" stroke="#FFB8BC" stroke-width="0.274123"/>
<path d="M95.291 61.1481C94.9983 60.8849 94.7116 60.967 94.457 61.4613C94.3548 61.6585 94.2545 61.8106 94.041 61.8466C93.6411 61.9127 93.3083 62.1168 92.9855 62.334C92.0272 62.9804 91.0258 63.5579 90.0324 64.1453C89.7497 64.3114 89.455 64.4445 89.1263 64.5045C88.6892 64.5846 88.4426 64.4115 88.4105 63.9682C88.3534 63.1746 88.4446 62.418 88.9067 61.7325C89.1503 61.3723 89.035 61.1661 88.608 61.1341C88.5348 61.1291 88.4677 61.1481 88.3875 61.1181C87.6507 60.8419 87.2658 60.927 86.8358 61.5804C86.6253 61.9007 86.4047 62.2139 86.1521 62.5011C85.9005 62.7873 85.6169 63.0465 85.2961 63.2526C85.1487 63.3467 84.9954 63.4348 84.8631 63.5509C84.856 63.5569 84.8049 63.5919 84.8049 63.5949C84.6977 63.6729 84.5814 63.757 84.7097 63.8901C84.7398 63.9211 84.7789 63.9421 84.823 63.9291C84.8621 63.9181 84.8941 63.8891 84.9242 63.8641C84.9623 63.8331 85.0044 63.809 85.0455 63.782C85.1467 63.716 85.24 63.6389 85.3282 63.5559C85.3582 63.5288 85.3933 63.5018 85.4194 63.4708C85.5497 63.3437 85.676 63.2126 85.8203 63.1005C85.8675 63.0635 85.9166 63.0285 85.9677 62.9965C85.9928 62.9804 86.0188 62.9644 86.0459 62.9504C86.0539 62.9454 86.1281 62.9134 86.1281 62.9094C86.1461 63.2496 86.1562 63.5378 86.511 63.6789C86.8358 63.808 87.0102 63.5999 87.2197 63.4488C87.3169 63.3787 87.3831 63.2336 87.5344 63.2987C87.6778 63.3617 87.6417 63.5058 87.6557 63.6279C87.754 64.4555 88.3735 64.9108 89.2004 64.7998C89.9542 64.7007 90.4885 64.1963 91.097 63.8281C92.1084 63.2146 93.0346 62.4571 94.1623 62.0418C94.3127 61.9867 94.476 61.8536 94.6214 62.0538C94.7627 62.2449 94.7968 62.437 94.6495 62.6552C94.44 62.9644 94.2495 63.2887 94.051 63.6069C93.5649 64.3885 93.0657 65.166 92.8973 66.0937C92.797 66.6501 93.192 67.3476 93.6761 67.5047C94.1092 67.6448 94.6605 67.3626 94.9452 66.8252C94.6164 66.8122 94.443 67.0844 94.1894 67.1735C93.7172 67.3356 93.5047 67.2195 93.3874 66.7321C93.2471 66.1447 93.5137 65.6684 93.7794 65.196C94.2275 64.3935 94.6956 63.5999 95.1607 62.8053C95.275 62.6082 95.3752 62.411 95.2098 62.1999C95.0404 61.9867 95.1136 61.8336 95.304 61.6885C95.5386 61.5064 95.4955 61.3303 95.291 61.1481ZM87.9444 62.0668C87.7209 62.4921 87.3199 62.7633 87.0242 63.1265C86.9691 63.1946 86.8498 63.2917 86.7385 63.2026C86.6584 63.1386 86.6764 63.0305 86.7085 62.9394C86.928 62.319 87.33 61.8236 87.8151 61.3983C87.9534 61.2772 88.1309 61.3212 88.2401 61.5274C88.1379 61.7135 88.0387 61.8887 87.9444 62.0668Z" fill="#FFB8BC" stroke="#FFB8BC" stroke-width="0.274123"/>
<path d="M84.391 60.5628C84.3178 60.5418 84.2366 60.5428 84.1584 60.5418C83.2853 60.5258 82.8583 61.1562 82.4744 61.7767C82.295 62.0669 82.1306 62.3131 81.8088 62.4331C80.9878 62.7143 80.1558 62.8004 79.2767 62.6333C79.4822 62.297 79.6546 62.0018 79.8411 61.7146C80.1488 61.2403 80.2481 60.6959 80.2831 60.1575C80.3363 59.3589 79.2196 58.7345 78.4287 59.1698C77.3351 59.7712 76.5893 60.6288 77.4834 61.8797C77.718 62.209 77.6559 62.4441 77.3632 62.6733C76.452 63.3868 75.5639 64.1314 74.6276 64.8109C73.8548 65.3683 72.6359 65.3522 72.1868 64.2424C71.9833 63.7371 71.7167 63.2547 71.437 62.7864C71.2576 62.4872 71.3688 62.3561 71.6305 62.261C72.2179 62.0479 72.7642 61.7476 73.3315 61.4965C74.9875 60.7619 76.4009 59.6792 77.7 58.4583C78.983 57.2524 80.0366 55.8564 80.631 54.1662C81.1442 52.7041 80.7823 51.5033 79.2527 50.8628C77.8914 50.2924 76.5562 50.6106 75.3323 51.2751C73.0108 52.534 71.2906 54.4084 70.0437 56.724C69.9204 56.9532 69.773 57.1704 69.6377 57.3925C69.8632 56.4148 70.1399 55.4751 70.5268 54.5715C71.2335 52.9183 71.857 51.2131 73.3385 50.0382C73.4047 49.9852 73.4408 49.9161 73.4097 49.8331C73.3656 49.714 73.2634 49.734 73.1711 49.748C73.0428 49.768 72.9536 49.8611 72.8534 49.9361C71.8089 50.7197 71.1643 51.8205 70.5208 52.9093C69.5946 54.4804 69.1305 56.2397 68.5351 57.9489C67.5968 60.6499 67.1537 63.4459 66.824 66.2689C66.8009 66.47 66.8189 66.7132 67.0796 66.7502C67.3282 66.7853 67.3161 66.5401 67.3582 66.387C67.666 65.2412 67.9487 64.0873 68.1602 62.9185C68.2283 62.5442 68.3546 62.3621 68.7776 62.5092C69.2678 62.6773 69.773 62.7714 70.2993 62.6233C70.5719 62.5462 70.7804 62.6633 70.9167 62.9245C71.1944 63.4499 71.4931 63.9652 71.7688 64.4916C72.0705 65.067 72.4815 65.4723 73.1762 65.5034C73.7646 65.5294 74.2758 65.3332 74.7469 65.001C75.4887 64.4786 76.2284 63.9562 76.9722 63.4389C77.0755 63.3678 77.1717 63.2447 77.3311 63.3738C77.8904 63.8251 78.0829 63.8261 78.6061 63.2968C78.8467 63.0536 79.0793 62.9735 79.4231 62.9735C79.8321 62.9735 80.241 63.0226 80.651 63.0016C81.0039 62.9835 81.3066 62.8314 81.6394 62.7354C81.8519 62.6743 82.2138 62.4261 82.4002 62.6143C82.5836 62.7994 82.8162 62.8274 83.0367 62.8785C83.7073 63.0336 83.8898 63.3448 83.573 63.9492C83.2192 64.6257 82.6348 65.068 81.9351 65.3552C81.6895 65.4563 81.4128 65.7025 81.1643 65.4603C80.9116 65.2141 81.1913 64.981 81.3036 64.7538C81.3818 64.5957 81.4249 64.4346 81.1572 64.4496C80.8024 64.4696 80.4726 64.9239 80.4906 65.3512C80.5097 65.7735 80.7723 65.9076 81.1512 65.9036C82.4313 65.8876 83.3375 65.2091 84.004 64.2014C84.5363 63.3958 84.2597 62.8705 83.3054 62.6963C83.0959 62.6583 82.8683 62.6163 82.8403 62.3211C82.7851 61.7286 83.7174 60.7779 84.3308 60.813C84.41 60.818 84.4992 60.832 84.5183 60.7329C84.5363 60.6449 84.4682 60.5838 84.391 60.5628ZM70.175 62.1379C70.1228 62.3081 69.9364 62.3141 69.776 62.3151C69.7289 62.3161 69.6818 62.3151 69.6347 62.3161C69.2939 62.3381 68.9941 62.193 68.6884 62.0759C68.5491 62.0228 68.4338 61.9398 68.4699 61.7637C68.503 61.6005 68.6363 61.5975 68.7636 61.5935C69.1605 61.5795 69.5455 61.6366 69.9003 61.8187C70.0306 61.8857 70.2391 61.9338 70.175 62.1379ZM70.8055 61.9148C70.3223 61.3814 69.7038 61.1582 68.9942 61.2043C68.6784 61.2243 68.6443 61.0992 68.7425 60.85C69.9334 57.8598 71.3789 55.0188 73.8117 52.8262C74.9664 51.7855 76.3006 51.0239 77.9446 51.0399C78.3114 51.0439 78.6633 51.124 78.9981 51.2491C79.6907 51.5073 79.9935 52.0176 80.0065 53.0514C79.9754 54.4234 79.3259 55.7223 78.4087 56.9302C76.5633 59.3589 74.1264 60.9511 71.3057 62.0178C71.1092 62.0919 70.9588 62.0849 70.8055 61.9148ZM78.3736 62.8334C78.2703 63.0506 78.0889 63.2277 77.8583 63.3238C77.7341 63.2757 77.6328 63.2017 77.698 63.0826C77.8022 62.8955 77.8162 62.5963 78.127 62.6183C78.2332 62.6253 78.4257 62.7244 78.3736 62.8334ZM78.3726 62.4131C78.123 62.217 78.3956 62.1179 78.4588 62.0068C78.55 61.8487 78.7084 61.7296 78.8277 61.5865C78.9139 61.4845 79.0452 61.3784 78.8888 61.2303C78.7435 61.0902 78.6091 61.0812 78.4397 61.2183C78.2302 61.3874 78.1741 61.6686 77.9676 61.8407C77.4343 61.0952 77.7381 60.0584 78.562 59.7562C79.0923 59.5621 79.6436 59.9594 79.6065 60.5128C79.5614 61.1862 79.3028 61.7737 78.8748 62.293C78.7354 62.4622 78.6001 62.5903 78.3726 62.4131Z" fill="#FFB8BC" stroke="#FFB8BC" stroke-width="0.274123"/>
<path d="M99.2298 59.6998C99.0013 59.6417 98.6986 59.6387 98.6956 59.2805C98.6946 59.0923 98.8088 58.8421 99.0033 58.9042C99.276 58.9912 99.706 58.9502 99.7741 59.2865C99.8203 59.5126 99.5386 59.6918 99.2298 59.6998Z" fill="#FFB8BC" stroke="#FFB8BC" stroke-width="0.274123"/>
<path d="M40.5753 59.708C40.3136 59.687 40.054 59.6259 40.032 59.3147C40.0189 59.1336 40.1102 58.8894 40.3447 58.9444C40.6264 59.0115 41.0484 58.9855 41.1166 59.3197C41.1597 59.5328 40.873 59.732 40.5753 59.708Z" fill="#FFB8BC" stroke="#FFB8BC" stroke-width="0.274123"/>
<path d="M116.832 64.7603C116.709 64.6322 116.567 64.5232 116.403 64.4531C116.301 64.4091 116.191 64.3771 116.068 64.3621C115.655 64.311 115.229 64.4261 114.856 64.5952C114.722 64.6553 114.591 64.7243 114.461 64.7964C114.371 64.8464 114.283 64.8974 114.194 64.9475C113.713 65.2177 113.216 65.5059 112.646 65.5109C112.482 65.5129 112.298 65.5149 112.141 65.4628C112.038 65.4288 111.905 65.3938 111.814 65.3318C111.716 65.2667 111.628 65.1846 111.555 65.0846C111.313 64.7583 111.268 64.301 111.249 63.9037C111.247 63.8627 111.247 63.8197 111.248 63.7756C111.254 63.5144 111.296 63.2172 111.171 62.9911C110.979 62.6468 110.464 62.8189 110.195 62.954C109.57 63.2743 109.054 63.7756 108.53 64.234C108.335 64.4061 108.128 64.5702 107.907 64.7073C107.775 64.7894 107.635 64.8614 107.49 64.9205C107.444 64.9395 107.397 64.9565 107.35 64.9725C107.243 65.0075 107.129 65.0355 107.022 65.0035C106.803 64.9385 106.728 64.6663 106.726 64.4391C106.72 63.6535 107.143 62.904 107.089 62.1214C107.076 61.9393 107.036 61.7562 106.945 61.5971C106.853 61.4389 106.707 61.3079 106.53 61.2598C106.353 61.2128 106.168 61.2518 105.994 61.3179C105.952 61.3339 105.911 61.3509 105.871 61.3689C105.673 61.458 105.484 61.565 105.298 61.6771C105.297 61.6771 105.296 61.6781 105.295 61.6791C104.887 61.9253 104.493 62.2015 104.052 62.3836C103.987 62.4106 103.92 62.4367 103.856 62.4647C103.803 62.4877 103.581 62.5668 103.522 62.5808C103.507 62.5848 103.498 62.5888 103.493 62.5888C103.947 61.8883 104.405 61.1688 104.441 60.3351C104.454 60.0369 104.405 59.7227 104.226 59.4815C104.013 59.1933 103.643 59.0532 103.285 59.0352C102.669 59.0052 102.048 59.3134 101.701 59.8208C101.353 60.3281 101.292 61.0176 101.544 61.579C101.636 61.7842 101.769 61.9853 101.759 62.2095C101.744 62.5137 101.477 62.7349 101.234 62.92C100.273 63.6545 99.3645 64.4571 98.5165 65.3197C98.3521 65.4869 98.1837 65.661 97.9672 65.7531C97.7507 65.8441 97.471 65.8301 97.3146 65.655C97.1723 65.4959 97.1703 65.2577 97.1913 65.0455C97.3056 63.8507 97.8649 62.7379 98.5516 61.7512C98.6468 61.6141 98.748 61.472 98.7731 61.3069C98.7992 61.1417 98.721 60.9476 98.5596 60.9006C98.3671 60.8445 98.1887 61.0156 98.0664 61.1758C97.6454 61.7252 97.3026 62.3326 97.0349 62.972C96.7142 63.7356 96.5017 64.5942 96.7322 65.3898C96.8605 65.8321 97.2054 66.2784 97.6655 66.2694C98.0033 66.2634 98.2819 66.0172 98.5265 65.7861C99.3775 64.9815 100.23 64.1769 101.081 63.3723C101.125 63.3313 101.171 63.2883 101.228 63.2703C101.337 63.2372 101.453 63.3023 101.533 63.3833C101.613 63.4644 101.676 63.5635 101.77 63.6265C101.987 63.7716 102.288 63.6766 102.493 63.5164C102.698 63.3573 102.857 63.1392 103.076 62.9991C103.094 62.9881 103.112 62.9771 103.134 62.966C103.137 62.964 103.139 62.962 103.142 62.962C103.195 62.932 103.251 62.908 103.307 62.889C103.308 62.888 103.31 62.887 103.312 62.887C103.334 62.877 103.356 62.867 103.38 62.858V62.857H103.381C103.434 62.84 103.486 62.8199 103.539 62.7999C103.61 62.7729 103.68 62.7479 103.75 62.7199C103.784 62.7059 103.819 62.6918 103.854 62.6768C103.923 62.6478 103.993 62.6178 104.062 62.5868C104.199 62.5237 104.334 62.4577 104.47 62.3896C104.604 62.3206 104.738 62.2495 104.871 62.1775C105.004 62.1054 105.136 62.0314 105.269 61.9583C105.357 61.9083 105.445 61.8592 105.533 61.8102C105.651 61.7452 105.768 61.6801 105.886 61.6171C106.013 61.548 106.154 61.479 106.297 61.5C106.426 61.52 106.536 61.6141 106.599 61.7292C106.662 61.8432 106.684 61.9763 106.689 62.1064C106.708 62.5427 106.561 62.967 106.444 63.3873C106.328 63.8087 106.242 64.263 106.382 64.6763C106.439 64.8454 106.538 65.0065 106.687 65.1046C106.92 65.2557 107.231 65.2257 107.487 65.1176C107.5 65.1116 107.514 65.1066 107.527 65.0996C107.664 65.0395 107.8 64.9635 107.931 64.8814C108.052 64.8054 108.17 64.7243 108.28 64.6443C108.54 64.4551 108.765 64.2219 108.998 63.9998C109.227 63.7816 109.477 63.5865 109.736 63.4054C109.924 63.2743 110.141 63.1392 110.372 63.1001C110.468 63.0831 110.566 63.0831 110.666 63.1071C111 63.1862 110.963 63.5965 110.956 63.8617C110.954 63.9317 110.954 64.0028 110.956 64.0748V64.0778C110.972 64.6953 111.146 65.3808 111.717 65.666C111.72 65.668 111.722 65.669 111.725 65.67C111.771 65.693 111.819 65.713 111.87 65.73C111.89 65.737 111.91 65.743 111.932 65.7491C112.7 65.9732 113.444 65.5529 114.095 65.1816C114.16 65.1446 114.227 65.1076 114.295 65.0706C114.39 65.0195 114.489 64.9705 114.588 64.9245C115.211 64.6352 115.912 64.4811 116.495 64.9585C116.817 65.2207 117.098 65.4999 117.5 65.649C117.881 65.7891 118.263 65.8381 118.666 65.8151C119.611 65.7621 120.562 65.5769 121.479 65.3508C121.712 65.2937 121.945 65.2317 122.175 65.1656C122.227 65.1506 122.278 65.1066 122.319 65.0596C118.219 66.3035 117.425 65.3758 116.832 64.7603ZM102.532 62.8219C102.437 63.0181 102.282 63.2132 102.058 63.2763C101.876 63.2603 101.863 63.1332 101.906 63.0381C101.987 62.857 102.014 62.5948 102.271 62.5838C102.371 62.5788 102.606 62.6678 102.532 62.8219ZM102.987 63.0571C102.986 63.0581 102.985 63.0591 102.985 63.0591V63.0581C102.985 63.0571 102.986 63.0571 102.987 63.0571C103.006 63.0401 103.026 63.0241 103.048 63.0101C103.017 63.0341 102.995 63.0521 102.987 63.0571ZM102.936 62.4277C102.801 62.5938 102.683 62.4677 102.573 62.3896C102.443 62.2976 102.443 62.1965 102.561 62.0824C102.718 61.9283 102.875 61.7732 103.012 61.6041C103.101 61.494 103.258 61.3639 103.094 61.2088C102.934 61.0567 102.76 61.0827 102.586 61.2158C102.382 61.3719 102.39 61.6821 102.112 61.8232C101.689 60.9716 101.905 60.133 102.62 59.7888C103.219 59.5036 103.77 59.8448 103.777 60.4983C103.784 61.2688 103.394 61.8633 102.936 62.4277Z" fill="#FFB8BC"/>
<path d="M102.987 63.0571C102.986 63.0581 102.985 63.0591 102.985 63.0591V63.0581C102.985 63.0571 102.986 63.0571 102.987 63.0571ZM102.987 63.0571C103.006 63.0401 103.026 63.0241 103.048 63.0101C103.017 63.0341 102.995 63.0521 102.987 63.0571ZM116.832 64.7603C116.709 64.6322 116.567 64.5232 116.403 64.4531C116.301 64.4091 116.191 64.3771 116.068 64.3621C115.655 64.311 115.229 64.4261 114.856 64.5952C114.722 64.6553 114.591 64.7243 114.461 64.7964C114.371 64.8464 114.283 64.8974 114.194 64.9475C113.713 65.2177 113.216 65.5059 112.646 65.5109C112.482 65.5129 112.298 65.5149 112.141 65.4628C112.038 65.4288 111.905 65.3938 111.814 65.3318C111.716 65.2667 111.628 65.1846 111.555 65.0846C111.313 64.7583 111.268 64.301 111.249 63.9037C111.247 63.8627 111.247 63.8197 111.248 63.7756C111.254 63.5144 111.296 63.2172 111.171 62.9911C110.979 62.6468 110.464 62.8189 110.195 62.954C109.57 63.2743 109.054 63.7756 108.53 64.234C108.335 64.4061 108.128 64.5702 107.907 64.7073C107.775 64.7894 107.635 64.8614 107.49 64.9205C107.444 64.9395 107.397 64.9565 107.35 64.9725C107.243 65.0075 107.129 65.0355 107.022 65.0035C106.803 64.9385 106.728 64.6663 106.726 64.4391C106.72 63.6535 107.143 62.904 107.089 62.1214C107.076 61.9393 107.036 61.7562 106.945 61.5971C106.853 61.4389 106.707 61.3079 106.53 61.2598C106.353 61.2128 106.168 61.2518 105.994 61.3179C105.952 61.3339 105.911 61.3509 105.871 61.3689C105.673 61.458 105.484 61.565 105.298 61.6771C105.297 61.6771 105.296 61.6781 105.295 61.6791C104.887 61.9253 104.493 62.2015 104.052 62.3836C103.987 62.4106 103.92 62.4367 103.856 62.4647C103.803 62.4877 103.581 62.5668 103.522 62.5808C103.507 62.5848 103.498 62.5888 103.493 62.5888C103.947 61.8883 104.405 61.1688 104.441 60.3351C104.454 60.0369 104.405 59.7227 104.226 59.4815C104.013 59.1933 103.643 59.0532 103.285 59.0352C102.669 59.0052 102.048 59.3134 101.701 59.8208C101.353 60.3281 101.292 61.0176 101.544 61.579C101.636 61.7842 101.769 61.9853 101.759 62.2095C101.744 62.5137 101.477 62.7349 101.234 62.92C100.273 63.6545 99.3645 64.4571 98.5165 65.3197C98.3521 65.4869 98.1837 65.661 97.9672 65.7531C97.7507 65.8441 97.471 65.8301 97.3146 65.655C97.1723 65.4959 97.1703 65.2577 97.1913 65.0455C97.3056 63.8507 97.8649 62.7379 98.5516 61.7512C98.6468 61.6141 98.748 61.472 98.7731 61.3069C98.7992 61.1417 98.721 60.9476 98.5596 60.9006C98.3671 60.8445 98.1887 61.0156 98.0664 61.1758C97.6454 61.7252 97.3026 62.3326 97.0349 62.972C96.7142 63.7356 96.5017 64.5942 96.7322 65.3898C96.8605 65.8321 97.2054 66.2784 97.6655 66.2694C98.0033 66.2634 98.2819 66.0172 98.5265 65.7861C99.3775 64.9815 100.23 64.1769 101.081 63.3723C101.125 63.3313 101.171 63.2883 101.228 63.2703C101.337 63.2372 101.453 63.3023 101.533 63.3833C101.613 63.4644 101.676 63.5635 101.77 63.6265C101.987 63.7716 102.288 63.6766 102.493 63.5164C102.698 63.3573 102.857 63.1392 103.076 62.9991C103.094 62.9881 103.112 62.9771 103.134 62.966C103.137 62.964 103.139 62.962 103.142 62.962C103.195 62.932 103.251 62.908 103.307 62.889C103.308 62.888 103.31 62.887 103.312 62.887C103.334 62.877 103.356 62.867 103.38 62.858V62.857H103.381C103.434 62.84 103.486 62.8199 103.539 62.7999C103.61 62.7729 103.68 62.7479 103.75 62.7199C103.784 62.7059 103.819 62.6918 103.854 62.6768C103.923 62.6478 103.993 62.6178 104.062 62.5868C104.199 62.5237 104.334 62.4577 104.47 62.3896C104.604 62.3206 104.738 62.2495 104.871 62.1775C105.004 62.1054 105.136 62.0314 105.269 61.9583C105.357 61.9083 105.445 61.8592 105.533 61.8102C105.651 61.7452 105.768 61.6801 105.886 61.6171C106.013 61.548 106.154 61.479 106.297 61.5C106.426 61.52 106.536 61.6141 106.599 61.7292C106.662 61.8432 106.684 61.9763 106.689 62.1064C106.708 62.5427 106.561 62.967 106.444 63.3873C106.328 63.8087 106.242 64.263 106.382 64.6763C106.439 64.8454 106.538 65.0065 106.687 65.1046C106.92 65.2557 107.231 65.2257 107.487 65.1176C107.5 65.1116 107.514 65.1066 107.527 65.0996C107.664 65.0395 107.8 64.9635 107.931 64.8814C108.052 64.8054 108.17 64.7243 108.28 64.6443C108.54 64.4551 108.765 64.2219 108.998 63.9998C109.227 63.7816 109.477 63.5865 109.736 63.4054C109.924 63.2743 110.141 63.1392 110.372 63.1001C110.468 63.0831 110.566 63.0831 110.666 63.1071C111 63.1862 110.963 63.5965 110.956 63.8617C110.954 63.9317 110.954 64.0028 110.956 64.0748V64.0778C110.972 64.6953 111.146 65.3808 111.717 65.666C111.72 65.668 111.722 65.669 111.725 65.67C111.771 65.693 111.819 65.713 111.87 65.73C111.89 65.737 111.91 65.743 111.932 65.7491C112.7 65.9732 113.444 65.5529 114.095 65.1816C114.16 65.1446 114.227 65.1076 114.295 65.0706C114.39 65.0195 114.489 64.9705 114.588 64.9245C115.211 64.6352 115.912 64.4811 116.495 64.9585C116.817 65.2207 117.098 65.4999 117.5 65.649C117.881 65.7891 118.263 65.8381 118.666 65.8151C119.611 65.7621 120.562 65.5769 121.479 65.3508C121.712 65.2937 121.945 65.2317 122.175 65.1656C122.227 65.1506 122.278 65.1066 122.319 65.0596C118.219 66.3035 117.425 65.3758 116.832 64.7603ZM102.532 62.8219C102.437 63.0181 102.282 63.2132 102.058 63.2763C101.876 63.2603 101.863 63.1332 101.906 63.0381C101.987 62.857 102.014 62.5948 102.271 62.5838C102.371 62.5788 102.606 62.6678 102.532 62.8219ZM102.936 62.4277C102.801 62.5938 102.683 62.4677 102.573 62.3896C102.443 62.2976 102.443 62.1965 102.561 62.0824C102.718 61.9283 102.875 61.7732 103.012 61.6041C103.101 61.494 103.258 61.3639 103.094 61.2088C102.934 61.0567 102.76 61.0827 102.586 61.2158C102.382 61.3719 102.39 61.6821 102.112 61.8232C101.689 60.9716 101.905 60.133 102.62 59.7888C103.219 59.5036 103.77 59.8448 103.777 60.4983C103.784 61.2688 103.394 61.8633 102.936 62.4277Z" stroke="#FFB8BC" stroke-width="0.274123"/>
<path d="M102.989 63.0566C102.987 63.0584 102.985 63.0602 102.985 63.0602V63.0584C102.985 63.0566 102.987 63.0566 102.989 63.0566Z" fill="#FFB8BC" stroke="#FFB8BC" stroke-width="0.274123"/>
<path d="M103.051 63.0107C103.019 63.0359 102.996 63.0547 102.987 63.0599C103.007 63.0421 103.028 63.0254 103.051 63.0107Z" fill="#FFB8BC" stroke="#FFB8BC" stroke-width="0.274123"/>
<path d="M107.225 60.3197V60.3273C107.225 60.3252 107.224 60.3208 107.224 60.3164C107.224 60.3175 107.225 60.3186 107.225 60.3197Z" fill="#FFB8BC" stroke="#FFB8BC" stroke-width="0.274123"/>
<path d="M103.382 62.8574L103.38 62.8598V62.8574H103.382Z" fill="#FFB8BC" stroke="#FFB8BC" stroke-width="0.274123"/>
<path d="M115.991 56.3768V56.7429H115.05V59.8252H114.6V56.7429H113.655V56.3768H115.991ZM120.043 56.4015V59.8252H119.592V57.2723L118.454 59.8252H118.138L116.995 57.2673V59.8252H116.545V56.4015H117.03L118.296 59.2315L119.563 56.4015H120.043Z" fill="#FFB8BC"/>
</svg>
