<svg width="148" height="147" viewBox="0 0 148 147" fill="none" xmlns="http://www.w3.org/2000/svg">
    <g filter="url(#filter0_d_705_1630)">
        <path d="M19 70.4104C19 40.3603 43.8266 16 73.8766 16V16C103.927 16 128.753 40.3603 128.753 70.4104V70.4104C128.753 100.46 103.927 124.821 73.8766 124.821V124.821C43.8266 124.821 19 100.46 19 70.4104V70.4104Z" fill="#4C2A76" />
        <g opacity="0.75">
            <path d="M47.6151 44.5102C49.3212 42.8049 51.2062 41.2751 53.2293 39.9539C55.2524 38.6317 57.4128 37.5164 59.6608 36.6212C64.1595 34.8291 69.0059 33.9188 73.8523 33.8839C78.6997 33.849 83.5579 34.6859 88.0936 36.3894C92.6275 38.0884 96.8345 40.6825 100.291 44.0582C102.019 45.7437 103.575 47.603 104.926 49.5982C106.277 51.5935 107.422 53.7258 108.337 55.9502C110.173 60.3991 111.088 65.2124 111.054 70.0157C111.021 74.82 110.05 79.6162 108.204 84.0589C106.361 88.5024 103.643 92.5888 100.239 96.0109C98.5388 97.7243 96.6729 99.2747 94.6696 100.629C92.6673 101.983 90.5286 103.141 88.2968 104.078C83.8324 105.955 78.9905 106.943 74.1405 106.977C69.2904 107.017 64.434 106.1 59.9408 104.29C55.4448 102.486 51.3209 99.7831 47.8725 96.4021C44.4206 93.0256 41.6361 88.9768 39.7629 84.5414C37.8834 80.1095 36.9035 75.3088 36.8818 70.5027C36.8574 65.6975 37.794 60.8888 39.6311 56.4426C40.5478 54.219 41.6885 52.0868 43.0288 50.0852C44.3691 48.0845 45.9099 46.2155 47.6151 44.5102ZM47.6206 44.5156C45.9172 46.2226 44.3791 48.0926 43.0424 50.0942C41.7048 52.0957 40.5686 54.2289 39.6546 56.4515C37.8247 60.8968 36.8954 65.702 36.927 70.5018C36.9559 75.3016 37.9421 80.0934 39.8253 84.5145C40.7664 86.7246 41.926 88.8435 43.2844 90.828C44.6428 92.8135 46.2008 94.6646 47.9213 96.3511C51.3624 99.7258 55.4782 102.424 59.9651 104.226C64.4503 106.032 69.2976 106.948 74.1387 106.909C78.9797 106.875 83.8135 105.895 88.2733 104.026C90.5033 103.092 92.6402 101.94 94.6416 100.59C96.6431 99.2397 98.509 97.6929 100.209 95.9832C103.612 92.5673 106.331 88.4872 108.176 84.0481C109.099 81.8291 109.806 79.5214 110.285 77.1689C110.763 74.8155 111.011 72.4165 111.025 70.0157C111.054 65.2159 110.136 60.4081 108.298 55.9663C107.38 53.7455 106.236 51.6168 104.885 49.626C103.534 47.6343 101.978 45.7795 100.251 44.0984C98.5253 42.4155 96.6096 40.926 94.5621 39.6477C92.5137 38.3695 90.3326 37.3024 88.071 36.4476C83.5452 34.7405 78.6943 33.8982 73.8523 33.9268C69.0104 33.9546 64.1676 34.8587 59.6698 36.6445C57.4218 37.5361 55.2614 38.6488 53.2374 39.9673C51.2152 41.2859 49.3285 42.8121 47.6206 44.5156Z" fill="#FFB8BC" />
        </g>
        <g opacity="0.75">
            <path d="M91.2109 38.4392C95.5507 40.5661 99.4506 43.5613 102.637 47.1741C104.23 48.9805 105.645 50.9418 106.852 53.0221C108.059 55.1025 109.057 57.301 109.828 59.5764C111.373 64.1256 112.001 68.9782 111.672 73.7673C111.348 78.5572 110.058 83.2809 107.9 87.5777C105.745 91.8771 102.72 95.7423 99.0686 98.8942C97.2442 100.471 95.2644 101.872 93.1645 103.066C91.0646 104.261 88.8455 105.248 86.5506 106.01C81.9597 107.534 77.0672 108.156 72.2371 107.831C67.4069 107.509 62.6408 106.239 58.3047 104.102C53.9658 101.971 50.0623 98.9774 46.8777 95.361C45.2836 93.5546 43.8684 91.5933 42.6608 89.5121C41.4533 87.4318 40.4562 85.2315 39.6858 82.956C38.1422 78.405 37.5163 73.5524 37.846 68.7625C38.1729 63.9725 39.4564 59.247 41.614 54.9485C42.6915 52.7984 43.9849 50.7547 45.4661 48.8561C46.2067 47.9064 46.9942 46.9933 47.8252 46.1196L48.4565 45.4724L49.1086 44.8458L49.4346 44.5325C49.4897 44.4806 49.543 44.4278 49.5981 44.3768L49.7679 44.2273L50.4462 43.6284C50.56 43.53 50.6693 43.4261 50.7876 43.3321L51.1389 43.0466L51.8407 42.4755C52.08 42.292 52.323 42.1129 52.5641 41.9312C52.8071 41.7522 53.0437 41.5642 53.2957 41.3977C53.7942 41.0576 54.2847 40.7049 54.8013 40.3916C55.0569 40.2313 55.3107 40.0675 55.5681 39.91L56.3529 39.457C58.4483 38.253 60.6755 37.28 62.9696 36.5147L63.3995 36.3688L63.8339 36.239L64.7037 35.9812C64.9954 35.8997 65.2889 35.8299 65.5825 35.7538C65.876 35.6804 66.1677 35.5989 66.464 35.5407L67.3509 35.3501L67.5731 35.3026L67.7962 35.2632L68.2432 35.1845L68.6903 35.1066C68.8393 35.0806 68.9883 35.0529 69.1383 35.035L70.0378 34.9123C70.3368 34.8667 70.6384 34.8407 70.9401 34.8112C71.2418 34.7825 71.5425 34.7503 71.8433 34.7244L72.7492 34.6707L73.2026 34.6438L73.656 34.634L74.5636 34.6143C74.8662 34.6143 75.1688 34.6223 75.4713 34.6259C76.0765 34.625 76.6807 34.6724 77.2849 34.702C77.4357 34.7082 77.5866 34.7217 77.7374 34.7369L78.189 34.779L78.6406 34.821L78.8664 34.8416C78.9413 34.8497 79.0163 34.8604 79.0913 34.8703C79.691 34.9517 80.2925 35.0162 80.8877 35.1281C81.1857 35.18 81.4847 35.2265 81.7818 35.2829L82.6696 35.4691L83.114 35.5622L83.5538 35.6723L84.4344 35.8916C86.7691 36.5218 89.0406 37.3794 91.2109 38.4392C91.2095 38.4427 91.2054 38.4441 91.2021 38.4425C89.0318 37.3876 86.7624 36.5338 84.4299 35.9051L83.5502 35.6866L83.1104 35.5774L82.6669 35.4843L81.7791 35.2999C81.482 35.2435 81.183 35.1979 80.885 35.1469C80.2907 35.0368 79.6883 34.9723 79.0894 34.8918C79.0145 34.8828 78.9395 34.8712 78.8646 34.864L78.6388 34.8434L78.1872 34.8022L77.7356 34.7611C77.5848 34.7467 77.4348 34.7333 77.2831 34.727C76.6789 34.6984 76.0756 34.6519 75.4704 34.6536C75.1679 34.6501 74.8662 34.642 74.5636 34.6429L73.6569 34.6635L73.2035 34.6742L72.751 34.702L71.846 34.7575C71.5452 34.7834 71.2445 34.8157 70.9437 34.8452C70.643 34.8747 70.3413 34.9016 70.0433 34.9473L69.1446 35.0708C68.9947 35.0887 68.8456 35.1164 68.6975 35.1433L68.2514 35.2221L67.8052 35.3008L67.5821 35.3402L67.3608 35.3877L66.4748 35.5792C66.1786 35.6383 65.8868 35.7198 65.5942 35.7932C65.3016 35.8693 65.0081 35.94 64.7172 36.0214L63.8493 36.2801L63.4149 36.4099L62.9858 36.5558C60.6963 37.3239 58.4736 38.2978 56.3836 39.5027L55.6006 39.9556C55.3432 40.1132 55.0903 40.277 54.8356 40.4372C54.3199 40.7505 53.8313 41.1032 53.3336 41.4443C53.0825 41.6108 52.8468 41.7987 52.6048 41.9778C52.3645 42.1595 52.1225 42.3385 51.8831 42.522L51.1832 43.0931L50.8336 43.3787C50.7153 43.4727 50.6069 43.5765 50.4931 43.675C46.847 46.8214 43.8304 50.6831 41.68 54.9754C39.5259 59.2658 38.2434 63.9815 37.9164 68.7625C37.5868 73.5435 38.2109 78.388 39.7508 82.9309C41.2853 87.4756 43.7392 91.7115 46.922 95.3207C50.0976 98.9353 53.9929 101.93 58.3246 104.063C62.6544 106.2 67.4141 107.473 72.2407 107.799C77.0672 108.129 81.9588 107.511 86.5433 105.979C88.8365 105.216 91.0529 104.227 93.1492 103.032C95.2463 101.838 97.2225 100.437 99.0433 98.8593C102.688 95.7074 105.704 91.844 107.853 87.5499C108.928 85.4033 109.787 83.1511 110.417 80.8381C111.046 78.5241 111.446 76.1502 111.612 73.7592C111.944 68.9782 111.321 64.1328 109.783 59.5881C109.015 57.3153 108.02 55.1186 106.817 53.04C105.614 50.9606 104.202 49.0011 102.612 47.1947C101.022 45.3883 99.2546 43.7358 97.3453 42.2642C96.3888 41.5311 95.3963 40.8427 94.3739 40.2027C93.3495 39.5667 92.2945 38.9799 91.2134 38.4431C91.2119 38.4424 91.2109 38.4409 91.2109 38.4392Z" fill="#FFB8BC" />
        </g>
        <g opacity="0.75">
            <path d="M37.6786 65.9499C37.677 65.9494 37.676 65.9478 37.6762 65.9462L37.86 64.6878L38.0976 63.4355L38.3794 62.1921C38.4868 61.7804 38.6024 61.3713 38.7126 60.9613L39.0974 59.7448L39.5228 58.5426C39.6799 58.1478 39.8317 57.7504 39.9843 57.3529L40.4828 56.1785C41.172 54.6227 41.974 53.1144 42.8898 51.6768L43.5961 50.6107L44.3439 49.5732L45.1279 48.5634L45.9502 47.5886C45.9515 47.5871 45.9537 47.5869 45.9552 47.5882C45.9567 47.5894 45.9569 47.5916 45.9557 47.5931L45.1559 48.5858L44.3855 49.6045L43.6521 50.6491L42.9521 51.7162C42.0444 53.1547 41.2271 54.6496 40.5181 56.1946L40.0096 57.3637C39.8542 57.7593 39.6971 58.1541 39.5481 58.5515L39.1362 59.7573L38.7695 60.9774L38.439 62.2073L38.1445 63.4462L37.8953 64.695L37.6827 65.9472C37.6824 65.9492 37.6805 65.9504 37.6786 65.9499Z" fill="#FFB8BC" />
        </g>
        <g opacity="0.75">
            <path d="M45.1212 93.0902C45.1201 93.0908 45.1186 93.0906 45.1178 93.0896C44.3642 92.1457 43.6566 91.167 43.0049 90.1508C42.3537 89.1348 41.7468 88.0892 41.2085 87.0097C40.6657 85.9319 40.1744 84.8291 39.7454 83.703C39.3227 82.5751 38.9226 81.4365 38.6101 80.2719C38.2913 79.11 38.0248 77.9337 37.8198 76.7468C37.6211 75.5589 37.4829 74.3603 37.4016 73.159C37.3854 72.8582 37.361 72.5584 37.3519 72.2567L37.3267 71.3535L37.3303 70.4503L37.3321 70.2247L37.3402 69.9991L37.3565 69.548C37.4052 68.3456 37.5126 67.1459 37.6786 65.9542C37.6788 65.9531 37.6798 65.9524 37.6809 65.9526C37.6818 65.9529 37.6824 65.9538 37.6823 65.9547C37.5226 67.1474 37.4224 68.3472 37.3799 69.5498L37.3664 70.0009L37.3601 70.2265V70.4521L37.3619 71.3544L37.389 72.2567C37.3971 72.5575 37.4224 72.8573 37.4378 73.1581C37.5181 74.3585 37.6554 75.5553 37.8532 76.7423C38.0582 77.9284 38.3165 79.1055 38.6317 80.2674C39.2649 82.5912 40.1391 84.8506 41.2347 86.998C41.7802 88.0731 42.3808 89.1205 43.0284 90.1382C43.1901 90.3934 43.3581 90.644 43.5242 90.8946C43.6958 91.1426 43.8629 91.3941 44.0409 91.6376C44.388 92.13 44.7532 92.61 45.1219 93.0863C45.1229 93.0876 45.1226 93.0894 45.1212 93.0902Z" fill="#FFB8BC" />
        </g>
        <g opacity="0.85">
            <path d="M81.67 106.602C81.6694 106.601 81.6699 106.599 81.6709 106.599C85.207 105.939 88.6428 104.759 91.8276 103.101C95.0149 101.446 97.9439 99.3105 100.502 96.8049C101.783 95.5535 102.964 94.2027 104.046 92.7777C104.586 92.0642 105.095 91.3293 105.581 90.5792C105.7 90.3903 105.825 90.2041 105.94 90.0134L106.288 89.4405C106.512 89.0538 106.738 88.668 106.949 88.2741C108.663 85.1375 109.883 81.7386 110.576 78.2404C111.967 71.2421 111.195 63.8392 108.386 57.2733C107.688 55.6307 106.857 54.0445 105.922 52.5227C105.454 51.7618 104.954 51.0197 104.43 50.2956C103.906 49.5714 103.353 48.8669 102.792 48.1696C101.667 46.7785 100.493 45.4242 99.24 44.1441C98.6141 43.5041 97.9665 42.8837 97.2882 42.2974C96.6124 41.7107 95.9014 41.1616 95.1399 40.6875C95.1387 40.6867 95.1383 40.6851 95.1391 40.6839C95.1398 40.6827 95.1415 40.6823 95.1427 40.683C95.9059 41.1554 96.6187 41.7027 97.2972 42.2875C97.9773 42.8721 98.6267 43.4906 99.2553 44.1298C100.513 45.4071 101.691 46.7588 102.821 48.1472C103.384 48.8427 103.939 49.5454 104.466 50.2696C104.993 50.9929 105.495 51.7341 105.966 52.495C106.908 54.0158 107.736 55.6074 108.436 57.2518C109.841 60.5397 110.737 64.0379 111.107 67.5881C111.478 71.1392 111.31 74.7448 110.609 78.2449C110.263 79.9967 109.774 81.719 109.168 83.3983C108.554 85.0758 107.822 86.7103 106.968 88.2813C106.758 88.6761 106.533 89.0619 106.309 89.4495L105.961 90.0233C105.847 90.2148 105.722 90.401 105.604 90.5908C105.119 91.3427 104.61 92.0794 104.071 92.7938C102.992 94.2215 101.811 95.5759 100.531 96.8309C95.4315 101.877 88.7574 105.328 81.6715 106.602C81.6709 106.602 81.6703 106.602 81.67 106.602Z" fill="#FFB8BC" />
        </g>
        <g opacity="0.85">
            <path d="M91.9116 38.6395C91.9109 38.641 91.909 38.6416 91.9075 38.6408C91.4135 38.3826 90.9167 38.128 90.4119 37.8921C89.9079 37.6504 89.3976 37.423 88.8837 37.2028C87.8541 36.7696 86.8046 36.3802 85.7398 36.04C84.674 35.7035 83.5965 35.4027 82.5046 35.1574C81.4127 34.9139 80.3099 34.7188 79.2008 34.5738C76.9808 34.2882 74.7328 34.2238 72.4992 34.3616C71.382 34.4279 70.2693 34.5505 69.1629 34.7107C68.0565 34.8737 66.9547 35.0706 65.8663 35.3284C61.5085 36.3319 57.3277 38.1123 53.6292 40.6089C53.3998 40.7673 53.1677 40.9213 52.941 41.0842L52.2645 41.5765L51.6016 42.0868C51.3803 42.256 51.169 42.4377 50.9513 42.6122C50.0933 43.323 49.2696 44.0758 48.4838 44.8653C47.6963 45.6531 46.9575 46.4891 46.2539 47.3512C45.5519 48.2141 44.8923 49.1101 44.276 50.0347C44.275 50.0363 44.2729 50.0368 44.2712 50.0358C44.2694 50.0348 44.2688 50.0324 44.27 50.0307C45.4923 48.1727 46.8879 46.4238 48.454 44.8376C49.238 44.0445 50.0599 43.2881 50.917 42.5728C51.1338 42.3974 51.3451 42.2139 51.5664 42.0438L52.2284 41.5309L52.904 41.0359C53.1307 40.873 53.3628 40.7172 53.5922 40.5579C55.4419 39.3029 57.4135 38.2242 59.4728 37.347C60.5015 36.9065 61.5492 36.5082 62.614 36.1627C63.6797 35.818 64.7599 35.52 65.851 35.2657C66.9411 35.0079 68.0448 34.811 69.1539 34.6481C69.7075 34.563 70.2648 34.5031 70.8211 34.4386C71.3793 34.3858 71.9375 34.3392 72.4965 34.3106C73.6156 34.2515 74.7364 34.2372 75.8563 34.2784C76.9754 34.3196 78.0926 34.4126 79.2044 34.546C80.3153 34.6848 81.4208 34.8728 82.5154 35.1109C83.6092 35.3526 84.693 35.639 85.7587 35.9836C86.8236 36.3301 87.8713 36.7257 88.9 37.1652C89.9269 37.6062 90.9313 38.0998 91.9104 38.6355C91.9118 38.6362 91.9124 38.638 91.9116 38.6395Z" fill="#FFB8BC" />
        </g>
        <path d="M81.242 106.828C81.242 106.83 81.241 106.831 81.2398 106.831C76.543 107.696 71.6658 107.673 66.9899 106.664C64.6524 106.165 62.3656 105.433 60.1736 104.487C57.9843 103.537 55.8745 102.397 53.9128 101.04C51.9484 99.6892 50.1131 98.1504 48.454 96.4425C46.794 94.7354 45.3028 92.8672 44.0122 90.8719C42.7189 88.8775 41.6332 86.7507 40.7716 84.5396C39.9095 82.3298 39.2703 80.035 38.872 77.7C38.8716 77.6979 38.8731 77.696 38.8751 77.6957C38.8771 77.6955 38.8788 77.6968 38.8792 77.6987C39.301 80.0294 39.9492 82.3189 40.8195 84.5217C41.691 86.7256 42.7848 88.8417 44.07 90.8352C46.6441 94.8222 50.021 98.2927 53.9345 101.009C54.0537 101.098 54.181 101.175 54.3057 101.257L54.6796 101.502L55.4283 101.99L56.1987 102.444L56.5835 102.67C56.7126 102.744 56.8382 102.826 56.971 102.892L57.7612 103.31L58.1568 103.52L58.3546 103.623L58.5569 103.719L59.3671 104.099L59.7726 104.288C59.9072 104.353 60.0472 104.404 60.1844 104.463C62.3783 105.4 64.6651 106.122 67.0016 106.612C69.3381 107.1 71.7216 107.369 74.1096 107.402L74.5576 107.41L74.7816 107.414C74.8565 107.415 74.9306 107.411 75.0055 107.409L75.9006 107.383L76.3486 107.37L76.5725 107.363L76.7956 107.346L77.6889 107.277L78.135 107.242L78.3581 107.225L78.5812 107.203C78.8783 107.172 79.1746 107.137 79.4708 107.098C80.0623 107.021 80.6519 106.931 81.2388 106.826C81.2405 106.826 81.242 106.827 81.242 106.828Z" fill="#FFB8BC" />
        <path d="M36.635 66.5553C36.693 66.5657 36.7713 66.573 36.7832 66.6308C36.7949 66.6881 36.7265 66.7251 36.6776 66.7573L36.6068 66.8039C36.5112 66.8669 36.4116 66.9349 36.368 67.0407C36.299 67.2086 36.3236 67.4348 36.3456 67.7848L36.3511 67.9835C36.3592 68.1133 36.2526 68.1348 36.2075 68.0131L36.1334 67.8287C36.0163 67.5064 35.9322 67.2841 35.7987 67.1525C35.709 67.0642 35.5775 67.0433 35.4522 67.0322L35.3507 67.0231C35.29 67.0177 35.2071 67.0127 35.1977 66.9525C35.189 66.8969 35.255 66.8631 35.304 66.8354L35.3958 66.7834C35.5053 66.7214 35.6167 66.6503 35.6707 66.5367C35.7442 66.382 35.7453 66.1811 35.7234 65.8441L35.7188 65.6794C35.7107 65.5496 35.8173 65.5281 35.8624 65.6499L35.9202 65.811C36.0424 66.147 36.1231 66.3279 36.2645 66.4363C36.3487 66.5009 36.456 66.5231 36.5604 66.5419L36.635 66.5553Z" fill="#FFB8BC" />
        <path d="M35.5267 65.247C35.5592 65.401 35.4951 65.5442 35.3849 65.5666C35.2747 65.589 35.1591 65.4834 35.1266 65.3294C35.0941 65.1754 35.1582 65.0322 35.2684 65.0098C35.3786 64.9874 35.4951 65.0931 35.5267 65.247Z" fill="#FFB8BC" />
        <path d="M35.1678 66.327C35.1931 66.4461 35.1389 66.558 35.0477 66.5768C34.9565 66.5956 34.8617 66.5141 34.8373 66.395C34.812 66.276 34.8662 66.1641 34.9574 66.1453C35.0486 66.1265 35.1425 66.2071 35.1678 66.327Z" fill="#FFB8BC" />
        <path d="M37.2873 66.4305C37.3357 66.4305 37.3749 66.3916 37.3749 66.3437C37.3749 66.2957 37.3357 66.2568 37.2873 66.2568C37.2389 66.2568 37.1997 66.2957 37.1997 66.3437C37.1997 66.3916 37.2389 66.4305 37.2873 66.4305Z" fill="#FFB8BC" />
        <path d="M36.8275 67.5498C36.8814 67.5498 36.9251 67.5065 36.9251 67.4531C36.9251 67.3997 36.8814 67.3564 36.8275 67.3564C36.7737 67.3564 36.73 67.3997 36.73 67.4531C36.73 67.5065 36.7737 67.5498 36.8275 67.5498Z" fill="#FFB8BC" />
        <path d="M35.5252 67.8826C35.5646 67.8826 35.5966 67.851 35.5966 67.8119C35.5966 67.7729 35.5646 67.7412 35.5252 67.7412C35.4858 67.7412 35.4539 67.7729 35.4539 67.8119C35.4539 67.851 35.4858 67.8826 35.5252 67.8826Z" fill="#FFB8BC" />
        <path d="M35.2697 68.3983C35.33 68.3983 35.379 68.3498 35.379 68.29C35.379 68.2301 35.33 68.1816 35.2697 68.1816C35.2093 68.1816 35.1604 68.2301 35.1604 68.29C35.1604 68.3498 35.2093 68.3983 35.2697 68.3983Z" fill="#FFB8BC" />
        <path d="M37.5123 66.9847C37.5376 67.1065 37.4816 67.222 37.3867 67.2408C37.2919 67.2604 37.1944 67.1772 37.1682 67.0546C37.1429 66.9328 37.1989 66.8173 37.2937 66.7985C37.3886 66.7797 37.4861 66.863 37.5123 66.9847Z" fill="#FFB8BC" />
        <path d="M37.0867 67.9305C37.1261 67.9305 37.1581 67.8988 37.1581 67.8598C37.1581 67.8207 37.1261 67.7891 37.0867 67.7891C37.0473 67.7891 37.0154 67.8207 37.0154 67.8598C37.0154 67.8988 37.0473 67.9305 37.0867 67.9305Z" fill="#FFB8BC" />
        <path d="M37.6722 66.4573C37.725 66.4573 37.7679 66.4149 37.7679 66.3625C37.7679 66.3101 37.725 66.2676 37.6722 66.2676C37.6193 66.2676 37.5764 66.3101 37.5764 66.3625C37.5764 66.4149 37.6193 66.4573 37.6722 66.4573Z" fill="#FFB8BC" />
        <path d="M36.4812 65.6654C36.5341 65.6654 36.577 65.6229 36.577 65.5705C36.577 65.5181 36.5341 65.4756 36.4812 65.4756C36.4284 65.4756 36.3855 65.5181 36.3855 65.5705C36.3855 65.6229 36.4284 65.6654 36.4812 65.6654Z" fill="#FFB8BC" />
        <path d="M35.0007 70.245C35.0665 70.2623 35.1586 70.2865 35.1475 70.3536C35.1458 70.3636 35.1415 70.3731 35.1339 70.381L34.9731 70.5296C34.8692 70.6397 34.8828 70.7579 34.9027 71.0399L34.9072 71.1616C34.9126 71.2413 34.8503 71.2538 34.8232 71.1786L34.7509 70.9862C34.6961 70.794 34.6583 70.717 34.5915 70.6675C34.5299 70.6219 34.4524 70.605 34.3777 70.5875L34.3292 70.5762C34.2835 70.5655 34.2305 70.5508 34.2271 70.504C34.2236 70.4572 34.2667 70.4223 34.3041 70.3941L34.3293 70.3751C34.3809 70.3362 34.4326 70.2957 34.4699 70.2429C34.5204 70.1714 34.5311 70.0956 34.5161 69.8833L34.5215 69.7419C34.5161 69.6622 34.5784 69.6497 34.6055 69.7249L34.6407 69.8243C34.7111 70.0223 34.7442 70.1108 34.8135 70.1678C34.8661 70.2111 34.9348 70.2277 35.0007 70.245Z" fill="#FFB8BC" />
        <path d="M34.2233 70C34.2587 70 34.2874 69.9639 34.2874 69.9194C34.2874 69.8749 34.2587 69.8389 34.2233 69.8389C34.1879 69.8389 34.1592 69.8749 34.1592 69.9194C34.1592 69.9639 34.1879 70 34.2233 70Z" fill="#FFB8BC" />
        <path d="M34.2239 71.0775C34.2633 71.0775 34.2953 71.0494 34.2953 71.0148C34.2953 70.9802 34.2633 70.9521 34.2239 70.9521C34.1845 70.9521 34.1526 70.9802 34.1526 71.0148C34.1526 71.0494 34.1845 71.0775 34.2239 71.0775Z" fill="#FFB8BC" />
        <path d="M35.5994 71.1367C35.6323 71.1367 35.659 71.1103 35.659 71.0776C35.659 71.045 35.6323 71.0186 35.5994 71.0186C35.5665 71.0186 35.5398 71.045 35.5398 71.0776C35.5398 71.1103 35.5665 71.1367 35.5994 71.1367Z" fill="#FFB8BC" />
        <path d="M35.3284 70.9103C35.3579 70.9103 35.3817 70.8867 35.3817 70.8575C35.3817 70.8283 35.3579 70.8047 35.3284 70.8047C35.299 70.8047 35.2751 70.8283 35.2751 70.8575C35.2751 70.8867 35.299 70.9103 35.3284 70.9103Z" fill="#FFB8BC" />
        <path d="M84.0625 33.5875C84.1165 33.5475 84.1905 33.4924 84.2374 33.5405C84.2451 33.5483 84.2504 33.5581 84.252 33.5695L84.2691 33.787C84.2908 33.9365 84.3929 33.9992 84.6286 34.1594L84.728 34.2319C84.7948 34.2776 84.7659 34.334 84.6891 34.308L84.4913 34.2445C84.3086 34.1685 84.2241 34.1493 84.1443 34.1687C84.067 34.1875 84.0027 34.2395 83.9399 34.2884L83.9055 34.3152C83.868 34.3444 83.8229 34.3769 83.7838 34.35C83.7453 34.3235 83.7449 34.2684 83.746 34.2217L83.7466 34.1941C83.7481 34.1275 83.749 34.0597 83.7294 33.996C83.7041 33.914 83.6496 33.8587 83.4744 33.7396L83.366 33.6474C83.2991 33.6017 83.328 33.5453 83.4048 33.5713L83.5051 33.6062C83.7047 33.6744 83.7953 33.7044 83.8829 33.6865C83.9505 33.6726 84.0071 33.6286 84.0625 33.5875Z" fill="#FFB8BC" />
        <path d="M86.1157 34.6749C86.1392 34.6641 86.1654 34.6758 86.16 34.7017L86.1275 34.8235C86.1103 34.9076 86.1474 34.9452 86.2313 35.0419L86.2657 35.0849C86.2892 35.1117 86.2648 35.143 86.2323 35.126L86.1492 35.0849C86.1151 35.063 86.0888 35.0484 86.0663 35.0399C85.9795 35.0069 85.8932 35.0805 85.815 35.1305C85.7915 35.1413 85.7716 35.1153 85.7771 35.0902L85.7787 35.0855C85.8041 35.0148 85.8454 34.938 85.8175 34.8682C85.8095 34.8482 85.7952 34.8265 85.772 34.7982C85.7582 34.7814 85.7449 34.7642 85.7332 34.7459C85.7215 34.7278 85.7008 34.7094 85.7075 34.6889C85.712 34.675 85.729 34.6671 85.7491 34.6776L85.7915 34.6999C85.9053 34.759 85.9351 34.7734 86.0137 34.7375L86.1157 34.6749Z" fill="#FFB8BC" />
        <path d="M83.356 33.9398C83.3912 33.9675 83.4012 34.0123 83.3795 34.04C83.3569 34.0678 83.3108 34.0678 83.2756 34.04C83.2404 34.0123 83.2305 33.9675 83.2521 33.9398C83.2747 33.912 83.3208 33.912 83.356 33.9398Z" fill="#FFB8BC" />
        <path d="M84.2266 34.6159C84.2537 34.6374 84.2564 34.6795 84.232 34.7099C84.2076 34.7403 84.1652 34.7475 84.1381 34.726C84.111 34.7045 84.1083 34.6624 84.1327 34.632C84.158 34.6016 84.1995 34.5944 84.2266 34.6159Z" fill="#FFB8BC" />
        <path d="M82.7132 34.2204C82.7403 34.2419 82.743 34.2839 82.7186 34.3144C82.6942 34.3448 82.6518 34.352 82.6247 34.3305C82.5976 34.309 82.5949 34.2669 82.6193 34.2365C82.6436 34.2061 82.6852 34.1989 82.7132 34.2204Z" fill="#FFB8BC" />
        <path d="M85.0879 33.7031C85.1209 33.7031 85.1475 33.6767 85.1475 33.644C85.1475 33.6114 85.1209 33.585 85.0879 33.585C85.055 33.585 85.0283 33.6114 85.0283 33.644C85.0283 33.6767 85.055 33.7031 85.0879 33.7031Z" fill="#FFB8BC" />
        <path d="M86.5415 34.7305C86.5745 34.7305 86.6012 34.704 86.6012 34.6714C86.6012 34.6388 86.5745 34.6123 86.5415 34.6123C86.5086 34.6123 86.4819 34.6388 86.4819 34.6714C86.4819 34.704 86.5086 34.7305 86.5415 34.7305Z" fill="#FFB8BC" />
        <path d="M86.7764 35.0215C86.8093 35.0215 86.836 34.995 86.836 34.9624C86.836 34.9298 86.8093 34.9033 86.7764 34.9033C86.7435 34.9033 86.7168 34.9298 86.7168 34.9624C86.7168 34.995 86.7435 35.0215 86.7764 35.0215Z" fill="#FFB8BC" />
        <path d="M85.2078 34.96C85.2407 34.96 85.2674 34.9335 85.2674 34.9009C85.2674 34.8682 85.2407 34.8418 85.2078 34.8418C85.1749 34.8418 85.1482 34.8682 85.1482 34.9009C85.1482 34.9335 85.1749 34.96 85.2078 34.96Z" fill="#FFB8BC" />
        <path d="M84.7464 33.7677C84.7758 33.7677 84.7997 33.7441 84.7997 33.7149C84.7997 33.6858 84.7758 33.6621 84.7464 33.6621C84.717 33.6621 84.6931 33.6858 84.6931 33.7149C84.6931 33.7441 84.717 33.7677 84.7464 33.7677Z" fill="#FFB8BC" />
        <path d="M45.4853 94.7423C45.5007 94.7718 45.4998 94.8059 45.4817 94.8273L45.3192 95.0243C45.2559 95.1013 45.2324 95.2123 45.2559 95.3268L45.3155 95.6204C45.3219 95.6527 45.3101 95.6822 45.2857 95.6947C45.2613 95.7073 45.2306 95.7001 45.2081 95.6759L45.0012 95.4584C44.9199 95.3734 44.8161 95.3277 44.7158 95.3349L44.4602 95.3519C44.4322 95.3537 44.4033 95.3358 44.388 95.3062C44.3726 95.2767 44.3735 95.2427 44.3916 95.2212L44.5542 95.0243C44.6183 94.9473 44.6409 94.8363 44.6174 94.7217L44.5578 94.429C44.5515 94.3968 44.5623 94.3672 44.5867 94.3547C44.6111 94.3422 44.6418 94.3493 44.6644 94.3735L44.8712 94.591C44.9525 94.677 45.0563 94.7217 45.1566 94.7146L45.4122 94.6966C45.4411 94.694 45.4691 94.7128 45.4853 94.7423Z" fill="#FFB8BC" />
        <path d="M42.3773 92.9436C42.3881 92.9641 42.3872 92.9874 42.3745 93.0026L42.2626 93.1387C42.2183 93.1924 42.2029 93.2685 42.2192 93.3482L42.2607 93.5514C42.2653 93.5737 42.2571 93.5934 42.24 93.6024C42.2228 93.6113 42.202 93.606 42.1858 93.589L42.0431 93.4386C41.9871 93.3795 41.9148 93.3482 41.8453 93.3526L41.6683 93.3643C41.6484 93.3652 41.6294 93.3535 41.6186 93.3321C41.6077 93.3106 41.6087 93.2882 41.6213 93.273L41.7333 93.1369C41.7775 93.0832 41.7929 93.0071 41.7766 92.9274L41.7351 92.7242C41.7306 92.7019 41.7387 92.6813 41.755 92.6732C41.7721 92.6643 41.7929 92.6696 41.8092 92.6867L41.9519 92.837C42.0079 92.8961 42.0801 92.9274 42.1497 92.923L42.3267 92.9104C42.3465 92.9104 42.3664 92.923 42.3773 92.9436Z" fill="#FFB8BC" />
        <path d="M42.1925 91.2825C42.2006 91.2977 42.1997 91.3156 42.1907 91.3263L42.1067 91.4284C42.0742 91.4687 42.0615 91.5251 42.0742 91.585L42.1049 91.7372C42.1085 91.7542 42.1022 91.7694 42.0895 91.7757C42.0769 91.782 42.0615 91.7784 42.0489 91.7659L41.9414 91.6531C41.899 91.6092 41.8457 91.5859 41.7933 91.5886L41.6605 91.5976C41.6461 91.5985 41.6316 91.5895 41.6235 91.5734C41.6154 91.5582 41.6163 91.5403 41.6253 91.5295L41.7093 91.4275C41.7427 91.3872 41.7545 91.3308 41.7418 91.2708L41.7111 91.1187C41.7075 91.1017 41.7138 91.0864 41.7265 91.0802C41.7391 91.0739 41.7554 91.0775 41.7671 91.09L41.8746 91.2028C41.917 91.2476 41.9703 91.2708 42.0227 91.2673L42.1555 91.2583C42.1699 91.2574 42.1844 91.2673 42.1925 91.2825Z" fill="#FFB8BC" />
        <path d="M43.6682 93.999C43.5562 93.999 43.5562 94.1709 43.6682 94.1709C43.7802 94.1709 43.7802 93.999 43.6682 93.999Z" fill="#FFB8BC" />
        <path d="M41.4627 92.1982C41.3669 92.1982 41.3669 92.3459 41.4627 92.3459C41.5584 92.3459 41.5584 92.1982 41.4627 92.1982Z" fill="#FFB8BC" />
        <path d="M41.3169 92.6689C41.2212 92.6689 41.2212 92.8166 41.3169 92.8166C41.4127 92.8175 41.4136 92.6689 41.3169 92.6689Z" fill="#FFB8BC" />
        <path d="M42.8448 93C42.7698 93 42.7698 93.1155 42.8448 93.1155C42.9198 93.1155 42.9198 93 42.8448 93Z" fill="#FFB8BC" />
        <path d="M41.3344 91.2764C41.2648 91.2764 41.2648 91.3829 41.3344 91.3829C41.4039 91.3829 41.4039 91.2764 41.3344 91.2764Z" fill="#FFB8BC" />
        <path d="M41.1724 93.3574C41.1245 93.3574 41.1245 93.4317 41.1724 93.4317C41.2202 93.4317 41.2202 93.3574 41.1724 93.3574Z" fill="#FFB8BC" />
        <path d="M42.3097 93.9004C42.2646 93.9004 42.2646 93.9702 42.3097 93.9702C42.3549 93.9702 42.3549 93.9004 42.3097 93.9004Z" fill="#FFB8BC" />
        <path d="M42.9897 93.5703C42.9445 93.5703 42.9445 93.6401 42.9897 93.6401C43.0348 93.6401 43.0348 93.5703 42.9897 93.5703Z" fill="#FFB8BC" />
        <path d="M43.1352 93.3125C43.09 93.3125 43.09 93.3823 43.1352 93.3823C43.1803 93.3823 43.1803 93.3125 43.1352 93.3125Z" fill="#FFB8BC" />
        <path d="M41.9987 90.8994C41.9571 90.8994 41.9571 90.9639 41.9987 90.9639C42.0402 90.9639 42.0402 90.8994 41.9987 90.8994Z" fill="#FFB8BC" />
        <path d="M41.3026 90.8633C41.2611 90.8633 41.2611 90.9277 41.3026 90.9277C41.3442 90.9277 41.3442 90.8633 41.3026 90.8633Z" fill="#FFB8BC" />
        <path d="M41.797 93.7559C41.7194 93.7559 41.7194 93.8767 41.797 93.8767C41.8747 93.8776 41.8747 93.7559 41.797 93.7559Z" fill="#FFB8BC" />
        <path d="M42.6146 93.334C42.5324 93.334 42.5324 93.4629 42.6146 93.4629C42.6968 93.4629 42.6968 93.334 42.6146 93.334Z" fill="#FFB8BC" />
        <path d="M46.8101 95.8477C46.6981 95.8477 46.6981 96.0195 46.8101 96.0195C46.9221 96.0195 46.9221 95.8477 46.8101 95.8477Z" fill="#FFB8BC" />
        <path d="M47.4993 95.4707C47.3873 95.4707 47.3873 95.6426 47.4993 95.6426C47.6113 95.6426 47.6113 95.4707 47.4993 95.4707Z" fill="#FFB8BC" />
        <path d="M44.3801 95.8477C44.2681 95.8477 44.2681 96.0195 44.3801 96.0195C44.4921 96.0195 44.4921 95.8477 44.3801 95.8477Z" fill="#FFB8BC" />
        <path d="M43.6703 94.7588C43.4662 94.7588 43.4653 95.0193 43.6703 95.0193C43.8744 95.0193 43.8753 94.7588 43.6703 94.7588Z" fill="#FFB8BC" />
        <path d="M46.8077 95.0195C46.6289 95.0195 46.6289 95.2478 46.8077 95.2478C46.9865 95.2478 46.9865 95.0195 46.8077 95.0195Z" fill="#FFB8BC" />
        <path d="M45.9109 95.3301C45.6869 95.3301 45.6869 95.6747 45.9109 95.6747C46.134 95.6747 46.1349 95.3301 45.9109 95.3301Z" fill="#FFB8BC" />
        <path d="M109.896 88.7959C109.876 88.8237 109.846 88.8371 109.818 88.8317L109.567 88.7798C109.469 88.7592 109.359 88.7897 109.267 88.864L109.032 89.0519C109.006 89.0725 108.975 89.0761 108.953 89.06C108.93 89.0439 108.923 89.0144 108.934 88.983L109.034 88.701C109.073 88.5901 109.066 88.4782 109.013 88.3931L108.88 88.1756C108.865 88.1514 108.868 88.1183 108.888 88.0906C108.908 88.0628 108.938 88.0494 108.966 88.0547L109.217 88.1067C109.315 88.1273 109.424 88.0968 109.516 88.0225L109.751 87.8345C109.777 87.814 109.809 87.8104 109.831 87.8265C109.853 87.8426 109.861 87.873 109.85 87.9035L109.75 88.1854C109.712 88.2964 109.719 88.4083 109.771 88.4934L109.905 88.71C109.918 88.7351 109.916 88.7682 109.896 88.7959Z" fill="#FFB8BC" />
        <path d="M110.877 85.1826C110.865 85.1996 110.844 85.2068 110.824 85.2005L110.639 85.1468C110.566 85.1262 110.489 85.1379 110.428 85.1808L110.273 85.2891C110.256 85.3008 110.233 85.3008 110.216 85.2882C110.199 85.2757 110.191 85.2551 110.196 85.2354L110.247 85.0537C110.266 84.9821 110.252 84.9069 110.208 84.846L110.095 84.6912C110.082 84.6742 110.082 84.6518 110.094 84.6348C110.106 84.6178 110.127 84.6106 110.147 84.6169L110.332 84.6706C110.405 84.6912 110.481 84.6795 110.543 84.6366L110.698 84.5283C110.715 84.5166 110.738 84.5166 110.755 84.5283C110.772 84.5408 110.78 84.5614 110.775 84.5811L110.724 84.7628C110.704 84.8344 110.718 84.9096 110.762 84.9705L110.875 85.1253C110.89 85.1432 110.89 85.1656 110.877 85.1826Z" fill="#FFB8BC" />
        <path d="M112.001 84.1482C111.991 84.1634 111.972 84.1705 111.953 84.1652L111.784 84.1168C111.718 84.098 111.647 84.1088 111.591 84.1473L111.45 84.2457C111.434 84.2565 111.413 84.2565 111.397 84.2457C111.381 84.235 111.375 84.2153 111.379 84.1974L111.425 84.0318C111.443 83.9665 111.431 83.8975 111.39 83.842L111.287 83.7006C111.275 83.6854 111.275 83.6648 111.286 83.6496C111.297 83.6344 111.317 83.6272 111.335 83.6326L111.504 83.6809C111.571 83.6997 111.64 83.689 111.696 83.6505L111.838 83.552C111.853 83.5413 111.874 83.5413 111.89 83.552C111.907 83.5627 111.913 83.5824 111.908 83.6003L111.862 83.7659C111.844 83.8313 111.857 83.9002 111.898 83.9557L112.001 84.0971C112.012 84.1124 112.012 84.133 112.001 84.1482Z" fill="#FFB8BC" />
        <path d="M110.928 82.8331C110.92 82.8447 110.906 82.8492 110.892 82.8456L110.767 82.8098C110.718 82.7955 110.665 82.8036 110.625 82.8331L110.52 82.9065C110.508 82.9146 110.493 82.9146 110.481 82.9065C110.469 82.8984 110.464 82.8841 110.468 82.8707L110.502 82.7481C110.515 82.6997 110.506 82.6487 110.476 82.6075L110.4 82.5028C110.392 82.4911 110.391 82.4759 110.399 82.4652C110.407 82.4536 110.422 82.4491 110.435 82.4527L110.561 82.4885C110.609 82.5028 110.662 82.4947 110.703 82.4652L110.808 82.3918C110.82 82.3837 110.835 82.3837 110.847 82.3918C110.859 82.3998 110.864 82.4142 110.86 82.4276L110.826 82.5502C110.813 82.5986 110.823 82.6496 110.852 82.6908L110.929 82.7955C110.936 82.8071 110.937 82.8215 110.928 82.8331Z" fill="#FFB8BC" />
        <path d="M109.721 86.8585C109.67 86.76 109.516 86.8397 109.567 86.9382C109.618 87.0366 109.773 86.957 109.721 86.8585Z" fill="#FFB8BC" />
        <path d="M107.815 89.3097C107.763 89.2112 107.609 89.2909 107.66 89.3893C107.712 89.4878 107.866 89.4081 107.815 89.3097Z" fill="#FFB8BC" />
        <path d="M110.741 85.5841C110.689 85.4856 110.535 85.5653 110.587 85.6638C110.638 85.7622 110.792 85.6826 110.741 85.5841Z" fill="#FFB8BC" />
        <path d="M108.388 88.337C108.337 88.2386 108.182 88.3182 108.234 88.4167C108.286 88.5152 108.44 88.4355 108.388 88.337Z" fill="#FFB8BC" />
        <path d="M109.847 85.256C109.796 85.1575 109.641 85.2372 109.693 85.3356C109.744 85.4341 109.899 85.3544 109.847 85.256Z" fill="#FFB8BC" />
        <path d="M111.064 84.0489C111.012 83.9505 110.858 84.0301 110.91 84.1286C110.961 84.2262 111.115 84.1474 111.064 84.0489Z" fill="#FFB8BC" />
        <path d="M110.42 84.2091C110.394 84.1599 110.317 84.1993 110.344 84.2485C110.369 84.2978 110.446 84.2584 110.42 84.2091Z" fill="#FFB8BC" />
        <path d="M111.272 83.2873C111.245 83.238 111.169 83.2774 111.195 83.3267C111.22 83.3759 111.297 83.3365 111.272 83.2873Z" fill="#FFB8BC" />
        <path d="M110.702 83.5226C110.676 83.4734 110.599 83.5128 110.625 83.562C110.651 83.6112 110.728 83.5719 110.702 83.5226Z" fill="#FFB8BC" />
        <path d="M109.987 85.7834C109.961 85.7341 109.884 85.7735 109.91 85.8228C109.937 85.8729 110.013 85.8326 109.987 85.7834Z" fill="#FFB8BC" />
        <path d="M111.315 84.6662C111.289 84.6169 111.212 84.6563 111.238 84.7056C111.264 84.7557 111.341 84.7163 111.315 84.6662Z" fill="#FFB8BC" />
        <path d="M108.302 88.8526C108.251 88.7542 108.097 88.8338 108.148 88.9323C108.2 89.0299 108.355 88.9511 108.302 88.8526Z" fill="#FFB8BC" />
        <path d="M107.815 90.0167C107.763 89.9182 107.609 89.9979 107.66 90.0964C107.712 90.1948 107.866 90.1152 107.815 90.0167Z" fill="#FFB8BC" />
        <path d="M109.04 87.2101C108.946 87.0302 108.713 87.1501 108.806 87.33C108.901 87.51 109.135 87.39 109.04 87.2101Z" fill="#FFB8BC" />
        <path d="M109.544 89.4128C109.463 89.258 109.221 89.3824 109.302 89.5373C109.384 89.6921 109.626 89.5677 109.544 89.4128Z" fill="#FFB8BC" />
        <path d="M108.61 89.4155C108.507 89.2185 108.198 89.377 108.302 89.5739C108.405 89.7708 108.714 89.6124 108.61 89.4155Z" fill="#FFB8BC" />
        <path d="M105.314 45.7157C105.374 45.7106 105.454 45.6967 105.48 45.7508C105.505 45.8028 105.449 45.8551 105.411 45.8984L105.357 45.9595C105.28 46.0476 105.199 46.1419 105.186 46.2584C105.166 46.4374 105.249 46.6486 105.363 46.9773L105.421 47.167C105.464 47.2897 105.366 47.3389 105.291 47.2324L105.17 47.074C104.973 46.7943 104.833 46.6028 104.67 46.5103C104.559 46.4472 104.425 46.4614 104.299 46.4837L104.202 46.5009C104.142 46.5117 104.059 46.5289 104.035 46.4723C104.012 46.4211 104.067 46.372 104.107 46.3328L104.179 46.2609C104.271 46.1708 104.362 46.071 104.383 45.9446C104.411 45.7773 104.358 45.5837 104.249 45.2657L104.201 45.1082C104.159 44.9856 104.256 44.9363 104.331 45.0429L104.43 45.1834C104.636 45.4752 104.762 45.6281 104.926 45.6963C105.026 45.7375 105.137 45.731 105.244 45.7218L105.314 45.7157Z" fill="#FFB8BC" />
        <path d="M103.787 44.5289C103.859 44.6686 103.836 44.8234 103.735 44.8745C103.634 44.9255 103.494 44.853 103.422 44.7124C103.35 44.5719 103.373 44.4179 103.474 44.3669C103.576 44.3159 103.716 44.3884 103.787 44.5289Z" fill="#FFB8BC" />
        <path d="M103.84 45.8822C103.896 45.9905 103.874 46.1132 103.791 46.1553C103.708 46.1973 103.595 46.1436 103.539 46.0344C103.483 45.9261 103.505 45.8035 103.588 45.7614C103.671 45.7193 103.784 45.773 103.84 45.8822Z" fill="#FFB8BC" />
        <path d="M105.89 45.4354C105.939 45.4354 105.978 45.3965 105.978 45.3485C105.978 45.3006 105.939 45.2617 105.89 45.2617C105.842 45.2617 105.803 45.3006 105.803 45.3485C105.803 45.3965 105.842 45.4354 105.89 45.4354Z" fill="#FFB8BC" />
        <path d="M105.743 46.6328C105.796 46.6328 105.84 46.5895 105.84 46.5361C105.84 46.4827 105.796 46.4395 105.743 46.4395C105.689 46.4395 105.645 46.4827 105.645 46.5361C105.645 46.5895 105.689 46.6328 105.743 46.6328Z" fill="#FFB8BC" />
        <path d="M104.58 47.2928C104.62 47.2928 104.651 47.2611 104.651 47.2221C104.651 47.183 104.62 47.1514 104.58 47.1514C104.541 47.1514 104.509 47.183 104.509 47.2221C104.509 47.2611 104.541 47.2928 104.58 47.2928Z" fill="#FFB8BC" />
        <path d="M104.459 47.8582C104.519 47.8582 104.568 47.8097 104.568 47.7499C104.568 47.6901 104.519 47.6416 104.459 47.6416C104.399 47.6416 104.35 47.6901 104.35 47.7499C104.35 47.8097 104.399 47.8582 104.459 47.8582Z" fill="#FFB8BC" />
        <path d="M106.276 45.9063C106.332 46.0173 106.309 46.1427 106.222 46.1865C106.136 46.2304 106.019 46.1758 105.962 46.0639C105.905 45.9529 105.929 45.8276 106.015 45.7837C106.102 45.7398 106.219 45.7944 106.276 45.9063Z" fill="#FFB8BC" />
        <path d="M106.099 46.9295C106.139 46.9295 106.171 46.8979 106.171 46.8588C106.171 46.8197 106.139 46.7881 106.099 46.7881C106.06 46.7881 106.028 46.8197 106.028 46.8588C106.028 46.8979 106.06 46.9295 106.099 46.9295Z" fill="#FFB8BC" />
        <path d="M106.265 45.3597C106.318 45.3597 106.361 45.3172 106.361 45.2648C106.361 45.2124 106.318 45.1699 106.265 45.1699C106.212 45.1699 106.169 45.2124 106.169 45.2648C106.169 45.3172 106.212 45.3597 106.265 45.3597Z" fill="#FFB8BC" />
        <path d="M111.947 54.5256C111.952 54.5533 111.943 54.5802 111.924 54.5936L111.751 54.7162C111.683 54.7646 111.64 54.8487 111.632 54.9481L111.613 55.2005C111.611 55.2283 111.595 55.2489 111.572 55.2542C111.55 55.2587 111.527 55.2462 111.514 55.2211L111.4 54.9964C111.354 54.9087 111.282 54.8478 111.201 54.8299L110.994 54.7852C110.971 54.7798 110.953 54.7592 110.947 54.7315C110.942 54.7037 110.951 54.6769 110.97 54.6634L111.143 54.5408C111.211 54.4925 111.254 54.4083 111.262 54.3089L111.281 54.0565C111.283 54.0288 111.299 54.0073 111.321 54.0028C111.344 53.9983 111.366 54.0118 111.379 54.0359L111.494 54.2606C111.539 54.3492 111.611 54.4092 111.692 54.4271L111.899 54.4719C111.923 54.4763 111.942 54.4978 111.947 54.5256Z" fill="#FFB8BC" />
        <path d="M111.142 53.3506C111.032 53.3184 110.983 53.4921 111.093 53.5243C111.203 53.5565 111.252 53.3829 111.142 53.3506Z" fill="#FFB8BC" />
        <path d="M110.822 53.8536C110.711 53.8214 110.663 53.995 110.773 54.0272C110.883 54.0595 110.932 53.8858 110.822 53.8536Z" fill="#FFB8BC" />
        <path d="M112.463 54.754C112.378 54.729 112.34 54.865 112.425 54.8901C112.512 54.9143 112.55 54.7782 112.463 54.754Z" fill="#FFB8BC" />
        <path d="M110.234 54.151C110.185 54.1376 110.164 54.2119 110.212 54.2253C110.261 54.2388 110.281 54.1645 110.234 54.151Z" fill="#FFB8BC" />
        <path d="M111.394 55.5026C111.349 55.4892 111.328 55.5617 111.374 55.5742C111.419 55.5877 111.439 55.5161 111.394 55.5026Z" fill="#FFB8BC" />
        <path d="M112.444 55.4726C112.392 55.4574 112.369 55.5397 112.421 55.5549C112.473 55.5692 112.496 55.4869 112.444 55.4726Z" fill="#FFB8BC" />
        <path d="M112.692 55.2157C112.641 55.2005 112.617 55.2829 112.67 55.2981C112.721 55.3133 112.744 55.231 112.692 55.2157Z" fill="#FFB8BC" />
        <path d="M82.3183 32.906C82.2948 32.9731 82.4014 33.0089 82.4249 32.9418C82.4484 32.8747 82.3418 32.8389 82.3183 32.906Z" fill="#FFB8BC" />
        <path d="M112.09 55.0618C111.996 55.0349 111.954 55.1853 112.048 55.2131C112.143 55.2399 112.185 55.0895 112.09 55.0618Z" fill="#FFB8BC" />
        <path d="M48.9239 43.7346C48.9076 43.7669 48.8778 43.7857 48.8471 43.7839L48.5743 43.7678C48.4678 43.7615 48.3567 43.8098 48.2718 43.902L48.0532 44.1357C48.0288 44.1616 47.9963 44.1697 47.9701 44.1563C47.9439 44.1428 47.9313 44.1124 47.9385 44.0775L47.9999 43.7651C48.0234 43.6424 47.9981 43.5252 47.9304 43.4437L47.7561 43.2351C47.7371 43.2119 47.7353 43.177 47.7515 43.1447C47.7678 43.1125 47.7985 43.0937 47.8283 43.0946L48.1011 43.1107C48.2076 43.117 48.3187 43.0687 48.4045 42.9765L48.6231 42.7428C48.6475 42.7169 48.68 42.7088 48.7062 42.7222C48.7324 42.7357 48.745 42.7661 48.7378 42.801L48.6764 43.1134C48.652 43.236 48.6773 43.3533 48.7459 43.4348L48.9202 43.6433C48.9383 43.6666 48.9401 43.7024 48.9239 43.7346Z" fill="#FFB8BC" />
        <path d="M47.3779 43.4184C47.2623 43.2599 47.0139 43.4372 47.1296 43.5956C47.2443 43.755 47.4926 43.5777 47.3779 43.4184Z" fill="#FFB8BC" />
        <path d="M47.9651 42.4198C47.882 42.3052 47.7022 42.4332 47.7853 42.5478C47.8684 42.6624 48.0482 42.5344 47.9651 42.4198Z" fill="#FFB8BC" />
        <path d="M49.0249 42.0897C48.9418 41.9752 48.7621 42.1032 48.8452 42.2177C48.9282 42.3314 49.108 42.2043 49.0249 42.0897Z" fill="#FFB8BC" />
        <path d="M49.3472 42.9567C49.2975 42.8877 49.1891 42.9647 49.2388 43.0336C49.2885 43.1026 49.3969 43.0256 49.3472 42.9567Z" fill="#FFB8BC" />
        <path d="M47.1423 42.7002C47.0971 42.6375 47.0113 42.6984 47.0574 42.761C47.1025 42.8237 47.1883 42.7628 47.1423 42.7002Z" fill="#FFB8BC" />
        <path d="M48.5657 41.7672C48.516 41.6983 48.4076 41.7753 48.4573 41.8442C48.5079 41.9131 48.6154 41.8361 48.5657 41.7672Z" fill="#FFB8BC" />
        <path d="M47.4417 44.274C47.392 44.2051 47.2836 44.2821 47.3333 44.351C47.3839 44.4199 47.4922 44.343 47.4417 44.274Z" fill="#FFB8BC" />
        <path d="M45.1626 46.6748C44.7002 46.6748 44.6993 47.3864 45.1626 47.3864C45.625 47.3873 45.6259 46.6748 45.1626 46.6748Z" fill="#FFB8BC" />
        <path d="M51.6826 43.7354C51.2202 43.7354 51.2193 44.447 51.6826 44.447C52.1441 44.447 52.145 43.7354 51.6826 43.7354Z" fill="#FFB8BC" />
        <path d="M38.8755 75.1875C38.4131 75.1875 38.4121 75.8991 38.8755 75.8991C39.3379 75.8991 39.3379 75.1875 38.8755 75.1875Z" fill="#FFB8BC" />
        <path d="M37.2539 72.332C36.7915 72.332 36.7906 73.0437 37.2539 73.0437C37.7163 73.0446 37.7172 72.332 37.2539 72.332Z" fill="#FFB8BC" />
        <path d="M47.9285 93.0859C47.466 93.0859 47.4651 93.7976 47.9285 93.7976C48.3909 93.7976 48.3918 93.0859 47.9285 93.0859Z" fill="#FFB8BC" />
        <path d="M39.4753 87.3838C39.0129 87.3838 39.012 88.0954 39.4753 88.0954C39.9378 88.0963 39.9387 87.3838 39.4753 87.3838Z" fill="#FFB8BC" />
        <path d="M57.96 104.815C57.4975 104.815 57.4966 105.527 57.96 105.527C58.4224 105.527 58.4224 104.815 57.96 104.815Z" fill="#FFB8BC" />
        <path d="M81.668 104.457C81.2055 104.457 81.2046 105.169 81.668 105.169C82.1295 105.169 82.1304 104.457 81.668 104.457Z" fill="#FFB8BC" />
        <path d="M84.6074 105.17C84.145 105.17 84.1441 105.882 84.6074 105.882C85.0689 105.882 85.0698 105.17 84.6074 105.17Z" fill="#FFB8BC" />
        <path d="M92.5359 100.087C92.0735 100.087 92.0725 100.799 92.5359 100.799C92.9974 100.799 92.9983 100.087 92.5359 100.087Z" fill="#FFB8BC" />
        <path d="M99.9097 47.9463C99.4472 47.9463 99.4463 48.6579 99.9097 48.6579C100.372 48.6579 100.373 47.9463 99.9097 47.9463Z" fill="#FFB8BC" />
        <path d="M106.926 53.332C106.463 53.332 106.462 54.0437 106.926 54.0437C107.387 54.0437 107.388 53.332 106.926 53.332Z" fill="#FFB8BC" />
        <path d="M78.4636 35.3105C78.0012 35.3105 78.0003 36.0222 78.4636 36.0222C78.9251 36.0222 78.926 35.3105 78.4636 35.3105Z" fill="#FFB8BC" />
        <path d="M82.4669 33.5234C82.363 33.5234 82.3621 33.6667 82.4669 33.6667C82.5708 33.6667 82.5708 33.5234 82.4669 33.5234Z" fill="#FFB8BC" />
        <path d="M82.6392 34.0723C82.408 34.0723 82.408 34.4285 82.6392 34.4285C82.8704 34.4276 82.8704 34.0723 82.6392 34.0723Z" fill="#FFB8BC" />
        <path d="M83.1195 33.041C82.9551 33.041 82.9542 33.2183 83.1195 33.2183C83.2838 33.2183 83.2838 33.041 83.1195 33.041Z" fill="#FFB8BC" />
        <path d="M57.6147 37.1748C57.1523 37.1748 57.1514 37.8865 57.6147 37.8865C58.0763 37.8865 58.0772 37.1748 57.6147 37.1748Z" fill="#FFB8BC" />
        <path d="M114.121 50.9039C113.519 49.9676 112.593 49.4413 111.575 49.111C108.555 48.1272 105.442 47.9338 102.334 48.4638C98.5924 49.1074 94.8885 49.9936 91.7761 52.3013C91.7635 52.3093 91.7581 52.3147 91.7463 52.3228V52.3228C91.6225 52.4152 91.464 52.4461 91.3114 52.4213C89.611 52.1457 87.9359 51.7284 86.2252 51.5171C84.5318 51.3077 82.7679 51.1832 81.0618 51.1412C78.597 51.0803 76.0401 51.2262 73.6052 51.5789C65.0341 52.8178 66.3102 53.029 57.8511 54.7504C53.7326 55.5874 49.532 56.3474 45.3205 56.154C41.7638 55.9902 38.1177 55.2329 35.2248 53.1758C34.4083 52.594 33.5855 51.629 33.9757 50.7106C34.2214 50.1296 34.8906 49.7993 34.9918 49.1262C35.0351 48.8335 34.8852 48.5363 34.6061 48.4306C34.3451 48.3313 34.1753 48.4638 34.0308 48.6034C32.7591 49.8324 32.9271 52.0247 33.9856 53.4372C35.0442 54.8489 36.7557 55.6232 38.4482 56.154C46.6355 58.7195 54.5292 57.0653 62.7978 55.8676C67.2559 55.223 71.629 54.173 76.0979 53.5518C77.1563 53.4035 78.2262 53.2897 79.3134 53.1735C79.8897 53.1119 80.3049 53.5974 79.9708 54.071V54.071C75.1352 60.8732 72.9964 64.7027 70.0783 72.4834C69.2239 74.7579 68.5754 77.1363 68.9927 79.6374C69.1932 80.8521 69.8922 81.733 70.8749 82.4383V82.4383C71.5712 82.9374 71.9969 83.7707 71.8442 84.6137C71.4613 86.7285 71.1695 88.8594 70.9697 90.9987C70.9508 91.2099 71.0573 91.4212 71.2524 91.5107C71.6498 91.6915 71.9461 91.1661 72.0382 90.7579L73.4435 84.5581C73.4869 84.3656 73.5763 84.1848 73.7145 84.0433V84.0433C73.876 83.8804 74.1231 83.886 74.3493 83.9245C74.4132 83.9354 74.4774 83.9456 74.5415 83.955C74.5729 83.9597 74.6032 83.9687 74.633 83.9798V83.9798C75.3474 84.2761 76.1512 84.3584 76.9117 84.2134C77.1411 84.1696 77.3741 84.106 77.6053 84.1427C77.9811 84.2054 78.2574 84.5222 78.467 84.8373C78.9737 85.6018 79.2871 86.4746 79.7287 87.2784C80.1704 88.0823 81.5865 90.2369 82.4536 90.5547C83.8959 91.0855 85.4033 90.2297 86.5775 89.4608C87.1302 89.0983 87.7037 88.7742 88.2465 88.3974C88.3612 88.3186 89.2563 87.7152 89.6103 87.5183C89.7684 87.4306 89.9264 87.3429 90.0854 87.2551C90.2967 87.1388 90.509 87.0215 90.7221 86.9087C90.9525 86.7852 91.2053 86.6617 91.4627 86.6992C91.6967 86.7351 91.8936 86.9033 92.0074 87.1092V87.1092C92.2343 87.518 92.1557 88.0181 92.194 88.484C92.3054 89.8373 92.8832 92.6777 95.7754 92.6108V92.6108C96.2109 92.6008 96.0509 92.2462 95.6187 92.1919C94.0319 91.9928 92.8523 90.8368 92.8907 87.8119C92.8952 87.4852 92.7949 87.1576 92.6297 86.8729C92.4653 86.5909 92.2015 86.3555 91.8818 86.2696C91.5639 86.1854 91.2297 86.2553 90.9172 86.3734C90.8414 86.4021 90.7673 86.4325 90.695 86.4647C90.6487 86.4854 90.6036 86.5066 90.5596 86.5284C89.9784 86.816 89.4476 87.1948 88.9021 87.5453C88.5666 87.7608 88.2153 87.9866 88.0352 88.1028C87.8437 88.2264 87.0011 88.7939 86.778 88.9407C86.2469 89.2898 85.7149 89.6219 85.1189 89.8502C84.2608 90.1769 83.2348 90.2056 82.4716 89.6989C81.8385 89.2773 80.6807 87.1782 80.3501 86.4978C79.9979 85.7746 79.6456 85.0522 79.2943 84.328C79.2464 84.2295 79.1967 84.1275 79.1931 84.0183C79.1805 83.6799 79.5643 83.4848 79.885 83.3684C84.1669 81.8099 88.0876 79.2865 91.2659 76.0434C93.1445 74.1269 94.7819 71.9302 95.7393 69.4327C96.143 68.3773 96.4239 67.2261 96.1782 66.1242C95.9298 65.0187 95.1558 64.068 94.1894 63.4638C92.766 62.574 90.9669 62.4048 89.3177 62.7378C87.6685 63.0717 86.1494 63.8684 84.7522 64.7976C81.4476 66.9953 78.5482 69.9892 76.6036 73.4468C76.5204 73.5946 76.2755 73.4978 76.3262 73.336C76.4098 73.0694 76.4963 72.8054 76.5861 72.5439C76.5862 72.5436 76.5866 72.5437 76.5866 72.544V72.544C76.5866 72.5443 76.587 72.5443 76.5871 72.544C76.5878 72.5413 76.5885 72.5389 76.5893 72.5353C76.6426 72.3303 76.7013 72.1217 76.7672 71.9105C77.3154 70.1631 78.1906 68.4838 79.0856 66.8824C79.5472 66.0589 80.0367 65.2505 80.5533 64.4592C80.8179 64.0546 81.0889 63.6545 81.368 63.2597C81.6037 62.9249 81.8403 62.4675 82.1447 62.1936C81.8159 62.4881 81.5062 62.8041 81.2162 63.1362C79.8542 64.7072 78.6241 66.4608 77.4861 68.1956C76.3156 69.9823 75.2941 71.8738 74.6095 73.8977C73.7132 76.5452 72.9656 79.2419 72.3706 81.971C72.3072 82.2616 71.9825 82.4129 71.7284 82.2584V82.2584C70.4775 81.4975 69.7613 80.0939 69.885 78.6438C69.9555 77.8131 70.1397 76.9815 70.3158 76.2242C71.2967 72.0367 73.2457 68.4337 75.1054 64.5845C76.3996 61.9098 78.0958 59.4535 79.8542 57.0617C80.6716 55.9508 81.4619 54.8211 82.2115 53.6637C82.5909 53.0818 83.2159 52.893 83.8842 52.9001C84.9554 52.9118 86.0572 52.9261 87.1176 53.081C88.0793 53.2226 89.008 53.233 90.1956 53.4422C90.2022 53.4434 90.2045 53.4519 90.1992 53.456V53.456C90.1938 53.4605 90.1866 53.4668 90.1775 53.4739C89.6889 53.8517 89.2436 54.2384 88.8381 54.6233C88.615 54.8346 88.4046 55.0458 88.2032 55.2562C87.7444 55.6491 87.3244 56.12 86.8602 56.5703V56.5703C86.6262 56.8021 86.8692 57.0263 87.1139 56.8058C88.3117 55.7266 89.7574 54.5214 90.8059 53.9593C90.8073 53.9585 90.8092 53.957 90.8103 53.9559V53.9559C90.811 53.9552 90.811 53.9552 90.8118 53.9547C91.2107 53.6725 91.6574 53.5707 92.1799 53.6556C94.3547 54.0056 96.5332 54.3458 98.7044 54.7083C101.74 55.2159 104.803 55.2839 107.865 55.3188C109.782 55.3385 111.68 55.0986 113.378 54.0871C114.783 53.2474 115.002 52.2699 114.121 50.9039ZM74.4379 80.9846C76.5848 75.6334 79.1913 70.548 83.5771 66.6219C85.6589 64.7591 88.065 63.3958 91.0292 63.4244C91.6912 63.4325 92.3253 63.5748 92.9286 63.7986C94.1777 64.2605 94.7232 65.1744 94.7476 67.0247C94.6907 69.481 93.5202 71.8057 91.8665 73.9684C88.5401 78.3153 84.1452 81.1654 79.0595 83.0748V83.0748C79.0192 83.0901 78.967 83.079 78.9241 83.0749C78.8567 83.0684 78.7576 83.0796 78.7035 83.087C78.6777 83.0905 78.6531 83.0991 78.6299 83.1109V83.1109C78.5866 83.1328 78.5367 83.1393 78.4906 83.1242C78.377 83.0869 78.2679 83.0126 78.1581 82.8913C77.2865 81.9362 76.172 81.5369 74.8922 81.6193C74.3223 81.6551 74.26 81.4304 74.4379 80.9846ZM73.9457 82.62C74.0053 82.3282 74.2455 82.3229 74.4758 82.3157C75.1912 82.2897 75.8857 82.3918 76.5251 82.7176C76.76 82.8376 77.1357 82.9244 77.0201 83.2896C76.9262 83.594 76.5902 83.6047 76.3003 83.6065C76.2154 83.6083 76.1305 83.6065 76.0456 83.6083C75.4314 83.6486 74.8904 83.3881 74.3395 83.1786C74.0893 83.0846 73.8816 82.936 73.9457 82.62ZM112.551 53.3746C111.367 54.1122 110.073 54.4872 108.659 54.54C108.543 54.5418 108.43 54.5454 108.313 54.5499L105.127 54.4828C103.737 54.4505 101.82 54.2205 100.447 54.0137C97.9427 53.6355 95.7223 53.1123 93.1254 52.7009C93.0158 52.6835 92.982 52.5388 93.0758 52.4794V52.4794C95.126 51.0955 97.4147 50.3991 99.7394 49.7743C102.924 48.9212 106.158 48.8657 109.403 49.2336C110.663 49.3759 111.923 49.742 112.855 50.7034C113.864 51.7472 113.759 52.6182 112.551 53.3746Z" fill="#FFB8BC" stroke="#FFB8BC" stroke-width="1.38372" />
    </g>
    <defs>
        <filter id="filter0_d_705_1630" x="0.515617" y="0.473119" width="146.722" height="145.789" filterUnits="userSpaceOnUse" color-interpolation-filters="sRGB">
            <feFlood flood-opacity="0" result="BackgroundImageFix" />
            <feColorMatrix in="SourceAlpha" type="matrix" values="0 0 0 0 0 0 0 0 0 0 0 0 0 0 0 0 0 0 127 0" result="hardAlpha" />
            <feOffset dy="2.9575" />
            <feGaussianBlur stdDeviation="9.24219" />
            <feComposite in2="hardAlpha" operator="out" />
            <feColorMatrix type="matrix" values="0 0 0 0 0 0 0 0 0 0 0 0 0 0 0 0 0 0 0.25 0" />
            <feBlend mode="normal" in2="BackgroundImageFix" result="effect1_dropShadow_705_1630" />
            <feBlend mode="normal" in="SourceGraphic" in2="effect1_dropShadow_705_1630" result="shape" />
        </filter>
    </defs>
</svg>