<svg width="48" height="49" viewBox="0 0 48 49" fill="none" xmlns="http://www.w3.org/2000/svg">
<path d="M24 48.0801C19.2533 48.0801 14.6131 46.6725 10.6663 44.0354C6.71954 41.3982 3.6434 37.6499 1.8269 33.2645C0.0103987 28.8791 -0.464881 24.0535 0.461164 19.3979C1.38721 14.7424 3.67299 10.466 7.02945 7.10952C10.3859 3.75307 14.6623 1.46729 19.3178 0.541242C23.9734 -0.384803 28.799 0.0904769 33.1844 1.90698C37.5698 3.72348 41.3181 6.79962 43.9553 10.7464C46.5924 14.6932 48 19.3333 48 24.0801C48 30.4453 45.4714 36.5498 40.9706 41.0506C36.4697 45.5515 30.3652 48.0801 24 48.0801ZM24 3.08009C19.8466 3.08009 15.7865 4.31172 12.333 6.61923C8.8796 8.92673 6.18798 12.2065 4.59854 16.0437C3.0091 19.881 2.59323 24.1034 3.40352 28.177C4.21381 32.2506 6.21386 35.9924 9.15077 38.9293C12.0877 41.8662 15.8295 43.8663 19.9031 44.6766C23.9767 45.4869 28.1991 45.071 32.0364 43.4815C35.8736 41.8921 39.1534 39.2005 41.4609 35.7471C43.7684 32.2936 45 28.2335 45 24.0801C45 18.5105 42.7875 13.1691 38.8492 9.23084C34.911 5.29258 29.5696 3.08009 24 3.08009Z" fill="#FFB8BC"/>
<path d="M22.5 19.5801H19.5C19.5 18.7844 19.1839 18.0214 18.6213 17.4588C18.0587 16.8961 17.2956 16.5801 16.5 16.5801C15.7043 16.5801 14.9413 16.8961 14.3787 17.4588C13.8161 18.0214 13.5 18.7844 13.5 19.5801H10.5C10.5 17.9888 11.1321 16.4627 12.2574 15.3374C13.3826 14.2122 14.9087 13.5801 16.5 13.5801C18.0913 13.5801 19.6174 14.2122 20.7426 15.3374C21.8679 16.4627 22.5 17.9888 22.5 19.5801Z" fill="#FFB8BC"/>
<path d="M37.5 19.5801H34.5C34.5 18.7844 34.1839 18.0214 33.6213 17.4588C33.0587 16.8961 32.2956 16.5801 31.5 16.5801C30.7043 16.5801 29.9413 16.8961 29.3787 17.4588C28.8161 18.0214 28.5 18.7844 28.5 19.5801H25.5C25.5 17.9888 26.1321 16.4627 27.2574 15.3374C28.3826 14.2122 29.9087 13.5801 31.5 13.5801C33.0913 13.5801 34.6174 14.2122 35.7426 15.3374C36.8679 16.4627 37.5 17.9888 37.5 19.5801Z" fill="#FFB8BC"/>
<path d="M24 37.5801C20.8174 37.5801 17.7652 36.3158 15.5147 34.0654C13.2643 31.8149 12 28.7627 12 25.5801H15C15 27.967 15.9482 30.2562 17.636 31.944C19.3239 33.6319 21.6131 34.5801 24 34.5801C26.3869 34.5801 28.6761 33.6319 30.364 31.944C32.0518 30.2562 33 27.967 33 25.5801H36C36 28.7627 34.7357 31.8149 32.4853 34.0654C30.2348 36.3158 27.1826 37.5801 24 37.5801Z" fill="#FFB8BC"/>
</svg>
