<svg width="52" height="53" viewBox="0 0 52 53" fill="none" xmlns="http://www.w3.org/2000/svg">
<path fill-rule="evenodd" clip-rule="evenodd" d="M26.3068 5.80315e-05C25.0277 -0.00757811 23.9188 0.739254 23.3282 1.73135C22.7376 2.72346 22.4878 3.91853 22.3455 5.24207C22.0611 7.88915 22.274 11.1076 22.3076 13.9246C22.325 15.3856 22.3171 16.8941 22.3027 18.3355C21.9372 17.4104 21.585 16.5086 21.3058 15.7671L21.304 15.7623L21.3022 15.7576C20.2807 13.1184 19.3291 10.4277 18.0223 8.45444C17.3689 7.4678 16.6112 6.62872 15.5995 6.15445C14.5877 5.68018 13.3446 5.685 12.1699 6.2099L12.16 6.21438L12.1502 6.21898C11.0118 6.75446 10.2992 7.82542 10.0904 8.95C9.88152 10.0746 10.0382 11.2665 10.3263 12.5484C10.9026 15.1121 12.0716 18.0761 12.868 21.0143C13.4966 23.3332 14.1061 25.6674 14.614 27.6339C13.8639 26.8752 13.0271 26.0745 12.1245 25.3074C10.5752 23.9907 8.87199 22.7749 7.11552 22.118C5.35904 21.461 3.34349 21.4223 1.85488 22.7407L1.84348 22.7508L1.83236 22.7612C0.662304 23.8558 0.0822804 25.2118 0.234964 26.5344C0.387648 27.857 1.11299 29.0175 2.06612 30.2094C3.97236 32.593 6.96769 35.2035 9.85893 38.6712C13.0954 42.5529 16.6212 48.7562 19.1289 52.0162L19.4643 52.4523H41.4245L41.67 51.6693C42.1001 50.298 42.5777 47.5599 43.3434 44.1381C44.1091 40.7162 45.1302 36.7003 46.4912 33.1717C48.3001 28.4817 50.1545 24.0678 50.9878 20.5653C51.4044 18.8141 51.5978 17.2833 51.2567 15.9281C50.9165 14.5762 49.7851 13.46 48.2706 13.1951C46.939 12.9417 45.6778 13.5328 44.7933 14.43C43.9059 15.33 43.2361 16.5289 42.6119 17.8717C42.1282 18.9124 41.6799 20.05 41.239 21.193C41.2295 19.2859 41.2276 18.8291 41.2141 16.2519C41.199 13.3796 41.379 10.1613 41.1636 7.57268C41.0558 6.27837 40.8709 5.13746 40.3872 4.17852C39.9165 3.24549 38.8953 2.46895 37.7497 2.51001C36.6329 2.45469 35.6146 3.02942 34.9901 3.82344C34.3524 4.63421 33.98 5.63641 33.681 6.73874C33.0828 8.94341 32.8207 11.6096 32.4177 13.8106C32.2252 14.8618 32.0405 15.9063 31.8624 16.9206C31.7291 15.8698 31.5964 14.7498 31.4742 13.5364C31.2052 10.8656 31.0159 7.68011 30.4604 5.0721C30.1827 3.76809 29.827 2.60123 29.2182 1.65472C28.6094 0.7082 27.5611 -0.048989 26.3404 0.00290939L26.4279 0.00261161C26.3878 0.00117257 26.3474 0.000293678 26.3068 5.23488e-05V5.80315e-05ZM26.2934 2.23459C26.3107 2.23468 26.3289 2.23508 26.3479 2.23575L26.3916 2.23732L26.4354 2.23546C26.8102 2.21952 26.9884 2.31858 27.3389 2.86352C27.6894 3.40846 28.0259 4.3683 28.2749 5.53751C28.7729 7.87592 28.9753 11.0228 29.2509 13.7603C29.8561 19.7703 30.7142 24.1231 30.7142 24.1231L32.9132 24.0858C32.9132 24.0858 33.7284 19.0586 34.6157 14.2131C35.0435 11.8764 35.3191 9.23485 35.8375 7.32379C36.0967 6.36827 36.4273 5.61059 36.7465 5.20483C37.0656 4.79907 37.2281 4.70978 37.6569 4.74122L37.7399 4.74727L37.8229 4.74099C38.1639 4.7152 38.1525 4.70993 38.3922 5.18493C38.6318 5.65992 38.84 6.59589 38.9367 7.75796C39.1301 10.0821 38.964 13.2945 38.9795 16.2637C39.0084 21.7726 39.0328 26.8258 39.0328 26.8258L41.1573 27.3039C42.4546 24.6008 43.491 21.2816 44.6383 18.8136C45.2119 17.5796 45.8207 16.5707 46.3845 15.9988C46.9483 15.427 47.3056 15.2835 47.8571 15.3907L47.869 15.393L47.8809 15.395C48.7334 15.5415 48.91 15.7592 49.0897 16.4734C49.2695 17.1877 49.1919 18.4594 48.8139 20.0482C48.058 23.2257 46.229 27.6419 44.4063 32.3676C42.976 36.0758 41.9393 40.1799 41.1628 43.6501C40.5362 46.4501 40.0606 48.8762 39.7419 50.2177H20.575C18.2907 47.1116 14.8841 41.2089 11.5752 37.2403C8.55473 33.6176 5.48828 30.9108 3.8112 28.8138C2.97266 27.7652 2.52594 26.8946 2.45477 26.2781C2.38406 25.6655 2.5276 25.1761 3.34469 24.4072C4.11365 23.7315 5.0037 23.7139 6.33273 24.2109C7.66642 24.7097 9.23614 25.7852 10.6774 27.0101C13.5599 29.4598 15.9436 32.4387 15.9436 32.4387L17.9009 31.4704C17.9009 31.4704 16.4641 25.7399 15.0247 20.4297C14.185 17.3317 13.0188 14.3376 12.5064 12.0583C12.2503 10.9186 12.1741 9.96772 12.2874 9.35798C12.3999 8.75213 12.5636 8.49664 13.0918 8.24589C13.8013 7.93101 14.2 7.96632 14.651 8.17775C15.1043 8.39025 15.6336 8.89431 16.1593 9.68815C17.2107 11.2758 18.1854 13.8956 19.2182 16.5641L19.2146 16.5546C20.2692 19.3549 22.2877 24.2895 22.2877 24.2895L24.4387 23.8988C24.4387 23.8988 24.5963 18.4525 24.542 13.898C24.5074 10.9959 24.3174 7.80648 24.5673 5.48083C24.6922 4.31801 24.9439 3.38551 25.2482 2.8744C25.5525 2.36329 25.7318 2.23124 26.2934 2.23459V2.23459Z" fill="#FFB8BC"/>
</svg>
