<svg width="55" height="55" viewBox="0 0 55 55" fill="none" xmlns="http://www.w3.org/2000/svg">
<path d="M50.4743 37.1908L17.7454 4.4276C17.4266 4.10846 17.048 3.85529 16.6313 3.68255C16.2146 3.50981 15.768 3.4209 15.3169 3.4209C14.8658 3.4209 14.4191 3.50981 14.0024 3.68255C13.5857 3.85529 13.2072 4.10846 12.8884 4.4276L4.44444 12.8887C3.80513 13.5318 3.44629 14.4018 3.44629 15.3086C3.44629 16.2154 3.80513 17.0854 4.44444 17.7285L37.1733 50.4918C37.4941 50.8099 37.8744 51.0616 38.2926 51.2324C38.7108 51.4032 39.1587 51.4898 39.6104 51.4872C40.5168 51.4879 41.3867 51.1301 42.0303 50.4918L50.4743 42.0306C51.1136 41.3875 51.4724 40.5175 51.4724 39.6107C51.4724 38.7039 51.1136 37.8339 50.4743 37.1908ZM39.6104 48.0547L6.86435 15.3086L15.3083 6.86468L21.8129 13.3693L17.9513 17.1622L20.3712 19.5821L24.2328 15.7892L31.3209 22.8773L27.4593 26.7389L29.8964 29.1759L33.758 25.3144L40.8461 32.4025L36.9845 36.264L39.4731 38.684L43.3347 34.8224L48.0543 39.6107L39.6104 48.0547Z" fill="#FFB8BC"/>
</svg>
