<svg width="400" height="220" viewBox="0 0 424 283" fill="none" xmlns="http://www.w3.org/2000/svg">
<g filter="url(#filter0_d_1926_172)">
<rect x="10" y="3" width="404" height="219" rx="41" fill="white"/>
<rect x="10.5" y="3.5" width="403" height="218" rx="40.5" stroke="#DADADA"/>
</g>
<g filter="url(#filter1_d_1926_172)">
<circle cx="211.5" cy="221.5" r="37.5" fill="white"/>
</g>
<path d="M221.484 74.575L216.434 92H213.884L209.834 77.975L205.634 92L203.109 92.025L198.234 74.575H200.659L204.459 89.35L208.659 74.575H211.209L215.209 89.3L219.034 74.575H221.484ZM223.124 85.1C223.124 83.7 223.407 82.475 223.974 81.425C224.54 80.3583 225.315 79.5333 226.299 78.95C227.299 78.3667 228.407 78.075 229.624 78.075C230.824 78.075 231.865 78.3333 232.749 78.85C233.632 79.3667 234.29 80.0167 234.724 80.8V78.3H237.024V92H234.724V89.45C234.274 90.25 233.599 90.9167 232.699 91.45C231.815 91.9667 230.782 92.225 229.599 92.225C228.382 92.225 227.282 91.925 226.299 91.325C225.315 90.725 224.54 89.8833 223.974 88.8C223.407 87.7167 223.124 86.4833 223.124 85.1ZM234.724 85.125C234.724 84.0917 234.515 83.1917 234.099 82.425C233.682 81.6583 233.115 81.075 232.399 80.675C231.699 80.2583 230.924 80.05 230.074 80.05C229.224 80.05 228.449 80.25 227.749 80.65C227.049 81.05 226.49 81.6333 226.074 82.4C225.657 83.1667 225.449 84.0667 225.449 85.1C225.449 86.15 225.657 87.0667 226.074 87.85C226.49 88.6167 227.049 89.2083 227.749 89.625C228.449 90.025 229.224 90.225 230.074 90.225C230.924 90.225 231.699 90.025 232.399 89.625C233.115 89.2083 233.682 88.6167 234.099 87.85C234.515 87.0667 234.724 86.1583 234.724 85.125ZM247.543 78.05C249.21 78.05 250.56 78.5583 251.593 79.575C252.627 80.575 253.143 82.025 253.143 83.925V92H250.893V84.25C250.893 82.8833 250.552 81.8417 249.868 81.125C249.185 80.3917 248.252 80.025 247.068 80.025C245.868 80.025 244.91 80.4 244.193 81.15C243.493 81.9 243.143 82.9917 243.143 84.425V92H240.868V78.3H243.143V80.25C243.593 79.55 244.202 79.0083 244.968 78.625C245.752 78.2417 246.61 78.05 247.543 78.05ZM259.635 80.175V88.25C259.635 88.9167 259.776 89.3917 260.06 89.675C260.343 89.9417 260.835 90.075 261.535 90.075H263.21V92H261.16C259.893 92 258.943 91.7083 258.31 91.125C257.676 90.5417 257.36 89.5833 257.36 88.25V80.175H255.585V78.3H257.36V74.85H259.635V78.3H263.21V80.175H259.635ZM275.406 80.175V88.25C275.406 88.9167 275.548 89.3917 275.831 89.675C276.114 89.9417 276.606 90.075 277.306 90.075H278.981V92H276.931C275.664 92 274.714 91.7083 274.081 91.125C273.448 90.5417 273.131 89.5833 273.131 88.25V80.175H271.356V78.3H273.131V74.85H275.406V78.3H278.981V80.175H275.406ZM287.713 92.225C286.429 92.225 285.263 91.9333 284.213 91.35C283.179 90.7667 282.363 89.9417 281.763 88.875C281.179 87.7917 280.888 86.5417 280.888 85.125C280.888 83.725 281.188 82.4917 281.788 81.425C282.404 80.3417 283.238 79.5167 284.288 78.95C285.338 78.3667 286.513 78.075 287.813 78.075C289.113 78.075 290.288 78.3667 291.338 78.95C292.388 79.5167 293.213 80.3333 293.813 81.4C294.429 82.4667 294.738 83.7083 294.738 85.125C294.738 86.5417 294.421 87.7917 293.788 88.875C293.171 89.9417 292.329 90.7667 291.263 91.35C290.196 91.9333 289.013 92.225 287.713 92.225ZM287.713 90.225C288.529 90.225 289.296 90.0333 290.013 89.65C290.729 89.2667 291.304 88.6917 291.738 87.925C292.188 87.1583 292.413 86.225 292.413 85.125C292.413 84.025 292.196 83.0917 291.763 82.325C291.329 81.5583 290.763 80.9917 290.063 80.625C289.363 80.2417 288.604 80.05 287.788 80.05C286.954 80.05 286.188 80.2417 285.488 80.625C284.804 80.9917 284.254 81.5583 283.838 82.325C283.421 83.0917 283.213 84.025 283.213 85.125C283.213 86.2417 283.413 87.1833 283.813 87.95C284.229 88.7167 284.779 89.2917 285.463 89.675C286.146 90.0417 286.896 90.225 287.713 90.225ZM320.869 78.05C321.935 78.05 322.885 78.275 323.719 78.725C324.552 79.1583 325.21 79.8167 325.694 80.7C326.177 81.5833 326.419 82.6583 326.419 83.925V92H324.169V84.25C324.169 82.8833 323.827 81.8417 323.144 81.125C322.477 80.3917 321.569 80.025 320.419 80.025C319.235 80.025 318.294 80.4083 317.594 81.175C316.894 81.925 316.544 83.0167 316.544 84.45V92H314.294V84.25C314.294 82.8833 313.952 81.8417 313.269 81.125C312.602 80.3917 311.694 80.025 310.544 80.025C309.36 80.025 308.419 80.4083 307.719 81.175C307.019 81.925 306.669 83.0167 306.669 84.45V92H304.394V78.3H306.669V80.275C307.119 79.5583 307.719 79.0083 308.469 78.625C309.235 78.2417 310.077 78.05 310.994 78.05C312.144 78.05 313.16 78.3083 314.044 78.825C314.927 79.3417 315.585 80.1 316.019 81.1C316.402 80.1333 317.035 79.3833 317.919 78.85C318.802 78.3167 319.785 78.05 320.869 78.05ZM331.326 76.075C330.892 76.075 330.526 75.925 330.226 75.625C329.926 75.325 329.776 74.9583 329.776 74.525C329.776 74.0917 329.926 73.725 330.226 73.425C330.526 73.125 330.892 72.975 331.326 72.975C331.742 72.975 332.092 73.125 332.376 73.425C332.676 73.725 332.826 74.0917 332.826 74.525C332.826 74.9583 332.676 75.325 332.376 75.625C332.092 75.925 331.742 76.075 331.326 76.075ZM332.426 78.3V92H330.151V78.3H332.426ZM343.453 92L340.203 86.9L337.078 92H334.703L339.128 85.2L334.703 78.3H337.278L340.528 83.375L343.628 78.3H346.003L341.603 85.075L346.028 92H343.453ZM196.83 123.1C196.83 121.7 197.113 120.475 197.68 119.425C198.247 118.358 199.022 117.533 200.005 116.95C201.005 116.367 202.113 116.075 203.33 116.075C204.53 116.075 205.572 116.333 206.455 116.85C207.338 117.367 207.997 118.017 208.43 118.8V116.3H210.73V130H208.43V127.45C207.98 128.25 207.305 128.917 206.405 129.45C205.522 129.967 204.488 130.225 203.305 130.225C202.088 130.225 200.988 129.925 200.005 129.325C199.022 128.725 198.247 127.883 197.68 126.8C197.113 125.717 196.83 124.483 196.83 123.1ZM208.43 123.125C208.43 122.092 208.222 121.192 207.805 120.425C207.388 119.658 206.822 119.075 206.105 118.675C205.405 118.258 204.63 118.05 203.78 118.05C202.93 118.05 202.155 118.25 201.455 118.65C200.755 119.05 200.197 119.633 199.78 120.4C199.363 121.167 199.155 122.067 199.155 123.1C199.155 124.15 199.363 125.067 199.78 125.85C200.197 126.617 200.755 127.208 201.455 127.625C202.155 128.025 202.93 128.225 203.78 128.225C204.63 128.225 205.405 128.025 206.105 127.625C206.822 127.208 207.388 126.617 207.805 125.85C208.222 125.067 208.43 124.158 208.43 123.125ZM221.249 116.05C222.916 116.05 224.266 116.558 225.299 117.575C226.333 118.575 226.849 120.025 226.849 121.925V130H224.599V122.25C224.599 120.883 224.258 119.842 223.574 119.125C222.891 118.392 221.958 118.025 220.774 118.025C219.574 118.025 218.616 118.4 217.899 119.15C217.199 119.9 216.849 120.992 216.849 122.425V130H214.574V116.3H216.849V118.25C217.299 117.55 217.908 117.008 218.674 116.625C219.458 116.242 220.316 116.05 221.249 116.05ZM229.716 123.1C229.716 121.7 229.999 120.475 230.566 119.425C231.132 118.358 231.907 117.533 232.891 116.95C233.891 116.367 235.007 116.075 236.241 116.075C237.307 116.075 238.299 116.325 239.216 116.825C240.132 117.308 240.832 117.95 241.316 118.75V111.5H243.616V130H241.316V127.425C240.866 128.242 240.199 128.917 239.316 129.45C238.432 129.967 237.399 130.225 236.216 130.225C234.999 130.225 233.891 129.925 232.891 129.325C231.907 128.725 231.132 127.883 230.566 126.8C229.999 125.717 229.716 124.483 229.716 123.1ZM241.316 123.125C241.316 122.092 241.107 121.192 240.691 120.425C240.274 119.658 239.707 119.075 238.991 118.675C238.291 118.258 237.516 118.05 236.666 118.05C235.816 118.05 235.041 118.25 234.341 118.65C233.641 119.05 233.082 119.633 232.666 120.4C232.249 121.167 232.041 122.067 232.041 123.1C232.041 124.15 232.249 125.067 232.666 125.85C233.082 126.617 233.641 127.208 234.341 127.625C235.041 128.025 235.816 128.225 236.666 128.225C237.516 128.225 238.291 128.025 238.991 127.625C239.707 127.208 240.274 126.617 240.691 125.85C241.107 125.067 241.316 124.158 241.316 123.125ZM270.6 116.05C271.667 116.05 272.617 116.275 273.45 116.725C274.284 117.158 274.942 117.817 275.425 118.7C275.909 119.583 276.15 120.658 276.15 121.925V130H273.9V122.25C273.9 120.883 273.559 119.842 272.875 119.125C272.209 118.392 271.3 118.025 270.15 118.025C268.967 118.025 268.025 118.408 267.325 119.175C266.625 119.925 266.275 121.017 266.275 122.45V130H264.025V122.25C264.025 120.883 263.684 119.842 263 119.125C262.334 118.392 261.425 118.025 260.275 118.025C259.092 118.025 258.15 118.408 257.45 119.175C256.75 119.925 256.4 121.017 256.4 122.45V130H254.125V116.3H256.4V118.275C256.85 117.558 257.45 117.008 258.2 116.625C258.967 116.242 259.809 116.05 260.725 116.05C261.875 116.05 262.892 116.308 263.775 116.825C264.659 117.342 265.317 118.1 265.75 119.1C266.134 118.133 266.767 117.383 267.65 116.85C268.534 116.317 269.517 116.05 270.6 116.05ZM279.032 123.1C279.032 121.7 279.315 120.475 279.882 119.425C280.449 118.358 281.224 117.533 282.207 116.95C283.207 116.367 284.315 116.075 285.532 116.075C286.732 116.075 287.774 116.333 288.657 116.85C289.54 117.367 290.199 118.017 290.632 118.8V116.3H292.932V130H290.632V127.45C290.182 128.25 289.507 128.917 288.607 129.45C287.724 129.967 286.69 130.225 285.507 130.225C284.29 130.225 283.19 129.925 282.207 129.325C281.224 128.725 280.449 127.883 279.882 126.8C279.315 125.717 279.032 124.483 279.032 123.1ZM290.632 123.125C290.632 122.092 290.424 121.192 290.007 120.425C289.59 119.658 289.024 119.075 288.307 118.675C287.607 118.258 286.832 118.05 285.982 118.05C285.132 118.05 284.357 118.25 283.657 118.65C282.957 119.05 282.399 119.633 281.982 120.4C281.565 121.167 281.357 122.067 281.357 123.1C281.357 124.15 281.565 125.067 281.982 125.85C282.399 126.617 282.957 127.208 283.657 127.625C284.357 128.025 285.132 128.225 285.982 128.225C286.832 128.225 287.607 128.025 288.307 127.625C289.024 127.208 289.59 126.617 290.007 125.85C290.424 125.067 290.632 124.158 290.632 123.125ZM299.552 118.175V126.25C299.552 126.917 299.693 127.392 299.977 127.675C300.26 127.942 300.752 128.075 301.452 128.075H303.127V130H301.077C299.81 130 298.86 129.708 298.227 129.125C297.593 128.542 297.277 127.583 297.277 126.25V118.175H295.502V116.3H297.277V112.85H299.552V116.3H303.127V118.175H299.552ZM305.033 123.125C305.033 121.708 305.316 120.475 305.883 119.425C306.45 118.358 307.233 117.533 308.233 116.95C309.25 116.367 310.408 116.075 311.708 116.075C313.391 116.075 314.775 116.483 315.858 117.3C316.958 118.117 317.683 119.25 318.033 120.7H315.583C315.35 119.867 314.891 119.208 314.208 118.725C313.541 118.242 312.708 118 311.708 118C310.408 118 309.358 118.45 308.558 119.35C307.758 120.233 307.358 121.492 307.358 123.125C307.358 124.775 307.758 126.05 308.558 126.95C309.358 127.85 310.408 128.3 311.708 128.3C312.708 128.3 313.541 128.067 314.208 127.6C314.875 127.133 315.333 126.467 315.583 125.6H318.033C317.666 127 316.933 128.125 315.833 128.975C314.733 129.808 313.358 130.225 311.708 130.225C310.408 130.225 309.25 129.933 308.233 129.35C307.233 128.767 306.45 127.942 305.883 126.875C305.316 125.808 305.033 124.558 305.033 123.125ZM327.869 116.05C328.902 116.05 329.835 116.275 330.669 116.725C331.502 117.158 332.152 117.817 332.619 118.7C333.102 119.583 333.344 120.658 333.344 121.925V130H331.094V122.25C331.094 120.883 330.752 119.842 330.069 119.125C329.385 118.392 328.452 118.025 327.269 118.025C326.069 118.025 325.11 118.4 324.394 119.15C323.694 119.9 323.344 120.992 323.344 122.425V130H321.069V111.5H323.344V118.25C323.794 117.55 324.41 117.008 325.194 116.625C325.994 116.242 326.885 116.05 327.869 116.05ZM341.51 112.35C343.16 112.35 344.493 112.817 345.51 113.75C346.526 114.683 347.035 115.933 347.035 117.5C347.035 119.25 346.493 120.55 345.41 121.4C344.326 122.233 342.86 122.65 341.01 122.65L340.935 125.025H338.96L338.86 121.075H339.585C341.235 121.075 342.526 120.825 343.46 120.325C344.393 119.825 344.86 118.883 344.86 117.5C344.86 116.5 344.56 115.708 343.96 115.125C343.36 114.542 342.551 114.25 341.535 114.25C340.501 114.25 339.685 114.533 339.085 115.1C338.501 115.65 338.21 116.408 338.21 117.375H336.06C336.06 116.375 336.285 115.5 336.735 114.75C337.185 113.983 337.818 113.392 338.635 112.975C339.468 112.558 340.426 112.35 341.51 112.35ZM339.935 130.15C339.501 130.15 339.135 130 338.835 129.7C338.535 129.4 338.385 129.033 338.385 128.6C338.385 128.167 338.535 127.8 338.835 127.5C339.135 127.2 339.501 127.05 339.935 127.05C340.351 127.05 340.701 127.2 340.985 127.5C341.285 127.8 341.435 128.167 341.435 128.6C341.435 129.033 341.285 129.4 340.985 129.7C340.701 130 340.351 130.15 339.935 130.15Z" fill="#270641"/>
<path d="M209.308 231V229.9C209.308 228.167 209.558 226.717 210.058 225.55C210.575 224.383 211.225 223.392 212.008 222.575C212.792 221.758 213.592 221 214.408 220.3C215.442 219.417 216.35 218.508 217.133 217.575C217.917 216.642 218.308 215.417 218.308 213.9C218.308 212.367 217.775 211.075 216.708 210.025C215.642 208.975 214.108 208.45 212.108 208.45C209.858 208.45 208.108 209.075 206.858 210.325C205.625 211.558 205.008 213.2 205.008 215.25H200.758C200.758 213.1 201.225 211.208 202.158 209.575C203.108 207.942 204.433 206.675 206.133 205.775C207.833 204.858 209.825 204.4 212.108 204.4C214.392 204.4 216.317 204.825 217.883 205.675C219.467 206.525 220.667 207.675 221.483 209.125C222.3 210.558 222.708 212.167 222.708 213.95C222.708 215.4 222.475 216.633 222.008 217.65C221.542 218.65 220.95 219.525 220.233 220.275C219.517 221.025 218.775 221.733 218.008 222.4C217.275 223.033 216.575 223.692 215.908 224.375C215.258 225.058 214.725 225.85 214.308 226.75C213.908 227.633 213.708 228.7 213.708 229.95V231H209.308ZM211.408 240.65C210.442 240.65 209.625 240.308 208.958 239.625C208.292 238.942 207.958 238.15 207.958 237.25C207.958 236.35 208.292 235.55 208.958 234.85C209.625 234.15 210.442 233.8 211.408 233.8C212.392 233.8 213.217 234.15 213.883 234.85C214.567 235.55 214.908 236.35 214.908 237.25C214.908 238.15 214.567 238.942 213.883 239.625C213.217 240.308 212.392 240.65 211.408 240.65Z" fill="#4C2A76"/>
<path d="M105.139 58H107.049V71.8753H105.139V58ZM131.742 58H133.653V71.8753H131.742V58Z" fill="#4C2A76" fill-opacity="0.65"/>
<path d="M129.685 93.0966C129.685 88.0634 137.034 79.3573 134.682 70.2432C134.682 70.2432 124.981 70.2432 119.396 74.7322C113.811 70.2432 104.11 70.2432 104.11 70.2432C101.758 79.3573 109.108 88.0634 109.108 93.0966C109.108 102.891 83.8268 117.446 91.4698 144.925C91.4698 144.925 97.643 141.388 100.73 141.388C103.522 141.388 107.344 145.061 109.989 145.061C113.37 145.061 116.457 141.388 119.249 141.388C122.189 141.388 125.275 145.061 128.509 145.061C131.302 145.061 135.123 141.388 137.769 141.388C141.002 141.388 147.029 144.925 147.029 144.925C154.966 117.446 129.685 102.755 129.685 93.0966Z" fill="#4C2A76" fill-opacity="0.65"/>
<path d="M108.079 90.2393H130.567V95.6805H108.079V90.2393Z" fill="#4C2A76" fill-opacity="0.65"/>
<path d="M133.653 114.997L126.01 117.582C126.01 117.582 126.157 98.4013 121.013 91.8718C120.719 91.4637 123.805 90.6475 124.246 91.0556C131.742 96.6329 133.653 114.997 133.653 114.997ZM106.902 107.379L112.782 108.604C112.782 108.604 113.81 96.0888 118.367 91.4637C118.661 91.1916 116.309 90.7835 115.868 91.0556C109.548 95.2726 106.902 107.379 106.902 107.379Z" fill="#4C2A76" fill-opacity="0.65"/>
<path d="M123.511 92.689C124.393 93.9133 127.333 97.8583 127.627 101.259L123.511 92.689ZM111.9 98.8105C112.635 97.4502 114.693 93.0971 117.632 91.0566L111.9 98.8105Z" fill="#4C2A76" fill-opacity="0.65"/>
<path d="M123.364 97.1777C122.042 98.13 117.632 98.13 116.162 97.1777C114.399 95.9535 114.546 90.6482 116.162 89.2879C117.485 88.1996 122.042 88.1996 123.364 89.2879C124.981 90.6482 125.128 95.9535 123.364 97.1777Z" fill="#4C2A76" fill-opacity="0.65"/>
<path d="M122.63 97.0414C121.454 97.9936 117.927 97.9936 116.751 97.0414C115.281 95.8171 115.428 90.7839 116.751 89.4236C117.78 88.3354 121.601 88.3354 122.63 89.4236C124.1 90.6479 124.247 95.8171 122.63 97.0414ZM140.562 134.178C137.475 134.178 133.066 138.259 129.979 138.259C126.158 138.259 122.63 134.178 119.397 134.178C116.163 134.178 112.636 138.259 108.814 138.259C105.727 138.259 101.318 134.178 98.2314 134.178C96.0267 134.178 92.4992 135.675 90.1475 136.763C90.2944 138.259 90.4414 139.892 90.7354 141.524C92.3522 140.708 97.2025 138.395 99.9952 138.395C102.935 138.395 106.903 142.068 109.696 142.068C113.223 142.068 116.457 138.395 119.397 138.395C122.336 138.395 125.717 142.068 129.097 142.068C132.037 142.068 136.005 138.395 138.798 138.395C141.591 138.395 146.441 140.708 148.058 141.524C148.352 139.892 148.499 138.259 148.646 136.763C146.294 135.675 142.767 134.178 140.562 134.178Z" fill="#4C2A76" fill-opacity="0.65"/>
<path d="M109.401 135.675C112.929 135.675 116.31 132.003 119.396 132.003C122.483 132.003 125.716 135.675 129.391 135.675C132.33 135.675 136.446 132.003 139.386 132.003C142.178 132.003 147.323 134.179 148.792 134.859V132.819C146.588 131.866 142.472 130.37 139.973 130.37C136.887 130.37 132.771 134.043 129.685 134.043C126.01 134.043 122.63 130.37 119.396 130.37C116.31 130.37 112.782 134.043 109.108 134.043C106.021 134.043 101.905 130.37 98.8188 130.37C96.3202 130.37 92.0577 132.003 90 132.819V134.859C91.6168 134.179 96.6141 132.003 99.4068 132.003C102.346 132.003 106.462 135.675 109.401 135.675Z" fill="#4C2A76" fill-opacity="0.65"/>
<defs>
<filter id="filter0_d_1926_172" x="0" y="0" width="424" height="239" filterUnits="userSpaceOnUse" color-interpolation-filters="sRGB">
<feFlood flood-opacity="0" result="BackgroundImageFix"/>
<feColorMatrix in="SourceAlpha" type="matrix" values="0 0 0 0 0 0 0 0 0 0 0 0 0 0 0 0 0 0 127 0" result="hardAlpha"/>
<feMorphology radius="5" operator="erode" in="SourceAlpha" result="effect1_dropShadow_1926_172"/>
<feOffset dy="7"/>
<feGaussianBlur stdDeviation="7.5"/>
<feComposite in2="hardAlpha" operator="out"/>
<feColorMatrix type="matrix" values="0 0 0 0 0 0 0 0 0 0 0 0 0 0 0 0 0 0 0.2 0"/>
<feBlend mode="normal" in2="BackgroundImageFix" result="effect1_dropShadow_1926_172"/>
<feBlend mode="normal" in="SourceGraphic" in2="effect1_dropShadow_1926_172" result="shape"/>
</filter>
<filter id="filter1_d_1926_172" x="154" y="168" width="115" height="115" filterUnits="userSpaceOnUse" color-interpolation-filters="sRGB">
<feFlood flood-opacity="0" result="BackgroundImageFix"/>
<feColorMatrix in="SourceAlpha" type="matrix" values="0 0 0 0 0 0 0 0 0 0 0 0 0 0 0 0 0 0 127 0" result="hardAlpha"/>
<feOffset dy="4"/>
<feGaussianBlur stdDeviation="10"/>
<feComposite in2="hardAlpha" operator="out"/>
<feColorMatrix type="matrix" values="0 0 0 0 0 0 0 0 0 0 0 0 0 0 0 0 0 0 0.2 0"/>
<feBlend mode="normal" in2="BackgroundImageFix" result="effect1_dropShadow_1926_172"/>
<feBlend mode="normal" in="SourceGraphic" in2="effect1_dropShadow_1926_172" result="shape"/>
</filter>
</defs>
</svg>
