<svg width="400" height="240" viewBox="0 0 209 137" fill="none" xmlns="http://www.w3.org/2000/svg">
    <g filter="url(#filter0_d_1617_34)">
        <rect x="9.81836" y="6.83105" width="189.182" height="104.235" rx="14.7806" fill="#4C2A76" />
    </g>
    <g filter="url(#filter1_d_1617_34)">
        <ellipse cx="104.643" cy="110.878" rx="21.3063" ry="17.1216" fill="white" />
    </g>
    <path d="M99.9287 97.8086H100.617V101.823H99.9287V97.8086ZM109.508 97.8086H110.196V101.823H109.508V97.8086Z" fill="#4C2A76" fill-opacity="0.65" />
    <path d="M108.767 107.964C108.767 106.508 111.413 103.989 110.567 101.352C110.567 101.352 107.074 101.352 105.063 102.65C103.052 101.352 99.5585 101.352 99.5585 101.352C98.7118 103.989 101.358 106.508 101.358 107.964C101.358 110.798 92.2551 115.01 95.0071 122.961C95.0071 122.961 97.2299 121.937 98.3413 121.937C99.3468 121.937 100.723 123 101.675 123C102.893 123 104.004 121.937 105.01 121.937C106.068 121.937 107.18 123 108.344 123C109.349 123 110.725 121.937 111.678 121.937C112.842 121.937 115.012 122.961 115.012 122.961C117.87 115.01 108.767 110.759 108.767 107.964" fill="#4C2A76" fill-opacity="0.65" />
    <path d="M100.987 107.138H109.085V108.712H100.987V107.138Z" fill="#4C2A76" fill-opacity="0.65" />
    <path d="M110.197 114.301L107.445 115.048C107.445 115.048 107.497 109.499 105.645 107.609C105.539 107.491 106.651 107.255 106.809 107.373C109.509 108.987 110.197 114.301 110.197 114.301ZM100.564 112.096L102.681 112.451C102.681 112.451 103.052 108.829 104.692 107.491C104.798 107.412 103.952 107.294 103.793 107.373C101.517 108.593 100.564 112.096 100.564 112.096" fill="#4C2A76" fill-opacity="0.65" />
    <path d="M106.545 107.846C106.862 108.201 107.921 109.342 108.027 110.326ZM102.364 109.618C102.628 109.224 103.369 107.964 104.428 107.374Z" fill="#4C2A76" fill-opacity="0.65" />
    <path d="M106.492 109.145C106.016 109.421 104.428 109.421 103.899 109.145C103.263 108.791 103.316 107.256 103.899 106.862C104.375 106.547 106.016 106.547 106.492 106.862C107.074 107.256 107.127 108.791 106.492 109.145Z" fill="#4C2A76" fill-opacity="0.65" />
    <path d="M106.227 109.105C105.804 109.381 104.534 109.381 104.11 109.105C103.581 108.751 103.634 107.295 104.11 106.901C104.481 106.586 105.857 106.586 106.227 106.901C106.757 107.255 106.81 108.751 106.227 109.105M112.684 119.851C111.573 119.851 109.985 121.032 108.874 121.032C107.498 121.032 106.227 119.851 105.063 119.851C103.899 119.851 102.629 121.032 101.253 121.032C100.141 121.032 98.5534 119.851 97.4421 119.851C96.6482 119.851 95.378 120.284 94.5312 120.599C94.5842 121.032 94.6371 121.504 94.7429 121.976C95.3251 121.74 97.0716 121.071 98.0771 121.071C99.1356 121.071 100.565 122.134 101.57 122.134C102.84 122.134 104.005 121.071 105.063 121.071C106.122 121.071 107.339 122.134 108.556 122.134C109.614 122.134 111.043 121.071 112.049 121.071C113.055 121.071 114.801 121.74 115.383 121.976C115.489 121.504 115.542 121.032 115.595 120.599C114.748 120.284 113.478 119.851 112.684 119.851" fill="#4C2A76" fill-opacity="0.65" />
    <path d="M101.464 120.285C102.734 120.285 103.951 119.222 105.063 119.222C106.174 119.222 107.338 120.285 108.662 120.285C109.72 120.285 111.202 119.222 112.26 119.222C113.266 119.222 115.118 119.852 115.647 120.049V119.458C114.854 119.183 113.372 118.75 112.472 118.75C111.361 118.75 109.879 119.813 108.767 119.813C107.444 119.813 106.227 118.75 105.063 118.75C103.951 118.75 102.681 119.813 101.358 119.813C100.247 119.813 98.7648 118.75 97.6534 118.75C96.7537 118.75 95.219 119.222 94.478 119.458V120.049C95.0602 119.852 96.8596 119.222 97.8651 119.222C98.9236 119.222 100.405 120.285 101.464 120.285" fill="#4C2A76" fill-opacity="0.65" />
    <path d="M63.3747 34.404L61.7638 39.8389H60.755L59.6133 35.7255L58.4012 39.8389L57.4002 39.8467L55.8597 34.404H56.8059L57.932 38.8301L59.1519 34.404H60.1529L61.2868 38.8066L62.4207 34.404H63.3747ZM63.8128 37.6649C63.8128 37.2322 63.9014 36.849 64.0787 36.5154C64.2612 36.1817 64.5062 35.9237 64.8138 35.7412C65.1266 35.5535 65.4707 35.4597 65.846 35.4597C66.1849 35.4597 66.4794 35.5274 66.7297 35.663C66.9851 35.7933 67.1884 35.9575 67.3396 36.1556V35.53H68.2389V39.8389H67.3396V39.1976C67.1884 39.4009 66.9825 39.5704 66.7219 39.7059C66.4612 39.8415 66.164 39.9092 65.8304 39.9092C65.4602 39.9092 65.1214 39.8154 64.8138 39.6277C64.5062 39.4348 64.2612 39.169 64.0787 38.8301C63.9014 38.486 63.8128 38.0976 63.8128 37.6649ZM67.3396 37.6805C67.3396 37.3834 67.2771 37.1253 67.152 36.9064C67.032 36.6874 66.873 36.5206 66.6749 36.4059C66.4768 36.2912 66.2631 36.2338 66.0337 36.2338C65.8043 36.2338 65.5906 36.2912 65.3925 36.4059C65.1943 36.5154 65.0327 36.6796 64.9076 36.8985C64.7877 37.1123 64.7278 37.3677 64.7278 37.6649C64.7278 37.9621 64.7877 38.2227 64.9076 38.4469C65.0327 38.6711 65.1943 38.8431 65.3925 38.963C65.5958 39.0777 65.8095 39.1351 66.0337 39.1351C66.2631 39.1351 66.4768 39.0777 66.6749 38.963C66.873 38.8483 67.032 38.6815 67.152 38.4625C67.2771 38.2384 67.3396 37.9777 67.3396 37.6805ZM71.5838 35.4597C71.9227 35.4597 72.2251 35.53 72.4909 35.6708C72.762 35.8116 72.9732 36.0201 73.1244 36.2964C73.2755 36.5727 73.3511 36.9064 73.3511 37.2974V39.8389H72.4675V37.4303C72.4675 37.0445 72.371 36.75 72.1781 36.5466C71.9852 36.3381 71.722 36.2338 71.3883 36.2338C71.0547 36.2338 70.7888 36.3381 70.5907 36.5466C70.3978 36.75 70.3013 37.0445 70.3013 37.4303V39.8389H69.4099V35.53H70.3013V36.0227C70.4473 35.8455 70.6324 35.7073 70.8566 35.6082C71.0859 35.5092 71.3284 35.4597 71.5838 35.4597ZM75.5283 36.2573V38.6424C75.5283 38.804 75.5648 38.9213 75.6378 38.9943C75.716 39.0621 75.8463 39.096 76.0288 39.096H76.5762V39.8389H75.8724C75.471 39.8389 75.1634 39.745 74.9497 39.5573C74.7359 39.3697 74.629 39.0647 74.629 38.6424V36.2573H74.1207V35.53H74.629V34.4587H75.5283V35.53H76.5762V36.2573H75.5283ZM80.4693 36.2573V38.6424C80.4693 38.804 80.5058 38.9213 80.5788 38.9943C80.657 39.0621 80.7873 39.096 80.9698 39.096H81.5172V39.8389H80.8134C80.4119 39.8389 80.1044 39.745 79.8906 39.5573C79.6769 39.3697 79.57 39.0647 79.57 38.6424V36.2573H79.0617V35.53H79.57V34.4587H80.4693V35.53H81.5172V36.2573H80.4693ZM84.2078 39.9092C83.8012 39.9092 83.4336 39.818 83.1052 39.6355C82.7767 39.4479 82.5187 39.1872 82.331 38.8535C82.1433 38.5147 82.0495 38.1237 82.0495 37.6805C82.0495 37.2426 82.1459 36.8542 82.3388 36.5154C82.5317 36.1765 82.795 35.9158 83.1286 35.7334C83.4623 35.5509 83.835 35.4597 84.2469 35.4597C84.6588 35.4597 85.0315 35.5509 85.3652 35.7334C85.6988 35.9158 85.9621 36.1765 86.155 36.5154C86.3479 36.8542 86.4443 37.2426 86.4443 37.6805C86.4443 38.1185 86.3453 38.5069 86.1472 38.8457C85.9491 39.1846 85.678 39.4479 85.3339 39.6355C84.995 39.818 84.6197 39.9092 84.2078 39.9092ZM84.2078 39.1351C84.4372 39.1351 84.6509 39.0803 84.849 38.9708C85.0524 38.8614 85.2166 38.6971 85.3417 38.4782C85.4668 38.2592 85.5294 37.9933 85.5294 37.6805C85.5294 37.3677 85.4694 37.1045 85.3495 36.8907C85.2296 36.6718 85.0706 36.5075 84.8725 36.3981C84.6744 36.2886 84.4606 36.2338 84.2313 36.2338C84.0019 36.2338 83.7881 36.2886 83.59 36.3981C83.3971 36.5075 83.2433 36.6718 83.1286 36.8907C83.0139 37.1045 82.9566 37.3677 82.9566 37.6805C82.9566 38.1445 83.0739 38.5043 83.3085 38.7597C83.5483 39.0099 83.8481 39.1351 84.2078 39.1351ZM94.5729 35.4597C94.9118 35.4597 95.2141 35.53 95.48 35.6708C95.7511 35.8116 95.9623 36.0201 96.1134 36.2964C96.2698 36.5727 96.348 36.9064 96.348 37.2974V39.8389H95.4644V37.4303C95.4644 37.0445 95.3679 36.75 95.175 36.5466C94.9822 36.3381 94.7189 36.2338 94.3852 36.2338C94.0516 36.2338 93.7857 36.3381 93.5876 36.5466C93.3947 36.75 93.2982 37.0445 93.2982 37.4303V39.8389H92.4146V37.4303C92.4146 37.0445 92.3181 36.75 92.1252 36.5466C91.9324 36.3381 91.6691 36.2338 91.3354 36.2338C91.0018 36.2338 90.7359 36.3381 90.5378 36.5466C90.3449 36.75 90.2484 37.0445 90.2484 37.4303V39.8389H89.357V35.53H90.2484V36.0227C90.3944 35.8455 90.5795 35.7073 90.8037 35.6082C91.0278 35.5092 91.2677 35.4597 91.5231 35.4597C91.8672 35.4597 92.1748 35.5327 92.4459 35.6786C92.717 35.8246 92.9255 36.0357 93.0715 36.312C93.2018 36.0514 93.4051 35.8455 93.6814 35.6943C93.9577 35.5379 94.2549 35.4597 94.5729 35.4597ZM97.936 34.9592C97.7744 34.9592 97.6388 34.9044 97.5294 34.795C97.4199 34.6855 97.3651 34.5499 97.3651 34.3883C97.3651 34.2267 97.4199 34.0912 97.5294 33.9817C97.6388 33.8722 97.7744 33.8175 97.936 33.8175C98.0924 33.8175 98.2253 33.8722 98.3348 33.9817C98.4443 34.0912 98.499 34.2267 98.499 34.3883C98.499 34.5499 98.4443 34.6855 98.3348 34.795C98.2253 34.9044 98.0924 34.9592 97.936 34.9592ZM98.3739 35.53V39.8389H97.4824V35.53H98.3739ZM101.39 37.6571L102.782 39.8389H101.773L100.842 38.3765L99.9666 39.8389H99.036L100.428 37.7196L99.036 35.53H100.045L100.975 36.9924L101.851 35.53H102.782L101.39 37.6571ZM105.181 37.6649C105.181 37.2322 105.27 36.849 105.447 36.5154C105.629 36.1817 105.874 35.9237 106.182 35.7412C106.495 35.5535 106.839 35.4597 107.214 35.4597C107.553 35.4597 107.848 35.5274 108.098 35.663C108.353 35.7933 108.557 35.9575 108.708 36.1556V35.53H109.607V39.8389H108.708V39.1976C108.557 39.4009 108.351 39.5704 108.09 39.7059C107.829 39.8415 107.532 39.9092 107.198 39.9092C106.828 39.9092 106.489 39.8154 106.182 39.6277C105.874 39.4348 105.629 39.169 105.447 38.8301C105.27 38.486 105.181 38.0976 105.181 37.6649ZM108.708 37.6805C108.708 37.3834 108.645 37.1253 108.52 36.9064C108.4 36.6874 108.241 36.5206 108.043 36.4059C107.845 36.2912 107.631 36.2338 107.402 36.2338C107.172 36.2338 106.959 36.2912 106.761 36.4059C106.562 36.5154 106.401 36.6796 106.276 36.8985C106.156 37.1123 106.096 37.3677 106.096 37.6649C106.096 37.9621 106.156 38.2227 106.276 38.4469C106.401 38.6711 106.562 38.8431 106.761 38.963C106.964 39.0777 107.178 39.1351 107.402 39.1351C107.631 39.1351 107.845 39.0777 108.043 38.963C108.241 38.8483 108.4 38.6815 108.52 38.4625C108.645 38.2384 108.708 37.9777 108.708 37.6805ZM112.952 35.4597C113.291 35.4597 113.593 35.53 113.859 35.6708C114.13 35.8116 114.341 36.0201 114.492 36.2964C114.644 36.5727 114.719 36.9064 114.719 37.2974V39.8389H113.836V37.4303C113.836 37.0445 113.739 36.75 113.546 36.5466C113.353 36.3381 113.09 36.2338 112.756 36.2338C112.423 36.2338 112.157 36.3381 111.959 36.5466C111.766 36.75 111.669 37.0445 111.669 37.4303V39.8389H110.778V35.53H111.669V36.0227C111.815 35.8455 112 35.7073 112.225 35.6082C112.454 35.5092 112.696 35.4597 112.952 35.4597ZM115.559 37.6649C115.559 37.2322 115.648 36.849 115.825 36.5154C116.008 36.1817 116.253 35.9237 116.56 35.7412C116.873 35.5535 117.22 35.4597 117.6 35.4597C117.882 35.4597 118.158 35.5222 118.429 35.6473C118.705 35.7673 118.924 35.9289 119.086 36.1322V34.0521H119.985V39.8389H119.086V39.1898C118.94 39.3983 118.737 39.5704 118.476 39.7059C118.221 39.8415 117.926 39.9092 117.592 39.9092C117.217 39.9092 116.873 39.8154 116.56 39.6277C116.253 39.4348 116.008 39.169 115.825 38.8301C115.648 38.486 115.559 38.0976 115.559 37.6649ZM119.086 37.6805C119.086 37.3834 119.023 37.1253 118.898 36.9064C118.778 36.6874 118.619 36.5206 118.421 36.4059C118.223 36.2912 118.009 36.2338 117.78 36.2338C117.551 36.2338 117.337 36.2912 117.139 36.4059C116.941 36.5154 116.779 36.6796 116.654 36.8985C116.534 37.1123 116.474 37.3677 116.474 37.6649C116.474 37.9621 116.534 38.2227 116.654 38.4469C116.779 38.6711 116.941 38.8431 117.139 38.963C117.342 39.0777 117.556 39.1351 117.78 39.1351C118.009 39.1351 118.223 39.0777 118.421 38.963C118.619 38.8483 118.778 38.6815 118.898 38.4625C119.023 38.2384 119.086 37.9777 119.086 37.6805ZM128.404 35.4597C128.742 35.4597 129.045 35.53 129.311 35.6708C129.582 35.8116 129.793 36.0201 129.944 36.2964C130.101 36.5727 130.179 36.9064 130.179 37.2974V39.8389H129.295V37.4303C129.295 37.0445 129.199 36.75 129.006 36.5466C128.813 36.3381 128.55 36.2338 128.216 36.2338C127.882 36.2338 127.616 36.3381 127.418 36.5466C127.225 36.75 127.129 37.0445 127.129 37.4303V39.8389H126.245V37.4303C126.245 37.0445 126.149 36.75 125.956 36.5466C125.763 36.3381 125.5 36.2338 125.166 36.2338C124.832 36.2338 124.567 36.3381 124.368 36.5466C124.176 36.75 124.079 37.0445 124.079 37.4303V39.8389H123.188V35.53H124.079V36.0227C124.225 35.8455 124.41 35.7073 124.634 35.6082C124.859 35.5092 125.098 35.4597 125.354 35.4597C125.698 35.4597 126.005 35.5327 126.277 35.6786C126.548 35.8246 126.756 36.0357 126.902 36.312C127.032 36.0514 127.236 35.8455 127.512 35.6943C127.788 35.5379 128.086 35.4597 128.404 35.4597ZM131.016 37.6649C131.016 37.2322 131.105 36.849 131.282 36.5154C131.464 36.1817 131.709 35.9237 132.017 35.7412C132.33 35.5535 132.674 35.4597 133.049 35.4597C133.388 35.4597 133.683 35.5274 133.933 35.663C134.188 35.7933 134.392 35.9575 134.543 36.1556V35.53H135.442V39.8389H134.543V39.1976C134.392 39.4009 134.186 39.5704 133.925 39.7059C133.664 39.8415 133.367 39.9092 133.033 39.9092C132.663 39.9092 132.324 39.8154 132.017 39.6277C131.709 39.4348 131.464 39.169 131.282 38.8301C131.105 38.486 131.016 38.0976 131.016 37.6649ZM134.543 37.6805C134.543 37.3834 134.48 37.1253 134.355 36.9064C134.235 36.6874 134.076 36.5206 133.878 36.4059C133.68 36.2912 133.466 36.2338 133.237 36.2338C133.007 36.2338 132.794 36.2912 132.596 36.4059C132.397 36.5154 132.236 36.6796 132.111 36.8985C131.991 37.1123 131.931 37.3677 131.931 37.6649C131.931 37.9621 131.991 38.2227 132.111 38.4469C132.236 38.6711 132.397 38.8431 132.596 38.963C132.799 39.0777 133.013 39.1351 133.237 39.1351C133.466 39.1351 133.68 39.0777 133.878 38.963C134.076 38.8483 134.235 38.6815 134.355 38.4625C134.48 38.2384 134.543 37.9777 134.543 37.6805ZM137.653 36.2573V38.6424C137.653 38.804 137.69 38.9213 137.763 38.9943C137.841 39.0621 137.971 39.096 138.154 39.096H138.701V39.8389H137.997C137.596 39.8389 137.288 39.745 137.074 39.5573C136.861 39.3697 136.754 39.0647 136.754 38.6424V36.2573H136.245V35.53H136.754V34.4587H137.653V35.53H138.701V36.2573H137.653ZM139.225 37.6805C139.225 37.2374 139.314 36.849 139.491 36.5154C139.674 36.1765 139.924 35.9158 140.242 35.7334C140.56 35.5509 140.925 35.4597 141.337 35.4597C141.858 35.4597 142.288 35.5848 142.627 35.835C142.971 36.0801 143.203 36.432 143.323 36.8907H142.361C142.283 36.677 142.158 36.5102 141.986 36.3902C141.814 36.2703 141.597 36.2104 141.337 36.2104C140.972 36.2104 140.68 36.3407 140.461 36.6014C140.247 36.8568 140.14 37.2166 140.14 37.6805C140.14 38.1445 140.247 38.5069 140.461 38.7675C140.68 39.0282 140.972 39.1585 141.337 39.1585C141.853 39.1585 142.194 38.9317 142.361 38.4782H143.323C143.198 38.9161 142.963 39.2654 142.619 39.5261C142.275 39.7815 141.848 39.9092 141.337 39.9092C140.925 39.9092 140.56 39.818 140.242 39.6355C139.924 39.4479 139.674 39.1872 139.491 38.8535C139.314 38.5147 139.225 38.1237 139.225 37.6805ZM146.44 35.4597C146.769 35.4597 147.061 35.53 147.316 35.6708C147.577 35.8116 147.78 36.0201 147.926 36.2964C148.077 36.5727 148.153 36.9064 148.153 37.2974V39.8389H147.269V37.4303C147.269 37.0445 147.173 36.75 146.98 36.5466C146.787 36.3381 146.524 36.2338 146.19 36.2338C145.856 36.2338 145.59 36.3381 145.392 36.5466C145.199 36.75 145.103 37.0445 145.103 37.4303V39.8389H144.212V34.0521H145.103V36.0305C145.254 35.8481 145.444 35.7073 145.674 35.6082C145.908 35.5092 146.164 35.4597 146.44 35.4597ZM150.752 34.3258C151.284 34.3258 151.709 34.4717 152.027 34.7637C152.35 35.0556 152.512 35.4545 152.512 35.9601C152.512 36.4867 152.345 36.8829 152.011 37.1488C151.678 37.4147 151.235 37.5476 150.682 37.5476L150.651 38.1654H149.876L149.837 36.9376H150.095C150.601 36.9376 150.987 36.8699 151.253 36.7343C151.524 36.5988 151.659 36.3407 151.659 35.9601C151.659 35.6838 151.579 35.4675 151.417 35.3111C151.261 35.1547 151.042 35.0765 150.76 35.0765C150.479 35.0765 150.257 35.1521 150.095 35.3033C149.934 35.4545 149.853 35.6656 149.853 35.9367H149.016C149.016 35.6239 149.087 35.345 149.227 35.0999C149.368 34.8549 149.569 34.6646 149.83 34.5291C150.095 34.3935 150.403 34.3258 150.752 34.3258ZM150.252 39.8936C150.09 39.8936 149.955 39.8389 149.845 39.7294C149.736 39.6199 149.681 39.4844 149.681 39.3227C149.681 39.1611 149.736 39.0256 149.845 38.9161C149.955 38.8066 150.09 38.7519 150.252 38.7519C150.408 38.7519 150.541 38.8066 150.651 38.9161C150.76 39.0256 150.815 39.1611 150.815 39.3227C150.815 39.4844 150.76 39.6199 150.651 39.7294C150.541 39.8389 150.408 39.8936 150.252 39.8936Z" fill="#FFB8BC" />
    <path d="M62.6252 53.6409L60.6732 60.6279H59.0216L57.7103 55.653L56.3389 60.6279L54.6973 60.6379L52.8154 53.6409H54.3169L55.5481 59.0664L56.9695 53.6409H58.5311L59.8724 59.0363L61.1137 53.6409H62.6252ZM68.6954 57.735C68.6954 57.9352 68.682 58.1154 68.6553 58.2756H64.6013C64.6347 58.676 64.7748 58.9896 65.0217 59.2165C65.2686 59.4434 65.5723 59.5569 65.9326 59.5569C66.4531 59.5569 66.8235 59.3333 67.0437 58.8862H68.5552C68.3951 59.4201 68.0881 59.8605 67.6343 60.2075C67.1805 60.5478 66.6233 60.718 65.9626 60.718C65.4288 60.718 64.9483 60.6012 64.5212 60.3677C64.1008 60.1274 63.7705 59.7904 63.5302 59.3567C63.2966 58.9229 63.1799 58.4224 63.1799 57.8552C63.1799 57.2813 63.2966 56.7774 63.5302 56.3436C63.7638 55.9099 64.0908 55.5762 64.5112 55.3426C64.9316 55.1091 65.4154 54.9923 65.9626 54.9923C66.4898 54.9923 66.9603 55.1057 67.3741 55.3326C67.7945 55.5595 68.1181 55.8832 68.345 56.3036C68.5786 56.7174 68.6954 57.1945 68.6954 57.735ZM67.2439 57.3346C67.2373 56.9743 67.1071 56.6873 66.8535 56.4738C66.5999 56.2536 66.2896 56.1434 65.9226 56.1434C65.5756 56.1434 65.282 56.2502 65.0417 56.4638C64.8082 56.6706 64.6647 56.9609 64.6113 57.3346H67.2439ZM74.2256 60.718C73.7718 60.718 73.3647 60.6379 73.0044 60.4778C72.644 60.3109 72.3571 60.0874 72.1435 59.8071C71.9366 59.5268 71.8232 59.2165 71.8032 58.8762H73.2146C73.2413 59.0897 73.3447 59.2666 73.5249 59.4067C73.7117 59.5468 73.942 59.6169 74.2156 59.6169C74.4825 59.6169 74.6894 59.5635 74.8362 59.4568C74.9897 59.35 75.0664 59.2132 75.0664 59.0463C75.0664 58.8662 74.973 58.7327 74.7861 58.6459C74.606 58.5525 74.3157 58.4524 73.9153 58.3456C73.5015 58.2455 73.1612 58.1421 72.8943 58.0353C72.634 57.9286 72.4071 57.7651 72.2136 57.5448C72.0267 57.3246 71.9333 57.0277 71.9333 56.654C71.9333 56.347 72.0201 56.0667 72.1936 55.8131C72.3737 55.5595 72.6273 55.3593 72.9543 55.2125C73.288 55.0657 73.6784 54.9923 74.1255 54.9923C74.7861 54.9923 75.3133 55.1591 75.7071 55.4928C76.1008 55.8198 76.3177 56.2636 76.3577 56.8241H75.0164C74.9964 56.6039 74.9029 56.4304 74.7361 56.3036C74.5759 56.1701 74.3591 56.1034 74.0854 56.1034C73.8319 56.1034 73.635 56.1501 73.4949 56.2435C73.3614 56.337 73.2947 56.4671 73.2947 56.6339C73.2947 56.8208 73.3881 56.9643 73.5749 57.0644C73.7618 57.1578 74.0521 57.2546 74.4458 57.3547C74.8462 57.4548 75.1765 57.5582 75.4368 57.665C75.6971 57.7717 75.9206 57.9386 76.1075 58.1655C76.301 58.3857 76.4011 58.6793 76.4078 59.0463C76.4078 59.3667 76.3177 59.6536 76.1375 59.9072C75.964 60.1608 75.7104 60.361 75.3767 60.5078C75.0497 60.6479 74.666 60.718 74.2256 60.718ZM82.7934 55.0824V60.6279H81.382V59.9272C81.2018 60.1675 80.9649 60.3577 80.6712 60.4978C80.3843 60.6313 80.0706 60.698 79.7303 60.698C79.2965 60.698 78.9128 60.6079 78.5792 60.4277C78.2455 60.2409 77.9819 59.9706 77.7884 59.6169C77.6015 59.2566 77.5081 58.8295 77.5081 58.3356V55.0824H78.9095V58.1354C78.9095 58.5759 79.0196 58.9162 79.2398 59.1565C79.46 59.39 79.7603 59.5068 80.1407 59.5068C80.5278 59.5068 80.8314 59.39 81.0516 59.1565C81.2718 58.9162 81.382 58.5759 81.382 58.1354V55.0824H82.7934ZM86.3482 54.9923C86.762 54.9923 87.1257 55.0757 87.4393 55.2425C87.753 55.4027 87.9999 55.6129 88.1801 55.8732V55.0824H89.5915V60.668C89.5915 61.1818 89.488 61.6389 89.2812 62.0393C89.0743 62.4464 88.764 62.7667 88.3502 63.0003C87.9365 63.2405 87.436 63.3607 86.8487 63.3607C86.0613 63.3607 85.414 63.1771 84.9068 62.8101C84.4063 62.4431 84.1227 61.9426 84.056 61.3086H85.4473C85.5208 61.5622 85.6776 61.7624 85.9178 61.9092C86.1647 62.0627 86.4617 62.1394 86.8087 62.1394C87.2158 62.1394 87.5461 62.016 87.7997 61.7691C88.0533 61.5288 88.1801 61.1618 88.1801 60.668V59.8071C87.9999 60.0674 87.7496 60.2843 87.4293 60.4578C87.1157 60.6313 86.7553 60.718 86.3482 60.718C85.8811 60.718 85.454 60.5979 85.067 60.3577C84.6799 60.1174 84.3729 59.7804 84.146 59.3466C83.9258 58.9062 83.8157 58.4024 83.8157 57.8351C83.8157 57.2746 83.9258 56.7774 84.146 56.3436C84.3729 55.9099 84.6766 55.5762 85.057 55.3426C85.444 55.1091 85.8744 54.9923 86.3482 54.9923ZM88.1801 57.8552C88.1801 57.5148 88.1133 57.2245 87.9799 56.9843C87.8464 56.7374 87.6662 56.5505 87.4393 56.4237C87.2124 56.2903 86.9689 56.2235 86.7086 56.2235C86.4483 56.2235 86.2081 56.2869 85.9879 56.4137C85.7677 56.5405 85.5875 56.7274 85.4473 56.9743C85.3139 57.2145 85.2471 57.5015 85.2471 57.8351C85.2471 58.1688 85.3139 58.4624 85.4473 58.716C85.5875 58.9629 85.7677 59.1531 85.9879 59.2866C86.2148 59.4201 86.455 59.4868 86.7086 59.4868C86.9689 59.4868 87.2124 59.4234 87.4393 59.2966C87.6662 59.1631 87.8464 58.9763 87.9799 58.736C88.1133 58.4891 88.1801 58.1955 88.1801 57.8552ZM93.1324 54.9923C93.5461 54.9923 93.9098 55.0757 94.2235 55.2425C94.5371 55.4027 94.784 55.6129 94.9642 55.8732V55.0824H96.3756V60.668C96.3756 61.1818 96.2722 61.6389 96.0653 62.0393C95.8584 62.4464 95.5481 62.7667 95.1344 63.0003C94.7206 63.2405 94.2201 63.3607 93.6329 63.3607C92.8454 63.3607 92.1981 63.1771 91.6909 62.8101C91.1904 62.4431 90.9068 61.9426 90.8401 61.3086H92.2315C92.3049 61.5622 92.4617 61.7624 92.7019 61.9092C92.9488 62.0627 93.2458 62.1394 93.5928 62.1394C93.9999 62.1394 94.3302 62.016 94.5838 61.7691C94.8374 61.5288 94.9642 61.1618 94.9642 60.668V59.8071C94.784 60.0674 94.5338 60.2843 94.2134 60.4578C93.8998 60.6313 93.5394 60.718 93.1324 60.718C92.6652 60.718 92.2381 60.5979 91.8511 60.3577C91.464 60.1174 91.1571 59.7804 90.9302 59.3466C90.7099 58.9062 90.5998 58.4024 90.5998 57.8351C90.5998 57.2746 90.7099 56.7774 90.9302 56.3436C91.1571 55.9099 91.4607 55.5762 91.8411 55.3426C92.2281 55.1091 92.6586 54.9923 93.1324 54.9923ZM94.9642 57.8552C94.9642 57.5148 94.8975 57.2245 94.764 56.9843C94.6305 56.7374 94.4503 56.5505 94.2235 56.4237C93.9966 56.2903 93.753 56.2235 93.4927 56.2235C93.2325 56.2235 92.9922 56.2869 92.772 56.4137C92.5518 56.5405 92.3716 56.7274 92.2315 56.9743C92.098 57.2145 92.0313 57.5015 92.0313 57.8351C92.0313 58.1688 92.098 58.4624 92.2315 58.716C92.3716 58.9629 92.5518 59.1531 92.772 59.2866C92.9989 59.4201 93.2391 59.4868 93.4927 59.4868C93.753 59.4868 93.9966 59.4234 94.2235 59.2966C94.4503 59.1631 94.6305 58.9763 94.764 58.736C94.8975 58.4891 94.9642 58.1955 94.9642 57.8552ZM102.899 57.735C102.899 57.9352 102.886 58.1154 102.859 58.2756H98.8054C98.8387 58.676 98.9789 58.9896 99.2258 59.2165C99.4727 59.4434 99.7763 59.5569 100.137 59.5569C100.657 59.5569 101.028 59.3333 101.248 58.8862H102.759C102.599 59.4201 102.292 59.8605 101.838 60.2075C101.385 60.5478 100.827 60.718 100.167 60.718C99.6329 60.718 99.1524 60.6012 98.7253 60.3677C98.3049 60.1274 97.9745 59.7904 97.7343 59.3567C97.5007 58.9229 97.384 58.4224 97.384 57.8552C97.384 57.2813 97.5007 56.7774 97.7343 56.3436C97.9679 55.9099 98.2949 55.5762 98.7153 55.3426C99.1357 55.1091 99.6195 54.9923 100.167 54.9923C100.694 54.9923 101.164 55.1057 101.578 55.3326C101.999 55.5595 102.322 55.8832 102.549 56.3036C102.783 56.7174 102.899 57.1945 102.899 57.735ZM101.448 57.3346C101.441 56.9743 101.311 56.6873 101.058 56.4738C100.804 56.2536 100.494 56.1434 100.127 56.1434C99.7797 56.1434 99.4861 56.2502 99.2458 56.4638C99.0123 56.6706 98.8688 56.9609 98.8154 57.3346H101.448ZM106.044 60.718C105.591 60.718 105.184 60.6379 104.823 60.4778C104.463 60.3109 104.176 60.0874 103.962 59.8071C103.756 59.5268 103.642 59.2165 103.622 58.8762H105.033C105.06 59.0897 105.164 59.2666 105.344 59.4067C105.531 59.5468 105.761 59.6169 106.034 59.6169C106.301 59.6169 106.508 59.5635 106.655 59.4568C106.809 59.35 106.885 59.2132 106.885 59.0463C106.885 58.8662 106.792 58.7327 106.605 58.6459C106.425 58.5525 106.135 58.4524 105.734 58.3456C105.32 58.2455 104.98 58.1421 104.713 58.0353C104.453 57.9286 104.226 57.7651 104.032 57.5448C103.846 57.3246 103.752 57.0277 103.752 56.654C103.752 56.347 103.839 56.0667 104.012 55.8131C104.193 55.5595 104.446 55.3593 104.773 55.2125C105.107 55.0657 105.497 54.9923 105.944 54.9923C106.605 54.9923 107.132 55.1591 107.526 55.4928C107.92 55.8198 108.137 56.2636 108.177 56.8241H106.835C106.815 56.6039 106.722 56.4304 106.555 56.3036C106.395 56.1701 106.178 56.1034 105.904 56.1034C105.651 56.1034 105.454 56.1501 105.314 56.2435C105.18 56.337 105.114 56.4671 105.114 56.6339C105.114 56.8208 105.207 56.9643 105.394 57.0644C105.581 57.1578 105.871 57.2546 106.265 57.3547C106.665 57.4548 106.995 57.5582 107.256 57.665C107.516 57.7717 107.74 57.9386 107.926 58.1655C108.12 58.3857 108.22 58.6793 108.227 59.0463C108.227 59.3667 108.137 59.6536 107.956 59.9072C107.783 60.1608 107.529 60.361 107.196 60.5078C106.869 60.6479 106.485 60.718 106.044 60.718ZM111.009 56.2335V58.9162C111.009 59.1031 111.052 59.2399 111.139 59.3266C111.232 59.4067 111.386 59.4467 111.599 59.4467H112.25V60.6279H111.369C110.188 60.6279 109.597 60.054 109.597 58.9062V56.2335H108.937V55.0824H109.597V53.711H111.009V55.0824H112.25V56.2335H111.009ZM117.765 60.718C117.311 60.718 116.904 60.6379 116.544 60.4778C116.184 60.3109 115.897 60.0874 115.683 59.8071C115.476 59.5268 115.363 59.2165 115.343 58.8762H116.754C116.781 59.0897 116.884 59.2666 117.064 59.4067C117.251 59.5468 117.482 59.6169 117.755 59.6169C118.022 59.6169 118.229 59.5635 118.376 59.4568C118.529 59.35 118.606 59.2132 118.606 59.0463C118.606 58.8662 118.513 58.7327 118.326 58.6459C118.146 58.5525 117.855 58.4524 117.455 58.3456C117.041 58.2455 116.701 58.1421 116.434 58.0353C116.174 57.9286 115.947 57.7651 115.753 57.5448C115.566 57.3246 115.473 57.0277 115.473 56.654C115.473 56.347 115.56 56.0667 115.733 55.8131C115.913 55.5595 116.167 55.3593 116.494 55.2125C116.828 55.0657 117.218 54.9923 117.665 54.9923C118.326 54.9923 118.853 55.1591 119.247 55.4928C119.64 55.8198 119.857 56.2636 119.897 56.8241H118.556C118.536 56.6039 118.443 56.4304 118.276 56.3036C118.116 56.1701 117.899 56.1034 117.625 56.1034C117.371 56.1034 117.175 56.1501 117.034 56.2435C116.901 56.337 116.834 56.4671 116.834 56.6339C116.834 56.8208 116.928 56.9643 117.115 57.0644C117.301 57.1578 117.592 57.2546 117.985 57.3547C118.386 57.4548 118.716 57.5582 118.976 57.665C119.237 57.7717 119.46 57.9386 119.647 58.1655C119.841 58.3857 119.941 58.6793 119.947 59.0463C119.947 59.3667 119.857 59.6536 119.677 59.9072C119.504 60.1608 119.25 60.361 118.916 60.5078C118.589 60.6479 118.206 60.718 117.765 60.718ZM126.333 55.0824V60.6279H124.922V59.9272C124.741 60.1675 124.504 60.3577 124.211 60.4978C123.924 60.6313 123.61 60.698 123.27 60.698C122.836 60.698 122.452 60.6079 122.119 60.4277C121.785 60.2409 121.521 59.9706 121.328 59.6169C121.141 59.2566 121.048 58.8295 121.048 58.3356V55.0824H122.449V58.1354C122.449 58.5759 122.559 58.9162 122.779 59.1565C123 59.39 123.3 59.5068 123.68 59.5068C124.067 59.5068 124.371 59.39 124.591 59.1565C124.811 58.9162 124.922 58.5759 124.922 58.1354V55.0824H126.333ZM128.426 54.4217C128.179 54.4217 127.973 54.345 127.806 54.1915C127.646 54.0313 127.566 53.8345 127.566 53.6009C127.566 53.3673 127.646 53.1738 127.806 53.0203C127.973 52.8602 128.179 52.7801 128.426 52.7801C128.673 52.7801 128.877 52.8602 129.037 53.0203C129.204 53.1738 129.287 53.3673 129.287 53.6009C129.287 53.8345 129.204 54.0313 129.037 54.1915C128.877 54.345 128.673 54.4217 128.426 54.4217ZM129.117 55.0824V60.6279H127.716V55.0824H129.117ZM132.133 56.2335V58.9162C132.133 59.1031 132.177 59.2399 132.263 59.3266C132.357 59.4067 132.51 59.4467 132.724 59.4467H133.375V60.6279H132.494C131.312 60.6279 130.722 60.054 130.722 58.9062V56.2335H130.061V55.0824H130.722V53.711H132.133V55.0824H133.375V56.2335H132.133ZM134.022 57.8351C134.022 57.2746 134.132 56.7774 134.352 56.3436C134.579 55.9099 134.883 55.5762 135.263 55.3426C135.65 55.1091 136.081 54.9923 136.555 54.9923C136.968 54.9923 137.329 55.0757 137.636 55.2425C137.949 55.4094 138.2 55.6196 138.386 55.8732V55.0824H139.798V60.6279H138.386V59.8171C138.206 60.0774 137.956 60.2943 137.636 60.4678C137.322 60.6346 136.958 60.718 136.545 60.718C136.078 60.718 135.65 60.5979 135.263 60.3577C134.883 60.1174 134.579 59.7804 134.352 59.3466C134.132 58.9062 134.022 58.4024 134.022 57.8351ZM138.386 57.8552C138.386 57.5148 138.32 57.2245 138.186 56.9843C138.053 56.7374 137.873 56.5505 137.646 56.4237C137.419 56.2903 137.175 56.2235 136.915 56.2235C136.655 56.2235 136.415 56.2869 136.194 56.4137C135.974 56.5405 135.794 56.7274 135.654 56.9743C135.52 57.2145 135.454 57.5015 135.454 57.8351C135.454 58.1688 135.52 58.4624 135.654 58.716C135.794 58.9629 135.974 59.1531 136.194 59.2866C136.421 59.4201 136.661 59.4868 136.915 59.4868C137.175 59.4868 137.419 59.4234 137.646 59.2966C137.873 59.1631 138.053 58.9763 138.186 58.736C138.32 58.4891 138.386 58.1955 138.386 57.8552ZM142.568 55.8932C142.748 55.6263 142.995 55.4094 143.309 55.2425C143.629 55.0757 143.993 54.9923 144.4 54.9923C144.874 54.9923 145.301 55.1091 145.681 55.3426C146.068 55.5762 146.372 55.9099 146.592 56.3436C146.819 56.7707 146.932 57.2679 146.932 57.8351C146.932 58.4024 146.819 58.9062 146.592 59.3466C146.372 59.7804 146.068 60.1174 145.681 60.3577C145.301 60.5979 144.874 60.718 144.4 60.718C143.986 60.718 143.622 60.6379 143.309 60.4778C143.002 60.3109 142.755 60.0974 142.568 59.8371V60.6279H141.167V53.2205H142.568V55.8932ZM145.501 57.8351C145.501 57.5015 145.431 57.2145 145.291 56.9743C145.157 56.7274 144.977 56.5405 144.75 56.4137C144.53 56.2869 144.29 56.2235 144.029 56.2235C143.776 56.2235 143.536 56.2903 143.309 56.4237C143.089 56.5505 142.908 56.7374 142.768 56.9843C142.635 57.2312 142.568 57.5215 142.568 57.8552C142.568 58.1888 142.635 58.4791 142.768 58.726C142.908 58.9729 143.089 59.1631 143.309 59.2966C143.536 59.4234 143.776 59.4868 144.029 59.4868C144.29 59.4868 144.53 59.4201 144.75 59.2866C144.977 59.1531 145.157 58.9629 145.291 58.716C145.431 58.4691 145.501 58.1755 145.501 57.8351ZM149.352 53.2205V60.6279H147.951V53.2205H149.352ZM155.892 57.735C155.892 57.9352 155.879 58.1154 155.852 58.2756H151.798C151.831 58.676 151.971 58.9896 152.218 59.2165C152.465 59.4434 152.769 59.5569 153.129 59.5569C153.65 59.5569 154.02 59.3333 154.24 58.8862H155.752C155.592 59.4201 155.285 59.8605 154.831 60.2075C154.377 60.5478 153.82 60.718 153.159 60.718C152.625 60.718 152.145 60.6012 151.718 60.3677C151.297 60.1274 150.967 59.7904 150.727 59.3567C150.493 58.9229 150.376 58.4224 150.376 57.8552C150.376 57.2813 150.493 56.7774 150.727 56.3436C150.96 55.9099 151.287 55.5762 151.708 55.3426C152.128 55.1091 152.612 54.9923 153.159 54.9923C153.686 54.9923 154.157 55.1057 154.571 55.3326C154.991 55.5595 155.315 55.8832 155.542 56.3036C155.775 56.7174 155.892 57.1945 155.892 57.735ZM154.44 57.3346C154.434 56.9743 154.304 56.6873 154.05 56.4738C153.796 56.2536 153.486 56.1434 153.119 56.1434C152.772 56.1434 152.478 56.2502 152.238 56.4638C152.005 56.6706 151.861 56.9609 151.808 57.3346H154.44ZM69.2455 72.8552C69.2455 72.2813 69.3623 71.7808 69.5958 71.3537C69.8294 70.9199 70.1531 70.5862 70.5668 70.3527C70.9806 70.1124 71.4544 69.9923 71.9882 69.9923C72.6756 69.9923 73.2428 70.1658 73.6899 70.5128C74.1437 70.8532 74.4474 71.3336 74.6008 71.9543H73.0893C73.0093 71.714 72.8724 71.5272 72.6789 71.3937C72.4921 71.2536 72.2585 71.1835 71.9782 71.1835C71.5778 71.1835 71.2608 71.3303 71.0273 71.6239C70.7937 71.9109 70.6769 72.3213 70.6769 72.8552C70.6769 73.3824 70.7937 73.7928 71.0273 74.0864C71.2608 74.3733 71.5778 74.5168 71.9782 74.5168C72.5455 74.5168 72.9158 74.2632 73.0893 73.7561H74.6008C74.4474 74.3567 74.1437 74.8338 73.6899 75.1875C73.2361 75.5412 72.6689 75.718 71.9882 75.718C71.4544 75.718 70.9806 75.6012 70.5668 75.3677C70.1531 75.1274 69.8294 74.7938 69.5958 74.3667C69.3623 73.9329 69.2455 73.4291 69.2455 72.8552ZM78.09 75.718C77.5561 75.718 77.0756 75.6012 76.6485 75.3677C76.2214 75.1274 75.8844 74.7904 75.6375 74.3567C75.3973 73.9229 75.2771 73.4224 75.2771 72.8552C75.2771 72.2879 75.4006 71.7874 75.6475 71.3537C75.9011 70.9199 76.2448 70.5862 76.6785 70.3527C77.1123 70.1124 77.5961 69.9923 78.13 69.9923C78.6639 69.9923 79.1477 70.1124 79.5814 70.3527C80.0152 70.5862 80.3555 70.9199 80.6025 71.3537C80.856 71.7874 80.9828 72.2879 80.9828 72.8552C80.9828 73.4224 80.8527 73.9229 80.5925 74.3567C80.3389 74.7904 79.9919 75.1274 79.5514 75.3677C79.1176 75.6012 78.6305 75.718 78.09 75.718ZM78.09 74.4968C78.3435 74.4968 78.5804 74.4367 78.8007 74.3166C79.0276 74.1898 79.2077 74.003 79.3412 73.7561C79.4747 73.5091 79.5414 73.2088 79.5414 72.8552C79.5414 72.328 79.4013 71.9242 79.121 71.6439C78.8474 71.357 78.5104 71.2135 78.11 71.2135C77.7096 71.2135 77.3726 71.357 77.099 71.6439C76.832 71.9242 76.6986 72.328 76.6986 72.8552C76.6986 73.3824 76.8287 73.7894 77.089 74.0764C77.3559 74.3567 77.6896 74.4968 78.09 74.4968ZM88.8977 70.0023C89.5784 70.0023 90.1256 70.2125 90.5393 70.6329C90.9598 71.0467 91.17 71.6273 91.17 72.3747V75.6279H89.7686V72.5649C89.7686 72.1311 89.6585 71.8008 89.4382 71.5739C89.218 71.3403 88.9177 71.2235 88.5373 71.2235C88.157 71.2235 87.8533 71.3403 87.6264 71.5739C87.4062 71.8008 87.2961 72.1311 87.2961 72.5649V75.6279H85.8947V72.5649C85.8947 72.1311 85.7846 71.8008 85.5644 71.5739C85.3442 71.3403 85.0439 71.2235 84.6635 71.2235C84.2764 71.2235 83.9694 71.3403 83.7426 71.5739C83.5223 71.8008 83.4122 72.1311 83.4122 72.5649V75.6279H82.0108V70.0824H83.4122V70.7531C83.5924 70.5195 83.8226 70.336 84.1029 70.2025C84.3899 70.069 84.7035 70.0023 85.0439 70.0023C85.4776 70.0023 85.8647 70.0957 86.205 70.2826C86.5454 70.4628 86.809 70.723 86.9958 71.0634C87.176 70.743 87.4362 70.4861 87.7766 70.2926C88.1236 70.0991 88.4973 70.0023 88.8977 70.0023ZM93.9012 70.8932C94.0814 70.6263 94.3283 70.4094 94.642 70.2425C94.9623 70.0757 95.326 69.9923 95.733 69.9923C96.2069 69.9923 96.6339 70.1091 97.0143 70.3426C97.4014 70.5762 97.705 70.9099 97.9252 71.3436C98.1521 71.7707 98.2656 72.2679 98.2656 72.8351C98.2656 73.4024 98.1521 73.9062 97.9252 74.3466C97.705 74.7804 97.4014 75.1174 97.0143 75.3577C96.6339 75.5979 96.2069 75.718 95.733 75.718C95.3193 75.718 94.9556 75.6379 94.642 75.4778C94.335 75.3109 94.0881 75.0974 93.9012 74.8371V75.6279H92.4998V68.2205H93.9012V70.8932ZM96.8341 72.8351C96.8341 72.5015 96.7641 72.2145 96.6239 71.9743C96.4905 71.7274 96.3103 71.5405 96.0834 71.4137C95.8632 71.2869 95.6229 71.2235 95.3627 71.2235C95.1091 71.2235 94.8689 71.2903 94.642 71.4237C94.4217 71.5505 94.2416 71.7374 94.1014 71.9843C93.968 72.2312 93.9012 72.5215 93.9012 72.8552C93.9012 73.1888 93.968 73.4791 94.1014 73.726C94.2416 73.9729 94.4217 74.1631 94.642 74.2966C94.8689 74.4234 95.1091 74.4868 95.3627 74.4868C95.6229 74.4868 95.8632 74.4201 96.0834 74.2866C96.3103 74.1531 96.4905 73.9629 96.6239 73.716C96.7641 73.4691 96.8341 73.1755 96.8341 72.8351ZM99.9946 69.4217C99.7477 69.4217 99.5409 69.345 99.374 69.1915C99.2139 69.0313 99.1338 68.8345 99.1338 68.6009C99.1338 68.3673 99.2139 68.1738 99.374 68.0203C99.5409 67.8602 99.7477 67.7801 99.9946 67.7801C100.242 67.7801 100.445 67.8602 100.605 68.0203C100.772 68.1738 100.856 68.3673 100.856 68.6009C100.856 68.8345 100.772 69.0313 100.605 69.1915C100.445 69.345 100.242 69.4217 99.9946 69.4217ZM100.685 70.0824V75.6279H99.2839V70.0824H100.685ZM105.143 70.0023C105.804 70.0023 106.338 70.2125 106.745 70.6329C107.152 71.0467 107.355 71.6273 107.355 72.3747V75.6279H105.954V72.5649C105.954 72.1244 105.844 71.7874 105.623 71.5539C105.403 71.3136 105.103 71.1935 104.723 71.1935C104.336 71.1935 104.029 71.3136 103.802 71.5539C103.581 71.7874 103.471 72.1244 103.471 72.5649V75.6279H102.07V70.0824H103.471V70.7731C103.658 70.5328 103.895 70.346 104.182 70.2125C104.476 70.0724 104.796 70.0023 105.143 70.0023ZM108.328 72.8351C108.328 72.2746 108.438 71.7774 108.658 71.3436C108.885 70.9099 109.188 70.5762 109.569 70.3426C109.956 70.1091 110.386 69.9923 110.86 69.9923C111.274 69.9923 111.634 70.0757 111.941 70.2425C112.255 70.4094 112.505 70.6196 112.692 70.8732V70.0824H114.103V75.6279H112.692V74.8171C112.512 75.0774 112.261 75.2943 111.941 75.4678C111.627 75.6346 111.264 75.718 110.85 75.718C110.383 75.718 109.956 75.5979 109.569 75.3577C109.188 75.1174 108.885 74.7804 108.658 74.3466C108.438 73.9062 108.328 73.4024 108.328 72.8351ZM112.692 72.8552C112.692 72.5148 112.625 72.2245 112.492 71.9843C112.358 71.7374 112.178 71.5505 111.951 71.4237C111.724 71.2903 111.481 71.2235 111.22 71.2235C110.96 71.2235 110.72 71.2869 110.5 71.4137C110.279 71.5405 110.099 71.7274 109.959 71.9743C109.826 72.2145 109.759 72.5015 109.759 72.8351C109.759 73.1688 109.826 73.4624 109.959 73.716C110.099 73.9629 110.279 74.1531 110.5 74.2866C110.727 74.4201 110.967 74.4868 111.22 74.4868C111.481 74.4868 111.724 74.4234 111.951 74.2966C112.178 74.1631 112.358 73.9763 112.492 73.736C112.625 73.4891 112.692 73.1955 112.692 72.8552ZM117.104 71.2335V73.9162C117.104 74.1031 117.147 74.2399 117.234 74.3266C117.327 74.4067 117.481 74.4467 117.694 74.4467H118.345V75.6279H117.464C116.283 75.6279 115.692 75.054 115.692 73.9062V71.2335H115.032V70.0824H115.692V68.711H117.104V70.0824H118.345V71.2335H117.104ZM120.064 69.4217C119.817 69.4217 119.61 69.345 119.443 69.1915C119.283 69.0313 119.203 68.8345 119.203 68.6009C119.203 68.3673 119.283 68.1738 119.443 68.0203C119.61 67.8602 119.817 67.7801 120.064 67.7801C120.31 67.7801 120.514 67.8602 120.674 68.0203C120.841 68.1738 120.924 68.3673 120.924 68.6009C120.924 68.8345 120.841 69.0313 120.674 69.1915C120.514 69.345 120.31 69.4217 120.064 69.4217ZM120.754 70.0824V75.6279H119.353V70.0824H120.754ZM124.601 75.718C124.067 75.718 123.587 75.6012 123.16 75.3677C122.733 75.1274 122.396 74.7904 122.149 74.3567C121.909 73.9229 121.788 73.4224 121.788 72.8552C121.788 72.2879 121.912 71.7874 122.159 71.3537C122.412 70.9199 122.756 70.5862 123.19 70.3527C123.624 70.1124 124.107 69.9923 124.641 69.9923C125.175 69.9923 125.659 70.1124 126.093 70.3527C126.527 70.5862 126.867 70.9199 127.114 71.3537C127.367 71.7874 127.494 72.2879 127.494 72.8552C127.494 73.4224 127.364 73.9229 127.104 74.3567C126.85 74.7904 126.503 75.1274 126.063 75.3677C125.629 75.6012 125.142 75.718 124.601 75.718ZM124.601 74.4968C124.855 74.4968 125.092 74.4367 125.312 74.3166C125.539 74.1898 125.719 74.003 125.853 73.7561C125.986 73.5091 126.053 73.2088 126.053 72.8552C126.053 72.328 125.913 71.9242 125.632 71.6439C125.359 71.357 125.022 71.2135 124.621 71.2135C124.221 71.2135 123.884 71.357 123.61 71.6439C123.343 71.9242 123.21 72.328 123.21 72.8552C123.21 73.3824 123.34 73.7894 123.6 74.0764C123.867 74.3567 124.201 74.4968 124.601 74.4968ZM131.595 70.0023C132.256 70.0023 132.79 70.2125 133.197 70.6329C133.604 71.0467 133.807 71.6273 133.807 72.3747V75.6279H132.406V72.5649C132.406 72.1244 132.296 71.7874 132.076 71.5539C131.855 71.3136 131.555 71.1935 131.175 71.1935C130.788 71.1935 130.481 71.3136 130.254 71.5539C130.034 71.7874 129.924 72.1244 129.924 72.5649V75.6279H128.522V70.0824H129.924V70.7731C130.11 70.5328 130.347 70.346 130.634 70.2125C130.928 70.0724 131.248 70.0023 131.595 70.0023ZM137.262 75.718C136.808 75.718 136.401 75.6379 136.041 75.4778C135.681 75.3109 135.394 75.0874 135.18 74.8071C134.973 74.5268 134.86 74.2165 134.84 73.8762H136.251C136.278 74.0897 136.381 74.2666 136.561 74.4067C136.748 74.5468 136.979 74.6169 137.252 74.6169C137.519 74.6169 137.726 74.5635 137.873 74.4568C138.026 74.35 138.103 74.2132 138.103 74.0463C138.103 73.8662 138.01 73.7327 137.823 73.6459C137.643 73.5525 137.352 73.4524 136.952 73.3456C136.538 73.2455 136.198 73.1421 135.931 73.0353C135.671 72.9286 135.444 72.7651 135.25 72.5448C135.063 72.3246 134.97 72.0277 134.97 71.654C134.97 71.347 135.057 71.0667 135.23 70.8131C135.41 70.5595 135.664 70.3593 135.991 70.2125C136.325 70.0657 136.715 69.9923 137.162 69.9923C137.823 69.9923 138.35 70.1591 138.744 70.4928C139.137 70.8198 139.354 71.2636 139.394 71.8241H138.053C138.033 71.6039 137.94 71.4304 137.773 71.3036C137.613 71.1701 137.396 71.1034 137.122 71.1034C136.868 71.1034 136.672 71.1501 136.531 71.2435C136.398 71.337 136.331 71.4671 136.331 71.6339C136.331 71.8208 136.425 71.9643 136.612 72.0644C136.798 72.1578 137.089 72.2546 137.482 72.3547C137.883 72.4548 138.213 72.5582 138.473 72.665C138.734 72.7717 138.957 72.9386 139.144 73.1655C139.338 73.3857 139.438 73.6793 139.444 74.0463C139.444 74.3667 139.354 74.6536 139.174 74.9072C139.001 75.1608 138.747 75.361 138.413 75.5078C138.086 75.6479 137.703 75.718 137.262 75.718Z" fill="#FFB8BC" />
    <defs>
        <filter id="filter0_d_1617_34" x="0.80582" y="0.702528" width="207.207" height="122.26" filterUnits="userSpaceOnUse" color-interpolation-filters="sRGB">
            <feFlood flood-opacity="0" result="BackgroundImageFix" />
            <feColorMatrix in="SourceAlpha" type="matrix" values="0 0 0 0 0 0 0 0 0 0 0 0 0 0 0 0 0 0 127 0" result="hardAlpha" />
            <feOffset dy="2.88401" />
            <feGaussianBlur stdDeviation="4.50627" />
            <feComposite in2="hardAlpha" operator="out" />
            <feColorMatrix type="matrix" values="0 0 0 0 0.298039 0 0 0 0 0.164706 0 0 0 0 0.462745 0 0 0 0.55 0" />
            <feBlend mode="normal" in2="BackgroundImageFix" result="effect1_dropShadow_1617_34" />
            <feBlend mode="normal" in="SourceGraphic" in2="effect1_dropShadow_1617_34" result="shape" />
        </filter>
        <filter id="filter1_d_1617_34" x="76.1269" y="87.9888" width="57.0329" height="48.6632" filterUnits="userSpaceOnUse" color-interpolation-filters="sRGB">
            <feFlood flood-opacity="0" result="BackgroundImageFix" />
            <feColorMatrix in="SourceAlpha" type="matrix" values="0 0 0 0 0 0 0 0 0 0 0 0 0 0 0 0 0 0 127 0" result="hardAlpha" />
            <feOffset dy="1.44201" />
            <feGaussianBlur stdDeviation="3.60502" />
            <feComposite in2="hardAlpha" operator="out" />
            <feColorMatrix type="matrix" values="0 0 0 0 0 0 0 0 0 0 0 0 0 0 0 0 0 0 0.2 0" />
            <feBlend mode="normal" in2="BackgroundImageFix" result="effect1_dropShadow_1617_34" />
            <feBlend mode="normal" in="SourceGraphic" in2="effect1_dropShadow_1617_34" result="shape" />
        </filter>
    </defs>
</svg>
    