<svg width="400" height="240" viewBox="0 0 478 363" fill="none" xmlns="http://www.w3.org/2000/svg">
    <g filter="url(#filter0_d_1926_174)">
        <rect x="25" y="17" width="428" height="277" rx="41" fill="#4C2A76" />
    </g>
    <g filter="url(#filter1_d_1926_174)">
        <circle cx="239.5" cy="293.5" r="45.5" fill="white" />
    </g>
    <path d="M110.021 67.166H102.164L100.814 71H97.6011L104.324 52.208H107.888L114.611 71H111.371L110.021 67.166ZM109.157 64.655L106.106 55.934L103.028 64.655H109.157ZM120.612 58.283C121.062 57.527 121.656 56.942 122.394 56.528C123.15 56.096 124.041 55.88 125.067 55.88V59.066H124.284C123.078 59.066 122.16 59.372 121.53 59.984C120.918 60.596 120.612 61.658 120.612 63.17V71H117.534V56.123H120.612V58.283ZM141.532 63.197C141.532 63.755 141.496 64.259 141.424 64.709H130.057C130.147 65.897 130.588 66.851 131.38 67.571C132.172 68.291 133.144 68.651 134.296 68.651C135.952 68.651 137.122 67.958 137.806 66.572H141.127C140.677 67.94 139.858 69.065 138.67 69.947C137.5 70.811 136.042 71.243 134.296 71.243C132.874 71.243 131.596 70.928 130.462 70.298C129.346 69.65 128.464 68.75 127.816 67.598C127.186 66.428 126.871 65.078 126.871 63.548C126.871 62.018 127.177 60.677 127.789 59.525C128.419 58.355 129.292 57.455 130.408 56.825C131.542 56.195 132.838 55.88 134.296 55.88C135.7 55.88 136.951 56.186 138.049 56.798C139.147 57.41 140.002 58.274 140.614 59.39C141.226 60.488 141.532 61.757 141.532 63.197ZM138.319 62.225C138.301 61.091 137.896 60.182 137.104 59.498C136.312 58.814 135.331 58.472 134.161 58.472C133.099 58.472 132.19 58.814 131.434 59.498C130.678 60.164 130.228 61.073 130.084 62.225H138.319ZM164.966 56.123L155.84 77.993H152.654L155.678 70.757L149.819 56.123H153.248L157.433 67.463L161.78 56.123H164.966ZM173.742 71.243C172.338 71.243 171.069 70.928 169.935 70.298C168.801 69.65 167.91 68.75 167.262 67.598C166.614 66.428 166.29 65.078 166.29 63.548C166.29 62.036 166.623 60.695 167.289 59.525C167.955 58.355 168.864 57.455 170.016 56.825C171.168 56.195 172.455 55.88 173.877 55.88C175.299 55.88 176.586 56.195 177.738 56.825C178.89 57.455 179.799 58.355 180.465 59.525C181.131 60.695 181.464 62.036 181.464 63.548C181.464 65.06 181.122 66.401 180.438 67.571C179.754 68.741 178.818 69.65 177.63 70.298C176.46 70.928 175.164 71.243 173.742 71.243ZM173.742 68.57C174.534 68.57 175.272 68.381 175.956 68.003C176.658 67.625 177.225 67.058 177.657 66.302C178.089 65.546 178.305 64.628 178.305 63.548C178.305 62.468 178.098 61.559 177.684 60.821C177.27 60.065 176.721 59.498 176.037 59.12C175.353 58.742 174.615 58.553 173.823 58.553C173.031 58.553 172.293 58.742 171.609 59.12C170.943 59.498 170.412 60.065 170.016 60.821C169.62 61.559 169.422 62.468 169.422 63.548C169.422 65.15 169.827 66.392 170.637 67.274C171.465 68.138 172.5 68.57 173.742 68.57ZM197.98 56.123V71H194.902V69.245C194.416 69.857 193.777 70.343 192.985 70.703C192.211 71.045 191.383 71.216 190.501 71.216C189.331 71.216 188.278 70.973 187.342 70.487C186.424 70.001 185.695 69.281 185.155 68.327C184.633 67.373 184.372 66.221 184.372 64.871V56.123H187.423V64.412C187.423 65.744 187.756 66.77 188.422 67.49C189.088 68.192 189.997 68.543 191.149 68.543C192.301 68.543 193.21 68.192 193.876 67.49C194.56 66.77 194.902 65.744 194.902 64.412V56.123H197.98ZM222.69 63.197C222.69 63.755 222.654 64.259 222.582 64.709H211.215C211.305 65.897 211.746 66.851 212.538 67.571C213.33 68.291 214.302 68.651 215.454 68.651C217.11 68.651 218.28 67.958 218.964 66.572H222.285C221.835 67.94 221.016 69.065 219.828 69.947C218.658 70.811 217.2 71.243 215.454 71.243C214.032 71.243 212.754 70.928 211.62 70.298C210.504 69.65 209.622 68.75 208.974 67.598C208.344 66.428 208.029 65.078 208.029 63.548C208.029 62.018 208.335 60.677 208.947 59.525C209.577 58.355 210.45 57.455 211.566 56.825C212.7 56.195 213.996 55.88 215.454 55.88C216.858 55.88 218.109 56.186 219.207 56.798C220.305 57.41 221.16 58.274 221.772 59.39C222.384 60.488 222.69 61.757 222.69 63.197ZM219.477 62.225C219.459 61.091 219.054 60.182 218.262 59.498C217.47 58.814 216.489 58.472 215.319 58.472C214.257 58.472 213.348 58.814 212.592 59.498C211.836 60.164 211.386 61.073 211.242 62.225H219.477ZM233.225 55.88C234.395 55.88 235.439 56.123 236.357 56.609C237.293 57.095 238.022 57.815 238.544 58.769C239.066 59.723 239.327 60.875 239.327 62.225V71H236.276V62.684C236.276 61.352 235.943 60.335 235.277 59.633C234.611 58.913 233.702 58.553 232.55 58.553C231.398 58.553 230.48 58.913 229.796 59.633C229.13 60.335 228.797 61.352 228.797 62.684V71H225.719V56.123H228.797V57.824C229.301 57.212 229.94 56.735 230.714 56.393C231.506 56.051 232.343 55.88 233.225 55.88ZM249.004 68.246L253.216 56.123H256.483L250.813 71H247.141L241.498 56.123H244.792L249.004 68.246ZM260.376 54.152C259.818 54.152 259.35 53.963 258.972 53.585C258.594 53.207 258.405 52.739 258.405 52.181C258.405 51.623 258.594 51.155 258.972 50.777C259.35 50.399 259.818 50.21 260.376 50.21C260.916 50.21 261.375 50.399 261.753 50.777C262.131 51.155 262.32 51.623 262.32 52.181C262.32 52.739 262.131 53.207 261.753 53.585C261.375 53.963 260.916 54.152 260.376 54.152ZM261.888 56.123V71H258.81V56.123H261.888ZM269.007 58.283C269.457 57.527 270.051 56.942 270.789 56.528C271.545 56.096 272.436 55.88 273.462 55.88V59.066H272.679C271.473 59.066 270.555 59.372 269.925 59.984C269.313 60.596 269.007 61.658 269.007 63.17V71H265.929V56.123H269.007V58.283ZM282.744 71.243C281.34 71.243 280.071 70.928 278.937 70.298C277.803 69.65 276.912 68.75 276.264 67.598C275.616 66.428 275.292 65.078 275.292 63.548C275.292 62.036 275.625 60.695 276.291 59.525C276.957 58.355 277.866 57.455 279.018 56.825C280.17 56.195 281.457 55.88 282.879 55.88C284.301 55.88 285.588 56.195 286.74 56.825C287.892 57.455 288.801 58.355 289.467 59.525C290.133 60.695 290.466 62.036 290.466 63.548C290.466 65.06 290.124 66.401 289.44 67.571C288.756 68.741 287.82 69.65 286.632 70.298C285.462 70.928 284.166 71.243 282.744 71.243ZM282.744 68.57C283.536 68.57 284.274 68.381 284.958 68.003C285.66 67.625 286.227 67.058 286.659 66.302C287.091 65.546 287.307 64.628 287.307 63.548C287.307 62.468 287.1 61.559 286.686 60.821C286.272 60.065 285.723 59.498 285.039 59.12C284.355 58.742 283.617 58.553 282.825 58.553C282.033 58.553 281.295 58.742 280.611 59.12C279.945 59.498 279.414 60.065 279.018 60.821C278.622 61.559 278.424 62.468 278.424 63.548C278.424 65.15 278.829 66.392 279.639 67.274C280.467 68.138 281.502 68.57 282.744 68.57ZM301.015 55.88C302.185 55.88 303.229 56.123 304.147 56.609C305.083 57.095 305.812 57.815 306.334 58.769C306.856 59.723 307.117 60.875 307.117 62.225V71H304.066V62.684C304.066 61.352 303.733 60.335 303.067 59.633C302.401 58.913 301.492 58.553 300.34 58.553C299.188 58.553 298.27 58.913 297.586 59.633C296.92 60.335 296.587 61.352 296.587 62.684V71H293.509V56.123H296.587V57.824C297.091 57.212 297.73 56.735 298.504 56.393C299.296 56.051 300.133 55.88 301.015 55.88ZM329.052 55.88C330.222 55.88 331.266 56.123 332.184 56.609C333.12 57.095 333.849 57.815 334.371 58.769C334.911 59.723 335.181 60.875 335.181 62.225V71H332.13V62.684C332.13 61.352 331.797 60.335 331.131 59.633C330.465 58.913 329.556 58.553 328.404 58.553C327.252 58.553 326.334 58.913 325.65 59.633C324.984 60.335 324.651 61.352 324.651 62.684V71H321.6V62.684C321.6 61.352 321.267 60.335 320.601 59.633C319.935 58.913 319.026 58.553 317.874 58.553C316.722 58.553 315.804 58.913 315.12 59.633C314.454 60.335 314.121 61.352 314.121 62.684V71H311.043V56.123H314.121V57.824C314.625 57.212 315.264 56.735 316.038 56.393C316.812 56.051 317.64 55.88 318.522 55.88C319.71 55.88 320.772 56.132 321.708 56.636C322.644 57.14 323.364 57.869 323.868 58.823C324.318 57.923 325.02 57.212 325.974 56.69C326.928 56.15 327.954 55.88 329.052 55.88ZM352.733 63.197C352.733 63.755 352.697 64.259 352.625 64.709H341.258C341.348 65.897 341.789 66.851 342.581 67.571C343.373 68.291 344.345 68.651 345.497 68.651C347.153 68.651 348.323 67.958 349.007 66.572H352.328C351.878 67.94 351.059 69.065 349.871 69.947C348.701 70.811 347.243 71.243 345.497 71.243C344.075 71.243 342.797 70.928 341.663 70.298C340.547 69.65 339.665 68.75 339.017 67.598C338.387 66.428 338.072 65.078 338.072 63.548C338.072 62.018 338.378 60.677 338.99 59.525C339.62 58.355 340.493 57.455 341.609 56.825C342.743 56.195 344.039 55.88 345.497 55.88C346.901 55.88 348.152 56.186 349.25 56.798C350.348 57.41 351.203 58.274 351.815 59.39C352.427 60.488 352.733 61.757 352.733 63.197ZM349.52 62.225C349.502 61.091 349.097 60.182 348.305 59.498C347.513 58.814 346.532 58.472 345.362 58.472C344.3 58.472 343.391 58.814 342.635 59.498C341.879 60.164 341.429 61.073 341.285 62.225H349.52ZM363.268 55.88C364.438 55.88 365.482 56.123 366.4 56.609C367.336 57.095 368.065 57.815 368.587 58.769C369.109 59.723 369.37 60.875 369.37 62.225V71H366.319V62.684C366.319 61.352 365.986 60.335 365.32 59.633C364.654 58.913 363.745 58.553 362.593 58.553C361.441 58.553 360.523 58.913 359.839 59.633C359.173 60.335 358.84 61.352 358.84 62.684V71H355.762V56.123H358.84V57.824C359.344 57.212 359.983 56.735 360.757 56.393C361.549 56.051 362.386 55.88 363.268 55.88ZM376.887 58.634V66.869C376.887 67.427 377.013 67.832 377.265 68.084C377.535 68.318 377.985 68.435 378.615 68.435H380.505V71H378.075C376.689 71 375.627 70.676 374.889 70.028C374.151 69.38 373.782 68.327 373.782 66.869V58.634H372.027V56.123H373.782V52.424H376.887V56.123H380.505V58.634H376.887ZM189.109 87.634H186.355V100H183.25V87.634H181.495V85.123H183.25V84.07C183.25 82.36 183.7 81.118 184.6 80.344C185.518 79.552 186.949 79.156 188.893 79.156V81.721C187.957 81.721 187.3 81.901 186.922 82.261C186.544 82.603 186.355 83.206 186.355 84.07V85.123H189.109V87.634ZM194.915 87.283C195.365 86.527 195.959 85.942 196.697 85.528C197.453 85.096 198.344 84.88 199.37 84.88V88.066H198.587C197.381 88.066 196.463 88.372 195.833 88.984C195.221 89.596 194.915 90.658 194.915 92.17V100H191.837V85.123H194.915V87.283ZM203.765 83.152C203.207 83.152 202.739 82.963 202.361 82.585C201.983 82.207 201.794 81.739 201.794 81.181C201.794 80.623 201.983 80.155 202.361 79.777C202.739 79.399 203.207 79.21 203.765 79.21C204.305 79.21 204.764 79.399 205.142 79.777C205.52 80.155 205.709 80.623 205.709 81.181C205.709 81.739 205.52 82.207 205.142 82.585C204.764 82.963 204.305 83.152 203.765 83.152ZM205.277 85.123V100H202.199V85.123H205.277ZM222.953 92.197C222.953 92.755 222.917 93.259 222.845 93.709H211.478C211.568 94.897 212.009 95.851 212.801 96.571C213.593 97.291 214.565 97.651 215.717 97.651C217.373 97.651 218.543 96.958 219.227 95.572H222.548C222.098 96.94 221.279 98.065 220.091 98.947C218.921 99.811 217.463 100.243 215.717 100.243C214.295 100.243 213.017 99.928 211.883 99.298C210.767 98.65 209.885 97.75 209.237 96.598C208.607 95.428 208.292 94.078 208.292 92.548C208.292 91.018 208.598 89.677 209.21 88.525C209.84 87.355 210.713 86.455 211.829 85.825C212.963 85.195 214.259 84.88 215.717 84.88C217.121 84.88 218.372 85.186 219.47 85.798C220.568 86.41 221.423 87.274 222.035 88.39C222.647 89.488 222.953 90.757 222.953 92.197ZM219.74 91.225C219.722 90.091 219.317 89.182 218.525 88.498C217.733 87.814 216.752 87.472 215.582 87.472C214.52 87.472 213.611 87.814 212.855 88.498C212.099 89.164 211.649 90.073 211.505 91.225H219.74ZM233.489 84.88C234.659 84.88 235.703 85.123 236.621 85.609C237.557 86.095 238.286 86.815 238.808 87.769C239.33 88.723 239.591 89.875 239.591 91.225V100H236.54V91.684C236.54 90.352 236.207 89.335 235.541 88.633C234.875 87.913 233.966 87.553 232.814 87.553C231.662 87.553 230.744 87.913 230.06 88.633C229.394 89.335 229.061 90.352 229.061 91.684V100H225.983V85.123H229.061V86.824C229.565 86.212 230.204 85.735 230.978 85.393C231.77 85.051 232.607 84.88 233.489 84.88ZM242.491 92.494C242.491 91 242.797 89.677 243.409 88.525C244.039 87.373 244.885 86.482 245.947 85.852C247.027 85.204 248.224 84.88 249.538 84.88C250.51 84.88 251.464 85.096 252.4 85.528C253.354 85.942 254.11 86.5 254.668 87.202V80.02H257.773V100H254.668V97.759C254.164 98.479 253.462 99.073 252.562 99.541C251.68 100.009 250.663 100.243 249.511 100.243C248.215 100.243 247.027 99.919 245.947 99.271C244.885 98.605 244.039 97.687 243.409 96.517C242.797 95.329 242.491 93.988 242.491 92.494ZM254.668 92.548C254.668 91.522 254.452 90.631 254.02 89.875C253.606 89.119 253.057 88.543 252.373 88.147C251.689 87.751 250.951 87.553 250.159 87.553C249.367 87.553 248.629 87.751 247.945 88.147C247.261 88.525 246.703 89.092 246.271 89.848C245.857 90.586 245.65 91.468 245.65 92.494C245.65 93.52 245.857 94.42 246.271 95.194C246.703 95.968 247.261 96.562 247.945 96.976C248.647 97.372 249.385 97.57 250.159 97.57C250.951 97.57 251.689 97.372 252.373 96.976C253.057 96.58 253.606 96.004 254.02 95.248C254.452 94.474 254.668 93.574 254.668 92.548ZM264.894 80.02V100H261.816V80.02H264.894ZM282.327 85.123L273.201 106.993H270.015L273.039 99.757L267.18 85.123H270.609L274.794 96.463L279.141 85.123H282.327ZM289.699 80.965C291.535 80.965 293.002 81.469 294.1 82.477C295.216 83.485 295.774 84.862 295.774 86.608C295.774 88.426 295.198 89.794 294.046 90.712C292.894 91.63 291.364 92.089 289.456 92.089L289.348 94.222H286.675L286.54 89.983H287.431C289.177 89.983 290.509 89.749 291.427 89.281C292.363 88.813 292.831 87.922 292.831 86.608C292.831 85.654 292.552 84.907 291.994 84.367C291.454 83.827 290.698 83.557 289.726 83.557C288.754 83.557 287.989 83.818 287.431 84.34C286.873 84.862 286.594 85.591 286.594 86.527H283.705C283.705 85.447 283.948 84.484 284.434 83.638C284.92 82.792 285.613 82.135 286.513 81.667C287.431 81.199 288.493 80.965 289.699 80.965ZM287.971 100.189C287.413 100.189 286.945 100 286.567 99.622C286.189 99.244 286 98.776 286 98.218C286 97.66 286.189 97.192 286.567 96.814C286.945 96.436 287.413 96.247 287.971 96.247C288.511 96.247 288.97 96.436 289.348 96.814C289.726 97.192 289.915 97.66 289.915 98.218C289.915 98.776 289.726 99.244 289.348 99.622C288.97 100 288.511 100.189 287.971 100.189Z" fill="#FFB8BC" />
    <path d="M127.94 166.189C126.176 166.189 124.556 165.775 123.08 164.947C121.604 164.119 120.434 162.976 119.57 161.518C118.706 160.042 118.274 158.377 118.274 156.523C118.274 154.687 118.706 153.04 119.57 151.582C120.434 150.106 121.604 148.954 123.08 148.126C124.556 147.298 126.176 146.884 127.94 146.884C129.722 146.884 131.342 147.298 132.8 148.126C134.276 148.954 135.437 150.106 136.283 151.582C137.147 153.04 137.579 154.687 137.579 156.523C137.579 158.377 137.147 160.042 136.283 161.518C135.437 162.976 134.276 164.119 132.8 164.947C131.324 165.775 129.704 166.189 127.94 166.189ZM127.94 162.814C129.074 162.814 130.073 162.562 130.937 162.058C131.801 161.536 132.476 160.798 132.962 159.844C133.448 158.89 133.691 157.783 133.691 156.523C133.691 155.263 133.448 154.165 132.962 153.229C132.476 152.275 131.801 151.546 130.937 151.042C130.073 150.538 129.074 150.286 127.94 150.286C126.806 150.286 125.798 150.538 124.916 151.042C124.052 151.546 123.377 152.275 122.891 153.229C122.405 154.165 122.162 155.263 122.162 156.523C122.162 157.783 122.405 158.89 122.891 159.844C123.377 160.798 124.052 161.536 124.916 162.058C125.798 162.562 126.806 162.814 127.94 162.814ZM154.512 151.042V166H150.705V164.11C150.219 164.758 149.58 165.271 148.788 165.649C148.014 166.009 147.168 166.189 146.25 166.189C145.08 166.189 144.045 165.946 143.145 165.46C142.245 164.956 141.534 164.227 141.012 163.273C140.508 162.301 140.256 161.149 140.256 159.817V151.042H144.036V159.277C144.036 160.465 144.333 161.383 144.927 162.031C145.521 162.661 146.331 162.976 147.357 162.976C148.401 162.976 149.22 162.661 149.814 162.031C150.408 161.383 150.705 160.465 150.705 159.277V151.042H154.512ZM162.021 153.364C162.507 152.572 163.137 151.951 163.911 151.501C164.703 151.051 165.603 150.826 166.611 150.826V154.795H165.612C164.424 154.795 163.524 155.074 162.912 155.632C162.318 156.19 162.021 157.162 162.021 158.548V166H158.241V151.042H162.021V153.364ZM182.233 166.243C180.793 166.243 179.497 165.928 178.345 165.298C177.193 164.65 176.284 163.741 175.618 162.571C174.97 161.401 174.646 160.051 174.646 158.521C174.646 156.991 174.979 155.641 175.645 154.471C176.329 153.301 177.256 152.401 178.426 151.771C179.596 151.123 180.901 150.799 182.341 150.799C183.781 150.799 185.086 151.123 186.256 151.771C187.426 152.401 188.344 153.301 189.01 154.471C189.694 155.641 190.036 156.991 190.036 158.521C190.036 160.051 189.685 161.401 188.983 162.571C188.299 163.741 187.363 164.65 186.175 165.298C185.005 165.928 183.691 166.243 182.233 166.243ZM182.233 162.949C182.917 162.949 183.556 162.787 184.15 162.463C184.762 162.121 185.248 161.617 185.608 160.951C185.968 160.285 186.148 159.475 186.148 158.521C186.148 157.099 185.77 156.01 185.014 155.254C184.276 154.48 183.367 154.093 182.287 154.093C181.207 154.093 180.298 154.48 179.56 155.254C178.84 156.01 178.48 157.099 178.48 158.521C178.48 159.943 178.831 161.041 179.533 161.815C180.253 162.571 181.153 162.949 182.233 162.949ZM196.589 153.202C197.075 152.518 197.741 151.951 198.587 151.501C199.451 151.033 200.432 150.799 201.53 150.799C202.808 150.799 203.96 151.114 204.986 151.744C206.03 152.374 206.849 153.274 207.443 154.444C208.055 155.596 208.361 156.937 208.361 158.467C208.361 159.997 208.055 161.356 207.443 162.544C206.849 163.714 206.03 164.623 204.986 165.271C203.96 165.919 202.808 166.243 201.53 166.243C200.432 166.243 199.46 166.018 198.614 165.568C197.786 165.118 197.111 164.551 196.589 163.867V173.128H192.809V151.042H196.589V153.202ZM204.5 158.467C204.5 157.567 204.311 156.793 203.933 156.145C203.573 155.479 203.087 154.975 202.475 154.633C201.881 154.291 201.233 154.12 200.531 154.12C199.847 154.12 199.199 154.3 198.587 154.66C197.993 155.002 197.507 155.506 197.129 156.172C196.769 156.838 196.589 157.621 196.589 158.521C196.589 159.421 196.769 160.204 197.129 160.87C197.507 161.536 197.993 162.049 198.587 162.409C199.199 162.751 199.847 162.922 200.531 162.922C201.233 162.922 201.881 162.742 202.475 162.382C203.087 162.022 203.573 161.509 203.933 160.843C204.311 160.177 204.5 159.385 204.5 158.467ZM215.509 154.147V161.383C215.509 161.887 215.626 162.256 215.86 162.49C216.112 162.706 216.526 162.814 217.102 162.814H218.857V166H216.481C213.295 166 211.702 164.452 211.702 161.356V154.147H209.92V151.042H211.702V147.343H215.509V151.042H218.857V154.147H215.509ZM223.492 149.26C222.826 149.26 222.268 149.053 221.818 148.639C221.386 148.207 221.17 147.676 221.17 147.046C221.17 146.416 221.386 145.894 221.818 145.48C222.268 145.048 222.826 144.832 223.492 144.832C224.158 144.832 224.707 145.048 225.139 145.48C225.589 145.894 225.814 146.416 225.814 147.046C225.814 147.676 225.589 148.207 225.139 148.639C224.707 149.053 224.158 149.26 223.492 149.26ZM225.355 151.042V166H221.575V151.042H225.355ZM235.732 166.243C234.292 166.243 232.996 165.928 231.844 165.298C230.692 164.65 229.783 163.741 229.117 162.571C228.469 161.401 228.145 160.051 228.145 158.521C228.145 156.991 228.478 155.641 229.144 154.471C229.828 153.301 230.755 152.401 231.925 151.771C233.095 151.123 234.4 150.799 235.84 150.799C237.28 150.799 238.585 151.123 239.755 151.771C240.925 152.401 241.843 153.301 242.509 154.471C243.193 155.641 243.535 156.991 243.535 158.521C243.535 160.051 243.184 161.401 242.482 162.571C241.798 163.741 240.862 164.65 239.674 165.298C238.504 165.928 237.19 166.243 235.732 166.243ZM235.732 162.949C236.416 162.949 237.055 162.787 237.649 162.463C238.261 162.121 238.747 161.617 239.107 160.951C239.467 160.285 239.647 159.475 239.647 158.521C239.647 157.099 239.269 156.01 238.513 155.254C237.775 154.48 236.866 154.093 235.786 154.093C234.706 154.093 233.797 154.48 233.059 155.254C232.339 156.01 231.979 157.099 231.979 158.521C231.979 159.943 232.33 161.041 233.032 161.815C233.752 162.571 234.652 162.949 235.732 162.949ZM254.597 150.826C256.379 150.826 257.819 151.393 258.917 152.527C260.015 153.643 260.564 155.209 260.564 157.225V166H256.784V157.738C256.784 156.55 256.487 155.641 255.893 155.011C255.299 154.363 254.489 154.039 253.463 154.039C252.419 154.039 251.591 154.363 250.979 155.011C250.385 155.641 250.088 156.55 250.088 157.738V166H246.308V151.042H250.088V152.905C250.592 152.257 251.231 151.753 252.005 151.393C252.797 151.015 253.661 150.826 254.597 150.826ZM269.882 166.243C268.658 166.243 267.56 166.027 266.588 165.595C265.616 165.145 264.842 164.542 264.266 163.786C263.708 163.03 263.402 162.193 263.348 161.275H267.155C267.227 161.851 267.506 162.328 267.992 162.706C268.496 163.084 269.117 163.273 269.855 163.273C270.575 163.273 271.133 163.129 271.529 162.841C271.943 162.553 272.15 162.184 272.15 161.734C272.15 161.248 271.898 160.888 271.394 160.654C270.908 160.402 270.125 160.132 269.045 159.844C267.929 159.574 267.011 159.295 266.291 159.007C265.589 158.719 264.977 158.278 264.455 157.684C263.951 157.09 263.699 156.289 263.699 155.281C263.699 154.453 263.933 153.697 264.401 153.013C264.887 152.329 265.571 151.789 266.453 151.393C267.353 150.997 268.406 150.799 269.612 150.799C271.394 150.799 272.816 151.249 273.878 152.149C274.94 153.031 275.525 154.228 275.633 155.74H272.015C271.961 155.146 271.709 154.678 271.259 154.336C270.827 153.976 270.242 153.796 269.504 153.796C268.82 153.796 268.289 153.922 267.911 154.174C267.551 154.426 267.371 154.777 267.371 155.227C267.371 155.731 267.623 156.118 268.127 156.388C268.631 156.64 269.414 156.901 270.476 157.171C271.556 157.441 272.447 157.72 273.149 158.008C273.851 158.296 274.454 158.746 274.958 159.358C275.48 159.952 275.75 160.744 275.768 161.734C275.768 162.598 275.525 163.372 275.039 164.056C274.571 164.74 273.887 165.28 272.987 165.676C272.105 166.054 271.07 166.243 269.882 166.243ZM306.041 151.042L301.667 166H297.59L294.863 155.551L292.136 166H288.032L283.631 151.042H287.465L290.111 162.436L292.973 151.042H296.969L299.777 162.409L302.423 151.042H306.041ZM314.728 166.243C313.288 166.243 311.992 165.928 310.84 165.298C309.688 164.65 308.779 163.741 308.113 162.571C307.465 161.401 307.141 160.051 307.141 158.521C307.141 156.991 307.474 155.641 308.14 154.471C308.824 153.301 309.751 152.401 310.921 151.771C312.091 151.123 313.396 150.799 314.836 150.799C316.276 150.799 317.581 151.123 318.751 151.771C319.921 152.401 320.839 153.301 321.505 154.471C322.189 155.641 322.531 156.991 322.531 158.521C322.531 160.051 322.18 161.401 321.478 162.571C320.794 163.741 319.858 164.65 318.67 165.298C317.5 165.928 316.186 166.243 314.728 166.243ZM314.728 162.949C315.412 162.949 316.051 162.787 316.645 162.463C317.257 162.121 317.743 161.617 318.103 160.951C318.463 160.285 318.643 159.475 318.643 158.521C318.643 157.099 318.265 156.01 317.509 155.254C316.771 154.48 315.862 154.093 314.782 154.093C313.702 154.093 312.793 154.48 312.055 155.254C311.335 156.01 310.975 157.099 310.975 158.521C310.975 159.943 311.326 161.041 312.028 161.815C312.748 162.571 313.648 162.949 314.728 162.949ZM339.425 151.042V166H335.618V164.11C335.132 164.758 334.493 165.271 333.701 165.649C332.927 166.009 332.081 166.189 331.163 166.189C329.993 166.189 328.958 165.946 328.058 165.46C327.158 164.956 326.447 164.227 325.925 163.273C325.421 162.301 325.169 161.149 325.169 159.817V151.042H328.949V159.277C328.949 160.465 329.246 161.383 329.84 162.031C330.434 162.661 331.244 162.976 332.27 162.976C333.314 162.976 334.133 162.661 334.727 162.031C335.321 161.383 335.618 160.465 335.618 159.277V151.042H339.425ZM346.935 146.02V166H343.155V146.02H346.935ZM349.697 158.467C349.697 156.955 349.994 155.614 350.588 154.444C351.2 153.274 352.028 152.374 353.072 151.744C354.116 151.114 355.277 150.799 356.555 150.799C357.527 150.799 358.454 151.015 359.336 151.447C360.218 151.861 360.92 152.419 361.442 153.121V146.02H365.276V166H361.442V163.786C360.974 164.524 360.317 165.118 359.471 165.568C358.625 166.018 357.644 166.243 356.528 166.243C355.268 166.243 354.116 165.919 353.072 165.271C352.028 164.623 351.2 163.714 350.588 162.544C349.994 161.356 349.697 159.997 349.697 158.467ZM361.469 158.521C361.469 157.603 361.289 156.82 360.929 156.172C360.569 155.506 360.083 155.002 359.471 154.66C358.859 154.3 358.202 154.12 357.5 154.12C356.798 154.12 356.15 154.291 355.556 154.633C354.962 154.975 354.476 155.479 354.098 156.145C353.738 156.793 353.558 157.567 353.558 158.467C353.558 159.367 353.738 160.159 354.098 160.843C354.476 161.509 354.962 162.022 355.556 162.382C356.168 162.742 356.816 162.922 357.5 162.922C358.202 162.922 358.859 162.751 359.471 162.409C360.083 162.049 360.569 161.545 360.929 160.897C361.289 160.231 361.469 159.439 361.469 158.521ZM157.719 190.26C157.053 190.26 156.495 190.053 156.045 189.639C155.613 189.207 155.397 188.676 155.397 188.046C155.397 187.416 155.613 186.894 156.045 186.48C156.495 186.048 157.053 185.832 157.719 185.832C158.385 185.832 158.934 186.048 159.366 186.48C159.816 186.894 160.041 187.416 160.041 188.046C160.041 188.676 159.816 189.207 159.366 189.639C158.934 190.053 158.385 190.26 157.719 190.26ZM159.582 192.042V207H155.802V192.042H159.582ZM171.606 191.826C173.388 191.826 174.828 192.393 175.926 193.527C177.024 194.643 177.573 196.209 177.573 198.225V207H173.793V198.738C173.793 197.55 173.496 196.641 172.902 196.011C172.308 195.363 171.498 195.039 170.472 195.039C169.428 195.039 168.6 195.363 167.988 196.011C167.394 196.641 167.097 197.55 167.097 198.738V207H163.317V192.042H167.097V193.905C167.601 193.257 168.24 192.753 169.014 192.393C169.806 192.015 170.67 191.826 171.606 191.826ZM185.569 195.147V202.383C185.569 202.887 185.686 203.256 185.92 203.49C186.172 203.706 186.586 203.814 187.162 203.814H188.917V207H186.541C183.355 207 181.762 205.452 181.762 202.356V195.147H179.98V192.042H181.762V188.343H185.569V192.042H188.917V195.147H185.569ZM205.54 199.197C205.54 199.737 205.504 200.223 205.432 200.655H194.497C194.587 201.735 194.965 202.581 195.631 203.193C196.297 203.805 197.116 204.111 198.088 204.111C199.492 204.111 200.491 203.508 201.085 202.302H205.162C204.73 203.742 203.902 204.93 202.678 205.866C201.454 206.784 199.951 207.243 198.169 207.243C196.729 207.243 195.433 206.928 194.281 206.298C193.147 205.65 192.256 204.741 191.608 203.571C190.978 202.401 190.663 201.051 190.663 199.521C190.663 197.973 190.978 196.614 191.608 195.444C192.238 194.274 193.12 193.374 194.254 192.744C195.388 192.114 196.693 191.799 198.169 191.799C199.591 191.799 200.86 192.105 201.976 192.717C203.11 193.329 203.983 194.202 204.595 195.336C205.225 196.452 205.54 197.739 205.54 199.197ZM201.625 198.117C201.607 197.145 201.256 196.371 200.572 195.795C199.888 195.201 199.051 194.904 198.061 194.904C197.125 194.904 196.333 195.192 195.685 195.768C195.055 196.326 194.668 197.109 194.524 198.117H201.625ZM212.08 194.364C212.566 193.572 213.196 192.951 213.97 192.501C214.762 192.051 215.662 191.826 216.67 191.826V195.795H215.671C214.483 195.795 213.583 196.074 212.971 196.632C212.377 197.19 212.08 198.162 212.08 199.548V207H208.3V192.042H212.08V194.364ZM233.121 199.197C233.121 199.737 233.085 200.223 233.013 200.655H222.078C222.168 201.735 222.546 202.581 223.212 203.193C223.878 203.805 224.697 204.111 225.669 204.111C227.073 204.111 228.072 203.508 228.666 202.302H232.743C232.311 203.742 231.483 204.93 230.259 205.866C229.035 206.784 227.532 207.243 225.75 207.243C224.31 207.243 223.014 206.928 221.862 206.298C220.728 205.65 219.837 204.741 219.189 203.571C218.559 202.401 218.244 201.051 218.244 199.521C218.244 197.973 218.559 196.614 219.189 195.444C219.819 194.274 220.701 193.374 221.835 192.744C222.969 192.114 224.274 191.799 225.75 191.799C227.172 191.799 228.441 192.105 229.557 192.717C230.691 193.329 231.564 194.202 232.176 195.336C232.806 196.452 233.121 197.739 233.121 199.197ZM229.206 198.117C229.188 197.145 228.837 196.371 228.153 195.795C227.469 195.201 226.632 194.904 225.642 194.904C224.706 194.904 223.914 195.192 223.266 195.768C222.636 196.326 222.249 197.109 222.105 198.117H229.206ZM241.604 207.243C240.38 207.243 239.282 207.027 238.31 206.595C237.338 206.145 236.564 205.542 235.988 204.786C235.43 204.03 235.124 203.193 235.07 202.275H238.877C238.949 202.851 239.228 203.328 239.714 203.706C240.218 204.084 240.839 204.273 241.577 204.273C242.297 204.273 242.855 204.129 243.251 203.841C243.665 203.553 243.872 203.184 243.872 202.734C243.872 202.248 243.62 201.888 243.116 201.654C242.63 201.402 241.847 201.132 240.767 200.844C239.651 200.574 238.733 200.295 238.013 200.007C237.311 199.719 236.699 199.278 236.177 198.684C235.673 198.09 235.421 197.289 235.421 196.281C235.421 195.453 235.655 194.697 236.123 194.013C236.609 193.329 237.293 192.789 238.175 192.393C239.075 191.997 240.128 191.799 241.334 191.799C243.116 191.799 244.538 192.249 245.6 193.149C246.662 194.031 247.247 195.228 247.355 196.74H243.737C243.683 196.146 243.431 195.678 242.981 195.336C242.549 194.976 241.964 194.796 241.226 194.796C240.542 194.796 240.011 194.922 239.633 195.174C239.273 195.426 239.093 195.777 239.093 196.227C239.093 196.731 239.345 197.118 239.849 197.388C240.353 197.64 241.136 197.901 242.198 198.171C243.278 198.441 244.169 198.72 244.871 199.008C245.573 199.296 246.176 199.746 246.68 200.358C247.202 200.952 247.472 201.744 247.49 202.734C247.49 203.598 247.247 204.372 246.761 205.056C246.293 205.74 245.609 206.28 244.709 206.676C243.827 207.054 242.792 207.243 241.604 207.243ZM254.993 195.147V202.383C254.993 202.887 255.11 203.256 255.344 203.49C255.596 203.706 256.01 203.814 256.586 203.814H258.341V207H255.965C252.779 207 251.186 205.452 251.186 202.356V195.147H249.404V192.042H251.186V188.343H254.993V192.042H258.341V195.147H254.993ZM281.804 192.042L272.543 214.074H268.52L271.76 206.622L265.766 192.042H270.005L273.866 202.491L277.781 192.042H281.804ZM290.484 207.243C289.044 207.243 287.748 206.928 286.596 206.298C285.444 205.65 284.535 204.741 283.869 203.571C283.221 202.401 282.897 201.051 282.897 199.521C282.897 197.991 283.23 196.641 283.896 195.471C284.58 194.301 285.507 193.401 286.677 192.771C287.847 192.123 289.152 191.799 290.592 191.799C292.032 191.799 293.337 192.123 294.507 192.771C295.677 193.401 296.595 194.301 297.261 195.471C297.945 196.641 298.287 197.991 298.287 199.521C298.287 201.051 297.936 202.401 297.234 203.571C296.55 204.741 295.614 205.65 294.426 206.298C293.256 206.928 291.942 207.243 290.484 207.243ZM290.484 203.949C291.168 203.949 291.807 203.787 292.401 203.463C293.013 203.121 293.499 202.617 293.859 201.951C294.219 201.285 294.399 200.475 294.399 199.521C294.399 198.099 294.021 197.01 293.265 196.254C292.527 195.48 291.618 195.093 290.538 195.093C289.458 195.093 288.549 195.48 287.811 196.254C287.091 197.01 286.731 198.099 286.731 199.521C286.731 200.943 287.082 202.041 287.784 202.815C288.504 203.571 289.404 203.949 290.484 203.949ZM315.18 192.042V207H311.373V205.11C310.887 205.758 310.248 206.271 309.456 206.649C308.682 207.009 307.836 207.189 306.918 207.189C305.748 207.189 304.713 206.946 303.813 206.46C302.913 205.956 302.202 205.227 301.68 204.273C301.176 203.301 300.924 202.149 300.924 200.817V192.042H304.704V200.277C304.704 201.465 305.001 202.383 305.595 203.031C306.189 203.661 306.999 203.976 308.025 203.976C309.069 203.976 309.888 203.661 310.482 203.031C311.076 202.383 311.373 201.465 311.373 200.277V192.042H315.18ZM320.584 207.189C319.9 207.189 319.333 206.982 318.883 206.568C318.451 206.136 318.235 205.605 318.235 204.975C318.235 204.345 318.451 203.823 318.883 203.409C319.333 202.977 319.9 202.761 320.584 202.761C321.25 202.761 321.799 202.977 322.231 203.409C322.663 203.823 322.879 204.345 322.879 204.975C322.879 205.605 322.663 206.136 322.231 206.568C321.799 206.982 321.25 207.189 320.584 207.189Z" fill="#FFB8BC" />
    <path fill-rule="evenodd" clip-rule="evenodd" d="M214.911 275.46C217.414 277.487 221.162 277.007 223.283 274.389C225.404 271.77 227.39 260.049 227.39 260.049C227.39 260.049 216.339 264.429 214.218 267.048C212.097 269.667 212.407 273.433 214.911 275.46Z" fill="#4C2A76" fill-opacity="0.65" />
    <path d="M239.54 313.536C251.136 313.536 260.536 304.135 260.536 292.539C260.536 280.943 251.136 271.543 239.54 271.543C227.944 271.543 218.543 280.943 218.543 292.539C218.543 304.135 227.944 313.536 239.54 313.536Z" fill="#4C2A76" fill-opacity="0.65" />
    <path fill-rule="evenodd" clip-rule="evenodd" d="M250.415 286.704C250.415 286.704 245.451 284.625 243.972 285.664C242.493 286.704 243.283 291.613 243.283 291.613C243.283 291.613 241.079 294.855 242.181 296.56C243.283 298.265 246.344 297.679 248.064 299.182C249.783 300.686 249.069 303.385 249.069 303.385L248.653 306.537C248.653 306.537 253.259 304.418 254.586 301.366C255.913 298.314 255.483 293.53 255.483 293.53L258.172 291.028L260.536 283.159L252.24 280.405L251.326 276.208L245.393 277.934L244.857 282.512L249.414 284.06L250.415 286.704ZM217.377 289.04C217.377 289.04 219.142 287.968 219.377 287.95C221.185 287.82 227.482 288.186 229.128 285.911C230.99 283.341 232.541 279.937 232.541 279.937L232.479 277.317L222.747 275.042L217.377 289.04Z" fill="#4C2A76" />
    <path d="M217.27 270.27C204.971 282.569 204.971 302.511 217.27 314.81C229.569 327.109 249.511 327.109 261.81 314.81C274.109 302.511 274.109 282.569 261.81 270.27" stroke="#4C2A76" stroke-width="3.11441" stroke-linecap="round" />
    <defs>
        <filter id="filter0_d_1926_174" x="0" y="0" width="478" height="327" filterUnits="userSpaceOnUse" color-interpolation-filters="sRGB">
            <feFlood flood-opacity="0" result="BackgroundImageFix" />
            <feColorMatrix in="SourceAlpha" type="matrix" values="0 0 0 0 0 0 0 0 0 0 0 0 0 0 0 0 0 0 127 0" result="hardAlpha" />
            <feOffset dy="8" />
            <feGaussianBlur stdDeviation="12.5" />
            <feComposite in2="hardAlpha" operator="out" />
            <feColorMatrix type="matrix" values="0 0 0 0 0.298039 0 0 0 0 0.164706 0 0 0 0 0.462745 0 0 0 0.55 0" />
            <feBlend mode="normal" in2="BackgroundImageFix" result="effect1_dropShadow_1926_174" />
            <feBlend mode="normal" in="SourceGraphic" in2="effect1_dropShadow_1926_174" result="shape" />
        </filter>
        <filter id="filter1_d_1926_174" x="174" y="232" width="131" height="131" filterUnits="userSpaceOnUse" color-interpolation-filters="sRGB">
            <feFlood flood-opacity="0" result="BackgroundImageFix" />
            <feColorMatrix in="SourceAlpha" type="matrix" values="0 0 0 0 0 0 0 0 0 0 0 0 0 0 0 0 0 0 127 0" result="hardAlpha" />
            <feOffset dy="4" />
            <feGaussianBlur stdDeviation="10" />
            <feComposite in2="hardAlpha" operator="out" />
            <feColorMatrix type="matrix" values="0 0 0 0 0 0 0 0 0 0 0 0 0 0 0 0 0 0 0.2 0" />
            <feBlend mode="normal" in2="BackgroundImageFix" result="effect1_dropShadow_1926_174" />
            <feBlend mode="normal" in="SourceGraphic" in2="effect1_dropShadow_1926_174" result="shape" />
        </filter>
    </defs>
</svg>