<svg width="400" height="230" viewBox="0 0 514 357" fill="none" xmlns="http://www.w3.org/2000/svg">
    <g filter="url(#filter0_d_1805_112)">
        <rect x="25" y="17" width="464" height="271.839" rx="41" fill="#4C2A76" />
    </g>
    <g filter="url(#filter1_d_1805_112)">
        <ellipse cx="257.574" cy="288.347" rx="52.2574" ry="44.6522" fill="white" />
    </g>
    <path d="M109.196 75.7214H101.336L100.076 79.4414H94.7064L102.326 58.3814H108.266L115.886 79.4414H110.456L109.196 75.7214ZM107.876 71.7614L105.266 64.0514L102.686 71.7614H107.876ZM123.336 65.4914C123.936 64.5714 124.686 63.8514 125.586 63.3314C126.486 62.7914 127.486 62.5214 128.586 62.5214V67.9514H127.176C125.896 67.9514 124.936 68.2314 124.296 68.7914C123.656 69.3314 123.336 70.2914 123.336 71.6714V79.4414H118.206V62.7014H123.336V65.4914ZM146.818 70.8014C146.818 71.2814 146.788 71.7814 146.728 72.3014H135.118C135.198 73.3414 135.528 74.1414 136.108 74.7014C136.708 75.2414 137.438 75.5114 138.298 75.5114C139.578 75.5114 140.468 74.9714 140.968 73.8914H146.428C146.148 74.9914 145.638 75.9814 144.898 76.8614C144.178 77.7414 143.268 78.4314 142.168 78.9314C141.068 79.4314 139.838 79.6814 138.478 79.6814C136.838 79.6814 135.378 79.3314 134.098 78.6314C132.818 77.9314 131.818 76.9314 131.098 75.6314C130.378 74.3314 130.018 72.8114 130.018 71.0714C130.018 69.3314 130.368 67.8114 131.068 66.5114C131.788 65.2114 132.788 64.2114 134.068 63.5114C135.348 62.8114 136.818 62.4614 138.478 62.4614C140.098 62.4614 141.538 62.8014 142.798 63.4814C144.058 64.1614 145.038 65.1314 145.738 66.3914C146.458 67.6514 146.818 69.1214 146.818 70.8014ZM141.568 69.4514C141.568 68.5714 141.268 67.8714 140.668 67.3514C140.068 66.8314 139.318 66.5714 138.418 66.5714C137.558 66.5714 136.828 66.8214 136.228 67.3214C135.648 67.8214 135.288 68.5314 135.148 69.4514H141.568ZM172.981 62.7014L162.481 87.3914H156.961L160.801 78.8714L153.991 62.7014H159.721L163.591 73.1714L167.431 62.7014H172.981ZM182.456 79.6814C180.816 79.6814 179.336 79.3314 178.016 78.6314C176.716 77.9314 175.686 76.9314 174.926 75.6314C174.186 74.3314 173.816 72.8114 173.816 71.0714C173.816 69.3514 174.196 67.8414 174.956 66.5414C175.716 65.2214 176.756 64.2114 178.076 63.5114C179.396 62.8114 180.876 62.4614 182.516 62.4614C184.156 62.4614 185.636 62.8114 186.956 63.5114C188.276 64.2114 189.316 65.2214 190.076 66.5414C190.836 67.8414 191.216 69.3514 191.216 71.0714C191.216 72.7914 190.826 74.3114 190.046 75.6314C189.286 76.9314 188.236 77.9314 186.896 78.6314C185.576 79.3314 184.096 79.6814 182.456 79.6814ZM182.456 75.2414C183.436 75.2414 184.266 74.8814 184.946 74.1614C185.646 73.4414 185.996 72.4114 185.996 71.0714C185.996 69.7314 185.656 68.7014 184.976 67.9814C184.316 67.2614 183.496 66.9014 182.516 66.9014C181.516 66.9014 180.686 67.2614 180.026 67.9814C179.366 68.6814 179.036 69.7114 179.036 71.0714C179.036 72.4114 179.356 73.4414 179.996 74.1614C180.656 74.8814 181.476 75.2414 182.456 75.2414ZM210.468 62.7014V79.4414H205.338V77.1614C204.818 77.9014 204.108 78.5014 203.208 78.9614C202.328 79.4014 201.348 79.6214 200.268 79.6214C198.988 79.6214 197.858 79.3414 196.878 78.7814C195.898 78.2014 195.138 77.3714 194.598 76.2914C194.058 75.2114 193.788 73.9414 193.788 72.4814V62.7014H198.888V71.7914C198.888 72.9114 199.178 73.7814 199.758 74.4014C200.338 75.0214 201.118 75.3314 202.098 75.3314C203.098 75.3314 203.888 75.0214 204.468 74.4014C205.048 73.7814 205.338 72.9114 205.338 71.7914V62.7014H210.468ZM236.29 70.8014C236.29 71.2814 236.26 71.7814 236.2 72.3014H224.59C224.67 73.3414 225 74.1414 225.58 74.7014C226.18 75.2414 226.91 75.5114 227.77 75.5114C229.05 75.5114 229.94 74.9714 230.44 73.8914H235.9C235.62 74.9914 235.11 75.9814 234.37 76.8614C233.65 77.7414 232.74 78.4314 231.64 78.9314C230.54 79.4314 229.31 79.6814 227.95 79.6814C226.31 79.6814 224.85 79.3314 223.57 78.6314C222.29 77.9314 221.29 76.9314 220.57 75.6314C219.85 74.3314 219.49 72.8114 219.49 71.0714C219.49 69.3314 219.84 67.8114 220.54 66.5114C221.26 65.2114 222.26 64.2114 223.54 63.5114C224.82 62.8114 226.29 62.4614 227.95 62.4614C229.57 62.4614 231.01 62.8014 232.27 63.4814C233.53 64.1614 234.51 65.1314 235.21 66.3914C235.93 67.6514 236.29 69.1214 236.29 70.8014ZM231.04 69.4514C231.04 68.5714 230.74 67.8714 230.14 67.3514C229.54 66.8314 228.79 66.5714 227.89 66.5714C227.03 66.5714 226.3 66.8214 225.7 67.3214C225.12 67.8214 224.76 68.5314 224.62 69.4514H231.04ZM249.197 62.5214C251.157 62.5214 252.717 63.1614 253.877 64.4414C255.057 65.7014 255.647 67.4414 255.647 69.6614V79.4414H250.547V70.3514C250.547 69.2314 250.257 68.3614 249.677 67.7414C249.097 67.1214 248.317 66.8114 247.337 66.8114C246.357 66.8114 245.577 67.1214 244.997 67.7414C244.417 68.3614 244.127 69.2314 244.127 70.3514V79.4414H238.997V62.7014H244.127V64.9214C244.647 64.1814 245.347 63.6014 246.227 63.1814C247.107 62.7414 248.097 62.5214 249.197 62.5214ZM266.741 74.6414L270.371 62.7014H275.831L269.891 79.4414H263.561L257.621 62.7014H263.111L266.741 74.6414ZM280.571 60.9614C279.671 60.9614 278.931 60.7014 278.351 60.1814C277.791 59.6414 277.511 58.9814 277.511 58.2014C277.511 57.4014 277.791 56.7414 278.351 56.2214C278.931 55.6814 279.671 55.4114 280.571 55.4114C281.451 55.4114 282.171 55.6814 282.731 56.2214C283.311 56.7414 283.601 57.4014 283.601 58.2014C283.601 58.9814 283.311 59.6414 282.731 60.1814C282.171 60.7014 281.451 60.9614 280.571 60.9614ZM283.121 62.7014V79.4414H277.991V62.7014H283.121ZM291.968 65.4914C292.568 64.5714 293.318 63.8514 294.218 63.3314C295.118 62.7914 296.118 62.5214 297.218 62.5214V67.9514H295.808C294.528 67.9514 293.568 68.2314 292.928 68.7914C292.288 69.3314 291.968 70.2914 291.968 71.6714V79.4414H286.838V62.7014H291.968V65.4914ZM307.29 79.6814C305.65 79.6814 304.17 79.3314 302.85 78.6314C301.55 77.9314 300.52 76.9314 299.76 75.6314C299.02 74.3314 298.65 72.8114 298.65 71.0714C298.65 69.3514 299.03 67.8414 299.79 66.5414C300.55 65.2214 301.59 64.2114 302.91 63.5114C304.23 62.8114 305.71 62.4614 307.35 62.4614C308.99 62.4614 310.47 62.8114 311.79 63.5114C313.11 64.2114 314.15 65.2214 314.91 66.5414C315.67 67.8414 316.05 69.3514 316.05 71.0714C316.05 72.7914 315.66 74.3114 314.88 75.6314C314.12 76.9314 313.07 77.9314 311.73 78.6314C310.41 79.3314 308.93 79.6814 307.29 79.6814ZM307.29 75.2414C308.27 75.2414 309.1 74.8814 309.78 74.1614C310.48 73.4414 310.83 72.4114 310.83 71.0714C310.83 69.7314 310.49 68.7014 309.81 67.9814C309.15 67.2614 308.33 66.9014 307.35 66.9014C306.35 66.9014 305.52 67.2614 304.86 67.9814C304.2 68.6814 303.87 69.7114 303.87 71.0714C303.87 72.4114 304.19 73.4414 304.83 74.1614C305.49 74.8814 306.31 75.2414 307.29 75.2414ZM328.972 62.5214C330.932 62.5214 332.492 63.1614 333.652 64.4414C334.832 65.7014 335.422 67.4414 335.422 69.6614V79.4414H330.322V70.3514C330.322 69.2314 330.032 68.3614 329.452 67.7414C328.872 67.1214 328.092 66.8114 327.112 66.8114C326.132 66.8114 325.352 67.1214 324.772 67.7414C324.192 68.3614 323.902 69.2314 323.902 70.3514V79.4414H318.772V62.7014H323.902V64.9214C324.422 64.1814 325.122 63.6014 326.002 63.1814C326.882 62.7414 327.872 62.5214 328.972 62.5214ZM360.347 62.5214C362.427 62.5214 364.077 63.1514 365.297 64.4114C366.537 65.6714 367.157 67.4214 367.157 69.6614V79.4414H362.057V70.3514C362.057 69.2714 361.767 68.4414 361.187 67.8614C360.627 67.2614 359.847 66.9614 358.847 66.9614C357.847 66.9614 357.057 67.2614 356.477 67.8614C355.917 68.4414 355.637 69.2714 355.637 70.3514V79.4414H350.537V70.3514C350.537 69.2714 350.247 68.4414 349.667 67.8614C349.107 67.2614 348.327 66.9614 347.327 66.9614C346.327 66.9614 345.537 67.2614 344.957 67.8614C344.397 68.4414 344.117 69.2714 344.117 70.3514V79.4414H338.987V62.7014H344.117V64.8014C344.637 64.1014 345.317 63.5514 346.157 63.1514C346.997 62.7314 347.947 62.5214 349.007 62.5214C350.267 62.5214 351.387 62.7914 352.367 63.3314C353.367 63.8714 354.147 64.6414 354.707 65.6414C355.287 64.7214 356.077 63.9714 357.077 63.3914C358.077 62.8114 359.167 62.5214 360.347 62.5214ZM386.525 70.8014C386.525 71.2814 386.495 71.7814 386.435 72.3014H374.825C374.905 73.3414 375.235 74.1414 375.815 74.7014C376.415 75.2414 377.145 75.5114 378.005 75.5114C379.285 75.5114 380.175 74.9714 380.675 73.8914H386.135C385.855 74.9914 385.345 75.9814 384.605 76.8614C383.885 77.7414 382.975 78.4314 381.875 78.9314C380.775 79.4314 379.545 79.6814 378.185 79.6814C376.545 79.6814 375.085 79.3314 373.805 78.6314C372.525 77.9314 371.525 76.9314 370.805 75.6314C370.085 74.3314 369.725 72.8114 369.725 71.0714C369.725 69.3314 370.075 67.8114 370.775 66.5114C371.495 65.2114 372.495 64.2114 373.775 63.5114C375.055 62.8114 376.525 62.4614 378.185 62.4614C379.805 62.4614 381.245 62.8014 382.505 63.4814C383.765 64.1614 384.745 65.1314 385.445 66.3914C386.165 67.6514 386.525 69.1214 386.525 70.8014ZM381.275 69.4514C381.275 68.5714 380.975 67.8714 380.375 67.3514C379.775 66.8314 379.025 66.5714 378.125 66.5714C377.265 66.5714 376.535 66.8214 375.935 67.3214C375.355 67.8214 374.995 68.5314 374.855 69.4514H381.275ZM399.431 62.5214C401.391 62.5214 402.951 63.1614 404.111 64.4414C405.291 65.7014 405.881 67.4414 405.881 69.6614V79.4414H400.781V70.3514C400.781 69.2314 400.491 68.3614 399.911 67.7414C399.331 67.1214 398.551 66.8114 397.571 66.8114C396.591 66.8114 395.811 67.1214 395.231 67.7414C394.651 68.3614 394.361 69.2314 394.361 70.3514V79.4414H389.231V62.7014H394.361V64.9214C394.881 64.1814 395.581 63.6014 396.461 63.1814C397.341 62.7414 398.331 62.5214 399.431 62.5214ZM418.776 75.0914V79.4414H416.166C414.306 79.4414 412.856 78.9914 411.816 78.0914C410.776 77.1714 410.256 75.6814 410.256 73.6214V66.9614H408.216V62.7014H410.256V58.6214H415.386V62.7014H418.746V66.9614H415.386V73.6814C415.386 74.1814 415.506 74.5414 415.746 74.7614C415.986 74.9814 416.386 75.0914 416.946 75.0914H418.776ZM196.332 111.961H193.572V124.441H188.442V111.961H186.582V107.701H188.442V107.221C188.442 105.161 189.032 103.601 190.212 102.541C191.392 101.461 193.122 100.921 195.402 100.921C195.782 100.921 196.062 100.931 196.242 100.951V105.301C195.262 105.241 194.572 105.381 194.172 105.721C193.772 106.061 193.572 106.671 193.572 107.551V107.701H196.332V111.961ZM203.873 110.491C204.473 109.571 205.223 108.851 206.123 108.331C207.023 107.791 208.023 107.521 209.123 107.521V112.951H207.713C206.433 112.951 205.473 113.231 204.833 113.791C204.193 114.331 203.873 115.291 203.873 116.671V124.441H198.743V107.701H203.873V110.491ZM214.155 105.961C213.255 105.961 212.515 105.701 211.935 105.181C211.375 104.641 211.095 103.981 211.095 103.201C211.095 102.401 211.375 101.741 211.935 101.221C212.515 100.681 213.255 100.411 214.155 100.411C215.035 100.411 215.755 100.681 216.315 101.221C216.895 101.741 217.185 102.401 217.185 103.201C217.185 103.981 216.895 104.641 216.315 105.181C215.755 105.701 215.035 105.961 214.155 105.961ZM216.705 107.701V124.441H211.575V107.701H216.705ZM236.202 115.801C236.202 116.281 236.172 116.781 236.112 117.301H224.502C224.582 118.341 224.912 119.141 225.492 119.701C226.092 120.241 226.822 120.511 227.682 120.511C228.962 120.511 229.852 119.971 230.352 118.891H235.812C235.532 119.991 235.022 120.981 234.282 121.861C233.562 122.741 232.652 123.431 231.552 123.931C230.452 124.431 229.222 124.681 227.862 124.681C226.222 124.681 224.762 124.331 223.482 123.631C222.202 122.931 221.202 121.931 220.482 120.631C219.762 119.331 219.402 117.811 219.402 116.071C219.402 114.331 219.752 112.811 220.452 111.511C221.172 110.211 222.172 109.211 223.452 108.511C224.732 107.811 226.202 107.461 227.862 107.461C229.482 107.461 230.922 107.801 232.182 108.481C233.442 109.161 234.422 110.131 235.122 111.391C235.842 112.651 236.202 114.121 236.202 115.801ZM230.952 114.451C230.952 113.571 230.652 112.871 230.052 112.351C229.452 111.831 228.702 111.571 227.802 111.571C226.942 111.571 226.212 111.821 225.612 112.321C225.032 112.821 224.672 113.531 224.532 114.451H230.952ZM249.109 107.521C251.069 107.521 252.629 108.161 253.789 109.441C254.969 110.701 255.559 112.441 255.559 114.661V124.441H250.459V115.351C250.459 114.231 250.169 113.361 249.589 112.741C249.009 112.121 248.229 111.811 247.249 111.811C246.269 111.811 245.489 112.121 244.909 112.741C244.329 113.361 244.039 114.231 244.039 115.351V124.441H238.909V107.701H244.039V109.921C244.559 109.181 245.259 108.601 246.139 108.181C247.019 107.741 248.009 107.521 249.109 107.521ZM258.103 116.041C258.103 114.321 258.423 112.811 259.063 111.511C259.723 110.211 260.613 109.211 261.733 108.511C262.853 107.811 264.103 107.461 265.483 107.461C266.583 107.461 267.583 107.691 268.483 108.151C269.403 108.611 270.123 109.231 270.643 110.011V102.241H275.773V124.441H270.643V122.041C270.163 122.841 269.473 123.481 268.573 123.961C267.693 124.441 266.663 124.681 265.483 124.681C264.103 124.681 262.853 124.331 261.733 123.631C260.613 122.911 259.723 121.901 259.063 120.601C258.423 119.281 258.103 117.761 258.103 116.041ZM270.643 116.071C270.643 114.791 270.283 113.781 269.563 113.041C268.863 112.301 268.003 111.931 266.983 111.931C265.963 111.931 265.093 112.301 264.373 113.041C263.673 113.761 263.323 114.761 263.323 116.041C263.323 117.321 263.673 118.341 264.373 119.101C265.093 119.841 265.963 120.211 266.983 120.211C268.003 120.211 268.863 119.841 269.563 119.101C270.283 118.361 270.643 117.351 270.643 116.071ZM284.615 102.241V124.441H279.485V102.241H284.615ZM305.432 107.701L294.932 132.391H289.412L293.252 123.871L286.442 107.701H292.172L296.042 118.171L299.882 107.701H305.432ZM319.795 102.211C321.935 102.211 323.645 102.771 324.925 103.891C326.225 105.011 326.875 106.591 326.875 108.631C326.875 110.511 326.255 111.981 325.015 113.041C323.795 114.081 322.175 114.611 320.155 114.631L320.005 116.881H315.505L315.355 111.301H317.155C318.695 111.301 319.865 111.111 320.665 110.731C321.485 110.351 321.895 109.661 321.895 108.661C321.895 107.961 321.705 107.411 321.325 107.011C320.945 106.611 320.415 106.411 319.735 106.411C319.015 106.411 318.455 106.621 318.055 107.041C317.655 107.441 317.455 107.991 317.455 108.691H312.625C312.585 107.471 312.835 106.371 313.375 105.391C313.935 104.411 314.755 103.641 315.835 103.081C316.935 102.501 318.255 102.211 319.795 102.211ZM317.815 124.681C316.915 124.681 316.175 124.421 315.595 123.901C315.035 123.361 314.755 122.701 314.755 121.921C314.755 121.121 315.035 120.451 315.595 119.911C316.175 119.371 316.915 119.101 317.815 119.101C318.695 119.101 319.415 119.371 319.975 119.911C320.555 120.451 320.845 121.121 320.845 121.921C320.845 122.701 320.555 123.361 319.975 123.901C319.415 124.421 318.695 124.681 317.815 124.681Z" fill="#FFB8BC" />
    <path fill-rule="evenodd" clip-rule="evenodd" d="M233.123 273.786C235.608 275.572 239.329 275.149 241.435 272.841C243.54 270.533 245.512 260.204 245.512 260.204C245.512 260.204 234.54 264.064 232.435 266.372C230.33 268.68 230.638 271.999 233.123 273.786V273.786Z" fill="#4C2A76" fill-opacity="0.65" />
    <path d="M257.574 307.344C269.087 307.344 278.419 299.059 278.419 288.839C278.419 278.619 269.087 270.334 257.574 270.334C246.062 270.334 236.73 278.619 236.73 288.839C236.73 299.059 246.062 307.344 257.574 307.344Z" fill="#4C2A76" fill-opacity="0.65" />
    <path fill-rule="evenodd" clip-rule="evenodd" d="M268.371 283.696C268.371 283.696 263.442 281.863 261.974 282.78C260.506 283.696 261.291 288.023 261.291 288.023C261.291 288.023 259.103 290.88 260.197 292.382C261.291 293.885 264.329 293.368 266.036 294.694C267.744 296.019 267.034 298.398 267.034 298.398L266.621 301.175C266.621 301.175 271.194 299.308 272.512 296.618C273.829 293.929 273.403 289.712 273.403 289.712L276.072 287.507L278.419 280.572L270.182 278.145L269.275 274.446L263.385 275.967L262.853 280.002L267.377 281.366L268.371 283.696ZM235.572 285.755C235.572 285.755 237.324 284.81 237.558 284.795C239.352 284.679 245.604 285.002 247.238 282.997C249.086 280.732 250.626 277.732 250.626 277.732L250.564 275.423L240.903 273.418L235.572 285.755Z" fill="#4C2A76" />
    <path d="M235.465 269.212C223.255 280.051 223.255 297.626 235.465 308.466C247.676 319.306 267.473 319.306 279.683 308.466C291.894 297.626 291.894 280.051 279.683 269.212" stroke="#4C2A76" stroke-width="3.11441" stroke-linecap="round" />
    <path d="M142.723 176.729C140.959 176.729 139.339 176.315 137.863 175.487C136.387 174.659 135.217 173.516 134.353 172.058C133.489 170.582 133.057 168.917 133.057 167.063C133.057 165.227 133.489 163.58 134.353 162.122C135.217 160.646 136.387 159.494 137.863 158.666C139.339 157.838 140.959 157.424 142.723 157.424C144.505 157.424 146.125 157.838 147.583 158.666C149.059 159.494 150.22 160.646 151.066 162.122C151.93 163.58 152.362 165.227 152.362 167.063C152.362 168.917 151.93 170.582 151.066 172.058C150.22 173.516 149.059 174.659 147.583 175.487C146.107 176.315 144.487 176.729 142.723 176.729ZM142.723 173.354C143.857 173.354 144.856 173.102 145.72 172.598C146.584 172.076 147.259 171.338 147.745 170.384C148.231 169.43 148.474 168.323 148.474 167.063C148.474 165.803 148.231 164.705 147.745 163.769C147.259 162.815 146.584 162.086 145.72 161.582C144.856 161.078 143.857 160.826 142.723 160.826C141.589 160.826 140.581 161.078 139.699 161.582C138.835 162.086 138.16 162.815 137.674 163.769C137.188 164.705 136.945 165.803 136.945 167.063C136.945 168.323 137.188 169.43 137.674 170.384C138.16 171.338 138.835 172.076 139.699 172.598C140.581 173.102 141.589 173.354 142.723 173.354ZM169.295 161.582V176.54H165.488V174.65C165.002 175.298 164.363 175.811 163.571 176.189C162.797 176.549 161.951 176.729 161.033 176.729C159.863 176.729 158.828 176.486 157.928 176C157.028 175.496 156.317 174.767 155.795 173.813C155.291 172.841 155.039 171.689 155.039 170.357V161.582H158.819V169.817C158.819 171.005 159.116 171.923 159.71 172.571C160.304 173.201 161.114 173.516 162.14 173.516C163.184 173.516 164.003 173.201 164.597 172.571C165.191 171.923 165.488 171.005 165.488 169.817V161.582H169.295ZM176.805 163.904C177.291 163.112 177.921 162.491 178.695 162.041C179.487 161.591 180.387 161.366 181.395 161.366V165.335H180.396C179.208 165.335 178.308 165.614 177.696 166.172C177.102 166.73 176.805 167.702 176.805 169.088V176.54H173.025V161.582H176.805V163.904ZM197.016 176.783C195.576 176.783 194.28 176.468 193.128 175.838C191.976 175.19 191.067 174.281 190.401 173.111C189.753 171.941 189.429 170.591 189.429 169.061C189.429 167.531 189.762 166.181 190.428 165.011C191.112 163.841 192.039 162.941 193.209 162.311C194.379 161.663 195.684 161.339 197.124 161.339C198.564 161.339 199.869 161.663 201.039 162.311C202.209 162.941 203.127 163.841 203.793 165.011C204.477 166.181 204.819 167.531 204.819 169.061C204.819 170.591 204.468 171.941 203.766 173.111C203.082 174.281 202.146 175.19 200.958 175.838C199.788 176.468 198.474 176.783 197.016 176.783ZM197.016 173.489C197.7 173.489 198.339 173.327 198.933 173.003C199.545 172.661 200.031 172.157 200.391 171.491C200.751 170.825 200.931 170.015 200.931 169.061C200.931 167.639 200.553 166.55 199.797 165.794C199.059 165.02 198.15 164.633 197.07 164.633C195.99 164.633 195.081 165.02 194.343 165.794C193.623 166.55 193.263 167.639 193.263 169.061C193.263 170.483 193.614 171.581 194.316 172.355C195.036 173.111 195.936 173.489 197.016 173.489ZM211.372 163.742C211.858 163.058 212.524 162.491 213.37 162.041C214.234 161.573 215.215 161.339 216.313 161.339C217.591 161.339 218.743 161.654 219.769 162.284C220.813 162.914 221.632 163.814 222.226 164.984C222.838 166.136 223.144 167.477 223.144 169.007C223.144 170.537 222.838 171.896 222.226 173.084C221.632 174.254 220.813 175.163 219.769 175.811C218.743 176.459 217.591 176.783 216.313 176.783C215.215 176.783 214.243 176.558 213.397 176.108C212.569 175.658 211.894 175.091 211.372 174.407V183.668H207.592V161.582H211.372V163.742ZM219.283 169.007C219.283 168.107 219.094 167.333 218.716 166.685C218.356 166.019 217.87 165.515 217.258 165.173C216.664 164.831 216.016 164.66 215.314 164.66C214.63 164.66 213.982 164.84 213.37 165.2C212.776 165.542 212.29 166.046 211.912 166.712C211.552 167.378 211.372 168.161 211.372 169.061C211.372 169.961 211.552 170.744 211.912 171.41C212.29 172.076 212.776 172.589 213.37 172.949C213.982 173.291 214.63 173.462 215.314 173.462C216.016 173.462 216.664 173.282 217.258 172.922C217.87 172.562 218.356 172.049 218.716 171.383C219.094 170.717 219.283 169.925 219.283 169.007ZM230.292 164.687V171.923C230.292 172.427 230.409 172.796 230.643 173.03C230.895 173.246 231.309 173.354 231.885 173.354H233.64V176.54H231.264C228.078 176.54 226.485 174.992 226.485 171.896V164.687H224.703V161.582H226.485V157.883H230.292V161.582H233.64V164.687H230.292ZM238.276 159.8C237.61 159.8 237.052 159.593 236.602 159.179C236.17 158.747 235.954 158.216 235.954 157.586C235.954 156.956 236.17 156.434 236.602 156.02C237.052 155.588 237.61 155.372 238.276 155.372C238.942 155.372 239.491 155.588 239.923 156.02C240.373 156.434 240.598 156.956 240.598 157.586C240.598 158.216 240.373 158.747 239.923 159.179C239.491 159.593 238.942 159.8 238.276 159.8ZM240.139 161.582V176.54H236.359V161.582H240.139ZM250.515 176.783C249.075 176.783 247.779 176.468 246.627 175.838C245.475 175.19 244.566 174.281 243.9 173.111C243.252 171.941 242.928 170.591 242.928 169.061C242.928 167.531 243.261 166.181 243.927 165.011C244.611 163.841 245.538 162.941 246.708 162.311C247.878 161.663 249.183 161.339 250.623 161.339C252.063 161.339 253.368 161.663 254.538 162.311C255.708 162.941 256.626 163.841 257.292 165.011C257.976 166.181 258.318 167.531 258.318 169.061C258.318 170.591 257.967 171.941 257.265 173.111C256.581 174.281 255.645 175.19 254.457 175.838C253.287 176.468 251.973 176.783 250.515 176.783ZM250.515 173.489C251.199 173.489 251.838 173.327 252.432 173.003C253.044 172.661 253.53 172.157 253.89 171.491C254.25 170.825 254.43 170.015 254.43 169.061C254.43 167.639 254.052 166.55 253.296 165.794C252.558 165.02 251.649 164.633 250.569 164.633C249.489 164.633 248.58 165.02 247.842 165.794C247.122 166.55 246.762 167.639 246.762 169.061C246.762 170.483 247.113 171.581 247.815 172.355C248.535 173.111 249.435 173.489 250.515 173.489ZM269.38 161.366C271.162 161.366 272.602 161.933 273.7 163.067C274.798 164.183 275.347 165.749 275.347 167.765V176.54H271.567V168.278C271.567 167.09 271.27 166.181 270.676 165.551C270.082 164.903 269.272 164.579 268.246 164.579C267.202 164.579 266.374 164.903 265.762 165.551C265.168 166.181 264.871 167.09 264.871 168.278V176.54H261.091V161.582H264.871V163.445C265.375 162.797 266.014 162.293 266.788 161.933C267.58 161.555 268.444 161.366 269.38 161.366ZM284.666 176.783C283.442 176.783 282.344 176.567 281.372 176.135C280.4 175.685 279.626 175.082 279.05 174.326C278.492 173.57 278.186 172.733 278.132 171.815H281.939C282.011 172.391 282.29 172.868 282.776 173.246C283.28 173.624 283.901 173.813 284.639 173.813C285.359 173.813 285.917 173.669 286.313 173.381C286.727 173.093 286.934 172.724 286.934 172.274C286.934 171.788 286.682 171.428 286.178 171.194C285.692 170.942 284.909 170.672 283.829 170.384C282.713 170.114 281.795 169.835 281.075 169.547C280.373 169.259 279.761 168.818 279.239 168.224C278.735 167.63 278.483 166.829 278.483 165.821C278.483 164.993 278.717 164.237 279.185 163.553C279.671 162.869 280.355 162.329 281.237 161.933C282.137 161.537 283.19 161.339 284.396 161.339C286.178 161.339 287.6 161.789 288.662 162.689C289.724 163.571 290.309 164.768 290.417 166.28H286.799C286.745 165.686 286.493 165.218 286.043 164.876C285.611 164.516 285.026 164.336 284.288 164.336C283.604 164.336 283.073 164.462 282.695 164.714C282.335 164.966 282.155 165.317 282.155 165.767C282.155 166.271 282.407 166.658 282.911 166.928C283.415 167.18 284.198 167.441 285.26 167.711C286.34 167.981 287.231 168.26 287.933 168.548C288.635 168.836 289.238 169.286 289.742 169.898C290.264 170.492 290.534 171.284 290.552 172.274C290.552 173.138 290.309 173.912 289.823 174.596C289.355 175.28 288.671 175.82 287.771 176.216C286.889 176.594 285.854 176.783 284.666 176.783ZM320.824 161.582L316.45 176.54H312.373L309.646 166.091L306.919 176.54H302.815L298.414 161.582H302.248L304.894 172.976L307.756 161.582H311.752L314.56 172.949L317.206 161.582H320.824ZM329.511 176.783C328.071 176.783 326.775 176.468 325.623 175.838C324.471 175.19 323.562 174.281 322.896 173.111C322.248 171.941 321.924 170.591 321.924 169.061C321.924 167.531 322.257 166.181 322.923 165.011C323.607 163.841 324.534 162.941 325.704 162.311C326.874 161.663 328.179 161.339 329.619 161.339C331.059 161.339 332.364 161.663 333.534 162.311C334.704 162.941 335.622 163.841 336.288 165.011C336.972 166.181 337.314 167.531 337.314 169.061C337.314 170.591 336.963 171.941 336.261 173.111C335.577 174.281 334.641 175.19 333.453 175.838C332.283 176.468 330.969 176.783 329.511 176.783ZM329.511 173.489C330.195 173.489 330.834 173.327 331.428 173.003C332.04 172.661 332.526 172.157 332.886 171.491C333.246 170.825 333.426 170.015 333.426 169.061C333.426 167.639 333.048 166.55 332.292 165.794C331.554 165.02 330.645 164.633 329.565 164.633C328.485 164.633 327.576 165.02 326.838 165.794C326.118 166.55 325.758 167.639 325.758 169.061C325.758 170.483 326.109 171.581 326.811 172.355C327.531 173.111 328.431 173.489 329.511 173.489ZM354.208 161.582V176.54H350.401V174.65C349.915 175.298 349.276 175.811 348.484 176.189C347.71 176.549 346.864 176.729 345.946 176.729C344.776 176.729 343.741 176.486 342.841 176C341.941 175.496 341.23 174.767 340.708 173.813C340.204 172.841 339.952 171.689 339.952 170.357V161.582H343.732V169.817C343.732 171.005 344.029 171.923 344.623 172.571C345.217 173.201 346.027 173.516 347.053 173.516C348.097 173.516 348.916 173.201 349.51 172.571C350.104 171.923 350.401 171.005 350.401 169.817V161.582H354.208ZM361.718 156.56V176.54H357.938V156.56H361.718ZM364.48 169.007C364.48 167.495 364.777 166.154 365.371 164.984C365.983 163.814 366.811 162.914 367.855 162.284C368.899 161.654 370.06 161.339 371.338 161.339C372.31 161.339 373.237 161.555 374.119 161.987C375.001 162.401 375.703 162.959 376.225 163.661V156.56H380.059V176.54H376.225V174.326C375.757 175.064 375.1 175.658 374.254 176.108C373.408 176.558 372.427 176.783 371.311 176.783C370.051 176.783 368.899 176.459 367.855 175.811C366.811 175.163 365.983 174.254 365.371 173.084C364.777 171.896 364.48 170.537 364.48 169.007ZM376.252 169.061C376.252 168.143 376.072 167.36 375.712 166.712C375.352 166.046 374.866 165.542 374.254 165.2C373.642 164.84 372.985 164.66 372.283 164.66C371.581 164.66 370.933 164.831 370.339 165.173C369.745 165.515 369.259 166.019 368.881 166.685C368.521 167.333 368.341 168.107 368.341 169.007C368.341 169.907 368.521 170.699 368.881 171.383C369.259 172.049 369.745 172.562 370.339 172.922C370.951 173.282 371.599 173.462 372.283 173.462C372.985 173.462 373.642 173.291 374.254 172.949C374.866 172.589 375.352 172.085 375.712 171.437C376.072 170.771 376.252 169.979 376.252 169.061ZM179.226 200.8C178.56 200.8 178.002 200.593 177.552 200.179C177.12 199.747 176.904 199.216 176.904 198.586C176.904 197.956 177.12 197.434 177.552 197.02C178.002 196.588 178.56 196.372 179.226 196.372C179.892 196.372 180.441 196.588 180.873 197.02C181.323 197.434 181.548 197.956 181.548 198.586C181.548 199.216 181.323 199.747 180.873 200.179C180.441 200.593 179.892 200.8 179.226 200.8ZM181.089 202.582V217.54H177.309V202.582H181.089ZM193.113 202.366C194.895 202.366 196.335 202.933 197.433 204.067C198.531 205.183 199.08 206.749 199.08 208.765V217.54H195.3V209.278C195.3 208.09 195.003 207.181 194.409 206.551C193.815 205.903 193.005 205.579 191.979 205.579C190.935 205.579 190.107 205.903 189.495 206.551C188.901 207.181 188.604 208.09 188.604 209.278V217.54H184.824V202.582H188.604V204.445C189.108 203.797 189.747 203.293 190.521 202.933C191.313 202.555 192.177 202.366 193.113 202.366ZM207.076 205.687V212.923C207.076 213.427 207.193 213.796 207.427 214.03C207.679 214.246 208.093 214.354 208.669 214.354H210.424V217.54H208.048C204.862 217.54 203.269 215.992 203.269 212.896V205.687H201.487V202.582H203.269V198.883H207.076V202.582H210.424V205.687H207.076ZM227.047 209.737C227.047 210.277 227.011 210.763 226.939 211.195H216.004C216.094 212.275 216.472 213.121 217.138 213.733C217.804 214.345 218.623 214.651 219.595 214.651C220.999 214.651 221.998 214.048 222.592 212.842H226.669C226.237 214.282 225.409 215.47 224.185 216.406C222.961 217.324 221.458 217.783 219.676 217.783C218.236 217.783 216.94 217.468 215.788 216.838C214.654 216.19 213.763 215.281 213.115 214.111C212.485 212.941 212.17 211.591 212.17 210.061C212.17 208.513 212.485 207.154 213.115 205.984C213.745 204.814 214.627 203.914 215.761 203.284C216.895 202.654 218.2 202.339 219.676 202.339C221.098 202.339 222.367 202.645 223.483 203.257C224.617 203.869 225.49 204.742 226.102 205.876C226.732 206.992 227.047 208.279 227.047 209.737ZM223.132 208.657C223.114 207.685 222.763 206.911 222.079 206.335C221.395 205.741 220.558 205.444 219.568 205.444C218.632 205.444 217.84 205.732 217.192 206.308C216.562 206.866 216.175 207.649 216.031 208.657H223.132ZM233.586 204.904C234.072 204.112 234.702 203.491 235.476 203.041C236.268 202.591 237.168 202.366 238.176 202.366V206.335H237.177C235.989 206.335 235.089 206.614 234.477 207.172C233.883 207.73 233.586 208.702 233.586 210.088V217.54H229.806V202.582H233.586V204.904ZM254.627 209.737C254.627 210.277 254.591 210.763 254.519 211.195H243.584C243.674 212.275 244.052 213.121 244.718 213.733C245.384 214.345 246.203 214.651 247.175 214.651C248.579 214.651 249.578 214.048 250.172 212.842H254.249C253.817 214.282 252.989 215.47 251.765 216.406C250.541 217.324 249.038 217.783 247.256 217.783C245.816 217.783 244.52 217.468 243.368 216.838C242.234 216.19 241.343 215.281 240.695 214.111C240.065 212.941 239.75 211.591 239.75 210.061C239.75 208.513 240.065 207.154 240.695 205.984C241.325 204.814 242.207 203.914 243.341 203.284C244.475 202.654 245.78 202.339 247.256 202.339C248.678 202.339 249.947 202.645 251.063 203.257C252.197 203.869 253.07 204.742 253.682 205.876C254.312 206.992 254.627 208.279 254.627 209.737ZM250.712 208.657C250.694 207.685 250.343 206.911 249.659 206.335C248.975 205.741 248.138 205.444 247.148 205.444C246.212 205.444 245.42 205.732 244.772 206.308C244.142 206.866 243.755 207.649 243.611 208.657H250.712ZM263.11 217.783C261.886 217.783 260.788 217.567 259.816 217.135C258.844 216.685 258.07 216.082 257.494 215.326C256.936 214.57 256.63 213.733 256.576 212.815H260.383C260.455 213.391 260.734 213.868 261.22 214.246C261.724 214.624 262.345 214.813 263.083 214.813C263.803 214.813 264.361 214.669 264.757 214.381C265.171 214.093 265.378 213.724 265.378 213.274C265.378 212.788 265.126 212.428 264.622 212.194C264.136 211.942 263.353 211.672 262.273 211.384C261.157 211.114 260.239 210.835 259.519 210.547C258.817 210.259 258.205 209.818 257.683 209.224C257.179 208.63 256.927 207.829 256.927 206.821C256.927 205.993 257.161 205.237 257.629 204.553C258.115 203.869 258.799 203.329 259.681 202.933C260.581 202.537 261.634 202.339 262.84 202.339C264.622 202.339 266.044 202.789 267.106 203.689C268.168 204.571 268.753 205.768 268.861 207.28H265.243C265.189 206.686 264.937 206.218 264.487 205.876C264.055 205.516 263.47 205.336 262.732 205.336C262.048 205.336 261.517 205.462 261.139 205.714C260.779 205.966 260.599 206.317 260.599 206.767C260.599 207.271 260.851 207.658 261.355 207.928C261.859 208.18 262.642 208.441 263.704 208.711C264.784 208.981 265.675 209.26 266.377 209.548C267.079 209.836 267.682 210.286 268.186 210.898C268.708 211.492 268.978 212.284 268.996 213.274C268.996 214.138 268.753 214.912 268.267 215.596C267.799 216.28 267.115 216.82 266.215 217.216C265.333 217.594 264.298 217.783 263.11 217.783ZM276.5 205.687V212.923C276.5 213.427 276.617 213.796 276.851 214.03C277.103 214.246 277.517 214.354 278.093 214.354H279.848V217.54H277.472C274.286 217.54 272.693 215.992 272.693 212.896V205.687H270.911V202.582H272.693V198.883H276.5V202.582H279.848V205.687H276.5ZM303.311 202.582L294.05 224.614H290.027L293.267 217.162L287.273 202.582H291.512L295.373 213.031L299.288 202.582H303.311ZM311.99 217.783C310.55 217.783 309.254 217.468 308.102 216.838C306.95 216.19 306.041 215.281 305.375 214.111C304.727 212.941 304.403 211.591 304.403 210.061C304.403 208.531 304.736 207.181 305.402 206.011C306.086 204.841 307.013 203.941 308.183 203.311C309.353 202.663 310.658 202.339 312.098 202.339C313.538 202.339 314.843 202.663 316.013 203.311C317.183 203.941 318.101 204.841 318.767 206.011C319.451 207.181 319.793 208.531 319.793 210.061C319.793 211.591 319.442 212.941 318.74 214.111C318.056 215.281 317.12 216.19 315.932 216.838C314.762 217.468 313.448 217.783 311.99 217.783ZM311.99 214.489C312.674 214.489 313.313 214.327 313.907 214.003C314.519 213.661 315.005 213.157 315.365 212.491C315.725 211.825 315.905 211.015 315.905 210.061C315.905 208.639 315.527 207.55 314.771 206.794C314.033 206.02 313.124 205.633 312.044 205.633C310.964 205.633 310.055 206.02 309.317 206.794C308.597 207.55 308.237 208.639 308.237 210.061C308.237 211.483 308.588 212.581 309.29 213.355C310.01 214.111 310.91 214.489 311.99 214.489ZM336.687 202.582V217.54H332.88V215.65C332.394 216.298 331.755 216.811 330.963 217.189C330.189 217.549 329.343 217.729 328.425 217.729C327.255 217.729 326.22 217.486 325.32 217C324.42 216.496 323.709 215.767 323.187 214.813C322.683 213.841 322.431 212.689 322.431 211.357V202.582H326.211V210.817C326.211 212.005 326.508 212.923 327.102 213.571C327.696 214.201 328.506 214.516 329.532 214.516C330.576 214.516 331.395 214.201 331.989 213.571C332.583 212.923 332.88 212.005 332.88 210.817V202.582H336.687Z" fill="#FFB8BC" />
    <defs>
        <filter id="filter0_d_1805_112" x="0" y="0" width="514" height="321.839" filterUnits="userSpaceOnUse" color-interpolation-filters="sRGB">
            <feFlood flood-opacity="0" result="BackgroundImageFix" />
            <feColorMatrix in="SourceAlpha" type="matrix" values="0 0 0 0 0 0 0 0 0 0 0 0 0 0 0 0 0 0 127 0" result="hardAlpha" />
            <feOffset dy="8" />
            <feGaussianBlur stdDeviation="12.5" />
            <feComposite in2="hardAlpha" operator="out" />
            <feColorMatrix type="matrix" values="0 0 0 0 0.298039 0 0 0 0 0.164706 0 0 0 0 0.462745 0 0 0 0.55 0" />
            <feBlend mode="normal" in2="BackgroundImageFix" result="effect1_dropShadow_1805_112" />
            <feBlend mode="normal" in="SourceGraphic" in2="effect1_dropShadow_1805_112" result="shape" />
        </filter>
        <filter id="filter1_d_1805_112" x="185.317" y="227.695" width="144.515" height="129.305" filterUnits="userSpaceOnUse" color-interpolation-filters="sRGB">
            <feFlood flood-opacity="0" result="BackgroundImageFix" />
            <feColorMatrix in="SourceAlpha" type="matrix" values="0 0 0 0 0 0 0 0 0 0 0 0 0 0 0 0 0 0 127 0" result="hardAlpha" />
            <feOffset dy="4" />
            <feGaussianBlur stdDeviation="10" />
            <feComposite in2="hardAlpha" operator="out" />
            <feColorMatrix type="matrix" values="0 0 0 0 0 0 0 0 0 0 0 0 0 0 0 0 0 0 0.2 0" />
            <feBlend mode="normal" in2="BackgroundImageFix" result="effect1_dropShadow_1805_112" />
            <feBlend mode="normal" in="SourceGraphic" in2="effect1_dropShadow_1805_112" result="shape" />
        </filter>
    </defs>
</svg>