<svg width="400" height="240" viewBox="0 0 478 363" fill="none" xmlns="http://www.w3.org/2000/svg">
    <g filter="url(#filter0_d_1926_175)">
        <rect x="25" y="17" width="428" height="277" rx="41" fill="#4C2A76" />
    </g>
    <g filter="url(#filter1_d_1926_175)">
        <circle cx="239.5" cy="293.5" r="45.5" fill="white" />
    </g>
    <path d="M227.641 258.77H229.11V269.439H227.641V258.77ZM248.097 258.77H249.566V269.439H248.097V258.77Z" fill="#4C2A76" fill-opacity="0.65" />
    <path d="M246.515 285.756C246.515 281.886 252.166 275.192 250.358 268.184C250.358 268.184 242.899 268.184 238.604 271.635C234.309 268.184 226.85 268.184 226.85 268.184C225.042 275.192 230.693 281.886 230.693 285.756C230.693 293.288 211.253 304.48 217.13 325.609C217.13 325.609 221.877 322.89 224.251 322.89C226.398 322.89 229.336 325.714 231.371 325.714C233.97 325.714 236.344 322.89 238.491 322.89C240.751 322.89 243.125 325.714 245.611 325.714C247.759 325.714 250.697 322.89 252.731 322.89C255.218 322.89 259.852 325.609 259.852 325.609C265.955 304.48 246.515 293.183 246.515 285.756Z" fill="#4C2A76" fill-opacity="0.65" />
    <path d="M229.901 283.56H247.193V287.744H229.901V283.56Z" fill="#4C2A76" fill-opacity="0.65" />
    <path d="M249.567 302.597L243.69 304.584C243.69 304.584 243.803 289.836 239.847 284.815C239.621 284.501 241.994 283.873 242.333 284.187C248.097 288.476 249.567 302.597 249.567 302.597ZM228.997 296.739L233.518 297.681C233.518 297.681 234.309 288.057 237.813 284.501C238.039 284.292 236.23 283.978 235.891 284.187C231.031 287.43 228.997 296.739 228.997 296.739Z" fill="#4C2A76" fill-opacity="0.65" />
    <path d="M241.768 285.443C242.446 286.384 244.707 289.418 244.933 292.033L241.768 285.443ZM232.84 290.15C233.405 289.104 234.987 285.757 237.248 284.188L232.84 290.15Z" fill="#4C2A76" fill-opacity="0.65" />
    <path d="M241.655 288.895C240.638 289.627 237.248 289.627 236.117 288.895C234.761 287.953 234.874 283.874 236.117 282.828C237.135 281.991 240.638 281.991 241.655 282.828C242.898 283.874 243.012 287.953 241.655 288.895Z" fill="#4C2A76" fill-opacity="0.65" />
    <path d="M241.091 288.79C240.186 289.522 237.474 289.522 236.57 288.79C235.44 287.849 235.553 283.978 236.57 282.932C237.361 282.095 240.299 282.095 241.091 282.932C242.221 283.874 242.334 287.849 241.091 288.79ZM254.879 317.346C252.505 317.346 249.115 320.484 246.741 320.484C243.803 320.484 241.091 317.346 238.604 317.346C236.118 317.346 233.405 320.484 230.467 320.484C228.093 320.484 224.703 317.346 222.329 317.346C220.634 317.346 217.922 318.496 216.113 319.333C216.226 320.484 216.339 321.739 216.565 322.994C217.809 322.367 221.538 320.588 223.686 320.588C225.946 320.588 228.997 323.413 231.145 323.413C233.857 323.413 236.344 320.588 238.604 320.588C240.864 320.588 243.464 323.413 246.063 323.413C248.324 323.413 251.375 320.588 253.523 320.588C255.67 320.588 259.4 322.367 260.643 322.994C260.869 321.739 260.982 320.484 261.095 319.333C259.287 318.496 256.574 317.346 254.879 317.346Z" fill="#4C2A76" fill-opacity="0.65" />
    <path d="M230.919 318.497C233.631 318.497 236.23 315.673 238.604 315.673C240.977 315.673 243.464 318.497 246.289 318.497C248.55 318.497 251.714 315.673 253.974 315.673C256.122 315.673 260.077 317.347 261.208 317.87V316.301C259.512 315.569 256.348 314.418 254.427 314.418C252.053 314.418 248.889 317.242 246.515 317.242C243.69 317.242 241.09 314.418 238.604 314.418C236.23 314.418 233.518 317.242 230.692 317.242C228.319 317.242 225.155 314.418 222.781 314.418C220.86 314.418 217.582 315.673 216 316.301V317.87C217.243 317.347 221.086 315.673 223.233 315.673C225.494 315.673 228.658 318.497 230.919 318.497Z" fill="#4C2A76" fill-opacity="0.65" />
    <path d="M153.492 52.235L147.93 71H144.447L140.505 56.798L136.32 71L132.864 71.027L127.545 52.235H130.812L134.7 67.517L138.912 52.235H142.368L146.283 67.436L150.198 52.235H153.492ZM155.004 63.494C155.004 62 155.31 60.677 155.922 59.525C156.552 58.373 157.398 57.482 158.46 56.852C159.54 56.204 160.728 55.88 162.024 55.88C163.194 55.88 164.211 56.114 165.075 56.582C165.957 57.032 166.659 57.599 167.181 58.283V56.123H170.286V71H167.181V68.786C166.659 69.488 165.948 70.073 165.048 70.541C164.148 71.009 163.122 71.243 161.97 71.243C160.692 71.243 159.522 70.919 158.46 70.271C157.398 69.605 156.552 68.687 155.922 67.517C155.31 66.329 155.004 64.988 155.004 63.494ZM167.181 63.548C167.181 62.522 166.965 61.631 166.533 60.875C166.119 60.119 165.57 59.543 164.886 59.147C164.202 58.751 163.464 58.553 162.672 58.553C161.88 58.553 161.142 58.751 160.458 59.147C159.774 59.525 159.216 60.092 158.784 60.848C158.37 61.586 158.163 62.468 158.163 63.494C158.163 64.52 158.37 65.42 158.784 66.194C159.216 66.968 159.774 67.562 160.458 67.976C161.16 68.372 161.898 68.57 162.672 68.57C163.464 68.57 164.202 68.372 164.886 67.976C165.57 67.58 166.119 67.004 166.533 66.248C166.965 65.474 167.181 64.574 167.181 63.548ZM181.835 55.88C183.005 55.88 184.049 56.123 184.967 56.609C185.903 57.095 186.632 57.815 187.154 58.769C187.676 59.723 187.937 60.875 187.937 62.225V71H184.886V62.684C184.886 61.352 184.553 60.335 183.887 59.633C183.221 58.913 182.312 58.553 181.16 58.553C180.008 58.553 179.09 58.913 178.406 59.633C177.74 60.335 177.407 61.352 177.407 62.684V71H174.329V56.123H177.407V57.824C177.911 57.212 178.55 56.735 179.324 56.393C180.116 56.051 180.953 55.88 181.835 55.88ZM195.454 58.634V66.869C195.454 67.427 195.58 67.832 195.832 68.084C196.102 68.318 196.552 68.435 197.182 68.435H199.072V71H196.642C195.256 71 194.194 70.676 193.456 70.028C192.718 69.38 192.349 68.327 192.349 66.869V58.634H190.594V56.123H192.349V52.424H195.454V56.123H199.072V58.634H195.454ZM212.514 58.634V66.869C212.514 67.427 212.64 67.832 212.892 68.084C213.162 68.318 213.612 68.435 214.242 68.435H216.132V71H213.702C212.316 71 211.254 70.676 210.516 70.028C209.778 69.38 209.409 68.327 209.409 66.869V58.634H207.654V56.123H209.409V52.424H212.514V56.123H216.132V58.634H212.514ZM225.422 71.243C224.018 71.243 222.749 70.928 221.615 70.298C220.481 69.65 219.59 68.75 218.942 67.598C218.294 66.428 217.97 65.078 217.97 63.548C217.97 62.036 218.303 60.695 218.969 59.525C219.635 58.355 220.544 57.455 221.696 56.825C222.848 56.195 224.135 55.88 225.557 55.88C226.979 55.88 228.266 56.195 229.418 56.825C230.57 57.455 231.479 58.355 232.145 59.525C232.811 60.695 233.144 62.036 233.144 63.548C233.144 65.06 232.802 66.401 232.118 67.571C231.434 68.741 230.498 69.65 229.31 70.298C228.14 70.928 226.844 71.243 225.422 71.243ZM225.422 68.57C226.214 68.57 226.952 68.381 227.636 68.003C228.338 67.625 228.905 67.058 229.337 66.302C229.769 65.546 229.985 64.628 229.985 63.548C229.985 62.468 229.778 61.559 229.364 60.821C228.95 60.065 228.401 59.498 227.717 59.12C227.033 58.742 226.295 58.553 225.503 58.553C224.711 58.553 223.973 58.742 223.289 59.12C222.623 59.498 222.092 60.065 221.696 60.821C221.3 61.559 221.102 62.468 221.102 63.548C221.102 65.15 221.507 66.392 222.317 67.274C223.145 68.138 224.18 68.57 225.422 68.57ZM261.209 55.88C262.379 55.88 263.423 56.123 264.341 56.609C265.277 57.095 266.006 57.815 266.528 58.769C267.068 59.723 267.338 60.875 267.338 62.225V71H264.287V62.684C264.287 61.352 263.954 60.335 263.288 59.633C262.622 58.913 261.713 58.553 260.561 58.553C259.409 58.553 258.491 58.913 257.807 59.633C257.141 60.335 256.808 61.352 256.808 62.684V71H253.757V62.684C253.757 61.352 253.424 60.335 252.758 59.633C252.092 58.913 251.183 58.553 250.031 58.553C248.879 58.553 247.961 58.913 247.277 59.633C246.611 60.335 246.278 61.352 246.278 62.684V71H243.2V56.123H246.278V57.824C246.782 57.212 247.421 56.735 248.195 56.393C248.969 56.051 249.797 55.88 250.679 55.88C251.867 55.88 252.929 56.132 253.865 56.636C254.801 57.14 255.521 57.869 256.025 58.823C256.475 57.923 257.177 57.212 258.131 56.69C259.085 56.15 260.111 55.88 261.209 55.88ZM272.821 54.152C272.263 54.152 271.795 53.963 271.417 53.585C271.039 53.207 270.85 52.739 270.85 52.181C270.85 51.623 271.039 51.155 271.417 50.777C271.795 50.399 272.263 50.21 272.821 50.21C273.361 50.21 273.82 50.399 274.198 50.777C274.576 51.155 274.765 51.623 274.765 52.181C274.765 52.739 274.576 53.207 274.198 53.585C273.82 53.963 273.361 54.152 272.821 54.152ZM274.333 56.123V71H271.255V56.123H274.333ZM284.746 63.467L289.552 71H286.069L282.856 65.951L279.832 71H276.619L281.425 63.683L276.619 56.123H280.102L283.315 61.172L286.339 56.123H289.552L284.746 63.467ZM297.835 63.494C297.835 62 298.141 60.677 298.753 59.525C299.383 58.373 300.229 57.482 301.291 56.852C302.371 56.204 303.559 55.88 304.855 55.88C306.025 55.88 307.042 56.114 307.906 56.582C308.788 57.032 309.49 57.599 310.012 58.283V56.123H313.117V71H310.012V68.786C309.49 69.488 308.779 70.073 307.879 70.541C306.979 71.009 305.953 71.243 304.801 71.243C303.523 71.243 302.353 70.919 301.291 70.271C300.229 69.605 299.383 68.687 298.753 67.517C298.141 66.329 297.835 64.988 297.835 63.494ZM310.012 63.548C310.012 62.522 309.796 61.631 309.364 60.875C308.95 60.119 308.401 59.543 307.717 59.147C307.033 58.751 306.295 58.553 305.503 58.553C304.711 58.553 303.973 58.751 303.289 59.147C302.605 59.525 302.047 60.092 301.615 60.848C301.201 61.586 300.994 62.468 300.994 63.494C300.994 64.52 301.201 65.42 301.615 66.194C302.047 66.968 302.605 67.562 303.289 67.976C303.991 68.372 304.729 68.57 305.503 68.57C306.295 68.57 307.033 68.372 307.717 67.976C308.401 67.58 308.95 67.004 309.364 66.248C309.796 65.474 310.012 64.574 310.012 63.548ZM324.666 55.88C325.836 55.88 326.88 56.123 327.798 56.609C328.734 57.095 329.463 57.815 329.985 58.769C330.507 59.723 330.768 60.875 330.768 62.225V71H327.717V62.684C327.717 61.352 327.384 60.335 326.718 59.633C326.052 58.913 325.143 58.553 323.991 58.553C322.839 58.553 321.921 58.913 321.237 59.633C320.571 60.335 320.238 61.352 320.238 62.684V71H317.16V56.123H320.238V57.824C320.742 57.212 321.381 56.735 322.155 56.393C322.947 56.051 323.784 55.88 324.666 55.88ZM333.668 63.494C333.668 62 333.974 60.677 334.586 59.525C335.216 58.373 336.062 57.482 337.124 56.852C338.204 56.204 339.401 55.88 340.715 55.88C341.687 55.88 342.641 56.096 343.577 56.528C344.531 56.942 345.287 57.5 345.845 58.202V51.02H348.95V71H345.845V68.759C345.341 69.479 344.639 70.073 343.739 70.541C342.857 71.009 341.84 71.243 340.688 71.243C339.392 71.243 338.204 70.919 337.124 70.271C336.062 69.605 335.216 68.687 334.586 67.517C333.974 66.329 333.668 64.988 333.668 63.494ZM345.845 63.548C345.845 62.522 345.629 61.631 345.197 60.875C344.783 60.119 344.234 59.543 343.55 59.147C342.866 58.751 342.128 58.553 341.336 58.553C340.544 58.553 339.806 58.751 339.122 59.147C338.438 59.525 337.88 60.092 337.448 60.848C337.034 61.586 336.827 62.468 336.827 63.494C336.827 64.52 337.034 65.42 337.448 66.194C337.88 66.968 338.438 67.562 339.122 67.976C339.824 68.372 340.562 68.57 341.336 68.57C342.128 68.57 342.866 68.372 343.55 67.976C344.234 67.58 344.783 67.004 345.197 66.248C345.629 65.474 345.845 64.574 345.845 63.548ZM206.708 84.88C207.878 84.88 208.922 85.123 209.84 85.609C210.776 86.095 211.505 86.815 212.027 87.769C212.567 88.723 212.837 89.875 212.837 91.225V100H209.786V91.684C209.786 90.352 209.453 89.335 208.787 88.633C208.121 87.913 207.212 87.553 206.06 87.553C204.908 87.553 203.99 87.913 203.306 88.633C202.64 89.335 202.307 90.352 202.307 91.684V100H199.256V91.684C199.256 90.352 198.923 89.335 198.257 88.633C197.591 87.913 196.682 87.553 195.53 87.553C194.378 87.553 193.46 87.913 192.776 88.633C192.11 89.335 191.777 90.352 191.777 91.684V100H188.699V85.123H191.777V86.824C192.281 86.212 192.92 85.735 193.694 85.393C194.468 85.051 195.296 84.88 196.178 84.88C197.366 84.88 198.428 85.132 199.364 85.636C200.3 86.14 201.02 86.869 201.524 87.823C201.974 86.923 202.676 86.212 203.63 85.69C204.584 85.15 205.61 84.88 206.708 84.88ZM215.728 92.494C215.728 91 216.034 89.677 216.646 88.525C217.276 87.373 218.122 86.482 219.184 85.852C220.264 85.204 221.452 84.88 222.748 84.88C223.918 84.88 224.935 85.114 225.799 85.582C226.681 86.032 227.383 86.599 227.905 87.283V85.123H231.01V100H227.905V97.786C227.383 98.488 226.672 99.073 225.772 99.541C224.872 100.009 223.846 100.243 222.694 100.243C221.416 100.243 220.246 99.919 219.184 99.271C218.122 98.605 217.276 97.687 216.646 96.517C216.034 95.329 215.728 93.988 215.728 92.494ZM227.905 92.548C227.905 91.522 227.689 90.631 227.257 89.875C226.843 89.119 226.294 88.543 225.61 88.147C224.926 87.751 224.188 87.553 223.396 87.553C222.604 87.553 221.866 87.751 221.182 88.147C220.498 88.525 219.94 89.092 219.508 89.848C219.094 90.586 218.887 91.468 218.887 92.494C218.887 93.52 219.094 94.42 219.508 95.194C219.94 95.968 220.498 96.562 221.182 96.976C221.884 97.372 222.622 97.57 223.396 97.57C224.188 97.57 224.926 97.372 225.61 96.976C226.294 96.58 226.843 96.004 227.257 95.248C227.689 94.474 227.905 93.574 227.905 92.548ZM238.644 87.634V95.869C238.644 96.427 238.77 96.832 239.022 97.084C239.292 97.318 239.742 97.435 240.372 97.435H242.262V100H239.832C238.446 100 237.384 99.676 236.646 99.028C235.908 98.38 235.539 97.327 235.539 95.869V87.634H233.784V85.123H235.539V81.424H238.644V85.123H242.262V87.634H238.644ZM244.073 92.548C244.073 91.018 244.379 89.677 244.991 88.525C245.621 87.355 246.485 86.455 247.583 85.825C248.681 85.195 249.941 84.88 251.363 84.88C253.163 84.88 254.648 85.312 255.818 86.176C257.006 87.022 257.807 88.237 258.221 89.821H254.9C254.63 89.083 254.198 88.507 253.604 88.093C253.01 87.679 252.263 87.472 251.363 87.472C250.103 87.472 249.095 87.922 248.339 88.822C247.601 89.704 247.232 90.946 247.232 92.548C247.232 94.15 247.601 95.401 248.339 96.301C249.095 97.201 250.103 97.651 251.363 97.651C253.145 97.651 254.324 96.868 254.9 95.302H258.221C257.789 96.814 256.979 98.02 255.791 98.92C254.603 99.802 253.127 100.243 251.363 100.243C249.941 100.243 248.681 99.928 247.583 99.298C246.485 98.65 245.621 97.75 244.991 96.598C244.379 95.428 244.073 94.078 244.073 92.548ZM268.983 84.88C270.117 84.88 271.125 85.123 272.007 85.609C272.907 86.095 273.609 86.815 274.113 87.769C274.635 88.723 274.896 89.875 274.896 91.225V100H271.845V91.684C271.845 90.352 271.512 89.335 270.846 88.633C270.18 87.913 269.271 87.553 268.119 87.553C266.967 87.553 266.049 87.913 265.365 88.633C264.699 89.335 264.366 90.352 264.366 91.684V100H261.288V80.02H264.366V86.851C264.888 86.221 265.545 85.735 266.337 85.393C267.147 85.051 268.029 84.88 268.983 84.88ZM283.871 80.965C285.707 80.965 287.174 81.469 288.272 82.477C289.388 83.485 289.946 84.862 289.946 86.608C289.946 88.426 289.37 89.794 288.218 90.712C287.066 91.63 285.536 92.089 283.628 92.089L283.52 94.222H280.847L280.712 89.983H281.603C283.349 89.983 284.681 89.749 285.599 89.281C286.535 88.813 287.003 87.922 287.003 86.608C287.003 85.654 286.724 84.907 286.166 84.367C285.626 83.827 284.87 83.557 283.898 83.557C282.926 83.557 282.161 83.818 281.603 84.34C281.045 84.862 280.766 85.591 280.766 86.527H277.877C277.877 85.447 278.12 84.484 278.606 83.638C279.092 82.792 279.785 82.135 280.685 81.667C281.603 81.199 282.665 80.965 283.871 80.965ZM282.143 100.189C281.585 100.189 281.117 100 280.739 99.622C280.361 99.244 280.172 98.776 280.172 98.218C280.172 97.66 280.361 97.192 280.739 96.814C281.117 96.436 281.585 96.247 282.143 96.247C282.683 96.247 283.142 96.436 283.52 96.814C283.898 97.192 284.087 97.66 284.087 98.218C284.087 98.776 283.898 99.244 283.52 99.622C283.142 100 282.683 100.189 282.143 100.189Z" fill="#FFB8BC" />
    <path d="M126.295 147.154L121.03 166H116.575L113.038 152.581L109.339 166L104.911 166.027L99.8347 147.154H103.885L107.206 161.788L111.04 147.154H115.252L118.87 161.707L122.218 147.154H126.295ZM142.668 158.197C142.668 158.737 142.632 159.223 142.56 159.655H131.625C131.715 160.735 132.093 161.581 132.759 162.193C133.425 162.805 134.244 163.111 135.216 163.111C136.62 163.111 137.619 162.508 138.213 161.302H142.29C141.858 162.742 141.03 163.93 139.806 164.866C138.582 165.784 137.079 166.243 135.297 166.243C133.857 166.243 132.561 165.928 131.409 165.298C130.275 164.65 129.384 163.741 128.736 162.571C128.106 161.401 127.791 160.051 127.791 158.521C127.791 156.973 128.106 155.614 128.736 154.444C129.366 153.274 130.248 152.374 131.382 151.744C132.516 151.114 133.821 150.799 135.297 150.799C136.719 150.799 137.988 151.105 139.104 151.717C140.238 152.329 141.111 153.202 141.723 154.336C142.353 155.452 142.668 156.739 142.668 158.197ZM138.753 157.117C138.735 156.145 138.384 155.371 137.7 154.795C137.016 154.201 136.179 153.904 135.189 153.904C134.253 153.904 133.461 154.192 132.813 154.768C132.183 155.326 131.796 156.109 131.652 157.117H138.753ZM157.585 166.243C156.361 166.243 155.263 166.027 154.291 165.595C153.319 165.145 152.545 164.542 151.969 163.786C151.411 163.03 151.105 162.193 151.051 161.275H154.858C154.93 161.851 155.209 162.328 155.695 162.706C156.199 163.084 156.82 163.273 157.558 163.273C158.278 163.273 158.836 163.129 159.232 162.841C159.646 162.553 159.853 162.184 159.853 161.734C159.853 161.248 159.601 160.888 159.097 160.654C158.611 160.402 157.828 160.132 156.748 159.844C155.632 159.574 154.714 159.295 153.994 159.007C153.292 158.719 152.68 158.278 152.158 157.684C151.654 157.09 151.402 156.289 151.402 155.281C151.402 154.453 151.636 153.697 152.104 153.013C152.59 152.329 153.274 151.789 154.156 151.393C155.056 150.997 156.109 150.799 157.315 150.799C159.097 150.799 160.519 151.249 161.581 152.149C162.643 153.031 163.228 154.228 163.336 155.74H159.718C159.664 155.146 159.412 154.678 158.962 154.336C158.53 153.976 157.945 153.796 157.207 153.796C156.523 153.796 155.992 153.922 155.614 154.174C155.254 154.426 155.074 154.777 155.074 155.227C155.074 155.731 155.326 156.118 155.83 156.388C156.334 156.64 157.117 156.901 158.179 157.171C159.259 157.441 160.15 157.72 160.852 158.008C161.554 158.296 162.157 158.746 162.661 159.358C163.183 159.952 163.453 160.744 163.471 161.734C163.471 162.598 163.228 163.372 162.742 164.056C162.274 164.74 161.59 165.28 160.69 165.676C159.808 166.054 158.773 166.243 157.585 166.243ZM180.694 151.042V166H176.887V164.11C176.401 164.758 175.762 165.271 174.97 165.649C174.196 166.009 173.35 166.189 172.432 166.189C171.262 166.189 170.227 165.946 169.327 165.46C168.427 164.956 167.716 164.227 167.194 163.273C166.69 162.301 166.438 161.149 166.438 159.817V151.042H170.218V159.277C170.218 160.465 170.515 161.383 171.109 162.031C171.703 162.661 172.513 162.976 173.539 162.976C174.583 162.976 175.402 162.661 175.996 162.031C176.59 161.383 176.887 160.465 176.887 159.277V151.042H180.694ZM190.283 150.799C191.399 150.799 192.38 151.024 193.226 151.474C194.072 151.906 194.738 152.473 195.224 153.175V151.042H199.031V166.108C199.031 167.494 198.752 168.727 198.194 169.807C197.636 170.905 196.799 171.769 195.683 172.399C194.567 173.047 193.217 173.371 191.633 173.371C189.509 173.371 187.763 172.876 186.395 171.886C185.045 170.896 184.28 169.546 184.1 167.836H187.853C188.051 168.52 188.474 169.06 189.122 169.456C189.788 169.87 190.589 170.077 191.525 170.077C192.623 170.077 193.514 169.744 194.198 169.078C194.882 168.43 195.224 167.44 195.224 166.108V163.786C194.738 164.488 194.063 165.073 193.199 165.541C192.353 166.009 191.381 166.243 190.283 166.243C189.023 166.243 187.871 165.919 186.827 165.271C185.783 164.623 184.955 163.714 184.343 162.544C183.749 161.356 183.452 159.997 183.452 158.467C183.452 156.955 183.749 155.614 184.343 154.444C184.955 153.274 185.774 152.374 186.8 151.744C187.844 151.114 189.005 150.799 190.283 150.799ZM195.224 158.521C195.224 157.603 195.044 156.82 194.684 156.172C194.324 155.506 193.838 155.002 193.226 154.66C192.614 154.3 191.957 154.12 191.255 154.12C190.553 154.12 189.905 154.291 189.311 154.633C188.717 154.975 188.231 155.479 187.853 156.145C187.493 156.793 187.313 157.567 187.313 158.467C187.313 159.367 187.493 160.159 187.853 160.843C188.231 161.509 188.717 162.022 189.311 162.382C189.923 162.742 190.571 162.922 191.255 162.922C191.957 162.922 192.614 162.751 193.226 162.409C193.838 162.049 194.324 161.545 194.684 160.897C195.044 160.231 195.224 159.439 195.224 158.521ZM208.582 150.799C209.698 150.799 210.679 151.024 211.525 151.474C212.371 151.906 213.037 152.473 213.523 153.175V151.042H217.33V166.108C217.33 167.494 217.051 168.727 216.493 169.807C215.935 170.905 215.098 171.769 213.982 172.399C212.866 173.047 211.516 173.371 209.932 173.371C207.808 173.371 206.062 172.876 204.694 171.886C203.344 170.896 202.579 169.546 202.399 167.836H206.152C206.35 168.52 206.773 169.06 207.421 169.456C208.087 169.87 208.888 170.077 209.824 170.077C210.922 170.077 211.813 169.744 212.497 169.078C213.181 168.43 213.523 167.44 213.523 166.108V163.786C213.037 164.488 212.362 165.073 211.498 165.541C210.652 166.009 209.68 166.243 208.582 166.243C207.322 166.243 206.17 165.919 205.126 165.271C204.082 164.623 203.254 163.714 202.642 162.544C202.048 161.356 201.751 159.997 201.751 158.467C201.751 156.955 202.048 155.614 202.642 154.444C203.254 153.274 204.073 152.374 205.099 151.744C206.143 151.114 207.304 150.799 208.582 150.799ZM213.523 158.521C213.523 157.603 213.343 156.82 212.983 156.172C212.623 155.506 212.137 155.002 211.525 154.66C210.913 154.3 210.256 154.12 209.554 154.12C208.852 154.12 208.204 154.291 207.61 154.633C207.016 154.975 206.53 155.479 206.152 156.145C205.792 156.793 205.612 157.567 205.612 158.467C205.612 159.367 205.792 160.159 206.152 160.843C206.53 161.509 207.016 162.022 207.61 162.382C208.222 162.742 208.87 162.922 209.554 162.922C210.256 162.922 210.913 162.751 211.525 162.409C212.137 162.049 212.623 161.545 212.983 160.897C213.343 160.231 213.523 159.439 213.523 158.521ZM234.927 158.197C234.927 158.737 234.891 159.223 234.819 159.655H223.884C223.974 160.735 224.352 161.581 225.018 162.193C225.684 162.805 226.503 163.111 227.475 163.111C228.879 163.111 229.878 162.508 230.472 161.302H234.549C234.117 162.742 233.289 163.93 232.065 164.866C230.841 165.784 229.338 166.243 227.556 166.243C226.116 166.243 224.82 165.928 223.668 165.298C222.534 164.65 221.643 163.741 220.995 162.571C220.365 161.401 220.05 160.051 220.05 158.521C220.05 156.973 220.365 155.614 220.995 154.444C221.625 153.274 222.507 152.374 223.641 151.744C224.775 151.114 226.08 150.799 227.556 150.799C228.978 150.799 230.247 151.105 231.363 151.717C232.497 152.329 233.37 153.202 233.982 154.336C234.612 155.452 234.927 156.739 234.927 158.197ZM231.012 157.117C230.994 156.145 230.643 155.371 229.959 154.795C229.275 154.201 228.438 153.904 227.448 153.904C226.512 153.904 225.72 154.192 225.072 154.768C224.442 155.326 224.055 156.109 223.911 157.117H231.012ZM243.41 166.243C242.186 166.243 241.088 166.027 240.116 165.595C239.144 165.145 238.37 164.542 237.794 163.786C237.236 163.03 236.93 162.193 236.876 161.275H240.683C240.755 161.851 241.034 162.328 241.52 162.706C242.024 163.084 242.645 163.273 243.383 163.273C244.103 163.273 244.661 163.129 245.057 162.841C245.471 162.553 245.678 162.184 245.678 161.734C245.678 161.248 245.426 160.888 244.922 160.654C244.436 160.402 243.653 160.132 242.573 159.844C241.457 159.574 240.539 159.295 239.819 159.007C239.117 158.719 238.505 158.278 237.983 157.684C237.479 157.09 237.227 156.289 237.227 155.281C237.227 154.453 237.461 153.697 237.929 153.013C238.415 152.329 239.099 151.789 239.981 151.393C240.881 150.997 241.934 150.799 243.14 150.799C244.922 150.799 246.344 151.249 247.406 152.149C248.468 153.031 249.053 154.228 249.161 155.74H245.543C245.489 155.146 245.237 154.678 244.787 154.336C244.355 153.976 243.77 153.796 243.032 153.796C242.348 153.796 241.817 153.922 241.439 154.174C241.079 154.426 240.899 154.777 240.899 155.227C240.899 155.731 241.151 156.118 241.655 156.388C242.159 156.64 242.942 156.901 244.004 157.171C245.084 157.441 245.975 157.72 246.677 158.008C247.379 158.296 247.982 158.746 248.486 159.358C249.008 159.952 249.278 160.744 249.296 161.734C249.296 162.598 249.053 163.372 248.567 164.056C248.099 164.74 247.415 165.28 246.515 165.676C245.633 166.054 244.598 166.243 243.41 166.243ZM256.8 154.147V161.383C256.8 161.887 256.917 162.256 257.151 162.49C257.403 162.706 257.817 162.814 258.393 162.814H260.148V166H257.772C254.586 166 252.993 164.452 252.993 161.356V154.147H251.211V151.042H252.993V147.343H256.8V151.042H260.148V154.147H256.8ZM275.024 166.243C273.8 166.243 272.702 166.027 271.73 165.595C270.758 165.145 269.984 164.542 269.408 163.786C268.85 163.03 268.544 162.193 268.49 161.275H272.297C272.369 161.851 272.648 162.328 273.134 162.706C273.638 163.084 274.259 163.273 274.997 163.273C275.717 163.273 276.275 163.129 276.671 162.841C277.085 162.553 277.292 162.184 277.292 161.734C277.292 161.248 277.04 160.888 276.536 160.654C276.05 160.402 275.267 160.132 274.187 159.844C273.071 159.574 272.153 159.295 271.433 159.007C270.731 158.719 270.119 158.278 269.597 157.684C269.093 157.09 268.841 156.289 268.841 155.281C268.841 154.453 269.075 153.697 269.543 153.013C270.029 152.329 270.713 151.789 271.595 151.393C272.495 150.997 273.548 150.799 274.754 150.799C276.536 150.799 277.958 151.249 279.02 152.149C280.082 153.031 280.667 154.228 280.775 155.74H277.157C277.103 155.146 276.851 154.678 276.401 154.336C275.969 153.976 275.384 153.796 274.646 153.796C273.962 153.796 273.431 153.922 273.053 154.174C272.693 154.426 272.513 154.777 272.513 155.227C272.513 155.731 272.765 156.118 273.269 156.388C273.773 156.64 274.556 156.901 275.618 157.171C276.698 157.441 277.589 157.72 278.291 158.008C278.993 158.296 279.596 158.746 280.1 159.358C280.622 159.952 280.892 160.744 280.91 161.734C280.91 162.598 280.667 163.372 280.181 164.056C279.713 164.74 279.029 165.28 278.129 165.676C277.247 166.054 276.212 166.243 275.024 166.243ZM298.134 151.042V166H294.327V164.11C293.841 164.758 293.202 165.271 292.41 165.649C291.636 166.009 290.79 166.189 289.872 166.189C288.702 166.189 287.667 165.946 286.767 165.46C285.867 164.956 285.156 164.227 284.634 163.273C284.13 162.301 283.878 161.149 283.878 159.817V151.042H287.658V159.277C287.658 160.465 287.955 161.383 288.549 162.031C289.143 162.661 289.953 162.976 290.979 162.976C292.023 162.976 292.842 162.661 293.436 162.031C294.03 161.383 294.327 160.465 294.327 159.277V151.042H298.134ZM303.78 149.26C303.114 149.26 302.556 149.053 302.106 148.639C301.674 148.207 301.458 147.676 301.458 147.046C301.458 146.416 301.674 145.894 302.106 145.48C302.556 145.048 303.114 144.832 303.78 144.832C304.446 144.832 304.995 145.048 305.427 145.48C305.877 145.894 306.102 146.416 306.102 147.046C306.102 147.676 305.877 148.207 305.427 148.639C304.995 149.053 304.446 149.26 303.78 149.26ZM305.643 151.042V166H301.863V151.042H305.643ZM313.779 154.147V161.383C313.779 161.887 313.896 162.256 314.13 162.49C314.382 162.706 314.796 162.814 315.372 162.814H317.127V166H314.751C311.565 166 309.972 164.452 309.972 161.356V154.147H308.19V151.042H309.972V147.343H313.779V151.042H317.127V154.147H313.779ZM318.874 158.467C318.874 156.955 319.171 155.614 319.765 154.444C320.377 153.274 321.196 152.374 322.222 151.744C323.266 151.114 324.427 150.799 325.705 150.799C326.821 150.799 327.793 151.024 328.621 151.474C329.467 151.924 330.142 152.491 330.646 153.175V151.042H334.453V166H330.646V163.813C330.16 164.515 329.485 165.1 328.621 165.568C327.775 166.018 326.794 166.243 325.678 166.243C324.418 166.243 323.266 165.919 322.222 165.271C321.196 164.623 320.377 163.714 319.765 162.544C319.171 161.356 318.874 159.997 318.874 158.467ZM330.646 158.521C330.646 157.603 330.466 156.82 330.106 156.172C329.746 155.506 329.26 155.002 328.648 154.66C328.036 154.3 327.379 154.12 326.677 154.12C325.975 154.12 325.327 154.291 324.733 154.633C324.139 154.975 323.653 155.479 323.275 156.145C322.915 156.793 322.735 157.567 322.735 158.467C322.735 159.367 322.915 160.159 323.275 160.843C323.653 161.509 324.139 162.022 324.733 162.382C325.345 162.742 325.993 162.922 326.677 162.922C327.379 162.922 328.036 162.751 328.648 162.409C329.26 162.049 329.746 161.545 330.106 160.897C330.466 160.231 330.646 159.439 330.646 158.521ZM341.925 153.229C342.411 152.509 343.077 151.924 343.923 151.474C344.787 151.024 345.768 150.799 346.866 150.799C348.144 150.799 349.296 151.114 350.322 151.744C351.366 152.374 352.185 153.274 352.779 154.444C353.391 155.596 353.697 156.937 353.697 158.467C353.697 159.997 353.391 161.356 352.779 162.544C352.185 163.714 351.366 164.623 350.322 165.271C349.296 165.919 348.144 166.243 346.866 166.243C345.75 166.243 344.769 166.027 343.923 165.595C343.095 165.145 342.429 164.569 341.925 163.867V166H338.145V146.02H341.925V153.229ZM349.836 158.467C349.836 157.567 349.647 156.793 349.269 156.145C348.909 155.479 348.423 154.975 347.811 154.633C347.217 154.291 346.569 154.12 345.867 154.12C345.183 154.12 344.535 154.3 343.923 154.66C343.329 155.002 342.843 155.506 342.465 156.172C342.105 156.838 341.925 157.621 341.925 158.521C341.925 159.421 342.105 160.204 342.465 160.87C342.843 161.536 343.329 162.049 343.923 162.409C344.535 162.751 345.183 162.922 345.867 162.922C346.569 162.922 347.217 162.742 347.811 162.382C348.423 162.022 348.909 161.509 349.269 160.843C349.647 160.177 349.836 159.385 349.836 158.467ZM360.224 146.02V166H356.444V146.02H360.224ZM377.863 158.197C377.863 158.737 377.827 159.223 377.755 159.655H366.82C366.91 160.735 367.288 161.581 367.954 162.193C368.62 162.805 369.439 163.111 370.411 163.111C371.815 163.111 372.814 162.508 373.408 161.302H377.485C377.053 162.742 376.225 163.93 375.001 164.866C373.777 165.784 372.274 166.243 370.492 166.243C369.052 166.243 367.756 165.928 366.604 165.298C365.47 164.65 364.579 163.741 363.931 162.571C363.301 161.401 362.986 160.051 362.986 158.521C362.986 156.973 363.301 155.614 363.931 154.444C364.561 153.274 365.443 152.374 366.577 151.744C367.711 151.114 369.016 150.799 370.492 150.799C371.914 150.799 373.183 151.105 374.299 151.717C375.433 152.329 376.306 153.202 376.918 154.336C377.548 155.452 377.863 156.739 377.863 158.197ZM373.948 157.117C373.93 156.145 373.579 155.371 372.895 154.795C372.211 154.201 371.374 153.904 370.384 153.904C369.448 153.904 368.656 154.192 368.008 154.768C367.378 155.326 366.991 156.109 366.847 157.117H373.948ZM144.152 199.521C144.152 197.973 144.467 196.623 145.097 195.471C145.727 194.301 146.6 193.401 147.716 192.771C148.832 192.123 150.11 191.799 151.55 191.799C153.404 191.799 154.934 192.267 156.14 193.203C157.364 194.121 158.183 195.417 158.597 197.091H154.52C154.304 196.443 153.935 195.939 153.413 195.579C152.909 195.201 152.279 195.012 151.523 195.012C150.443 195.012 149.588 195.408 148.958 196.2C148.328 196.974 148.013 198.081 148.013 199.521C148.013 200.943 148.328 202.05 148.958 202.842C149.588 203.616 150.443 204.003 151.523 204.003C153.053 204.003 154.052 203.319 154.52 201.951H158.597C158.183 203.571 157.364 204.858 156.14 205.812C154.916 206.766 153.386 207.243 151.55 207.243C150.11 207.243 148.832 206.928 147.716 206.298C146.6 205.65 145.727 204.75 145.097 203.598C144.467 202.428 144.152 201.069 144.152 199.521ZM168.008 207.243C166.568 207.243 165.272 206.928 164.12 206.298C162.968 205.65 162.059 204.741 161.393 203.571C160.745 202.401 160.421 201.051 160.421 199.521C160.421 197.991 160.754 196.641 161.42 195.471C162.104 194.301 163.031 193.401 164.201 192.771C165.371 192.123 166.676 191.799 168.116 191.799C169.556 191.799 170.861 192.123 172.031 192.771C173.201 193.401 174.119 194.301 174.785 195.471C175.469 196.641 175.811 197.991 175.811 199.521C175.811 201.051 175.46 202.401 174.758 203.571C174.074 204.741 173.138 205.65 171.95 206.298C170.78 206.928 169.466 207.243 168.008 207.243ZM168.008 203.949C168.692 203.949 169.331 203.787 169.925 203.463C170.537 203.121 171.023 202.617 171.383 201.951C171.743 201.285 171.923 200.475 171.923 199.521C171.923 198.099 171.545 197.01 170.789 196.254C170.051 195.48 169.142 195.093 168.062 195.093C166.982 195.093 166.073 195.48 165.335 196.254C164.615 197.01 164.255 198.099 164.255 199.521C164.255 200.943 164.606 202.041 165.308 202.815C166.028 203.571 166.928 203.949 168.008 203.949ZM197.16 191.826C198.996 191.826 200.472 192.393 201.588 193.527C202.722 194.643 203.289 196.209 203.289 198.225V207H199.509V198.738C199.509 197.568 199.212 196.677 198.618 196.065C198.024 195.435 197.214 195.12 196.188 195.12C195.162 195.12 194.343 195.435 193.731 196.065C193.137 196.677 192.84 197.568 192.84 198.738V207H189.06V198.738C189.06 197.568 188.763 196.677 188.169 196.065C187.575 195.435 186.765 195.12 185.739 195.12C184.695 195.12 183.867 195.435 183.255 196.065C182.661 196.677 182.364 197.568 182.364 198.738V207H178.584V192.042H182.364V193.851C182.85 193.221 183.471 192.726 184.227 192.366C185.001 192.006 185.847 191.826 186.765 191.826C187.935 191.826 188.979 192.078 189.897 192.582C190.815 193.068 191.526 193.77 192.03 194.688C192.516 193.824 193.218 193.131 194.136 192.609C195.072 192.087 196.08 191.826 197.16 191.826ZM210.656 194.229C211.142 193.509 211.808 192.924 212.654 192.474C213.518 192.024 214.499 191.799 215.597 191.799C216.875 191.799 218.027 192.114 219.053 192.744C220.097 193.374 220.916 194.274 221.51 195.444C222.122 196.596 222.428 197.937 222.428 199.467C222.428 200.997 222.122 202.356 221.51 203.544C220.916 204.714 220.097 205.623 219.053 206.271C218.027 206.919 216.875 207.243 215.597 207.243C214.481 207.243 213.5 207.027 212.654 206.595C211.826 206.145 211.16 205.569 210.656 204.867V207H206.876V187.02H210.656V194.229ZM218.567 199.467C218.567 198.567 218.378 197.793 218 197.145C217.64 196.479 217.154 195.975 216.542 195.633C215.948 195.291 215.3 195.12 214.598 195.12C213.914 195.12 213.266 195.3 212.654 195.66C212.06 196.002 211.574 196.506 211.196 197.172C210.836 197.838 210.656 198.621 210.656 199.521C210.656 200.421 210.836 201.204 211.196 201.87C211.574 202.536 212.06 203.049 212.654 203.409C213.266 203.751 213.914 203.922 214.598 203.922C215.3 203.922 215.948 203.742 216.542 203.382C217.154 203.022 217.64 202.509 218 201.843C218.378 201.177 218.567 200.385 218.567 199.467ZM227.092 190.26C226.426 190.26 225.868 190.053 225.418 189.639C224.986 189.207 224.77 188.676 224.77 188.046C224.77 187.416 224.986 186.894 225.418 186.48C225.868 186.048 226.426 185.832 227.092 185.832C227.758 185.832 228.307 186.048 228.739 186.48C229.189 186.894 229.414 187.416 229.414 188.046C229.414 188.676 229.189 189.207 228.739 189.639C228.307 190.053 227.758 190.26 227.092 190.26ZM228.955 192.042V207H225.175V192.042H228.955ZM240.978 191.826C242.76 191.826 244.2 192.393 245.298 193.527C246.396 194.643 246.945 196.209 246.945 198.225V207H243.165V198.738C243.165 197.55 242.868 196.641 242.274 196.011C241.68 195.363 240.87 195.039 239.844 195.039C238.8 195.039 237.972 195.363 237.36 196.011C236.766 196.641 236.469 197.55 236.469 198.738V207H232.689V192.042H236.469V193.905C236.973 193.257 237.612 192.753 238.386 192.393C239.178 192.015 240.042 191.826 240.978 191.826ZM249.568 199.467C249.568 197.955 249.865 196.614 250.459 195.444C251.071 194.274 251.89 193.374 252.916 192.744C253.96 192.114 255.121 191.799 256.399 191.799C257.515 191.799 258.487 192.024 259.315 192.474C260.161 192.924 260.836 193.491 261.34 194.175V192.042H265.147V207H261.34V204.813C260.854 205.515 260.179 206.1 259.315 206.568C258.469 207.018 257.488 207.243 256.372 207.243C255.112 207.243 253.96 206.919 252.916 206.271C251.89 205.623 251.071 204.714 250.459 203.544C249.865 202.356 249.568 200.997 249.568 199.467ZM261.34 199.521C261.34 198.603 261.16 197.82 260.8 197.172C260.44 196.506 259.954 196.002 259.342 195.66C258.73 195.3 258.073 195.12 257.371 195.12C256.669 195.12 256.021 195.291 255.427 195.633C254.833 195.975 254.347 196.479 253.969 197.145C253.609 197.793 253.429 198.567 253.429 199.467C253.429 200.367 253.609 201.159 253.969 201.843C254.347 202.509 254.833 203.022 255.427 203.382C256.039 203.742 256.687 203.922 257.371 203.922C258.073 203.922 258.73 203.751 259.342 203.409C259.954 203.049 260.44 202.545 260.8 201.897C261.16 201.231 261.34 200.439 261.34 199.521ZM273.24 195.147V202.383C273.24 202.887 273.357 203.256 273.591 203.49C273.843 203.706 274.257 203.814 274.833 203.814H276.588V207H274.212C271.026 207 269.433 205.452 269.433 202.356V195.147H267.651V192.042H269.433V188.343H273.24V192.042H276.588V195.147H273.24ZM281.223 190.26C280.557 190.26 279.999 190.053 279.549 189.639C279.117 189.207 278.901 188.676 278.901 188.046C278.901 187.416 279.117 186.894 279.549 186.48C279.999 186.048 280.557 185.832 281.223 185.832C281.889 185.832 282.438 186.048 282.87 186.48C283.32 186.894 283.545 187.416 283.545 188.046C283.545 188.676 283.32 189.207 282.87 189.639C282.438 190.053 281.889 190.26 281.223 190.26ZM283.086 192.042V207H279.306V192.042H283.086ZM293.463 207.243C292.023 207.243 290.727 206.928 289.575 206.298C288.423 205.65 287.514 204.741 286.848 203.571C286.2 202.401 285.876 201.051 285.876 199.521C285.876 197.991 286.209 196.641 286.875 195.471C287.559 194.301 288.486 193.401 289.656 192.771C290.826 192.123 292.131 191.799 293.571 191.799C295.011 191.799 296.316 192.123 297.486 192.771C298.656 193.401 299.574 194.301 300.24 195.471C300.924 196.641 301.266 197.991 301.266 199.521C301.266 201.051 300.915 202.401 300.213 203.571C299.529 204.741 298.593 205.65 297.405 206.298C296.235 206.928 294.921 207.243 293.463 207.243ZM293.463 203.949C294.147 203.949 294.786 203.787 295.38 203.463C295.992 203.121 296.478 202.617 296.838 201.951C297.198 201.285 297.378 200.475 297.378 199.521C297.378 198.099 297 197.01 296.244 196.254C295.506 195.48 294.597 195.093 293.517 195.093C292.437 195.093 291.528 195.48 290.79 196.254C290.07 197.01 289.71 198.099 289.71 199.521C289.71 200.943 290.061 202.041 290.763 202.815C291.483 203.571 292.383 203.949 293.463 203.949ZM312.328 191.826C314.11 191.826 315.55 192.393 316.648 193.527C317.746 194.643 318.295 196.209 318.295 198.225V207H314.515V198.738C314.515 197.55 314.218 196.641 313.624 196.011C313.03 195.363 312.22 195.039 311.194 195.039C310.15 195.039 309.322 195.363 308.71 196.011C308.116 196.641 307.819 197.55 307.819 198.738V207H304.039V192.042H307.819V193.905C308.323 193.257 308.962 192.753 309.736 192.393C310.528 192.015 311.392 191.826 312.328 191.826ZM327.613 207.243C326.389 207.243 325.291 207.027 324.319 206.595C323.347 206.145 322.573 205.542 321.997 204.786C321.439 204.03 321.133 203.193 321.079 202.275H324.886C324.958 202.851 325.237 203.328 325.723 203.706C326.227 204.084 326.848 204.273 327.586 204.273C328.306 204.273 328.864 204.129 329.26 203.841C329.674 203.553 329.881 203.184 329.881 202.734C329.881 202.248 329.629 201.888 329.125 201.654C328.639 201.402 327.856 201.132 326.776 200.844C325.66 200.574 324.742 200.295 324.022 200.007C323.32 199.719 322.708 199.278 322.186 198.684C321.682 198.09 321.43 197.289 321.43 196.281C321.43 195.453 321.664 194.697 322.132 194.013C322.618 193.329 323.302 192.789 324.184 192.393C325.084 191.997 326.137 191.799 327.343 191.799C329.125 191.799 330.547 192.249 331.609 193.149C332.671 194.031 333.256 195.228 333.364 196.74H329.746C329.692 196.146 329.44 195.678 328.99 195.336C328.558 194.976 327.973 194.796 327.235 194.796C326.551 194.796 326.02 194.922 325.642 195.174C325.282 195.426 325.102 195.777 325.102 196.227C325.102 196.731 325.354 197.118 325.858 197.388C326.362 197.64 327.145 197.901 328.207 198.171C329.287 198.441 330.178 198.72 330.88 199.008C331.582 199.296 332.185 199.746 332.689 200.358C333.211 200.952 333.481 201.744 333.499 202.734C333.499 203.598 333.256 204.372 332.77 205.056C332.302 205.74 331.618 206.28 330.718 206.676C329.836 207.054 328.801 207.243 327.613 207.243Z" fill="#FFB8BC" />
    <defs>
        <filter id="filter0_d_1926_175" x="0" y="0" width="478" height="327" filterUnits="userSpaceOnUse" color-interpolation-filters="sRGB">
            <feFlood flood-opacity="0" result="BackgroundImageFix" />
            <feColorMatrix in="SourceAlpha" type="matrix" values="0 0 0 0 0 0 0 0 0 0 0 0 0 0 0 0 0 0 127 0" result="hardAlpha" />
            <feOffset dy="8" />
            <feGaussianBlur stdDeviation="12.5" />
            <feComposite in2="hardAlpha" operator="out" />
            <feColorMatrix type="matrix" values="0 0 0 0 0.298039 0 0 0 0 0.164706 0 0 0 0 0.462745 0 0 0 0.55 0" />
            <feBlend mode="normal" in2="BackgroundImageFix" result="effect1_dropShadow_1926_175" />
            <feBlend mode="normal" in="SourceGraphic" in2="effect1_dropShadow_1926_175" result="shape" />
        </filter>
        <filter id="filter1_d_1926_175" x="174" y="232" width="131" height="131" filterUnits="userSpaceOnUse" color-interpolation-filters="sRGB">
            <feFlood flood-opacity="0" result="BackgroundImageFix" />
            <feColorMatrix in="SourceAlpha" type="matrix" values="0 0 0 0 0 0 0 0 0 0 0 0 0 0 0 0 0 0 127 0" result="hardAlpha" />
            <feOffset dy="4" />
            <feGaussianBlur stdDeviation="10" />
            <feComposite in2="hardAlpha" operator="out" />
            <feColorMatrix type="matrix" values="0 0 0 0 0 0 0 0 0 0 0 0 0 0 0 0 0 0 0.2 0" />
            <feBlend mode="normal" in2="BackgroundImageFix" result="effect1_dropShadow_1926_175" />
            <feBlend mode="normal" in="SourceGraphic" in2="effect1_dropShadow_1926_175" result="shape" />
        </filter>
    </defs>
</svg>