<svg width="400" height="220" viewBox="0 0 154 103" fill="none" xmlns="http://www.w3.org/2000/svg">
    <g filter="url(#filter0_d_1617_32)">
        <rect x="4.35742" y="2" width="145.643" height="78.9498" rx="14.7806" fill="white" />
        <rect x="4.53767" y="2.18025" width="145.282" height="78.5893" rx="14.6003" stroke="#DADADA" stroke-width="0.360502" />
    </g>
    <g filter="url(#filter1_d_1617_32)">
        <circle cx="76.9983" cy="80.7698" r="13.5188" fill="white" />
    </g>
    <path d="M82.2329 23.9419H79.4931L78.9884 25.3389H78.1232L80.3944 19.0932H81.3407L83.6028 25.3389H82.7376L82.2329 23.9419ZM81.9986 23.275L80.863 20.1026L79.7274 23.275H81.9986ZM85.4128 21.2021C85.557 20.9197 85.7613 20.7004 86.0257 20.5442C86.296 20.388 86.6235 20.3099 87.008 20.3099V21.157H86.7917C85.8724 21.157 85.4128 21.6557 85.4128 22.6531V25.3389H84.5927V20.4H85.4128V21.2021ZM92.461 22.6802C92.461 22.8364 92.452 23.0016 92.434 23.1759H88.4865C88.5165 23.6625 88.6818 24.0441 88.9822 24.3205C89.2886 24.5908 89.6581 24.726 90.0907 24.726C90.4452 24.726 90.7396 24.6449 90.974 24.4827C91.2143 24.3144 91.3825 24.0921 91.4787 23.8157H92.3619C92.2297 24.2904 91.9653 24.6779 91.5688 24.9784C91.1722 25.2728 90.6796 25.42 90.0907 25.42C89.6221 25.42 89.2015 25.3148 88.829 25.1045C88.4625 24.8942 88.1741 24.5968 87.9638 24.2123C87.7535 23.8218 87.6483 23.3711 87.6483 22.8604C87.6483 22.3497 87.7505 21.9021 87.9548 21.5176C88.159 21.133 88.4444 20.8386 88.811 20.6343C89.1835 20.424 89.6101 20.3189 90.0907 20.3189C90.5594 20.3189 90.974 20.421 91.3345 20.6253C91.695 20.8296 91.9713 21.112 92.1636 21.4725C92.3619 21.827 92.461 22.2295 92.461 22.6802ZM91.6139 22.5089C91.6139 22.1965 91.5448 21.9291 91.4066 21.7068C91.2684 21.4785 91.0791 21.3073 90.8388 21.1931C90.6044 21.0729 90.3431 21.0128 90.0547 21.0128C89.6401 21.0128 89.2856 21.145 88.9912 21.4094C88.7028 21.6738 88.5376 22.0403 88.4955 22.5089H91.6139ZM100.2 20.4L97.2261 27.6641H96.379L97.3523 25.2848L95.3605 20.4H96.2708L97.821 24.4016L99.3531 20.4H100.2ZM103.179 25.42C102.716 25.42 102.295 25.3148 101.917 25.1045C101.544 24.8942 101.25 24.5968 101.034 24.2123C100.823 23.8218 100.718 23.3711 100.718 22.8604C100.718 22.3557 100.826 21.9111 101.043 21.5266C101.265 21.136 101.565 20.8386 101.944 20.6343C102.323 20.424 102.746 20.3189 103.215 20.3189C103.683 20.3189 104.107 20.424 104.486 20.6343C104.864 20.8386 105.161 21.133 105.378 21.5176C105.6 21.9021 105.711 22.3497 105.711 22.8604C105.711 23.3711 105.597 23.8218 105.369 24.2123C105.146 24.5968 104.843 24.8942 104.458 25.1045C104.074 25.3148 103.647 25.42 103.179 25.42ZM103.179 24.699C103.473 24.699 103.749 24.6299 104.008 24.4917C104.266 24.3535 104.474 24.1462 104.63 23.8698C104.792 23.5934 104.873 23.257 104.873 22.8604C104.873 22.4639 104.795 22.1274 104.639 21.851C104.483 21.5746 104.278 21.3703 104.026 21.2382C103.774 21.1 103.5 21.0309 103.206 21.0309C102.905 21.0309 102.629 21.1 102.377 21.2382C102.13 21.3703 101.932 21.5746 101.782 21.851C101.632 22.1274 101.556 22.4639 101.556 22.8604C101.556 23.263 101.629 23.6025 101.773 23.8788C101.923 24.1552 102.121 24.3625 102.368 24.5007C102.614 24.6329 102.884 24.699 103.179 24.699ZM111.17 20.4V25.3389H110.35V24.6089C110.193 24.8612 109.974 25.0595 109.692 25.2037C109.415 25.3419 109.109 25.411 108.772 25.411C108.388 25.411 108.042 25.3329 107.736 25.1766C107.429 25.0144 107.186 24.7741 107.006 24.4556C106.832 24.1372 106.744 23.7497 106.744 23.293V20.4H107.556V23.1849C107.556 23.6715 107.679 24.0471 107.925 24.3114C108.171 24.5698 108.508 24.699 108.935 24.699C109.373 24.699 109.719 24.5638 109.971 24.2934C110.223 24.023 110.35 23.6295 110.35 23.1128V20.4H111.17ZM71.3247 36.6802C71.3247 36.8364 71.3157 37.0016 71.2977 37.1759H67.3502C67.3802 37.6625 67.5454 38.0441 67.8458 38.3205C68.1523 38.5908 68.5218 38.726 68.9544 38.726C69.3089 38.726 69.6033 38.6449 69.8376 38.4827C70.078 38.3144 70.2462 38.0921 70.3423 37.8157H71.2256C71.0934 38.2904 70.829 38.6779 70.4324 38.9784C70.0359 39.2728 69.5432 39.42 68.9544 39.42C68.4857 39.42 68.0652 39.3148 67.6926 39.1045C67.3261 38.8942 67.0377 38.5968 66.8274 38.2123C66.6171 37.8218 66.512 37.3711 66.512 36.8604C66.512 36.3497 66.6141 35.9021 66.8184 35.5176C67.0227 35.133 67.3081 34.8386 67.6746 34.6343C68.0471 34.424 68.4737 34.3189 68.9544 34.3189C69.423 34.3189 69.8376 34.421 70.1981 34.6253C70.5586 34.8296 70.835 35.112 71.0273 35.4725C71.2256 35.827 71.3247 36.2295 71.3247 36.6802ZM70.4775 36.5089C70.4775 36.1965 70.4084 35.9291 70.2702 35.7068C70.132 35.4785 69.9428 35.3073 69.7024 35.1931C69.4681 35.0729 69.2067 35.0128 68.9183 35.0128C68.5038 35.0128 68.1493 35.145 67.8549 35.4094C67.5665 35.6738 67.4012 36.0403 67.3592 36.5089H70.4775ZM74.8136 34.3099C75.4144 34.3099 75.9011 34.4931 76.2736 34.8596C76.6461 35.2201 76.8324 35.7429 76.8324 36.4278V39.3389H76.0213V36.545C76.0213 36.0523 75.8981 35.6768 75.6518 35.4184C75.4054 35.154 75.069 35.0219 74.6424 35.0219C74.2098 35.0219 73.8643 35.157 73.6059 35.4274C73.3536 35.6978 73.2274 36.0913 73.2274 36.6081V39.3389H72.4073V34.4H73.2274V35.103C73.3896 34.8506 73.6089 34.6554 73.8853 34.5172C74.1677 34.379 74.4771 34.3099 74.8136 34.3099ZM80.0107 38.5818L81.5428 34.4H82.417L80.4793 39.3389H79.524L77.5863 34.4H78.4695L80.0107 38.5818ZM83.6476 33.5979C83.4914 33.5979 83.3592 33.5438 83.2511 33.4357C83.1429 33.3275 83.0889 33.1953 83.0889 33.0391C83.0889 32.8829 83.1429 32.7507 83.2511 32.6425C83.3592 32.5344 83.4914 32.4803 83.6476 32.4803C83.7979 32.4803 83.924 32.5344 84.0262 32.6425C84.1343 32.7507 84.1884 32.8829 84.1884 33.0391C84.1884 33.1953 84.1343 33.3275 84.0262 33.4357C83.924 33.5438 83.7979 33.5979 83.6476 33.5979ZM84.0442 34.4V39.3389H83.2241V34.4H84.0442ZM86.2621 35.2021C86.4063 34.9197 86.6106 34.7004 86.875 34.5442C87.1454 34.388 87.4728 34.3099 87.8574 34.3099V35.157H87.641C86.7218 35.157 86.2621 35.6557 86.2621 36.6531V39.3389H85.442V34.4H86.2621V35.2021ZM90.9581 39.42C90.4954 39.42 90.0749 39.3148 89.6963 39.1045C89.3238 38.8942 89.0294 38.5968 88.8131 38.2123C88.6028 37.8218 88.4977 37.3711 88.4977 36.8604C88.4977 36.3557 88.6058 35.9111 88.8221 35.5266C89.0444 35.136 89.3448 34.8386 89.7234 34.6343C90.1019 34.424 90.5255 34.3189 90.9941 34.3189C91.4628 34.3189 91.8864 34.424 92.2649 34.6343C92.6434 34.8386 92.9408 35.133 93.1571 35.5176C93.3795 35.9021 93.4906 36.3497 93.4906 36.8604C93.4906 37.3711 93.3765 37.8218 93.1481 38.2123C92.9258 38.5968 92.6224 38.8942 92.2379 39.1045C91.8533 39.3148 91.4267 39.42 90.9581 39.42ZM90.9581 38.699C91.2525 38.699 91.5289 38.6299 91.7872 38.4917C92.0456 38.3535 92.2529 38.1462 92.4091 37.8698C92.5713 37.5934 92.6524 37.257 92.6524 36.8604C92.6524 36.4639 92.5743 36.1274 92.4181 35.851C92.2619 35.5746 92.0576 35.3703 91.8053 35.2382C91.5529 35.1 91.2795 35.0309 90.9851 35.0309C90.6847 35.0309 90.4083 35.1 90.156 35.2382C89.9096 35.3703 89.7114 35.5746 89.5611 35.851C89.4109 36.1274 89.3358 36.4639 89.3358 36.8604C89.3358 37.263 89.4079 37.6025 89.5521 37.8788C89.7023 38.1552 89.9006 38.3625 90.147 38.5007C90.3933 38.6329 90.6637 38.699 90.9581 38.699ZM96.9753 34.3099C97.5761 34.3099 98.0628 34.4931 98.4353 34.8596C98.8078 35.2201 98.9941 35.7429 98.9941 36.4278V39.3389H98.183V36.545C98.183 36.0523 98.0598 35.6768 97.8135 35.4184C97.5671 35.154 97.2306 35.0219 96.8041 35.0219C96.3715 35.0219 96.026 35.157 95.7676 35.4274C95.5153 35.6978 95.3891 36.0913 95.3891 36.6081V39.3389H94.5689V34.4H95.3891V35.103C95.5513 34.8506 95.7706 34.6554 96.047 34.5172C96.3294 34.379 96.6388 34.3099 96.9753 34.3099ZM106.273 34.3099C106.658 34.3099 107 34.391 107.3 34.5532C107.601 34.7094 107.838 34.9468 108.012 35.2652C108.187 35.5836 108.274 35.9712 108.274 36.4278V39.3389H107.463V36.545C107.463 36.0523 107.34 35.6768 107.093 35.4184C106.853 35.154 106.525 35.0219 106.111 35.0219C105.684 35.0219 105.345 35.1601 105.092 35.4364C104.84 35.7068 104.714 36.1004 104.714 36.6171V39.3389H103.903V36.545C103.903 36.0523 103.78 35.6768 103.533 35.4184C103.293 35.154 102.965 35.0219 102.551 35.0219C102.124 35.0219 101.785 35.1601 101.532 35.4364C101.28 35.7068 101.154 36.1004 101.154 36.6171V39.3389H100.334V34.4H101.154V35.112C101.316 34.8536 101.532 34.6554 101.803 34.5172C102.079 34.379 102.383 34.3099 102.713 34.3099C103.128 34.3099 103.494 34.403 103.813 34.5893C104.131 34.7755 104.368 35.0489 104.525 35.4094C104.663 35.0609 104.891 34.7905 105.21 34.5983C105.528 34.406 105.883 34.3099 106.273 34.3099ZM114.125 36.6802C114.125 36.8364 114.116 37.0016 114.098 37.1759H110.151C110.181 37.6625 110.346 38.0441 110.647 38.3205C110.953 38.5908 111.323 38.726 111.755 38.726C112.11 38.726 112.404 38.6449 112.638 38.4827C112.879 38.3144 113.047 38.0921 113.143 37.8157H114.026C113.894 38.2904 113.63 38.6779 113.233 38.9784C112.837 39.2728 112.344 39.42 111.755 39.42C111.287 39.42 110.866 39.3148 110.493 39.1045C110.127 38.8942 109.838 38.5968 109.628 38.2123C109.418 37.8218 109.313 37.3711 109.313 36.8604C109.313 36.3497 109.415 35.9021 109.619 35.5176C109.823 35.133 110.109 34.8386 110.475 34.6343C110.848 34.424 111.274 34.3189 111.755 34.3189C112.224 34.3189 112.638 34.421 112.999 34.6253C113.359 34.8296 113.636 35.112 113.828 35.4725C114.026 35.827 114.125 36.2295 114.125 36.6802ZM113.278 36.5089C113.278 36.1965 113.209 35.9291 113.071 35.7068C112.933 35.4785 112.744 35.3073 112.503 35.1931C112.269 35.0729 112.008 35.0128 111.719 35.0128C111.305 35.0128 110.95 35.145 110.656 35.4094C110.367 35.6738 110.202 36.0403 110.16 36.5089H113.278ZM117.614 34.3099C118.215 34.3099 118.702 34.4931 119.074 34.8596C119.447 35.2201 119.633 35.7429 119.633 36.4278V39.3389H118.822V36.545C118.822 36.0523 118.699 35.6768 118.453 35.4184C118.206 35.154 117.87 35.0219 117.443 35.0219C117.011 35.0219 116.665 35.157 116.407 35.4274C116.154 35.6978 116.028 36.0913 116.028 36.6081V39.3389H115.208V34.4H116.028V35.103C116.19 34.8506 116.41 34.6554 116.686 34.5172C116.968 34.379 117.278 34.3099 117.614 34.3099ZM121.973 35.0759V37.987C121.973 38.2273 122.024 38.3986 122.126 38.5007C122.229 38.5968 122.406 38.6449 122.658 38.6449H123.262V39.3389H122.523C122.066 39.3389 121.724 39.2337 121.496 39.0234C121.267 38.8131 121.153 38.4677 121.153 37.987V35.0759H120.513V34.4H121.153V33.1563H121.973V34.4H123.262V35.0759H121.973ZM80.9036 49.0759H79.8672V53.3389H79.047V49.0759H78.4071V48.4H79.047V48.0485C79.047 47.4957 79.1882 47.0932 79.4706 46.8408C79.759 46.5825 80.2187 46.4533 80.8495 46.4533V47.1382C80.489 47.1382 80.2337 47.2103 80.0835 47.3545C79.9393 47.4927 79.8672 47.7241 79.8672 48.0485V48.4H80.9036V49.0759ZM82.68 49.2021C82.8242 48.9197 83.0285 48.7004 83.2929 48.5442C83.5632 48.388 83.8907 48.3099 84.2752 48.3099V49.157H84.0589C83.1396 49.157 82.68 49.6557 82.68 50.6531V53.3389H81.8599V48.4H82.68V49.2021ZM85.6455 47.5979C85.4893 47.5979 85.3571 47.5438 85.249 47.4357C85.1408 47.3275 85.0868 47.1953 85.0868 47.0391C85.0868 46.8829 85.1408 46.7507 85.249 46.6425C85.3571 46.5344 85.4893 46.4803 85.6455 46.4803C85.7958 46.4803 85.9219 46.5344 86.0241 46.6425C86.1322 46.7507 86.1863 46.8829 86.1863 47.0391C86.1863 47.1953 86.1322 47.3275 86.0241 47.4357C85.9219 47.5438 85.7958 47.5979 85.6455 47.5979ZM86.0421 48.4V53.3389H85.222V48.4H86.0421ZM91.9462 50.6802C91.9462 50.8364 91.9371 51.0016 91.9191 51.1759H87.9716C88.0017 51.6625 88.1669 52.0441 88.4673 52.3205C88.7737 52.5908 89.1433 52.726 89.5759 52.726C89.9304 52.726 90.2248 52.6449 90.4591 52.4827C90.6994 52.3144 90.8677 52.0921 90.9638 51.8157H91.847C91.7148 52.2904 91.4505 52.6779 91.0539 52.9784C90.6574 53.2728 90.1647 53.42 89.5759 53.42C89.1072 53.42 88.6866 53.3148 88.3141 53.1045C87.9476 52.8942 87.6592 52.5968 87.4489 52.2123C87.2386 51.8218 87.1335 51.3711 87.1335 50.8604C87.1335 50.3497 87.2356 49.9021 87.4399 49.5176C87.6442 49.133 87.9296 48.8386 88.2961 48.6343C88.6686 48.424 89.0952 48.3189 89.5759 48.3189C90.0445 48.3189 90.4591 48.421 90.8196 48.6253C91.1801 48.8296 91.4565 49.112 91.6487 49.4725C91.847 49.827 91.9462 50.2295 91.9462 50.6802ZM91.099 50.5089C91.099 50.1965 91.0299 49.9291 90.8917 49.7068C90.7535 49.4785 90.5642 49.3073 90.3239 49.1931C90.0896 49.0729 89.8282 49.0128 89.5398 49.0128C89.1252 49.0128 88.7707 49.145 88.4763 49.4094C88.1879 49.6738 88.0227 50.0403 87.9806 50.5089H91.099ZM95.4351 48.3099C96.0359 48.3099 96.5226 48.4931 96.8951 48.8596C97.2676 49.2201 97.4539 49.7429 97.4539 50.4278V53.3389H96.6427V50.545C96.6427 50.0523 96.5196 49.6768 96.2732 49.4184C96.0269 49.154 95.6904 49.0219 95.2638 49.0219C94.8312 49.0219 94.4857 49.157 94.2274 49.4274C93.975 49.6978 93.8489 50.0913 93.8489 50.6081V53.3389H93.0287V48.4H93.8489V49.103C94.0111 48.8506 94.2304 48.6554 94.5068 48.5172C94.7892 48.379 95.0986 48.3099 95.4351 48.3099ZM98.4871 50.8514C98.4871 50.3467 98.5893 49.9051 98.7936 49.5266C98.9979 49.142 99.2772 48.8446 99.6317 48.6343C99.9922 48.424 100.395 48.3189 100.839 48.3189C101.224 48.3189 101.581 48.409 101.912 48.5893C102.242 48.7635 102.495 48.9948 102.669 49.2832V46.6696H103.498V53.3389H102.669V52.4106C102.507 52.705 102.266 52.9483 101.948 53.1406C101.63 53.3269 101.257 53.42 100.83 53.42C100.392 53.42 99.9922 53.3118 99.6317 53.0955C99.2772 52.8792 98.9979 52.5758 98.7936 52.1853C98.5893 51.7947 98.4871 51.3501 98.4871 50.8514ZM102.669 50.8604C102.669 50.4879 102.594 50.1634 102.444 49.8871C102.293 49.6107 102.089 49.4004 101.831 49.2562C101.578 49.106 101.299 49.0309 100.993 49.0309C100.686 49.0309 100.407 49.103 100.154 49.2472C99.9021 49.3914 99.7008 49.6017 99.5506 49.8781C99.4004 50.1544 99.3253 50.4789 99.3253 50.8514C99.3253 51.2299 99.4004 51.5604 99.5506 51.8428C99.7008 52.1192 99.9021 52.3325 100.154 52.4827C100.407 52.6269 100.686 52.699 100.993 52.699C101.299 52.699 101.578 52.6269 101.831 52.4827C102.089 52.3325 102.293 52.1192 102.444 51.8428C102.594 51.5604 102.669 51.2329 102.669 50.8604ZM105.704 46.6696V53.3389H104.884V46.6696H105.704ZM111.356 48.4L108.382 55.6641H107.535L108.508 53.2848L106.516 48.4H107.426L108.977 52.4016L110.509 48.4H111.356Z" fill="#270641" />
    <path fill-rule="evenodd" clip-rule="evenodd" d="M28.3815 27.7381C29.5474 28.6821 31.2931 28.4587 32.2807 27.2391C33.2684 26.0195 34.1934 20.5609 34.1934 20.5609C34.1934 20.5609 29.0465 22.6007 28.0589 23.8203C27.0712 25.04 27.2157 26.794 28.3815 27.7381Z" fill="#4C2A76" fill-opacity="0.65" />
    <path d="M39.8522 45.471C45.2527 45.471 49.6307 41.093 49.6307 35.6925C49.6307 30.292 45.2527 25.9141 39.8522 25.9141C34.4517 25.9141 30.0737 30.292 30.0737 35.6925C30.0737 41.093 34.4517 45.471 39.8522 45.471Z" fill="#4C2A76" fill-opacity="0.65" />
    <path fill-rule="evenodd" clip-rule="evenodd" d="M44.9168 32.9752C44.9168 32.9752 42.6048 32.0068 41.9161 32.491C41.2275 32.9752 41.5954 35.2615 41.5954 35.2615C41.5954 35.2615 40.569 36.7712 41.0822 37.5652C41.5954 38.3592 43.0209 38.0863 43.8217 38.7867C44.6226 39.4871 44.2899 40.7441 44.2899 40.7441L44.0962 42.2116C44.0962 42.2116 46.2413 41.2251 46.8594 39.8037C47.4775 38.3824 47.2773 36.154 47.2773 36.154L48.5294 34.989L49.6305 31.3243L45.7667 30.0418L45.341 28.0872L42.578 28.891L42.3283 31.0229L44.4504 31.744L44.9168 32.9752ZM29.5303 34.0629C29.5303 34.0629 30.3522 33.5636 30.4619 33.5557C31.3036 33.4947 34.2364 33.6652 35.0032 32.606C35.87 31.4088 36.5925 29.8234 36.5925 29.8234L36.5635 28.6036L32.0313 27.5439L29.5303 34.0629Z" fill="#4C2A76" />
    <path d="M29.4805 25.3208C23.7524 31.0488 23.7524 40.3359 29.4805 46.064C35.2086 51.7921 44.4957 51.7921 50.2238 46.064C55.9519 40.3359 55.9519 31.0488 50.2238 25.3208" stroke="#4C2A76" stroke-width="1.12275" stroke-linecap="round" />
    <path d="M76.6472 84.3326V83.9361C76.6472 83.3112 76.7373 82.7885 76.9175 82.3679C77.1038 81.9473 77.3381 81.5898 77.6205 81.2954C77.9029 81.001 78.1913 80.7276 78.4857 80.4753C78.8582 80.1568 79.1857 79.8294 79.4681 79.4929C79.7505 79.1564 79.8917 78.7148 79.8917 78.1681C79.8917 77.6153 79.6994 77.1496 79.3149 76.7711C78.9303 76.3926 78.3776 76.2033 77.6566 76.2033C76.8454 76.2033 76.2146 76.4286 75.7639 76.8793C75.3193 77.3239 75.097 77.9157 75.097 78.6547H73.5649C73.5649 77.8797 73.7331 77.1977 74.0696 76.6089C74.412 76.0201 74.8897 75.5634 75.5026 75.239C76.1154 74.9085 76.8334 74.7433 77.6566 74.7433C78.4797 74.7433 79.1737 74.8965 79.7385 75.2029C80.3093 75.5094 80.7419 75.9239 81.0363 76.4467C81.3307 76.9634 81.4779 77.5432 81.4779 78.1861C81.4779 78.7088 81.3938 79.1534 81.2255 79.5199C81.0573 79.8804 80.844 80.1959 80.5856 80.4663C80.3273 80.7366 80.0599 80.992 79.7835 81.2323C79.5192 81.4606 79.2668 81.698 79.0265 81.9443C78.7921 82.1907 78.5999 82.4761 78.4497 82.8005C78.3055 83.1189 78.2334 83.5035 78.2334 83.9541V84.3326H76.6472ZM77.4042 87.8115C77.0557 87.8115 76.7613 87.6883 76.521 87.442C76.2806 87.1956 76.1605 86.9102 76.1605 86.5858C76.1605 86.2613 76.2806 85.9729 76.521 85.7206C76.7613 85.4682 77.0557 85.342 77.4042 85.342C77.7587 85.342 78.0561 85.4682 78.2965 85.7206C78.5428 85.9729 78.666 86.2613 78.666 86.5858C78.666 86.9102 78.5428 87.1956 78.2965 87.442C78.0561 87.6883 77.7587 87.8115 77.4042 87.8115Z" fill="#4C2A76" />
    <defs>
        <filter id="filter0_d_1617_32" x="0.752406" y="0.918495" width="152.853" height="86.1602" filterUnits="userSpaceOnUse" color-interpolation-filters="sRGB">
            <feFlood flood-opacity="0" result="BackgroundImageFix" />
            <feColorMatrix in="SourceAlpha" type="matrix" values="0 0 0 0 0 0 0 0 0 0 0 0 0 0 0 0 0 0 127 0" result="hardAlpha" />
            <feMorphology radius="1.80251" operator="erode" in="SourceAlpha" result="effect1_dropShadow_1617_32" />
            <feOffset dy="2.52351" />
            <feGaussianBlur stdDeviation="2.70376" />
            <feComposite in2="hardAlpha" operator="out" />
            <feColorMatrix type="matrix" values="0 0 0 0 0 0 0 0 0 0 0 0 0 0 0 0 0 0 0.2 0" />
            <feBlend mode="normal" in2="BackgroundImageFix" result="effect1_dropShadow_1617_32" />
            <feBlend mode="normal" in="SourceGraphic" in2="effect1_dropShadow_1617_32" result="shape" />
        </filter>
        <filter id="filter1_d_1617_32" x="56.2695" y="61.483" width="41.4577" height="41.4581" filterUnits="userSpaceOnUse" color-interpolation-filters="sRGB">
            <feFlood flood-opacity="0" result="BackgroundImageFix" />
            <feColorMatrix in="SourceAlpha" type="matrix" values="0 0 0 0 0 0 0 0 0 0 0 0 0 0 0 0 0 0 127 0" result="hardAlpha" />
            <feOffset dy="1.44201" />
            <feGaussianBlur stdDeviation="3.60502" />
            <feComposite in2="hardAlpha" operator="out" />
            <feColorMatrix type="matrix" values="0 0 0 0 0 0 0 0 0 0 0 0 0 0 0 0 0 0 0.2 0" />
            <feBlend mode="normal" in2="BackgroundImageFix" result="effect1_dropShadow_1617_32" />
            <feBlend mode="normal" in="SourceGraphic" in2="effect1_dropShadow_1617_32" result="shape" />
        </filter>
    </defs>
</svg>
    