<svg width="400" height="220" viewBox="0 0 424 283" fill="none" xmlns="http://www.w3.org/2000/svg">
<g filter="url(#filter0_d_1926_173)">
<rect x="10" y="3" width="404" height="219" rx="41" fill="white"/>
<rect x="10.5" y="3.5" width="403" height="218" rx="40.5" stroke="#DADADA"/>
</g>
<g filter="url(#filter1_d_1926_173)">
<circle cx="211.5" cy="221.5" r="37.5" fill="white"/>
</g>
<path d="M226.02 64.125H218.42L217.02 68H214.62L220.92 50.675H223.545L229.82 68H227.42L226.02 64.125ZM225.37 62.275L222.22 53.475L219.07 62.275H225.37ZM234.841 56.525C235.241 55.7417 235.808 55.1333 236.541 54.7C237.291 54.2667 238.199 54.05 239.266 54.05V56.4H238.666C236.116 56.4 234.841 57.7833 234.841 60.55V68H232.566V54.3H234.841V56.525ZM254.392 60.625C254.392 61.0583 254.367 61.5167 254.317 62H243.367C243.451 63.35 243.909 64.4083 244.742 65.175C245.592 65.925 246.617 66.3 247.817 66.3C248.801 66.3 249.617 66.075 250.267 65.625C250.934 65.1583 251.401 64.5417 251.667 63.775H254.117C253.751 65.0917 253.017 66.1667 251.917 67C250.817 67.8167 249.451 68.225 247.817 68.225C246.517 68.225 245.351 67.9333 244.317 67.35C243.301 66.7667 242.501 65.9417 241.917 64.875C241.334 63.7917 241.042 62.5417 241.042 61.125C241.042 59.7083 241.326 58.4667 241.892 57.4C242.459 56.3333 243.251 55.5167 244.267 54.95C245.301 54.3667 246.484 54.075 247.817 54.075C249.117 54.075 250.267 54.3583 251.267 54.925C252.267 55.4917 253.034 56.275 253.567 57.275C254.117 58.2583 254.392 59.375 254.392 60.625ZM252.042 60.15C252.042 59.2833 251.851 58.5417 251.467 57.925C251.084 57.2917 250.559 56.8167 249.892 56.5C249.242 56.1667 248.517 56 247.717 56C246.567 56 245.584 56.3667 244.767 57.1C243.967 57.8333 243.509 58.85 243.392 60.15H252.042ZM275.86 54.3L267.61 74.45H265.26L267.96 67.85L262.435 54.3H264.96L269.26 65.4L273.51 54.3H275.86ZM284.122 68.225C282.839 68.225 281.672 67.9333 280.622 67.35C279.589 66.7667 278.772 65.9417 278.172 64.875C277.589 63.7917 277.297 62.5417 277.297 61.125C277.297 59.725 277.597 58.4917 278.197 57.425C278.814 56.3417 279.647 55.5167 280.697 54.95C281.747 54.3667 282.922 54.075 284.222 54.075C285.522 54.075 286.697 54.3667 287.747 54.95C288.797 55.5167 289.622 56.3333 290.222 57.4C290.839 58.4667 291.147 59.7083 291.147 61.125C291.147 62.5417 290.831 63.7917 290.197 64.875C289.581 65.9417 288.739 66.7667 287.672 67.35C286.606 67.9333 285.422 68.225 284.122 68.225ZM284.122 66.225C284.939 66.225 285.706 66.0333 286.422 65.65C287.139 65.2667 287.714 64.6917 288.147 63.925C288.597 63.1583 288.822 62.225 288.822 61.125C288.822 60.025 288.606 59.0917 288.172 58.325C287.739 57.5583 287.172 56.9917 286.472 56.625C285.772 56.2417 285.014 56.05 284.197 56.05C283.364 56.05 282.597 56.2417 281.897 56.625C281.214 56.9917 280.664 57.5583 280.247 58.325C279.831 59.0917 279.622 60.025 279.622 61.125C279.622 62.2417 279.822 63.1833 280.222 63.95C280.639 64.7167 281.189 65.2917 281.872 65.675C282.556 66.0417 283.306 66.225 284.122 66.225ZM306.288 54.3V68H304.013V65.975C303.58 66.675 302.972 67.225 302.188 67.625C301.422 68.0083 300.572 68.2 299.638 68.2C298.572 68.2 297.613 67.9833 296.763 67.55C295.913 67.1 295.238 66.4333 294.738 65.55C294.255 64.6667 294.013 63.5917 294.013 62.325V54.3H296.263V62.025C296.263 63.375 296.605 64.4167 297.288 65.15C297.972 65.8667 298.905 66.225 300.088 66.225C301.305 66.225 302.263 65.85 302.963 65.1C303.663 64.35 304.013 63.2583 304.013 61.825V54.3H306.288ZM195.762 98.625C195.762 99.0583 195.737 99.5167 195.687 100H184.737C184.82 101.35 185.279 102.408 186.112 103.175C186.962 103.925 187.987 104.3 189.187 104.3C190.17 104.3 190.987 104.075 191.637 103.625C192.304 103.158 192.77 102.542 193.037 101.775H195.487C195.12 103.092 194.387 104.167 193.287 105C192.187 105.817 190.82 106.225 189.187 106.225C187.887 106.225 186.72 105.933 185.687 105.35C184.67 104.767 183.87 103.942 183.287 102.875C182.704 101.792 182.412 100.542 182.412 99.125C182.412 97.7083 182.695 96.4667 183.262 95.4C183.829 94.3333 184.62 93.5167 185.637 92.95C186.67 92.3667 187.854 92.075 189.187 92.075C190.487 92.075 191.637 92.3583 192.637 92.925C193.637 93.4917 194.404 94.275 194.937 95.275C195.487 96.2583 195.762 97.375 195.762 98.625ZM193.412 98.15C193.412 97.2833 193.22 96.5417 192.837 95.925C192.454 95.2917 191.929 94.8167 191.262 94.5C190.612 94.1667 189.887 94 189.087 94C187.937 94 186.954 94.3667 186.137 95.1C185.337 95.8333 184.879 96.85 184.762 98.15H193.412ZM205.44 92.05C207.107 92.05 208.457 92.5583 209.49 93.575C210.523 94.575 211.04 96.025 211.04 97.925V106H208.79V98.25C208.79 96.8833 208.448 95.8417 207.765 95.125C207.082 94.3917 206.148 94.025 204.965 94.025C203.765 94.025 202.807 94.4 202.09 95.15C201.39 95.9 201.04 96.9917 201.04 98.425V106H198.765V92.3H201.04V94.25C201.49 93.55 202.098 93.0083 202.865 92.625C203.648 92.2417 204.507 92.05 205.44 92.05ZM219.856 103.9L224.106 92.3H226.531L221.156 106H218.506L213.131 92.3H215.581L219.856 103.9ZM229.945 90.075C229.511 90.075 229.145 89.925 228.845 89.625C228.545 89.325 228.395 88.9583 228.395 88.525C228.395 88.0917 228.545 87.725 228.845 87.425C229.145 87.125 229.511 86.975 229.945 86.975C230.361 86.975 230.711 87.125 230.995 87.425C231.295 87.725 231.445 88.0917 231.445 88.525C231.445 88.9583 231.295 89.325 230.995 89.625C230.711 89.925 230.361 90.075 229.945 90.075ZM231.045 92.3V106H228.77V92.3H231.045ZM237.197 94.525C237.597 93.7417 238.164 93.1333 238.897 92.7C239.647 92.2667 240.555 92.05 241.622 92.05V94.4H241.022C238.472 94.4 237.197 95.7833 237.197 98.55V106H234.922V92.3H237.197V94.525ZM250.223 106.225C248.94 106.225 247.773 105.933 246.723 105.35C245.69 104.767 244.873 103.942 244.273 102.875C243.69 101.792 243.398 100.542 243.398 99.125C243.398 97.725 243.698 96.4917 244.298 95.425C244.915 94.3417 245.748 93.5167 246.798 92.95C247.848 92.3667 249.023 92.075 250.323 92.075C251.623 92.075 252.798 92.3667 253.848 92.95C254.898 93.5167 255.723 94.3333 256.323 95.4C256.94 96.4667 257.248 97.7083 257.248 99.125C257.248 100.542 256.932 101.792 256.298 102.875C255.682 103.942 254.84 104.767 253.773 105.35C252.707 105.933 251.523 106.225 250.223 106.225ZM250.223 104.225C251.04 104.225 251.807 104.033 252.523 103.65C253.24 103.267 253.815 102.692 254.248 101.925C254.698 101.158 254.923 100.225 254.923 99.125C254.923 98.025 254.707 97.0917 254.273 96.325C253.84 95.5583 253.273 94.9917 252.573 94.625C251.873 94.2417 251.115 94.05 250.298 94.05C249.465 94.05 248.698 94.2417 247.998 94.625C247.315 94.9917 246.765 95.5583 246.348 96.325C245.932 97.0917 245.723 98.025 245.723 99.125C245.723 100.242 245.923 101.183 246.323 101.95C246.74 102.717 247.29 103.292 247.973 103.675C248.657 104.042 249.407 104.225 250.223 104.225ZM266.914 92.05C268.581 92.05 269.931 92.5583 270.964 93.575C271.998 94.575 272.514 96.025 272.514 97.925V106H270.264V98.25C270.264 96.8833 269.923 95.8417 269.239 95.125C268.556 94.3917 267.623 94.025 266.439 94.025C265.239 94.025 264.281 94.4 263.564 95.15C262.864 95.9 262.514 96.9917 262.514 98.425V106H260.239V92.3H262.514V94.25C262.964 93.55 263.573 93.0083 264.339 92.625C265.123 92.2417 265.981 92.05 266.914 92.05ZM292.706 92.05C293.772 92.05 294.722 92.275 295.556 92.725C296.389 93.1583 297.047 93.8167 297.531 94.7C298.014 95.5833 298.256 96.6583 298.256 97.925V106H296.006V98.25C296.006 96.8833 295.664 95.8417 294.981 95.125C294.314 94.3917 293.406 94.025 292.256 94.025C291.072 94.025 290.131 94.4083 289.431 95.175C288.731 95.925 288.381 97.0167 288.381 98.45V106H286.131V98.25C286.131 96.8833 285.789 95.8417 285.106 95.125C284.439 94.3917 283.531 94.025 282.381 94.025C281.197 94.025 280.256 94.4083 279.556 95.175C278.856 95.925 278.506 97.0167 278.506 98.45V106H276.231V92.3H278.506V94.275C278.956 93.5583 279.556 93.0083 280.306 92.625C281.072 92.2417 281.914 92.05 282.831 92.05C283.981 92.05 284.997 92.3083 285.881 92.825C286.764 93.3417 287.422 94.1 287.856 95.1C288.239 94.1333 288.872 93.3833 289.756 92.85C290.639 92.3167 291.622 92.05 292.706 92.05ZM314.488 98.625C314.488 99.0583 314.463 99.5167 314.413 100H303.463C303.546 101.35 304.004 102.408 304.838 103.175C305.688 103.925 306.713 104.3 307.913 104.3C308.896 104.3 309.713 104.075 310.363 103.625C311.029 103.158 311.496 102.542 311.763 101.775H314.213C313.846 103.092 313.113 104.167 312.013 105C310.913 105.817 309.546 106.225 307.913 106.225C306.613 106.225 305.446 105.933 304.413 105.35C303.396 104.767 302.596 103.942 302.013 102.875C301.429 101.792 301.138 100.542 301.138 99.125C301.138 97.7083 301.421 96.4667 301.988 95.4C302.554 94.3333 303.346 93.5167 304.363 92.95C305.396 92.3667 306.579 92.075 307.913 92.075C309.213 92.075 310.363 92.3583 311.363 92.925C312.363 93.4917 313.129 94.275 313.663 95.275C314.213 96.2583 314.488 97.375 314.488 98.625ZM312.138 98.15C312.138 97.2833 311.946 96.5417 311.563 95.925C311.179 95.2917 310.654 94.8167 309.988 94.5C309.338 94.1667 308.613 94 307.813 94C306.663 94 305.679 94.3667 304.863 95.1C304.063 95.8333 303.604 96.85 303.488 98.15H312.138ZM324.165 92.05C325.832 92.05 327.182 92.5583 328.215 93.575C329.249 94.575 329.765 96.025 329.765 97.925V106H327.515V98.25C327.515 96.8833 327.174 95.8417 326.49 95.125C325.807 94.3917 324.874 94.025 323.69 94.025C322.49 94.025 321.532 94.4 320.815 95.15C320.115 95.9 319.765 96.9917 319.765 98.425V106H317.49V92.3H319.765V94.25C320.215 93.55 320.824 93.0083 321.59 92.625C322.374 92.2417 323.232 92.05 324.165 92.05ZM336.257 94.175V102.25C336.257 102.917 336.398 103.392 336.682 103.675C336.965 103.942 337.457 104.075 338.157 104.075H339.832V106H337.782C336.515 106 335.565 105.708 334.932 105.125C334.298 104.542 333.982 103.583 333.982 102.25V94.175H332.207V92.3H333.982V88.85H336.257V92.3H339.832V94.175H336.257ZM222.333 132.175H219.458V144H217.183V132.175H215.408V130.3H217.183V129.325C217.183 127.792 217.575 126.675 218.358 125.975C219.158 125.258 220.433 124.9 222.183 124.9V126.8C221.183 126.8 220.475 127 220.058 127.4C219.658 127.783 219.458 128.425 219.458 129.325V130.3H222.333V132.175ZM227.261 132.525C227.661 131.742 228.227 131.133 228.961 130.7C229.711 130.267 230.619 130.05 231.686 130.05V132.4H231.086C228.536 132.4 227.261 133.783 227.261 136.55V144H224.986V130.3H227.261V132.525ZM235.487 128.075C235.053 128.075 234.687 127.925 234.387 127.625C234.087 127.325 233.937 126.958 233.937 126.525C233.937 126.092 234.087 125.725 234.387 125.425C234.687 125.125 235.053 124.975 235.487 124.975C235.903 124.975 236.253 125.125 236.537 125.425C236.837 125.725 236.987 126.092 236.987 126.525C236.987 126.958 236.837 127.325 236.537 127.625C236.253 127.925 235.903 128.075 235.487 128.075ZM236.587 130.3V144H234.312V130.3H236.587ZM252.964 136.625C252.964 137.058 252.939 137.517 252.889 138H241.939C242.022 139.35 242.481 140.408 243.314 141.175C244.164 141.925 245.189 142.3 246.389 142.3C247.372 142.3 248.189 142.075 248.839 141.625C249.506 141.158 249.972 140.542 250.239 139.775H252.689C252.322 141.092 251.589 142.167 250.489 143C249.389 143.817 248.022 144.225 246.389 144.225C245.089 144.225 243.922 143.933 242.889 143.35C241.872 142.767 241.072 141.942 240.489 140.875C239.906 139.792 239.614 138.542 239.614 137.125C239.614 135.708 239.897 134.467 240.464 133.4C241.031 132.333 241.822 131.517 242.839 130.95C243.872 130.367 245.056 130.075 246.389 130.075C247.689 130.075 248.839 130.358 249.839 130.925C250.839 131.492 251.606 132.275 252.139 133.275C252.689 134.258 252.964 135.375 252.964 136.625ZM250.614 136.15C250.614 135.283 250.422 134.542 250.039 133.925C249.656 133.292 249.131 132.817 248.464 132.5C247.814 132.167 247.089 132 246.289 132C245.139 132 244.156 132.367 243.339 133.1C242.539 133.833 242.081 134.85 241.964 136.15H250.614ZM262.642 130.05C264.309 130.05 265.659 130.558 266.692 131.575C267.725 132.575 268.242 134.025 268.242 135.925V144H265.992V136.25C265.992 134.883 265.65 133.842 264.967 133.125C264.284 132.392 263.35 132.025 262.167 132.025C260.967 132.025 260.009 132.4 259.292 133.15C258.592 133.9 258.242 134.992 258.242 136.425V144H255.967V130.3H258.242V132.25C258.692 131.55 259.3 131.008 260.067 130.625C260.85 130.242 261.709 130.05 262.642 130.05ZM271.108 137.1C271.108 135.7 271.392 134.475 271.958 133.425C272.525 132.358 273.3 131.533 274.283 130.95C275.283 130.367 276.4 130.075 277.633 130.075C278.7 130.075 279.692 130.325 280.608 130.825C281.525 131.308 282.225 131.95 282.708 132.75V125.5H285.008V144H282.708V141.425C282.258 142.242 281.592 142.917 280.708 143.45C279.825 143.967 278.792 144.225 277.608 144.225C276.392 144.225 275.283 143.925 274.283 143.325C273.3 142.725 272.525 141.883 271.958 140.8C271.392 139.717 271.108 138.483 271.108 137.1ZM282.708 137.125C282.708 136.092 282.5 135.192 282.083 134.425C281.667 133.658 281.1 133.075 280.383 132.675C279.683 132.258 278.908 132.05 278.058 132.05C277.208 132.05 276.433 132.25 275.733 132.65C275.033 133.05 274.475 133.633 274.058 134.4C273.642 135.167 273.433 136.067 273.433 137.1C273.433 138.15 273.642 139.067 274.058 139.85C274.475 140.617 275.033 141.208 275.733 141.625C276.433 142.025 277.208 142.225 278.058 142.225C278.908 142.225 279.683 142.025 280.383 141.625C281.1 141.208 281.667 140.617 282.083 139.85C282.5 139.067 282.708 138.158 282.708 137.125ZM291.128 125.5V144H288.853V125.5H291.128ZM306.805 130.3L298.555 150.45H296.205L298.905 143.85L293.38 130.3H295.905L300.205 141.4L304.455 130.3H306.805Z" fill="#270641"/>
<path fill-rule="evenodd" clip-rule="evenodd" d="M76.642 74.3955C79.8759 77.0143 84.7184 76.3946 87.458 73.0114C90.1976 69.6283 92.7637 54.4868 92.7637 54.4868C92.7637 54.4868 78.4866 60.1449 75.747 63.5281C73.0074 66.9112 73.4081 71.7767 76.642 74.3955Z" fill="#4C2A76" fill-opacity="0.65"/>
<path d="M108.46 123.584C123.441 123.584 135.585 111.44 135.585 96.4596C135.585 81.4791 123.441 69.335 108.46 69.335C93.4796 69.335 81.3354 81.4791 81.3354 96.4596C81.3354 111.44 93.4796 123.584 108.46 123.584Z" fill="#4C2A76" fill-opacity="0.65"/>
<path fill-rule="evenodd" clip-rule="evenodd" d="M122.51 88.9213C122.51 88.9213 116.096 86.235 114.186 87.5781C112.276 88.9213 113.296 95.2633 113.296 95.2633C113.296 95.2633 110.449 99.4511 111.873 101.654C113.296 103.856 117.25 103.099 119.472 105.042C121.693 106.985 120.77 110.471 120.77 110.471L120.233 114.542C120.233 114.542 126.184 111.806 127.898 107.863C129.613 103.92 129.057 97.7391 129.057 97.7391L132.531 94.5073L135.585 84.3418L124.867 80.7844L123.686 75.3624L116.022 77.5921L115.329 83.5057L121.216 85.5061L122.51 88.9213ZM79.8286 91.9385C79.8286 91.9385 82.1086 90.5536 82.4129 90.5315C84.7475 90.3625 92.8829 90.8353 95.01 87.8972C97.4144 84.5762 99.4186 80.1785 99.4186 80.1785L99.3381 76.7949L86.7664 73.8555L79.8286 91.9385Z" fill="#4C2A76"/>
<path d="M79.6899 67.69C63.8007 83.5792 63.8007 109.341 79.6899 125.23C95.5792 141.119 121.341 141.119 137.23 125.23C153.119 109.341 153.119 83.5792 137.23 67.69" stroke="#4C2A76" stroke-width="3.11441" stroke-linecap="round"/>
<path d="M209.308 231V229.9C209.308 228.167 209.558 226.717 210.058 225.55C210.575 224.383 211.225 223.392 212.008 222.575C212.792 221.758 213.592 221 214.408 220.3C215.442 219.417 216.35 218.508 217.133 217.575C217.917 216.642 218.308 215.417 218.308 213.9C218.308 212.367 217.775 211.075 216.708 210.025C215.642 208.975 214.108 208.45 212.108 208.45C209.858 208.45 208.108 209.075 206.858 210.325C205.625 211.558 205.008 213.2 205.008 215.25H200.758C200.758 213.1 201.225 211.208 202.158 209.575C203.108 207.942 204.433 206.675 206.133 205.775C207.833 204.858 209.825 204.4 212.108 204.4C214.392 204.4 216.317 204.825 217.883 205.675C219.467 206.525 220.667 207.675 221.483 209.125C222.3 210.558 222.708 212.167 222.708 213.95C222.708 215.4 222.475 216.633 222.008 217.65C221.542 218.65 220.95 219.525 220.233 220.275C219.517 221.025 218.775 221.733 218.008 222.4C217.275 223.033 216.575 223.692 215.908 224.375C215.258 225.058 214.725 225.85 214.308 226.75C213.908 227.633 213.708 228.7 213.708 229.95V231H209.308ZM211.408 240.65C210.442 240.65 209.625 240.308 208.958 239.625C208.292 238.942 207.958 238.15 207.958 237.25C207.958 236.35 208.292 235.55 208.958 234.85C209.625 234.15 210.442 233.8 211.408 233.8C212.392 233.8 213.217 234.15 213.883 234.85C214.567 235.55 214.908 236.35 214.908 237.25C214.908 238.15 214.567 238.942 213.883 239.625C213.217 240.308 212.392 240.65 211.408 240.65Z" fill="#4C2A76"/>
<defs>
<filter id="filter0_d_1926_173" x="0" y="0" width="424" height="239" filterUnits="userSpaceOnUse" color-interpolation-filters="sRGB">
<feFlood flood-opacity="0" result="BackgroundImageFix"/>
<feColorMatrix in="SourceAlpha" type="matrix" values="0 0 0 0 0 0 0 0 0 0 0 0 0 0 0 0 0 0 127 0" result="hardAlpha"/>
<feMorphology radius="5" operator="erode" in="SourceAlpha" result="effect1_dropShadow_1926_173"/>
<feOffset dy="7"/>
<feGaussianBlur stdDeviation="7.5"/>
<feComposite in2="hardAlpha" operator="out"/>
<feColorMatrix type="matrix" values="0 0 0 0 0 0 0 0 0 0 0 0 0 0 0 0 0 0 0.2 0"/>
<feBlend mode="normal" in2="BackgroundImageFix" result="effect1_dropShadow_1926_173"/>
<feBlend mode="normal" in="SourceGraphic" in2="effect1_dropShadow_1926_173" result="shape"/>
</filter>
<filter id="filter1_d_1926_173" x="154" y="168" width="115" height="115" filterUnits="userSpaceOnUse" color-interpolation-filters="sRGB">
<feFlood flood-opacity="0" result="BackgroundImageFix"/>
<feColorMatrix in="SourceAlpha" type="matrix" values="0 0 0 0 0 0 0 0 0 0 0 0 0 0 0 0 0 0 127 0" result="hardAlpha"/>
<feOffset dy="4"/>
<feGaussianBlur stdDeviation="10"/>
<feComposite in2="hardAlpha" operator="out"/>
<feColorMatrix type="matrix" values="0 0 0 0 0 0 0 0 0 0 0 0 0 0 0 0 0 0 0.2 0"/>
<feBlend mode="normal" in2="BackgroundImageFix" result="effect1_dropShadow_1926_173"/>
<feBlend mode="normal" in="SourceGraphic" in2="effect1_dropShadow_1926_173" result="shape"/>
</filter>
</defs>
</svg>
