<svg width="400" height="240" viewBox="0 0 478 363" fill="none" xmlns="http://www.w3.org/2000/svg">
    <g filter="url(#filter0_d_1926_176)">
        <rect x="25" y="17" width="428" height="277" rx="41" fill="#4C2A76" />
    </g>
    <g filter="url(#filter1_d_1926_176)">
        <circle cx="239.5" cy="293.5" r="45.5" fill="white" />
    </g>
    <path d="M140.282 52.235L134.72 71H131.237L127.295 56.798L123.11 71L119.654 71.027L114.335 52.235H117.602L121.49 67.517L125.702 52.235H129.158L133.073 67.436L136.988 52.235H140.282ZM141.794 63.494C141.794 62 142.1 60.677 142.712 59.525C143.342 58.373 144.188 57.482 145.25 56.852C146.33 56.204 147.518 55.88 148.814 55.88C149.984 55.88 151.001 56.114 151.865 56.582C152.747 57.032 153.449 57.599 153.971 58.283V56.123H157.076V71H153.971V68.786C153.449 69.488 152.738 70.073 151.838 70.541C150.938 71.009 149.912 71.243 148.76 71.243C147.482 71.243 146.312 70.919 145.25 70.271C144.188 69.605 143.342 68.687 142.712 67.517C142.1 66.329 141.794 64.988 141.794 63.494ZM153.971 63.548C153.971 62.522 153.755 61.631 153.323 60.875C152.909 60.119 152.36 59.543 151.676 59.147C150.992 58.751 150.254 58.553 149.462 58.553C148.67 58.553 147.932 58.751 147.248 59.147C146.564 59.525 146.006 60.092 145.574 60.848C145.16 61.586 144.953 62.468 144.953 63.494C144.953 64.52 145.16 65.42 145.574 66.194C146.006 66.968 146.564 67.562 147.248 67.976C147.95 68.372 148.688 68.57 149.462 68.57C150.254 68.57 150.992 68.372 151.676 67.976C152.36 67.58 152.909 67.004 153.323 66.248C153.755 65.474 153.971 64.574 153.971 63.548ZM168.625 55.88C169.795 55.88 170.839 56.123 171.757 56.609C172.693 57.095 173.422 57.815 173.944 58.769C174.466 59.723 174.727 60.875 174.727 62.225V71H171.676V62.684C171.676 61.352 171.343 60.335 170.677 59.633C170.011 58.913 169.102 58.553 167.95 58.553C166.798 58.553 165.88 58.913 165.196 59.633C164.53 60.335 164.197 61.352 164.197 62.684V71H161.119V56.123H164.197V57.824C164.701 57.212 165.34 56.735 166.114 56.393C166.906 56.051 167.743 55.88 168.625 55.88ZM182.244 58.634V66.869C182.244 67.427 182.37 67.832 182.622 68.084C182.892 68.318 183.342 68.435 183.972 68.435H185.862V71H183.432C182.046 71 180.984 70.676 180.246 70.028C179.508 69.38 179.139 68.327 179.139 66.869V58.634H177.384V56.123H179.139V52.424H182.244V56.123H185.862V58.634H182.244ZM199.304 58.634V66.869C199.304 67.427 199.43 67.832 199.682 68.084C199.952 68.318 200.402 68.435 201.032 68.435H202.922V71H200.492C199.106 71 198.044 70.676 197.306 70.028C196.568 69.38 196.199 68.327 196.199 66.869V58.634H194.444V56.123H196.199V52.424H199.304V56.123H202.922V58.634H199.304ZM212.212 71.243C210.808 71.243 209.539 70.928 208.405 70.298C207.271 69.65 206.38 68.75 205.732 67.598C205.084 66.428 204.76 65.078 204.76 63.548C204.76 62.036 205.093 60.695 205.759 59.525C206.425 58.355 207.334 57.455 208.486 56.825C209.638 56.195 210.925 55.88 212.347 55.88C213.769 55.88 215.056 56.195 216.208 56.825C217.36 57.455 218.269 58.355 218.935 59.525C219.601 60.695 219.934 62.036 219.934 63.548C219.934 65.06 219.592 66.401 218.908 67.571C218.224 68.741 217.288 69.65 216.1 70.298C214.93 70.928 213.634 71.243 212.212 71.243ZM212.212 68.57C213.004 68.57 213.742 68.381 214.426 68.003C215.128 67.625 215.695 67.058 216.127 66.302C216.559 65.546 216.775 64.628 216.775 63.548C216.775 62.468 216.568 61.559 216.154 60.821C215.74 60.065 215.191 59.498 214.507 59.12C213.823 58.742 213.085 58.553 212.293 58.553C211.501 58.553 210.763 58.742 210.079 59.12C209.413 59.498 208.882 60.065 208.486 60.821C208.09 61.559 207.892 62.468 207.892 63.548C207.892 65.15 208.297 66.392 209.107 67.274C209.935 68.138 210.97 68.57 212.212 68.57ZM233.068 58.337C233.59 57.617 234.301 57.032 235.201 56.582C236.119 56.114 237.136 55.88 238.252 55.88C239.566 55.88 240.754 56.195 241.816 56.825C242.878 57.455 243.715 58.355 244.327 59.525C244.939 60.677 245.245 62 245.245 63.494C245.245 64.988 244.939 66.329 244.327 67.517C243.715 68.687 242.869 69.605 241.789 70.271C240.727 70.919 239.548 71.243 238.252 71.243C237.1 71.243 236.074 71.018 235.174 70.568C234.292 70.118 233.59 69.542 233.068 68.84V71H229.99V51.02H233.068V58.337ZM242.113 63.494C242.113 62.468 241.897 61.586 241.465 60.848C241.051 60.092 240.493 59.525 239.791 59.147C239.107 58.751 238.369 58.553 237.577 58.553C236.803 58.553 236.065 58.751 235.363 59.147C234.679 59.543 234.121 60.119 233.689 60.875C233.275 61.631 233.068 62.522 233.068 63.548C233.068 64.574 233.275 65.474 233.689 66.248C234.121 67.004 234.679 67.58 235.363 67.976C236.065 68.372 236.803 68.57 237.577 68.57C238.369 68.57 239.107 68.372 239.791 67.976C240.493 67.562 241.051 66.968 241.465 66.194C241.897 65.42 242.113 64.52 242.113 63.494ZM261.762 56.123V71H258.684V69.245C258.198 69.857 257.559 70.343 256.767 70.703C255.993 71.045 255.165 71.216 254.283 71.216C253.113 71.216 252.06 70.973 251.124 70.487C250.206 70.001 249.477 69.281 248.937 68.327C248.415 67.373 248.154 66.221 248.154 64.871V56.123H251.205V64.412C251.205 65.744 251.538 66.77 252.204 67.49C252.87 68.192 253.779 68.543 254.931 68.543C256.083 68.543 256.992 68.192 257.658 67.49C258.342 66.77 258.684 65.744 258.684 64.412V56.123H261.762ZM267.389 54.152C266.831 54.152 266.363 53.963 265.985 53.585C265.607 53.207 265.418 52.739 265.418 52.181C265.418 51.623 265.607 51.155 265.985 50.777C266.363 50.399 266.831 50.21 267.389 50.21C267.929 50.21 268.388 50.399 268.766 50.777C269.144 51.155 269.333 51.623 269.333 52.181C269.333 52.739 269.144 53.207 268.766 53.585C268.388 53.963 267.929 54.152 267.389 54.152ZM268.901 56.123V71H265.823V56.123H268.901ZM276.02 51.02V71H272.942V51.02H276.02ZM279.036 63.494C279.036 62 279.342 60.677 279.954 59.525C280.584 58.373 281.43 57.482 282.492 56.852C283.572 56.204 284.769 55.88 286.083 55.88C287.055 55.88 288.009 56.096 288.945 56.528C289.899 56.942 290.655 57.5 291.213 58.202V51.02H294.318V71H291.213V68.759C290.709 69.479 290.007 70.073 289.107 70.541C288.225 71.009 287.208 71.243 286.056 71.243C284.76 71.243 283.572 70.919 282.492 70.271C281.43 69.605 280.584 68.687 279.954 67.517C279.342 66.329 279.036 64.988 279.036 63.494ZM291.213 63.548C291.213 62.522 290.997 61.631 290.565 60.875C290.151 60.119 289.602 59.543 288.918 59.147C288.234 58.751 287.496 58.553 286.704 58.553C285.912 58.553 285.174 58.751 284.49 59.147C283.806 59.525 283.248 60.092 282.816 60.848C282.402 61.586 282.195 62.468 282.195 63.494C282.195 64.52 282.402 65.42 282.816 66.194C283.248 66.968 283.806 67.562 284.49 67.976C285.192 68.372 285.93 68.57 286.704 68.57C287.496 68.57 288.234 68.372 288.918 67.976C289.602 67.58 290.151 67.004 290.565 66.248C290.997 65.474 291.213 64.574 291.213 63.548ZM318.766 56.123L309.64 77.993H306.454L309.478 70.757L303.619 56.123H307.048L311.233 67.463L315.58 56.123H318.766ZM327.542 71.243C326.138 71.243 324.869 70.928 323.735 70.298C322.601 69.65 321.71 68.75 321.062 67.598C320.414 66.428 320.09 65.078 320.09 63.548C320.09 62.036 320.423 60.695 321.089 59.525C321.755 58.355 322.664 57.455 323.816 56.825C324.968 56.195 326.255 55.88 327.677 55.88C329.099 55.88 330.386 56.195 331.538 56.825C332.69 57.455 333.599 58.355 334.265 59.525C334.931 60.695 335.264 62.036 335.264 63.548C335.264 65.06 334.922 66.401 334.238 67.571C333.554 68.741 332.618 69.65 331.43 70.298C330.26 70.928 328.964 71.243 327.542 71.243ZM327.542 68.57C328.334 68.57 329.072 68.381 329.756 68.003C330.458 67.625 331.025 67.058 331.457 66.302C331.889 65.546 332.105 64.628 332.105 63.548C332.105 62.468 331.898 61.559 331.484 60.821C331.07 60.065 330.521 59.498 329.837 59.12C329.153 58.742 328.415 58.553 327.623 58.553C326.831 58.553 326.093 58.742 325.409 59.12C324.743 59.498 324.212 60.065 323.816 60.821C323.42 61.559 323.222 62.468 323.222 63.548C323.222 65.15 323.627 66.392 324.437 67.274C325.265 68.138 326.3 68.57 327.542 68.57ZM351.78 56.123V71H348.702V69.245C348.216 69.857 347.577 70.343 346.785 70.703C346.011 71.045 345.183 71.216 344.301 71.216C343.131 71.216 342.078 70.973 341.142 70.487C340.224 70.001 339.495 69.281 338.955 68.327C338.433 67.373 338.172 66.221 338.172 64.871V56.123H341.223V64.412C341.223 65.744 341.556 66.77 342.222 67.49C342.888 68.192 343.797 68.543 344.949 68.543C346.101 68.543 347.01 68.192 347.676 67.49C348.36 66.77 348.702 65.744 348.702 64.412V56.123H351.78ZM358.919 58.283C359.369 57.527 359.963 56.942 360.701 56.528C361.457 56.096 362.348 55.88 363.374 55.88V59.066H362.591C361.385 59.066 360.467 59.372 359.837 59.984C359.225 60.596 358.919 61.658 358.919 63.17V71H355.841V56.123H358.919V58.283ZM162.022 100.243C160.618 100.243 159.349 99.928 158.215 99.298C157.081 98.65 156.19 97.75 155.542 96.598C154.894 95.428 154.57 94.078 154.57 92.548C154.57 91.036 154.903 89.695 155.569 88.525C156.235 87.355 157.144 86.455 158.296 85.825C159.448 85.195 160.735 84.88 162.157 84.88C163.579 84.88 164.866 85.195 166.018 85.825C167.17 86.455 168.079 87.355 168.745 88.525C169.411 89.695 169.744 91.036 169.744 92.548C169.744 94.06 169.402 95.401 168.718 96.571C168.034 97.741 167.098 98.65 165.91 99.298C164.74 99.928 163.444 100.243 162.022 100.243ZM162.022 97.57C162.814 97.57 163.552 97.381 164.236 97.003C164.938 96.625 165.505 96.058 165.937 95.302C166.369 94.546 166.585 93.628 166.585 92.548C166.585 91.468 166.378 90.559 165.964 89.821C165.55 89.065 165.001 88.498 164.317 88.12C163.633 87.742 162.895 87.553 162.103 87.553C161.311 87.553 160.573 87.742 159.889 88.12C159.223 88.498 158.692 89.065 158.296 89.821C157.9 90.559 157.702 91.468 157.702 92.548C157.702 94.15 158.107 95.392 158.917 96.274C159.745 97.138 160.78 97.57 162.022 97.57ZM192.767 85.123L188.15 100H184.91L181.913 89.011L178.916 100H175.676L171.032 85.123H174.164L177.269 97.084L180.428 85.123H183.641L186.665 97.03L189.743 85.123H192.767ZM202.573 84.88C203.743 84.88 204.787 85.123 205.705 85.609C206.641 86.095 207.37 86.815 207.892 87.769C208.414 88.723 208.675 89.875 208.675 91.225V100H205.624V91.684C205.624 90.352 205.291 89.335 204.625 88.633C203.959 87.913 203.05 87.553 201.898 87.553C200.746 87.553 199.828 87.913 199.144 88.633C198.478 89.335 198.145 90.352 198.145 91.684V100H195.067V85.123H198.145V86.824C198.649 86.212 199.288 85.735 200.062 85.393C200.854 85.051 201.691 84.88 202.573 84.88ZM218.589 92.494C218.589 91 218.895 89.677 219.507 88.525C220.137 87.373 220.983 86.482 222.045 85.852C223.125 85.204 224.322 84.88 225.636 84.88C226.608 84.88 227.562 85.096 228.498 85.528C229.452 85.942 230.208 86.5 230.766 87.202V80.02H233.871V100H230.766V97.759C230.262 98.479 229.56 99.073 228.66 99.541C227.778 100.009 226.761 100.243 225.609 100.243C224.313 100.243 223.125 99.919 222.045 99.271C220.983 98.605 220.137 97.687 219.507 96.517C218.895 95.329 218.589 93.988 218.589 92.494ZM230.766 92.548C230.766 91.522 230.55 90.631 230.118 89.875C229.704 89.119 229.155 88.543 228.471 88.147C227.787 87.751 227.049 87.553 226.257 87.553C225.465 87.553 224.727 87.751 224.043 88.147C223.359 88.525 222.801 89.092 222.369 89.848C221.955 90.586 221.748 91.468 221.748 92.494C221.748 93.52 221.955 94.42 222.369 95.194C222.801 95.968 223.359 96.562 224.043 96.976C224.745 97.372 225.483 97.57 226.257 97.57C227.049 97.57 227.787 97.372 228.471 96.976C229.155 96.58 229.704 96.004 230.118 95.248C230.55 94.474 230.766 93.574 230.766 92.548ZM251.549 92.197C251.549 92.755 251.513 93.259 251.441 93.709H240.074C240.164 94.897 240.605 95.851 241.397 96.571C242.189 97.291 243.161 97.651 244.313 97.651C245.969 97.651 247.139 96.958 247.823 95.572H251.144C250.694 96.94 249.875 98.065 248.687 98.947C247.517 99.811 246.059 100.243 244.313 100.243C242.891 100.243 241.613 99.928 240.479 99.298C239.363 98.65 238.481 97.75 237.833 96.598C237.203 95.428 236.888 94.078 236.888 92.548C236.888 91.018 237.194 89.677 237.806 88.525C238.436 87.355 239.309 86.455 240.425 85.825C241.559 85.195 242.855 84.88 244.313 84.88C245.717 84.88 246.968 85.186 248.066 85.798C249.164 86.41 250.019 87.274 250.631 88.39C251.243 89.488 251.549 90.757 251.549 92.197ZM248.336 91.225C248.318 90.091 247.913 89.182 247.121 88.498C246.329 87.814 245.348 87.472 244.178 87.472C243.116 87.472 242.207 87.814 241.451 88.498C240.695 89.164 240.245 90.073 240.101 91.225H248.336ZM259.978 100.243C258.808 100.243 257.755 100.036 256.819 99.622C255.901 99.19 255.172 98.614 254.632 97.894C254.092 97.156 253.804 96.337 253.768 95.437H256.954C257.008 96.067 257.305 96.598 257.845 97.03C258.403 97.444 259.096 97.651 259.924 97.651C260.788 97.651 261.454 97.489 261.922 97.165C262.408 96.823 262.651 96.391 262.651 95.869C262.651 95.311 262.381 94.897 261.841 94.627C261.319 94.357 260.482 94.06 259.33 93.736C258.214 93.43 257.305 93.133 256.603 92.845C255.901 92.557 255.289 92.116 254.767 91.522C254.263 90.928 254.011 90.145 254.011 89.173C254.011 88.381 254.245 87.661 254.713 87.013C255.181 86.347 255.847 85.825 256.711 85.447C257.593 85.069 258.601 84.88 259.735 84.88C261.427 84.88 262.786 85.312 263.812 86.176C264.856 87.022 265.414 88.183 265.486 89.659H262.408C262.354 88.993 262.084 88.462 261.598 88.066C261.112 87.67 260.455 87.472 259.627 87.472C258.817 87.472 258.196 87.625 257.764 87.931C257.332 88.237 257.116 88.642 257.116 89.146C257.116 89.542 257.26 89.875 257.548 90.145C257.836 90.415 258.187 90.631 258.601 90.793C259.015 90.937 259.627 91.126 260.437 91.36C261.517 91.648 262.399 91.945 263.083 92.251C263.785 92.539 264.388 92.971 264.892 93.547C265.396 94.123 265.657 94.888 265.675 95.842C265.675 96.688 265.441 97.444 264.973 98.11C264.505 98.776 263.839 99.298 262.975 99.676C262.129 100.054 261.13 100.243 259.978 100.243ZM270.567 83.152C270.009 83.152 269.541 82.963 269.163 82.585C268.785 82.207 268.596 81.739 268.596 81.181C268.596 80.623 268.785 80.155 269.163 79.777C269.541 79.399 270.009 79.21 270.567 79.21C271.107 79.21 271.566 79.399 271.944 79.777C272.322 80.155 272.511 80.623 272.511 81.181C272.511 81.739 272.322 82.207 271.944 82.585C271.566 82.963 271.107 83.152 270.567 83.152ZM272.079 85.123V100H269.001V85.123H272.079ZM282.114 84.88C283.266 84.88 284.283 85.114 285.165 85.582C286.065 86.032 286.767 86.599 287.271 87.283V85.123H290.376V100.243C290.376 101.611 290.088 102.826 289.512 103.888C288.936 104.968 288.099 105.814 287.001 106.426C285.921 107.038 284.625 107.344 283.113 107.344C281.097 107.344 279.423 106.867 278.091 105.913C276.759 104.977 276.003 103.699 275.823 102.079H278.874C279.108 102.853 279.603 103.474 280.359 103.942C281.133 104.428 282.051 104.671 283.113 104.671C284.355 104.671 285.354 104.293 286.11 103.537C286.884 102.781 287.271 101.683 287.271 100.243V97.759C286.749 98.461 286.038 99.055 285.138 99.541C284.256 100.009 283.248 100.243 282.114 100.243C280.818 100.243 279.63 99.919 278.55 99.271C277.488 98.605 276.642 97.687 276.012 96.517C275.4 95.329 275.094 93.988 275.094 92.494C275.094 91 275.4 89.677 276.012 88.525C276.642 87.373 277.488 86.482 278.55 85.852C279.63 85.204 280.818 84.88 282.114 84.88ZM287.271 92.548C287.271 91.522 287.055 90.631 286.623 89.875C286.209 89.119 285.66 88.543 284.976 88.147C284.292 87.751 283.554 87.553 282.762 87.553C281.97 87.553 281.232 87.751 280.548 88.147C279.864 88.525 279.306 89.092 278.874 89.848C278.46 90.586 278.253 91.468 278.253 92.494C278.253 93.52 278.46 94.42 278.874 95.194C279.306 95.968 279.864 96.562 280.548 96.976C281.25 97.372 281.988 97.57 282.762 97.57C283.554 97.57 284.292 97.372 284.976 96.976C285.66 96.58 286.209 96.004 286.623 95.248C287.055 94.474 287.271 93.574 287.271 92.548ZM301.925 84.88C303.095 84.88 304.139 85.123 305.057 85.609C305.993 86.095 306.722 86.815 307.244 87.769C307.766 88.723 308.027 89.875 308.027 91.225V100H304.976V91.684C304.976 90.352 304.643 89.335 303.977 88.633C303.311 87.913 302.402 87.553 301.25 87.553C300.098 87.553 299.18 87.913 298.496 88.633C297.83 89.335 297.497 90.352 297.497 91.684V100H294.419V85.123H297.497V86.824C298.001 86.212 298.64 85.735 299.414 85.393C300.206 85.051 301.043 84.88 301.925 84.88ZM317.002 80.965C318.838 80.965 320.305 81.469 321.403 82.477C322.519 83.485 323.077 84.862 323.077 86.608C323.077 88.426 322.501 89.794 321.349 90.712C320.197 91.63 318.667 92.089 316.759 92.089L316.651 94.222H313.978L313.843 89.983H314.734C316.48 89.983 317.812 89.749 318.73 89.281C319.666 88.813 320.134 87.922 320.134 86.608C320.134 85.654 319.855 84.907 319.297 84.367C318.757 83.827 318.001 83.557 317.029 83.557C316.057 83.557 315.292 83.818 314.734 84.34C314.176 84.862 313.897 85.591 313.897 86.527H311.008C311.008 85.447 311.251 84.484 311.737 83.638C312.223 82.792 312.916 82.135 313.816 81.667C314.734 81.199 315.796 80.965 317.002 80.965ZM315.274 100.189C314.716 100.189 314.248 100 313.87 99.622C313.492 99.244 313.303 98.776 313.303 98.218C313.303 97.66 313.492 97.192 313.87 96.814C314.248 96.436 314.716 96.247 315.274 96.247C315.814 96.247 316.273 96.436 316.651 96.814C317.029 97.192 317.218 97.66 317.218 98.218C317.218 98.776 317.029 99.244 316.651 99.622C316.273 100 315.814 100.189 315.274 100.189Z" fill="#FFB8BC" />
    <path d="M79.2739 152.154C77.8366 152.154 76.5166 151.817 75.3139 151.142C74.1113 150.467 73.1579 149.536 72.4539 148.348C71.7499 147.145 71.3979 145.789 71.3979 144.278C71.3979 142.782 71.7499 141.44 72.4539 140.252C73.1579 139.049 74.1113 138.111 75.3139 137.436C76.5166 136.761 77.8366 136.424 79.2739 136.424C80.7259 136.424 82.0459 136.761 83.2339 137.436C84.4366 138.111 85.3826 139.049 86.0719 140.252C86.7759 141.44 87.1279 142.782 87.1279 144.278C87.1279 145.789 86.7759 147.145 86.0719 148.348C85.3826 149.536 84.4366 150.467 83.2339 151.142C82.0313 151.817 80.7113 152.154 79.2739 152.154ZM79.2739 149.404C80.1979 149.404 81.0119 149.199 81.7159 148.788C82.4199 148.363 82.9699 147.761 83.3659 146.984C83.7619 146.207 83.9599 145.305 83.9599 144.278C83.9599 143.251 83.7619 142.357 83.3659 141.594C82.9699 140.817 82.4199 140.223 81.7159 139.812C81.0119 139.401 80.1979 139.196 79.2739 139.196C78.3499 139.196 77.5286 139.401 76.8099 139.812C76.1059 140.223 75.5559 140.817 75.1599 141.594C74.7639 142.357 74.5659 143.251 74.5659 144.278C74.5659 145.305 74.7639 146.207 75.1599 146.984C75.5559 147.761 76.1059 148.363 76.8099 148.788C77.5286 149.199 78.3499 149.404 79.2739 149.404ZM100.925 139.812V152H97.8234V150.46C97.4274 150.988 96.9067 151.406 96.2614 151.714C95.6307 152.007 94.9414 152.154 94.1934 152.154C93.24 152.154 92.3967 151.956 91.6634 151.56C90.93 151.149 90.3507 150.555 89.9254 149.778C89.5147 148.986 89.3094 148.047 89.3094 146.962V139.812H92.3894V146.522C92.3894 147.49 92.6314 148.238 93.1154 148.766C93.5994 149.279 94.2594 149.536 95.0954 149.536C95.946 149.536 96.6134 149.279 97.0974 148.766C97.5814 148.238 97.8234 147.49 97.8234 146.522V139.812H100.925ZM107.044 141.704C107.44 141.059 107.954 140.553 108.584 140.186C109.23 139.819 109.963 139.636 110.784 139.636V142.87H109.97C109.002 142.87 108.269 143.097 107.77 143.552C107.286 144.007 107.044 144.799 107.044 145.928V152H103.964V139.812H107.044V141.704ZM117.309 145.862C117.309 144.63 117.551 143.537 118.035 142.584C118.534 141.631 119.208 140.897 120.059 140.384C120.91 139.871 121.856 139.614 122.897 139.614C123.689 139.614 124.444 139.79 125.163 140.142C125.882 140.479 126.454 140.934 126.879 141.506V135.72H130.003V152H126.879V150.196C126.498 150.797 125.962 151.281 125.273 151.648C124.584 152.015 123.784 152.198 122.875 152.198C121.848 152.198 120.91 151.934 120.059 151.406C119.208 150.878 118.534 150.137 118.035 149.184C117.551 148.216 117.309 147.109 117.309 145.862ZM126.901 145.906C126.901 145.158 126.754 144.52 126.461 143.992C126.168 143.449 125.772 143.039 125.273 142.76C124.774 142.467 124.239 142.32 123.667 142.32C123.095 142.32 122.567 142.459 122.083 142.738C121.599 143.017 121.203 143.427 120.895 143.97C120.602 144.498 120.455 145.129 120.455 145.862C120.455 146.595 120.602 147.241 120.895 147.798C121.203 148.341 121.599 148.759 122.083 149.052C122.582 149.345 123.11 149.492 123.667 149.492C124.239 149.492 124.774 149.353 125.273 149.074C125.772 148.781 126.168 148.37 126.461 147.842C126.754 147.299 126.901 146.654 126.901 145.906ZM144.341 145.642C144.341 146.082 144.312 146.478 144.253 146.83H135.343C135.416 147.71 135.724 148.399 136.267 148.898C136.81 149.397 137.477 149.646 138.269 149.646C139.413 149.646 140.227 149.155 140.711 148.172H144.033C143.681 149.345 143.006 150.313 142.009 151.076C141.012 151.824 139.787 152.198 138.335 152.198C137.162 152.198 136.106 151.941 135.167 151.428C134.243 150.9 133.517 150.159 132.989 149.206C132.476 148.253 132.219 147.153 132.219 145.906C132.219 144.645 132.476 143.537 132.989 142.584C133.502 141.631 134.221 140.897 135.145 140.384C136.069 139.871 137.132 139.614 138.335 139.614C139.494 139.614 140.528 139.863 141.437 140.362C142.361 140.861 143.072 141.572 143.571 142.496C144.084 143.405 144.341 144.454 144.341 145.642ZM141.151 144.762C141.136 143.97 140.85 143.339 140.293 142.87C139.736 142.386 139.054 142.144 138.247 142.144C137.484 142.144 136.839 142.379 136.311 142.848C135.798 143.303 135.482 143.941 135.365 144.762H141.151ZM151.253 152.198C150.256 152.198 149.361 152.022 148.569 151.67C147.777 151.303 147.147 150.812 146.677 150.196C146.223 149.58 145.973 148.898 145.929 148.15H149.031C149.09 148.619 149.317 149.008 149.713 149.316C150.124 149.624 150.63 149.778 151.231 149.778C151.818 149.778 152.273 149.661 152.595 149.426C152.933 149.191 153.101 148.891 153.101 148.524C153.101 148.128 152.896 147.835 152.485 147.644C152.089 147.439 151.451 147.219 150.571 146.984C149.662 146.764 148.914 146.537 148.327 146.302C147.755 146.067 147.257 145.708 146.831 145.224C146.421 144.74 146.215 144.087 146.215 143.266C146.215 142.591 146.406 141.975 146.787 141.418C147.183 140.861 147.741 140.421 148.459 140.098C149.193 139.775 150.051 139.614 151.033 139.614C152.485 139.614 153.644 139.981 154.509 140.714C155.375 141.433 155.851 142.408 155.939 143.64H152.991C152.947 143.156 152.742 142.775 152.375 142.496C152.023 142.203 151.547 142.056 150.945 142.056C150.388 142.056 149.955 142.159 149.647 142.364C149.354 142.569 149.207 142.855 149.207 143.222C149.207 143.633 149.413 143.948 149.823 144.168C150.234 144.373 150.872 144.586 151.737 144.806C152.617 145.026 153.343 145.253 153.915 145.488C154.487 145.723 154.979 146.089 155.389 146.588C155.815 147.072 156.035 147.717 156.049 148.524C156.049 149.228 155.851 149.859 155.455 150.416C155.074 150.973 154.517 151.413 153.783 151.736C153.065 152.044 152.221 152.198 151.253 152.198ZM160.14 138.36C159.597 138.36 159.142 138.191 158.776 137.854C158.424 137.502 158.248 137.069 158.248 136.556C158.248 136.043 158.424 135.617 158.776 135.28C159.142 134.928 159.597 134.752 160.14 134.752C160.682 134.752 161.13 134.928 161.482 135.28C161.848 135.617 162.032 136.043 162.032 136.556C162.032 137.069 161.848 137.502 161.482 137.854C161.13 138.191 160.682 138.36 160.14 138.36ZM161.658 139.812V152H158.578V139.812H161.658ZM169.475 139.614C170.384 139.614 171.183 139.797 171.873 140.164C172.562 140.516 173.105 140.978 173.501 141.55V139.812H176.603V152.088C176.603 153.217 176.375 154.222 175.921 155.102C175.466 155.997 174.784 156.701 173.875 157.214C172.965 157.742 171.865 158.006 170.575 158.006C168.844 158.006 167.421 157.603 166.307 156.796C165.207 155.989 164.583 154.889 164.437 153.496H167.495C167.656 154.053 168.001 154.493 168.529 154.816C169.071 155.153 169.724 155.322 170.487 155.322C171.381 155.322 172.107 155.051 172.665 154.508C173.222 153.98 173.501 153.173 173.501 152.088V150.196C173.105 150.768 172.555 151.245 171.851 151.626C171.161 152.007 170.369 152.198 169.475 152.198C168.448 152.198 167.509 151.934 166.659 151.406C165.808 150.878 165.133 150.137 164.635 149.184C164.151 148.216 163.909 147.109 163.909 145.862C163.909 144.63 164.151 143.537 164.635 142.584C165.133 141.631 165.801 140.897 166.637 140.384C167.487 139.871 168.433 139.614 169.475 139.614ZM173.501 145.906C173.501 145.158 173.354 144.52 173.061 143.992C172.767 143.449 172.371 143.039 171.873 142.76C171.374 142.467 170.839 142.32 170.267 142.32C169.695 142.32 169.167 142.459 168.683 142.738C168.199 143.017 167.803 143.427 167.495 143.97C167.201 144.498 167.055 145.129 167.055 145.862C167.055 146.595 167.201 147.241 167.495 147.798C167.803 148.341 168.199 148.759 168.683 149.052C169.181 149.345 169.709 149.492 170.267 149.492C170.839 149.492 171.374 149.353 171.873 149.074C172.371 148.781 172.767 148.37 173.061 147.842C173.354 147.299 173.501 146.654 173.501 145.906ZM186.365 139.636C187.817 139.636 188.99 140.098 189.885 141.022C190.779 141.931 191.227 143.207 191.227 144.85V152H188.147V145.268C188.147 144.3 187.905 143.559 187.421 143.046C186.937 142.518 186.277 142.254 185.441 142.254C184.59 142.254 183.915 142.518 183.417 143.046C182.933 143.559 182.691 144.3 182.691 145.268V152H179.611V139.812H182.691V141.33C183.101 140.802 183.622 140.391 184.253 140.098C184.898 139.79 185.602 139.636 186.365 139.636ZM205.486 145.642C205.486 146.082 205.456 146.478 205.398 146.83H196.488C196.561 147.71 196.869 148.399 197.412 148.898C197.954 149.397 198.622 149.646 199.414 149.646C200.558 149.646 201.372 149.155 201.856 148.172H205.178C204.826 149.345 204.151 150.313 203.154 151.076C202.156 151.824 200.932 152.198 199.48 152.198C198.306 152.198 197.25 151.941 196.312 151.428C195.388 150.9 194.662 150.159 194.134 149.206C193.62 148.253 193.364 147.153 193.364 145.906C193.364 144.645 193.62 143.537 194.134 142.584C194.647 141.631 195.366 140.897 196.29 140.384C197.214 139.871 198.277 139.614 199.48 139.614C200.638 139.614 201.672 139.863 202.582 140.362C203.506 140.861 204.217 141.572 204.716 142.496C205.229 143.405 205.486 144.454 205.486 145.642ZM202.296 144.762C202.281 143.97 201.995 143.339 201.438 142.87C200.88 142.386 200.198 142.144 199.392 142.144C198.629 142.144 197.984 142.379 197.456 142.848C196.942 143.303 196.627 143.941 196.51 144.762H202.296ZM210.814 141.704C211.21 141.059 211.723 140.553 212.354 140.186C212.999 139.819 213.732 139.636 214.554 139.636V142.87H213.74C212.772 142.87 212.038 143.097 211.54 143.552C211.056 144.007 210.814 144.799 210.814 145.928V152H207.734V139.812H210.814V141.704ZM221.292 152.198C220.295 152.198 219.4 152.022 218.608 151.67C217.816 151.303 217.186 150.812 216.716 150.196C216.262 149.58 216.012 148.898 215.968 148.15H219.07C219.129 148.619 219.356 149.008 219.752 149.316C220.163 149.624 220.669 149.778 221.27 149.778C221.857 149.778 222.312 149.661 222.634 149.426C222.972 149.191 223.14 148.891 223.14 148.524C223.14 148.128 222.935 147.835 222.524 147.644C222.128 147.439 221.49 147.219 220.61 146.984C219.701 146.764 218.953 146.537 218.366 146.302C217.794 146.067 217.296 145.708 216.87 145.224C216.46 144.74 216.254 144.087 216.254 143.266C216.254 142.591 216.445 141.975 216.826 141.418C217.222 140.861 217.78 140.421 218.498 140.098C219.232 139.775 220.09 139.614 221.072 139.614C222.524 139.614 223.683 139.981 224.548 140.714C225.414 141.433 225.89 142.408 225.978 143.64H223.03C222.986 143.156 222.781 142.775 222.414 142.496C222.062 142.203 221.586 142.056 220.984 142.056C220.427 142.056 219.994 142.159 219.686 142.364C219.393 142.569 219.246 142.855 219.246 143.222C219.246 143.633 219.452 143.948 219.862 144.168C220.273 144.373 220.911 144.586 221.776 144.806C222.656 145.026 223.382 145.253 223.954 145.488C224.526 145.723 225.018 146.089 225.428 146.588C225.854 147.072 226.074 147.717 226.088 148.524C226.088 149.228 225.89 149.859 225.494 150.416C225.113 150.973 224.556 151.413 223.822 151.736C223.104 152.044 222.26 152.198 221.292 152.198ZM250.755 139.812L247.191 152H243.869L241.647 143.486L239.425 152H236.081L232.495 139.812H235.619L237.775 149.096L240.107 139.812H243.363L245.651 149.074L247.807 139.812H250.755ZM253.983 138.36C253.441 138.36 252.986 138.191 252.619 137.854C252.267 137.502 252.091 137.069 252.091 136.556C252.091 136.043 252.267 135.617 252.619 135.28C252.986 134.928 253.441 134.752 253.983 134.752C254.526 134.752 254.973 134.928 255.325 135.28C255.692 135.617 255.875 136.043 255.875 136.556C255.875 137.069 255.692 137.502 255.325 137.854C254.973 138.191 254.526 138.36 253.983 138.36ZM255.501 139.812V152H252.421V139.812H255.501ZM261.624 135.72V152H258.544V135.72H261.624ZM267.747 135.72V152H264.667V135.72H267.747ZM275.241 145.906C275.241 144.645 275.497 143.545 276.011 142.606C276.524 141.653 277.235 140.919 278.145 140.406C279.054 139.878 280.095 139.614 281.269 139.614C282.779 139.614 284.026 139.995 285.009 140.758C286.006 141.506 286.673 142.562 287.011 143.926H283.689C283.513 143.398 283.212 142.987 282.787 142.694C282.376 142.386 281.863 142.232 281.247 142.232C280.367 142.232 279.67 142.555 279.157 143.2C278.643 143.831 278.387 144.733 278.387 145.906C278.387 147.065 278.643 147.967 279.157 148.612C279.67 149.243 280.367 149.558 281.247 149.558C282.493 149.558 283.307 149.001 283.689 147.886H287.011C286.673 149.206 286.006 150.255 285.009 151.032C284.011 151.809 282.765 152.198 281.269 152.198C280.095 152.198 279.054 151.941 278.145 151.428C277.235 150.9 276.524 150.167 276.011 149.228C275.497 148.275 275.241 147.167 275.241 145.906ZM294.679 152.198C293.506 152.198 292.45 151.941 291.511 151.428C290.572 150.9 289.832 150.159 289.289 149.206C288.761 148.253 288.497 147.153 288.497 145.906C288.497 144.659 288.768 143.559 289.311 142.606C289.868 141.653 290.624 140.919 291.577 140.406C292.53 139.878 293.594 139.614 294.767 139.614C295.94 139.614 297.004 139.878 297.957 140.406C298.91 140.919 299.658 141.653 300.201 142.606C300.758 143.559 301.037 144.659 301.037 145.906C301.037 147.153 300.751 148.253 300.179 149.206C299.622 150.159 298.859 150.9 297.891 151.428C296.938 151.941 295.867 152.198 294.679 152.198ZM294.679 149.514C295.236 149.514 295.757 149.382 296.241 149.118C296.74 148.839 297.136 148.429 297.429 147.886C297.722 147.343 297.869 146.683 297.869 145.906C297.869 144.747 297.561 143.86 296.945 143.244C296.344 142.613 295.603 142.298 294.723 142.298C293.843 142.298 293.102 142.613 292.501 143.244C291.914 143.86 291.621 144.747 291.621 145.906C291.621 147.065 291.907 147.959 292.479 148.59C293.066 149.206 293.799 149.514 294.679 149.514ZM306.376 135.72V152H303.296V135.72H306.376ZM312.499 135.72V152H309.419V135.72H312.499ZM314.75 145.862C314.75 144.63 314.992 143.537 315.476 142.584C315.975 141.631 316.642 140.897 317.478 140.384C318.329 139.871 319.275 139.614 320.316 139.614C321.226 139.614 322.018 139.797 322.692 140.164C323.382 140.531 323.932 140.993 324.342 141.55V139.812H327.444V152H324.342V150.218C323.946 150.79 323.396 151.267 322.692 151.648C322.003 152.015 321.204 152.198 320.294 152.198C319.268 152.198 318.329 151.934 317.478 151.406C316.642 150.878 315.975 150.137 315.476 149.184C314.992 148.216 314.75 147.109 314.75 145.862ZM324.342 145.906C324.342 145.158 324.196 144.52 323.902 143.992C323.609 143.449 323.213 143.039 322.714 142.76C322.216 142.467 321.68 142.32 321.108 142.32C320.536 142.32 320.008 142.459 319.524 142.738C319.04 143.017 318.644 143.427 318.336 143.97C318.043 144.498 317.896 145.129 317.896 145.862C317.896 146.595 318.043 147.241 318.336 147.798C318.644 148.341 319.04 148.759 319.524 149.052C320.023 149.345 320.551 149.492 321.108 149.492C321.68 149.492 322.216 149.353 322.714 149.074C323.213 148.781 323.609 148.37 323.902 147.842C324.196 147.299 324.342 146.654 324.342 145.906ZM333.533 141.594C333.929 141.007 334.471 140.531 335.161 140.164C335.865 139.797 336.664 139.614 337.559 139.614C338.6 139.614 339.539 139.871 340.375 140.384C341.225 140.897 341.893 141.631 342.377 142.584C342.875 143.523 343.125 144.615 343.125 145.862C343.125 147.109 342.875 148.216 342.377 149.184C341.893 150.137 341.225 150.878 340.375 151.406C339.539 151.934 338.6 152.198 337.559 152.198C336.649 152.198 335.85 152.022 335.161 151.67C334.486 151.303 333.943 150.834 333.533 150.262V152H330.453V135.72H333.533V141.594ZM339.979 145.862C339.979 145.129 339.825 144.498 339.517 143.97C339.223 143.427 338.827 143.017 338.329 142.738C337.845 142.459 337.317 142.32 336.745 142.32C336.187 142.32 335.659 142.467 335.161 142.76C334.677 143.039 334.281 143.449 333.973 143.992C333.679 144.535 333.533 145.173 333.533 145.906C333.533 146.639 333.679 147.277 333.973 147.82C334.281 148.363 334.677 148.781 335.161 149.074C335.659 149.353 336.187 149.492 336.745 149.492C337.317 149.492 337.845 149.345 338.329 149.052C338.827 148.759 339.223 148.341 339.517 147.798C339.825 147.255 339.979 146.61 339.979 145.862ZM350.775 152.198C349.601 152.198 348.545 151.941 347.607 151.428C346.668 150.9 345.927 150.159 345.385 149.206C344.857 148.253 344.593 147.153 344.593 145.906C344.593 144.659 344.864 143.559 345.407 142.606C345.964 141.653 346.719 140.919 347.673 140.406C348.626 139.878 349.689 139.614 350.863 139.614C352.036 139.614 353.099 139.878 354.053 140.406C355.006 140.919 355.754 141.653 356.297 142.606C356.854 143.559 357.133 144.659 357.133 145.906C357.133 147.153 356.847 148.253 356.275 149.206C355.717 150.159 354.955 150.9 353.987 151.428C353.033 151.941 351.963 152.198 350.775 152.198ZM350.775 149.514C351.332 149.514 351.853 149.382 352.337 149.118C352.835 148.839 353.231 148.429 353.525 147.886C353.818 147.343 353.965 146.683 353.965 145.906C353.965 144.747 353.657 143.86 353.041 143.244C352.439 142.613 351.699 142.298 350.819 142.298C349.939 142.298 349.198 142.613 348.597 143.244C348.01 143.86 347.717 144.747 347.717 145.906C347.717 147.065 348.003 147.959 348.575 148.59C349.161 149.206 349.895 149.514 350.775 149.514ZM362.472 141.704C362.868 141.059 363.381 140.553 364.012 140.186C364.657 139.819 365.391 139.636 366.212 139.636V142.87H365.398C364.43 142.87 363.697 143.097 363.198 143.552C362.714 144.007 362.472 144.799 362.472 145.928V152H359.392V139.812H362.472V141.704ZM367.495 145.862C367.495 144.63 367.737 143.537 368.221 142.584C368.719 141.631 369.387 140.897 370.223 140.384C371.073 139.871 372.019 139.614 373.061 139.614C373.97 139.614 374.762 139.797 375.437 140.164C376.126 140.531 376.676 140.993 377.087 141.55V139.812H380.189V152H377.087V150.218C376.691 150.79 376.141 151.267 375.437 151.648C374.747 152.015 373.948 152.198 373.039 152.198C372.012 152.198 371.073 151.934 370.223 151.406C369.387 150.878 368.719 150.137 368.221 149.184C367.737 148.216 367.495 147.109 367.495 145.862ZM377.087 145.906C377.087 145.158 376.94 144.52 376.647 143.992C376.353 143.449 375.957 143.039 375.459 142.76C374.96 142.467 374.425 142.32 373.853 142.32C373.281 142.32 372.753 142.459 372.269 142.738C371.785 143.017 371.389 143.427 371.081 143.97C370.787 144.498 370.641 145.129 370.641 145.862C370.641 146.595 370.787 147.241 371.081 147.798C371.389 148.341 371.785 148.759 372.269 149.052C372.767 149.345 373.295 149.492 373.853 149.492C374.425 149.492 374.96 149.353 375.459 149.074C375.957 148.781 376.353 148.37 376.647 147.842C376.94 147.299 377.087 146.654 377.087 145.906ZM386.783 142.342V148.238C386.783 148.649 386.878 148.949 387.069 149.14C387.274 149.316 387.611 149.404 388.081 149.404H389.511V152H387.575C384.979 152 383.681 150.739 383.681 148.216V142.342H382.229V139.812H383.681V136.798H386.783V139.812H389.511V142.342H386.783ZM403.056 145.642C403.056 146.082 403.027 146.478 402.968 146.83H394.058C394.131 147.71 394.439 148.399 394.982 148.898C395.525 149.397 396.192 149.646 396.984 149.646C398.128 149.646 398.942 149.155 399.426 148.172H402.748C402.396 149.345 401.721 150.313 400.724 151.076C399.727 151.824 398.502 152.198 397.05 152.198C395.877 152.198 394.821 151.941 393.882 151.428C392.958 150.9 392.232 150.159 391.704 149.206C391.191 148.253 390.934 147.153 390.934 145.906C390.934 144.645 391.191 143.537 391.704 142.584C392.217 141.631 392.936 140.897 393.86 140.384C394.784 139.871 395.847 139.614 397.05 139.614C398.209 139.614 399.243 139.863 400.152 140.362C401.076 140.861 401.787 141.572 402.286 142.496C402.799 143.405 403.056 144.454 403.056 145.642ZM399.866 144.762C399.851 143.97 399.565 143.339 399.008 142.87C398.451 142.386 397.769 142.144 396.962 142.144C396.199 142.144 395.554 142.379 395.026 142.848C394.513 143.303 394.197 143.941 394.08 144.762H399.866ZM408.67 148.766L406.096 154.948H404.116L405.546 148.766H408.67ZM83.6613 172.636C84.5853 172.636 85.4066 172.841 86.1253 173.252C86.844 173.648 87.4013 174.242 87.7973 175.034C88.208 175.811 88.4133 176.75 88.4133 177.85V185H85.3333V178.268C85.3333 177.3 85.0913 176.559 84.6073 176.046C84.1233 175.518 83.4633 175.254 82.6273 175.254C81.7766 175.254 81.102 175.518 80.6033 176.046C80.1193 176.559 79.8773 177.3 79.8773 178.268V185H76.7973V168.72H79.8773V174.33C80.2733 173.802 80.8013 173.391 81.4613 173.098C82.1213 172.79 82.8546 172.636 83.6613 172.636ZM90.5502 178.862C90.5502 177.63 90.7922 176.537 91.2762 175.584C91.7749 174.631 92.4422 173.897 93.2782 173.384C94.1289 172.871 95.0749 172.614 96.1162 172.614C97.0256 172.614 97.8176 172.797 98.4922 173.164C99.1816 173.531 99.7316 173.993 100.142 174.55V172.812H103.244V185H100.142V183.218C99.7462 183.79 99.1962 184.267 98.4922 184.648C97.8029 185.015 97.0036 185.198 96.0942 185.198C95.0676 185.198 94.1289 184.934 93.2782 184.406C92.4422 183.878 91.7749 183.137 91.2762 182.184C90.7922 181.216 90.5502 180.109 90.5502 178.862ZM100.142 178.906C100.142 178.158 99.9956 177.52 99.7022 176.992C99.4089 176.449 99.0129 176.039 98.5142 175.76C98.0156 175.467 97.4802 175.32 96.9082 175.32C96.3362 175.32 95.8082 175.459 95.3242 175.738C94.8402 176.017 94.4442 176.427 94.1362 176.97C93.8429 177.498 93.6962 178.129 93.6962 178.862C93.6962 179.595 93.8429 180.241 94.1362 180.798C94.4442 181.341 94.8402 181.759 95.3242 182.052C95.8229 182.345 96.3509 182.492 96.9082 182.492C97.4802 182.492 98.0156 182.353 98.5142 182.074C99.0129 181.781 99.4089 181.37 99.7022 180.842C99.9956 180.299 100.142 179.654 100.142 178.906ZM113.006 172.636C114.458 172.636 115.632 173.098 116.526 174.022C117.421 174.931 117.868 176.207 117.868 177.85V185H114.788V178.268C114.788 177.3 114.546 176.559 114.062 176.046C113.578 175.518 112.918 175.254 112.082 175.254C111.232 175.254 110.557 175.518 110.058 176.046C109.574 176.559 109.332 177.3 109.332 178.268V185H106.252V172.812H109.332V174.33C109.743 173.802 110.264 173.391 110.894 173.098C111.54 172.79 112.244 172.636 113.006 172.636ZM120.005 178.862C120.005 177.63 120.247 176.537 120.731 175.584C121.23 174.631 121.905 173.897 122.755 173.384C123.606 172.871 124.552 172.614 125.593 172.614C126.385 172.614 127.141 172.79 127.859 173.142C128.578 173.479 129.15 173.934 129.575 174.506V168.72H132.699V185H129.575V183.196C129.194 183.797 128.659 184.281 127.969 184.648C127.28 185.015 126.481 185.198 125.571 185.198C124.545 185.198 123.606 184.934 122.755 184.406C121.905 183.878 121.23 183.137 120.731 182.184C120.247 181.216 120.005 180.109 120.005 178.862ZM129.597 178.906C129.597 178.158 129.451 177.52 129.157 176.992C128.864 176.449 128.468 176.039 127.969 175.76C127.471 175.467 126.935 175.32 126.363 175.32C125.791 175.32 125.263 175.459 124.779 175.738C124.295 176.017 123.899 176.427 123.591 176.97C123.298 177.498 123.151 178.129 123.151 178.862C123.151 179.595 123.298 180.241 123.591 180.798C123.899 181.341 124.295 181.759 124.779 182.052C125.278 182.345 125.806 182.492 126.363 182.492C126.935 182.492 127.471 182.353 127.969 182.074C128.468 181.781 128.864 181.37 129.157 180.842C129.451 180.299 129.597 179.654 129.597 178.906ZM134.915 178.906C134.915 177.645 135.172 176.545 135.685 175.606C136.199 174.653 136.91 173.919 137.819 173.406C138.729 172.878 139.77 172.614 140.943 172.614C142.454 172.614 143.701 172.995 144.683 173.758C145.681 174.506 146.348 175.562 146.685 176.926H143.363C143.187 176.398 142.887 175.987 142.461 175.694C142.051 175.386 141.537 175.232 140.921 175.232C140.041 175.232 139.345 175.555 138.831 176.2C138.318 176.831 138.061 177.733 138.061 178.906C138.061 180.065 138.318 180.967 138.831 181.612C139.345 182.243 140.041 182.558 140.921 182.558C142.168 182.558 142.982 182.001 143.363 180.886H146.685C146.348 182.206 145.681 183.255 144.683 184.032C143.686 184.809 142.439 185.198 140.943 185.198C139.77 185.198 138.729 184.941 137.819 184.428C136.91 183.9 136.199 183.167 135.685 182.228C135.172 181.275 134.915 180.167 134.915 178.906ZM152.022 174.704C152.418 174.059 152.931 173.553 153.562 173.186C154.207 172.819 154.94 172.636 155.762 172.636V175.87H154.948C153.98 175.87 153.246 176.097 152.748 176.552C152.264 177.007 152.022 177.799 152.022 178.928V185H148.942V172.812H152.022V174.704ZM157.044 178.862C157.044 177.63 157.286 176.537 157.77 175.584C158.269 174.631 158.936 173.897 159.772 173.384C160.623 172.871 161.569 172.614 162.61 172.614C163.52 172.614 164.312 172.797 164.986 173.164C165.676 173.531 166.226 173.993 166.636 174.55V172.812H169.738V185H166.636V183.218C166.24 183.79 165.69 184.267 164.986 184.648C164.297 185.015 163.498 185.198 162.588 185.198C161.562 185.198 160.623 184.934 159.772 184.406C158.936 183.878 158.269 183.137 157.77 182.184C157.286 181.216 157.044 180.109 157.044 178.862ZM166.636 178.906C166.636 178.158 166.49 177.52 166.196 176.992C165.903 176.449 165.507 176.039 165.008 175.76C164.51 175.467 163.974 175.32 163.402 175.32C162.83 175.32 162.302 175.459 161.818 175.738C161.334 176.017 160.938 176.427 160.63 176.97C160.337 177.498 160.19 178.129 160.19 178.862C160.19 179.595 160.337 180.241 160.63 180.798C160.938 181.341 161.334 181.759 161.818 182.052C162.317 182.345 162.845 182.492 163.402 182.492C163.974 182.492 164.51 182.353 165.008 182.074C165.507 181.781 165.903 181.37 166.196 180.842C166.49 180.299 166.636 179.654 166.636 178.906ZM178.335 175.342H176.201V185H173.077V175.342H171.691V172.812H173.077V172.196C173.077 170.7 173.502 169.6 174.353 168.896C175.203 168.192 176.487 167.862 178.203 167.906V170.502C177.455 170.487 176.934 170.612 176.641 170.876C176.347 171.14 176.201 171.617 176.201 172.306V172.812H178.335V175.342ZM183.917 175.342V181.238C183.917 181.649 184.012 181.949 184.203 182.14C184.408 182.316 184.745 182.404 185.215 182.404H186.645V185H184.709C182.113 185 180.815 183.739 180.815 181.216V175.342H179.363V172.812H180.815V169.798H183.917V172.812H186.645V175.342H183.917ZM193.31 178.862C193.31 177.63 193.552 176.537 194.036 175.584C194.535 174.631 195.202 173.897 196.038 173.384C196.889 172.871 197.835 172.614 198.876 172.614C199.785 172.614 200.577 172.797 201.252 173.164C201.941 173.531 202.491 173.993 202.902 174.55V172.812H206.004V185H202.902V183.218C202.506 183.79 201.956 184.267 201.252 184.648C200.563 185.015 199.763 185.198 198.854 185.198C197.827 185.198 196.889 184.934 196.038 184.406C195.202 183.878 194.535 183.137 194.036 182.184C193.552 181.216 193.31 180.109 193.31 178.862ZM202.902 178.906C202.902 178.158 202.755 177.52 202.462 176.992C202.169 176.449 201.773 176.039 201.274 175.76C200.775 175.467 200.24 175.32 199.668 175.32C199.096 175.32 198.568 175.459 198.084 175.738C197.6 176.017 197.204 176.427 196.896 176.97C196.603 177.498 196.456 178.129 196.456 178.862C196.456 179.595 196.603 180.241 196.896 180.798C197.204 181.341 197.6 181.759 198.084 182.052C198.583 182.345 199.111 182.492 199.668 182.492C200.24 182.492 200.775 182.353 201.274 182.074C201.773 181.781 202.169 181.37 202.462 180.842C202.755 180.299 202.902 179.654 202.902 178.906ZM215.766 172.636C217.218 172.636 218.391 173.098 219.286 174.022C220.181 174.931 220.628 176.207 220.628 177.85V185H217.548V178.268C217.548 177.3 217.306 176.559 216.822 176.046C216.338 175.518 215.678 175.254 214.842 175.254C213.991 175.254 213.317 175.518 212.818 176.046C212.334 176.559 212.092 177.3 212.092 178.268V185H209.012V172.812H212.092V174.33C212.503 173.802 213.023 173.391 213.654 173.098C214.299 172.79 215.003 172.636 215.766 172.636ZM222.765 178.862C222.765 177.63 223.007 176.537 223.491 175.584C223.99 174.631 224.664 173.897 225.515 173.384C226.366 172.871 227.312 172.614 228.353 172.614C229.145 172.614 229.9 172.79 230.619 173.142C231.338 173.479 231.91 173.934 232.335 174.506V168.72H235.459V185H232.335V183.196C231.954 183.797 231.418 184.281 230.729 184.648C230.04 185.015 229.24 185.198 228.331 185.198C227.304 185.198 226.366 184.934 225.515 184.406C224.664 183.878 223.99 183.137 223.491 182.184C223.007 181.216 222.765 180.109 222.765 178.862ZM232.357 178.906C232.357 178.158 232.21 177.52 231.917 176.992C231.624 176.449 231.228 176.039 230.729 175.76C230.23 175.467 229.695 175.32 229.123 175.32C228.551 175.32 228.023 175.459 227.539 175.738C227.055 176.017 226.659 176.427 226.351 176.97C226.058 177.498 225.911 178.129 225.911 178.862C225.911 179.595 226.058 180.241 226.351 180.798C226.659 181.341 227.055 181.759 227.539 182.052C228.038 182.345 228.566 182.492 229.123 182.492C229.695 182.492 230.23 182.353 230.729 182.074C231.228 181.781 231.624 181.37 231.917 180.842C232.21 180.299 232.357 179.654 232.357 178.906ZM242.917 178.906C242.917 177.645 243.174 176.545 243.687 175.606C244.201 174.653 244.912 173.919 245.821 173.406C246.731 172.878 247.772 172.614 248.945 172.614C250.456 172.614 251.703 172.995 252.685 173.758C253.683 174.506 254.35 175.562 254.687 176.926H251.365C251.189 176.398 250.889 175.987 250.463 175.694C250.053 175.386 249.539 175.232 248.923 175.232C248.043 175.232 247.347 175.555 246.833 176.2C246.32 176.831 246.063 177.733 246.063 178.906C246.063 180.065 246.32 180.967 246.833 181.612C247.347 182.243 248.043 182.558 248.923 182.558C250.17 182.558 250.984 182.001 251.365 180.886H254.687C254.35 182.206 253.683 183.255 252.685 184.032C251.688 184.809 250.441 185.198 248.945 185.198C247.772 185.198 246.731 184.941 245.821 184.428C244.912 183.9 244.201 183.167 243.687 182.228C243.174 181.275 242.917 180.167 242.917 178.906ZM260.024 174.704C260.42 174.059 260.933 173.553 261.564 173.186C262.209 172.819 262.942 172.636 263.764 172.636V175.87H262.95C261.982 175.87 261.248 176.097 260.75 176.552C260.266 177.007 260.024 177.799 260.024 178.928V185H256.944V172.812H260.024V174.704ZM277.168 178.642C277.168 179.082 277.139 179.478 277.08 179.83H268.17C268.244 180.71 268.552 181.399 269.094 181.898C269.637 182.397 270.304 182.646 271.096 182.646C272.24 182.646 273.054 182.155 273.538 181.172H276.86C276.508 182.345 275.834 183.313 274.836 184.076C273.839 184.824 272.614 185.198 271.162 185.198C269.989 185.198 268.933 184.941 267.994 184.428C267.07 183.9 266.344 183.159 265.816 182.206C265.303 181.253 265.046 180.153 265.046 178.906C265.046 177.645 265.303 176.537 265.816 175.584C266.33 174.631 267.048 173.897 267.972 173.384C268.896 172.871 269.96 172.614 271.162 172.614C272.321 172.614 273.355 172.863 274.264 173.362C275.188 173.861 275.9 174.572 276.398 175.496C276.912 176.405 277.168 177.454 277.168 178.642ZM273.978 177.762C273.964 176.97 273.678 176.339 273.12 175.87C272.563 175.386 271.881 175.144 271.074 175.144C270.312 175.144 269.666 175.379 269.138 175.848C268.625 176.303 268.31 176.941 268.192 177.762H273.978ZM278.624 178.862C278.624 177.63 278.866 176.537 279.35 175.584C279.849 174.631 280.516 173.897 281.352 173.384C282.203 172.871 283.149 172.614 284.19 172.614C285.1 172.614 285.892 172.797 286.566 173.164C287.256 173.531 287.806 173.993 288.216 174.55V172.812H291.318V185H288.216V183.218C287.82 183.79 287.27 184.267 286.566 184.648C285.877 185.015 285.078 185.198 284.168 185.198C283.142 185.198 282.203 184.934 281.352 184.406C280.516 183.878 279.849 183.137 279.35 182.184C278.866 181.216 278.624 180.109 278.624 178.862ZM288.216 178.906C288.216 178.158 288.07 177.52 287.776 176.992C287.483 176.449 287.087 176.039 286.588 175.76C286.09 175.467 285.554 175.32 284.982 175.32C284.41 175.32 283.882 175.459 283.398 175.738C282.914 176.017 282.518 176.427 282.21 176.97C281.917 177.498 281.77 178.129 281.77 178.862C281.77 179.595 281.917 180.241 282.21 180.798C282.518 181.341 282.914 181.759 283.398 182.052C283.897 182.345 284.425 182.492 284.982 182.492C285.554 182.492 286.09 182.353 286.588 182.074C287.087 181.781 287.483 181.37 287.776 180.842C288.07 180.299 288.216 179.654 288.216 178.906ZM297.913 175.342V181.238C297.913 181.649 298.008 181.949 298.199 182.14C298.404 182.316 298.741 182.404 299.211 182.404H300.641V185H298.705C296.109 185 294.811 183.739 294.811 181.216V175.342H293.359V172.812H294.811V169.798H297.913V172.812H300.641V175.342H297.913ZM314.186 178.642C314.186 179.082 314.157 179.478 314.098 179.83H305.188C305.261 180.71 305.569 181.399 306.112 181.898C306.655 182.397 307.322 182.646 308.114 182.646C309.258 182.646 310.072 182.155 310.556 181.172H313.878C313.526 182.345 312.851 183.313 311.854 184.076C310.857 184.824 309.632 185.198 308.18 185.198C307.007 185.198 305.951 184.941 305.012 184.428C304.088 183.9 303.362 183.159 302.834 182.206C302.321 181.253 302.064 180.153 302.064 178.906C302.064 177.645 302.321 176.537 302.834 175.584C303.347 174.631 304.066 173.897 304.99 173.384C305.914 172.871 306.977 172.614 308.18 172.614C309.339 172.614 310.373 172.863 311.282 173.362C312.206 173.861 312.917 174.572 313.416 175.496C313.929 176.405 314.186 177.454 314.186 178.642ZM310.996 177.762C310.981 176.97 310.695 176.339 310.138 175.87C309.581 175.386 308.899 175.144 308.092 175.144C307.329 175.144 306.684 175.379 306.156 175.848C305.643 176.303 305.327 176.941 305.21 177.762H310.996ZM323.238 171.36C322.696 171.36 322.241 171.191 321.874 170.854C321.522 170.502 321.346 170.069 321.346 169.556C321.346 169.043 321.522 168.617 321.874 168.28C322.241 167.928 322.696 167.752 323.238 167.752C323.781 167.752 324.228 167.928 324.58 168.28C324.947 168.617 325.13 169.043 325.13 169.556C325.13 170.069 324.947 170.502 324.58 170.854C324.228 171.191 323.781 171.36 323.238 171.36ZM324.756 172.812V185H321.676V172.812H324.756ZM342.935 172.636C344.431 172.636 345.634 173.098 346.543 174.022C347.467 174.931 347.929 176.207 347.929 177.85V185H344.849V178.268C344.849 177.315 344.607 176.589 344.123 176.09C343.639 175.577 342.979 175.32 342.143 175.32C341.307 175.32 340.64 175.577 340.141 176.09C339.657 176.589 339.415 177.315 339.415 178.268V185H336.335V178.268C336.335 177.315 336.093 176.589 335.609 176.09C335.125 175.577 334.465 175.32 333.629 175.32C332.779 175.32 332.104 175.577 331.605 176.09C331.121 176.589 330.879 177.315 330.879 178.268V185H327.799V172.812H330.879V174.286C331.275 173.773 331.781 173.369 332.397 173.076C333.028 172.783 333.717 172.636 334.465 172.636C335.419 172.636 336.269 172.841 337.017 173.252C337.765 173.648 338.345 174.22 338.755 174.968C339.151 174.264 339.723 173.699 340.471 173.274C341.234 172.849 342.055 172.636 342.935 172.636ZM350.06 178.862C350.06 177.63 350.302 176.537 350.786 175.584C351.285 174.631 351.952 173.897 352.788 173.384C353.639 172.871 354.585 172.614 355.626 172.614C356.535 172.614 357.327 172.797 358.002 173.164C358.691 173.531 359.241 173.993 359.652 174.55V172.812H362.754V185H359.652V183.218C359.256 183.79 358.706 184.267 358.002 184.648C357.313 185.015 356.513 185.198 355.604 185.198C354.577 185.198 353.639 184.934 352.788 184.406C351.952 183.878 351.285 183.137 350.786 182.184C350.302 181.216 350.06 180.109 350.06 178.862ZM359.652 178.906C359.652 178.158 359.505 177.52 359.212 176.992C358.919 176.449 358.523 176.039 358.024 175.76C357.525 175.467 356.99 175.32 356.418 175.32C355.846 175.32 355.318 175.459 354.834 175.738C354.35 176.017 353.954 176.427 353.646 176.97C353.353 177.498 353.206 178.129 353.206 178.862C353.206 179.595 353.353 180.241 353.646 180.798C353.954 181.341 354.35 181.759 354.834 182.052C355.333 182.345 355.861 182.492 356.418 182.492C356.99 182.492 357.525 182.353 358.024 182.074C358.523 181.781 358.919 181.37 359.212 180.842C359.505 180.299 359.652 179.654 359.652 178.906ZM370.536 172.614C371.445 172.614 372.245 172.797 372.934 173.164C373.623 173.516 374.166 173.978 374.562 174.55V172.812H377.664V185.088C377.664 186.217 377.437 187.222 376.982 188.102C376.527 188.997 375.845 189.701 374.936 190.214C374.027 190.742 372.927 191.006 371.636 191.006C369.905 191.006 368.483 190.603 367.368 189.796C366.268 188.989 365.645 187.889 365.498 186.496H368.556C368.717 187.053 369.062 187.493 369.59 187.816C370.133 188.153 370.785 188.322 371.548 188.322C372.443 188.322 373.169 188.051 373.726 187.508C374.283 186.98 374.562 186.173 374.562 185.088V183.196C374.166 183.768 373.616 184.245 372.912 184.626C372.223 185.007 371.431 185.198 370.536 185.198C369.509 185.198 368.571 184.934 367.72 184.406C366.869 183.878 366.195 183.137 365.696 182.184C365.212 181.216 364.97 180.109 364.97 178.862C364.97 177.63 365.212 176.537 365.696 175.584C366.195 174.631 366.862 173.897 367.698 173.384C368.549 172.871 369.495 172.614 370.536 172.614ZM374.562 178.906C374.562 178.158 374.415 177.52 374.122 176.992C373.829 176.449 373.433 176.039 372.934 175.76C372.435 175.467 371.9 175.32 371.328 175.32C370.756 175.32 370.228 175.459 369.744 175.738C369.26 176.017 368.864 176.427 368.556 176.97C368.263 177.498 368.116 178.129 368.116 178.862C368.116 179.595 368.263 180.241 368.556 180.798C368.864 181.341 369.26 181.759 369.744 182.052C370.243 182.345 370.771 182.492 371.328 182.492C371.9 182.492 372.435 182.353 372.934 182.074C373.433 181.781 373.829 181.37 374.122 180.842C374.415 180.299 374.562 179.654 374.562 178.906ZM392.002 178.642C392.002 179.082 391.973 179.478 391.914 179.83H383.004C383.078 180.71 383.386 181.399 383.928 181.898C384.471 182.397 385.138 182.646 385.93 182.646C387.074 182.646 387.888 182.155 388.372 181.172H391.694C391.342 182.345 390.668 183.313 389.67 184.076C388.673 184.824 387.448 185.198 385.996 185.198C384.823 185.198 383.767 184.941 382.828 184.428C381.904 183.9 381.178 183.159 380.65 182.206C380.137 181.253 379.88 180.153 379.88 178.906C379.88 177.645 380.137 176.537 380.65 175.584C381.164 174.631 381.882 173.897 382.806 173.384C383.73 172.871 384.794 172.614 385.996 172.614C387.155 172.614 388.189 172.863 389.098 173.362C390.022 173.861 390.734 174.572 391.232 175.496C391.746 176.405 392.002 177.454 392.002 178.642ZM388.812 177.762C388.798 176.97 388.512 176.339 387.954 175.87C387.397 175.386 386.715 175.144 385.908 175.144C385.146 175.144 384.5 175.379 383.972 175.848C383.459 176.303 383.144 176.941 383.026 177.762H388.812ZM398.914 185.198C397.917 185.198 397.022 185.022 396.23 184.67C395.438 184.303 394.808 183.812 394.338 183.196C393.884 182.58 393.634 181.898 393.59 181.15H396.692C396.751 181.619 396.978 182.008 397.374 182.316C397.785 182.624 398.291 182.778 398.892 182.778C399.479 182.778 399.934 182.661 400.256 182.426C400.594 182.191 400.762 181.891 400.762 181.524C400.762 181.128 400.557 180.835 400.146 180.644C399.75 180.439 399.112 180.219 398.232 179.984C397.323 179.764 396.575 179.537 395.988 179.302C395.416 179.067 394.918 178.708 394.492 178.224C394.082 177.74 393.876 177.087 393.876 176.266C393.876 175.591 394.067 174.975 394.448 174.418C394.844 173.861 395.402 173.421 396.12 173.098C396.854 172.775 397.712 172.614 398.694 172.614C400.146 172.614 401.305 172.981 402.17 173.714C403.036 174.433 403.512 175.408 403.6 176.64H400.652C400.608 176.156 400.403 175.775 400.036 175.496C399.684 175.203 399.208 175.056 398.606 175.056C398.049 175.056 397.616 175.159 397.308 175.364C397.015 175.569 396.868 175.855 396.868 176.222C396.868 176.633 397.074 176.948 397.484 177.168C397.895 177.373 398.533 177.586 399.398 177.806C400.278 178.026 401.004 178.253 401.576 178.488C402.148 178.723 402.64 179.089 403.05 179.588C403.476 180.072 403.696 180.717 403.71 181.524C403.71 182.228 403.512 182.859 403.116 183.416C402.735 183.973 402.178 184.413 401.444 184.736C400.726 185.044 399.882 185.198 398.914 185.198ZM205.426 208.342H203.292V218H200.168V208.342H198.782V205.812H200.168V205.196C200.168 203.7 200.594 202.6 201.444 201.896C202.295 201.192 203.578 200.862 205.294 200.906V203.502C204.546 203.487 204.026 203.612 203.732 203.876C203.439 204.14 203.292 204.617 203.292 205.306V205.812H205.426V208.342ZM212.834 218.198C211.661 218.198 210.605 217.941 209.666 217.428C208.728 216.9 207.987 216.159 207.444 215.206C206.916 214.253 206.652 213.153 206.652 211.906C206.652 210.659 206.924 209.559 207.466 208.606C208.024 207.653 208.779 206.919 209.732 206.406C210.686 205.878 211.749 205.614 212.922 205.614C214.096 205.614 215.159 205.878 216.112 206.406C217.066 206.919 217.814 207.653 218.356 208.606C218.914 209.559 219.192 210.659 219.192 211.906C219.192 213.153 218.906 214.253 218.334 215.206C217.777 216.159 217.014 216.9 216.046 217.428C215.093 217.941 214.022 218.198 212.834 218.198ZM212.834 215.514C213.392 215.514 213.912 215.382 214.396 215.118C214.895 214.839 215.291 214.429 215.584 213.886C215.878 213.343 216.024 212.683 216.024 211.906C216.024 210.747 215.716 209.86 215.1 209.244C214.499 208.613 213.758 208.298 212.878 208.298C211.998 208.298 211.258 208.613 210.656 209.244C210.07 209.86 209.776 210.747 209.776 211.906C209.776 213.065 210.062 213.959 210.634 214.59C211.221 215.206 211.954 215.514 212.834 215.514ZM224.532 207.704C224.928 207.059 225.441 206.553 226.072 206.186C226.717 205.819 227.45 205.636 228.272 205.636V208.87H227.458C226.49 208.87 225.756 209.097 225.258 209.552C224.774 210.007 224.532 210.799 224.532 211.928V218H221.452V205.812H224.532V207.704ZM247.248 205.812L239.702 223.764H236.424L239.064 217.692L234.18 205.812H237.634L240.78 214.326L243.97 205.812H247.248ZM254.321 218.198C253.147 218.198 252.091 217.941 251.153 217.428C250.214 216.9 249.473 216.159 248.931 215.206C248.403 214.253 248.139 213.153 248.139 211.906C248.139 210.659 248.41 209.559 248.953 208.606C249.51 207.653 250.265 206.919 251.219 206.406C252.172 205.878 253.235 205.614 254.409 205.614C255.582 205.614 256.645 205.878 257.599 206.406C258.552 206.919 259.3 207.653 259.843 208.606C260.4 209.559 260.679 210.659 260.679 211.906C260.679 213.153 260.393 214.253 259.821 215.206C259.263 216.159 258.501 216.9 257.533 217.428C256.579 217.941 255.509 218.198 254.321 218.198ZM254.321 215.514C254.878 215.514 255.399 215.382 255.883 215.118C256.381 214.839 256.777 214.429 257.071 213.886C257.364 213.343 257.511 212.683 257.511 211.906C257.511 210.747 257.203 209.86 256.587 209.244C255.985 208.613 255.245 208.298 254.365 208.298C253.485 208.298 252.744 208.613 252.143 209.244C251.556 209.86 251.263 210.747 251.263 211.906C251.263 213.065 251.549 213.959 252.121 214.59C252.707 215.206 253.441 215.514 254.321 215.514ZM274.444 205.812V218H271.342V216.46C270.946 216.988 270.425 217.406 269.78 217.714C269.149 218.007 268.46 218.154 267.712 218.154C266.759 218.154 265.915 217.956 265.182 217.56C264.449 217.149 263.869 216.555 263.444 215.778C263.033 214.986 262.828 214.047 262.828 212.962V205.812H265.908V212.522C265.908 213.49 266.15 214.238 266.634 214.766C267.118 215.279 267.778 215.536 268.614 215.536C269.465 215.536 270.132 215.279 270.616 214.766C271.1 214.238 271.342 213.49 271.342 212.522V205.812H274.444ZM278.847 218.154C278.29 218.154 277.828 217.985 277.461 217.648C277.109 217.296 276.933 216.863 276.933 216.35C276.933 215.837 277.109 215.411 277.461 215.074C277.828 214.722 278.29 214.546 278.847 214.546C279.39 214.546 279.837 214.722 280.189 215.074C280.541 215.411 280.717 215.837 280.717 216.35C280.717 216.863 280.541 217.296 280.189 217.648C279.837 217.985 279.39 218.154 278.847 218.154Z" fill="#FFB8BC" />
    <path d="M236.904 274.935L250.466 279.902V292.321H243.685V312.19C243.685 312.849 243.447 313.481 243.023 313.946C242.599 314.412 242.024 314.674 241.425 314.674H218.822C218.222 314.674 217.647 314.412 217.224 313.946C216.8 313.481 216.562 312.849 216.562 312.19V292.321H209.781V279.902L223.342 274.935C223.342 276.911 224.057 278.806 225.328 280.203C226.6 281.601 228.325 282.386 230.123 282.386C231.922 282.386 233.646 281.601 234.918 280.203C236.19 278.806 236.904 276.911 236.904 274.935Z" stroke="#4C2A76" stroke-opacity="0.65" stroke-width="3.91" stroke-linecap="round" stroke-linejoin="round" />
    <path d="M231.021 310.448C229.575 319.918 232.467 318.461 232.467 319.19L251.991 317.005L270.068 295.879L256.753 275.838L235.548 298.056C235.307 299.27 232.178 302.873 231.021 310.448Z" fill="white" />
    <path d="M273.859 284.129L270.129 288.228C269.749 288.646 269.134 288.646 268.753 288.228L259.772 278.359C259.392 277.941 259.392 277.266 259.772 276.848L263.502 272.749C265.015 271.086 267.475 271.086 268.996 272.749L273.859 278.092C275.38 279.755 275.38 282.458 273.859 284.129ZM256.568 280.368L235.321 303.716L233.606 314.519C233.371 315.977 234.528 317.239 235.855 316.99L245.686 315.097L266.933 291.749C267.313 291.331 267.313 290.655 266.933 290.237L257.952 280.368C257.563 279.951 256.949 279.951 256.568 280.368ZM243.614 301.716C243.169 301.227 243.169 300.444 243.614 299.955L256.075 286.263C256.52 285.774 257.232 285.774 257.677 286.263C258.122 286.752 258.122 287.535 257.677 288.024L245.216 301.716C244.771 302.205 244.059 302.205 243.614 301.716ZM240.693 309.193H244.577V312.42L239.358 313.425L236.842 310.66L237.756 304.925H240.693V309.193Z" fill="#4C2A76" />
    <defs>
        <filter id="filter0_d_1926_176" x="0" y="0" width="478" height="327" filterUnits="userSpaceOnUse" color-interpolation-filters="sRGB">
            <feFlood flood-opacity="0" result="BackgroundImageFix" />
            <feColorMatrix in="SourceAlpha" type="matrix" values="0 0 0 0 0 0 0 0 0 0 0 0 0 0 0 0 0 0 127 0" result="hardAlpha" />
            <feOffset dy="8" />
            <feGaussianBlur stdDeviation="12.5" />
            <feComposite in2="hardAlpha" operator="out" />
            <feColorMatrix type="matrix" values="0 0 0 0 0.298039 0 0 0 0 0.164706 0 0 0 0 0.462745 0 0 0 0.55 0" />
            <feBlend mode="normal" in2="BackgroundImageFix" result="effect1_dropShadow_1926_176" />
            <feBlend mode="normal" in="SourceGraphic" in2="effect1_dropShadow_1926_176" result="shape" />
        </filter>
        <filter id="filter1_d_1926_176" x="174" y="232" width="131" height="131" filterUnits="userSpaceOnUse" color-interpolation-filters="sRGB">
            <feFlood flood-opacity="0" result="BackgroundImageFix" />
            <feColorMatrix in="SourceAlpha" type="matrix" values="0 0 0 0 0 0 0 0 0 0 0 0 0 0 0 0 0 0 127 0" result="hardAlpha" />
            <feOffset dy="4" />
            <feGaussianBlur stdDeviation="10" />
            <feComposite in2="hardAlpha" operator="out" />
            <feColorMatrix type="matrix" values="0 0 0 0 0 0 0 0 0 0 0 0 0 0 0 0 0 0 0.2 0" />
            <feBlend mode="normal" in2="BackgroundImageFix" result="effect1_dropShadow_1926_176" />
            <feBlend mode="normal" in="SourceGraphic" in2="effect1_dropShadow_1926_176" result="shape" />
        </filter>
    </defs>
</svg>