<svg width="400" height="220" viewBox="0 0 154 103" fill="none" xmlns="http://www.w3.org/2000/svg">
    <g filter="url(#filter0_d_1617_29)">
        <rect x="4" y="2" width="145.643" height="78.9498" rx="14.7806" fill="white" />
        <rect x="4.18025" y="2.18025" width="145.282" height="78.5893" rx="14.6003" stroke="#DADADA" stroke-width="0.360502" />
    </g>
    <g filter="url(#filter1_d_1617_29)">
        <circle cx="76.6409" cy="80.7698" r="13.5188" fill="white" />
    </g>
    <path d="M75.789 26.5493L73.9684 32.8311H73.0492L71.5891 27.775L70.075 32.8311L69.1647 32.8401L67.4073 26.5493H68.2815L69.6514 31.8757L71.1655 26.5493H72.0848L73.5268 31.8577L74.9057 26.5493H75.789ZM76.3801 30.3436C76.3801 29.8389 76.4822 29.3973 76.6865 29.0188C76.8908 28.6342 77.1702 28.3368 77.5247 28.1265C77.8852 27.9162 78.2847 27.8111 78.7233 27.8111C79.1559 27.8111 79.5314 27.9042 79.8499 28.0905C80.1683 28.2767 80.4057 28.511 80.5619 28.7934V27.8922H81.391V32.8311H80.5619V31.9118C80.3997 32.2002 80.1563 32.4405 79.8319 32.6328C79.5134 32.819 79.1409 32.9122 78.7143 32.9122C78.2757 32.9122 77.8791 32.804 77.5247 32.5877C77.1702 32.3714 76.8908 32.068 76.6865 31.6774C76.4822 31.2869 76.3801 30.8423 76.3801 30.3436ZM80.5619 30.3526C80.5619 29.9801 80.4868 29.6556 80.3366 29.3793C80.1864 29.1029 79.9821 28.8926 79.7237 28.7484C79.4714 28.5982 79.192 28.5231 78.8855 28.5231C78.5791 28.5231 78.2997 28.5952 78.0474 28.7394C77.795 28.8836 77.5938 29.0939 77.4435 29.3702C77.2933 29.6466 77.2182 29.9711 77.2182 30.3436C77.2182 30.7221 77.2933 31.0526 77.4435 31.335C77.5938 31.6114 77.795 31.8247 78.0474 31.9749C78.2997 32.1191 78.5791 32.1912 78.8855 32.1912C79.192 32.1912 79.4714 32.1191 79.7237 31.9749C79.9821 31.8247 80.1864 31.6114 80.3366 31.335C80.4868 31.0526 80.5619 30.7251 80.5619 30.3526ZM85.1833 27.8021C85.7842 27.8021 86.2709 27.9853 86.6434 28.3518C87.0159 28.7123 87.2022 29.2351 87.2022 29.92V32.8311H86.391V30.0372C86.391 29.5445 86.2679 29.169 86.0215 28.9106C85.7752 28.6462 85.4387 28.514 85.0121 28.514C84.5795 28.514 84.234 28.6492 83.9757 28.9196C83.7233 29.19 83.5971 29.5835 83.5971 30.1003V32.8311H82.777V27.8922H83.5971V28.5952C83.7594 28.3428 83.9787 28.1475 84.2551 28.0093C84.5374 27.8712 84.8469 27.8021 85.1833 27.8021ZM89.5422 28.5681V31.4792C89.5422 31.7195 89.5933 31.8907 89.6955 31.9929C89.7976 32.089 89.9748 32.1371 90.2272 32.1371H90.831V32.8311H90.092C89.6354 32.8311 89.2929 32.7259 89.0646 32.5156C88.8363 32.3053 88.7221 31.9598 88.7221 31.4792V28.5681H88.0822V27.8922H88.7221V26.6485H89.5422V27.8922H90.831V28.5681H89.5422ZM95.2279 28.5681V31.4792C95.2279 31.7195 95.279 31.8907 95.3811 31.9929C95.4832 32.089 95.6605 32.1371 95.9128 32.1371H96.5167V32.8311H95.7777C95.321 32.8311 94.9785 32.7259 94.7502 32.5156C94.5219 32.3053 94.4077 31.9598 94.4077 31.4792V28.5681H93.7679V27.8922H94.4077V26.6485H95.2279V27.8922H96.5167V28.5681H95.2279ZM99.6644 32.9122C99.2017 32.9122 98.7812 32.807 98.4026 32.5967C98.0301 32.3864 97.7357 32.089 97.5194 31.7045C97.3091 31.3139 97.204 30.8633 97.204 30.3526C97.204 29.8479 97.3121 29.4033 97.5284 29.0188C97.7507 28.6282 98.0511 28.3308 98.4297 28.1265C98.8082 27.9162 99.2318 27.8111 99.7004 27.8111C100.169 27.8111 100.593 27.9162 100.971 28.1265C101.35 28.3308 101.647 28.6252 101.863 29.0097C102.086 29.3943 102.197 29.8419 102.197 30.3526C102.197 30.8633 102.083 31.3139 101.854 31.7045C101.632 32.089 101.329 32.3864 100.944 32.5967C100.56 32.807 100.133 32.9122 99.6644 32.9122ZM99.6644 32.1912C99.9588 32.1912 100.235 32.1221 100.494 31.9839C100.752 31.8457 100.959 31.6384 101.115 31.362C101.278 31.0856 101.359 30.7492 101.359 30.3526C101.359 29.9561 101.281 29.6196 101.124 29.3432C100.968 29.0668 100.764 28.8625 100.512 28.7303C100.259 28.5922 99.9858 28.5231 99.6914 28.5231C99.391 28.5231 99.1146 28.5922 98.8623 28.7303C98.6159 28.8625 98.4176 29.0668 98.2674 29.3432C98.1172 29.6196 98.0421 29.9561 98.0421 30.3526C98.0421 30.7552 98.1142 31.0946 98.2584 31.371C98.4086 31.6474 98.6069 31.8547 98.8533 31.9929C99.0996 32.1251 99.37 32.1912 99.6644 32.1912ZM111.617 27.8021C112.002 27.8021 112.344 27.8832 112.645 28.0454C112.945 28.2016 113.182 28.4389 113.357 28.7574C113.531 29.0758 113.618 29.4634 113.618 29.92V32.8311H112.807V30.0372C112.807 29.5445 112.684 29.169 112.437 28.9106C112.197 28.6462 111.87 28.514 111.455 28.514C111.028 28.514 110.689 28.6522 110.437 28.9286C110.184 29.199 110.058 29.5925 110.058 30.1093V32.8311H109.247V30.0372C109.247 29.5445 109.124 29.169 108.877 28.9106C108.637 28.6462 108.31 28.514 107.895 28.514C107.468 28.514 107.129 28.6522 106.877 28.9286C106.624 29.199 106.498 29.5925 106.498 30.1093V32.8311H105.678V27.8922H106.498V28.6042C106.66 28.3458 106.877 28.1475 107.147 28.0093C107.423 27.8712 107.727 27.8021 108.057 27.8021C108.472 27.8021 108.838 27.8952 109.157 28.0814C109.475 28.2677 109.713 28.5411 109.869 28.9016C110.007 28.5531 110.235 28.2827 110.554 28.0905C110.872 27.8982 111.227 27.8021 111.617 27.8021ZM115.387 27.0901C115.231 27.0901 115.099 27.036 114.99 26.9278C114.882 26.8197 114.828 26.6875 114.828 26.5313C114.828 26.3751 114.882 26.2429 114.99 26.1347C115.099 26.0266 115.231 25.9725 115.387 25.9725C115.537 25.9725 115.663 26.0266 115.765 26.1347C115.874 26.2429 115.928 26.3751 115.928 26.5313C115.928 26.6875 115.874 26.8197 115.765 26.9278C115.663 27.036 115.537 27.0901 115.387 27.0901ZM115.784 27.8922V32.8311H114.963V27.8922H115.784ZM119.759 32.8311L118.587 30.9925L117.461 32.8311H116.605L118.2 30.3796L116.605 27.8922H117.533L118.704 29.7217L119.822 27.8922H120.678L119.092 30.3346L120.687 32.8311H119.759ZM66.9011 44.3436C66.9011 43.8389 67.0032 43.3973 67.2075 43.0188C67.4118 42.6342 67.6912 42.3368 68.0456 42.1265C68.4061 41.9162 68.8057 41.8111 69.2443 41.8111C69.6769 41.8111 70.0524 41.9042 70.3709 42.0905C70.6893 42.2767 70.9267 42.511 71.0829 42.7934V41.8922H71.912V46.8311H71.0829V45.9118C70.9206 46.2002 70.6773 46.4405 70.3529 46.6328C70.0344 46.819 69.6619 46.9122 69.2353 46.9122C68.7967 46.9122 68.4001 46.804 68.0456 46.5877C67.6912 46.3714 67.4118 46.068 67.2075 45.6774C67.0032 45.2869 66.9011 44.8423 66.9011 44.3436ZM71.0829 44.3526C71.0829 43.9801 71.0078 43.6556 70.8576 43.3793C70.7073 43.1029 70.5031 42.8926 70.2447 42.7484C69.9924 42.5982 69.713 42.5231 69.4065 42.5231C69.1001 42.5231 68.8207 42.5952 68.5684 42.7394C68.316 42.8836 68.1147 43.0939 67.9645 43.3702C67.8143 43.6466 67.7392 43.9711 67.7392 44.3436C67.7392 44.7221 67.8143 45.0526 67.9645 45.335C68.1147 45.6114 68.316 45.8247 68.5684 45.9749C68.8207 46.1191 69.1001 46.1912 69.4065 46.1912C69.713 46.1912 69.9924 46.1191 70.2447 45.9749C70.5031 45.8247 70.7073 45.6114 70.8576 45.335C71.0078 45.0526 71.0829 44.7251 71.0829 44.3526ZM75.7043 41.8021C76.3052 41.8021 76.7918 41.9853 77.1644 42.3518C77.5369 42.7123 77.7231 43.2351 77.7231 43.92V46.8311H76.912V44.0372C76.912 43.5445 76.7888 43.169 76.5425 42.9106C76.2962 42.6462 75.9597 42.514 75.5331 42.514C75.1005 42.514 74.755 42.6492 74.4967 42.9196C74.2443 43.19 74.1181 43.5835 74.1181 44.1003V46.8311H73.298V41.8922H74.1181V42.5952C74.2804 42.3428 74.4997 42.1475 74.776 42.0093C75.0584 41.8712 75.3679 41.8021 75.7043 41.8021ZM78.7564 44.3436C78.7564 43.8389 78.8586 43.3973 79.0628 43.0188C79.2671 42.6342 79.5465 42.3368 79.901 42.1265C80.2615 41.9162 80.6641 41.8111 81.1087 41.8111C81.4932 41.8111 81.8507 41.9012 82.1812 42.0814C82.5116 42.2557 82.764 42.487 82.9382 42.7754V40.1618H83.7674V46.8311H82.9382V45.9028C82.776 46.1972 82.5357 46.4405 82.2172 46.6328C81.8988 46.819 81.5263 46.9122 81.0997 46.9122C80.6611 46.9122 80.2615 46.804 79.901 46.5877C79.5465 46.3714 79.2671 46.068 79.0628 45.6774C78.8586 45.2869 78.7564 44.8423 78.7564 44.3436ZM82.9382 44.3526C82.9382 43.9801 82.8631 43.6556 82.7129 43.3793C82.5627 43.1029 82.3584 42.8926 82.1001 42.7484C81.8477 42.5982 81.5683 42.5231 81.2619 42.5231C80.9555 42.5231 80.6761 42.5952 80.4237 42.7394C80.1714 42.8836 79.9701 43.0939 79.8199 43.3702C79.6697 43.6466 79.5946 43.9711 79.5946 44.3436C79.5946 44.7221 79.6697 45.0526 79.8199 45.335C79.9701 45.6114 80.1714 45.8247 80.4237 45.9749C80.6761 46.1191 80.9555 46.1912 81.2619 46.1912C81.5683 46.1912 81.8477 46.1191 82.1001 45.9749C82.3584 45.8247 82.5627 45.6114 82.7129 45.335C82.8631 45.0526 82.9382 44.7251 82.9382 44.3526ZM93.4954 41.8021C93.8799 41.8021 94.2224 41.8832 94.5228 42.0454C94.8232 42.2016 95.0605 42.4389 95.2348 42.7574C95.409 43.0758 95.4962 43.4634 95.4962 43.92V46.8311H94.685V44.0372C94.685 43.5445 94.5619 43.169 94.3155 42.9106C94.0752 42.6462 93.7477 42.514 93.3331 42.514C92.9065 42.514 92.5671 42.6522 92.3147 42.9286C92.0624 43.199 91.9362 43.5925 91.9362 44.1093V46.8311H91.1251V44.0372C91.1251 43.5445 91.0019 43.169 90.7556 42.9106C90.5152 42.6462 90.1878 42.514 89.7732 42.514C89.3466 42.514 89.0071 42.6522 88.7548 42.9286C88.5024 43.199 88.3762 43.5925 88.3762 44.1093V46.8311H87.5561V41.8922H88.3762V42.6042C88.5385 42.3458 88.7548 42.1475 89.0251 42.0093C89.3015 41.8712 89.605 41.8021 89.9354 41.8021C90.35 41.8021 90.7165 41.8952 91.0349 42.0814C91.3534 42.2677 91.5907 42.5411 91.7469 42.9016C91.8851 42.5531 92.1134 42.2827 92.4319 42.0905C92.7503 41.8982 93.1048 41.8021 93.4954 41.8021ZM96.5351 44.3436C96.5351 43.8389 96.6372 43.3973 96.8415 43.0188C97.0458 42.6342 97.3252 42.3368 97.6797 42.1265C98.0402 41.9162 98.4397 41.8111 98.8783 41.8111C99.3109 41.8111 99.6864 41.9042 100.005 42.0905C100.323 42.2767 100.561 42.511 100.717 42.7934V41.8922H101.546V46.8311H100.717V45.9118C100.555 46.2002 100.311 46.4405 99.9869 46.6328C99.6684 46.819 99.2959 46.9122 98.8693 46.9122C98.4307 46.9122 98.0341 46.804 97.6797 46.5877C97.3252 46.3714 97.0458 46.068 96.8415 45.6774C96.6372 45.2869 96.5351 44.8423 96.5351 44.3436ZM100.717 44.3526C100.717 43.9801 100.642 43.6556 100.492 43.3793C100.341 43.1029 100.137 42.8926 99.8787 42.7484C99.6264 42.5982 99.347 42.5231 99.0405 42.5231C98.7341 42.5231 98.4547 42.5952 98.2024 42.7394C97.95 42.8836 97.7487 43.0939 97.5985 43.3702C97.4483 43.6466 97.3732 43.9711 97.3732 44.3436C97.3732 44.7221 97.4483 45.0526 97.5985 45.335C97.7487 45.6114 97.95 45.8247 98.2024 45.9749C98.4547 46.1191 98.7341 46.1912 99.0405 46.1912C99.347 46.1912 99.6264 46.1191 99.8787 45.9749C100.137 45.8247 100.341 45.6114 100.492 45.335C100.642 45.0526 100.717 44.7251 100.717 44.3526ZM103.932 42.5681V45.4792C103.932 45.7195 103.983 45.8907 104.086 45.9929C104.188 46.089 104.365 46.1371 104.617 46.1371H105.221V46.8311H104.482C104.026 46.8311 103.683 46.7259 103.455 46.5156C103.226 46.3053 103.112 45.9598 103.112 45.4792V42.5681H102.472V41.8922H103.112V40.6485H103.932V41.8922H105.221V42.5681H103.932ZM105.908 44.3526C105.908 43.8419 106.011 43.3973 106.215 43.0188C106.419 42.6342 106.702 42.3368 107.062 42.1265C107.429 41.9162 107.846 41.8111 108.315 41.8111C108.922 41.8111 109.42 41.9583 109.811 42.2527C110.207 42.5471 110.469 42.9557 110.595 43.4784H109.712C109.628 43.178 109.462 42.9406 109.216 42.7664C108.976 42.5922 108.675 42.505 108.315 42.505C107.846 42.505 107.468 42.6673 107.179 42.9917C106.891 43.3102 106.747 43.7638 106.747 44.3526C106.747 44.9474 106.891 45.4071 107.179 45.7315C107.468 46.056 107.846 46.2182 108.315 46.2182C108.675 46.2182 108.976 46.1341 109.216 45.9659C109.456 45.7976 109.622 45.5573 109.712 45.2448H110.595C110.463 45.7495 110.198 46.1551 109.802 46.4615C109.405 46.762 108.91 46.9122 108.315 46.9122C107.846 46.9122 107.429 46.807 107.062 46.5967C106.702 46.3864 106.419 46.089 106.215 45.7045C106.011 45.32 105.908 44.8693 105.908 44.3526ZM114.141 41.8021C114.513 41.8021 114.85 41.8832 115.15 42.0454C115.451 42.2016 115.685 42.4389 115.853 42.7574C116.027 43.0758 116.114 43.4634 116.114 43.92V46.8311H115.303V44.0372C115.303 43.5445 115.18 43.169 114.934 42.9106C114.687 42.6462 114.351 42.514 113.924 42.514C113.492 42.514 113.146 42.6492 112.888 42.9196C112.636 43.19 112.509 43.5835 112.509 44.1003V46.8311H111.689V40.1618H112.509V42.5952C112.672 42.3428 112.894 42.1475 113.176 42.0093C113.465 41.8712 113.786 41.8021 114.141 41.8021ZM119.058 40.4682C119.653 40.4682 120.134 40.6364 120.5 40.9729C120.867 41.3094 121.05 41.76 121.05 42.3248C121.05 42.9557 120.855 43.4243 120.464 43.7307C120.074 44.0312 119.545 44.1814 118.878 44.1814L118.851 45.0376H118.139L118.103 43.6136H118.364C118.959 43.6136 119.425 43.5235 119.761 43.3432C120.098 43.163 120.266 42.8235 120.266 42.3248C120.266 41.9643 120.158 41.6789 119.942 41.4686C119.725 41.2583 119.434 41.1532 119.067 41.1532C118.695 41.1532 118.4 41.2553 118.184 41.4596C117.974 41.6579 117.869 41.9312 117.869 42.2797H117.094C117.094 41.9192 117.175 41.6038 117.337 41.3334C117.499 41.057 117.728 40.8437 118.022 40.6935C118.322 40.5433 118.668 40.4682 119.058 40.4682ZM118.491 46.8851C118.334 46.8851 118.202 46.8311 118.094 46.7229C117.986 46.6148 117.932 46.4826 117.932 46.3264C117.932 46.1701 117.986 46.038 118.094 45.9298C118.202 45.8217 118.334 45.7676 118.491 45.7676C118.641 45.7676 118.767 45.8217 118.869 45.9298C118.977 46.038 119.031 46.1701 119.031 46.3264C119.031 46.4826 118.977 46.6148 118.869 46.7229C118.767 46.8311 118.641 46.8851 118.491 46.8851Z" fill="#270641" />
    <path d="M75.6472 84.3326V83.9361C75.6472 83.3112 75.7373 82.7885 75.9175 82.3679C76.1038 81.9473 76.3381 81.5898 76.6205 81.2954C76.9029 81.001 77.1913 80.7276 77.4857 80.4753C77.8582 80.1568 78.1857 79.8294 78.4681 79.4929C78.7505 79.1564 78.8917 78.7148 78.8917 78.1681C78.8917 77.6153 78.6994 77.1496 78.3149 76.7711C77.9303 76.3926 77.3776 76.2033 76.6566 76.2033C75.8454 76.2033 75.2146 76.4286 74.7639 76.8793C74.3193 77.3239 74.097 77.9157 74.097 78.6547H72.5649C72.5649 77.8797 72.7331 77.1977 73.0696 76.6089C73.412 76.0201 73.8897 75.5634 74.5026 75.239C75.1154 74.9085 75.8334 74.7433 76.6566 74.7433C77.4797 74.7433 78.1737 74.8965 78.7385 75.2029C79.3093 75.5094 79.7419 75.9239 80.0363 76.4467C80.3307 76.9634 80.4779 77.5432 80.4779 78.1861C80.4779 78.7088 80.3938 79.1534 80.2255 79.5199C80.0573 79.8804 79.844 80.1959 79.5856 80.4663C79.3273 80.7366 79.0599 80.992 78.7835 81.2323C78.5192 81.4606 78.2668 81.698 78.0265 81.9443C77.7921 82.1907 77.5999 82.4761 77.4497 82.8005C77.3055 83.1189 77.2334 83.5035 77.2334 83.9541V84.3326H75.6472ZM76.4042 87.8115C76.0557 87.8115 75.7613 87.6883 75.521 87.442C75.2806 87.1956 75.1605 86.9102 75.1605 86.5858C75.1605 86.2613 75.2806 85.9729 75.521 85.7206C75.7613 85.4682 76.0557 85.342 76.4042 85.342C76.7587 85.342 77.0561 85.4682 77.2965 85.7206C77.5428 85.9729 77.666 86.2613 77.666 86.5858C77.666 86.9102 77.5428 87.1956 77.2965 87.442C77.0561 87.6883 76.7587 87.8115 76.4042 87.8115Z" fill="#4C2A76" />
    <path d="M35.1963 23.8311H35.726V27.6773H35.1963V23.8311ZM42.5709 23.8311H43.1005V27.6773H42.5709V23.8311Z" fill="#4C2A76" fill-opacity="0.65" />
    <path d="M42.0007 33.5597C42.0007 32.1644 44.0379 29.7511 43.386 27.2246C43.386 27.2246 40.6969 27.2246 39.1486 28.469C37.6004 27.2246 34.9113 27.2246 34.9113 27.2246C34.2594 29.7511 36.2966 32.1644 36.2966 33.5597C36.2966 36.2747 29.2887 40.3095 31.4073 47.9266C31.4073 47.9266 33.1186 46.9462 33.9742 46.9462C34.7483 46.9462 35.8077 47.9643 36.541 47.9643C37.4781 47.9643 38.3338 46.9462 39.1079 46.9462C39.9228 46.9462 40.7784 47.9643 41.6747 47.9643C42.4489 47.9643 43.5082 46.9462 44.2416 46.9462C45.1379 46.9462 46.8084 47.9266 46.8084 47.9266C49.0086 40.3095 42.0007 36.237 42.0007 33.5597Z" fill="#4C2A76" fill-opacity="0.65" />
    <path d="M36.0112 32.7686H42.245V34.2769H36.0112V32.7686Z" fill="#4C2A76" fill-opacity="0.65" />
    <path d="M43.1009 39.6304L40.9822 40.3469C40.9822 40.3469 41.023 35.03 39.5969 33.22C39.5154 33.1068 40.3711 32.8806 40.4933 32.9937C42.5712 34.5398 43.1009 39.6304 43.1009 39.6304ZM35.6855 37.5188L37.3153 37.8581C37.3153 37.8581 37.6005 34.3889 38.8635 33.1068C38.945 33.0314 38.2931 32.9183 38.1709 32.9937C36.4189 34.1627 35.6855 37.5188 35.6855 37.5188Z" fill="#4C2A76" fill-opacity="0.65" />
    <path d="M40.2895 33.4466C40.534 33.786 41.3489 34.8796 41.4304 35.8223L40.2895 33.4466ZM37.0708 35.1435C37.2745 34.7664 37.8449 33.5598 38.6598 32.9941L37.0708 35.1435Z" fill="#4C2A76" fill-opacity="0.65" />
    <path d="M40.2489 34.6917C39.8822 34.9556 38.6599 34.9556 38.2525 34.6917C37.7635 34.3523 37.8043 32.8817 38.2525 32.5046C38.6192 32.2029 39.8822 32.2029 40.2489 32.5046C40.6971 32.8817 40.7378 34.3523 40.2489 34.6917Z" fill="#4C2A76" fill-opacity="0.65" />
    <path d="M40.0453 34.6534C39.7194 34.9173 38.7416 34.9173 38.4156 34.6534C38.0082 34.314 38.0489 32.9188 38.4156 32.5417C38.7008 32.24 39.7601 32.24 40.0453 32.5417C40.4528 32.8811 40.4935 34.314 40.0453 34.6534ZM45.0161 44.9478C44.1605 44.9478 42.9381 46.0791 42.0825 46.0791C41.0232 46.0791 40.0453 44.9478 39.149 44.9478C38.2526 44.9478 37.2748 46.0791 36.2155 46.0791C35.3598 46.0791 34.1375 44.9478 33.2819 44.9478C32.6708 44.9478 31.6929 45.3626 31.041 45.6643C31.0818 46.0791 31.1225 46.5316 31.204 46.9841C31.6522 46.7578 32.9967 46.1168 33.7708 46.1168C34.5857 46.1168 35.6858 47.1349 36.4599 47.1349C37.4378 47.1349 38.3341 46.1168 39.149 46.1168C39.9639 46.1168 40.901 47.1349 41.8381 47.1349C42.6529 47.1349 43.753 46.1168 44.5271 46.1168C45.3013 46.1168 46.6458 46.7578 47.094 46.9841C47.1755 46.5316 47.2162 46.0791 47.257 45.6643C46.6051 45.3626 45.6272 44.9478 45.0161 44.9478Z" fill="#4C2A76" fill-opacity="0.65" />
    <path d="M36.3782 45.3632C37.356 45.3632 38.2931 44.3451 39.1487 44.3451C40.0043 44.3451 40.9007 45.3632 41.9193 45.3632C42.7342 45.3632 43.875 44.3451 44.6898 44.3451C45.464 44.3451 46.89 44.9484 47.2974 45.137V44.5713C46.6863 44.3074 45.5455 43.8926 44.8528 43.8926C43.9972 43.8926 42.8564 44.9107 42.0008 44.9107C40.9822 44.9107 40.0451 43.8926 39.1487 43.8926C38.2931 43.8926 37.3153 44.9107 36.2967 44.9107C35.4411 44.9107 34.3002 43.8926 33.4446 43.8926C32.752 43.8926 31.5704 44.3451 31 44.5713V45.137C31.4482 44.9484 32.8335 44.3451 33.6076 44.3451C34.4225 44.3451 35.5633 45.3632 36.3782 45.3632Z" fill="#4C2A76" fill-opacity="0.65" />
    <defs>
        <filter id="filter0_d_1617_29" x="0.394984" y="0.918495" width="152.853" height="86.1602" filterUnits="userSpaceOnUse" color-interpolation-filters="sRGB">
            <feFlood flood-opacity="0" result="BackgroundImageFix" />
            <feColorMatrix in="SourceAlpha" type="matrix" values="0 0 0 0 0 0 0 0 0 0 0 0 0 0 0 0 0 0 127 0" result="hardAlpha" />
            <feMorphology radius="1.80251" operator="erode" in="SourceAlpha" result="effect1_dropShadow_1617_29" />
            <feOffset dy="2.52351" />
            <feGaussianBlur stdDeviation="2.70376" />
            <feComposite in2="hardAlpha" operator="out" />
            <feColorMatrix type="matrix" values="0 0 0 0 0 0 0 0 0 0 0 0 0 0 0 0 0 0 0.2 0" />
            <feBlend mode="normal" in2="BackgroundImageFix" result="effect1_dropShadow_1617_29" />
            <feBlend mode="normal" in="SourceGraphic" in2="effect1_dropShadow_1617_29" result="shape" />
        </filter>
        <filter id="filter1_d_1617_29" x="55.912" y="61.483" width="41.4577" height="41.4581" filterUnits="userSpaceOnUse" color-interpolation-filters="sRGB">
            <feFlood flood-opacity="0" result="BackgroundImageFix" />
            <feColorMatrix in="SourceAlpha" type="matrix" values="0 0 0 0 0 0 0 0 0 0 0 0 0 0 0 0 0 0 127 0" result="hardAlpha" />
            <feOffset dy="1.44201" />
            <feGaussianBlur stdDeviation="3.60502" />
            <feComposite in2="hardAlpha" operator="out" />
            <feColorMatrix type="matrix" values="0 0 0 0 0 0 0 0 0 0 0 0 0 0 0 0 0 0 0.2 0" />
            <feBlend mode="normal" in2="BackgroundImageFix" result="effect1_dropShadow_1617_29" />
            <feBlend mode="normal" in="SourceGraphic" in2="effect1_dropShadow_1617_29" result="shape" />
        </filter>
    </defs>
</svg>
    