<svg width="400" height="220" viewBox="0 0 424 283" fill="none" xmlns="http://www.w3.org/2000/svg">
    <g filter="url(#filter0_d_1926_171)">
        <rect x="10" y="3" width="404" height="219" rx="41" fill="white" />
        <rect x="10.5" y="3.5" width="403" height="218" rx="40.5" stroke="#DADADA" />
    </g>
    <g filter="url(#filter1_d_1926_171)">
        <circle cx="211.5" cy="221.5" r="37.5" fill="white" />
    </g>
    <path d="M248.753 50.575L243.703 68H241.153L237.103 53.975L232.903 68L230.378 68.025L225.503 50.575H227.928L231.728 65.35L235.928 50.575H238.478L242.478 65.3L246.303 50.575H248.753ZM250.392 61.1C250.392 59.7 250.676 58.475 251.242 57.425C251.809 56.3583 252.584 55.5333 253.567 54.95C254.567 54.3667 255.676 54.075 256.892 54.075C258.092 54.075 259.134 54.3333 260.017 54.85C260.901 55.3667 261.559 56.0167 261.992 56.8V54.3H264.292V68H261.992V65.45C261.542 66.25 260.867 66.9167 259.967 67.45C259.084 67.9667 258.051 68.225 256.867 68.225C255.651 68.225 254.551 67.925 253.567 67.325C252.584 66.725 251.809 65.8833 251.242 64.8C250.676 63.7167 250.392 62.4833 250.392 61.1ZM261.992 61.125C261.992 60.0917 261.784 59.1917 261.367 58.425C260.951 57.6583 260.384 57.075 259.667 56.675C258.967 56.2583 258.192 56.05 257.342 56.05C256.492 56.05 255.717 56.25 255.017 56.65C254.317 57.05 253.759 57.6333 253.342 58.4C252.926 59.1667 252.717 60.0667 252.717 61.1C252.717 62.15 252.926 63.0667 253.342 63.85C253.759 64.6167 254.317 65.2083 255.017 65.625C255.717 66.025 256.492 66.225 257.342 66.225C258.192 66.225 258.967 66.025 259.667 65.625C260.384 65.2083 260.951 64.6167 261.367 63.85C261.784 63.0667 261.992 62.1583 261.992 61.125ZM274.812 54.05C276.479 54.05 277.829 54.5583 278.862 55.575C279.895 56.575 280.412 58.025 280.412 59.925V68H278.162V60.25C278.162 58.8833 277.82 57.8417 277.137 57.125C276.454 56.3917 275.52 56.025 274.337 56.025C273.137 56.025 272.179 56.4 271.462 57.15C270.762 57.9 270.412 58.9917 270.412 60.425V68H268.137V54.3H270.412V56.25C270.862 55.55 271.47 55.0083 272.237 54.625C273.02 54.2417 273.879 54.05 274.812 54.05ZM286.903 56.175V64.25C286.903 64.9167 287.045 65.3917 287.328 65.675C287.611 65.9417 288.103 66.075 288.803 66.075H290.478V68H288.428C287.161 68 286.211 67.7083 285.578 67.125C284.945 66.5417 284.628 65.5833 284.628 64.25V56.175H282.853V54.3H284.628V50.85H286.903V54.3H290.478V56.175H286.903ZM302.675 56.175V64.25C302.675 64.9167 302.816 65.3917 303.1 65.675C303.383 65.9417 303.875 66.075 304.575 66.075H306.25V68H304.2C302.933 68 301.983 67.7083 301.35 67.125C300.716 66.5417 300.4 65.5833 300.4 64.25V56.175H298.625V54.3H300.4V50.85H302.675V54.3H306.25V56.175H302.675ZM314.981 68.225C313.698 68.225 312.531 67.9333 311.481 67.35C310.448 66.7667 309.631 65.9417 309.031 64.875C308.448 63.7917 308.156 62.5417 308.156 61.125C308.156 59.725 308.456 58.4917 309.056 57.425C309.673 56.3417 310.506 55.5167 311.556 54.95C312.606 54.3667 313.781 54.075 315.081 54.075C316.381 54.075 317.556 54.3667 318.606 54.95C319.656 55.5167 320.481 56.3333 321.081 57.4C321.698 58.4667 322.006 59.7083 322.006 61.125C322.006 62.5417 321.689 63.7917 321.056 64.875C320.439 65.9417 319.598 66.7667 318.531 67.35C317.464 67.9333 316.281 68.225 314.981 68.225ZM314.981 66.225C315.798 66.225 316.564 66.0333 317.281 65.65C317.998 65.2667 318.573 64.6917 319.006 63.925C319.456 63.1583 319.681 62.225 319.681 61.125C319.681 60.025 319.464 59.0917 319.031 58.325C318.598 57.5583 318.031 56.9917 317.331 56.625C316.631 56.2417 315.873 56.05 315.056 56.05C314.223 56.05 313.456 56.2417 312.756 56.625C312.073 56.9917 311.523 57.5583 311.106 58.325C310.689 59.0917 310.481 60.025 310.481 61.125C310.481 62.2417 310.681 63.1833 311.081 63.95C311.498 64.7167 312.048 65.2917 312.731 65.675C313.414 66.0417 314.164 66.225 314.981 66.225ZM186.55 94.85C187.016 94.0333 187.7 93.3667 188.6 92.85C189.5 92.3333 190.525 92.075 191.675 92.075C192.908 92.075 194.016 92.3667 195 92.95C195.983 93.5333 196.758 94.3583 197.325 95.425C197.891 96.475 198.175 97.7 198.175 99.1C198.175 100.483 197.891 101.717 197.325 102.8C196.758 103.883 195.975 104.725 194.975 105.325C193.991 105.925 192.891 106.225 191.675 106.225C190.491 106.225 189.45 105.967 188.55 105.45C187.666 104.933 187 104.275 186.55 103.475V106H184.275V87.5H186.55V94.85ZM195.85 99.1C195.85 98.0667 195.641 97.1667 195.225 96.4C194.808 95.6333 194.241 95.05 193.525 94.65C192.825 94.25 192.05 94.05 191.2 94.05C190.366 94.05 189.591 94.2583 188.875 94.675C188.175 95.075 187.608 95.6667 187.175 96.45C186.758 97.2167 186.55 98.1083 186.55 99.125C186.55 100.158 186.758 101.067 187.175 101.85C187.608 102.617 188.175 103.208 188.875 103.625C189.591 104.025 190.366 104.225 191.2 104.225C192.05 104.225 192.825 104.025 193.525 103.625C194.241 103.208 194.808 102.617 195.225 101.85C195.641 101.067 195.85 100.15 195.85 99.1ZM213.319 92.3V106H211.044V103.975C210.611 104.675 210.002 105.225 209.219 105.625C208.452 106.008 207.602 106.2 206.669 106.2C205.602 106.2 204.644 105.983 203.794 105.55C202.944 105.1 202.269 104.433 201.769 103.55C201.286 102.667 201.044 101.592 201.044 100.325V92.3H203.294V100.025C203.294 101.375 203.636 102.417 204.319 103.15C205.002 103.867 205.936 104.225 207.119 104.225C208.336 104.225 209.294 103.85 209.994 103.1C210.694 102.35 211.044 101.258 211.044 99.825V92.3H213.319ZM218.335 90.075C217.902 90.075 217.535 89.925 217.235 89.625C216.935 89.325 216.785 88.9583 216.785 88.525C216.785 88.0917 216.935 87.725 217.235 87.425C217.535 87.125 217.902 86.975 218.335 86.975C218.752 86.975 219.102 87.125 219.385 87.425C219.685 87.725 219.835 88.0917 219.835 88.525C219.835 88.9583 219.685 89.325 219.385 89.625C219.102 89.925 218.752 90.075 218.335 90.075ZM219.435 92.3V106H217.16V92.3H219.435ZM225.588 87.5V106H223.313V87.5H225.588ZM228.615 99.1C228.615 97.7 228.898 96.475 229.465 95.425C230.032 94.3583 230.807 93.5333 231.79 92.95C232.79 92.3667 233.907 92.075 235.14 92.075C236.207 92.075 237.198 92.325 238.115 92.825C239.032 93.3083 239.732 93.95 240.215 94.75V87.5H242.515V106H240.215V103.425C239.765 104.242 239.098 104.917 238.215 105.45C237.332 105.967 236.298 106.225 235.115 106.225C233.898 106.225 232.79 105.925 231.79 105.325C230.807 104.725 230.032 103.883 229.465 102.8C228.898 101.717 228.615 100.483 228.615 99.1ZM240.215 99.125C240.215 98.0917 240.007 97.1917 239.59 96.425C239.173 95.6583 238.607 95.075 237.89 94.675C237.19 94.2583 236.415 94.05 235.565 94.05C234.715 94.05 233.94 94.25 233.24 94.65C232.54 95.05 231.982 95.6333 231.565 96.4C231.148 97.1667 230.94 98.0667 230.94 99.1C230.94 100.15 231.148 101.067 231.565 101.85C231.982 102.617 232.54 103.208 233.24 103.625C233.94 104.025 234.715 104.225 235.565 104.225C236.415 104.225 237.19 104.025 237.89 103.625C238.607 103.208 239.173 102.617 239.59 101.85C240.007 101.067 240.215 100.158 240.215 99.125ZM264.825 92.3L256.575 112.45H254.225L256.925 105.85L251.4 92.3H253.925L258.225 103.4L262.475 92.3H264.825ZM273.087 106.225C271.803 106.225 270.637 105.933 269.587 105.35C268.553 104.767 267.737 103.942 267.137 102.875C266.553 101.792 266.262 100.542 266.262 99.125C266.262 97.725 266.562 96.4917 267.162 95.425C267.778 94.3417 268.612 93.5167 269.662 92.95C270.712 92.3667 271.887 92.075 273.187 92.075C274.487 92.075 275.662 92.3667 276.712 92.95C277.762 93.5167 278.587 94.3333 279.187 95.4C279.803 96.4667 280.112 97.7083 280.112 99.125C280.112 100.542 279.795 101.792 279.162 102.875C278.545 103.942 277.703 104.767 276.637 105.35C275.57 105.933 274.387 106.225 273.087 106.225ZM273.087 104.225C273.903 104.225 274.67 104.033 275.387 103.65C276.103 103.267 276.678 102.692 277.112 101.925C277.562 101.158 277.787 100.225 277.787 99.125C277.787 98.025 277.57 97.0917 277.137 96.325C276.703 95.5583 276.137 94.9917 275.437 94.625C274.737 94.2417 273.978 94.05 273.162 94.05C272.328 94.05 271.562 94.2417 270.862 94.625C270.178 94.9917 269.628 95.5583 269.212 96.325C268.795 97.0917 268.587 98.025 268.587 99.125C268.587 100.242 268.787 101.183 269.187 101.95C269.603 102.717 270.153 103.292 270.837 103.675C271.52 104.042 272.27 104.225 273.087 104.225ZM295.253 92.3V106H292.978V103.975C292.544 104.675 291.936 105.225 291.153 105.625C290.386 106.008 289.536 106.2 288.603 106.2C287.536 106.2 286.578 105.983 285.728 105.55C284.878 105.1 284.203 104.433 283.703 103.55C283.219 102.667 282.978 101.592 282.978 100.325V92.3H285.228V100.025C285.228 101.375 285.569 102.417 286.253 103.15C286.936 103.867 287.869 104.225 289.053 104.225C290.269 104.225 291.228 103.85 291.928 103.1C292.628 102.35 292.978 101.258 292.978 99.825V92.3H295.253ZM301.369 94.525C301.769 93.7417 302.336 93.1333 303.069 92.7C303.819 92.2667 304.727 92.05 305.794 92.05V94.4H305.194C302.644 94.4 301.369 95.7833 301.369 98.55V106H299.094V92.3H301.369V94.525ZM321.06 106.225C319.777 106.225 318.61 105.933 317.56 105.35C316.527 104.767 315.71 103.942 315.11 102.875C314.527 101.792 314.235 100.542 314.235 99.125C314.235 97.725 314.535 96.4917 315.135 95.425C315.752 94.3417 316.585 93.5167 317.635 92.95C318.685 92.3667 319.86 92.075 321.16 92.075C322.46 92.075 323.635 92.3667 324.685 92.95C325.735 93.5167 326.56 94.3333 327.16 95.4C327.777 96.4667 328.085 97.7083 328.085 99.125C328.085 100.542 327.768 101.792 327.135 102.875C326.518 103.942 325.677 104.767 324.61 105.35C323.543 105.933 322.36 106.225 321.06 106.225ZM321.06 104.225C321.877 104.225 322.643 104.033 323.36 103.65C324.077 103.267 324.652 102.692 325.085 101.925C325.535 101.158 325.76 100.225 325.76 99.125C325.76 98.025 325.543 97.0917 325.11 96.325C324.677 95.5583 324.11 94.9917 323.41 94.625C322.71 94.2417 321.952 94.05 321.135 94.05C320.302 94.05 319.535 94.2417 318.835 94.625C318.152 94.9917 317.602 95.5583 317.185 96.325C316.768 97.0917 316.56 98.025 316.56 99.125C316.56 100.242 316.76 101.183 317.16 101.95C317.577 102.717 318.127 103.292 318.81 103.675C319.493 104.042 320.243 104.225 321.06 104.225ZM349.326 92.3L345.051 106H342.701L339.401 95.125L336.101 106H333.751L329.451 92.3H331.776L334.926 103.8L338.326 92.3H340.651L343.976 103.825L347.076 92.3H349.326ZM358.259 92.05C359.926 92.05 361.276 92.5583 362.309 93.575C363.343 94.575 363.859 96.025 363.859 97.925V106H361.609V98.25C361.609 96.8833 361.268 95.8417 360.584 95.125C359.901 94.3917 358.968 94.025 357.784 94.025C356.584 94.025 355.626 94.4 354.909 95.15C354.209 95.9 353.859 96.9917 353.859 98.425V106H351.584V92.3H353.859V94.25C354.309 93.55 354.918 93.0083 355.684 92.625C356.468 92.2417 357.326 92.05 358.259 92.05ZM232.826 137.1C232.826 135.7 233.11 134.475 233.676 133.425C234.243 132.358 235.018 131.533 236.001 130.95C237.001 130.367 238.118 130.075 239.351 130.075C240.418 130.075 241.41 130.325 242.326 130.825C243.243 131.308 243.943 131.95 244.426 132.75V125.5H246.726V144H244.426V141.425C243.976 142.242 243.31 142.917 242.426 143.45C241.543 143.967 240.51 144.225 239.326 144.225C238.11 144.225 237.001 143.925 236.001 143.325C235.018 142.725 234.243 141.883 233.676 140.8C233.11 139.717 232.826 138.483 232.826 137.1ZM244.426 137.125C244.426 136.092 244.218 135.192 243.801 134.425C243.385 133.658 242.818 133.075 242.101 132.675C241.401 132.258 240.626 132.05 239.776 132.05C238.926 132.05 238.151 132.25 237.451 132.65C236.751 133.05 236.193 133.633 235.776 134.4C235.36 135.167 235.151 136.067 235.151 137.1C235.151 138.15 235.36 139.067 235.776 139.85C236.193 140.617 236.751 141.208 237.451 141.625C238.151 142.025 238.926 142.225 239.776 142.225C240.626 142.225 241.401 142.025 242.101 141.625C242.818 141.208 243.385 140.617 243.801 139.85C244.218 139.067 244.426 138.158 244.426 137.125ZM263.071 136.625C263.071 137.058 263.046 137.517 262.996 138H252.046C252.129 139.35 252.588 140.408 253.421 141.175C254.271 141.925 255.296 142.3 256.496 142.3C257.479 142.3 258.296 142.075 258.946 141.625C259.613 141.158 260.079 140.542 260.346 139.775H262.796C262.429 141.092 261.696 142.167 260.596 143C259.496 143.817 258.129 144.225 256.496 144.225C255.196 144.225 254.029 143.933 252.996 143.35C251.979 142.767 251.179 141.942 250.596 140.875C250.013 139.792 249.721 138.542 249.721 137.125C249.721 135.708 250.004 134.467 250.571 133.4C251.138 132.333 251.929 131.517 252.946 130.95C253.979 130.367 255.163 130.075 256.496 130.075C257.796 130.075 258.946 130.358 259.946 130.925C260.946 131.492 261.713 132.275 262.246 133.275C262.796 134.258 263.071 135.375 263.071 136.625ZM260.721 136.15C260.721 135.283 260.529 134.542 260.146 133.925C259.763 133.292 259.238 132.817 258.571 132.5C257.921 132.167 257.196 132 256.396 132C255.246 132 254.263 132.367 253.446 133.1C252.646 133.833 252.188 134.85 252.071 136.15H260.721ZM270.924 144.225C269.874 144.225 268.932 144.05 268.099 143.7C267.266 143.333 266.607 142.833 266.124 142.2C265.641 141.55 265.374 140.808 265.324 139.975H267.674C267.741 140.658 268.057 141.217 268.624 141.65C269.207 142.083 269.966 142.3 270.899 142.3C271.766 142.3 272.449 142.108 272.949 141.725C273.449 141.342 273.699 140.858 273.699 140.275C273.699 139.675 273.432 139.233 272.899 138.95C272.366 138.65 271.541 138.358 270.424 138.075C269.407 137.808 268.574 137.542 267.924 137.275C267.291 136.992 266.741 136.583 266.274 136.05C265.824 135.5 265.599 134.783 265.599 133.9C265.599 133.2 265.807 132.558 266.224 131.975C266.641 131.392 267.232 130.933 267.999 130.6C268.766 130.25 269.641 130.075 270.624 130.075C272.141 130.075 273.366 130.458 274.299 131.225C275.232 131.992 275.732 133.042 275.799 134.375H273.524C273.474 133.658 273.182 133.083 272.649 132.65C272.132 132.217 271.432 132 270.549 132C269.732 132 269.082 132.175 268.599 132.525C268.116 132.875 267.874 133.333 267.874 133.9C267.874 134.35 268.016 134.725 268.299 135.025C268.599 135.308 268.966 135.542 269.399 135.725C269.849 135.892 270.466 136.083 271.249 136.3C272.232 136.567 273.032 136.833 273.649 137.1C274.266 137.35 274.791 137.733 275.224 138.25C275.674 138.767 275.907 139.442 275.924 140.275C275.924 141.025 275.716 141.7 275.299 142.3C274.882 142.9 274.291 143.375 273.524 143.725C272.774 144.058 271.907 144.225 270.924 144.225ZM280.31 128.075C279.877 128.075 279.51 127.925 279.21 127.625C278.91 127.325 278.76 126.958 278.76 126.525C278.76 126.092 278.91 125.725 279.21 125.425C279.51 125.125 279.877 124.975 280.31 124.975C280.727 124.975 281.077 125.125 281.36 125.425C281.66 125.725 281.81 126.092 281.81 126.525C281.81 126.958 281.66 127.325 281.36 127.625C281.077 127.925 280.727 128.075 280.31 128.075ZM281.41 130.3V144H279.135V130.3H281.41ZM290.938 130.075C292.121 130.075 293.154 130.333 294.038 130.85C294.938 131.367 295.604 132.017 296.038 132.8V130.3H298.338V144.3C298.338 145.55 298.071 146.658 297.538 147.625C297.004 148.608 296.238 149.375 295.238 149.925C294.254 150.475 293.104 150.75 291.788 150.75C289.988 150.75 288.488 150.325 287.288 149.475C286.088 148.625 285.379 147.467 285.163 146H287.413C287.663 146.833 288.179 147.5 288.963 148C289.746 148.517 290.688 148.775 291.788 148.775C293.038 148.775 294.054 148.383 294.838 147.6C295.638 146.817 296.038 145.717 296.038 144.3V141.425C295.588 142.225 294.921 142.892 294.038 143.425C293.154 143.958 292.121 144.225 290.938 144.225C289.721 144.225 288.613 143.925 287.613 143.325C286.629 142.725 285.854 141.883 285.288 140.8C284.721 139.717 284.438 138.483 284.438 137.1C284.438 135.7 284.721 134.475 285.288 133.425C285.854 132.358 286.629 131.533 287.613 130.95C288.613 130.367 289.721 130.075 290.938 130.075ZM296.038 137.125C296.038 136.092 295.829 135.192 295.413 134.425C294.996 133.658 294.429 133.075 293.713 132.675C293.013 132.258 292.238 132.05 291.388 132.05C290.538 132.05 289.763 132.25 289.063 132.65C288.363 133.05 287.804 133.633 287.388 134.4C286.971 135.167 286.763 136.067 286.763 137.1C286.763 138.15 286.971 139.067 287.388 139.85C287.804 140.617 288.363 141.208 289.063 141.625C289.763 142.025 290.538 142.225 291.388 142.225C292.238 142.225 293.013 142.025 293.713 141.625C294.429 141.208 294.996 140.617 295.413 139.85C295.829 139.067 296.038 138.158 296.038 137.125ZM308.857 130.05C310.524 130.05 311.874 130.558 312.907 131.575C313.941 132.575 314.457 134.025 314.457 135.925V144H312.207V136.25C312.207 134.883 311.866 133.842 311.182 133.125C310.499 132.392 309.566 132.025 308.382 132.025C307.182 132.025 306.224 132.4 305.507 133.15C304.807 133.9 304.457 134.992 304.457 136.425V144H302.182V130.3H304.457V132.25C304.907 131.55 305.516 131.008 306.282 130.625C307.066 130.242 307.924 130.05 308.857 130.05Z" fill="#270641" />
    <path d="M107.108 74.166L122.351 79.7493V93.7077H114.729V116.041C114.729 116.781 114.462 117.491 113.985 118.015C113.509 118.539 112.863 118.833 112.189 118.833H86.7837C86.1099 118.833 85.4637 118.539 84.9873 118.015C84.5108 117.491 84.2432 116.781 84.2432 116.041V93.7077H76.6216V79.7493L91.8647 74.166C91.8647 76.3872 92.6677 78.5174 94.097 80.088C95.5264 81.6587 97.4649 82.541 99.4863 82.541C101.508 82.541 103.446 81.6587 104.876 80.088C106.305 78.5174 107.108 76.3872 107.108 74.166Z" stroke="#4C2A76" stroke-opacity="0.65" stroke-width="3.91" stroke-linecap="round" stroke-linejoin="round" />
    <path d="M100.496 114.084C98.8702 124.728 102.121 123.09 102.121 123.909L124.065 121.453L144.384 97.708L129.418 75.1816L105.583 100.154C105.313 101.519 101.796 105.568 100.496 114.084Z" fill="white" />
    <path d="M148.645 84.5017L144.452 89.1086C144.025 89.5783 143.334 89.5783 142.906 89.1086L132.812 78.016C132.384 77.5463 132.384 76.7868 132.812 76.3171L137.004 71.7102C138.705 69.8414 141.469 69.8414 143.179 71.7102L148.645 77.7162C150.355 79.5849 150.355 82.6229 148.645 84.5017ZM129.21 80.2745L105.328 106.517L103.4 118.659C103.137 120.298 104.437 121.717 105.929 121.437L116.978 119.309L140.86 93.066C141.287 92.5963 141.287 91.8368 140.86 91.3671L130.765 80.2745C130.329 79.8048 129.638 79.8048 129.21 80.2745ZM114.65 104.269C114.15 103.719 114.15 102.839 114.65 102.29L128.655 86.9001C129.156 86.3504 129.956 86.3504 130.456 86.9001C130.956 87.4497 130.956 88.3291 130.456 88.8788L116.451 104.269C115.951 104.818 115.15 104.818 114.65 104.269ZM111.367 112.673H115.732V116.301L109.867 117.43L107.038 114.322L108.066 107.876H111.367V112.673Z" fill="#4C2A76" />
    <path d="M209.308 231V229.9C209.308 228.167 209.558 226.717 210.058 225.55C210.575 224.383 211.225 223.392 212.008 222.575C212.792 221.758 213.592 221 214.408 220.3C215.442 219.417 216.35 218.508 217.133 217.575C217.917 216.642 218.308 215.417 218.308 213.9C218.308 212.367 217.775 211.075 216.708 210.025C215.642 208.975 214.108 208.45 212.108 208.45C209.858 208.45 208.108 209.075 206.858 210.325C205.625 211.558 205.008 213.2 205.008 215.25H200.758C200.758 213.1 201.225 211.208 202.158 209.575C203.108 207.942 204.433 206.675 206.133 205.775C207.833 204.858 209.825 204.4 212.108 204.4C214.392 204.4 216.317 204.825 217.883 205.675C219.467 206.525 220.667 207.675 221.483 209.125C222.3 210.558 222.708 212.167 222.708 213.95C222.708 215.4 222.475 216.633 222.008 217.65C221.542 218.65 220.95 219.525 220.233 220.275C219.517 221.025 218.775 221.733 218.008 222.4C217.275 223.033 216.575 223.692 215.908 224.375C215.258 225.058 214.725 225.85 214.308 226.75C213.908 227.633 213.708 228.7 213.708 229.95V231H209.308ZM211.408 240.65C210.442 240.65 209.625 240.308 208.958 239.625C208.292 238.942 207.958 238.15 207.958 237.25C207.958 236.35 208.292 235.55 208.958 234.85C209.625 234.15 210.442 233.8 211.408 233.8C212.392 233.8 213.217 234.15 213.883 234.85C214.567 235.55 214.908 236.35 214.908 237.25C214.908 238.15 214.567 238.942 213.883 239.625C213.217 240.308 212.392 240.65 211.408 240.65Z" fill="#4C2A76" />
    <defs>
        <filter id="filter0_d_1926_171" x="0" y="0" width="424" height="239" filterUnits="userSpaceOnUse" color-interpolation-filters="sRGB">
            <feFlood flood-opacity="0" result="BackgroundImageFix" />
            <feColorMatrix in="SourceAlpha" type="matrix" values="0 0 0 0 0 0 0 0 0 0 0 0 0 0 0 0 0 0 127 0" result="hardAlpha" />
            <feMorphology radius="5" operator="erode" in="SourceAlpha" result="effect1_dropShadow_1926_171" />
            <feOffset dy="7" />
            <feGaussianBlur stdDeviation="7.5" />
            <feComposite in2="hardAlpha" operator="out" />
            <feColorMatrix type="matrix" values="0 0 0 0 0 0 0 0 0 0 0 0 0 0 0 0 0 0 0.2 0" />
            <feBlend mode="normal" in2="BackgroundImageFix" result="effect1_dropShadow_1926_171" />
            <feBlend mode="normal" in="SourceGraphic" in2="effect1_dropShadow_1926_171" result="shape" />
        </filter>
        <filter id="filter1_d_1926_171" x="154" y="168" width="115" height="115" filterUnits="userSpaceOnUse" color-interpolation-filters="sRGB">
            <feFlood flood-opacity="0" result="BackgroundImageFix" />
            <feColorMatrix in="SourceAlpha" type="matrix" values="0 0 0 0 0 0 0 0 0 0 0 0 0 0 0 0 0 0 127 0" result="hardAlpha" />
            <feOffset dy="4" />
            <feGaussianBlur stdDeviation="10" />
            <feComposite in2="hardAlpha" operator="out" />
            <feColorMatrix type="matrix" values="0 0 0 0 0 0 0 0 0 0 0 0 0 0 0 0 0 0 0.2 0" />
            <feBlend mode="normal" in2="BackgroundImageFix" result="effect1_dropShadow_1926_171" />
            <feBlend mode="normal" in="SourceGraphic" in2="effect1_dropShadow_1926_171" result="shape" />
        </filter>
    </defs>
</svg>