<svg width="400" height="240" viewBox="0 0 514 357" fill="none" xmlns="http://www.w3.org/2000/svg">
    <g filter="url(#filter0_d_1805_112)">
        <rect x="25" y="17" width="464" height="271.839" rx="41" fill="#4C2A76" />
    </g>
    <g filter="url(#filter1_d_1805_112)">
        <ellipse cx="257.574" cy="288.347" rx="52.2574" ry="44.6522" fill="white" />
    </g>
    <path d="M109.803 58.3814L104.313 79.4414H98.1027L94.7427 65.5814L91.2627 79.4414H85.0527L79.7127 58.3814H85.2027L88.2327 73.7114L91.9827 58.3814H97.6227L101.223 73.7114L104.283 58.3814H109.803ZM111.355 71.0414C111.355 69.3214 111.675 67.8114 112.315 66.5114C112.975 65.2114 113.865 64.2114 114.985 63.5114C116.105 62.8114 117.355 62.4614 118.735 62.4614C119.915 62.4614 120.945 62.7014 121.825 63.1814C122.725 63.6614 123.415 64.2914 123.895 65.0714V62.7014H129.025V79.4414H123.895V77.0714C123.395 77.8514 122.695 78.4814 121.795 78.9614C120.915 79.4414 119.885 79.6814 118.705 79.6814C117.345 79.6814 116.105 79.3314 114.985 78.6314C113.865 77.9114 112.975 76.9014 112.315 75.6014C111.675 74.2814 111.355 72.7614 111.355 71.0414ZM123.895 71.0714C123.895 69.7914 123.535 68.7814 122.815 68.0414C122.115 67.3014 121.255 66.9314 120.235 66.9314C119.215 66.9314 118.345 67.3014 117.625 68.0414C116.925 68.7614 116.575 69.7614 116.575 71.0414C116.575 72.3214 116.925 73.3414 117.625 74.1014C118.345 74.8414 119.215 75.2114 120.235 75.2114C121.255 75.2114 122.115 74.8414 122.815 74.1014C123.535 73.3614 123.895 72.3514 123.895 71.0714ZM142.937 62.5214C144.897 62.5214 146.457 63.1614 147.617 64.4414C148.797 65.7014 149.387 67.4414 149.387 69.6614V79.4414H144.287V70.3514C144.287 69.2314 143.997 68.3614 143.417 67.7414C142.837 67.1214 142.057 66.8114 141.077 66.8114C140.097 66.8114 139.317 67.1214 138.737 67.7414C138.157 68.3614 137.867 69.2314 137.867 70.3514V79.4414H132.737V62.7014H137.867V64.9214C138.387 64.1814 139.087 63.6014 139.967 63.1814C140.847 62.7414 141.837 62.5214 142.937 62.5214ZM162.282 75.0914V79.4414H159.672C157.812 79.4414 156.362 78.9914 155.322 78.0914C154.282 77.1714 153.762 75.6814 153.762 73.6214V66.9614H151.722V62.7014H153.762V58.6214H158.892V62.7014H162.252V66.9614H158.892V73.6814C158.892 74.1814 159.012 74.5414 159.252 74.7614C159.492 74.9814 159.892 75.0914 160.452 75.0914H162.282ZM180.827 75.0914V79.4414H178.217C176.357 79.4414 174.907 78.9914 173.867 78.0914C172.827 77.1714 172.307 75.6814 172.307 73.6214V66.9614H170.267V62.7014H172.307V58.6214H177.437V62.7014H180.797V66.9614H177.437V73.6814C177.437 74.1814 177.557 74.5414 177.797 74.7614C178.037 74.9814 178.437 75.0914 178.997 75.0914H180.827ZM191.304 79.6814C189.664 79.6814 188.184 79.3314 186.864 78.6314C185.564 77.9314 184.534 76.9314 183.774 75.6314C183.034 74.3314 182.664 72.8114 182.664 71.0714C182.664 69.3514 183.044 67.8414 183.804 66.5414C184.564 65.2214 185.604 64.2114 186.924 63.5114C188.244 62.8114 189.724 62.4614 191.364 62.4614C193.004 62.4614 194.484 62.8114 195.804 63.5114C197.124 64.2114 198.164 65.2214 198.924 66.5414C199.684 67.8414 200.064 69.3514 200.064 71.0714C200.064 72.7914 199.674 74.3114 198.894 75.6314C198.134 76.9314 197.084 77.9314 195.744 78.6314C194.424 79.3314 192.944 79.6814 191.304 79.6814ZM191.304 75.2414C192.284 75.2414 193.114 74.8814 193.794 74.1614C194.494 73.4414 194.844 72.4114 194.844 71.0714C194.844 69.7314 194.504 68.7014 193.824 67.9814C193.164 67.2614 192.344 66.9014 191.364 66.9014C190.364 66.9014 189.534 67.2614 188.874 67.9814C188.214 68.6814 187.884 69.7114 187.884 71.0714C187.884 72.4114 188.204 73.4414 188.844 74.1614C189.504 74.8814 190.324 75.2414 191.304 75.2414ZM214.273 65.0714C214.753 64.2914 215.443 63.6614 216.343 63.1814C217.243 62.7014 218.273 62.4614 219.433 62.4614C220.813 62.4614 222.063 62.8114 223.183 63.5114C224.303 64.2114 225.183 65.2114 225.823 66.5114C226.483 67.8114 226.813 69.3214 226.813 71.0414C226.813 72.7614 226.483 74.2814 225.823 75.6014C225.183 76.9014 224.303 77.9114 223.183 78.6314C222.063 79.3314 220.813 79.6814 219.433 79.6814C218.253 79.6814 217.223 79.4514 216.343 78.9914C215.463 78.5114 214.773 77.8814 214.273 77.1014V79.4414H209.143V57.2414H214.273V65.0714ZM221.593 71.0414C221.593 69.7614 221.233 68.7614 220.513 68.0414C219.813 67.3014 218.943 66.9314 217.903 66.9314C216.883 66.9314 216.013 67.3014 215.293 68.0414C214.593 68.7814 214.243 69.7914 214.243 71.0714C214.243 72.3514 214.593 73.3614 215.293 74.1014C216.013 74.8414 216.883 75.2114 217.903 75.2114C218.923 75.2114 219.793 74.8414 220.513 74.1014C221.233 73.3414 221.593 72.3214 221.593 71.0414ZM246.034 62.7014V79.4414H240.904V77.1614C240.384 77.9014 239.674 78.5014 238.774 78.9614C237.894 79.4014 236.914 79.6214 235.834 79.6214C234.554 79.6214 233.424 79.3414 232.444 78.7814C231.464 78.2014 230.704 77.3714 230.164 76.2914C229.624 75.2114 229.354 73.9414 229.354 72.4814V62.7014H234.454V71.7914C234.454 72.9114 234.744 73.7814 235.324 74.4014C235.904 75.0214 236.684 75.3314 237.664 75.3314C238.664 75.3314 239.454 75.0214 240.034 74.4014C240.614 73.7814 240.904 72.9114 240.904 71.7914V62.7014H246.034ZM252.299 60.9614C251.399 60.9614 250.659 60.7014 250.079 60.1814C249.519 59.6414 249.239 58.9814 249.239 58.2014C249.239 57.4014 249.519 56.7414 250.079 56.2214C250.659 55.6814 251.399 55.4114 252.299 55.4114C253.179 55.4114 253.899 55.6814 254.459 56.2214C255.039 56.7414 255.329 57.4014 255.329 58.2014C255.329 58.9814 255.039 59.6414 254.459 60.1814C253.899 60.7014 253.179 60.9614 252.299 60.9614ZM254.849 62.7014V79.4414H249.719V62.7014H254.849ZM263.697 57.2414V79.4414H258.567V57.2414H263.697ZM266.395 71.0414C266.395 69.3214 266.715 67.8114 267.355 66.5114C268.015 65.2114 268.905 64.2114 270.025 63.5114C271.145 62.8114 272.395 62.4614 273.775 62.4614C274.875 62.4614 275.875 62.6914 276.775 63.1514C277.695 63.6114 278.415 64.2314 278.935 65.0114V57.2414H284.065V79.4414H278.935V77.0414C278.455 77.8414 277.765 78.4814 276.865 78.9614C275.985 79.4414 274.955 79.6814 273.775 79.6814C272.395 79.6814 271.145 79.3314 270.025 78.6314C268.905 77.9114 268.015 76.9014 267.355 75.6014C266.715 74.2814 266.395 72.7614 266.395 71.0414ZM278.935 71.0714C278.935 69.7914 278.575 68.7814 277.855 68.0414C277.155 67.3014 276.295 66.9314 275.275 66.9314C274.255 66.9314 273.385 67.3014 272.665 68.0414C271.965 68.7614 271.615 69.7614 271.615 71.0414C271.615 72.3214 271.965 73.3414 272.665 74.1014C273.385 74.8414 274.255 75.2114 275.275 75.2114C276.295 75.2114 277.155 74.8414 277.855 74.1014C278.575 73.3614 278.935 72.3514 278.935 71.0714ZM311.233 62.7014L300.733 87.3914H295.213L299.053 78.8714L292.243 62.7014H297.973L301.843 73.1714L305.683 62.7014H311.233ZM320.708 79.6814C319.068 79.6814 317.588 79.3314 316.268 78.6314C314.968 77.9314 313.938 76.9314 313.178 75.6314C312.438 74.3314 312.068 72.8114 312.068 71.0714C312.068 69.3514 312.448 67.8414 313.208 66.5414C313.968 65.2214 315.008 64.2114 316.328 63.5114C317.648 62.8114 319.128 62.4614 320.768 62.4614C322.408 62.4614 323.888 62.8114 325.208 63.5114C326.528 64.2114 327.568 65.2214 328.328 66.5414C329.088 67.8414 329.468 69.3514 329.468 71.0714C329.468 72.7914 329.078 74.3114 328.298 75.6314C327.538 76.9314 326.488 77.9314 325.148 78.6314C323.828 79.3314 322.348 79.6814 320.708 79.6814ZM320.708 75.2414C321.688 75.2414 322.518 74.8814 323.198 74.1614C323.898 73.4414 324.248 72.4114 324.248 71.0714C324.248 69.7314 323.908 68.7014 323.228 67.9814C322.568 67.2614 321.748 66.9014 320.768 66.9014C319.768 66.9014 318.938 67.2614 318.278 67.9814C317.618 68.6814 317.288 69.7114 317.288 71.0714C317.288 72.4114 317.608 73.4414 318.248 74.1614C318.908 74.8814 319.728 75.2414 320.708 75.2414ZM348.72 62.7014V79.4414H343.59V77.1614C343.07 77.9014 342.36 78.5014 341.46 78.9614C340.58 79.4014 339.6 79.6214 338.52 79.6214C337.24 79.6214 336.11 79.3414 335.13 78.7814C334.15 78.2014 333.39 77.3714 332.85 76.2914C332.31 75.2114 332.04 73.9414 332.04 72.4814V62.7014H337.14V71.7914C337.14 72.9114 337.43 73.7814 338.01 74.4014C338.59 75.0214 339.37 75.3314 340.35 75.3314C341.35 75.3314 342.14 75.0214 342.72 74.4014C343.3 73.7814 343.59 72.9114 343.59 71.7914V62.7014H348.72ZM357.535 65.4914C358.135 64.5714 358.885 63.8514 359.785 63.3314C360.685 62.7914 361.685 62.5214 362.785 62.5214V67.9514H361.375C360.095 67.9514 359.135 68.2314 358.495 68.7914C357.855 69.3314 357.535 70.2914 357.535 71.6714V79.4414H352.405V62.7014H357.535V65.4914ZM379.214 79.6814C377.574 79.6814 376.094 79.3314 374.774 78.6314C373.474 77.9314 372.444 76.9314 371.684 75.6314C370.944 74.3314 370.574 72.8114 370.574 71.0714C370.574 69.3514 370.954 67.8414 371.714 66.5414C372.474 65.2214 373.514 64.2114 374.834 63.5114C376.154 62.8114 377.634 62.4614 379.274 62.4614C380.914 62.4614 382.394 62.8114 383.714 63.5114C385.034 64.2114 386.074 65.2214 386.834 66.5414C387.594 67.8414 387.974 69.3514 387.974 71.0714C387.974 72.7914 387.584 74.3114 386.804 75.6314C386.044 76.9314 384.994 77.9314 383.654 78.6314C382.334 79.3314 380.854 79.6814 379.214 79.6814ZM379.214 75.2414C380.194 75.2414 381.024 74.8814 381.704 74.1614C382.404 73.4414 382.754 72.4114 382.754 71.0714C382.754 69.7314 382.414 68.7014 381.734 67.9814C381.074 67.2614 380.254 66.9014 379.274 66.9014C378.274 66.9014 377.444 67.2614 376.784 67.9814C376.124 68.6814 375.794 69.7114 375.794 71.0714C375.794 72.4114 376.114 73.4414 376.754 74.1614C377.414 74.8814 378.234 75.2414 379.214 75.2414ZM414.726 62.7014L410.196 79.4414H404.526L401.886 68.5814L399.156 79.4414H393.516L388.956 62.7014H394.086L396.456 74.6714L399.276 62.7014H404.706L407.556 74.6114L409.896 62.7014H414.726ZM426.882 62.5214C428.842 62.5214 430.402 63.1614 431.562 64.4414C432.742 65.7014 433.332 67.4414 433.332 69.6614V79.4414H428.232V70.3514C428.232 69.2314 427.942 68.3614 427.362 67.7414C426.782 67.1214 426.002 66.8114 425.022 66.8114C424.042 66.8114 423.262 67.1214 422.682 67.7414C422.102 68.3614 421.812 69.2314 421.812 70.3514V79.4414H416.682V62.7014H421.812V64.9214C422.332 64.1814 423.032 63.6014 423.912 63.1814C424.792 62.7414 425.782 62.5214 426.882 62.5214ZM194.09 116.041C194.09 114.321 194.41 112.811 195.05 111.511C195.71 110.211 196.6 109.211 197.72 108.511C198.84 107.811 200.09 107.461 201.47 107.461C202.57 107.461 203.57 107.691 204.47 108.151C205.39 108.611 206.11 109.231 206.63 110.011V102.241H211.76V124.441H206.63V122.041C206.15 122.841 205.46 123.481 204.56 123.961C203.68 124.441 202.65 124.681 201.47 124.681C200.09 124.681 198.84 124.331 197.72 123.631C196.6 122.911 195.71 121.901 195.05 120.601C194.41 119.281 194.09 117.761 194.09 116.041ZM206.63 116.071C206.63 114.791 206.27 113.781 205.55 113.041C204.85 112.301 203.99 111.931 202.97 111.931C201.95 111.931 201.08 112.301 200.36 113.041C199.66 113.761 199.31 114.761 199.31 116.041C199.31 117.321 199.66 118.341 200.36 119.101C201.08 119.841 201.95 120.211 202.97 120.211C203.99 120.211 204.85 119.841 205.55 119.101C206.27 118.361 206.63 117.351 206.63 116.071ZM231.251 115.801C231.251 116.281 231.221 116.781 231.161 117.301H219.551C219.631 118.341 219.961 119.141 220.541 119.701C221.141 120.241 221.871 120.511 222.731 120.511C224.011 120.511 224.901 119.971 225.401 118.891H230.861C230.581 119.991 230.071 120.981 229.331 121.861C228.611 122.741 227.701 123.431 226.601 123.931C225.501 124.431 224.271 124.681 222.911 124.681C221.271 124.681 219.811 124.331 218.531 123.631C217.251 122.931 216.251 121.931 215.531 120.631C214.811 119.331 214.451 117.811 214.451 116.071C214.451 114.331 214.801 112.811 215.501 111.511C216.221 110.211 217.221 109.211 218.501 108.511C219.781 107.811 221.251 107.461 222.911 107.461C224.531 107.461 225.971 107.801 227.231 108.481C228.491 109.161 229.471 110.131 230.171 111.391C230.891 112.651 231.251 114.121 231.251 115.801ZM226.001 114.451C226.001 113.571 225.701 112.871 225.101 112.351C224.501 111.831 223.751 111.571 222.851 111.571C221.991 111.571 221.261 111.821 220.661 112.321C220.081 112.821 219.721 113.531 219.581 114.451H226.001ZM240.767 124.681C239.307 124.681 238.007 124.431 236.867 123.931C235.727 123.431 234.827 122.751 234.167 121.891C233.507 121.011 233.137 120.031 233.057 118.951H238.127C238.187 119.531 238.457 120.001 238.937 120.361C239.417 120.721 240.007 120.901 240.707 120.901C241.347 120.901 241.837 120.781 242.177 120.541C242.537 120.281 242.717 119.951 242.717 119.551C242.717 119.071 242.467 118.721 241.967 118.501C241.467 118.261 240.657 118.001 239.537 117.721C238.337 117.441 237.337 117.151 236.537 116.851C235.737 116.531 235.047 116.041 234.467 115.381C233.887 114.701 233.597 113.791 233.597 112.651C233.597 111.691 233.857 110.821 234.377 110.041C234.917 109.241 235.697 108.611 236.717 108.151C237.757 107.691 238.987 107.461 240.407 107.461C242.507 107.461 244.157 107.981 245.357 109.021C246.577 110.061 247.277 111.441 247.457 113.161H242.717C242.637 112.581 242.377 112.121 241.937 111.781C241.517 111.441 240.957 111.271 240.257 111.271C239.657 111.271 239.197 111.391 238.877 111.631C238.557 111.851 238.397 112.161 238.397 112.561C238.397 113.041 238.647 113.401 239.147 113.641C239.667 113.881 240.467 114.121 241.547 114.361C242.787 114.681 243.797 115.001 244.577 115.321C245.357 115.621 246.037 116.121 246.617 116.821C247.217 117.501 247.527 118.421 247.547 119.581C247.547 120.561 247.267 121.441 246.707 122.221C246.167 122.981 245.377 123.581 244.337 124.021C243.317 124.461 242.127 124.681 240.767 124.681ZM253.266 105.961C252.366 105.961 251.626 105.701 251.046 105.181C250.486 104.641 250.206 103.981 250.206 103.201C250.206 102.401 250.486 101.741 251.046 101.221C251.626 100.681 252.366 100.411 253.266 100.411C254.146 100.411 254.866 100.681 255.426 101.221C256.006 101.741 256.296 102.401 256.296 103.201C256.296 103.981 256.006 104.641 255.426 105.181C254.866 105.701 254.146 105.961 253.266 105.961ZM255.816 107.701V124.441H250.686V107.701H255.816ZM265.894 107.461C267.074 107.461 268.104 107.701 268.984 108.181C269.884 108.661 270.574 109.291 271.054 110.071V107.701H276.184V124.411C276.184 125.951 275.874 127.341 275.254 128.581C274.654 129.841 273.724 130.841 272.464 131.581C271.224 132.321 269.674 132.691 267.814 132.691C265.334 132.691 263.324 132.101 261.784 130.921C260.244 129.761 259.364 128.181 259.144 126.181H264.214C264.374 126.821 264.754 127.321 265.354 127.681C265.954 128.061 266.694 128.251 267.574 128.251C268.634 128.251 269.474 127.941 270.094 127.321C270.734 126.721 271.054 125.751 271.054 124.411V122.041C270.554 122.821 269.864 123.461 268.984 123.961C268.104 124.441 267.074 124.681 265.894 124.681C264.514 124.681 263.264 124.331 262.144 123.631C261.024 122.911 260.134 121.901 259.474 120.601C258.834 119.281 258.514 117.761 258.514 116.041C258.514 114.321 258.834 112.811 259.474 111.511C260.134 110.211 261.024 109.211 262.144 108.511C263.264 107.811 264.514 107.461 265.894 107.461ZM271.054 116.071C271.054 114.791 270.694 113.781 269.974 113.041C269.274 112.301 268.414 111.931 267.394 111.931C266.374 111.931 265.504 112.301 264.784 113.041C264.084 113.761 263.734 114.761 263.734 116.041C263.734 117.321 264.084 118.341 264.784 119.101C265.504 119.841 266.374 120.211 267.394 120.211C268.414 120.211 269.274 119.841 269.974 119.101C270.694 118.361 271.054 117.351 271.054 116.071ZM290.095 107.521C292.055 107.521 293.615 108.161 294.775 109.441C295.955 110.701 296.545 112.441 296.545 114.661V124.441H291.445V115.351C291.445 114.231 291.155 113.361 290.575 112.741C289.995 112.121 289.215 111.811 288.235 111.811C287.255 111.811 286.475 112.121 285.895 112.741C285.315 113.361 285.025 114.231 285.025 115.351V124.441H279.895V107.701H285.025V109.921C285.545 109.181 286.245 108.601 287.125 108.181C288.005 107.741 288.995 107.521 290.095 107.521ZM312.617 102.211C314.757 102.211 316.467 102.771 317.747 103.891C319.047 105.011 319.697 106.591 319.697 108.631C319.697 110.511 319.077 111.981 317.837 113.041C316.617 114.081 314.997 114.611 312.977 114.631L312.827 116.881H308.327L308.177 111.301H309.977C311.517 111.301 312.687 111.111 313.487 110.731C314.307 110.351 314.717 109.661 314.717 108.661C314.717 107.961 314.527 107.411 314.147 107.011C313.767 106.611 313.237 106.411 312.557 106.411C311.837 106.411 311.277 106.621 310.877 107.041C310.477 107.441 310.277 107.991 310.277 108.691H305.447C305.407 107.471 305.657 106.371 306.197 105.391C306.757 104.411 307.577 103.641 308.657 103.081C309.757 102.501 311.077 102.211 312.617 102.211ZM310.637 124.681C309.737 124.681 308.997 124.421 308.417 123.901C307.857 123.361 307.577 122.701 307.577 121.921C307.577 121.121 307.857 120.451 308.417 119.911C308.997 119.371 309.737 119.101 310.637 119.101C311.517 119.101 312.237 119.371 312.797 119.911C313.377 120.451 313.667 121.121 313.667 121.921C313.667 122.701 313.377 123.361 312.797 123.901C312.237 124.421 311.517 124.681 310.637 124.681Z" fill="#FFB8BC" />
    <path fill-rule="evenodd" clip-rule="evenodd" d="M233.123 273.786C235.608 275.572 239.329 275.149 241.435 272.841C243.54 270.533 245.512 260.204 245.512 260.204C245.512 260.204 234.54 264.064 232.435 266.372C230.33 268.68 230.638 271.999 233.123 273.786V273.786Z" fill="#4C2A76" fill-opacity="0.65" />
    <path d="M257.574 307.344C269.087 307.344 278.419 299.059 278.419 288.839C278.419 278.619 269.087 270.334 257.574 270.334C246.062 270.334 236.73 278.619 236.73 288.839C236.73 299.059 246.062 307.344 257.574 307.344Z" fill="#4C2A76" fill-opacity="0.65" />
    <path fill-rule="evenodd" clip-rule="evenodd" d="M268.371 283.696C268.371 283.696 263.442 281.863 261.974 282.78C260.506 283.696 261.291 288.023 261.291 288.023C261.291 288.023 259.103 290.88 260.197 292.382C261.291 293.885 264.329 293.368 266.036 294.694C267.744 296.019 267.034 298.398 267.034 298.398L266.621 301.175C266.621 301.175 271.194 299.308 272.512 296.618C273.829 293.929 273.403 289.712 273.403 289.712L276.072 287.507L278.419 280.572L270.182 278.145L269.275 274.446L263.385 275.967L262.853 280.002L267.377 281.366L268.371 283.696ZM235.572 285.755C235.572 285.755 237.324 284.81 237.558 284.795C239.352 284.679 245.604 285.002 247.238 282.997C249.086 280.732 250.626 277.732 250.626 277.732L250.564 275.423L240.903 273.418L235.572 285.755Z" fill="#4C2A76" />
    <path d="M235.465 269.212C223.255 280.051 223.255 297.626 235.465 308.466C247.676 319.306 267.473 319.306 279.683 308.466C291.894 297.626 291.894 280.051 279.683 269.212" stroke="#4C2A76" stroke-width="3.11441" stroke-linecap="round" />
    <path d="M113.268 166.68C111.962 166.68 110.762 166.373 109.668 165.76C108.575 165.147 107.708 164.3 107.068 163.22C106.428 162.127 106.108 160.893 106.108 159.52C106.108 158.16 106.428 156.94 107.068 155.86C107.708 154.767 108.575 153.913 109.668 153.3C110.762 152.687 111.962 152.38 113.268 152.38C114.588 152.38 115.788 152.687 116.868 153.3C117.962 153.913 118.822 154.767 119.448 155.86C120.088 156.94 120.408 158.16 120.408 159.52C120.408 160.893 120.088 162.127 119.448 163.22C118.822 164.3 117.962 165.147 116.868 165.76C115.775 166.373 114.575 166.68 113.268 166.68ZM113.268 164.18C114.108 164.18 114.848 163.993 115.488 163.62C116.128 163.233 116.628 162.687 116.988 161.98C117.348 161.273 117.528 160.453 117.528 159.52C117.528 158.587 117.348 157.773 116.988 157.08C116.628 156.373 116.128 155.833 115.488 155.46C114.848 155.087 114.108 154.9 113.268 154.9C112.428 154.9 111.682 155.087 111.028 155.46C110.388 155.833 109.888 156.373 109.528 157.08C109.168 157.773 108.988 158.587 108.988 159.52C108.988 160.453 109.168 161.273 109.528 161.98C109.888 162.687 110.388 163.233 111.028 163.62C111.682 163.993 112.428 164.18 113.268 164.18ZM132.951 155.46V166.54H130.131V165.14C129.771 165.62 129.298 166 128.711 166.28C128.138 166.547 127.511 166.68 126.831 166.68C125.965 166.68 125.198 166.5 124.531 166.14C123.865 165.767 123.338 165.227 122.951 164.52C122.578 163.8 122.391 162.947 122.391 161.96V155.46H125.191V161.56C125.191 162.44 125.411 163.12 125.851 163.6C126.291 164.067 126.891 164.3 127.651 164.3C128.425 164.3 129.031 164.067 129.471 163.6C129.911 163.12 130.131 162.44 130.131 161.56V155.46H132.951ZM138.514 157.18C138.874 156.593 139.341 156.133 139.914 155.8C140.501 155.467 141.167 155.3 141.914 155.3V158.24H141.174C140.294 158.24 139.627 158.447 139.174 158.86C138.734 159.273 138.514 159.993 138.514 161.02V166.54H135.714V155.46H138.514V157.18ZM147.846 160.96C147.846 159.84 148.066 158.847 148.506 157.98C148.959 157.113 149.572 156.447 150.346 155.98C151.119 155.513 151.979 155.28 152.926 155.28C153.646 155.28 154.332 155.44 154.986 155.76C155.639 156.067 156.159 156.48 156.546 157V151.74H159.386V166.54H156.546V164.9C156.199 165.447 155.712 165.887 155.086 166.22C154.459 166.553 153.732 166.72 152.906 166.72C151.972 166.72 151.119 166.48 150.346 166C149.572 165.52 148.959 164.847 148.506 163.98C148.066 163.1 147.846 162.093 147.846 160.96ZM156.566 161C156.566 160.32 156.432 159.74 156.166 159.26C155.899 158.767 155.539 158.393 155.086 158.14C154.632 157.873 154.146 157.74 153.626 157.74C153.106 157.74 152.626 157.867 152.186 158.12C151.746 158.373 151.386 158.747 151.106 159.24C150.839 159.72 150.706 160.293 150.706 160.96C150.706 161.627 150.839 162.213 151.106 162.72C151.386 163.213 151.746 163.593 152.186 163.86C152.639 164.127 153.119 164.26 153.626 164.26C154.146 164.26 154.632 164.133 155.086 163.88C155.539 163.613 155.899 163.24 156.166 162.76C156.432 162.267 156.566 161.68 156.566 161ZM172.42 160.76C172.42 161.16 172.394 161.52 172.34 161.84H164.24C164.307 162.64 164.587 163.267 165.08 163.72C165.574 164.173 166.18 164.4 166.9 164.4C167.94 164.4 168.68 163.953 169.12 163.06H172.14C171.82 164.127 171.207 165.007 170.3 165.7C169.394 166.38 168.28 166.72 166.96 166.72C165.894 166.72 164.934 166.487 164.08 166.02C163.24 165.54 162.58 164.867 162.1 164C161.634 163.133 161.4 162.133 161.4 161C161.4 159.853 161.634 158.847 162.1 157.98C162.567 157.113 163.22 156.447 164.06 155.98C164.9 155.513 165.867 155.28 166.96 155.28C168.014 155.28 168.954 155.507 169.78 155.96C170.62 156.413 171.267 157.06 171.72 157.9C172.187 158.727 172.42 159.68 172.42 160.76ZM169.52 159.96C169.507 159.24 169.247 158.667 168.74 158.24C168.234 157.8 167.614 157.58 166.88 157.58C166.187 157.58 165.6 157.793 165.12 158.22C164.654 158.633 164.367 159.213 164.26 159.96H169.52ZM178.704 166.72C177.797 166.72 176.984 166.56 176.264 166.24C175.544 165.907 174.971 165.46 174.544 164.9C174.131 164.34 173.904 163.72 173.864 163.04H176.684C176.737 163.467 176.944 163.82 177.304 164.1C177.677 164.38 178.137 164.52 178.684 164.52C179.217 164.52 179.631 164.413 179.924 164.2C180.231 163.987 180.384 163.713 180.384 163.38C180.384 163.02 180.197 162.753 179.824 162.58C179.464 162.393 178.884 162.193 178.084 161.98C177.257 161.78 176.577 161.573 176.044 161.36C175.524 161.147 175.071 160.82 174.684 160.38C174.311 159.94 174.124 159.347 174.124 158.6C174.124 157.987 174.297 157.427 174.644 156.92C175.004 156.413 175.511 156.013 176.164 155.72C176.831 155.427 177.611 155.28 178.504 155.28C179.824 155.28 180.877 155.613 181.664 156.28C182.451 156.933 182.884 157.82 182.964 158.94H180.284C180.244 158.5 180.057 158.153 179.724 157.9C179.404 157.633 178.971 157.5 178.424 157.5C177.917 157.5 177.524 157.593 177.244 157.78C176.977 157.967 176.844 158.227 176.844 158.56C176.844 158.933 177.031 159.22 177.404 159.42C177.777 159.607 178.357 159.8 179.144 160C179.944 160.2 180.604 160.407 181.124 160.62C181.644 160.833 182.091 161.167 182.464 161.62C182.851 162.06 183.051 162.647 183.064 163.38C183.064 164.02 182.884 164.593 182.524 165.1C182.177 165.607 181.671 166.007 181.004 166.3C180.351 166.58 179.584 166.72 178.704 166.72ZM186.782 154.14C186.289 154.14 185.876 153.987 185.542 153.68C185.222 153.36 185.062 152.967 185.062 152.5C185.062 152.033 185.222 151.647 185.542 151.34C185.876 151.02 186.289 150.86 186.782 150.86C187.276 150.86 187.682 151.02 188.002 151.34C188.336 151.647 188.502 152.033 188.502 152.5C188.502 152.967 188.336 153.36 188.002 153.68C187.682 153.987 187.276 154.14 186.782 154.14ZM188.162 155.46V166.54H185.362V155.46H188.162ZM195.269 155.28C196.095 155.28 196.822 155.447 197.449 155.78C198.075 156.1 198.569 156.52 198.929 157.04V155.46H201.749V166.62C201.749 167.647 201.542 168.56 201.129 169.36C200.715 170.173 200.095 170.813 199.269 171.28C198.442 171.76 197.442 172 196.269 172C194.695 172 193.402 171.633 192.389 170.9C191.389 170.167 190.822 169.167 190.689 167.9H193.469C193.615 168.407 193.929 168.807 194.409 169.1C194.902 169.407 195.495 169.56 196.189 169.56C197.002 169.56 197.662 169.313 198.169 168.82C198.675 168.34 198.929 167.607 198.929 166.62V164.9C198.569 165.42 198.069 165.853 197.429 166.2C196.802 166.547 196.082 166.72 195.269 166.72C194.335 166.72 193.482 166.48 192.709 166C191.935 165.52 191.322 164.847 190.869 163.98C190.429 163.1 190.209 162.093 190.209 160.96C190.209 159.84 190.429 158.847 190.869 157.98C191.322 157.113 191.929 156.447 192.689 155.98C193.462 155.513 194.322 155.28 195.269 155.28ZM198.929 161C198.929 160.32 198.795 159.74 198.529 159.26C198.262 158.767 197.902 158.393 197.449 158.14C196.995 157.873 196.509 157.74 195.989 157.74C195.469 157.74 194.989 157.867 194.549 158.12C194.109 158.373 193.749 158.747 193.469 159.24C193.202 159.72 193.069 160.293 193.069 160.96C193.069 161.627 193.202 162.213 193.469 162.72C193.749 163.213 194.109 163.593 194.549 163.86C195.002 164.127 195.482 164.26 195.989 164.26C196.509 164.26 196.995 164.133 197.449 163.88C197.902 163.613 198.262 163.24 198.529 162.76C198.795 162.267 198.929 161.68 198.929 161ZM210.624 155.3C211.944 155.3 213.01 155.72 213.824 156.56C214.637 157.387 215.044 158.547 215.044 160.04V166.54H212.244V160.42C212.244 159.54 212.024 158.867 211.584 158.4C211.144 157.92 210.544 157.68 209.784 157.68C209.01 157.68 208.397 157.92 207.944 158.4C207.504 158.867 207.284 159.54 207.284 160.42V166.54H204.484V155.46H207.284V156.84C207.657 156.36 208.13 155.987 208.704 155.72C209.29 155.44 209.93 155.3 210.624 155.3ZM228.006 160.76C228.006 161.16 227.979 161.52 227.926 161.84H219.826C219.893 162.64 220.173 163.267 220.666 163.72C221.159 164.173 221.766 164.4 222.486 164.4C223.526 164.4 224.266 163.953 224.706 163.06H227.726C227.406 164.127 226.793 165.007 225.886 165.7C224.979 166.38 223.866 166.72 222.546 166.72C221.479 166.72 220.519 166.487 219.666 166.02C218.826 165.54 218.166 164.867 217.686 164C217.219 163.133 216.986 162.133 216.986 161C216.986 159.853 217.219 158.847 217.686 157.98C218.153 157.113 218.806 156.447 219.646 155.98C220.486 155.513 221.453 155.28 222.546 155.28C223.599 155.28 224.539 155.507 225.366 155.96C226.206 156.413 226.853 157.06 227.306 157.9C227.773 158.727 228.006 159.68 228.006 160.76ZM225.106 159.96C225.093 159.24 224.833 158.667 224.326 158.24C223.819 157.8 223.199 157.58 222.466 157.58C221.773 157.58 221.186 157.793 220.706 158.22C220.239 158.633 219.953 159.213 219.846 159.96H225.106ZM232.85 157.18C233.21 156.593 233.677 156.133 234.25 155.8C234.837 155.467 235.503 155.3 236.25 155.3V158.24H235.51C234.63 158.24 233.963 158.447 233.51 158.86C233.07 159.273 232.85 159.993 232.85 161.02V166.54H230.05V155.46H232.85V157.18ZM242.376 166.72C241.469 166.72 240.656 166.56 239.936 166.24C239.216 165.907 238.643 165.46 238.216 164.9C237.803 164.34 237.576 163.72 237.536 163.04H240.356C240.409 163.467 240.616 163.82 240.976 164.1C241.349 164.38 241.809 164.52 242.356 164.52C242.889 164.52 243.303 164.413 243.596 164.2C243.903 163.987 244.056 163.713 244.056 163.38C244.056 163.02 243.869 162.753 243.496 162.58C243.136 162.393 242.556 162.193 241.756 161.98C240.929 161.78 240.249 161.573 239.716 161.36C239.196 161.147 238.743 160.82 238.356 160.38C237.983 159.94 237.796 159.347 237.796 158.6C237.796 157.987 237.969 157.427 238.316 156.92C238.676 156.413 239.183 156.013 239.836 155.72C240.503 155.427 241.283 155.28 242.176 155.28C243.496 155.28 244.549 155.613 245.336 156.28C246.123 156.933 246.556 157.82 246.636 158.94H243.956C243.916 158.5 243.729 158.153 243.396 157.9C243.076 157.633 242.643 157.5 242.096 157.5C241.589 157.5 241.196 157.593 240.916 157.78C240.649 157.967 240.516 158.227 240.516 158.56C240.516 158.933 240.703 159.22 241.076 159.42C241.449 159.607 242.029 159.8 242.816 160C243.616 160.2 244.276 160.407 244.796 160.62C245.316 160.833 245.763 161.167 246.136 161.62C246.523 162.06 246.723 162.647 246.736 163.38C246.736 164.02 246.556 164.593 246.196 165.1C245.849 165.607 245.343 166.007 244.676 166.3C244.023 166.58 243.256 166.72 242.376 166.72ZM269.16 155.46L265.92 166.54H262.9L260.88 158.8L258.86 166.54H255.82L252.56 155.46H255.4L257.36 163.9L259.48 155.46H262.44L264.52 163.88L266.48 155.46H269.16ZM272.095 154.14C271.602 154.14 271.188 153.987 270.855 153.68C270.535 153.36 270.375 152.967 270.375 152.5C270.375 152.033 270.535 151.647 270.855 151.34C271.188 151.02 271.602 150.86 272.095 150.86C272.588 150.86 272.995 151.02 273.315 151.34C273.648 151.647 273.815 152.033 273.815 152.5C273.815 152.967 273.648 153.36 273.315 153.68C272.995 153.987 272.588 154.14 272.095 154.14ZM273.475 155.46V166.54H270.675V155.46H273.475ZM279.041 151.74V166.54H276.241V151.74H279.041ZM284.608 151.74V166.54H281.808V151.74H284.608ZM291.42 161C291.42 159.853 291.653 158.853 292.12 158C292.586 157.133 293.233 156.467 294.06 156C294.886 155.52 295.833 155.28 296.9 155.28C298.273 155.28 299.406 155.627 300.3 156.32C301.206 157 301.813 157.96 302.12 159.2H299.1C298.94 158.72 298.666 158.347 298.28 158.08C297.906 157.8 297.44 157.66 296.88 157.66C296.08 157.66 295.446 157.953 294.98 158.54C294.513 159.113 294.28 159.933 294.28 161C294.28 162.053 294.513 162.873 294.98 163.46C295.446 164.033 296.08 164.32 296.88 164.32C298.013 164.32 298.753 163.813 299.1 162.8H302.12C301.813 164 301.206 164.953 300.3 165.66C299.393 166.367 298.26 166.72 296.9 166.72C295.833 166.72 294.886 166.487 294.06 166.02C293.233 165.54 292.586 164.873 292.12 164.02C291.653 163.153 291.42 162.147 291.42 161ZM309.091 166.72C308.024 166.72 307.064 166.487 306.211 166.02C305.358 165.54 304.684 164.867 304.191 164C303.711 163.133 303.471 162.133 303.471 161C303.471 159.867 303.718 158.867 304.211 158C304.718 157.133 305.404 156.467 306.271 156C307.138 155.52 308.104 155.28 309.171 155.28C310.238 155.28 311.204 155.52 312.071 156C312.938 156.467 313.618 157.133 314.111 158C314.618 158.867 314.871 159.867 314.871 161C314.871 162.133 314.611 163.133 314.091 164C313.584 164.867 312.891 165.54 312.011 166.02C311.144 166.487 310.171 166.72 309.091 166.72ZM309.091 164.28C309.598 164.28 310.071 164.16 310.511 163.92C310.964 163.667 311.324 163.293 311.591 162.8C311.858 162.307 311.991 161.707 311.991 161C311.991 159.947 311.711 159.14 311.151 158.58C310.604 158.007 309.931 157.72 309.131 157.72C308.331 157.72 307.658 158.007 307.111 158.58C306.578 159.14 306.311 159.947 306.311 161C306.311 162.053 306.571 162.867 307.091 163.44C307.624 164 308.291 164.28 309.091 164.28ZM319.725 151.74V166.54H316.925V151.74H319.725ZM325.291 151.74V166.54H322.491V151.74H325.291ZM327.338 160.96C327.338 159.84 327.558 158.847 327.998 157.98C328.451 157.113 329.058 156.447 329.818 155.98C330.591 155.513 331.451 155.28 332.398 155.28C333.224 155.28 333.944 155.447 334.558 155.78C335.184 156.113 335.684 156.533 336.058 157.04V155.46H338.878V166.54H336.058V164.92C335.698 165.44 335.198 165.873 334.558 166.22C333.931 166.553 333.204 166.72 332.378 166.72C331.444 166.72 330.591 166.48 329.818 166C329.058 165.52 328.451 164.847 327.998 163.98C327.558 163.1 327.338 162.093 327.338 160.96ZM336.058 161C336.058 160.32 335.924 159.74 335.658 159.26C335.391 158.767 335.031 158.393 334.578 158.14C334.124 157.873 333.638 157.74 333.118 157.74C332.598 157.74 332.118 157.867 331.678 158.12C331.238 158.373 330.878 158.747 330.598 159.24C330.331 159.72 330.198 160.293 330.198 160.96C330.198 161.627 330.331 162.213 330.598 162.72C330.878 163.213 331.238 163.593 331.678 163.86C332.131 164.127 332.611 164.26 333.118 164.26C333.638 164.26 334.124 164.133 334.578 163.88C335.031 163.613 335.391 163.24 335.658 162.76C335.924 162.267 336.058 161.68 336.058 161ZM344.412 157.08C344.772 156.547 345.266 156.113 345.892 155.78C346.532 155.447 347.259 155.28 348.072 155.28C349.019 155.28 349.872 155.513 350.632 155.98C351.406 156.447 352.012 157.113 352.452 157.98C352.906 158.833 353.132 159.827 353.132 160.96C353.132 162.093 352.906 163.1 352.452 163.98C352.012 164.847 351.406 165.52 350.632 166C349.872 166.48 349.019 166.72 348.072 166.72C347.246 166.72 346.519 166.56 345.892 166.24C345.279 165.907 344.786 165.48 344.412 164.96V166.54H341.612V151.74H344.412V157.08ZM350.272 160.96C350.272 160.293 350.132 159.72 349.852 159.24C349.586 158.747 349.226 158.373 348.772 158.12C348.332 157.867 347.852 157.74 347.332 157.74C346.826 157.74 346.346 157.873 345.892 158.14C345.452 158.393 345.092 158.767 344.812 159.26C344.546 159.753 344.412 160.333 344.412 161C344.412 161.667 344.546 162.247 344.812 162.74C345.092 163.233 345.452 163.613 345.892 163.88C346.346 164.133 346.826 164.26 347.332 164.26C347.852 164.26 348.332 164.127 348.772 163.86C349.226 163.593 349.586 163.213 349.852 162.72C350.132 162.227 350.272 161.64 350.272 160.96ZM360.087 166.72C359.02 166.72 358.06 166.487 357.207 166.02C356.354 165.54 355.68 164.867 355.187 164C354.707 163.133 354.467 162.133 354.467 161C354.467 159.867 354.714 158.867 355.207 158C355.714 157.133 356.4 156.467 357.267 156C358.134 155.52 359.1 155.28 360.167 155.28C361.234 155.28 362.2 155.52 363.067 156C363.934 156.467 364.614 157.133 365.107 158C365.614 158.867 365.867 159.867 365.867 161C365.867 162.133 365.607 163.133 365.087 164C364.58 164.867 363.887 165.54 363.007 166.02C362.14 166.487 361.167 166.72 360.087 166.72ZM360.087 164.28C360.594 164.28 361.067 164.16 361.507 163.92C361.96 163.667 362.32 163.293 362.587 162.8C362.854 162.307 362.987 161.707 362.987 161C362.987 159.947 362.707 159.14 362.147 158.58C361.6 158.007 360.927 157.72 360.127 157.72C359.327 157.72 358.654 158.007 358.107 158.58C357.574 159.14 357.307 159.947 357.307 161C357.307 162.053 357.567 162.867 358.087 163.44C358.62 164 359.287 164.28 360.087 164.28ZM370.721 157.18C371.081 156.593 371.548 156.133 372.121 155.8C372.708 155.467 373.374 155.3 374.121 155.3V158.24H373.381C372.501 158.24 371.834 158.447 371.381 158.86C370.941 159.273 370.721 159.993 370.721 161.02V166.54H367.921V155.46H370.721V157.18ZM375.287 160.96C375.287 159.84 375.507 158.847 375.947 157.98C376.4 157.113 377.007 156.447 377.767 155.98C378.54 155.513 379.4 155.28 380.347 155.28C381.174 155.28 381.894 155.447 382.507 155.78C383.134 156.113 383.634 156.533 384.007 157.04V155.46H386.827V166.54H384.007V164.92C383.647 165.44 383.147 165.873 382.507 166.22C381.88 166.553 381.154 166.72 380.327 166.72C379.394 166.72 378.54 166.48 377.767 166C377.007 165.52 376.4 164.847 375.947 163.98C375.507 163.1 375.287 162.093 375.287 160.96ZM384.007 161C384.007 160.32 383.874 159.74 383.607 159.26C383.34 158.767 382.98 158.393 382.527 158.14C382.074 157.873 381.587 157.74 381.067 157.74C380.547 157.74 380.067 157.867 379.627 158.12C379.187 158.373 378.827 158.747 378.547 159.24C378.28 159.72 378.147 160.293 378.147 160.96C378.147 161.627 378.28 162.213 378.547 162.72C378.827 163.213 379.187 163.593 379.627 163.86C380.08 164.127 380.56 164.26 381.067 164.26C381.587 164.26 382.074 164.133 382.527 163.88C382.98 163.613 383.34 163.24 383.607 162.76C383.874 162.267 384.007 161.68 384.007 161ZM392.822 157.76V163.12C392.822 163.493 392.908 163.767 393.082 163.94C393.268 164.1 393.575 164.18 394.002 164.18H395.302V166.54H393.542C391.182 166.54 390.002 165.393 390.002 163.1V157.76H388.682V155.46H390.002V152.72H392.822V155.46H395.302V157.76H392.822ZM407.616 160.76C407.616 161.16 407.589 161.52 407.536 161.84H399.436C399.502 162.64 399.782 163.267 400.276 163.72C400.769 164.173 401.376 164.4 402.096 164.4C403.136 164.4 403.876 163.953 404.316 163.06H407.336C407.016 164.127 406.402 165.007 405.496 165.7C404.589 166.38 403.476 166.72 402.156 166.72C401.089 166.72 400.129 166.487 399.276 166.02C398.436 165.54 397.776 164.867 397.296 164C396.829 163.133 396.596 162.133 396.596 161C396.596 159.853 396.829 158.847 397.296 157.98C397.762 157.113 398.416 156.447 399.256 155.98C400.096 155.513 401.062 155.28 402.156 155.28C403.209 155.28 404.149 155.507 404.976 155.96C405.816 156.413 406.462 157.06 406.916 157.9C407.382 158.727 407.616 159.68 407.616 160.76ZM404.716 159.96C404.702 159.24 404.442 158.667 403.936 158.24C403.429 157.8 402.809 157.58 402.076 157.58C401.382 157.58 400.796 157.793 400.316 158.22C399.849 158.633 399.562 159.213 399.456 159.96H404.716ZM412.719 163.6L410.379 169.22H408.579L409.879 163.6H412.719ZM98.6239 180.3C99.4639 180.3 100.211 180.487 100.864 180.86C101.517 181.22 102.024 181.76 102.384 182.48C102.757 183.187 102.944 184.04 102.944 185.04V191.54H100.144V185.42C100.144 184.54 99.9239 183.867 99.4839 183.4C99.0439 182.92 98.4439 182.68 97.6839 182.68C96.9106 182.68 96.2972 182.92 95.8439 183.4C95.4039 183.867 95.1839 184.54 95.1839 185.42V191.54H92.3839V176.74H95.1839V181.84C95.5439 181.36 96.0239 180.987 96.6239 180.72C97.2239 180.44 97.8906 180.3 98.6239 180.3ZM104.887 185.96C104.887 184.84 105.107 183.847 105.547 182.98C106 182.113 106.607 181.447 107.367 180.98C108.14 180.513 109 180.28 109.947 180.28C110.773 180.28 111.493 180.447 112.107 180.78C112.733 181.113 113.233 181.533 113.607 182.04V180.46H116.427V191.54H113.607V189.92C113.247 190.44 112.747 190.873 112.107 191.22C111.48 191.553 110.753 191.72 109.927 191.72C108.993 191.72 108.14 191.48 107.367 191C106.607 190.52 106 189.847 105.547 188.98C105.107 188.1 104.887 187.093 104.887 185.96ZM113.607 186C113.607 185.32 113.473 184.74 113.207 184.26C112.94 183.767 112.58 183.393 112.127 183.14C111.673 182.873 111.187 182.74 110.667 182.74C110.147 182.74 109.667 182.867 109.227 183.12C108.787 183.373 108.427 183.747 108.147 184.24C107.88 184.72 107.747 185.293 107.747 185.96C107.747 186.627 107.88 187.213 108.147 187.72C108.427 188.213 108.787 188.593 109.227 188.86C109.68 189.127 110.16 189.26 110.667 189.26C111.187 189.26 111.673 189.133 112.127 188.88C112.58 188.613 112.94 188.24 113.207 187.76C113.473 187.267 113.607 186.68 113.607 186ZM125.301 180.3C126.621 180.3 127.688 180.72 128.501 181.56C129.315 182.387 129.721 183.547 129.721 185.04V191.54H126.921V185.42C126.921 184.54 126.701 183.867 126.261 183.4C125.821 182.92 125.221 182.68 124.461 182.68C123.688 182.68 123.075 182.92 122.621 183.4C122.181 183.867 121.961 184.54 121.961 185.42V191.54H119.161V180.46H121.961V181.84C122.335 181.36 122.808 180.987 123.381 180.72C123.968 180.44 124.608 180.3 125.301 180.3ZM131.664 185.96C131.664 184.84 131.884 183.847 132.324 182.98C132.777 182.113 133.391 181.447 134.164 180.98C134.937 180.513 135.797 180.28 136.744 180.28C137.464 180.28 138.151 180.44 138.804 180.76C139.457 181.067 139.977 181.48 140.364 182V176.74H143.204V191.54H140.364V189.9C140.017 190.447 139.531 190.887 138.904 191.22C138.277 191.553 137.551 191.72 136.724 191.72C135.791 191.72 134.937 191.48 134.164 191C133.391 190.52 132.777 189.847 132.324 188.98C131.884 188.1 131.664 187.093 131.664 185.96ZM140.384 186C140.384 185.32 140.251 184.74 139.984 184.26C139.717 183.767 139.357 183.393 138.904 183.14C138.451 182.873 137.964 182.74 137.444 182.74C136.924 182.74 136.444 182.867 136.004 183.12C135.564 183.373 135.204 183.747 134.924 184.24C134.657 184.72 134.524 185.293 134.524 185.96C134.524 186.627 134.657 187.213 134.924 187.72C135.204 188.213 135.564 188.593 136.004 188.86C136.457 189.127 136.937 189.26 137.444 189.26C137.964 189.26 138.451 189.133 138.904 188.88C139.357 188.613 139.717 188.24 139.984 187.76C140.251 187.267 140.384 186.68 140.384 186ZM145.219 186C145.219 184.853 145.452 183.853 145.919 183C146.385 182.133 147.032 181.467 147.859 181C148.685 180.52 149.632 180.28 150.699 180.28C152.072 180.28 153.205 180.627 154.099 181.32C155.005 182 155.612 182.96 155.919 184.2H152.899C152.739 183.72 152.465 183.347 152.079 183.08C151.705 182.8 151.239 182.66 150.679 182.66C149.879 182.66 149.245 182.953 148.779 183.54C148.312 184.113 148.079 184.933 148.079 186C148.079 187.053 148.312 187.873 148.779 188.46C149.245 189.033 149.879 189.32 150.679 189.32C151.812 189.32 152.552 188.813 152.899 187.8H155.919C155.612 189 155.005 189.953 154.099 190.66C153.192 191.367 152.059 191.72 150.699 191.72C149.632 191.72 148.685 191.487 147.859 191.02C147.032 190.54 146.385 189.873 145.919 189.02C145.452 188.153 145.219 187.147 145.219 186ZM160.77 182.18C161.13 181.593 161.596 181.133 162.17 180.8C162.756 180.467 163.423 180.3 164.17 180.3V183.24H163.43C162.55 183.24 161.883 183.447 161.43 183.86C160.99 184.273 160.77 184.993 160.77 186.02V191.54H157.97V180.46H160.77V182.18ZM165.336 185.96C165.336 184.84 165.556 183.847 165.996 182.98C166.449 182.113 167.056 181.447 167.816 180.98C168.589 180.513 169.449 180.28 170.396 180.28C171.222 180.28 171.942 180.447 172.556 180.78C173.182 181.113 173.682 181.533 174.056 182.04V180.46H176.876V191.54H174.056V189.92C173.696 190.44 173.196 190.873 172.556 191.22C171.929 191.553 171.202 191.72 170.376 191.72C169.442 191.72 168.589 191.48 167.816 191C167.056 190.52 166.449 189.847 165.996 188.98C165.556 188.1 165.336 187.093 165.336 185.96ZM174.056 186C174.056 185.32 173.922 184.74 173.656 184.26C173.389 183.767 173.029 183.393 172.576 183.14C172.122 182.873 171.636 182.74 171.116 182.74C170.596 182.74 170.116 182.867 169.676 183.12C169.236 183.373 168.876 183.747 168.596 184.24C168.329 184.72 168.196 185.293 168.196 185.96C168.196 186.627 168.329 187.213 168.596 187.72C168.876 188.213 169.236 188.593 169.676 188.86C170.129 189.127 170.609 189.26 171.116 189.26C171.636 189.26 172.122 189.133 172.576 188.88C173.029 188.613 173.389 188.24 173.656 187.76C173.922 187.267 174.056 186.68 174.056 186ZM184.69 182.76H182.75V191.54H179.91V182.76H178.65V180.46H179.91V179.9C179.91 178.54 180.297 177.54 181.07 176.9C181.844 176.26 183.01 175.96 184.57 176V178.36C183.89 178.347 183.417 178.46 183.15 178.7C182.884 178.94 182.75 179.373 182.75 180V180.46H184.69V182.76ZM189.765 182.76V188.12C189.765 188.493 189.852 188.767 190.025 188.94C190.212 189.1 190.518 189.18 190.945 189.18H192.245V191.54H190.485C188.125 191.54 186.945 190.393 186.945 188.1V182.76H185.625V180.46H186.945V177.72H189.765V180.46H192.245V182.76H189.765ZM198.305 185.96C198.305 184.84 198.525 183.847 198.965 182.98C199.418 182.113 200.025 181.447 200.785 180.98C201.558 180.513 202.418 180.28 203.365 180.28C204.191 180.28 204.911 180.447 205.525 180.78C206.151 181.113 206.651 181.533 207.025 182.04V180.46H209.845V191.54H207.025V189.92C206.665 190.44 206.165 190.873 205.525 191.22C204.898 191.553 204.171 191.72 203.345 191.72C202.411 191.72 201.558 191.48 200.785 191C200.025 190.52 199.418 189.847 198.965 188.98C198.525 188.1 198.305 187.093 198.305 185.96ZM207.025 186C207.025 185.32 206.891 184.74 206.625 184.26C206.358 183.767 205.998 183.393 205.545 183.14C205.091 182.873 204.605 182.74 204.085 182.74C203.565 182.74 203.085 182.867 202.645 183.12C202.205 183.373 201.845 183.747 201.565 184.24C201.298 184.72 201.165 185.293 201.165 185.96C201.165 186.627 201.298 187.213 201.565 187.72C201.845 188.213 202.205 188.593 202.645 188.86C203.098 189.127 203.578 189.26 204.085 189.26C204.605 189.26 205.091 189.133 205.545 188.88C205.998 188.613 206.358 188.24 206.625 187.76C206.891 187.267 207.025 186.68 207.025 186ZM218.719 180.3C220.039 180.3 221.106 180.72 221.919 181.56C222.733 182.387 223.139 183.547 223.139 185.04V191.54H220.339V185.42C220.339 184.54 220.119 183.867 219.679 183.4C219.239 182.92 218.639 182.68 217.879 182.68C217.106 182.68 216.493 182.92 216.039 183.4C215.599 183.867 215.379 184.54 215.379 185.42V191.54H212.579V180.46H215.379V181.84C215.753 181.36 216.226 180.987 216.799 180.72C217.386 180.44 218.026 180.3 218.719 180.3ZM225.082 185.96C225.082 184.84 225.302 183.847 225.742 182.98C226.195 182.113 226.809 181.447 227.582 180.98C228.355 180.513 229.215 180.28 230.162 180.28C230.882 180.28 231.569 180.44 232.222 180.76C232.875 181.067 233.395 181.48 233.782 182V176.74H236.622V191.54H233.782V189.9C233.435 190.447 232.949 190.887 232.322 191.22C231.695 191.553 230.969 191.72 230.142 191.72C229.209 191.72 228.355 191.48 227.582 191C226.809 190.52 226.195 189.847 225.742 188.98C225.302 188.1 225.082 187.093 225.082 185.96ZM233.802 186C233.802 185.32 233.669 184.74 233.402 184.26C233.135 183.767 232.775 183.393 232.322 183.14C231.869 182.873 231.382 182.74 230.862 182.74C230.342 182.74 229.862 182.867 229.422 183.12C228.982 183.373 228.622 183.747 228.342 184.24C228.075 184.72 227.942 185.293 227.942 185.96C227.942 186.627 228.075 187.213 228.342 187.72C228.622 188.213 228.982 188.593 229.422 188.86C229.875 189.127 230.355 189.26 230.862 189.26C231.382 189.26 231.869 189.133 232.322 188.88C232.775 188.613 233.135 188.24 233.402 187.76C233.669 187.267 233.802 186.68 233.802 186ZM243.402 186C243.402 184.853 243.636 183.853 244.102 183C244.569 182.133 245.216 181.467 246.042 181C246.869 180.52 247.816 180.28 248.882 180.28C250.256 180.28 251.389 180.627 252.282 181.32C253.189 182 253.796 182.96 254.102 184.2H251.082C250.922 183.72 250.649 183.347 250.262 183.08C249.889 182.8 249.422 182.66 248.862 182.66C248.062 182.66 247.429 182.953 246.962 183.54C246.496 184.113 246.262 184.933 246.262 186C246.262 187.053 246.496 187.873 246.962 188.46C247.429 189.033 248.062 189.32 248.862 189.32C249.996 189.32 250.736 188.813 251.082 187.8H254.102C253.796 189 253.189 189.953 252.282 190.66C251.376 191.367 250.242 191.72 248.882 191.72C247.816 191.72 246.869 191.487 246.042 191.02C245.216 190.54 244.569 189.873 244.102 189.02C243.636 188.153 243.402 187.147 243.402 186ZM258.953 182.18C259.313 181.593 259.78 181.133 260.353 180.8C260.94 180.467 261.607 180.3 262.353 180.3V183.24H261.613C260.733 183.24 260.067 183.447 259.613 183.86C259.173 184.273 258.953 184.993 258.953 186.02V191.54H256.153V180.46H258.953V182.18ZM274.539 185.76C274.539 186.16 274.513 186.52 274.459 186.84H266.359C266.426 187.64 266.706 188.267 267.199 188.72C267.693 189.173 268.299 189.4 269.019 189.4C270.059 189.4 270.799 188.953 271.239 188.06H274.259C273.939 189.127 273.326 190.007 272.419 190.7C271.513 191.38 270.399 191.72 269.079 191.72C268.013 191.72 267.053 191.487 266.199 191.02C265.359 190.54 264.699 189.867 264.219 189C263.753 188.133 263.519 187.133 263.519 186C263.519 184.853 263.753 183.847 264.219 182.98C264.686 182.113 265.339 181.447 266.179 180.98C267.019 180.513 267.986 180.28 269.079 180.28C270.133 180.28 271.073 180.507 271.899 180.96C272.739 181.413 273.386 182.06 273.839 182.9C274.306 183.727 274.539 184.68 274.539 185.76ZM271.639 184.96C271.626 184.24 271.366 183.667 270.859 183.24C270.353 182.8 269.733 182.58 268.999 182.58C268.306 182.58 267.719 182.793 267.239 183.22C266.773 183.633 266.486 184.213 266.379 184.96H271.639ZM275.863 185.96C275.863 184.84 276.083 183.847 276.523 182.98C276.976 182.113 277.583 181.447 278.343 180.98C279.116 180.513 279.976 180.28 280.923 180.28C281.75 180.28 282.47 180.447 283.083 180.78C283.71 181.113 284.21 181.533 284.583 182.04V180.46H287.403V191.54H284.583V189.92C284.223 190.44 283.723 190.873 283.083 191.22C282.456 191.553 281.73 191.72 280.903 191.72C279.97 191.72 279.116 191.48 278.343 191C277.583 190.52 276.976 189.847 276.523 188.98C276.083 188.1 275.863 187.093 275.863 185.96ZM284.583 186C284.583 185.32 284.45 184.74 284.183 184.26C283.916 183.767 283.556 183.393 283.103 183.14C282.65 182.873 282.163 182.74 281.643 182.74C281.123 182.74 280.643 182.867 280.203 183.12C279.763 183.373 279.403 183.747 279.123 184.24C278.856 184.72 278.723 185.293 278.723 185.96C278.723 186.627 278.856 187.213 279.123 187.72C279.403 188.213 279.763 188.593 280.203 188.86C280.656 189.127 281.136 189.26 281.643 189.26C282.163 189.26 282.65 189.133 283.103 188.88C283.556 188.613 283.916 188.24 284.183 187.76C284.45 187.267 284.583 186.68 284.583 186ZM293.398 182.76V188.12C293.398 188.493 293.484 188.767 293.658 188.94C293.844 189.1 294.151 189.18 294.578 189.18H295.878V191.54H294.118C291.758 191.54 290.578 190.393 290.578 188.1V182.76H289.258V180.46H290.578V177.72H293.398V180.46H295.878V182.76H293.398ZM308.192 185.76C308.192 186.16 308.165 186.52 308.112 186.84H300.012C300.078 187.64 300.358 188.267 300.852 188.72C301.345 189.173 301.952 189.4 302.672 189.4C303.712 189.4 304.452 188.953 304.892 188.06H307.912C307.592 189.127 306.978 190.007 306.072 190.7C305.165 191.38 304.052 191.72 302.732 191.72C301.665 191.72 300.705 191.487 299.852 191.02C299.012 190.54 298.352 189.867 297.872 189C297.405 188.133 297.172 187.133 297.172 186C297.172 184.853 297.405 183.847 297.872 182.98C298.338 182.113 298.992 181.447 299.832 180.98C300.672 180.513 301.638 180.28 302.732 180.28C303.785 180.28 304.725 180.507 305.552 180.96C306.392 181.413 307.038 182.06 307.492 182.9C307.958 183.727 308.192 184.68 308.192 185.76ZM305.292 184.96C305.278 184.24 305.018 183.667 304.512 183.24C304.005 182.8 303.385 182.58 302.652 182.58C301.958 182.58 301.372 182.793 300.892 183.22C300.425 183.633 300.138 184.213 300.032 184.96H305.292ZM316.421 179.14C315.928 179.14 315.514 178.987 315.181 178.68C314.861 178.36 314.701 177.967 314.701 177.5C314.701 177.033 314.861 176.647 315.181 176.34C315.514 176.02 315.928 175.86 316.421 175.86C316.914 175.86 317.321 176.02 317.641 176.34C317.974 176.647 318.141 177.033 318.141 177.5C318.141 177.967 317.974 178.36 317.641 178.68C317.321 178.987 316.914 179.14 316.421 179.14ZM317.801 180.46V191.54H315.001V180.46H317.801ZM334.327 180.3C335.687 180.3 336.781 180.72 337.607 181.56C338.447 182.387 338.867 183.547 338.867 185.04V191.54H336.067V185.42C336.067 184.553 335.847 183.893 335.407 183.44C334.967 182.973 334.367 182.74 333.607 182.74C332.847 182.74 332.241 182.973 331.787 183.44C331.347 183.893 331.127 184.553 331.127 185.42V191.54H328.327V185.42C328.327 184.553 328.107 183.893 327.667 183.44C327.227 182.973 326.627 182.74 325.867 182.74C325.094 182.74 324.481 182.973 324.027 183.44C323.587 183.893 323.367 184.553 323.367 185.42V191.54H320.567V180.46H323.367V181.8C323.727 181.333 324.187 180.967 324.747 180.7C325.321 180.433 325.947 180.3 326.627 180.3C327.494 180.3 328.267 180.487 328.947 180.86C329.627 181.22 330.154 181.74 330.527 182.42C330.887 181.78 331.407 181.267 332.087 180.88C332.781 180.493 333.527 180.3 334.327 180.3ZM340.805 185.96C340.805 184.84 341.025 183.847 341.465 182.98C341.918 182.113 342.525 181.447 343.285 180.98C344.058 180.513 344.918 180.28 345.865 180.28C346.691 180.28 347.411 180.447 348.025 180.78C348.651 181.113 349.151 181.533 349.525 182.04V180.46H352.345V191.54H349.525V189.92C349.165 190.44 348.665 190.873 348.025 191.22C347.398 191.553 346.671 191.72 345.845 191.72C344.911 191.72 344.058 191.48 343.285 191C342.525 190.52 341.918 189.847 341.465 188.98C341.025 188.1 340.805 187.093 340.805 185.96ZM349.525 186C349.525 185.32 349.391 184.74 349.125 184.26C348.858 183.767 348.498 183.393 348.045 183.14C347.591 182.873 347.105 182.74 346.585 182.74C346.065 182.74 345.585 182.867 345.145 183.12C344.705 183.373 344.345 183.747 344.065 184.24C343.798 184.72 343.665 185.293 343.665 185.96C343.665 186.627 343.798 187.213 344.065 187.72C344.345 188.213 344.705 188.593 345.145 188.86C345.598 189.127 346.078 189.26 346.585 189.26C347.105 189.26 347.591 189.133 348.045 188.88C348.498 188.613 348.858 188.24 349.125 187.76C349.391 187.267 349.525 186.68 349.525 186ZM359.419 180.28C360.246 180.28 360.973 180.447 361.599 180.78C362.226 181.1 362.719 181.52 363.079 182.04V180.46H365.899V191.62C365.899 192.647 365.693 193.56 365.279 194.36C364.866 195.173 364.246 195.813 363.419 196.28C362.593 196.76 361.593 197 360.419 197C358.846 197 357.553 196.633 356.539 195.9C355.539 195.167 354.973 194.167 354.839 192.9H357.619C357.766 193.407 358.079 193.807 358.559 194.1C359.053 194.407 359.646 194.56 360.339 194.56C361.153 194.56 361.813 194.313 362.319 193.82C362.826 193.34 363.079 192.607 363.079 191.62V189.9C362.719 190.42 362.219 190.853 361.579 191.2C360.953 191.547 360.233 191.72 359.419 191.72C358.486 191.72 357.633 191.48 356.859 191C356.086 190.52 355.473 189.847 355.019 188.98C354.579 188.1 354.359 187.093 354.359 185.96C354.359 184.84 354.579 183.847 355.019 182.98C355.473 182.113 356.079 181.447 356.839 180.98C357.613 180.513 358.473 180.28 359.419 180.28ZM363.079 186C363.079 185.32 362.946 184.74 362.679 184.26C362.413 183.767 362.053 183.393 361.599 183.14C361.146 182.873 360.659 182.74 360.139 182.74C359.619 182.74 359.139 182.867 358.699 183.12C358.259 183.373 357.899 183.747 357.619 184.24C357.353 184.72 357.219 185.293 357.219 185.96C357.219 186.627 357.353 187.213 357.619 187.72C357.899 188.213 358.259 188.593 358.699 188.86C359.153 189.127 359.633 189.26 360.139 189.26C360.659 189.26 361.146 189.133 361.599 188.88C362.053 188.613 362.413 188.24 362.679 187.76C362.946 187.267 363.079 186.68 363.079 186ZM378.934 185.76C378.934 186.16 378.907 186.52 378.854 186.84H370.754C370.821 187.64 371.101 188.267 371.594 188.72C372.087 189.173 372.694 189.4 373.414 189.4C374.454 189.4 375.194 188.953 375.634 188.06H378.654C378.334 189.127 377.721 190.007 376.814 190.7C375.907 191.38 374.794 191.72 373.474 191.72C372.407 191.72 371.447 191.487 370.594 191.02C369.754 190.54 369.094 189.867 368.614 189C368.147 188.133 367.914 187.133 367.914 186C367.914 184.853 368.147 183.847 368.614 182.98C369.081 182.113 369.734 181.447 370.574 180.98C371.414 180.513 372.381 180.28 373.474 180.28C374.527 180.28 375.467 180.507 376.294 180.96C377.134 181.413 377.781 182.06 378.234 182.9C378.701 183.727 378.934 184.68 378.934 185.76ZM376.034 184.96C376.021 184.24 375.761 183.667 375.254 183.24C374.747 182.8 374.127 182.58 373.394 182.58C372.701 182.58 372.114 182.793 371.634 183.22C371.167 183.633 370.881 184.213 370.774 184.96H376.034ZM385.218 191.72C384.311 191.72 383.498 191.56 382.778 191.24C382.058 190.907 381.484 190.46 381.058 189.9C380.644 189.34 380.418 188.72 380.378 188.04H383.198C383.251 188.467 383.458 188.82 383.818 189.1C384.191 189.38 384.651 189.52 385.198 189.52C385.731 189.52 386.144 189.413 386.438 189.2C386.744 188.987 386.898 188.713 386.898 188.38C386.898 188.02 386.711 187.753 386.338 187.58C385.978 187.393 385.398 187.193 384.598 186.98C383.771 186.78 383.091 186.573 382.558 186.36C382.038 186.147 381.584 185.82 381.198 185.38C380.824 184.94 380.638 184.347 380.638 183.6C380.638 182.987 380.811 182.427 381.158 181.92C381.518 181.413 382.024 181.013 382.678 180.72C383.344 180.427 384.124 180.28 385.018 180.28C386.338 180.28 387.391 180.613 388.178 181.28C388.964 181.933 389.398 182.82 389.478 183.94H386.798C386.758 183.5 386.571 183.153 386.238 182.9C385.918 182.633 385.484 182.5 384.938 182.5C384.431 182.5 384.038 182.593 383.758 182.78C383.491 182.967 383.358 183.227 383.358 183.56C383.358 183.933 383.544 184.22 383.918 184.42C384.291 184.607 384.871 184.8 385.658 185C386.458 185.2 387.118 185.407 387.638 185.62C388.158 185.833 388.604 186.167 388.978 186.62C389.364 187.06 389.564 187.647 389.578 188.38C389.578 189.02 389.398 189.593 389.038 190.1C388.691 190.607 388.184 191.007 387.518 191.3C386.864 191.58 386.098 191.72 385.218 191.72ZM401.722 182.76H399.782V191.54H396.942V182.76H395.682V180.46H396.942V179.9C396.942 178.54 397.328 177.54 398.102 176.9C398.875 176.26 400.042 175.96 401.602 176V178.36C400.922 178.347 400.448 178.46 400.182 178.7C399.915 178.94 399.782 179.373 399.782 180V180.46H401.722V182.76ZM408.456 191.72C407.39 191.72 406.43 191.487 405.576 191.02C404.723 190.54 404.05 189.867 403.556 189C403.076 188.133 402.836 187.133 402.836 186C402.836 184.867 403.083 183.867 403.576 183C404.083 182.133 404.77 181.467 405.636 181C406.503 180.52 407.47 180.28 408.536 180.28C409.603 180.28 410.57 180.52 411.436 181C412.303 181.467 412.983 182.133 413.476 183C413.983 183.867 414.236 184.867 414.236 186C414.236 187.133 413.976 188.133 413.456 189C412.95 189.867 412.256 190.54 411.376 191.02C410.51 191.487 409.536 191.72 408.456 191.72ZM408.456 189.28C408.963 189.28 409.436 189.16 409.876 188.92C410.33 188.667 410.69 188.293 410.956 187.8C411.223 187.307 411.356 186.707 411.356 186C411.356 184.947 411.076 184.14 410.516 183.58C409.97 183.007 409.296 182.72 408.496 182.72C407.696 182.72 407.023 183.007 406.476 183.58C405.943 184.14 405.676 184.947 405.676 186C405.676 187.053 405.936 187.867 406.456 188.44C406.99 189 407.656 189.28 408.456 189.28ZM419.09 182.18C419.45 181.593 419.917 181.133 420.49 180.8C421.077 180.467 421.743 180.3 422.49 180.3V183.24H421.75C420.87 183.24 420.203 183.447 419.75 183.86C419.31 184.273 419.09 184.993 419.09 186.02V191.54H416.29V180.46H419.09V182.18ZM247.339 205.46L240.479 221.78H237.499L239.899 216.26L235.459 205.46H238.599L241.459 213.2L244.359 205.46H247.339ZM253.769 216.72C252.702 216.72 251.742 216.487 250.889 216.02C250.035 215.54 249.362 214.867 248.869 214C248.389 213.133 248.149 212.133 248.149 211C248.149 209.867 248.395 208.867 248.889 208C249.395 207.133 250.082 206.467 250.949 206C251.815 205.52 252.782 205.28 253.849 205.28C254.915 205.28 255.882 205.52 256.749 206C257.615 206.467 258.295 207.133 258.789 208C259.295 208.867 259.549 209.867 259.549 211C259.549 212.133 259.289 213.133 258.769 214C258.262 214.867 257.569 215.54 256.689 216.02C255.822 216.487 254.849 216.72 253.769 216.72ZM253.769 214.28C254.275 214.28 254.749 214.16 255.189 213.92C255.642 213.667 256.002 213.293 256.269 212.8C256.535 212.307 256.669 211.707 256.669 211C256.669 209.947 256.389 209.14 255.829 208.58C255.282 208.007 254.609 207.72 253.809 207.72C253.009 207.72 252.335 208.007 251.789 208.58C251.255 209.14 250.989 209.947 250.989 211C250.989 212.053 251.249 212.867 251.769 213.44C252.302 214 252.969 214.28 253.769 214.28ZM272.063 205.46V216.54H269.243V215.14C268.883 215.62 268.409 216 267.823 216.28C267.249 216.547 266.623 216.68 265.943 216.68C265.076 216.68 264.309 216.5 263.643 216.14C262.976 215.767 262.449 215.227 262.063 214.52C261.689 213.8 261.503 212.947 261.503 211.96V205.46H264.303V211.56C264.303 212.44 264.523 213.12 264.963 213.6C265.403 214.067 266.003 214.3 266.763 214.3C267.536 214.3 268.143 214.067 268.583 213.6C269.023 213.12 269.243 212.44 269.243 211.56V205.46H272.063ZM276.065 216.68C275.559 216.68 275.139 216.527 274.805 216.22C274.485 215.9 274.325 215.507 274.325 215.04C274.325 214.573 274.485 214.187 274.805 213.88C275.139 213.56 275.559 213.4 276.065 213.4C276.559 213.4 276.965 213.56 277.285 213.88C277.605 214.187 277.765 214.573 277.765 215.04C277.765 215.507 277.605 215.9 277.285 216.22C276.965 216.527 276.559 216.68 276.065 216.68Z" fill="#FFB8BC" />
    <defs>
        <filter id="filter0_d_1805_112" x="0" y="0" width="514" height="321.839" filterUnits="userSpaceOnUse" color-interpolation-filters="sRGB">
            <feFlood flood-opacity="0" result="BackgroundImageFix" />
            <feColorMatrix in="SourceAlpha" type="matrix" values="0 0 0 0 0 0 0 0 0 0 0 0 0 0 0 0 0 0 127 0" result="hardAlpha" />
            <feOffset dy="8" />
            <feGaussianBlur stdDeviation="12.5" />
            <feComposite in2="hardAlpha" operator="out" />
            <feColorMatrix type="matrix" values="0 0 0 0 0.298039 0 0 0 0 0.164706 0 0 0 0 0.462745 0 0 0 0.55 0" />
            <feBlend mode="normal" in2="BackgroundImageFix" result="effect1_dropShadow_1805_112" />
            <feBlend mode="normal" in="SourceGraphic" in2="effect1_dropShadow_1805_112" result="shape" />
        </filter>
        <filter id="filter1_d_1805_112" x="185.317" y="227.695" width="144.515" height="129.305" filterUnits="userSpaceOnUse" color-interpolation-filters="sRGB">
            <feFlood flood-opacity="0" result="BackgroundImageFix" />
            <feColorMatrix in="SourceAlpha" type="matrix" values="0 0 0 0 0 0 0 0 0 0 0 0 0 0 0 0 0 0 127 0" result="hardAlpha" />
            <feOffset dy="4" />
            <feGaussianBlur stdDeviation="10" />
            <feComposite in2="hardAlpha" operator="out" />
            <feColorMatrix type="matrix" values="0 0 0 0 0 0 0 0 0 0 0 0 0 0 0 0 0 0 0.2 0" />
            <feBlend mode="normal" in2="BackgroundImageFix" result="effect1_dropShadow_1805_112" />
            <feBlend mode="normal" in="SourceGraphic" in2="effect1_dropShadow_1805_112" result="shape" />
        </filter>
    </defs>
</svg>