<svg width="42" height="42" viewBox="0 0 42 42" fill="none" xmlns="http://www.w3.org/2000/svg">
<path d="M27.7787 16.0984L38.917 5.02863L38.8807 11.3035C38.869 11.8266 39.284 12.2817 39.8078 12.2701L40.4721 12.2694C40.9959 12.2571 41.429 11.9457 41.44 11.4226L41.4672 2.07508C41.4672 2.06606 41.4316 2.05894 41.4316 2.04988L41.4827 1.57596C41.4879 1.31311 41.4264 1.07874 41.2568 0.911099C41.0891 0.742121 40.8541 0.639181 40.5932 0.646303L40.1199 0.657309C40.1109 0.657309 40.1037 0.660546 40.094 0.661881L30.8081 0.621094C30.285 0.632747 29.8518 1.06523 29.8402 1.58899L29.8389 2.25329C29.9185 2.87028 30.4034 3.2309 30.9266 3.21924L37.0467 3.23543L25.9478 14.2669C25.4422 14.7725 25.4422 15.5921 25.9478 16.0984C26.4535 16.6034 27.2731 16.6034 27.7787 16.0984ZM13.7452 26.5231L2.60694 37.5584L2.64255 31.3179C2.65485 30.7941 2.23916 30.339 1.71605 30.3506L1.01104 30.3519C0.48663 30.3649 0.054111 30.6756 0.0431048 31.1994L0.015913 40.5469C0.015913 40.556 0.0515213 40.5618 0.0515213 40.5721L0.000374891 41.0447C-0.00545192 41.3076 0.0560533 41.5433 0.226326 41.7097C0.393361 41.8793 0.629023 41.9816 0.889287 41.9751L1.3632 41.9635C1.37222 41.9635 1.3787 41.9596 1.3891 41.9596L10.7158 42.0004C11.239 41.9874 11.6715 41.5549 11.6837 41.0318L11.685 40.3669C11.6054 39.7512 11.1205 39.3893 10.5974 39.401L4.47731 39.3848L15.5754 28.3546C16.0811 27.849 16.0811 27.0294 15.5754 26.5237C15.0698 26.0181 14.2508 26.0174 13.7451 26.5231H13.7452ZM41.4679 40.5463L41.4407 31.1987C41.4291 30.6749 40.9959 30.3642 40.4728 30.3512L39.8086 30.3499C39.2848 30.3382 38.8704 30.794 38.8815 31.3171L38.9177 37.5919L27.7788 26.523C27.2732 26.0173 26.4535 26.0173 25.9479 26.523C25.4422 27.0286 25.4422 27.8482 25.9479 28.3539L37.046 39.384L30.9266 39.4002C30.4034 39.3885 29.9185 39.7505 29.8389 40.3662L29.8402 41.0311C29.8525 41.5548 30.2856 41.9873 30.8081 41.9996L40.0947 41.9589C40.1044 41.9589 40.1116 41.9627 40.1206 41.9627L40.5939 41.9744C40.8548 41.9808 41.0905 41.8785 41.2575 41.7089C41.4272 41.5419 41.488 41.3069 41.4834 41.044L41.4323 40.5714C41.4323 40.5611 41.468 40.5552 41.468 40.5462L41.4679 40.5463ZM4.47735 3.23644L10.5981 3.22038C11.1212 3.23203 11.6061 2.87077 11.6858 2.25438L11.6845 1.58952C11.6715 1.06579 11.2389 0.632626 10.7165 0.62162L1.3891 0.66176C1.37874 0.660465 1.37226 0.657228 1.3632 0.657228L0.889287 0.646181C0.629063 0.6391 0.392754 0.74204 0.226326 0.910977C0.0560533 1.07866 -0.00541145 1.31303 0.000374891 1.57588L0.0515213 2.04979C0.0515213 2.05882 0.015913 2.06533 0.015913 2.07504L0.0431048 11.4225C0.0547584 11.9457 0.487278 12.2571 1.01104 12.2694L1.71609 12.27C2.2392 12.2816 2.65416 11.8265 2.64251 11.3034L2.6069 5.06286L13.7452 16.0982C14.2502 16.6039 15.0705 16.6039 15.5762 16.0982C16.0818 15.5925 16.0818 14.7723 15.5762 14.2666L4.47735 3.23644Z" fill="#FFB8BC"/>
</svg>
