<svg width="41" height="42" viewBox="0 0 41 42" fill="none" xmlns="http://www.w3.org/2000/svg">
<g clip-path="url(#clip0_1366_306)">
<path d="M3.44024 1.58691C6.83443 5.42013 10.172 9.18253 13.4859 12.9654C13.6244 13.1227 13.648 13.5854 13.5221 13.7396C11.6039 16.0685 11.7093 19.0551 13.8824 21.469C15.5788 23.3541 17.3034 25.2266 19.1586 26.9544C21.5379 29.17 24.0241 29.2361 26.7228 27.3934C26.9147 27.2628 27.1177 27.148 27.3632 26.9953C31.1256 30.5909 34.8723 34.1708 38.6284 37.7601C36.2995 40.4997 33.3239 41.5005 29.8919 41.2283C25.9848 40.9183 22.6 39.17 19.434 37.0316C12.5496 32.3817 7.00752 26.4524 2.9666 19.1747C1.41821 16.3879 0.206557 13.4453 0.0240234 10.2148C-0.163231 6.87096 0.722688 3.89534 3.44024 1.58691Z" fill="#270641"/>
<path d="M22.5937 1.82434C26.0241 2.21301 29.2861 3.42938 32.1799 5.53009C37.4435 9.35229 40.331 14.5435 40.9242 21.0156C41.0029 21.8748 40.641 22.3988 39.9565 22.4397C39.294 22.479 38.9038 22.0573 38.8172 21.228C38.0682 14.0101 34.5025 8.70556 27.9407 5.56157C26.3829 4.81569 24.6158 4.50885 22.9415 4.00845C22.718 3.94079 22.4773 3.92663 22.2444 3.89201C21.5536 3.79287 21.2121 3.38689 21.2877 2.70239C21.3616 2.02733 21.8353 1.80546 22.5937 1.82434Z" fill="#270641"/>
<path d="M4.28223 0.836467C5.34753 -0.110821 6.35147 -0.241428 7.48916 0.383279C7.58043 0.433633 7.68114 0.474546 7.75981 0.54221C10.5529 2.93246 13.1933 5.46119 14.7307 8.88999C15.239 10.023 15.2673 11.2094 14.5057 12.3975C11.0596 8.50289 7.67012 4.66968 4.28223 0.836467Z" fill="#270641"/>
<path d="M34.0796 19.9649C34.1299 20.8399 33.7963 21.3639 33.148 21.4284C32.5107 21.4913 32.0812 21.0602 31.9742 20.1554C31.5131 16.2639 29.5729 13.3937 26.0276 11.7084C25.0756 11.2568 23.9914 11.0743 22.9576 10.8084C22.229 10.6211 21.8467 10.1962 21.9395 9.56208C22.0323 8.93266 22.5217 8.61794 23.2881 8.69505C28.8915 9.26153 33.757 14.341 34.0796 19.9649Z" fill="#270641"/>
<path d="M28.4014 26.4178C29.5359 25.9552 30.5288 26.0826 31.421 26.5437C32.3888 27.0457 33.3801 27.5996 34.1653 28.3376C35.8601 29.9332 37.4919 31.6074 39.0167 33.3651C39.5186 33.9442 39.6854 34.8616 39.8585 35.6547C39.9403 36.0244 39.6744 36.4698 39.5171 37.0614C35.7389 33.4438 32.115 29.9741 28.4014 26.4178Z" fill="#270641"/>
</g>
<defs>
<clipPath id="clip0_1366_306">
<rect width="40.9332" height="41.27" fill="white"/>
</clipPath>
</defs>
</svg>
