<svg width="50" height="50" viewBox="0 0 50 50" fill="none" xmlns="http://www.w3.org/2000/svg">
    <g clip-path="url(#clip0_1366_387)">
        <path
            d="M50.0001 24.9776C50.0304 38.8236 38.6899 50.1329 24.7572 49.9988C11.3164 49.8695 0.0484867 38.9868 0.000147144 25.0163C-0.0469839 11.2573 11.2343 -0.00120842 25.0183 9.72846e-08C38.7769 0.00120861 49.9989 11.2223 50.0001 24.9776ZM25.0098 3.09501C12.9805 3.08414 3.16155 12.8768 3.08542 24.8471C3.00807 37.0519 12.9914 46.8252 24.8128 46.9183C36.9013 47.0138 46.9149 37.1631 46.9233 25.0441C46.9306 12.9384 37.1346 3.1071 25.0098 3.09501Z"
            fill="#270641" />
        <path
            d="M24.959 40.4824C29.4121 40.4824 32.6963 38.5342 35.2754 35.9922L32.5664 32.207C30.5068 34.248 27.8721 35.7695 24.8105 35.7695C19.4482 35.7695 14.1973 31.1123 14.1973 25.082C14.1973 19.0889 19.374 14.3389 24.792 14.3389C27.7236 14.3389 30.4512 15.7305 32.5479 17.8271L35.2754 14.1348C32.3438 11.2773 28.7627 9.62598 24.8848 9.57031C16.4795 9.57031 9.44727 16.6396 9.44727 25.0635C9.44727 33.5059 16.4795 40.4824 24.959 40.4824Z"
            fill="#270641" />
    </g>
    <defs>
        <clipPath id="clip0_1366_387">
            <rect width="50" height="50" fill="white" />
        </clipPath>
    </defs>
</svg>