<svg width="46" height="36" viewBox="0 0 46 36" fill="none" xmlns="http://www.w3.org/2000/svg">
<g clip-path="url(#clip0_1366_377)">
<path d="M0.618344 3.53854C2.42608 0.593418 5.10093 -0.491168 8.37691 0.202185C11.9189 0.949875 14.4899 3.03645 15.3311 6.68579C15.6468 8.05511 15.3073 9.57657 15.2576 11.3393C17.2404 12.4826 19.5628 13.8497 21.9263 15.1386C22.1944 15.2842 22.7393 15.056 23.094 14.8778C28.9713 11.8827 34.8399 8.86801 40.7108 5.85768C42.4817 4.94915 44.4581 5.3143 45.9999 6.89662C39.6253 10.5807 33.2766 14.2496 26.7981 17.9946C33.2636 21.7309 39.595 25.3911 45.9307 29.0535C44.8668 30.5836 42.5098 31.0596 40.7086 30.1337C35.9319 27.6755 31.1574 25.215 26.3808 22.759C25.2261 22.1656 24.0757 21.5614 22.9015 21.0158C22.5837 20.868 22.0906 20.755 21.8268 20.8984C19.5239 22.1678 17.2556 23.498 14.89 24.8608C15.8479 27.0473 15.796 29.1795 14.6607 31.2444C13.6271 33.1245 12.0854 34.4416 10.1392 35.2806C7.79091 36.2935 5.20472 36.3109 3.03587 34.8503C1.89198 34.0808 0.897289 33.1201 0.510226 31.7747C0.0604537 30.2185 0.123162 28.3797 0.877828 26.9213C2.32445 24.0739 4.65764 22.4634 7.75199 21.857C9.51648 21.5114 11.3069 21.2049 13.0022 20.6311C14.8489 20.0051 16.6004 19.0879 18.393 18.2967C18.4016 18.1402 18.4038 18.1142 18.4146 17.9577C17.7767 17.5686 17.1604 17.1404 16.5052 16.7861C13.9666 15.419 11.2226 14.6843 8.39853 14.2496C5.92695 13.8693 3.7581 12.9325 2.132 10.972C1.5633 10.2873 1.12001 9.49833 0.620506 8.75933C-0.123347 7.25743 -0.285525 5.5686 0.618344 3.53854ZM8.9348 25.3868C6.81785 25.5237 5.12904 26.5474 4.13003 28.5492C3.25211 30.3076 4.11921 31.9312 6.02858 32.2833C7.96174 32.6398 10.3403 31.477 11.4107 29.6251C11.9578 28.6796 12.2281 27.6798 11.6313 26.6561C11.0582 25.6758 10.0873 25.4454 8.9348 25.3868ZM8.7337 10.5894C11.2356 10.572 12.4313 9.05493 11.7826 7.13136C11.0734 5.02957 8.40935 3.37118 6.22968 3.67547C4.13651 3.96672 3.19805 5.67945 4.18408 7.55085C5.20472 9.48746 6.87839 10.4699 8.7337 10.5894Z" fill="#270641"/>
</g>
<defs>
<clipPath id="clip0_1366_377">
<rect width="46" height="36" fill="white"/>
</clipPath>
</defs>
</svg>
