<svg width="55" height="57" viewBox="0 0 55 57" fill="none" xmlns="http://www.w3.org/2000/svg">
<path fill-rule="evenodd" clip-rule="evenodd" d="M6 3.22019H34.6239C36.1591 3.22019 37.4037 4.46475 37.4037 6V20.0784C38.5027 20.1195 39.5785 20.2513 40.6239 20.4664V6C40.6239 2.68629 37.9376 0 34.6239 0H6C2.68629 0 0 2.68629 0 6V43.0459C0 46.3596 2.68629 49.0459 6 49.0459H19.4981C18.9367 48.0246 18.4639 46.9477 18.0899 45.8257H6C4.46475 45.8257 3.22019 44.5811 3.22019 43.0459V6C3.22019 4.46475 4.46475 3.22019 6 3.22019Z" fill="#270641"/>
<circle cx="36.6637" cy="39.6334" r="15.9771" stroke="#270641" stroke-width="2.72477"/>
<path d="M10.0352 10.4033H31.0902" stroke="#270641" stroke-width="2.97248"/>
<path d="M10.1562 18.082H24.0278" stroke="#270641" stroke-width="2.97248"/>
<path d="M43.1016 47.5596V47.5596C39.5759 43.7012 33.4988 43.7012 29.9731 47.5596V47.5596" stroke="#270641" stroke-width="2.47707" stroke-linecap="round" stroke-linejoin="round"/>
<path d="M28.4844 33.6875L33.7243 36.2027" stroke="#270641" stroke-width="2.51517" stroke-linecap="round"/>
<path d="M44.832 33.6875L39.5921 36.2027" stroke="#270641" stroke-width="2.51517" stroke-linecap="round"/>
</svg>
