<svg width="73" height="73" viewBox="0 0 73 73" fill="none" xmlns="http://www.w3.org/2000/svg">
<path d="M36.655 25.16C35.9317 25.16 35.325 24.915 34.835 24.425C34.345 23.935 34.1 23.3283 34.1 22.605C34.1 21.8817 34.345 21.275 34.835 20.785C35.325 20.295 35.9317 20.05 36.655 20.05C37.355 20.05 37.95 20.295 38.44 20.785C38.93 21.275 39.175 21.8817 39.175 22.605C39.175 23.3283 38.93 23.935 38.44 24.425C37.95 24.915 37.355 25.16 36.655 25.16ZM38.615 27.715V47H34.625V27.715H38.615Z" fill="#270641"/>
<path d="M31.7369 11.25C33.8538 7.58333 39.1462 7.58333 41.2631 11.25L60.7487 45C62.8657 48.6667 60.2195 53.25 55.9856 53.25H17.0144C12.7805 53.25 10.1343 48.6667 12.2513 45L31.7369 11.25Z" stroke="#270641" stroke-width="3"/>
</svg>
