<svg width="41" height="56" viewBox="0 0 41 56" fill="none" xmlns="http://www.w3.org/2000/svg">
<path d="M33.8611 6.75196V37.0394L25.9339 29.2327L24.5988 27.9178C24.2868 27.6106 23.9204 27.3712 23.5213 27.2104C22.959 26.9782 22.3386 26.9031 21.7109 27.0032C20.0892 27.264 18.9391 28.711 18.9391 30.3295V30.6582C18.9391 31.5265 19.2874 32.3554 19.9114 32.9699L20.0602 33.1164L23.6265 36.625C24.0183 37.0109 24.236 37.5361 24.236 38.0792V43.7279C24.236 44.9284 25.8686 46.2111 26.7793 46.8363C26.9534 46.9542 26.8663 47.2222 26.6559 47.2222H6.82524C4.15866 47.2222 2 45.0963 2 42.4738V6.75196C2 4.12945 4.15866 2 6.82524 2H29.0359C31.7024 2 33.8611 4.12945 33.8611 6.75196Z" stroke="#270641" stroke-width="2.36389" stroke-miterlimit="10"/>
<path d="M39.0001 34.8473V50.8934C39.0001 52.8378 37.4665 54.417 35.5701 54.417H16.7393C14.8429 54.417 13.3057 52.8378 13.3057 50.8934V47.5912H26.7922C27.0005 47.5912 27.0867 47.3145 26.9143 47.1927C26.0092 46.547 24.3966 45.2225 24.3966 43.9828V38.1495C24.3966 37.5887 24.1811 37.0463 23.7932 36.6478L20.2626 33.0246L20.1154 32.8734C19.4976 32.2387 19.1528 31.3828 19.1528 30.4862V30.1467C19.1528 28.4753 20.2914 26.981 21.8968 26.7117C22.5182 26.6084 23.1323 26.6859 23.689 26.9257C24.0841 27.0917 24.4469 27.3389 24.7557 27.6562L26.0775 29.014L33.9252 37.0758V28.0769L37.7251 31.7923C38.5404 32.5893 39.0001 33.6924 39.0001 34.8473Z" stroke="#270641" stroke-width="2.36389" stroke-miterlimit="10"/>
<path d="M27.6948 23.0696C27.6948 25.1828 27.0233 27.137 25.8784 28.7342L24.578 27.4338C24.2741 27.1299 23.9171 26.8931 23.5284 26.7341C23.1397 26.5715 22.7227 26.4867 22.2951 26.4867C20.5106 26.4867 19.0652 27.9321 19.0652 29.7166V30.1478C19.0652 31.0029 18.8683 31.7117 19.4725 32.3196L19.6174 32.4644C18.9036 32.6341 18.6977 32.8334 17.9309 32.8334C12.5383 32.8334 8.16699 28.4621 8.16699 23.0696C8.16699 17.677 12.5383 13.3057 17.9309 13.3057C23.3235 13.3057 27.6948 17.677 27.6948 23.0696Z" stroke="#270641" stroke-width="2.36389" stroke-miterlimit="10"/>
<path d="M2 8.16699H33.8611" stroke="#270641" stroke-width="2.36389" stroke-miterlimit="10"/>
<path d="M2 40.0273H24.6111" stroke="#270641" stroke-width="2.36389" stroke-miterlimit="10"/>
<path d="M21.7094 25.1356C21.7094 25.6506 21.5806 26.1346 21.3232 26.5877C21.076 27.0409 20.7052 27.4219 20.2109 27.7309C19.7269 28.0399 19.1501 28.2252 18.4807 28.287V29.5383H17.4766V28.287C16.5085 28.1943 15.7258 27.8905 15.1285 27.3756C14.5312 26.8607 14.2325 26.1809 14.2325 25.3365H16.1172C16.1481 25.7381 16.2768 26.0728 16.5034 26.3406C16.73 26.598 17.0544 26.7628 17.4766 26.8349V23.4364C16.7866 23.2613 16.2253 23.0862 15.7928 22.9111C15.3602 22.7258 14.9895 22.4374 14.6805 22.046C14.3819 21.6547 14.2325 21.1192 14.2325 20.4395C14.2325 19.5847 14.5312 18.8792 15.1285 18.3231C15.7258 17.7567 16.5085 17.4271 17.4766 17.3344V16.0831H18.4807V17.3344C19.387 17.4168 20.1131 17.7052 20.6589 18.1995C21.215 18.6835 21.5291 19.3529 21.6012 20.2077H19.7166C19.6857 19.8885 19.5621 19.6053 19.3458 19.3581C19.1296 19.1006 18.8412 18.9256 18.4807 18.8329V22.1696C19.1707 22.3344 19.732 22.5095 20.1646 22.6949C20.5971 22.8699 20.9627 23.1531 21.2614 23.5445C21.56 23.9255 21.7094 24.4559 21.7094 25.1356ZM16.0245 20.3468C16.0245 20.769 16.1481 21.0986 16.3953 21.3354C16.6527 21.5723 17.0132 21.7628 17.4766 21.907V18.7865C17.0338 18.838 16.6785 18.9976 16.4107 19.2654C16.1532 19.5332 16.0245 19.8936 16.0245 20.3468ZM18.4807 26.8349C18.9339 26.7628 19.2892 26.5826 19.5466 26.2942C19.8041 25.9956 19.9328 25.6403 19.9328 25.2283C19.9328 24.8164 19.8041 24.4971 19.5466 24.2706C19.2995 24.0337 18.9442 23.8432 18.4807 23.699V26.8349Z" fill="#270641"/>
</svg>
