<svg width="50" height="49" viewBox="0 0 50 49" fill="none" xmlns="http://www.w3.org/2000/svg">
<g clip-path="url(#clip0_1366_320)">
<path d="M17.7547 22.9C15.2407 20.3883 12.6909 17.841 10.1709 15.3245C13.5944 11.9011 17.025 8.46923 20.4247 5.06836C22.9221 7.57408 25.4742 10.1345 28.0002 12.6676C24.6279 16.0352 21.1961 19.4634 17.7547 22.9Z" fill="#270641"/>
<path d="M-1.99902 48.8399C-1.95736 47.9531 -2.01212 47.0913 -1.85618 46.2687C-1.59668 44.8951 -0.294422 43.9285 1.19234 43.913C3.19573 43.8916 5.19911 43.9059 7.20249 43.9059C13.7483 43.9059 20.2953 43.9487 26.8411 43.8821C28.9945 43.8606 30.5622 45.3522 30.4432 47.5091C30.4194 47.9388 30.4396 48.3721 30.4396 48.8399C19.6311 48.8399 8.88686 48.8399 -1.99902 48.8399Z" fill="#270641"/>
<path d="M47.0667 36.4293C46.8465 36.8376 46.7227 37.2554 46.4549 37.5339C45.2324 38.8064 43.9777 40.048 42.7183 41.2836C42.0553 41.9335 41.2042 41.9466 40.5423 41.2919C38.2163 38.9909 35.9023 36.6781 33.6001 34.3533C32.9776 33.7248 32.9799 32.851 33.5977 32.219C34.8452 30.9417 36.107 29.6799 37.3855 28.4348C38.0259 27.8098 38.8818 27.8146 39.5174 28.4419C41.8434 30.7417 44.1622 33.0498 46.462 35.3758C46.7203 35.6389 46.8453 36.0341 47.0667 36.4293Z" fill="#270641"/>
<path d="M0.558277 42.8245C0.247592 40.6032 1.66413 38.9201 3.83178 38.9177C10.7704 38.9093 17.709 38.9082 24.6477 38.9189C26.8034 38.9224 28.2771 40.7211 27.8629 42.8245C18.7744 42.8245 9.68123 42.8245 0.558277 42.8245Z" fill="#270641"/>
<path d="M22.1016 20.3562C23.2241 19.2266 24.3894 18.0529 25.5358 16.8994C29.1378 20.5074 32.7601 24.1333 36.3693 27.7484C35.2182 28.8697 34.0338 30.0232 32.8839 31.1421C29.339 27.5972 25.7084 23.9642 22.1016 20.3562Z" fill="#270641"/>
<path d="M33.0896 9.95937C33.042 10.9295 32.548 11.7461 31.5457 12.1782C30.4958 12.6306 29.5149 12.4318 28.7007 11.6318C27.0211 9.97961 25.3629 8.30477 23.6964 6.63826C22.9679 5.90975 22.2359 5.1872 21.5157 4.45037C20.4372 3.3469 20.411 1.75181 21.4431 0.73286C22.4715 -0.282521 24.0654 -0.243239 25.1606 0.844754C27.5187 3.18977 29.8649 5.54669 32.2242 7.89171C32.773 8.43571 33.0884 9.06422 33.0896 9.95937Z" fill="#270641"/>
<path d="M15.0231 27.9111C14.3101 27.9301 13.6947 27.6908 13.1923 27.1921C10.7461 24.759 8.294 22.333 5.86922 19.8785C4.87051 18.8679 4.91693 17.268 5.90374 16.2872C6.90365 15.292 8.46303 15.2468 9.48912 16.255C11.9496 18.6738 14.391 21.1117 16.817 23.5638C17.6181 24.3745 17.805 25.3684 17.3289 26.4148C16.8884 27.3837 16.0992 27.8884 15.0231 27.9111Z" fill="#270641"/>
</g>
<defs>
<clipPath id="clip0_1366_320">
<rect width="49.0656" height="48.8406" fill="white"/>
</clipPath>
</defs>
</svg>
