<svg width="59" height="53" viewBox="0 0 59 53" fill="none" xmlns="http://www.w3.org/2000/svg">
<path d="M30.8309 44.5239H15.4157C8.6716 44.5239 5.78125 40.5189 5.78125 34.5115V14.4869C5.78125 8.47953 8.6716 4.47461 15.4157 4.47461H30.8309C37.5751 4.47461 40.4654 8.47953 40.4654 14.4869V19.0583" stroke="#270641" stroke-width="2.72033" stroke-miterlimit="10" stroke-linecap="round" stroke-linejoin="round"/>
<path d="M27.9395 9.48047V13.4854C27.9395 15.6881 29.6737 17.4903 31.7932 17.4903H35.647" stroke="#270641" stroke-width="2.72033" stroke-miterlimit="10" stroke-linecap="round" stroke-linejoin="round"/>
<path d="M20.6094 34.5117L12.9018 34.5117" stroke="#270641" stroke-width="2.72033" stroke-miterlimit="10" stroke-linecap="round" stroke-linejoin="round"/>
<path d="M28.3008 26.502L12.8856 26.502" stroke="#270641" stroke-width="2.72033" stroke-miterlimit="10" stroke-linecap="round" stroke-linejoin="round"/>
<path d="M42.7806 31.7103C42.501 31.7103 42.2665 31.6156 42.0772 31.4262C41.8878 31.2368 41.7931 31.0023 41.7931 30.7228C41.7931 30.4432 41.8878 30.2087 42.0772 30.0193C42.2665 29.8299 42.501 29.7353 42.7806 29.7353C43.0511 29.7353 43.2811 29.8299 43.4705 30.0193C43.6599 30.2087 43.7546 30.4432 43.7546 30.7228C43.7546 31.0023 43.6599 31.2368 43.4705 31.4262C43.2811 31.6156 43.0511 31.7103 42.7806 31.7103ZM43.5381 32.6978V40.1514H41.996V32.6978H43.5381Z" fill="#270641"/>
<path d="M40.9899 26.4676C41.703 25.2325 43.4857 25.2325 44.1987 26.4676L52.1666 40.2683C52.8796 41.5033 51.9883 43.0472 50.5622 43.0472H34.6265C33.2004 43.0472 32.309 41.5033 33.0221 40.2683L40.9899 26.4676Z" stroke="#270641" stroke-width="2.68868"/>
</svg>
