<svg width="59" height="55" viewBox="0 0 59 55" fill="none" xmlns="http://www.w3.org/2000/svg">
<path d="M53.7138 25.2173V11.1971H39.496V1H19.2632V6.80838H4.45185V25.2674C2.49413 25.6179 1 27.3262 1 29.3792V49.8204C1 52.1267 2.88095 54 5.19006 54H53.3536C55.6657 54 57.5437 52.1238 57.5437 49.8204V29.3792C57.5466 27.1966 55.8576 25.3999 53.7138 25.2173ZM52.2374 12.6698V25.1967H39.496V12.6698H52.2374ZM20.7396 2.47271H38.0196V11.9334V12.6698V25.1967H20.7396V8.28109V7.54474V2.47271ZM19.2632 8.28109V25.1996H5.92827V8.28109H19.2632ZM5.19006 26.6723H53.3536C54.8507 26.6723 56.0672 27.8858 56.0672 29.3792V29.874L40.0068 38.8605C39.6259 33.2819 34.9575 28.8637 29.2733 28.8637C23.5891 28.8637 18.9237 33.2819 18.5368 38.8546L2.47641 29.874V29.3792C2.47641 27.8858 3.69298 26.6723 5.19006 26.6723ZM38.5599 39.5998C38.5599 44.7072 34.3935 48.8661 29.2704 48.8661C24.1472 48.8661 19.9808 44.7101 19.9808 39.5998C19.9808 34.4895 24.1502 30.3364 29.2733 30.3364C34.3965 30.3364 38.5599 34.4924 38.5599 39.5998ZM53.3536 52.5302H5.19006C3.69298 52.5302 2.47641 51.3167 2.47641 49.8234V31.5647L18.5516 40.5512C19.0359 46.0297 23.657 50.3388 29.2704 50.3388C34.8837 50.3388 39.5019 46.0326 39.9891 40.5571L56.0672 31.5617V49.8204C56.0702 51.3138 54.8507 52.5302 53.3536 52.5302Z" fill="#270641" stroke="#270641"/>
<path d="M11.5389 48.71H5.44426C5.03677 48.71 4.70605 49.0398 4.70605 49.4463C4.70605 49.8528 5.03677 50.1827 5.44426 50.1827H11.5389C11.9464 50.1827 12.2771 49.8528 12.2771 49.4463C12.2771 49.0398 11.9464 48.71 11.5389 48.71Z" fill="#270641" stroke="#270641"/>
<path d="M11.5389 45.1689H5.44426C5.03677 45.1689 4.70605 45.4988 4.70605 45.9053C4.70605 46.3118 5.03677 46.6417 5.44426 46.6417H11.5389C11.9464 46.6417 12.2771 46.3118 12.2771 45.9053C12.2771 45.4988 11.9464 45.1689 11.5389 45.1689Z" fill="#270641" stroke="#270641"/>
<path d="M52.9754 48.71H46.8808C46.4733 48.71 46.1426 49.0398 46.1426 49.4463C46.1426 49.8528 46.4733 50.1827 46.8808 50.1827H52.9754C53.3829 50.1827 53.7136 49.8528 53.7136 49.4463C53.7136 49.0398 53.3829 48.71 52.9754 48.71Z" fill="#270641" stroke="#270641"/>
<path d="M31.3016 39.876C30.9207 39.6139 30.3951 39.3723 29.7189 39.1514C29.0427 38.9335 28.5555 38.689 28.2602 38.421C27.9649 38.1529 27.8173 37.7936 27.8173 37.34C27.8173 36.851 27.9561 36.4711 28.2366 36.2001C28.5171 35.9291 28.9187 35.7907 29.4472 35.7907C29.9522 35.7907 30.3538 35.9763 30.652 36.3444C30.9502 36.7126 31.0979 37.2104 31.0979 37.8348H32.3233C32.3233 36.9276 32.1166 36.2119 31.7002 35.6905C31.2868 35.1692 30.7051 34.857 29.961 34.7539V33.293H28.9689V34.748C28.2277 34.8364 27.646 35.1132 27.2208 35.5786C26.7956 36.044 26.5859 36.639 26.5859 37.3635C26.5859 38.0763 26.8015 38.6625 27.2356 39.1249C27.6667 39.5873 28.3576 39.9614 29.3025 40.2501C29.9817 40.4769 30.463 40.7272 30.7494 41.007C31.0359 41.2869 31.1776 41.6285 31.1776 42.035C31.1776 42.518 31.0122 42.898 30.6786 43.1778C30.3449 43.4576 29.8902 43.5961 29.3085 43.5961C28.7149 43.5961 28.2543 43.4311 27.9295 43.0983C27.6047 42.7655 27.4423 42.2912 27.4423 41.6786H26.2109C26.2109 42.5563 26.4442 43.2485 26.9137 43.761C27.3803 44.2735 28.0299 44.5651 28.8537 44.6417V45.9082H29.84V44.6417C30.652 44.5563 31.2839 44.2882 31.7327 43.8317C32.1816 43.3752 32.4089 42.7743 32.4089 42.0262C32.4089 41.5578 32.3203 41.1484 32.1402 40.7979C31.9601 40.4445 31.6825 40.1381 31.3016 39.876Z" fill="#270641" stroke="#270641"/>
<path d="M16.0975 12.0693H9.01074V13.6481H16.0975V12.0693Z" fill="#270641" stroke="#270641"/>
<path d="M16.0975 15.6709H9.01074V17.2496H16.0975V15.6709Z" fill="#270641" stroke="#270641"/>
<path d="M16.0975 19.2734H9.01074V20.8522H16.0975V19.2734Z" fill="#270641" stroke="#270641"/>
<path d="M48.6881 15.0264H42.5049V16.4048H48.6881V15.0264Z" fill="#270641" stroke="#270641"/>
<path d="M48.6881 18.1689H42.5049V19.5474H48.6881V18.1689Z" fill="#270641" stroke="#270641"/>
<path d="M48.6881 21.3125H42.5049V22.691H48.6881V21.3125Z" fill="#270641" stroke="#270641"/>
<path d="M26.4587 5.02441H24.876V22.0902H26.4587V5.02441Z" fill="#270641" stroke="#270641"/>
<path d="M30.0583 5.02441H28.4756V22.0902H30.0583V5.02441Z" fill="#270641" stroke="#270641"/>
<path d="M33.6608 5.02441H32.0781V22.0902H33.6608V5.02441Z" fill="#270641" stroke="#270641"/>
</svg>
