<svg width="54" height="54" viewBox="0 0 54 54" fill="none" xmlns="http://www.w3.org/2000/svg">
<path d="M23.6029 5.01727L12.3754 9.24727C9.78785 10.2148 7.67285 13.2748 7.67285 16.0198V32.7373C7.67285 35.3923 9.42785 38.8798 11.5654 40.4773L21.2404 47.6998C24.4129 50.0848 29.6329 50.0848 32.8054 47.6998L42.4804 40.4773C44.6178 38.8798 46.3729 35.3923 46.3729 32.7373V16.0198C46.3729 13.2523 44.2579 10.1923 41.6704 9.22477L30.4429 5.01727C28.5304 4.31977 25.4704 4.31977 23.6029 5.01727Z" stroke="#270641" stroke-width="3" stroke-linecap="round" stroke-linejoin="round"/>
<path d="M27 27.4092C29.4853 27.4092 31.5 25.3945 31.5 22.9092C31.5 20.4239 29.4853 18.4092 27 18.4092C24.5147 18.4092 22.5 20.4239 22.5 22.9092C22.5 25.3945 24.5147 27.4092 27 27.4092Z" stroke="#270641" stroke-width="3" stroke-miterlimit="10" stroke-linecap="round" stroke-linejoin="round"/>
<path d="M27 27.5117V36.7163" stroke="#270641" stroke-width="3" stroke-miterlimit="10" stroke-linecap="round" stroke-linejoin="round"/>
</svg>
