<svg width="43" height="48" viewBox="0 0 43 48" fill="none" xmlns="http://www.w3.org/2000/svg">
<g clip-path="url(#clip0_1366_473)">
<path d="M41.8988 26.2864C39.9949 22.7829 36.2768 20.9793 32.3444 21.6504C25.4612 22.8271 22.3595 31.0747 26.8492 36.437C27.658 37.4039 27.9137 38.3201 27.8897 39.5011C27.8372 42.2474 27.8744 44.9959 27.8744 48.0004C29.6558 46.7929 31.2231 45.7928 32.7182 44.6934C33.5554 44.0775 34.209 44.0687 35.0505 44.6934C36.5041 45.7752 38.0451 46.7377 39.7348 47.8768C39.8091 47.2388 39.8943 46.8216 39.8965 46.4065C39.9096 43.8678 39.9249 41.329 39.89 38.7925C39.8812 38.0132 40.078 37.4326 40.6179 36.8321C43.254 33.896 43.7371 29.6685 41.8988 26.2864ZM33.8986 36.6997C30.681 36.7063 27.8875 33.9137 27.9246 30.6685C27.9618 27.5492 30.2897 24.7367 33.9117 24.6528C37.0768 24.5821 39.8397 27.4454 39.8659 30.6266C39.8922 33.8475 37.1008 36.6886 33.8986 36.6997ZM35.4374 2.11752C35.4374 0.532458 34.9194 0.00483987 33.3455 0.00263227C22.9256 0.000424661 12.5079 0.000424661 2.08792 0.00263227C0.511919 0.00483987 0.00261595 0.525835 0.00261595 2.11973C0.0004301 14.8885 0.0004301 27.6507 0.00261595 40.4173C0.00261595 42.1039 0.46383 42.5631 2.13819 42.5653H25.6973V39.3621H3.19395V3.32067H32.34V19.3258H35.4396V18.3412C35.4396 12.9348 35.444 7.52616 35.4374 2.11752Z" fill="white"/>
<path d="M35.4392 19.3262C34.3593 19.3262 33.4238 19.3262 32.3374 19.3262C32.3374 13.9971 32.3374 8.68999 32.3374 3.32109C22.5492 3.32109 12.9118 3.32109 3.19134 3.32109C3.19134 15.3062 3.19134 27.2736 3.19134 39.3625C10.7194 39.3625 18.1731 39.3625 25.6946 39.3625C25.6946 40.4552 25.6946 41.4288 25.6946 42.5657C25.3099 42.5657 24.9252 42.5657 24.5405 42.5657C17.0715 42.5657 9.60462 42.5657 2.13557 42.5657C0.461214 42.5657 0 42.1043 0 40.4177C0 27.6533 0 14.8867 0.00218585 2.12236C0.00218585 0.528467 0.511488 0.00526454 2.08748 0.00526454C12.5074 0.000849321 22.9252 0.000849321 33.3451 0.00526454C34.9189 0.00526454 35.437 0.532883 35.4392 2.12015C35.4435 7.52879 35.4413 12.9352 35.4413 18.3439C35.4391 18.6353 35.4392 18.9267 35.4392 19.3262Z" fill="#270641"/>
<path d="M41.8986 26.2862C39.9947 22.7827 36.2766 20.9791 32.3443 21.6502C25.461 22.8269 22.3593 31.0745 26.849 36.4368C27.6578 37.4037 27.9135 38.3199 27.8895 39.5009C27.837 42.2472 27.8742 44.9957 27.8742 48.0002C29.6557 46.7926 31.2229 45.7926 32.718 44.6932C33.5552 44.0773 34.2088 44.0685 35.0503 44.6932C36.5039 45.7749 38.045 46.7375 39.7346 47.8766C39.8089 47.2386 39.8942 46.8213 39.8964 46.4063C39.9095 43.8676 39.9248 41.3288 39.8898 38.7923C39.8811 38.013 40.0778 37.4324 40.6177 36.8319C43.2538 33.8958 43.7369 29.6682 41.8986 26.2862ZM33.8984 36.6995C30.6808 36.7061 27.8873 33.9135 27.9245 30.6683C27.9616 27.5489 30.2896 24.7364 33.9115 24.6526C37.0766 24.5819 39.8395 27.4452 39.8658 30.6263C39.892 33.8472 37.1007 36.6884 33.8984 36.6995Z" fill="#270641"/>
<path d="M8.70215 9.17969H26.1933" stroke="#270641" stroke-width="3" stroke-miterlimit="10" stroke-linecap="round"/>
<path d="M8.70215 17.2285H26.1933" stroke="#270641" stroke-width="3" stroke-miterlimit="10" stroke-linecap="round"/>
<path d="M8.70215 25.3789H20.58" stroke="#270641" stroke-width="3" stroke-miterlimit="10" stroke-linecap="round"/>
</g>
<defs>
<clipPath id="clip0_1366_473">
<rect width="43" height="48" fill="white"/>
</clipPath>
</defs>
</svg>
