<svg width="53" height="47" viewBox="0 0 53 47" fill="none" xmlns="http://www.w3.org/2000/svg">
<path d="M51.9981 42.1226L51.9908 41.3677L51.9865 40.9575L51.985 40.7771L51.9499 36.9225V36.8497C51.947 36.6912 51.947 36.5123 51.947 36.3115C51.9441 24.992 51.9426 13.6724 51.9411 2.35434C51.9411 1.35796 51.6107 1.01031 50.5712 1.00886C44.8957 1.00158 39.2202 1.0074 33.5447 1.0074C29.7215 1.0074 25.8969 0.99722 22.0738 1.01177H22.065L19.3998 1.00304H18.4948C17.5927 1.00449 16.6921 0.992856 15.7915 1.0074C14.7593 1.0234 14.4202 1.35796 14.4114 2.35871C14.4026 3.32746 14.4026 6.77191 14.4158 7.74066C14.4231 8.37777 14.7959 8.76323 15.4041 8.7865C16.0196 8.80978 16.4041 8.42577 16.4597 7.80466C16.5006 7.34792 16.5211 4.4053 16.4714 3.95147C16.388 3.21837 16.6512 3.02054 17.3997 3.022C27.3882 3.04527 37.3766 3.03363 47.365 3.02927H49.9104V44.559H16.6263C16.6263 44.559 14.5576 44.4238 14.5605 45.3212C14.5634 46.5067 14.8792 46.6376 16.0693 46.6391C18.6278 46.642 21.0387 46.6391 23.5972 46.642C23.8779 46.642 24.1601 46.6682 24.5139 46.6856L26.4803 46.6507H30.9014C37.4526 46.6522 44.0039 46.6565 50.5566 46.6551C51.6487 46.6551 51.9791 46.3249 51.9879 45.2136C51.9967 44.1823 52.004 43.1524 51.9981 42.1226Z" fill="#270641" stroke="#270641" stroke-width="0.5"/>
<path d="M34.2913 27.5502C34.1393 27.4905 34.0048 27.2912 33.9404 27.1269C32.6027 23.7028 31.2489 20.2831 29.9667 16.8386C29.6611 16.0197 29.2445 15.7477 28.379 15.7768C26.4111 15.8437 24.4403 15.7971 22.4841 15.7971C22.3993 15.576 22.3321 15.4219 22.2809 15.2633C21.6815 13.3971 20.259 12.3047 18.4183 12.2989C16.5893 12.2916 15.1083 13.3767 14.5294 15.2298C14.3846 15.6924 14.1405 15.7593 13.7413 15.7579C11.9387 15.7506 10.1346 15.784 8.33336 15.7462C7.63598 15.7317 7.30118 15.9935 7.04972 16.6306C5.66812 20.1434 4.24851 23.6402 2.82159 27.1341C2.71633 27.3931 2.49703 27.6723 2.25579 27.8003C1.28064 28.3182 0.900513 28.9815 1.02186 30.1175C1.28502 32.5845 3.35669 34.4681 5.85526 34.4929C7.34212 34.5074 8.82752 34.506 10.3144 34.4929C12.8978 34.4711 14.9957 32.5088 15.2092 29.9342C15.2867 28.9844 14.8291 28.26 13.9709 27.8236C13.7077 27.6898 13.446 27.4163 13.3364 27.1443C12.1682 24.2512 11.0293 21.3449 9.88455 18.4416C9.80414 18.2336 9.73981 18.0197 9.66087 17.7885H14.2837C14.5513 19.2998 15.2443 20.4925 16.6756 21.0802C17.2458 21.3144 17.3437 21.6344 17.3408 22.174C17.3247 26.8272 17.332 31.4804 17.332 36.1336C17.332 37.9519 17.3232 39.7686 17.3408 41.5869C17.3481 42.2822 17.7428 42.7127 18.3101 42.7316C18.8905 42.7491 19.3072 42.2778 19.3408 41.565C19.3481 41.4196 19.3452 41.2741 19.3452 41.1287V27.604C19.3452 25.713 19.3335 23.8235 19.3598 21.9326C19.3642 21.6969 19.5163 21.3289 19.699 21.2518C21.1917 20.6191 22.0733 19.5427 22.3452 17.947C22.3745 17.7768 22.623 17.5194 22.7751 17.5164C24.1596 17.483 25.5456 17.4961 27.0076 17.4961C26.974 17.6852 26.974 17.7579 26.9491 17.8205C25.74 20.9056 24.5353 23.9922 23.3029 27.0687C23.2108 27.2985 22.933 27.4862 22.6976 27.6185C22.0909 27.9633 21.6566 28.4084 21.6011 29.1371C21.4125 31.6433 23.2956 33.9823 25.8087 34.183C27.5281 34.3212 29.2679 34.3503 30.9886 34.2514C33.4214 34.1132 35.0852 32.7008 35.5969 30.4171C35.8966 29.0847 35.8162 28.1567 34.2913 27.5502ZM10.734 32.3925C8.9898 32.4783 7.23539 32.4739 5.49122 32.3968C4.18418 32.3386 3.13739 31.0979 3.13885 29.7437H13.063C13.0922 31.0528 12.0366 32.3285 10.734 32.3925ZM11.3056 27.7029H4.8918C5.92836 25.0148 6.93276 22.4097 8.02488 19.5718C9.16086 22.3878 10.2164 25.0032 11.3056 27.7029ZM20.3072 17.5266C20.2765 18.5739 19.4388 19.4089 18.4037 19.4365C17.3847 19.4627 16.4534 18.6496 16.3993 17.6168C16.3554 16.7964 16.3554 16.6975 16.4051 15.8786C16.4724 14.8051 17.3847 14.0662 18.4987 14.1127C19.5119 14.1564 20.2809 14.9578 20.3087 16.0066C20.3189 16.3688 20.3101 16.0037 20.3101 16.3659C20.3087 16.7528 20.3189 17.1397 20.3072 17.5266ZM28.6231 19.3012C29.7415 22.1144 30.7825 24.7312 31.86 27.4396H25.4155C26.4783 24.7443 27.5149 22.1115 28.6231 19.3012ZM30.8556 32.2281C29.4945 32.2354 28.1348 32.215 26.7751 32.2092C25.512 32.2048 24.4973 31.7539 23.9125 30.5844C23.7692 30.2964 23.7225 29.9589 23.5923 29.5066H33.5632C33.6349 30.9626 32.3468 32.2208 30.8556 32.2281Z" fill="#270641" stroke="#270641" stroke-width="0.5"/>
<path d="M36.5737 40.4417C33.5313 40.4417 30.4903 40.4374 27.4479 40.4446C26.904 40.4461 26.4084 40.3675 26.1774 39.8075C25.8689 39.0613 26.3865 38.3879 27.2914 38.3791C29.116 38.3631 30.9421 38.3733 32.7681 38.3733C37.0752 38.3748 41.3823 38.3762 45.6893 38.3762C45.7873 38.3762 45.8838 38.3704 45.9817 38.3762C46.6221 38.4169 47.0885 38.8475 47.0943 39.4017C47.1002 39.9428 46.6221 40.4214 45.9934 40.4315C44.7537 40.4534 43.5124 40.4403 42.2712 40.4403C40.3706 40.4417 38.4714 40.4417 36.5737 40.4417Z" fill="#270641" stroke="#270641" stroke-width="0.5"/>
<path d="M38.9851 10.4383C36.6459 10.4383 27.7233 10.447 25.384 10.4339C24.615 10.4296 24.172 9.98884 24.2451 9.33719C24.3168 8.69281 24.7554 8.42371 25.3519 8.40335C26.0566 8.37862 26.7642 8.39462 27.4703 8.39608C31.3929 8.39899 41.8989 8.39171 45.8215 8.42371C46.1957 8.42662 46.6797 8.5779 46.9048 8.83827C47.1022 9.06664 47.1577 9.63538 47.0028 9.88848C46.8273 10.1721 46.3507 10.4165 45.9984 10.4252C43.9779 10.4747 41.9559 10.4499 39.9339 10.4499C39.6167 10.4499 39.3009 10.4499 38.9836 10.4499C38.9851 10.4441 38.9851 10.4412 38.9851 10.4383Z" fill="#270641" stroke="#270641" stroke-width="0.5"/>
<path d="M40.4417 13.307C42.2429 13.307 44.0441 13.3041 45.8453 13.3085C46.5719 13.3099 47.0558 13.6881 47.0909 14.2554C47.1275 14.8678 46.6494 15.3449 45.9023 15.3478C42.2268 15.3609 38.5499 15.3609 34.8744 15.3493C34.1214 15.3463 33.6302 14.8794 33.6594 14.2743C33.6858 13.7172 34.1872 13.307 34.8919 13.3027C36.7428 13.2939 38.5923 13.2998 40.4432 13.2998C40.4417 13.3027 40.4417 13.3041 40.4417 13.307Z" fill="#270641" stroke="#270641" stroke-width="0.5"/>
<path d="M40.9061 18.207C42.3915 18.207 43.8769 18.2026 45.3609 18.2084C46.1767 18.2113 46.6986 18.6186 46.6884 19.2266C46.6781 19.8637 46.1986 20.2652 45.3711 20.2681C42.3521 20.2783 42.5524 20.2783 39.5348 20.2681C38.7687 20.2652 38.314 19.8375 38.3315 19.2048C38.3476 18.607 38.795 18.2157 39.5245 18.2113C41.0582 18.1982 39.3725 18.207 40.9061 18.207Z" fill="#270641" stroke="#270641" stroke-width="0.5"/>
</svg>
