<svg width="42" height="41" viewBox="0 0 42 41" fill="none" xmlns="http://www.w3.org/2000/svg">
<g clip-path="url(#clip0_1366_488)">
<path d="M17.1126 22.3707C19.1723 20.3035 21.1924 18.2719 23.2166 16.2463C26.1163 13.3453 29.011 10.4381 31.9352 7.56047C32.3751 7.12831 32.5431 6.61887 32.6184 6.07893C32.7274 5.29393 33.1174 4.7906 33.7741 4.36047C35.2474 3.39651 36.6718 2.35933 38.1197 1.34961C38.6349 1.8987 39.1277 2.42543 39.6663 2.99994C38.8955 4.10321 38.0535 5.30918 37.2115 6.51516C37.1819 6.55685 37.1402 6.59142 37.1198 6.63616C36.5527 7.86349 35.5763 8.48681 34.2455 8.619C34.0663 8.6373 33.8688 8.77254 33.7344 8.90676C28.7626 13.8598 23.7969 18.8199 18.8302 23.7801C18.7834 23.8269 18.7457 23.8828 18.6867 23.955C19.1143 24.6464 19.5399 25.3348 20.0154 26.1046C19.6804 26.4076 19.3587 26.7065 19.0267 26.9943C18.9555 27.0553 18.8516 27.1072 18.76 27.1123C17.0779 27.1916 15.9844 28.1677 15.1414 29.5008C14.6384 30.296 14.3197 31.1664 14.1944 32.107C14.171 32.287 14.0539 32.4852 13.9226 32.6174C11.2051 35.3436 8.48346 38.0657 5.74557 40.7715C5.58674 40.9281 5.26295 41.0257 5.03895 40.9942C2.59634 40.6454 0.371609 38.4338 0.00608181 35.9862C-0.0285364 35.7513 0.0885545 35.4107 0.257573 35.2399C2.9415 32.53 5.64274 29.8364 8.35415 27.1529C8.52623 26.9821 8.80012 26.8764 9.0455 26.8235C10.9668 26.4096 12.5949 25.5707 13.5367 23.7486C13.719 23.3957 13.8696 22.9788 13.8737 22.5904C13.8808 21.844 14.5233 21.6091 14.8939 21.1597C14.9336 21.1109 15.1709 21.178 15.2849 21.2451C15.8806 21.599 16.466 21.9701 17.1126 22.3707Z" fill="#270641"/>
<path d="M25.0987 19.2285C25.6007 19.7522 26.1077 20.345 26.68 20.8677C28.2296 22.2841 29.7946 23.6853 31.3789 25.0631C31.9959 25.6 32.7402 25.7983 33.5853 25.8176C37.6936 25.9071 40.6698 28.1004 41.9578 31.9471C42.0453 32.2095 41.969 32.5267 41.969 32.9437C40.7665 32.2603 39.7086 31.6604 38.6507 31.0594C37.9879 30.6822 37.3179 30.3172 36.6683 29.9186C36.4148 29.763 36.2336 29.7691 35.9831 29.9277C33.9294 31.2232 32.957 33.1084 32.9326 35.501C32.9306 35.6617 33.1138 35.8844 33.2706 35.9769C34.8213 36.8829 36.3842 37.7675 37.9431 38.6593C38.0877 38.7417 38.2282 38.8332 38.3697 38.9196C38.3575 38.9959 38.3595 39.0477 38.3412 39.0915C37.9614 39.9873 37.9614 39.9792 36.9768 39.9619C35.4608 39.9354 33.9691 39.7687 32.5121 39.3253C29.9575 38.5485 28.5697 36.8198 28.2765 34.1883C28.2317 33.7846 28.138 33.3728 28.1787 32.9752C28.2836 31.9471 27.8987 31.0961 27.2471 30.3761C25.3247 28.255 23.3709 26.1644 21.42 24.0687C21.2256 23.8602 20.9751 23.7046 20.7725 23.5409C22.2498 22.0675 23.6356 20.6867 25.0987 19.2285Z" fill="#270641"/>
<path d="M1.17071 7.03966C3.01769 8.09514 4.70075 9.03978 6.36445 10.019C6.71267 10.2234 6.95195 10.1949 7.27471 9.98443C9.22453 8.71135 10.1002 6.86375 10.2437 4.59924C10.2651 4.26572 10.1103 4.12336 9.85173 3.97796C8.25726 3.0811 6.67093 2.17001 5.08256 1.26299C4.96751 1.1969 4.85653 1.12165 4.71907 1.03522C4.86773 0.730169 4.995 0.436302 5.15384 0.160738C5.20169 0.0783743 5.33813 -0.00297289 5.4318 -0.00093921C7.52315 0.0366839 9.60533 0.15362 11.5572 1.0159C13.5202 1.88327 14.5272 3.45835 14.8123 5.53372C14.8948 6.13569 14.964 6.74681 14.9589 7.35285C14.9528 8.01481 15.1198 8.60356 15.5413 9.09164C17.034 10.8213 18.5327 12.5458 20.059 14.246C20.6007 14.849 21.2258 15.3777 21.7614 15.8923C20.3176 17.3291 18.9309 18.7089 17.5013 20.1305C17.1643 19.801 16.7407 19.3465 16.2754 18.9387C14.6484 17.5101 13.0162 16.0855 11.3658 14.6843C10.933 14.3172 10.3934 14.1992 9.80387 14.186C7.02322 14.1219 4.52664 13.3237 2.79776 11.0114C2.10845 10.0902 1.6574 8.98691 1.14424 7.94465C1.04242 7.73925 1.15238 7.42911 1.17071 7.03966Z" fill="#270641"/>
</g>
<defs>
<clipPath id="clip0_1366_488">
<rect width="42" height="41" fill="white"/>
</clipPath>
</defs>
</svg>
