<svg width="52" height="58" viewBox="0 0 52 58" fill="none" xmlns="http://www.w3.org/2000/svg">
<g clip-path="url(#clip0_1366_355)">
<path d="M25.6882 58C21.4978 56.6502 17.4663 54.9576 13.7872 52.5143C7.65789 48.4439 2.95966 43.2399 0.990144 36.0125C0.436911 33.9824 0.108942 31.8349 0.0680881 29.7336C-0.0522048 23.6072 0.0226946 17.4767 0.0266665 11.348C0.0278013 9.60297 0.438045 9.21399 2.19875 9.15189C7.73789 8.95769 13.1323 8.03973 18.2471 5.83235C19.4097 5.33046 20.5394 4.74729 21.5954 4.04894C22.6843 3.32914 23.633 2.4778 24.5329 1.53783C24.6436 1.42266 26.0105 0.0124201 26.0003 0C31.46 6.51884 39.1502 8.07135 46.9477 8.95261C48.0871 9.08132 49.2389 9.10899 50.3863 9.16544C51.2947 9.21004 51.945 9.62498 51.941 10.5548C51.9115 17.8623 52.2128 25.1958 51.6862 32.4689C51.1301 40.1512 46.7792 46.0039 40.8088 50.6789C36.7353 53.8686 32.1687 56.1494 27.2225 57.6844C27.0012 57.7533 26.7935 57.8651 26.5802 57.9582C26.2732 57.9729 25.9952 57.9853 25.6882 58ZM2.91937 12.0808C2.91937 12.6549 2.91937 13.1387 2.91937 13.622C2.91994 18.852 2.90745 24.0819 2.92448 29.3119C2.93753 33.4467 3.95661 37.3302 6.15763 40.8445C10.7123 48.1176 17.5713 52.2856 25.5651 54.8611C25.9838 54.996 26.5427 54.873 26.9893 54.7267C30.9141 53.4424 34.6114 51.6804 37.9479 49.2444C45.3425 43.8445 49.5005 36.8289 49.1192 27.4286C48.9308 22.7784 49.092 18.1141 49.0948 13.456C49.0948 13.0174 49.0948 12.5787 49.0948 12.0898C40.6374 11.3971 32.6153 9.82483 26.0111 4.31484C19.2974 9.84798 11.3155 11.4315 2.91937 12.0808Z" fill="#270641"/>
<path d="M36.8888 29.79L36.8883 29.7144C36.8815 27.8892 36.8775 26.7877 36.4729 26.2633C36.12 25.8054 35.3284 25.614 33.3368 25.504L32.9078 25.4802V25.0529C32.9078 24.6989 32.9107 24.3404 32.9129 23.9802C32.9186 23.2012 32.9237 22.3955 32.9039 21.6018C32.7932 17.27 29.6253 13.986 25.5348 13.9629H25.4866C21.2406 13.9629 18.0846 17.143 17.9739 21.542C17.9535 22.3662 17.9592 23.2023 17.9648 24.0107C17.9671 24.3765 17.97 24.7554 17.97 25.1234V25.5282L17.5648 25.5723C15.7513 25.7687 14.7521 25.8766 14.3719 26.2842C13.9986 26.6833 14.0014 27.634 14.0071 29.3598V29.4022C14.0133 31.3498 14.0088 33.3297 14.0048 35.2441C14.0003 37.5791 13.9952 39.9931 14.0088 42.3664C14.019 44.169 14.385 44.5354 16.186 44.5433C22.1138 44.5687 28.3208 44.5693 34.6339 44.5445C36.4758 44.5377 36.8752 44.1295 36.882 42.2473C36.9002 37.2658 36.9019 33.424 36.8888 29.79ZM21.0794 20.7296C21.1918 19.701 21.7064 18.7503 22.5275 18.053C23.3253 17.3761 24.3398 16.994 25.3844 16.9781C25.4077 16.9776 25.431 16.9776 25.4542 16.9776C27.5054 16.9776 29.2111 18.3579 29.7121 20.4326C29.8194 20.8769 29.8772 21.2992 29.8852 21.6882C29.8999 22.4819 29.8977 23.2779 29.8948 24.1208C29.8937 24.4652 29.8926 24.8186 29.8926 25.1855V25.6372H21.0459V25.1855C21.0459 24.7141 21.034 24.2428 21.0221 23.7866C20.9949 22.7337 20.9688 21.7395 21.0794 20.7296ZM33.7947 38.5761C33.7936 39.3783 33.7919 40.1879 33.7919 41.0076V41.4592H17.0479L17.0485 40.036C17.0485 39.3512 17.0485 38.6811 17.0479 38.011C17.0479 37.338 17.0479 36.6651 17.0485 35.9921C17.0496 34.2324 17.0507 32.4123 17.0366 30.6238C17.0326 30.1214 17.0604 29.5535 17.4457 29.1701C17.7169 28.9003 18.1124 28.7716 18.6509 28.7749C24.0964 28.815 28.2612 28.8331 32.1549 28.8331C33.2267 28.8331 33.7232 29.5371 33.7402 30.2349C33.8061 32.9842 33.8004 35.7003 33.7947 38.5761Z" fill="#270641"/>
</g>
<defs>
<clipPath id="clip0_1366_355">
<rect width="52" height="58" fill="white"/>
</clipPath>
</defs>
</svg>
