<svg width="52" height="52" viewBox="0 0 52 52" fill="none" xmlns="http://www.w3.org/2000/svg">
<path d="M26.2602 27.6897C26.1086 27.668 25.9136 27.668 25.7402 27.6897C21.9269 27.5597 18.8936 24.4397 18.8936 20.6047C18.8936 16.683 22.0569 13.498 26.0002 13.498C29.9219 13.498 33.1069 16.683 33.1069 20.6047C33.0852 24.4397 30.0736 27.5597 26.2602 27.6897Z" stroke="#270641" stroke-width="3" stroke-linecap="round" stroke-linejoin="round"/>
<path d="M40.6032 41.9899C36.7465 45.5215 31.6332 47.6666 25.9998 47.6666C20.3665 47.6666 15.2532 45.5215 11.3965 41.9899C11.6132 39.9532 12.9132 37.9599 15.2315 36.3999C21.1682 32.4565 30.8748 32.4565 36.7681 36.3999C39.0865 37.9599 40.3865 39.9532 40.6032 41.9899Z" stroke="#270641" stroke-width="3" stroke-linecap="round" stroke-linejoin="round"/>
<path d="M25.9997 47.6663C37.9658 47.6663 47.6663 37.9658 47.6663 25.9997C47.6663 14.0335 37.9658 4.33301 25.9997 4.33301C14.0335 4.33301 4.33301 14.0335 4.33301 25.9997C4.33301 37.9658 14.0335 47.6663 25.9997 47.6663Z" stroke="#270641" stroke-width="3" stroke-linecap="round" stroke-linejoin="round"/>
</svg>
