<svg width="52" height="52" viewBox="0 0 52 52" fill="none" xmlns="http://www.w3.org/2000/svg">
<path d="M46.6077 25.4225C46.6077 13.7283 37.1167 4.2373 25.4225 4.2373C13.7283 4.2373 4.2373 13.7283 4.2373 25.4225C4.2373 37.1167 13.7283 46.6077 25.4225 46.6077" stroke="#270641" stroke-width="3" stroke-linecap="round" stroke-linejoin="round"/>
<path d="M16.9486 6.35547H19.0671C14.936 18.7276 14.936 32.1167 19.0671 44.4888H16.9486" stroke="#270641" stroke-width="3" stroke-linecap="round" stroke-linejoin="round"/>
<path d="M31.7783 6.35547C33.8333 12.5415 34.8713 18.9818 34.8713 25.4221" stroke="#270641" stroke-width="3" stroke-linecap="round" stroke-linejoin="round"/>
<path d="M6.35547 33.8968V31.7783C12.5415 33.8333 18.9818 34.8714 25.4221 34.8714" stroke="#270641" stroke-width="3" stroke-linecap="round" stroke-linejoin="round"/>
<path d="M6.35547 19.0671C18.7276 14.936 32.1167 14.936 44.4888 19.0671" stroke="#270641" stroke-width="3" stroke-linecap="round" stroke-linejoin="round"/>
<path d="M39.8654 42.8987C41.5406 42.8987 42.8987 41.5406 42.8987 39.8654C42.8987 38.1901 41.5406 36.832 39.8654 36.832C38.1901 36.832 36.832 38.1901 36.832 39.8654C36.832 41.5406 38.1901 42.8987 39.8654 42.8987Z" stroke="#270641" stroke-width="2.5" stroke-miterlimit="10" stroke-linecap="round" stroke-linejoin="round"/>
<path d="M29.7549 40.7558V38.9763C29.7549 37.9247 30.6143 37.0552 31.676 37.0552C33.5061 37.0552 34.2543 35.7609 33.3342 34.1735C32.8084 33.2635 33.1219 32.0805 34.042 31.5547L35.7912 30.5537C36.59 30.0785 37.6213 30.3616 38.0965 31.1604L38.2078 31.3525C39.1178 32.9399 40.6142 32.9399 41.5343 31.3525L41.6455 31.1604C42.1208 30.3616 43.1521 30.0785 43.9509 30.5537L45.7001 31.5547C46.6202 32.0805 46.9337 33.2635 46.4079 34.1735C45.4878 35.7609 46.236 37.0552 48.0661 37.0552C49.1177 37.0552 49.9872 37.9146 49.9872 38.9763V40.7558C49.9872 41.8074 49.1278 42.6769 48.0661 42.6769C46.236 42.6769 45.4878 43.9712 46.4079 45.5586C46.9337 46.4787 46.6202 47.6516 45.7001 48.1774L43.9509 49.1784C43.1521 49.6536 42.1208 49.3705 41.6455 48.5717L41.5343 48.3796C40.6243 46.7922 39.1279 46.7922 38.2078 48.3796L38.0965 48.5717C37.6213 49.3705 36.59 49.6536 35.7912 49.1784L34.042 48.1774C33.1219 47.6516 32.8084 46.4686 33.3342 45.5586C34.2543 43.9712 33.5061 42.6769 31.676 42.6769C30.6143 42.6769 29.7549 41.8074 29.7549 40.7558Z" stroke="#270641" stroke-width="2.5" stroke-miterlimit="10" stroke-linecap="round" stroke-linejoin="round"/>
</svg>
