<svg width="87" height="87" viewBox="0 0 87 87" fill="none" xmlns="http://www.w3.org/2000/svg">
<g clip-path="url(#clip0_1366_500)">
<path d="M66.0329 42.8787C65.9556 40.4645 64.2828 38.4767 62.03 38.0103C60.7101 37.7381 59.4866 38.062 58.316 38.8156C57.6746 37.2652 56.837 35.9458 55.1539 35.4579C53.512 34.9826 52.0494 35.4525 50.7151 36.4528C49.1141 34.1783 47.1412 33.3132 44.5097 34.6014L44.3248 27.0412L44.0385 23.5801L43.9413 23.3278C43.0147 21.0354 41.1253 19.8623 38.465 20.0343C38.4559 20.0361 38.4468 20.0363 38.4392 20.0365C37.9302 20.055 37.4273 20.3295 37.4273 20.3295C35.666 21.1729 34.6504 22.494 34.3098 24.314L34.3387 28.4732L34.8058 47.5688C34.7074 47.6405 34.8058 47.5688 34.7074 47.6405C34.4809 47.4953 34.26 47.2671 34.0659 47.0804C32.3949 45.4769 30.7342 43.8611 29.0204 42.3039C26.8955 40.3739 23.7452 40.475 21.8742 42.4772C20.0565 44.4222 20.0943 47.5789 22.0243 49.4187C27.1638 54.3166 32.321 59.1959 37.4871 64.066C39.3623 65.8348 41.6473 66.7496 44.2114 66.7351C48.4525 66.7097 52.6961 66.6029 56.9336 66.4314C62.0786 66.2242 66.4005 61.7521 66.3607 56.6526C66.3257 52.061 66.1816 47.469 66.0329 42.8787ZM63.4313 56.7379C63.4331 60.4064 60.3719 63.4068 56.6731 63.5319C52.5591 63.6687 48.4428 63.7709 44.3283 63.8278C42.4106 63.8551 40.7419 63.1499 39.3399 61.8201C34.7568 57.4694 30.1617 53.1294 25.5727 48.7863C25.079 48.3191 24.5675 47.8674 24.096 47.3785C23.2542 46.5054 23.2116 45.3835 23.9535 44.5289C24.6439 43.7358 25.8204 43.6015 26.7685 44.2309C27.0383 44.4112 27.2745 44.6436 27.512 44.8684C30.0519 47.2766 32.5844 49.691 35.1332 52.0884C35.38 52.3205 35.6919 52.5495 36.0123 52.6276C37.0237 52.8727 37.784 52.2105 37.7593 51.1395C37.6598 46.8222 37.5512 42.5067 37.4456 38.1911C37.3413 33.9252 37.2354 29.6594 37.1357 25.3934C37.1137 24.4941 37.3474 23.6956 38.1846 23.2048C39.6005 22.3774 41.2467 23.3395 41.3317 25.0782C41.415 26.808 41.4194 28.5396 41.4769 30.27C41.5594 32.773 41.663 35.274 41.7454 37.7769C41.7582 38.176 41.6756 38.579 41.6959 38.9764C41.7437 39.8765 42.3475 40.5038 43.1381 40.5267C43.9243 40.5497 44.4952 39.9585 44.589 39.0217C44.7487 37.4277 45.8434 36.6126 47.3325 36.9786C48.0236 37.1471 48.6989 38.0334 48.7781 38.9162C48.8194 39.3659 48.7987 39.82 48.8324 40.2699C48.9015 41.1695 49.5166 41.7679 50.3291 41.751C51.1248 41.7346 51.6602 41.1789 51.74 40.2877C51.8636 38.892 52.6612 38.143 53.98 38.1816C55.0332 38.2116 55.8889 39.1598 55.9414 40.3748C55.9789 41.227 55.9771 42.0816 56.0283 42.9335C56.0826 43.8515 56.6742 44.4173 57.5048 44.3985C58.3141 44.3802 58.8513 43.8336 58.9267 42.95C59.0399 41.6239 59.8225 40.8225 61.0068 40.8191C62.1153 40.8146 63.0778 41.7271 63.1141 42.9621C63.2507 47.5528 63.4282 52.1454 63.4313 56.7379Z" fill="#270641"/>
</g>
<defs>
<clipPath id="clip0_1366_500">
<rect width="45.5895" height="46.8921" fill="white" transform="translate(19.9199 20.4814) rotate(-1.40113)"/>
</clipPath>
</defs>
</svg>
