<svg width="53" height="53" viewBox="0 0 53 53" fill="none" xmlns="http://www.w3.org/2000/svg">
<path d="M20.2267 24.0049C20.0059 23.9828 19.7409 23.9828 19.4979 24.0049C14.2421 23.8282 10.0684 19.522 10.0684 14.222C10.0684 8.81158 14.4409 4.41699 19.8734 4.41699C25.2838 4.41699 29.6784 8.81158 29.6784 14.222C29.6563 19.522 25.4825 23.8282 20.2267 24.0049Z" stroke="#270641" stroke-width="3" stroke-linecap="round" stroke-linejoin="round"/>
<path d="M36.2392 8.83301C40.5234 8.83301 43.9684 12.3001 43.9684 16.5622C43.9684 20.7359 40.6559 24.1368 36.5263 24.2913C36.3496 24.2693 36.1509 24.2693 35.9521 24.2913" stroke="#270641" stroke-width="3" stroke-linecap="round" stroke-linejoin="round"/>
<path d="M9.18586 32.153C3.84169 35.7305 3.84169 41.5605 9.18586 45.1159C15.2588 49.1793 25.2184 49.1793 31.2913 45.1159C36.6354 41.5384 36.6354 35.7084 31.2913 32.153C25.2404 28.1118 15.2809 28.1118 9.18586 32.153Z" stroke="#270641" stroke-width="3" stroke-linecap="round" stroke-linejoin="round"/>
<path d="M40.5 44.167C42.09 43.8357 43.5917 43.1953 44.8283 42.2457C48.2733 39.662 48.2733 35.3999 44.8283 32.8162C43.6137 31.8887 42.1342 31.2703 40.5663 30.917" stroke="#270641" stroke-width="3" stroke-linecap="round" stroke-linejoin="round"/>
</svg>
