<svg width="51" height="51" viewBox="0 0 51 51" fill="none" xmlns="http://www.w3.org/2000/svg">
<path d="M36.125 44.625H14.875C6.375 44.625 4.25 42.5 4.25 34V17C4.25 8.5 6.375 6.375 14.875 6.375H36.125C44.625 6.375 46.75 8.5 46.75 17V34C46.75 42.5 44.625 44.625 36.125 44.625Z" stroke="#270641" stroke-width="3" stroke-linecap="round" stroke-linejoin="round"/>
<path d="M29.75 17H40.375" stroke="#270641" stroke-width="3" stroke-linecap="round" stroke-linejoin="round"/>
<path d="M31.875 25.5H40.375" stroke="#270641" stroke-width="3" stroke-linecap="round" stroke-linejoin="round"/>
<path d="M36.125 34H40.375" stroke="#270641" stroke-width="3" stroke-linecap="round" stroke-linejoin="round"/>
<path d="M18.064 23.9904C20.1882 23.9904 21.9103 22.2683 21.9103 20.1441C21.9103 18.0199 20.1882 16.2979 18.064 16.2979C15.9398 16.2979 14.2178 18.0199 14.2178 20.1441C14.2178 22.2683 15.9398 23.9904 18.064 23.9904Z" stroke="#270641" stroke-width="3" stroke-linecap="round" stroke-linejoin="round"/>
<path d="M25.5 34.7005C25.2025 31.6193 22.7588 29.1968 19.6775 28.9205C18.615 28.8143 17.5312 28.8143 16.4475 28.9205C13.3662 29.218 10.9225 31.6193 10.625 34.7005" stroke="#270641" stroke-width="3" stroke-linecap="round" stroke-linejoin="round"/>
</svg>
