<svg width="127" height="21" viewBox="0 0 127 21" fill="none" xmlns="http://www.w3.org/2000/svg">
<g clip-path="url(#clip0_630_8919)">
<path d="M43.8908 2.77852C43.8847 2.78291 43.8804 2.78642 43.8735 2.79081C43.838 2.81802 43.8016 2.8426 43.7678 2.86542C43.9921 2.89965 44.2189 2.93652 44.4475 2.97163C44.4934 2.93915 44.5393 2.90668 44.586 2.87683L43.8908 2.77852ZM38.2906 2.19566L38.217 2.18513C38.1997 2.18337 38.1841 2.18074 38.1677 2.17898C38.1659 2.17811 38.1625 2.17811 38.1599 2.17811C38.1555 2.17811 38.1512 2.17723 38.1478 2.17723C38.2361 2.19215 38.3919 2.21761 38.6032 2.25096C38.5001 2.23077 38.3962 2.21234 38.2906 2.19566ZM38.0603 2.16406C38.0603 2.16406 38.062 2.16406 38.0646 2.16494C38.0681 2.16494 38.0724 2.16582 38.0776 2.1667C38.0811 2.1667 38.0837 2.16757 38.088 2.16757C38.0785 2.16582 38.069 2.16406 38.0603 2.16406Z" fill="black"/>
<path d="M105.725 15.575C105.733 15.5697 105.757 15.5501 105.79 15.5234C105.767 15.5385 105.746 15.5563 105.725 15.575ZM105.723 15.5759V15.5768C105.723 15.5768 105.724 15.5759 105.725 15.575C105.724 15.575 105.723 15.575 105.723 15.5759Z" fill="black"/>
<path d="M43.6779 2.5626C43.6718 2.56699 43.6675 2.5705 43.6606 2.57489C43.6251 2.6021 43.5887 2.62668 43.5549 2.6495C43.7792 2.68373 44.006 2.7206 44.2346 2.75571C44.2805 2.72323 44.3264 2.69076 44.3731 2.66091L43.6779 2.5626ZM38.0777 1.97974L38.0041 1.96921C37.9868 1.96745 37.9712 1.96482 37.9548 1.96307C37.953 1.96219 37.9496 1.96219 37.947 1.96219C37.9427 1.96219 37.9383 1.96131 37.9349 1.96131C38.0232 1.97623 38.179 2.00169 38.3903 2.03504C38.2864 2.01398 38.1834 1.99554 38.0777 1.97974ZM37.8474 1.94727C37.8474 1.94727 37.8491 1.94727 37.8517 1.94814C37.8552 1.94814 37.8595 1.94902 37.8647 1.9499C37.8682 1.9499 37.8708 1.95078 37.8751 1.95078C37.8656 1.94902 37.8552 1.94727 37.8474 1.94727Z" fill="#9664CC"/>
<path d="M55.2151 3.53946C54.3086 4.09335 53.2938 4.22326 52.2704 4.21185C50.6349 4.1943 48.9976 4.15655 47.3776 3.87917C46.2174 3.68079 45.0529 3.4947 43.8918 3.30334C43.536 3.24452 43.2459 3.35162 42.9888 3.61759C42.4052 4.22414 41.7601 4.76574 41.2268 5.42233C41.1316 5.53995 41.0632 5.6804 40.8735 5.52766C40.6631 5.35562 40.8051 5.25555 40.9082 5.11686C41.4329 4.41374 42.0788 3.83177 42.8407 3.18835C42.2009 3.07336 41.7039 3.06721 41.187 2.98997C40.4493 2.87849 39.6951 2.85654 38.9523 2.79773C38.5514 2.76613 38.1193 2.77578 37.8466 3.20415C36.2111 5.78749 34.4898 8.32256 33.1772 11.099C32.1841 13.2022 31.2256 15.3238 30.7027 17.6122C30.5165 18.4286 30.4862 19.2528 30.7711 20.063C30.8161 20.1938 30.875 20.3492 30.7477 20.4352C30.6022 20.5344 30.4499 20.4212 30.3425 20.3211C30.0611 20.0551 29.9711 19.6935 29.9113 19.3231C29.6888 17.9572 30.036 16.6572 30.4923 15.4142C32.0516 11.1622 34.0664 7.14193 36.6509 3.42535C36.7539 3.27613 36.8708 3.13217 36.9055 2.86795C36.115 2.95661 35.3331 2.97855 34.5807 3.14095C32.6118 3.56755 30.649 4.03191 28.6957 4.52523C27.4342 4.84299 26.1969 5.26257 24.9371 5.59087C20.4738 6.75657 15.9672 7.75287 11.387 8.28569C9.6198 8.49109 7.85871 8.48846 6.10108 8.34714C4.62052 8.23039 3.19104 7.82222 1.92 7.00148C1.69402 6.85664 1.46891 6.67406 1.25505 6.49587C0.319091 5.71288 0.509573 4.34616 1.08535 3.63514C1.20743 3.48328 1.3425 3.44993 1.46977 3.52981C1.63948 3.63514 1.6187 3.86512 1.54943 4.02927C1.48536 4.17499 1.37973 4.29437 1.31133 4.43569C1.24033 4.58228 1.14336 4.71571 1.06803 4.85966C0.892268 5.19937 1.1044 5.54698 1.39791 5.83401C2.3659 6.78379 3.59538 7.13578 4.84823 7.46759C6.463 7.89419 8.09248 7.78535 9.73149 7.70898C11.4311 7.63173 13.0805 7.24463 14.7325 6.90843C15.5931 6.732 16.4416 6.51694 17.2858 6.27993C19.4547 5.66987 21.5838 4.91321 23.7596 4.31719C25.2064 3.92306 26.6515 3.52191 28.0974 3.12778C29.7987 2.66518 31.5174 2.32021 33.2517 2.06302C34.553 1.8699 35.9175 1.79002 37.2353 1.82426C37.876 1.84093 38.4908 1.92608 39.1436 1.95944C39.78 2.00245 40.4224 2.07794 41.0502 2.20258C41.7056 2.33338 42.5134 2.48436 43.555 2.64763C43.7784 2.68274 44.0061 2.71873 44.2347 2.75384C45.6919 2.98207 46.9187 3.28227 48.3084 3.49645C49.0426 3.60969 50.066 3.73609 50.8089 3.75277L52.5111 3.78963C52.5726 3.78788 52.6332 3.78612 52.6955 3.78349C53.4505 3.7554 54.1415 3.55087 54.7744 3.14709C55.4203 2.73453 55.4766 2.25789 54.9372 1.68908C54.4393 1.16328 53.7666 0.963141 53.0938 0.885018C51.3604 0.684003 49.6322 0.713848 47.9309 1.17996C46.6893 1.52142 45.4676 1.90238 44.3732 2.65728L43.678 2.56072C45.3386 1.30197 47.3188 0.817428 49.3171 0.46631C50.9777 0.175761 52.6401 0.282852 54.2523 0.819183C54.796 1.00001 55.2913 1.28792 55.6134 1.7988C56.0835 2.54492 55.9675 3.07862 55.2151 3.53946Z" fill="#9664CC"/>
<path d="M59.138 13.9237C58.5553 14.1414 58.0254 14.4601 57.4912 14.7717C56.3657 15.4291 55.2496 16.105 54.1102 16.7406C53.8201 16.9021 53.4504 17.1321 53.1266 16.8863C52.7526 16.6036 52.8028 16.1393 52.8314 15.7127C52.8357 15.646 52.8643 15.5819 52.8746 15.5152C52.963 14.9894 53.2045 14.5294 53.4591 14.0703C53.5768 13.8596 53.7344 13.6121 53.4227 13.4041C52.6833 12.909 51.9768 12.8809 51.3075 13.4796C50.5335 14.1748 49.5949 14.5803 48.7317 15.1131C48.1697 15.459 47.587 15.7996 46.9221 15.9453C46.3749 16.0638 46.1913 15.9225 46.2736 15.3668C46.2926 15.2369 46.3532 15.1131 46.4087 14.992C46.6866 14.3793 46.9714 13.7701 47.2476 13.1574C47.3957 12.8309 47.465 12.5096 47.1342 12.2392C46.832 11.9926 46.5853 12.1646 46.3152 12.3182C45.5558 12.7519 45.0536 13.4699 44.4259 14.0484C44.1965 14.259 43.9939 14.5057 43.6908 14.6303C43.5679 14.4004 43.7307 14.2933 43.8146 14.1555C44.0025 13.8386 44.1835 13.5164 44.3696 13.1978C44.5359 12.9125 44.348 12.7519 44.1549 12.6132C43.9402 12.4578 43.7878 12.5789 43.6493 12.7571C43.4545 13.0091 43.2276 13.2426 43.1263 13.555C42.9878 13.9799 42.6588 14.231 42.2839 14.3617C40.9254 14.8314 39.8448 15.7153 38.8058 16.6703C38.2396 17.19 37.7513 17.8036 37.0724 18.1907C36.7166 18.3943 36.475 18.2995 36.4482 17.901C36.4239 17.5358 36.4058 17.1689 36.5079 16.795C36.8066 15.7092 37.2837 14.719 37.9478 13.8175C38.1123 13.5928 38.2621 13.3637 37.9876 13.1047C37.6993 12.8353 37.4681 12.9985 37.2465 13.1978C37.1486 13.2864 37.0707 13.4014 36.9893 13.5068C36.4975 14.1616 36.2655 14.9437 35.9668 15.6907C35.6845 16.3991 35.643 17.1268 35.8395 17.8685C35.9633 18.3355 36.1945 18.7235 36.6854 18.835C37.1738 18.9473 37.5608 18.7165 37.869 18.3434C38.4586 17.6333 39.1158 16.989 39.8111 16.3842C40.6518 15.6565 41.5877 15.0833 42.5765 14.5926C42.7021 14.5303 42.8518 14.3635 42.9497 14.6716C43.2181 15.5196 43.5289 15.5749 44.1566 14.9648C44.7826 14.3591 45.3281 13.6674 46.026 13.1381C46.1437 13.0494 46.2779 12.8871 46.4095 12.9898C46.5507 13.0968 46.4156 13.2715 46.3636 13.4067C46.2909 13.5928 46.2199 13.7859 46.1108 13.9518C45.8744 14.3126 45.7688 14.7172 45.7021 15.1351C45.5454 16.1147 46.1974 16.7028 47.1463 16.436C47.3368 16.3833 47.5238 16.3061 47.7022 16.2183C48.5135 15.8233 49.2711 15.3335 50.0399 14.8621C50.1508 14.7927 50.2564 14.6444 50.3897 14.7208C50.5551 14.8138 50.3863 14.9578 50.3845 15.0798C50.3759 15.4625 50.2668 15.8979 50.6711 16.1402C51.0408 16.3605 51.2833 16.0278 51.5447 15.8338C51.7776 15.6609 51.93 15.5362 52.0062 15.9971C52.1335 16.7608 52.7327 17.5165 53.8089 17.3313C54.1639 17.2707 54.4617 17.0794 54.7613 16.8977C56.3336 15.9505 57.7744 14.7743 59.4948 14.0817C59.5744 14.0492 59.6437 14.0054 59.642 13.8948C59.4705 13.7833 59.3138 13.8579 59.138 13.9237ZM52.5387 13.8237C52.1794 14.4425 51.8798 15.1149 51.0711 15.5038C51.227 14.5987 51.7456 14.0686 52.3214 13.5788C52.382 13.5278 52.4816 13.5024 52.5465 13.5867C52.6028 13.6604 52.5846 13.7455 52.5387 13.8237Z" fill="#9664CC"/>
<path d="M97.3227 13.2963C97.011 13.0119 96.7063 13.1005 96.4353 13.6351C96.3262 13.8484 96.2197 14.0125 95.9928 14.0512C95.5677 14.1223 95.2136 14.3435 94.8699 14.5778C93.8499 15.2766 92.7849 15.8998 91.7278 16.5353C91.4273 16.7144 91.113 16.8583 90.7632 16.9233C90.2983 17.0102 90.036 16.8224 90.0022 16.344C89.9416 15.4864 90.0385 14.6691 90.5303 13.9283C90.7892 13.5394 90.6671 13.3165 90.2126 13.2813C90.1347 13.2761 90.0637 13.2963 89.9779 13.2638C89.1944 12.9653 88.7848 13.0575 88.3268 13.7632C88.1026 14.1091 87.8679 14.4479 87.5995 14.7578C87.332 15.0668 87.0298 15.3468 86.6887 15.5697C86.532 15.6716 86.3683 15.7664 86.228 15.8919C86.2203 15.898 86.1666 15.9367 86.1666 15.9393C86.0523 16.0236 85.9285 16.1149 86.0653 16.2579C86.0973 16.2913 86.1389 16.3141 86.1856 16.3001C86.2272 16.2878 86.2609 16.2571 86.293 16.2298C86.3337 16.1965 86.3787 16.1702 86.422 16.1412C86.5294 16.0701 86.6289 15.9867 86.7224 15.8972C86.7545 15.8682 86.7917 15.8384 86.8194 15.805C86.9579 15.6681 87.0921 15.5259 87.2463 15.4047C87.2965 15.3643 87.3484 15.3266 87.403 15.2924C87.4298 15.2748 87.4575 15.2581 87.4861 15.2423C87.4947 15.2371 87.5735 15.202 87.5735 15.1976C87.5926 15.5654 87.603 15.877 87.9813 16.0288C88.3268 16.1684 88.5121 15.9437 88.7355 15.7804C88.8385 15.7049 88.9095 15.5478 89.0706 15.618C89.2229 15.6865 89.1848 15.8419 89.1996 15.9735C89.3043 16.868 89.9632 17.3596 90.8429 17.2393C91.6447 17.1322 92.2135 16.5871 92.8611 16.1895C93.9374 15.5267 94.9227 14.7078 96.1227 14.2592C96.2829 14.1995 96.4569 14.0556 96.611 14.2724C96.7617 14.4786 96.7981 14.6867 96.6405 14.9219C96.418 15.2564 96.2154 15.6066 96.0041 15.9498C95.4872 16.7943 94.9556 17.6343 94.7764 18.6368C94.6699 19.238 95.0898 19.9912 95.6049 20.1615C96.0656 20.3125 96.6526 20.0079 96.9548 19.4276C96.605 19.4136 96.4206 19.7077 96.1504 19.8042C95.6482 19.9798 95.4223 19.8543 95.2976 19.3276C95.1487 18.6929 95.4318 18.1785 95.7149 17.6677C96.192 16.8004 96.6898 15.9428 97.1842 15.0843C97.3054 14.871 97.4128 14.6586 97.2362 14.4304C97.0561 14.2004 97.134 14.0345 97.3366 13.8782C97.586 13.6834 97.5401 13.4929 97.3227 13.2963ZM89.5061 14.289C89.268 14.749 88.842 15.0413 88.5268 15.4337C88.4679 15.5074 88.3415 15.6119 88.2229 15.5162C88.1372 15.4469 88.1571 15.3301 88.1909 15.2318C88.4246 14.5612 88.8524 14.0266 89.3684 13.5666C89.5156 13.4358 89.7043 13.4832 89.8204 13.7062C89.7121 13.9072 89.6065 14.0968 89.5061 14.289Z" fill="#9664CC"/>
<path d="M85.725 12.6635C85.6471 12.6406 85.5605 12.6415 85.4774 12.6406C84.5483 12.6231 84.0938 13.3042 83.686 13.9749C83.4955 14.2882 83.3206 14.5542 82.9777 14.6841C82.1041 14.9879 81.2192 15.0809 80.2833 14.9001C80.5023 14.5367 80.685 14.218 80.8841 13.9073C81.2114 13.3947 81.3171 12.8065 81.3543 12.2246C81.4106 11.3617 80.2226 10.6867 79.3811 11.1572C78.2174 11.8067 77.4243 12.7337 78.375 14.0855C78.6243 14.441 78.5585 14.6955 78.2468 14.9431C77.2771 15.7138 76.3325 16.5187 75.3359 17.2526C74.5134 17.8547 73.2164 17.8372 72.7393 16.6381C72.5229 16.0921 72.2389 15.5707 71.9419 15.0651C71.7514 14.7421 71.8692 14.5999 72.148 14.4972C72.7731 14.2672 73.354 13.9424 73.9575 13.6712C75.7195 12.8776 77.2234 11.7075 78.6053 10.3882C79.9707 9.08557 81.0911 7.57665 81.724 5.75084C82.2703 4.17081 81.885 2.87343 80.2573 2.18173C78.8088 1.56552 77.3879 1.90961 76.0857 2.62765C73.6173 3.98911 71.7869 6.01417 70.4605 8.51588C70.3288 8.76342 70.1721 8.99779 70.0284 9.23831C70.2682 8.18232 70.5626 7.16672 70.9748 6.19061C71.7263 4.4043 72.3904 2.56181 73.9662 1.29253C74.0363 1.23547 74.0753 1.16086 74.0415 1.07044C73.9948 0.941408 73.8857 0.963353 73.7878 0.978275C73.651 1.00022 73.5566 1.10029 73.4502 1.18192C72.3384 2.02899 71.6527 3.21753 70.9687 4.39465C69.9834 6.0923 69.489 7.99272 68.8561 9.8396C67.8578 12.7583 67.3868 15.7787 67.0352 18.8291C67.011 19.0468 67.03 19.3092 67.3071 19.3487C67.5712 19.3865 67.5591 19.1214 67.6032 18.9564C67.9305 17.7187 68.2318 16.4713 68.4561 15.2091C68.5288 14.8044 68.663 14.6078 69.1132 14.7666C69.6345 14.9484 70.1721 15.0502 70.7323 14.8895C71.0224 14.8061 71.244 14.9326 71.3895 15.2152C71.6847 15.7831 72.0025 16.3397 72.296 16.9085C72.6172 17.5299 73.0545 17.968 73.793 18.0013C74.419 18.0294 74.9628 17.8179 75.4641 17.4588C76.2537 16.8944 77.0407 16.33 77.8321 15.7708C77.9421 15.6945 78.0442 15.5611 78.2139 15.7006C78.8088 16.1887 79.014 16.1895 79.5707 15.6172C79.827 15.3548 80.0737 15.2679 80.44 15.2679C80.8755 15.2679 81.3101 15.3205 81.7465 15.2977C82.1223 15.2784 82.4444 15.1143 82.7985 15.0098C83.0245 14.944 83.4098 14.6754 83.608 14.879C83.8028 15.0791 84.0505 15.109 84.2851 15.1643C84.9985 15.3319 85.1925 15.6681 84.8557 16.3212C84.4791 17.0524 83.8574 17.5299 83.1128 17.8407C82.8513 17.9495 82.5569 18.2155 82.2928 17.9539C82.0244 17.6879 82.3214 17.436 82.4409 17.1902C82.524 17.0191 82.5699 16.8453 82.285 16.8619C81.9075 16.8839 81.5569 17.3746 81.5759 17.8363C81.5959 18.2927 81.8755 18.4376 82.279 18.4332C83.6409 18.4156 84.6055 17.6827 85.3146 16.5942C85.8808 15.7234 85.5864 15.1564 84.5708 14.9677C84.3483 14.9264 84.1059 14.8808 84.0756 14.5621C84.0167 13.9222 85.0089 12.8952 85.6618 12.9329C85.7458 12.9382 85.841 12.9531 85.8609 12.846C85.88 12.7521 85.8072 12.6863 85.725 12.6635ZM70.5999 14.3655C70.5444 14.549 70.3462 14.556 70.1756 14.5569C70.1254 14.5577 70.0752 14.5569 70.0249 14.5577C69.6622 14.5814 69.3435 14.4243 69.018 14.2979C68.8699 14.2408 68.747 14.1504 68.7851 13.9608C68.8206 13.7844 68.9617 13.7818 69.0976 13.7774C69.5202 13.7625 69.9297 13.8239 70.3072 14.0205C70.4466 14.0934 70.6683 14.1452 70.5999 14.3655ZM71.2709 14.125C70.7566 13.5483 70.0985 13.3078 69.3435 13.3569C69.0076 13.3789 68.9712 13.2437 69.076 12.9742C70.3427 9.74304 71.8813 6.6734 74.4692 4.30423C75.6978 3.17978 77.1178 2.35729 78.8668 2.37397C79.2573 2.37836 79.6313 2.46438 79.988 2.59956C80.7248 2.8787 81.0469 3.42995 81.0608 4.5465C81.0279 6.0291 80.3369 7.43269 79.3612 8.73709C77.3975 11.3617 74.8052 13.0813 71.8034 14.2338C71.5938 14.3163 71.4336 14.3084 71.2709 14.125ZM79.3231 15.1169C79.2131 15.3513 79.02 15.5426 78.775 15.6471C78.6425 15.5953 78.5352 15.5154 78.6044 15.3864C78.7152 15.1845 78.73 14.8606 79.0607 14.8843C79.1741 14.8922 79.3785 14.9993 79.3231 15.1169ZM79.3222 14.6631C79.0564 14.4515 79.3464 14.3444 79.414 14.2242C79.5109 14.053 79.6798 13.9248 79.8062 13.7704C79.898 13.6597 80.0374 13.5456 79.8711 13.385C79.7161 13.234 79.5733 13.2235 79.3932 13.3718C79.1707 13.5544 79.1109 13.8581 78.891 14.0442C78.3239 13.2384 78.6468 12.1183 79.5231 11.7918C80.0876 11.582 80.6737 12.0113 80.6348 12.609C80.5872 13.3367 80.3118 13.9714 79.8564 14.5323C79.7083 14.7157 79.5638 14.8544 79.3222 14.6631Z" fill="#9664CC"/>
<path d="M101.513 11.7302C101.271 11.6678 100.948 11.6635 100.945 11.2764C100.943 11.0736 101.065 10.8023 101.272 10.8699C101.562 10.9639 102.019 10.9191 102.093 11.2825C102.142 11.5283 101.842 11.7214 101.513 11.7302Z" fill="#9664CC"/>
<path d="M39.1072 11.7393C38.8284 11.7165 38.5522 11.6507 38.5289 11.3145C38.515 11.1187 38.6129 10.8545 38.8613 10.9151C39.1609 10.9879 39.6103 10.9598 39.683 11.3206C39.7289 11.5497 39.4233 11.7648 39.1072 11.7393Z" fill="#9664CC"/>
<path d="M120.242 17.1995C120.11 17.0608 119.96 16.9432 119.786 16.8677C119.677 16.8203 119.56 16.7852 119.43 16.7694C118.991 16.7141 118.537 16.8387 118.14 17.0213C117.998 17.0863 117.858 17.1609 117.72 17.239C117.625 17.2934 117.531 17.3479 117.436 17.4023C116.924 17.6937 116.395 18.0053 115.79 18.0106C115.615 18.0123 115.419 18.015 115.252 17.9588C115.142 17.9219 115.001 17.8842 114.905 17.8166C114.8 17.7464 114.707 17.6577 114.629 17.5497C114.372 17.1969 114.324 16.7036 114.303 16.2743C114.302 16.2295 114.302 16.1839 114.302 16.1356C114.308 15.8539 114.353 15.5326 114.22 15.2877C114.017 14.9155 113.469 15.1016 113.182 15.2473C112.516 15.5931 111.967 16.1347 111.411 16.6298C111.203 16.8159 110.983 16.9932 110.747 17.1416C110.606 17.2302 110.458 17.3084 110.304 17.3716C110.255 17.3917 110.204 17.4102 110.155 17.4277C110.042 17.4655 109.92 17.4962 109.806 17.4611C109.573 17.3909 109.494 17.0968 109.492 16.851C109.486 16.0022 109.935 15.192 109.878 14.3467C109.864 14.1501 109.822 13.9517 109.725 13.7805C109.628 13.6093 109.472 13.468 109.283 13.4162C109.095 13.3653 108.898 13.4074 108.713 13.4785C108.668 13.4961 108.625 13.5145 108.582 13.5338C108.371 13.6304 108.171 13.7454 107.971 13.8665C107.971 13.8665 107.97 13.8674 107.968 13.8683C107.534 14.1343 107.115 14.4327 106.646 14.6293C106.577 14.6592 106.506 14.6864 106.438 14.7171C106.382 14.7417 106.145 14.8268 106.083 14.8426C106.067 14.847 106.057 14.8505 106.052 14.8514C106.535 14.0948 107.022 13.317 107.06 12.4164C107.074 12.0943 107.022 11.7546 106.831 11.4939C106.604 11.1822 106.21 11.0313 105.829 11.0119C105.175 10.9795 104.513 11.3122 104.145 11.8608C103.775 12.4094 103.709 13.1538 103.977 13.7603C104.075 13.9824 104.217 14.1992 104.207 14.4415C104.191 14.7698 103.906 15.0094 103.648 15.2096C102.626 16.0031 101.66 16.8703 100.757 17.8026C100.583 17.9834 100.403 18.1712 100.173 18.2704C99.9427 18.3687 99.6448 18.3538 99.4786 18.1642C99.3271 17.9922 99.3253 17.735 99.347 17.5059C99.4682 16.2146 100.064 15.012 100.795 13.9464C100.896 13.7981 101.003 13.6444 101.03 13.4663C101.058 13.2881 100.975 13.0783 100.803 13.0274C100.599 12.9668 100.408 13.152 100.279 13.3249C99.831 13.9183 99.4656 14.5749 99.1807 15.2657C98.8396 16.0909 98.6136 17.0187 98.8586 17.878C98.9954 18.3556 99.3617 18.8383 99.8517 18.8287C100.211 18.8225 100.508 18.5566 100.768 18.3064C101.673 17.4374 102.58 16.5675 103.486 15.6985C103.532 15.6537 103.582 15.6081 103.642 15.5879C103.758 15.5519 103.881 15.6221 103.966 15.7099C104.052 15.7977 104.119 15.9048 104.219 15.9724C104.449 16.1295 104.77 16.0268 104.988 15.853C105.207 15.6809 105.375 15.4457 105.609 15.2938C105.628 15.2815 105.647 15.2701 105.669 15.2578C105.673 15.2561 105.674 15.2534 105.678 15.2534C105.734 15.221 105.794 15.1946 105.854 15.1744C105.855 15.1736 105.857 15.1727 105.859 15.1727C105.882 15.1622 105.906 15.1507 105.932 15.1402C105.989 15.1218 106.045 15.0998 106.1 15.0779C106.176 15.0489 106.25 15.0226 106.325 14.9919C106.362 14.9769 106.399 14.9611 106.436 14.9453C106.51 14.9137 106.584 14.8813 106.657 14.847C106.803 14.7794 106.948 14.7083 107.091 14.6346C107.235 14.5609 107.377 14.4836 107.518 14.4055C107.66 14.3274 107.8 14.2475 107.941 14.1676C108.035 14.1141 108.128 14.0614 108.223 14.0079C108.347 13.9376 108.472 13.8674 108.598 13.7989C108.733 13.7243 108.883 13.6497 109.036 13.6725C109.173 13.6945 109.289 13.7954 109.357 13.9201C109.424 14.043 109.448 14.1869 109.453 14.3274C109.473 14.7987 109.316 15.257 109.192 15.7116C109.068 16.1672 108.977 16.6579 109.126 17.1047C109.187 17.2873 109.292 17.4611 109.45 17.5673C109.698 17.7306 110.03 17.6981 110.301 17.5813C110.315 17.5752 110.33 17.5691 110.344 17.562C110.49 17.4971 110.634 17.4146 110.773 17.3259C110.902 17.2434 111.027 17.1565 111.145 17.0696C111.422 16.8651 111.661 16.6131 111.908 16.3735C112.153 16.1374 112.418 15.9267 112.695 15.731C112.894 15.5896 113.126 15.443 113.371 15.4009C113.473 15.3825 113.578 15.3825 113.683 15.4088C114.039 15.494 114 15.9372 113.992 16.2243C113.991 16.2998 113.991 16.377 113.992 16.4543V16.4578C114.01 17.1249 114.194 17.8658 114.802 18.1739C114.805 18.1756 114.807 18.1774 114.811 18.1782C114.86 18.2028 114.911 18.2248 114.966 18.2432C114.987 18.2511 115.007 18.2572 115.031 18.2634C115.849 18.5057 116.64 18.0518 117.332 17.6507C117.401 17.6103 117.473 17.5708 117.545 17.5304C117.646 17.4751 117.751 17.4225 117.857 17.3724C118.52 17.0599 119.265 16.8932 119.886 17.4093C120.228 17.6928 120.527 17.9939 120.955 18.1554C121.36 18.3064 121.766 18.36 122.195 18.3345C123.201 18.2774 124.214 18.0773 125.189 17.8324C125.437 17.771 125.685 17.7034 125.93 17.6323C125.985 17.6165 126.04 17.5682 126.083 17.5173C121.717 18.8664 120.872 17.864 120.242 17.1995ZM105.028 15.1051C104.926 15.3166 104.762 15.5282 104.523 15.5958C104.329 15.5782 104.316 15.4413 104.361 15.3386C104.448 15.1428 104.476 14.8593 104.751 14.8479C104.855 14.8418 105.106 14.9383 105.028 15.1051ZM105.512 15.3588C105.511 15.3597 105.51 15.3605 105.51 15.3605V15.3597C105.509 15.3588 105.511 15.3588 105.512 15.3588C105.532 15.3403 105.553 15.3228 105.577 15.3079C105.544 15.3342 105.52 15.3535 105.512 15.3588ZM105.457 14.6785C105.313 14.8576 105.189 14.7215 105.071 14.6372C104.932 14.538 104.932 14.4283 105.058 14.3054C105.224 14.1386 105.392 13.971 105.538 13.7884C105.633 13.6699 105.799 13.5286 105.625 13.3609C105.455 13.1968 105.269 13.2249 105.084 13.3688C104.867 13.5374 104.875 13.8727 104.579 14.0254C104.129 13.1055 104.358 12.1987 105.12 11.8274C105.757 11.5193 106.344 11.888 106.352 12.5937C106.359 13.4268 105.945 14.0693 105.457 14.6785Z" fill="#9664CC"/>
<path d="M43.8908 2.77852C43.8847 2.78291 43.8804 2.78642 43.8735 2.79081C43.838 2.81802 43.8016 2.8426 43.7678 2.86542C43.9921 2.89965 44.2189 2.93652 44.4475 2.97163C44.4934 2.93915 44.5393 2.90668 44.586 2.87683L43.8908 2.77852ZM38.2906 2.19566L38.217 2.18513C38.1997 2.18337 38.1841 2.18074 38.1677 2.17898C38.1659 2.17811 38.1625 2.17811 38.1599 2.17811C38.1555 2.17811 38.1512 2.17723 38.1478 2.17723C38.2361 2.19215 38.3919 2.21761 38.6032 2.25096C38.5001 2.23077 38.3962 2.21234 38.2906 2.19566ZM38.0603 2.16406C38.0603 2.16406 38.062 2.16406 38.0646 2.16494C38.0681 2.16494 38.0724 2.16582 38.0776 2.1667C38.0811 2.1667 38.0837 2.16757 38.088 2.16757C38.0785 2.16582 38.069 2.16406 38.0603 2.16406Z" fill="#7026A0"/>
<path d="M43.6779 2.5626C43.6718 2.56699 43.6675 2.5705 43.6606 2.57489C43.6251 2.6021 43.5887 2.62668 43.5549 2.6495C43.7792 2.68373 44.006 2.7206 44.2346 2.75571C44.2805 2.72323 44.3264 2.69076 44.3731 2.66091L43.6779 2.5626ZM38.0777 1.97974L38.0041 1.96921C37.9868 1.96745 37.9712 1.96482 37.9548 1.96307C37.953 1.96219 37.9496 1.96219 37.947 1.96219C37.9427 1.96219 37.9383 1.96131 37.9349 1.96131C38.0232 1.97623 38.179 2.00169 38.3903 2.03504C38.2864 2.01398 38.1834 1.99554 38.0777 1.97974ZM37.8474 1.94727C37.8474 1.94727 37.8491 1.94727 37.8517 1.94814C37.8552 1.94814 37.8595 1.94902 37.8647 1.9499C37.8682 1.9499 37.8708 1.95078 37.8751 1.95078C37.8656 1.94902 37.8552 1.94727 37.8474 1.94727Z" fill="#7026A0"/>
<path d="M55.4281 3.75626C54.5216 4.31015 53.5068 4.44006 52.4834 4.42865C50.8479 4.41109 49.2106 4.37335 47.5907 4.09597C46.4304 3.89758 45.2659 3.71149 44.1048 3.52013C43.749 3.46132 43.4589 3.56841 43.2018 3.83438C42.6182 4.44094 41.9732 4.98254 41.4398 5.63913C41.3446 5.75675 41.2762 5.8972 41.0866 5.74446C40.8762 5.57241 41.0182 5.47235 41.1212 5.33365C41.6459 4.63054 42.2918 4.04857 43.0537 3.40514C42.4139 3.29015 41.9169 3.28401 41.4 3.20676C40.6623 3.09528 39.9082 3.07334 39.1653 3.01453C38.7644 2.98292 38.3324 2.99258 38.0596 3.42094C36.4241 6.00429 34.7028 8.53935 33.3902 11.3158C32.3971 13.419 31.4387 15.5406 30.9157 17.829C30.7296 18.6454 30.6992 19.4696 30.9841 20.2798C31.0291 20.4106 31.088 20.566 30.9607 20.652C30.8153 20.7512 30.6629 20.638 30.5555 20.5379C30.2741 20.2719 30.1841 19.9103 30.1243 19.5399C29.9018 18.174 30.249 16.874 30.7053 15.631C32.2647 11.379 34.2794 7.35872 36.8639 3.64215C36.967 3.49292 37.0839 3.34896 37.1185 3.08475C36.328 3.17341 35.5461 3.19535 34.7937 3.35774C32.8249 3.78435 30.862 4.2487 28.9087 4.74202C27.6472 5.05978 26.4099 5.47937 25.1502 5.80766C20.6868 6.97337 16.1802 7.96967 11.6 8.50249C9.83282 8.70789 8.07173 8.70526 6.3141 8.56393C4.83354 8.44719 3.40406 8.03901 2.13303 7.21828C1.90618 7.07168 1.68193 6.88998 1.46721 6.71091C0.531249 5.9288 0.721731 4.5612 1.29751 3.85106C1.41959 3.6992 1.55466 3.66585 1.68193 3.74573C1.85163 3.85106 1.83085 4.08104 1.76159 4.24519C1.69752 4.3909 1.59189 4.51028 1.52349 4.65161C1.45249 4.7982 1.35552 4.93162 1.28019 5.07558C1.10443 5.41529 1.31655 5.7629 1.61007 6.04993C2.58066 7.00146 3.80927 7.35346 5.06212 7.68614C6.67689 8.11275 8.30637 8.0039 9.94538 7.92753C11.645 7.85029 13.2944 7.46318 14.9464 7.12699C15.807 6.95055 16.6555 6.73549 17.4997 6.49849C19.6686 5.88842 21.7977 5.13176 23.9735 4.53574C25.4203 4.14161 26.8654 3.74046 28.3113 3.34633C30.0126 2.88373 31.7313 2.53876 33.4656 2.28157C34.7669 2.08845 36.1314 2.00857 37.4492 2.04281C38.0899 2.05949 38.7047 2.14463 39.3575 2.17799C39.9939 2.221 40.6363 2.29649 41.2641 2.42114C41.9195 2.55193 42.7273 2.70291 43.7689 2.86618C43.9923 2.90129 44.22 2.93728 44.4486 2.97239C45.9058 3.20062 47.1326 3.50082 48.5223 3.715C49.2565 3.82824 50.2799 3.95464 51.0228 3.97132L52.725 4.00819C52.7865 4.00643 52.8471 4.00468 52.9094 4.00204C53.6644 3.97395 54.3554 3.76943 54.9883 3.36564C55.6342 2.95308 55.6905 2.47644 55.1511 1.90763C54.6532 1.38183 53.9805 1.18169 53.3077 1.10357C51.5743 0.902555 49.8461 0.9324 48.1448 1.39851C46.9032 1.73997 45.6815 2.12093 44.5871 2.87583L43.8918 2.77928C45.5525 1.51877 47.5326 1.03422 49.531 0.683107C51.1916 0.392558 52.854 0.499648 54.4662 1.03598C55.0099 1.21681 55.5052 1.50472 55.8273 2.0156C56.2974 2.7626 56.1805 3.2963 55.4281 3.75626Z" fill="#7026A0"/>
<path d="M59.3522 14.1405C58.7695 14.3582 58.2396 14.6769 57.7054 14.9885C56.5798 15.6459 55.4637 16.3218 54.3243 16.9574C54.0342 17.1189 53.6645 17.3489 53.3407 17.1031C52.9667 16.8204 53.0169 16.3561 53.0455 15.9295C53.0498 15.8627 53.0784 15.7987 53.0888 15.732C53.1771 15.2062 53.4186 14.7462 53.6732 14.2871C53.7909 14.0764 53.9485 13.8289 53.6368 13.6209C52.8974 13.1258 52.1909 13.0977 51.5216 13.6964C50.7476 14.3916 49.809 14.7971 48.9458 15.3299C48.3839 15.6758 47.8012 16.0164 47.1362 16.1621C46.589 16.2806 46.4054 16.1393 46.4877 15.5836C46.5068 15.4537 46.5674 15.3299 46.6228 15.2088C46.9007 14.5961 47.1856 13.9869 47.4618 13.3742C47.6098 13.0477 47.6791 12.7264 47.3483 12.456C47.0462 12.2094 46.7994 12.3814 46.5293 12.535C45.7699 12.9687 45.2677 13.6867 44.64 14.2652C44.4106 14.4758 44.208 14.7225 43.9049 14.8471C43.782 14.6172 43.9448 14.5101 44.0288 14.3723C44.2166 14.0554 44.3976 13.7332 44.5837 13.4146C44.75 13.1293 44.5621 12.9695 44.369 12.83C44.1543 12.6746 44.0019 12.7957 43.8634 12.9739C43.6686 13.2259 43.4417 13.4594 43.3404 13.7718C43.2019 14.1967 42.8729 14.4477 42.498 14.5785C41.1395 15.0482 40.0589 15.9321 39.0199 16.8871C38.4537 17.4068 37.9654 18.0204 37.2866 18.4075C36.9307 18.6111 36.6891 18.5163 36.6623 18.1178C36.6381 17.7526 36.6199 17.3857 36.722 17.0118C37.0208 15.926 37.4978 14.9358 38.1619 14.0343C38.3264 13.8096 38.4762 13.5805 38.2017 13.3215C37.9134 13.0521 37.6822 13.2153 37.4606 13.4146C37.3628 13.5032 37.2848 13.6182 37.2034 13.7236C36.7117 14.3784 36.4796 15.1605 36.1809 15.9075C35.8986 16.6159 35.8571 17.3436 36.0536 18.0853C36.1774 18.5523 36.4086 18.9403 36.8995 19.0518C37.3879 19.1641 37.7749 18.9333 38.0831 18.5602C38.6728 17.8501 39.3299 17.2058 40.0252 16.601C40.8659 15.8733 41.8018 15.3001 42.7906 14.8094C42.9162 14.7471 43.066 14.5803 43.1638 14.8884C43.4322 15.7363 43.743 15.7916 44.3708 15.1816C44.9967 14.5759 45.5422 13.8842 46.2401 13.3549C46.3578 13.2662 46.492 13.1038 46.6236 13.2065C46.7648 13.3136 46.6297 13.4883 46.5777 13.6235C46.505 13.8096 46.434 14.0027 46.3249 14.1686C46.0886 14.5294 45.9829 14.934 45.9163 15.3519C45.7595 16.3315 46.4115 16.9196 47.3605 16.6528C47.5509 16.6001 47.738 16.5229 47.9163 16.4351C48.7276 16.0401 49.4852 15.5503 50.254 15.0789C50.3649 15.0095 50.4705 14.8612 50.6038 14.9376C50.7692 15.0306 50.6004 15.1746 50.5986 15.2966C50.59 15.6793 50.4809 16.1147 50.8852 16.3569C51.2549 16.5773 51.4974 16.2446 51.7589 16.0506C51.9918 15.8777 52.1441 15.753 52.2203 16.2139C52.3476 16.9775 52.9468 17.7333 54.023 17.5481C54.378 17.4875 54.6758 17.2962 54.9754 17.1145C56.5477 16.1673 57.9885 14.9911 59.7089 14.2985C59.7885 14.266 59.8578 14.2222 59.8561 14.1116C59.6846 14.0001 59.5279 14.0747 59.3522 14.1405ZM52.752 14.0396C52.3926 14.6584 52.0931 15.3308 51.2844 15.7197C51.4402 14.8147 51.9589 14.2845 52.5346 13.7947C52.5952 13.7438 52.6948 13.7183 52.7598 13.8026C52.816 13.8763 52.7978 13.9623 52.752 14.0396Z" fill="#7026A0"/>
<path d="M39.3201 11.9561C39.0413 11.9333 38.7651 11.8675 38.7418 11.5313C38.7279 11.3355 38.8257 11.0713 39.0742 11.1319C39.3738 11.2047 39.8232 11.1766 39.8959 11.5374C39.9418 11.7665 39.637 11.9816 39.3201 11.9561Z" fill="#7026A0"/>
<path d="M97.5366 13.5131C97.2249 13.2287 96.9201 13.3173 96.6491 13.8519C96.5401 14.0652 96.4335 14.2293 96.2067 14.268C95.7816 14.3391 95.4275 14.5603 95.0837 14.7946C94.0638 15.4934 92.9988 16.1166 91.9416 16.7521C91.6412 16.9312 91.3269 17.0751 90.9771 17.1401C90.5122 17.227 90.2498 17.0392 90.216 16.5608C90.1554 15.7032 90.2524 14.8859 90.7442 14.1451C91.0031 13.7562 90.881 13.5332 90.4264 13.4981C90.3485 13.4929 90.2775 13.5131 90.1918 13.4806C89.4082 13.1821 88.9987 13.2743 88.5407 13.98C88.3164 14.3259 88.0818 14.6647 87.8134 14.9746C87.5458 15.2836 87.2437 15.5636 86.9025 15.7865C86.7458 15.8884 86.5822 15.9832 86.4419 16.1087C86.4341 16.1148 86.3804 16.1535 86.3804 16.1561C86.2661 16.2404 86.1423 16.3317 86.2791 16.4747C86.3112 16.5081 86.3527 16.5309 86.3995 16.5169C86.441 16.5046 86.4748 16.4739 86.5068 16.4466C86.5475 16.4133 86.5926 16.387 86.6359 16.358C86.7432 16.2869 86.8428 16.2035 86.9363 16.114C86.9683 16.085 87.0056 16.0551 87.0333 16.0218C87.1718 15.8849 87.306 15.7427 87.4601 15.6215C87.5103 15.5811 87.5623 15.5434 87.6168 15.5092C87.6437 15.4916 87.6714 15.4749 87.7 15.4591C87.7086 15.4539 87.7874 15.4187 87.7874 15.4144C87.8065 15.7822 87.8168 16.0938 88.1952 16.2456C88.5407 16.3852 88.726 16.1605 88.9493 15.9972C89.0524 15.9217 89.1234 15.7646 89.2844 15.8348C89.4368 15.9033 89.3987 16.0587 89.4134 16.1903C89.5182 17.0848 90.1771 17.5764 91.0568 17.4561C91.8585 17.349 92.4274 16.8039 93.075 16.4063C94.1512 15.7435 95.1365 14.9246 96.3366 14.476C96.4967 14.4163 96.6708 14.2724 96.8249 14.4892C96.9756 14.6954 97.0119 14.9035 96.8543 15.1387C96.6318 15.4732 96.4292 15.8234 96.218 16.1666C95.7011 17.0111 95.1694 17.8511 94.9902 18.8536C94.8837 19.4548 95.3036 20.208 95.8188 20.3783C96.2794 20.5293 96.8665 20.2247 97.1686 19.6444C96.8188 19.6304 96.6344 19.9245 96.3643 20.021C95.8621 20.1966 95.6361 20.071 95.5114 19.5444C95.3625 18.9097 95.6456 18.3953 95.9288 17.8845C96.4058 17.0172 96.9037 16.1596 97.3981 15.3011C97.5193 15.0878 97.6267 14.8754 97.45 14.6472C97.2699 14.4172 97.3479 14.2513 97.5505 14.095C97.7998 13.9002 97.7539 13.7097 97.5366 13.5131ZM89.7199 14.5058C89.4818 14.9658 89.0558 15.2581 88.7407 15.6505C88.6818 15.7242 88.5554 15.8287 88.4368 15.733C88.3511 15.6637 88.371 15.5469 88.4047 15.4486C88.6385 14.778 89.0662 14.2434 89.5823 13.7834C89.7295 13.6526 89.9182 13.7 90.0342 13.923C89.926 14.124 89.8204 14.3127 89.7199 14.5058Z" fill="#7026A0"/>
<path d="M85.9389 12.8811C85.8609 12.8583 85.7744 12.8592 85.6912 12.8583C84.7622 12.8408 84.3077 13.5219 83.8998 14.1926C83.7094 14.5059 83.5345 14.7719 83.1916 14.9018C82.318 15.2055 81.4331 15.2986 80.4972 15.1177C80.7162 14.7543 80.8989 14.4357 81.098 14.125C81.4253 13.6123 81.5309 13.0242 81.5682 12.4422C81.6245 11.5794 80.4365 10.9043 79.595 11.3748C78.4313 12.0244 77.6382 12.9514 78.5889 14.3032C78.8382 14.6587 78.7724 14.9132 78.4607 15.1608C77.491 15.9315 76.5464 16.7364 75.5498 17.4702C74.7273 18.0724 73.4303 18.0548 72.9532 16.8558C72.7367 16.3098 72.4528 15.7884 72.1558 15.2828C71.9653 14.9597 72.083 14.8175 72.3618 14.7148C72.987 14.4849 73.5679 14.1601 74.1714 13.8888C75.9334 13.0953 77.4373 11.9252 78.8192 10.6059C80.1846 9.30325 81.305 7.79432 81.9379 5.96851C82.4842 4.38848 82.0989 3.09111 80.4712 2.3994C79.0226 1.78319 77.6018 2.12729 76.2996 2.84532C73.8294 4.2059 71.9991 6.23097 70.6726 8.73268C70.541 8.98022 70.3843 9.21459 70.2406 9.4551C70.4804 8.39912 70.7748 7.38351 71.1869 6.40741C71.9385 4.6211 72.6025 2.77861 74.1783 1.50932C74.2485 1.45227 74.2874 1.37765 74.2537 1.28724C74.2069 1.15821 74.0978 1.18015 74 1.19507C73.8632 1.21702 73.7688 1.31709 73.6623 1.39872C72.5506 2.24579 71.8649 3.43432 71.1809 4.61144C70.1955 6.30909 69.7012 8.20952 69.0682 10.0564C68.0699 12.9751 67.5989 15.9955 67.2474 19.0459C67.2232 19.2636 67.2422 19.526 67.5193 19.5655C67.7834 19.6033 67.7712 19.3382 67.8154 19.1732C68.1427 17.9355 68.444 16.6881 68.6682 15.4259C68.741 15.0212 68.8752 14.8246 69.3254 14.9834C69.8466 15.1651 70.3843 15.267 70.9445 15.1063C71.2345 15.0229 71.4562 15.1493 71.6016 15.432C71.8969 15.9999 72.2147 16.5565 72.5082 17.1253C72.8294 17.7467 73.2666 18.1848 74.0052 18.2181C74.6312 18.2462 75.1749 18.0347 75.6762 17.6756C76.4659 17.1112 77.2529 16.5468 78.0443 15.9876C78.1542 15.9113 78.2564 15.7778 78.4261 15.9174C79.0209 16.4055 79.2261 16.4063 79.7828 15.834C80.0391 15.5716 80.2859 15.4847 80.6521 15.4847C81.0876 15.4847 81.5223 15.5373 81.9587 15.5145C82.3344 15.4952 82.6565 15.3311 83.0106 15.2266C83.2366 15.1608 83.6219 14.8922 83.8202 15.0958C84.015 15.2959 84.2626 15.3258 84.4973 15.3811C85.2107 15.5487 85.4047 15.8849 85.0678 16.538C84.6912 17.2692 84.0695 17.7467 83.3249 18.0575C83.0635 18.1663 82.7691 18.4323 82.505 18.1707C82.2366 17.9047 82.5336 17.6528 82.6531 17.407C82.7362 17.2359 82.7821 17.0621 82.4972 17.0787C82.1197 17.1007 81.769 17.5914 81.7881 18.0531C81.808 18.5095 82.0877 18.6544 82.4912 18.65C83.8531 18.6324 84.8176 17.8995 85.5267 16.811C86.093 15.9402 85.7986 15.3732 84.783 15.1845C84.5605 15.1432 84.318 15.0976 84.2877 14.7789C84.2289 14.139 85.2211 13.112 85.8739 13.1497C85.9579 13.155 86.0532 13.1699 86.0731 13.0628C86.0939 12.9698 86.0211 12.904 85.9389 12.8811ZM70.8137 14.5832C70.7583 14.7666 70.5601 14.7737 70.3895 14.7745C70.3393 14.7754 70.2891 14.7745 70.2388 14.7754C69.8761 14.7991 69.5574 14.642 69.2319 14.5156C69.0838 14.4585 68.9609 14.3681 68.999 14.1785C69.0345 14.0021 69.1756 13.9994 69.3115 13.9951C69.7341 13.9801 70.1436 14.0416 70.5211 14.2382C70.6596 14.3102 70.8821 14.362 70.8137 14.5832ZM71.4839 14.3418C70.9696 13.7651 70.3116 13.5246 69.5566 13.5737C69.2206 13.5957 69.1843 13.4605 69.289 13.191C70.5557 9.95984 72.0943 6.89019 74.6823 4.52103C75.9117 3.39745 77.3308 2.57408 79.0798 2.59164C79.4703 2.59603 79.8443 2.68205 80.201 2.81723C80.9379 3.09637 81.2599 3.64763 81.2738 4.76418C81.2409 6.24677 80.55 7.65036 79.5742 8.95476C77.6105 11.5794 75.0182 13.299 72.0164 14.4515C71.8077 14.5331 71.6475 14.5252 71.4839 14.3418ZM79.5369 15.3346C79.427 15.5689 79.2339 15.7603 78.9889 15.8647C78.8564 15.813 78.749 15.7331 78.8183 15.604C78.9291 15.4022 78.9439 15.0782 79.2746 15.1019C79.3872 15.1098 79.5924 15.2169 79.5369 15.3346ZM79.5352 14.8807C79.2694 14.6692 79.5595 14.5621 79.627 14.4418C79.724 14.2707 79.8928 14.1425 80.0192 13.988C80.111 13.8774 80.2504 13.7633 80.0841 13.6027C79.9292 13.4517 79.7863 13.4412 79.6062 13.5895C79.3837 13.7721 79.324 14.0758 79.104 14.2619C78.5369 13.4561 78.8599 12.336 79.7361 12.0095C80.3006 11.7997 80.8868 12.2289 80.8478 12.8267C80.8002 13.5544 80.5249 14.189 80.0694 14.75C79.9214 14.9334 79.7776 15.0721 79.5352 14.8807Z" fill="#7026A0"/>
<path d="M101.726 11.947C101.484 11.8846 101.161 11.8803 101.157 11.4931C101.156 11.2904 101.278 11.0191 101.485 11.0867C101.775 11.1807 102.232 11.1359 102.306 11.4993C102.355 11.7451 102.055 11.9382 101.726 11.947Z" fill="#7026A0"/>
<path d="M120.456 17.4144C120.324 17.2757 120.174 17.158 120 17.0825C119.89 17.0351 119.774 17 119.644 16.9842C119.205 16.9289 118.751 17.0536 118.354 17.2362C118.212 17.3011 118.072 17.3757 117.934 17.4539C117.838 17.5083 117.745 17.5627 117.65 17.6171C117.138 17.9085 116.609 18.2202 116.004 18.2254C115.829 18.2272 115.633 18.2298 115.466 18.1736C115.356 18.1368 115.215 18.099 115.119 18.0314C115.014 17.9612 114.921 17.8726 114.843 17.7646C114.586 17.4117 114.538 16.9184 114.517 16.4892C114.515 16.4444 114.515 16.3987 114.516 16.3505C114.522 16.0687 114.567 15.7474 114.434 15.5025C114.231 15.1303 113.682 15.3164 113.396 15.4621C112.73 15.808 112.181 16.3496 111.624 16.8447C111.417 17.0308 111.197 17.2081 110.961 17.3564C110.82 17.4451 110.672 17.5232 110.518 17.5864C110.469 17.6066 110.418 17.625 110.369 17.6426C110.256 17.6803 110.134 17.711 110.02 17.6759C109.787 17.6057 109.707 17.3117 109.706 17.0659C109.7 16.217 110.149 15.4068 110.092 14.5615C110.078 14.3649 110.036 14.1665 109.939 13.9953C109.842 13.8242 109.686 13.6829 109.497 13.6311C109.309 13.5802 109.112 13.6223 108.927 13.6934C108.882 13.7109 108.839 13.7294 108.796 13.7487C108.584 13.8452 108.384 13.9602 108.185 14.0814C108.184 14.0814 108.184 14.0822 108.182 14.0831C107.748 14.3491 107.329 14.6475 106.86 14.8442C106.79 14.874 106.72 14.9012 106.652 14.932C106.596 14.9565 106.358 15.0417 106.297 15.0575C106.281 15.0619 106.271 15.0654 106.266 15.0663C106.749 14.3096 107.236 13.5319 107.274 12.6313C107.287 12.3091 107.236 11.9694 107.045 11.7087C106.818 11.3971 106.424 11.2461 106.043 11.2268C105.389 11.1943 104.727 11.527 104.358 12.0756C103.989 12.6242 103.923 13.3686 104.191 13.9752C104.289 14.1972 104.431 14.4141 104.421 14.6563C104.405 14.9846 104.12 15.2243 103.862 15.4244C102.84 16.2179 101.873 17.0852 100.971 18.0174C100.796 18.1982 100.617 18.3861 100.387 18.4853C100.157 18.5836 99.8587 18.5686 99.6924 18.379C99.5409 18.207 99.5392 17.9498 99.5608 17.7207C99.6821 16.4295 100.278 15.2269 101.008 14.1613C101.11 14.0129 101.217 13.8593 101.244 13.6811C101.272 13.5029 101.189 13.2931 101.017 13.2422C100.813 13.1816 100.622 13.3668 100.492 13.5398C100.045 14.1332 99.6794 14.7898 99.3946 15.4806C99.0535 16.3057 98.8275 17.2335 99.0725 18.0929C99.2093 18.5704 99.5756 19.0532 100.066 19.0435C100.425 19.0374 100.722 18.7714 100.982 18.5212C101.887 17.6522 102.794 16.7823 103.699 15.9133C103.746 15.8686 103.796 15.8229 103.856 15.8027C103.972 15.7667 104.095 15.837 104.18 15.9247C104.265 16.0125 104.332 16.1196 104.433 16.1872C104.663 16.3443 104.983 16.2416 105.202 16.0678C105.421 15.8958 105.589 15.6605 105.822 15.5087C105.842 15.4964 105.861 15.485 105.883 15.4727C105.887 15.4709 105.888 15.4683 105.892 15.4683C105.948 15.4358 106.008 15.4095 106.068 15.3893C106.068 15.3884 106.071 15.3875 106.073 15.3875C106.096 15.377 106.12 15.3656 106.146 15.355C106.203 15.3366 106.259 15.3147 106.314 15.2927C106.39 15.2638 106.464 15.2374 106.539 15.2067C106.576 15.1918 106.613 15.176 106.65 15.1602C106.724 15.1286 106.797 15.0961 106.871 15.0619C107.017 14.9943 107.162 14.9232 107.305 14.8494C107.449 14.7757 107.591 14.6985 107.732 14.6203C107.874 14.5422 108.014 14.4623 108.155 14.3825C108.249 14.3289 108.342 14.2762 108.436 14.2227C108.561 14.1525 108.686 14.0822 108.812 14.0138C108.947 13.9392 109.097 13.8646 109.249 13.8874C109.387 13.9093 109.503 14.0103 109.571 14.1349C109.638 14.2578 109.662 14.4018 109.667 14.5422C109.687 15.0136 109.53 15.4718 109.406 15.9265C109.282 16.3821 109.191 16.8728 109.34 17.3196C109.401 17.5021 109.506 17.6759 109.664 17.7821C109.912 17.9454 110.243 17.9129 110.515 17.7962C110.529 17.79 110.544 17.7839 110.558 17.7769C110.704 17.7119 110.848 17.6294 110.987 17.5408C111.116 17.4582 111.241 17.3713 111.359 17.2844C111.636 17.0799 111.875 16.828 112.122 16.5883C112.366 16.3522 112.632 16.1416 112.908 15.9458C113.108 15.8045 113.34 15.6579 113.585 15.6158C113.687 15.5973 113.792 15.5973 113.897 15.6237C114.253 15.7088 114.214 16.1521 114.206 16.4391C114.205 16.5146 114.205 16.5919 114.206 16.6691V16.6726C114.224 17.3397 114.408 18.0806 115.016 18.3887C115.019 18.3905 115.021 18.3922 115.024 18.3931C115.074 18.4177 115.125 18.4396 115.179 18.458C115.201 18.4659 115.221 18.4721 115.244 18.4782C116.063 18.7205 116.854 18.2667 117.546 17.8655C117.615 17.8252 117.687 17.7857 117.759 17.7453C117.86 17.69 117.965 17.6373 118.07 17.5873C118.734 17.2748 119.479 17.108 120.1 17.6241C120.442 17.9077 120.741 18.2088 121.168 18.3703C121.574 18.5212 121.98 18.5748 122.409 18.5493C123.415 18.4923 124.427 18.2921 125.403 18.0472C125.651 17.9858 125.898 17.9182 126.143 17.8471C126.199 17.8313 126.253 17.783 126.297 17.7321C121.931 19.0822 121.086 18.0797 120.456 17.4144ZM105.241 15.3199C105.139 15.5315 104.975 15.743 104.736 15.8106C104.542 15.7931 104.529 15.6561 104.574 15.5534C104.661 15.3577 104.689 15.0742 104.964 15.0627C105.069 15.0575 105.319 15.154 105.241 15.3199ZM105.725 15.5745C105.724 15.5754 105.723 15.5763 105.723 15.5763V15.5754C105.723 15.5745 105.724 15.5745 105.725 15.5745C105.745 15.5561 105.766 15.5385 105.79 15.5236C105.757 15.549 105.733 15.5692 105.725 15.5745ZM105.671 14.8942C105.527 15.0733 105.403 14.9372 105.285 14.853C105.146 14.7538 105.146 14.644 105.272 14.5211C105.438 14.3544 105.606 14.1867 105.751 14.0041C105.847 13.8856 106.013 13.7443 105.839 13.5766C105.668 13.4125 105.483 13.4406 105.298 13.5845C105.08 13.7531 105.089 14.0884 104.793 14.2411C104.343 13.3212 104.572 12.4144 105.334 12.0431C105.971 11.735 106.558 12.1037 106.565 12.8094C106.573 13.6425 106.158 14.2841 105.671 14.8942Z" fill="#7026A0"/>
</g>
<defs>
<clipPath id="clip0_630_8919">
<rect width="125.691" height="20.3824" fill="white" transform="translate(0.603027 0.308594)"/>
</clipPath>
</defs>
</svg>
