<svg width="259" height="176" viewBox="0 0 259 176" fill="none" xmlns="http://www.w3.org/2000/svg">
<path d="M87.6475 66.4941C87.6475 66.4941 87.6512 66.4941 87.6549 66.4961C87.6604 66.4961 87.6678 66.4982 87.6771 66.5002C87.6826 66.5002 87.6882 66.5022 87.6956 66.5022C87.6789 66.4982 87.6623 66.4941 87.6475 66.4941Z" fill="#FFB8BC"/>
<path d="M53.3877 113.63L53.2979 115.512H53.7154L53.7244 115.396C53.7446 115.106 53.8097 114.873 53.9175 114.707C54.023 114.543 54.1464 114.436 54.2901 114.379C54.3709 114.35 54.5415 114.315 54.9052 114.315H55.5765V119.506C55.5765 119.981 55.5226 120.135 55.4911 120.183C55.3969 120.326 55.2352 120.397 54.9973 120.397H54.6471V120.836H57.6732V120.397H57.3275C57.1075 120.397 56.9459 120.337 56.8493 120.223C56.8179 120.185 56.7483 120.043 56.7483 119.506V114.315H57.5565C57.8079 114.315 58.01 114.357 58.1581 114.44C58.304 114.524 58.4208 114.65 58.5083 114.828C58.5622 114.937 58.6071 115.129 58.6408 115.4L58.6543 115.51H59.0673L58.9843 113.628H53.3877V113.63Z" fill="#FFB8BC" stroke="#FFB8BC" stroke-width="0.8"/>
<path d="M67.0593 114.07H67.4095C67.5442 114.07 67.6699 114.106 67.7933 114.177C67.8719 114.225 67.9236 114.277 67.946 114.334C67.9707 114.401 67.9999 114.569 67.9999 114.992V116.857H65.1825V114.992C65.1825 114.586 65.2094 114.422 65.2341 114.356C65.2633 114.275 65.3127 114.215 65.3868 114.175C65.508 114.106 65.6382 114.073 65.7729 114.073H66.1299V113.633H63.0745V114.073H63.4247C63.5617 114.073 63.6874 114.108 63.8108 114.18C63.8872 114.227 63.9366 114.279 63.959 114.339C63.9837 114.405 64.0129 114.574 64.0129 114.997V119.487C64.0129 120.015 63.9478 120.162 63.9208 120.2C63.8198 120.338 63.6582 120.402 63.4225 120.402H63.0723V120.842H66.1276V120.402H65.7707C65.636 120.402 65.508 120.366 65.3868 120.295C65.3082 120.248 65.2566 120.195 65.2341 120.138C65.2094 120.072 65.1802 119.903 65.1802 119.487V117.494H67.9976V119.487C67.9976 120.012 67.9303 120.162 67.9011 120.2C67.8001 120.338 67.6407 120.402 67.4072 120.402H67.057V120.842H70.1056V120.402H69.7554C69.6185 120.402 69.4928 120.366 69.3693 120.295C69.293 120.248 69.2436 120.195 69.2211 120.136C69.1964 120.07 69.1672 119.901 69.1672 119.483V114.992C69.1672 114.586 69.1942 114.422 69.2166 114.353C69.2436 114.272 69.293 114.215 69.3715 114.173C69.4928 114.104 69.623 114.07 69.7577 114.07H70.1079V113.631H67.0593V114.07Z" fill="#FFB8BC" stroke="#FFB8BC" stroke-width="0.8"/>
<path d="M79.5684 118.914C79.3641 119.328 79.1643 119.641 78.9757 119.843C78.8343 119.988 78.6883 120.088 78.5379 120.135C78.3808 120.185 78.1204 120.212 77.7634 120.212H76.6477C76.4299 120.212 76.3604 120.183 76.3379 120.169C76.2975 120.143 76.2683 120.112 76.2526 120.071C76.2481 120.059 76.2234 119.974 76.2234 119.556V117.387H77.5502C77.8061 117.387 77.9947 117.417 78.1091 117.477C78.2192 117.534 78.2955 117.608 78.3404 117.703C78.3628 117.75 78.4077 117.893 78.4639 118.316L78.4773 118.422H78.8792V115.75H78.4683L78.4616 115.868C78.4436 116.23 78.3628 116.479 78.2192 116.612C78.1473 116.679 77.9745 116.759 77.5457 116.759H76.2189V114.26H77.9049C78.291 114.26 78.4683 114.298 78.5424 114.326C78.6816 114.388 78.7849 114.476 78.8545 114.59C78.9061 114.676 78.9824 114.866 79.0632 115.301L79.0812 115.403H79.492L79.4067 113.628H74.1087V114.067H74.4589C74.6946 114.067 74.8607 114.122 74.9505 114.229C74.9797 114.265 75.0471 114.407 75.0471 114.963V119.484C75.0471 119.886 75.0201 120.048 74.9977 120.114C74.9707 120.192 74.9214 120.252 74.8428 120.292C74.7216 120.361 74.5913 120.397 74.4567 120.397H74.1064V120.836H79.3775L80.0263 118.841H79.5953L79.5684 118.914Z" fill="#FFB8BC" stroke="#FFB8BC" stroke-width="0.8"/>
<path d="M95.3807 113.994C94.8553 113.752 94.0853 113.631 93.0908 113.631H90.2959V114.07H90.6618C90.8773 114.07 91.0322 114.13 91.1355 114.253C91.1669 114.291 91.2433 114.441 91.2433 114.987V119.483C91.2433 119.963 91.1894 120.122 91.1557 120.174C91.0614 120.326 90.8998 120.4 90.6641 120.4H90.2981V120.839H93.3557C94.6623 120.839 95.6501 120.459 96.2943 119.711C96.869 119.041 97.1586 118.195 97.1586 117.199C97.1586 116.458 96.9948 115.793 96.6737 115.225C96.3482 114.655 95.915 114.241 95.3807 113.994ZM95.8139 117.252C95.8139 118.169 95.576 118.903 95.1045 119.435C94.6353 119.965 94.0359 120.231 93.3243 120.231C93.0774 120.231 92.7698 120.191 92.4106 120.112V114.394C92.7361 114.313 93.0302 114.272 93.2861 114.272C94.0247 114.272 94.6376 114.538 95.1068 115.064C95.576 115.591 95.8139 116.327 95.8139 117.252Z" fill="#FFB8BC" stroke="#FFB8BC" stroke-width="0.8"/>
<path d="M106.791 118.914C106.586 119.328 106.386 119.641 106.198 119.843C106.056 119.988 105.911 120.088 105.76 120.135C105.603 120.185 105.343 120.212 104.986 120.212H103.87C103.652 120.212 103.583 120.183 103.56 120.169C103.52 120.143 103.49 120.112 103.475 120.071C103.47 120.059 103.446 119.974 103.446 119.556V117.387H104.772C105.028 117.387 105.217 117.417 105.331 117.477C105.441 117.534 105.518 117.608 105.563 117.703C105.585 117.75 105.63 117.893 105.686 118.316L105.699 118.422H106.101V115.75H105.691L105.684 115.868C105.666 116.23 105.585 116.479 105.441 116.612C105.369 116.679 105.197 116.759 104.768 116.759H103.441V114.26H105.127C105.513 114.26 105.691 114.298 105.765 114.326C105.904 114.388 106.007 114.476 106.077 114.59C106.128 114.676 106.205 114.866 106.285 115.301L106.303 115.403H106.714L106.629 113.628H101.331V114.067H101.681C101.917 114.067 102.083 114.122 102.173 114.229C102.202 114.265 102.269 114.407 102.269 114.963V119.484C102.269 119.886 102.242 120.048 102.22 120.114C102.193 120.192 102.144 120.252 102.065 120.292C101.944 120.361 101.814 120.397 101.679 120.397H101.329V120.836H106.6L107.248 118.841H106.817L106.791 118.914Z" fill="#FFB8BC" stroke="#FFB8BC" stroke-width="0.8"/>
<path d="M115.514 117.386C115.285 117.196 114.856 116.923 114.239 116.571C113.502 116.153 113.033 115.818 112.842 115.573C112.721 115.421 112.663 115.257 112.663 115.074C112.663 114.832 112.759 114.618 112.955 114.423C113.154 114.226 113.399 114.131 113.709 114.131C113.985 114.131 114.257 114.207 114.515 114.357C114.773 114.507 114.973 114.709 115.112 114.963C115.253 115.222 115.354 115.576 115.411 116.02L115.424 116.129H115.826V113.471H115.433L115.413 113.57C115.377 113.753 115.334 113.81 115.319 113.827C115.287 113.858 115.247 113.872 115.193 113.872C115.166 113.872 115.083 113.86 114.858 113.753C114.454 113.566 114.064 113.471 113.7 113.471C113.112 113.471 112.62 113.663 112.236 114.046C111.85 114.431 111.655 114.894 111.655 115.428C111.655 115.735 111.722 116.022 111.852 116.279C111.983 116.533 112.176 116.766 112.425 116.975C112.669 117.179 113.067 117.443 113.642 117.785C114.196 118.116 114.54 118.332 114.661 118.429C114.834 118.569 114.962 118.719 115.042 118.876C115.121 119.03 115.161 119.185 115.161 119.334C115.161 119.608 115.058 119.84 114.849 120.042C114.638 120.244 114.344 120.349 113.972 120.349C113.644 120.349 113.338 120.27 113.065 120.116C112.793 119.964 112.589 119.772 112.458 119.543C112.324 119.311 112.216 118.947 112.135 118.465L112.117 118.36H111.72V120.997H112.119L112.135 120.891C112.162 120.703 112.198 120.653 112.207 120.641C112.223 120.624 112.25 120.603 112.315 120.603C112.355 120.603 112.481 120.624 112.878 120.76C113.204 120.872 113.413 120.933 113.518 120.952C113.691 120.983 113.88 121 114.077 121C114.712 121 115.242 120.796 115.649 120.394C116.057 119.99 116.266 119.501 116.266 118.94C116.266 118.645 116.201 118.358 116.071 118.087C115.936 117.821 115.75 117.586 115.514 117.386Z" fill="#FFB8BC" stroke="#FFB8BC" stroke-width="0.8"/>
<path d="M120.637 114.071H120.987C121.121 114.071 121.252 114.107 121.373 114.178C121.449 114.225 121.499 114.278 121.521 114.337C121.546 114.404 121.575 114.572 121.575 114.99V119.486C121.575 120.013 121.51 120.16 121.483 120.198C121.382 120.336 121.22 120.4 120.984 120.4H120.634V120.84H123.69V120.4H123.333C123.196 120.4 123.072 120.365 122.949 120.293C122.87 120.246 122.819 120.194 122.796 120.137C122.771 120.07 122.742 119.901 122.742 119.483V114.988C122.742 114.463 122.81 114.313 122.839 114.275C122.94 114.137 123.099 114.073 123.333 114.073H123.69V113.634H120.634V114.071H120.637Z" fill="#FFB8BC" stroke="#FFB8BC" stroke-width="0.8"/>
<path d="M132.016 117.239H132.135C132.44 117.239 132.577 117.277 132.637 117.311C132.72 117.356 132.779 117.418 132.817 117.501C132.839 117.551 132.88 117.7 132.88 118.13V120.069C132.698 120.174 132.507 120.254 132.312 120.309C132.096 120.371 131.872 120.402 131.641 120.402C131.25 120.402 130.864 120.278 130.493 120.038C130.123 119.798 129.818 119.411 129.587 118.888C129.353 118.361 129.234 117.767 129.234 117.125C129.234 116.337 129.411 115.648 129.762 115.08C130.179 114.41 130.772 114.084 131.573 114.084C132.152 114.084 132.633 114.274 132.999 114.65C133.255 114.911 133.468 115.31 133.632 115.835L133.659 115.921H134.043L133.854 113.474H133.455L133.448 113.592C133.437 113.799 133.403 113.861 133.392 113.875C133.365 113.911 133.345 113.916 133.329 113.916C133.313 113.916 133.239 113.908 133.006 113.816C132.637 113.671 132.359 113.581 132.157 113.538C131.955 113.495 131.728 113.474 131.481 113.474C130.808 113.474 130.213 113.63 129.714 113.937C129.122 114.308 128.65 114.842 128.311 115.526C128.026 116.104 127.88 116.714 127.88 117.344C127.88 118.214 128.139 118.993 128.648 119.66C129.328 120.549 130.334 121 131.636 121C132.085 121 132.503 120.948 132.873 120.848C133.244 120.746 133.621 120.587 134 120.371L134.063 120.335V118.13C134.063 117.693 134.108 117.515 134.144 117.441C134.216 117.306 134.352 117.239 134.559 117.239H134.799V116.793H132.016V117.239Z" fill="#FFB8BC" stroke="#FFB8BC" stroke-width="0.8"/>
<path d="M143.279 114.07H143.624C143.846 114.07 144.008 114.127 144.105 114.244C144.136 114.282 144.21 114.424 144.21 114.961V118.623L140.365 113.631H138.405V114.07H138.524C138.701 114.07 138.834 114.085 138.914 114.111C139.092 114.17 139.226 114.237 139.316 114.303C139.377 114.348 139.491 114.458 139.7 114.714V119.506C139.7 119.982 139.646 120.136 139.615 120.184C139.521 120.326 139.359 120.397 139.116 120.397H138.771V120.837H141.296V120.397H140.946C140.726 120.397 140.564 120.338 140.468 120.224C140.436 120.186 140.367 120.043 140.367 119.506V115.574L144.527 120.953H144.877V114.961C144.877 114.486 144.931 114.332 144.962 114.284C145.057 114.142 145.218 114.07 145.456 114.07H145.806V113.631H143.281V114.07H143.279Z" fill="#FFB8BC" stroke="#FFB8BC" stroke-width="0.8"/>
<path d="M160.013 114.07H160.364C160.501 114.07 160.624 114.106 160.747 114.177C160.826 114.225 160.878 114.277 160.9 114.334C160.92 114.389 160.954 114.548 160.954 114.992V116.857H158.137V114.992C158.137 114.586 158.164 114.422 158.188 114.356C158.217 114.275 158.267 114.215 158.341 114.173C158.462 114.104 158.592 114.07 158.727 114.07H159.084V113.631H156.029V114.07H156.379C156.516 114.07 156.641 114.106 156.765 114.177C156.841 114.225 156.891 114.277 156.913 114.336C156.938 114.403 156.967 114.572 156.967 114.995V119.485C156.967 120.012 156.902 120.16 156.875 120.198C156.774 120.336 156.612 120.4 156.377 120.4H156.026V120.839H159.082V120.4H158.725C158.588 120.4 158.464 120.364 158.341 120.293C158.262 120.245 158.211 120.193 158.19 120.136C158.166 120.069 158.134 119.901 158.134 119.485V117.492H160.952V119.485C160.952 120.01 160.884 120.16 160.855 120.198C160.754 120.336 160.593 120.4 160.361 120.4H160.011V120.839H163.06V120.4H162.71C162.573 120.4 162.447 120.364 162.323 120.293C162.247 120.245 162.198 120.193 162.175 120.134C162.151 120.067 162.121 119.898 162.121 119.483V114.992C162.121 114.586 162.148 114.422 162.171 114.353C162.198 114.272 162.247 114.215 162.326 114.173C162.447 114.104 162.577 114.07 162.712 114.07H163.062V113.631H160.013V114.07Z" fill="#FFB8BC" stroke="#FFB8BC" stroke-width="0.8"/>
<path d="M170.613 113.474C169.727 113.474 168.954 113.79 168.317 114.414C167.585 115.134 167.212 116.075 167.212 117.211C167.212 118.32 167.533 119.24 168.169 119.941C168.804 120.644 169.601 121 170.537 121C171.462 121 172.261 120.635 172.912 119.915C173.561 119.195 173.891 118.28 173.891 117.194C173.891 116.139 173.563 115.246 172.919 114.538C172.272 113.832 171.496 113.474 170.613 113.474ZM170.521 114.098C171.116 114.098 171.568 114.312 171.902 114.749C172.326 115.308 172.54 116.177 172.54 117.334C172.54 118.396 172.347 119.183 171.963 119.665C171.581 120.15 171.11 120.385 170.524 120.385C169.978 120.385 169.552 120.171 169.219 119.734C168.779 119.147 168.557 118.292 168.557 117.19C168.557 116.116 168.773 115.294 169.195 114.745C169.534 114.31 169.967 114.098 170.521 114.098Z" fill="#FFB8BC" stroke="#FFB8BC" stroke-width="0.8"/>
<path d="M182.605 114.07H182.971C183.186 114.07 183.341 114.129 183.444 114.253C183.476 114.291 183.55 114.44 183.55 114.987V117.805C183.55 118.522 183.489 119.035 183.373 119.328C183.26 119.61 183.043 119.846 182.728 120.029C182.407 120.216 182.039 120.311 181.631 120.311C181.314 120.311 181.047 120.252 180.834 120.135C180.623 120.019 180.459 119.872 180.346 119.694C180.234 119.515 180.156 119.259 180.111 118.929C180.066 118.586 180.041 118.28 180.041 118.016V114.982C180.041 114.507 180.104 114.341 180.142 114.284C180.236 114.136 180.394 114.067 180.627 114.067H180.997V113.628H177.92V114.067H178.286C178.499 114.067 178.649 114.12 178.737 114.224C178.8 114.3 178.874 114.493 178.874 114.982V117.703C178.874 118.563 178.928 119.138 179.035 119.461C179.199 119.929 179.48 120.307 179.871 120.585C180.261 120.86 180.834 121 181.57 121C182.25 121 182.798 120.853 183.2 120.566C183.602 120.276 183.878 119.922 184.017 119.513C184.152 119.116 184.219 118.556 184.219 117.845V115.027C184.219 114.538 184.275 114.398 184.302 114.355C184.419 114.163 184.583 114.07 184.798 114.07H185.164V113.63H182.6V114.07H182.605Z" fill="#FFB8BC" stroke="#FFB8BC" stroke-width="0.8"/>
<path d="M193.355 117.386C193.126 117.196 192.697 116.922 192.08 116.571C191.343 116.153 190.874 115.818 190.683 115.573C190.562 115.421 190.504 115.257 190.504 115.074C190.504 114.832 190.6 114.618 190.795 114.425C190.995 114.228 191.24 114.133 191.55 114.133C191.826 114.133 192.097 114.209 192.356 114.359C192.614 114.508 192.814 114.71 192.953 114.962C193.094 115.221 193.195 115.578 193.251 116.019L193.265 116.129H193.667V113.47H193.274L193.254 113.57C193.218 113.753 193.175 113.81 193.159 113.824C193.128 113.855 193.087 113.869 193.034 113.869C193.007 113.869 192.924 113.857 192.699 113.751C192.295 113.563 191.904 113.468 191.541 113.468C190.953 113.468 190.461 113.66 190.077 114.043C189.691 114.428 189.496 114.891 189.496 115.425C189.496 115.732 189.563 116.019 189.695 116.276C189.826 116.53 190.019 116.763 190.266 116.972C190.51 117.177 190.908 117.44 191.482 117.782C192.039 118.113 192.38 118.329 192.502 118.426C192.674 118.566 192.802 118.716 192.883 118.873C192.962 119.027 193.002 119.182 193.002 119.331C193.002 119.605 192.899 119.838 192.69 120.039C192.479 120.241 192.185 120.346 191.812 120.346C191.485 120.346 191.179 120.268 190.905 120.113C190.634 119.961 190.429 119.769 190.299 119.541C190.165 119.308 190.057 118.944 189.976 118.462L189.958 118.357H189.561V120.995H189.96L189.976 120.888C190.003 120.7 190.039 120.65 190.048 120.638C190.064 120.622 190.091 120.6 190.153 120.6C190.194 120.6 190.319 120.622 190.717 120.757C191.04 120.869 191.251 120.93 191.357 120.949C191.53 120.98 191.718 120.997 191.916 120.997C192.551 120.997 193.081 120.793 193.487 120.391C193.896 119.987 194.104 119.498 194.104 118.937C194.104 118.642 194.039 118.355 193.909 118.084C193.779 117.82 193.593 117.585 193.355 117.386Z" fill="#FFB8BC" stroke="#FFB8BC" stroke-width="0.8"/>
<path d="M203.923 118.845L203.889 118.912C203.685 119.325 203.485 119.639 203.297 119.841C203.155 119.986 203.009 120.086 202.859 120.133C202.702 120.183 202.441 120.209 202.085 120.209H200.969C200.751 120.209 200.681 120.181 200.659 120.166C200.619 120.14 200.589 120.109 200.574 120.069C200.567 120.05 200.544 119.962 200.544 119.556V117.387H201.871C202.127 117.387 202.316 117.417 202.43 117.477C202.54 117.534 202.617 117.608 202.661 117.703C202.684 117.75 202.729 117.893 202.785 118.316L202.798 118.422H203.198V115.75H202.787L202.78 115.868C202.762 116.23 202.682 116.479 202.538 116.612C202.466 116.679 202.293 116.759 201.865 116.759H200.538V114.26H202.224C202.61 114.26 202.787 114.298 202.861 114.326C203 114.388 203.104 114.476 203.173 114.59C203.225 114.676 203.301 114.868 203.382 115.301L203.4 115.403H203.811L203.726 113.628H198.428V114.067H198.778C199.013 114.067 199.18 114.122 199.269 114.229C199.292 114.258 199.366 114.393 199.366 114.963V119.484C199.366 119.886 199.339 120.048 199.317 120.114C199.29 120.192 199.24 120.252 199.162 120.292C199.04 120.361 198.91 120.394 198.776 120.394H198.425V120.834H203.696L204.345 118.838H203.923V118.845Z" fill="#FFB8BC" stroke="#FFB8BC" stroke-width="0.8"/>
<path d="M79.5684 118.916C79.3641 119.33 79.1643 119.643 78.9757 119.845C78.8343 119.99 78.6883 120.09 78.5379 120.137C78.3808 120.187 78.1204 120.213 77.7634 120.213H76.6477C76.4299 120.213 76.3604 120.185 76.3379 120.171C76.2975 120.145 76.2683 120.114 76.2526 120.073C76.2481 120.061 76.2234 119.976 76.2234 119.558V117.389H77.5502C77.8061 117.389 77.9947 117.419 78.1091 117.479C78.2192 117.536 78.2955 117.609 78.3404 117.705C78.3628 117.752 78.4077 117.895 78.4639 118.318L78.4773 118.424H78.8792V115.752H78.4683L78.4616 115.87C78.4436 116.231 78.3628 116.481 78.2192 116.614C78.1473 116.681 77.9745 116.761 77.5457 116.761H76.2189V114.262H77.9049C78.291 114.262 78.4683 114.3 78.5424 114.328C78.6816 114.39 78.7849 114.478 78.8545 114.592C78.9061 114.678 78.9824 114.868 79.0632 115.303L79.0812 115.405H79.492L79.4067 113.63H74.1087V114.069H74.4589C74.6946 114.069 74.8607 114.124 74.9505 114.231C74.9797 114.267 75.0471 114.409 75.0471 114.965V119.486C75.0471 119.888 75.0201 120.05 74.9977 120.116C74.9707 120.194 74.9214 120.254 74.8428 120.294C74.7216 120.363 74.5913 120.399 74.4567 120.399H74.1064V120.838H79.3775L80.0263 118.843H79.5953L79.5684 118.916Z" fill="#FFB8BC" stroke="#FFB8BC" stroke-width="0.8"/>
<path d="M95.3807 113.994C94.8553 113.752 94.0853 113.631 93.0908 113.631H90.2959V114.07H90.6618C90.8773 114.07 91.0322 114.13 91.1355 114.253C91.1669 114.291 91.2433 114.441 91.2433 114.987V119.483C91.2433 119.963 91.1894 120.122 91.1557 120.174C91.0614 120.326 90.8998 120.4 90.6641 120.4H90.2981V120.839H93.3557C94.6623 120.839 95.6501 120.459 96.2943 119.711C96.869 119.041 97.1586 118.195 97.1586 117.199C97.1586 116.458 96.9948 115.793 96.6737 115.225C96.3482 114.655 95.915 114.241 95.3807 113.994ZM95.8139 117.252C95.8139 118.169 95.576 118.903 95.1045 119.435C94.6353 119.965 94.0359 120.231 93.3243 120.231C93.0774 120.231 92.7698 120.191 92.4106 120.112V114.394C92.7361 114.313 93.0302 114.272 93.2861 114.272C94.0247 114.272 94.6376 114.538 95.1068 115.064C95.576 115.591 95.8139 116.327 95.8139 117.252Z" fill="#FFB8BC" stroke="#FFB8BC" stroke-width="0.8"/>
<path d="M115.514 117.387C115.285 117.197 114.856 116.924 114.239 116.572C113.502 116.154 113.033 115.819 112.842 115.574C112.721 115.422 112.663 115.258 112.663 115.075C112.663 114.833 112.759 114.619 112.955 114.424C113.154 114.227 113.399 114.132 113.709 114.132C113.985 114.132 114.257 114.208 114.515 114.358C114.773 114.508 114.973 114.71 115.112 114.964C115.253 115.223 115.354 115.577 115.411 116.021L115.424 116.13H115.826V113.472H115.433L115.413 113.571C115.377 113.754 115.334 113.811 115.319 113.828C115.287 113.859 115.247 113.873 115.193 113.873C115.166 113.873 115.083 113.861 114.858 113.754C114.454 113.567 114.064 113.472 113.7 113.472C113.112 113.472 112.62 113.664 112.236 114.047C111.85 114.432 111.655 114.895 111.655 115.429C111.655 115.736 111.722 116.023 111.852 116.28C111.983 116.534 112.176 116.767 112.425 116.976C112.669 117.18 113.067 117.444 113.642 117.786C114.196 118.117 114.54 118.333 114.661 118.43C114.834 118.57 114.962 118.72 115.042 118.877C115.121 119.031 115.161 119.186 115.161 119.335C115.161 119.609 115.058 119.841 114.849 120.043C114.638 120.245 114.344 120.35 113.972 120.35C113.644 120.35 113.338 120.271 113.065 120.117C112.793 119.965 112.589 119.773 112.458 119.544C112.324 119.312 112.216 118.948 112.135 118.466L112.117 118.361H111.72V120.998H112.119L112.135 120.892C112.162 120.704 112.198 120.654 112.207 120.642C112.223 120.625 112.25 120.604 112.315 120.604C112.355 120.604 112.481 120.625 112.878 120.761C113.204 120.873 113.413 120.934 113.518 120.953C113.691 120.984 113.88 121.001 114.077 121.001C114.712 121.001 115.242 120.797 115.649 120.395C116.057 119.991 116.266 119.502 116.266 118.941C116.266 118.646 116.201 118.359 116.071 118.088C115.936 117.822 115.75 117.587 115.514 117.387Z" fill="#FFB8BC" stroke="#FFB8BC" stroke-width="0.8"/>
<path d="M132.016 117.239H132.135C132.44 117.239 132.577 117.277 132.637 117.311C132.72 117.356 132.779 117.418 132.817 117.501C132.839 117.551 132.88 117.7 132.88 118.13V120.069C132.698 120.174 132.507 120.254 132.312 120.309C132.096 120.371 131.872 120.402 131.641 120.402C131.25 120.402 130.864 120.278 130.493 120.038C130.123 119.798 129.818 119.411 129.587 118.888C129.353 118.361 129.234 117.767 129.234 117.125C129.234 116.337 129.411 115.648 129.762 115.08C130.179 114.41 130.772 114.084 131.573 114.084C132.152 114.084 132.633 114.274 132.999 114.65C133.255 114.911 133.468 115.31 133.632 115.835L133.659 115.921H134.043L133.854 113.474H133.455L133.448 113.592C133.437 113.799 133.403 113.861 133.392 113.875C133.365 113.911 133.345 113.916 133.329 113.916C133.313 113.916 133.239 113.908 133.006 113.816C132.637 113.671 132.359 113.581 132.157 113.538C131.955 113.495 131.728 113.474 131.481 113.474C130.808 113.474 130.213 113.63 129.714 113.937C129.122 114.308 128.65 114.842 128.311 115.526C128.026 116.104 127.88 116.714 127.88 117.344C127.88 118.214 128.139 118.993 128.648 119.66C129.328 120.549 130.334 121 131.636 121C132.085 121 132.503 120.948 132.873 120.848C133.244 120.746 133.621 120.587 134 120.371L134.063 120.335V118.13C134.063 117.693 134.108 117.515 134.144 117.441C134.216 117.306 134.352 117.239 134.559 117.239H134.799V116.793H132.016V117.239Z" fill="#FFB8BC" stroke="#FFB8BC" stroke-width="0.8"/>
<path d="M143.279 114.07H143.624C143.846 114.07 144.008 114.127 144.105 114.244C144.136 114.282 144.21 114.424 144.21 114.961V118.623L140.365 113.631H138.405V114.07H138.524C138.701 114.07 138.834 114.085 138.914 114.111C139.092 114.17 139.226 114.237 139.316 114.303C139.377 114.348 139.491 114.458 139.7 114.714V119.506C139.7 119.982 139.646 120.136 139.615 120.184C139.521 120.326 139.359 120.397 139.116 120.397H138.771V120.837H141.296V120.397H140.946C140.726 120.397 140.564 120.338 140.468 120.224C140.436 120.186 140.367 120.043 140.367 119.506V115.574L144.527 120.953H144.877V114.961C144.877 114.486 144.931 114.332 144.962 114.284C145.057 114.142 145.218 114.07 145.456 114.07H145.806V113.631H143.281V114.07H143.279Z" fill="#FFB8BC" stroke="#FFB8BC" stroke-width="0.8"/>
<path d="M160.013 114.07H160.364C160.501 114.07 160.624 114.106 160.747 114.177C160.826 114.225 160.878 114.277 160.9 114.334C160.92 114.389 160.954 114.548 160.954 114.992V116.857H158.137V114.992C158.137 114.586 158.164 114.422 158.188 114.356C158.217 114.275 158.267 114.215 158.341 114.173C158.462 114.104 158.592 114.07 158.727 114.07H159.084V113.631H156.029V114.07H156.379C156.516 114.07 156.641 114.106 156.765 114.177C156.841 114.225 156.891 114.277 156.913 114.336C156.938 114.403 156.967 114.572 156.967 114.995V119.485C156.967 120.012 156.902 120.16 156.875 120.198C156.774 120.336 156.612 120.4 156.377 120.4H156.026V120.839H159.082V120.4H158.725C158.588 120.4 158.464 120.364 158.341 120.293C158.262 120.245 158.211 120.193 158.19 120.136C158.166 120.069 158.134 119.901 158.134 119.485V117.492H160.952V119.485C160.952 120.01 160.884 120.16 160.855 120.198C160.754 120.336 160.593 120.4 160.361 120.4H160.011V120.839H163.06V120.4H162.71C162.573 120.4 162.447 120.364 162.323 120.293C162.247 120.245 162.198 120.193 162.175 120.134C162.151 120.067 162.121 119.898 162.121 119.483V114.992C162.121 114.586 162.148 114.422 162.171 114.353C162.198 114.272 162.247 114.215 162.326 114.173C162.447 114.104 162.577 114.07 162.712 114.07H163.062V113.631H160.013V114.07Z" fill="#FFB8BC" stroke="#FFB8BC" stroke-width="0.8"/>
<path d="M193.354 117.386C193.125 117.196 192.696 116.922 192.079 116.571C191.343 116.153 190.873 115.818 190.683 115.573C190.561 115.421 190.503 115.257 190.503 115.074C190.503 114.832 190.6 114.618 190.795 114.425C190.995 114.228 191.239 114.133 191.549 114.133C191.825 114.133 192.097 114.209 192.355 114.359C192.613 114.508 192.813 114.71 192.952 114.962C193.094 115.221 193.195 115.578 193.251 116.019L193.264 116.129H193.666V113.47H193.273L193.253 113.57C193.217 113.753 193.175 113.81 193.159 113.824C193.127 113.855 193.087 113.869 193.033 113.869C193.006 113.869 192.923 113.857 192.699 113.751C192.295 113.563 191.904 113.468 191.54 113.468C190.952 113.468 190.46 113.66 190.077 114.043C189.69 114.428 189.495 114.891 189.495 115.425C189.495 115.732 189.562 116.019 189.695 116.276C189.825 116.53 190.018 116.763 190.265 116.972C190.51 117.177 190.907 117.44 191.482 117.782C192.039 118.113 192.38 118.329 192.501 118.426C192.674 118.566 192.802 118.716 192.883 118.873C192.961 119.027 193.002 119.182 193.002 119.331C193.002 119.605 192.898 119.838 192.69 120.039C192.479 120.241 192.185 120.346 191.812 120.346C191.484 120.346 191.179 120.268 190.905 120.113C190.633 119.961 190.429 119.769 190.299 119.541C190.164 119.308 190.056 118.944 189.976 118.462L189.958 118.357H189.56V120.995H189.96L189.976 120.888C190.002 120.7 190.038 120.65 190.047 120.638C190.063 120.622 190.09 120.6 190.153 120.6C190.193 120.6 190.319 120.622 190.716 120.757C191.04 120.869 191.251 120.93 191.356 120.949C191.529 120.98 191.718 120.997 191.915 120.997C192.55 120.997 193.08 120.793 193.487 120.391C193.895 119.987 194.104 119.498 194.104 118.937C194.104 118.642 194.039 118.355 193.909 118.084C193.778 117.82 193.592 117.585 193.354 117.386Z" fill="#FFB8BC" stroke="#FFB8BC" stroke-width="0.8"/>
<path d="M203.923 118.847L203.889 118.914C203.685 119.327 203.485 119.641 203.297 119.843C203.155 119.988 203.009 120.088 202.859 120.135C202.702 120.185 202.441 120.211 202.084 120.211H200.969C200.751 120.211 200.681 120.183 200.659 120.168C200.618 120.142 200.589 120.111 200.573 120.071C200.567 120.052 200.544 119.964 200.544 119.558V117.389H201.871C202.127 117.389 202.316 117.419 202.43 117.479C202.54 117.536 202.616 117.609 202.661 117.705C202.684 117.752 202.729 117.895 202.785 118.317L202.798 118.424H203.198V115.752H202.787L202.78 115.87C202.762 116.231 202.681 116.481 202.538 116.614C202.466 116.681 202.293 116.761 201.864 116.761H200.538V114.262H202.223C202.61 114.262 202.787 114.3 202.861 114.328C203 114.39 203.103 114.478 203.173 114.592C203.225 114.678 203.301 114.87 203.382 115.302L203.4 115.405H203.811L203.725 113.63H198.427V114.069H198.777C199.013 114.069 199.179 114.124 199.269 114.231C199.292 114.259 199.366 114.395 199.366 114.965V119.486C199.366 119.888 199.339 120.05 199.316 120.116C199.289 120.194 199.24 120.254 199.161 120.294C199.04 120.363 198.91 120.396 198.775 120.396H198.425V120.836H203.696L204.345 118.84H203.923V118.847Z" fill="#FFB8BC" stroke="#FFB8BC" stroke-width="0.8"/>
<g opacity="0.75">
<path d="M63.4601 27.2942C67.6641 23.2934 72.3085 19.7079 77.2954 16.6081C82.2803 13.5064 87.6038 10.892 93.1445 8.79285C104.23 4.58892 116.171 2.45465 128.113 2.37156C140.056 2.29033 152.028 4.25106 163.205 8.24821C174.377 12.2343 184.744 18.3159 193.262 26.2345C197.521 30.1873 201.355 34.5463 204.682 39.2266C208.011 43.9069 210.829 48.9065 213.088 54.1241C217.611 64.5573 219.866 75.8471 219.782 87.113C219.699 98.3807 217.306 109.628 212.757 120.048C208.217 130.471 201.519 140.054 193.131 148.08C188.942 152.098 184.345 155.735 179.409 158.91C174.475 162.086 169.206 164.8 163.705 166.999C152.703 171.402 140.772 173.719 128.822 173.797C116.871 173.891 104.905 171.74 93.8315 167.497C82.752 163.266 72.5903 156.927 64.0942 148.998C55.5883 141.079 48.7265 131.584 44.1115 121.18C39.4808 110.786 37.0657 99.5254 37.0128 88.2558C36.9541 76.9844 39.2616 65.7093 43.7866 55.2798C46.0471 50.066 48.8557 45.0626 52.1594 40.3713C55.4611 35.6762 59.2561 31.2932 63.4601 27.2942ZM63.4738 27.3053C59.2757 31.3098 55.4866 35.6947 52.1927 40.3897C48.8968 45.0848 46.0961 50.0863 43.8453 55.3001C39.336 65.7259 37.0461 76.9955 37.1244 88.2521C37.1948 99.5088 39.6256 110.747 44.2661 121.116C46.5853 126.3 49.4409 131.268 52.7896 135.924C56.1364 140.581 59.9744 144.921 64.2156 148.878C72.694 156.793 82.8361 163.122 93.8941 167.348C104.946 171.585 116.891 173.732 128.82 173.642C140.749 173.56 152.66 171.264 163.65 166.879C169.146 164.689 174.41 161.986 179.34 158.818C184.273 155.652 188.87 152.024 193.058 148.016C201.445 140.005 208.146 130.434 212.691 120.024C214.965 114.82 216.707 109.408 217.887 103.89C219.067 98.3715 219.676 92.7441 219.711 87.1148C219.783 75.8564 217.519 64.5813 212.99 54.1647C210.73 48.9564 207.909 43.9641 204.58 39.2931C201.253 34.622 197.419 30.2722 193.164 26.3286C188.911 22.3832 184.192 18.8882 179.145 15.8899C174.097 12.8915 168.723 10.388 163.149 8.38483C151.997 4.37845 140.044 2.4048 128.113 2.47126C116.182 2.53773 104.25 4.65723 93.1661 8.84455C87.6253 10.9364 82.3038 13.5451 77.3169 16.6376C72.33 19.7319 67.6798 23.3118 63.4738 27.3053Z" fill="#FFB8BC"/>
</g>
<g opacity="0.75">
<path d="M170.884 13.0543C181.578 18.0429 191.188 25.0661 199.038 33.5404C202.964 37.7776 206.452 42.3766 209.425 47.2563C212.398 52.1341 214.858 57.2926 216.759 62.6282C220.563 73.2978 222.113 84.6781 221.303 95.9108C220.505 107.145 217.326 118.223 212.007 128.302C206.695 138.384 199.242 147.451 190.245 154.843C185.749 158.543 180.872 161.828 175.697 164.629C170.522 167.429 165.054 169.745 159.4 171.53C148.087 175.104 136.033 176.565 124.129 175.802C112.226 175.047 100.483 172.067 89.7987 167.056C79.1066 162.057 69.4891 155.035 61.6408 146.554C57.7128 142.317 54.2251 137.717 51.2502 132.836C48.2733 127.956 45.819 122.796 43.9186 117.458C40.1158 106.785 38.5716 95.4031 39.3838 84.1686C40.1882 72.9341 43.351 61.8528 48.6687 51.7704C51.3226 46.7283 54.5089 41.9354 58.1609 37.4822C59.987 35.2556 61.9266 33.1121 63.9738 31.0627L65.5297 29.5451L67.1366 28.0755L67.941 27.3407C68.076 27.2188 68.2071 27.0951 68.3441 26.9751L68.761 26.6243L70.4305 25.2193C70.7123 24.9885 70.9804 24.743 71.2721 24.5233L72.1371 23.8531L73.8673 22.5127C74.4583 22.0825 75.0553 21.6616 75.6503 21.2369C76.2472 20.816 76.8304 20.3766 77.4528 19.9852C78.6819 19.1857 79.8895 18.3605 81.1636 17.6257C81.7938 17.249 82.4201 16.865 83.0543 16.4957L84.9879 15.4341C90.151 12.6094 95.6389 10.3292 101.291 8.53283L102.35 8.19127L103.421 7.88664L105.564 7.28106C106.282 7.0909 107.006 6.92658 107.728 6.7475C108.451 6.57579 109.169 6.38563 109.901 6.24716L112.087 5.80036L112.633 5.68959L113.183 5.59728L114.285 5.41265L115.387 5.22987C115.755 5.16894 116.121 5.10432 116.491 5.06186L118.706 4.77384C119.444 4.66676 120.186 4.60583 120.93 4.53568C121.671 4.46921 122.413 4.39351 123.157 4.33259L125.39 4.2052L126.505 4.14242L127.623 4.11842L129.86 4.07227C130.606 4.07227 131.351 4.09257 132.097 4.09996C133.589 4.09811 135.076 4.20889 136.565 4.27905C136.937 4.29382 137.309 4.3252 137.681 4.36028L138.795 4.45813L139.908 4.55599L140.464 4.60399C140.65 4.62245 140.834 4.6483 141.018 4.67045C142.496 4.86062 143.979 5.01386 145.445 5.27418C146.179 5.39603 146.917 5.50496 147.649 5.63605L149.837 6.07177L150.931 6.29147L152.015 6.5481L154.184 7.06321C159.938 8.55683 165.535 10.5693 170.884 13.0543L170.877 13.0691C165.524 10.5914 159.926 8.58822 154.174 7.11121L152.006 6.5998L150.921 6.34317L149.827 6.12531L147.639 5.69328C146.907 5.5622 146.171 5.45511 145.437 5.33326C143.971 5.07478 142.49 4.92339 141.012 4.73507C140.828 4.71292 140.642 4.68707 140.458 4.66861L139.902 4.6206L138.789 4.5246L137.675 4.42859C137.305 4.39536 136.933 4.36213 136.561 4.3492C135.074 4.28274 133.587 4.17381 132.095 4.1775C131.35 4.17012 130.606 4.14981 129.86 4.15165L127.625 4.2015L126.507 4.22735L125.392 4.29197L123.161 4.42121C122.419 4.48214 121.677 4.55783 120.937 4.62614C120.196 4.6963 119.454 4.75907 118.718 4.86616L116.504 5.15602C116.134 5.19848 115.768 5.2631 115.402 5.32588L114.303 5.5105L113.203 5.69513L112.653 5.78744L112.107 5.89822L109.922 6.34686C109.192 6.48533 108.474 6.67549 107.752 6.84904C107.032 7.02813 106.307 7.19429 105.591 7.38446L103.452 7.99188L102.383 8.29651L101.326 8.63991C95.6839 10.4419 90.2077 12.7257 85.0564 15.5523L83.1267 16.6139C82.4925 16.9832 81.8702 17.3672 81.24 17.7438C79.9697 18.4786 78.7641 19.3058 77.5389 20.1052C76.9205 20.4966 76.3392 20.936 75.7423 21.357C75.1492 21.7834 74.5523 22.2025 73.9651 22.6327L72.2409 23.9731L71.3797 24.6433C71.09 24.863 70.8219 25.1067 70.5401 25.3393C61.5547 32.7188 54.1213 41.7766 48.8233 51.8424C43.5154 61.9045 40.3565 72.9655 39.5502 84.1778C38.736 95.3901 40.2763 106.752 44.0713 117.407C47.8545 128.065 53.9002 138 61.7406 146.465C69.5674 154.941 79.1634 161.964 89.8378 166.97C100.508 171.982 112.236 174.968 124.129 175.732C136.021 176.504 148.076 175.054 159.372 171.465C165.023 169.674 170.483 167.357 175.65 164.555C180.817 161.754 185.687 158.468 190.172 154.768C199.152 147.375 206.587 138.316 211.879 128.242C214.529 123.208 216.647 117.927 218.197 112.501C219.749 107.075 220.732 101.507 221.143 95.8997C221.961 84.6855 220.426 73.3236 216.635 62.6633C214.743 57.3332 212.292 52.1803 209.325 47.3061C206.36 42.4302 202.882 37.833 198.964 33.5977C195.048 29.3605 190.691 25.4852 185.986 22.0345C183.628 20.3157 181.185 18.7002 178.664 17.1992C176.137 15.7074 173.536 14.3282 170.871 13.0691L170.884 13.0543Z" fill="#FFB8BC"/>
</g>
<g opacity="0.75">
<path d="M38.9683 77.5754L39.4223 74.6177L40.0075 71.6803L40.7023 68.7632C40.9665 67.7976 41.2503 66.8376 41.5243 65.8757L42.4716 63.0232L43.5206 60.2021C43.9082 59.2753 44.282 58.3448 44.6578 57.4124L45.8869 54.6578C47.5857 51.0077 49.5605 47.4703 51.8191 44.099L53.559 41.5992L55.4026 39.1677L57.3363 36.7989L59.3679 34.5059L59.3816 34.5169L57.4048 36.8506L55.5064 39.2397L53.6999 41.6897L51.9756 44.1913C49.7386 47.5645 47.7247 51.0705 45.9789 54.6947L44.7263 57.4364C44.3427 58.3632 43.9571 59.2901 43.5891 60.2224L42.5734 63.0509L41.6692 65.9126L40.855 68.7965L40.1308 71.7025L39.5163 74.6306L38.9917 77.5754H38.9683Z" fill="#FFB8BC"/>
</g>
<g opacity="0.75">
<path d="M57.3093 141.228C55.4519 139.014 53.7041 136.716 52.0993 134.332C50.4944 131.949 48.9991 129.497 47.6721 126.966C46.3354 124.438 45.1239 121.852 44.0651 119.211C43.0238 116.566 42.0374 113.896 41.2663 111.165C40.4795 108.44 39.8239 105.682 39.3189 102.898C38.8296 100.112 38.4891 97.3019 38.2894 94.4845C38.2503 93.7793 38.1896 93.0758 38.1681 92.3687L38.1055 90.2511L38.1133 88.1334L38.1172 87.6035L38.1368 87.0736L38.1759 86.0157C38.2953 83.1947 38.5615 80.3791 38.9705 77.582L38.9784 77.5839C38.585 80.3828 38.3364 83.1983 38.2327 86.0194L38.1994 87.0773L38.1838 87.6054V88.1352L38.1877 90.2511L38.2542 92.3669C38.2738 93.0721 38.3364 93.7756 38.3736 94.4808C38.5713 97.2964 38.9099 100.103 39.3972 102.887C39.9022 105.669 40.5382 108.429 41.3152 111.154C42.8751 116.605 45.028 121.903 47.7289 126.94C49.0715 129.462 50.5531 131.917 52.1482 134.305C52.5455 134.903 52.9604 135.49 53.3714 136.079C53.7942 136.66 54.2071 137.249 54.6455 137.822C55.5008 138.979 56.4031 140.106 57.3151 141.224L57.3093 141.228Z" fill="#FFB8BC"/>
</g>
<g opacity="0.85">
<path d="M147.372 172.92C156.087 171.371 164.556 168.603 172.404 164.715C180.258 160.834 187.475 155.825 193.779 149.947C196.936 147.013 199.846 143.843 202.512 140.501C203.84 138.828 205.099 137.104 206.295 135.345C206.588 134.901 206.896 134.466 207.179 134.017L208.039 132.675C208.59 131.768 209.146 130.864 209.667 129.941C213.889 122.583 216.895 114.613 218.601 106.408C222.028 89.9949 220.128 72.6327 213.206 57.233C211.485 53.3799 209.436 49.6597 207.132 46.0909C205.98 44.3055 204.749 42.5664 203.455 40.8678C202.165 39.1692 200.803 37.5168 199.421 35.8829C196.648 32.6206 193.755 29.445 190.669 26.443C189.126 24.942 187.531 23.4853 185.86 22.1117C184.192 20.7343 182.439 19.4457 180.56 18.3324L180.568 18.3213C182.45 19.429 184.21 20.714 185.881 22.0877C187.559 23.4576 189.158 24.9087 190.706 26.4079C193.804 29.4044 196.707 32.5726 199.492 35.8294C200.879 37.4615 202.247 39.1102 203.543 40.8087C204.843 42.5054 206.081 44.2428 207.24 46.0281C209.563 49.5951 211.603 53.3264 213.327 57.185C216.789 64.895 218.999 73.0998 219.907 81.4283C220.821 89.7567 220.408 98.2126 218.682 106.423C217.828 110.531 216.623 114.57 215.131 118.51C213.62 122.445 211.816 126.278 209.714 129.963C209.195 130.888 208.641 131.794 208.089 132.703L207.234 134.048C206.95 134.497 206.645 134.935 206.351 135.38C205.158 137.143 203.903 138.871 202.576 140.547C199.916 143.896 197.008 147.072 193.853 150.017C181.284 161.851 164.838 169.945 147.378 172.933L147.372 172.92Z" fill="#FFB8BC"/>
</g>
<g opacity="0.85">
<path d="M172.614 13.5354C171.395 12.928 170.169 12.3298 168.921 11.7759C167.68 11.2091 166.421 10.6774 165.157 10.1604C162.619 9.14315 160.035 8.23109 157.411 7.43351C154.784 6.64516 152.128 5.93804 149.439 5.36385C146.75 4.79336 144.031 4.33549 141.297 3.99393C135.827 3.32558 130.288 3.17419 124.785 3.49544C122.033 3.65237 119.291 3.93854 116.562 4.31518C113.836 4.69735 111.12 5.15892 108.438 5.76449C97.7012 8.11847 87.3986 12.2929 78.284 18.1492C77.7184 18.5221 77.1469 18.8822 76.5872 19.2643L74.9197 20.4183L73.2874 21.6146C72.7413 22.0116 72.2207 22.4381 71.6845 22.8479C69.5688 24.5151 67.5392 26.2801 65.6035 28.1319C63.662 29.98 61.8438 31.9389 60.1097 33.9606C58.3776 35.9859 56.7512 38.0888 55.2305 40.2618L55.2148 40.2526C58.2289 35.8918 61.6676 31.7875 65.5311 28.0655C67.4628 26.2044 69.4885 24.432 71.6003 22.7538C72.1346 22.3421 72.6552 21.9137 73.2013 21.5131L74.8316 20.3093L76.4971 19.148C77.0549 18.7659 77.6284 18.4003 78.1921 18.0255C82.7484 15.0826 87.608 12.5532 92.683 10.4946C95.2175 9.46255 97.799 8.52834 100.424 7.71783C103.05 6.91102 105.712 6.20944 108.399 5.6131C111.086 5.00937 113.807 4.54781 116.537 4.16563C117.901 3.96623 119.275 3.82592 120.645 3.67452C122.019 3.55083 123.395 3.4419 124.775 3.37543C127.532 3.23696 130.294 3.20188 133.054 3.29973C135.811 3.39759 138.565 3.61544 141.305 3.92746C144.043 4.2524 146.768 4.69366 149.465 5.25308C152.16 5.81988 154.829 6.49192 157.456 7.29873C160.08 8.11109 162.662 9.03976 165.196 10.07C167.729 11.1057 170.205 12.2633 172.62 13.5225L172.614 13.5354Z" fill="#FFB8BC"/>
</g>
<path d="M146.32 173.456C134.746 175.485 122.725 175.431 111.201 173.066C105.441 171.896 99.8063 170.179 94.4045 167.959C89.0086 165.733 83.8123 163.058 78.978 159.875C74.138 156.706 69.6169 153.097 65.5264 149.092C61.4359 145.09 57.7623 140.709 54.5799 136.026C51.3917 131.348 48.7182 126.361 46.5946 121.175C44.4692 115.991 42.8936 110.604 41.9131 105.124L41.9307 105.12C42.97 110.589 44.567 115.961 46.714 121.131C48.8611 126.3 51.558 131.263 54.7247 135.938C61.0679 145.287 69.3899 153.429 79.0309 159.799C79.3245 160.009 79.6396 160.188 79.9449 160.382L80.8667 160.955L82.7104 162.099L84.6069 163.163L85.5561 163.695C85.8751 163.868 86.1824 164.058 86.5112 164.215L88.4586 165.196L89.4333 165.687L89.9206 165.93L90.4197 166.154L92.416 167.045L93.4142 167.49C93.7449 167.642 94.0914 167.762 94.4299 167.9C99.8357 170.097 105.472 171.79 111.228 172.941C116.986 174.083 122.858 174.715 128.743 174.792L129.847 174.813L130.399 174.822C130.583 174.824 130.767 174.813 130.951 174.809L133.157 174.748L134.26 174.717L134.812 174.702L135.362 174.661L137.562 174.499L138.662 174.418L139.212 174.377L139.76 174.323C140.492 174.25 141.222 174.168 141.952 174.08C143.412 173.901 144.866 173.686 146.315 173.439L146.32 173.456Z" fill="#FFB8BC"/>
<path d="M36.6258 79.0283C36.8 79.0948 36.8293 79.2259 36.6962 79.3514L35.9858 79.7964C35.5435 80.2192 35.6257 80.7989 35.6981 81.8753L35.7118 82.3405C35.7314 82.6451 35.4691 82.6968 35.3595 82.4088L35.1755 81.9768C34.788 80.9613 34.5473 80.3705 33.9621 80.149L33.0207 80.0696C32.8465 80.0031 32.8171 79.8721 32.9502 79.7465L33.7664 79.309C34.2087 78.8862 34.24 78.4006 34.1676 77.3242L34.1558 76.9384C34.1363 76.6337 34.3985 76.582 34.5081 76.87L34.651 77.2467C35.0385 78.2621 35.2577 78.672 35.841 78.8954L36.6258 79.0283Z" fill="#FFB8BC"/>
<path d="M33.3277 76.6728C33.5997 76.6196 33.756 76.2843 33.6768 75.9239C33.5976 75.5634 33.3129 75.3143 33.0409 75.3675C32.7689 75.4207 32.6126 75.7561 32.6918 76.1165C32.771 76.4769 33.0557 76.726 33.3277 76.6728Z" fill="#FFB8BC"/>
<path d="M32.4974 79.0439C32.7228 78.9998 32.8558 78.7374 32.7944 78.4579C32.7329 78.1783 32.5004 77.9874 32.2749 78.0315C32.0495 78.0756 31.9165 78.338 31.9779 78.6175C32.0394 78.8971 32.272 79.088 32.4974 79.0439Z" fill="#FFB8BC"/>
<path d="M38.0175 78.7077C38.1375 78.7077 38.2348 78.616 38.2348 78.5028C38.2348 78.3896 38.1375 78.2979 38.0175 78.2979C37.8976 78.2979 37.8003 78.3896 37.8003 78.5028C37.8003 78.616 37.8976 78.7077 38.0175 78.7077Z" fill="#FFB8BC"/>
<path d="M36.8882 81.3311C37.0211 81.3311 37.1289 81.2295 37.1289 81.104C37.1289 80.9786 37.0211 80.877 36.8882 80.877C36.7552 80.877 36.6475 80.9786 36.6475 81.104C36.6475 81.2295 36.7552 81.3311 36.8882 81.3311Z" fill="#FFB8BC"/>
<path d="M33.6747 82.1107C33.772 82.1107 33.8508 82.0365 33.8508 81.945C33.8508 81.8535 33.772 81.7793 33.6747 81.7793C33.5774 81.7793 33.4985 81.8535 33.4985 81.945C33.4985 82.0365 33.5774 82.1107 33.6747 82.1107Z" fill="#FFB8BC"/>
<path d="M33.045 83.3133C33.1942 83.3133 33.3151 83.1992 33.3151 83.0585C33.3151 82.9178 33.1942 82.8037 33.045 82.8037C32.8958 82.8037 32.7749 82.9178 32.7749 83.0585C32.7749 83.1992 32.8958 83.3133 33.045 83.3133Z" fill="#FFB8BC"/>
<path d="M38.2605 80.6043C38.4944 80.5586 38.633 80.2892 38.57 80.0026C38.507 79.7161 38.2663 79.5208 38.0324 79.5666C37.7985 79.6123 37.6599 79.8817 37.7229 80.1683C37.7859 80.4548 38.0266 80.65 38.2605 80.6043Z" fill="#FFB8BC"/>
<path d="M37.5204 82.2182C37.6177 82.2182 37.6965 82.144 37.6965 82.0524C37.6965 81.9609 37.6177 81.8867 37.5204 81.8867C37.4231 81.8867 37.3442 81.9609 37.3442 82.0524C37.3442 82.144 37.4231 82.2182 37.5204 82.2182Z" fill="#FFB8BC"/>
<path d="M38.9595 78.7671C39.0903 78.7671 39.1963 78.6671 39.1963 78.5437C39.1963 78.4203 39.0903 78.3203 38.9595 78.3203C38.8287 78.3203 38.7227 78.4203 38.7227 78.5437C38.7227 78.6671 38.8287 78.7671 38.9595 78.7671Z" fill="#FFB8BC"/>
<path d="M36.0254 76.9048C36.1562 76.9048 36.2622 76.8048 36.2622 76.6814C36.2622 76.558 36.1562 76.458 36.0254 76.458C35.8946 76.458 35.7886 76.558 35.7886 76.6814C35.7886 76.8048 35.8946 76.9048 36.0254 76.9048Z" fill="#FFB8BC"/>
<path d="M32.6267 87.7162C32.7304 87.7587 32.7872 87.8971 32.7108 87.9747L32.3155 88.3236C32.0591 88.5821 32.0924 88.859 32.1413 89.5218L32.153 89.808C32.1667 89.9945 32.0121 90.0259 31.9456 89.8486L31.7675 89.3963C31.5776 88.7593 31.47 88.6615 31.1255 88.523L30.5599 88.3975C30.4562 88.355 30.4523 88.1852 30.5286 88.1076L30.92 87.827C31.1764 87.5685 31.239 87.4725 31.1901 86.8097L31.2038 86.4774C31.1901 86.2909 31.3447 86.2595 31.4113 86.4367L31.4974 86.6694C31.7322 87.2953 31.7968 87.4559 32.1413 87.5962L32.6267 87.7162Z" fill="#FFB8BC"/>
<path d="M30.4642 87.0749C30.5517 87.0749 30.6227 86.9906 30.6227 86.8866C30.6227 86.7826 30.5517 86.6982 30.4642 86.6982C30.3766 86.6982 30.3057 86.7826 30.3057 86.8866C30.3057 86.9906 30.3766 87.0749 30.4642 87.0749Z" fill="#FFB8BC"/>
<path d="M30.4628 89.6044C30.56 89.6044 30.6389 89.5393 30.6389 89.4589C30.6389 89.3786 30.56 89.3135 30.4628 89.3135C30.3655 89.3135 30.2866 89.3786 30.2866 89.4589C30.2866 89.5393 30.3655 89.6044 30.4628 89.6044Z" fill="#FFB8BC"/>
<path d="M33.8538 89.744C33.9349 89.744 34.0006 89.6822 34.0006 89.6059C34.0006 89.5296 33.9349 89.4678 33.8538 89.4678C33.7728 89.4678 33.707 89.5296 33.707 89.6059C33.707 89.6822 33.7728 89.744 33.8538 89.744Z" fill="#FFB8BC"/>
<path d="M33.1834 89.2135C33.2558 89.2135 33.3145 89.1583 33.3145 89.0902C33.3145 89.022 33.2558 88.9668 33.1834 88.9668C33.111 88.9668 33.0522 89.022 33.0522 89.0902C33.0522 89.1583 33.111 89.2135 33.1834 89.2135Z" fill="#FFB8BC"/>
<path d="M153.474 1.53448C153.572 1.48463 153.725 1.5271 153.741 1.63234L153.784 2.1419C153.838 2.49269 154.089 2.63855 154.668 3.01518L154.913 3.18504C155.077 3.29212 155.005 3.42321 154.817 3.36228L154.33 3.21273C153.682 2.95795 153.535 2.97641 153.204 3.14258L152.748 3.48229C152.65 3.53214 152.506 3.42875 152.49 3.32536L152.502 2.8601C152.447 2.50931 152.406 2.40407 151.826 2.02743L151.558 1.81142C151.394 1.70434 151.466 1.57325 151.654 1.63418L151.901 1.71542C152.566 1.93143 152.738 1.98312 153.069 1.81696L153.474 1.53448Z" fill="#FFB8BC"/>
<path d="M158.332 4.22425C158.391 4.1984 158.455 4.22794 158.442 4.28702L158.361 4.57319C158.318 4.77074 158.41 4.85936 158.618 5.08645L158.704 5.188C158.763 5.25262 158.702 5.32462 158.622 5.284L158.414 5.188C158.15 5.02737 158.076 5.03476 157.882 5.11784L157.592 5.29508C157.534 5.32093 157.485 5.25815 157.498 5.20092L157.596 4.94244C157.639 4.74489 157.641 4.68397 157.434 4.45872L157.346 4.32949C157.287 4.26487 157.348 4.19286 157.428 4.23348L157.532 4.28518C157.811 4.42364 157.886 4.45872 158.08 4.3738L158.332 4.22425Z" fill="#FFB8BC"/>
<path d="M151.597 2.73339C151.651 2.66887 151.626 2.56419 151.539 2.49957C151.453 2.43496 151.339 2.43487 151.285 2.49939C151.231 2.56391 151.256 2.66859 151.343 2.73321C151.429 2.79783 151.543 2.79791 151.597 2.73339Z" fill="#FFB8BC"/>
<path d="M153.698 4.30628C153.758 4.23438 153.753 4.13543 153.686 4.08528C153.619 4.03513 153.516 4.05277 153.455 4.12468C153.395 4.19659 153.4 4.29554 153.467 4.34569C153.534 4.39583 153.637 4.37819 153.698 4.30628Z" fill="#FFB8BC"/>
<path d="M149.967 3.36878C150.027 3.29688 150.022 3.19793 149.955 3.14778C149.888 3.09763 149.785 3.11527 149.724 3.18718C149.664 3.25909 149.669 3.35804 149.736 3.40819C149.803 3.45833 149.906 3.44069 149.967 3.36878Z" fill="#FFB8BC"/>
<path d="M155.803 1.9432C155.884 1.9432 155.949 1.88137 155.949 1.8051C155.949 1.72882 155.884 1.66699 155.803 1.66699C155.721 1.66699 155.656 1.72882 155.656 1.8051C155.656 1.88137 155.721 1.9432 155.803 1.9432Z" fill="#FFB8BC"/>
<path d="M159.385 4.35531C159.466 4.35531 159.531 4.29348 159.531 4.21721C159.531 4.14093 159.466 4.0791 159.385 4.0791C159.304 4.0791 159.238 4.14093 159.238 4.21721C159.238 4.29348 159.304 4.35531 159.385 4.35531Z" fill="#FFB8BC"/>
<path d="M159.964 5.03695C160.045 5.03695 160.11 4.97512 160.11 4.89885C160.11 4.82257 160.045 4.76074 159.964 4.76074C159.883 4.76074 159.817 4.82257 159.817 4.89885C159.817 4.97512 159.883 5.03695 159.964 5.03695Z" fill="#FFB8BC"/>
<path d="M156.098 4.89633C156.179 4.89633 156.245 4.83449 156.245 4.75822C156.245 4.68195 156.179 4.62012 156.098 4.62012C156.017 4.62012 155.951 4.68195 155.951 4.75822C155.951 4.83449 156.017 4.89633 156.098 4.89633Z" fill="#FFB8BC"/>
<path d="M154.959 2.10222C155.031 2.10222 155.09 2.04698 155.09 1.97884C155.09 1.9107 155.031 1.85547 154.959 1.85547C154.886 1.85547 154.828 1.9107 154.828 1.97884C154.828 2.04698 154.886 2.10222 154.959 2.10222Z" fill="#FFB8BC"/>
<path d="M58.2175 145.09C58.2567 145.16 58.2528 145.238 58.2077 145.289L57.8085 145.751C57.6519 145.932 57.5951 146.19 57.6519 146.46L57.8006 147.147C57.8163 147.222 57.7889 147.291 57.7282 147.32C57.6676 147.35 57.5932 147.333 57.5364 147.276L57.0276 146.765C56.8279 146.565 56.5715 146.458 56.323 146.475L55.6928 146.515C55.6223 146.519 55.5538 146.477 55.5147 146.408C55.4755 146.34 55.4794 146.259 55.5245 146.209L55.9237 145.747C56.0803 145.566 56.1371 145.308 56.0803 145.036L55.9335 144.35C55.9178 144.274 55.9452 144.206 56.0059 144.176C56.0666 144.147 56.141 144.165 56.1977 144.22L56.7066 144.732C56.9062 144.933 57.1626 145.038 57.4112 145.022L58.0414 144.981C58.1099 144.977 58.1803 145.02 58.2175 145.09Z" fill="#FFB8BC"/>
<path d="M50.5556 140.879C50.583 140.927 50.5791 140.983 50.5497 141.018L50.2737 141.337C50.1661 141.463 50.127 141.642 50.1661 141.828L50.2679 142.304C50.2796 142.356 50.26 142.404 50.217 142.424C50.1759 142.445 50.123 142.434 50.0839 142.393L49.7316 142.039C49.5927 141.9 49.4165 141.826 49.2443 141.837L48.8078 141.865C48.7589 141.869 48.7119 141.839 48.6845 141.791C48.6571 141.743 48.661 141.688 48.6904 141.653L48.9664 141.333C49.074 141.208 49.1131 141.029 49.074 140.842L48.9722 140.366C48.9605 140.314 48.9801 140.266 49.0231 140.246C49.0642 140.226 49.1171 140.238 49.1562 140.277L49.5085 140.63C49.6475 140.768 49.8236 140.842 49.9958 140.831L50.4323 140.803C50.4793 140.802 50.5282 140.831 50.5556 140.879Z" fill="#FFB8BC"/>
<path d="M50.0975 136.989C50.1171 137.026 50.1151 137.067 50.0936 137.093L49.8861 137.333C49.8059 137.427 49.7745 137.56 49.8059 137.7L49.8822 138.057C49.89 138.095 49.8763 138.13 49.845 138.147C49.8137 138.162 49.7745 138.153 49.7452 138.125L49.481 137.861C49.3772 137.757 49.2442 137.702 49.1169 137.711L48.7901 137.732C48.7549 137.733 48.7177 137.711 48.6981 137.676C48.6785 137.639 48.6805 137.599 48.702 137.573L48.9095 137.333C48.9917 137.239 49.021 137.106 48.9897 136.965L48.9134 136.609C48.9056 136.57 48.9193 136.535 48.9506 136.519C48.9819 136.504 49.021 136.513 49.0504 136.543L49.3146 136.807C49.4183 136.91 49.5514 136.965 49.6786 136.956L50.0055 136.934C50.0427 136.93 50.0779 136.953 50.0975 136.989Z" fill="#FFB8BC"/>
<path d="M53.7436 143.355C53.4676 143.355 53.4676 143.76 53.7436 143.76C54.0196 143.76 54.0196 143.355 53.7436 143.355Z" fill="#FFB8BC"/>
<path d="M48.3007 139.135C48.0638 139.135 48.0638 139.481 48.3007 139.481C48.5375 139.481 48.5375 139.135 48.3007 139.135Z" fill="#FFB8BC"/>
<path d="M47.9457 140.238C47.7089 140.238 47.7089 140.584 47.9457 140.584C48.1825 140.584 48.1825 140.238 47.9457 140.238Z" fill="#FFB8BC"/>
<path d="M51.7105 141.022C51.5265 141.022 51.5246 141.293 51.7105 141.293C51.8964 141.293 51.8964 141.022 51.7105 141.022Z" fill="#FFB8BC"/>
<path d="M47.9885 136.976C47.8183 136.976 47.8183 137.224 47.9885 137.224C48.1588 137.226 48.1588 136.976 47.9885 136.976Z" fill="#FFB8BC"/>
<path d="M47.5942 141.86C47.4748 141.86 47.4728 142.036 47.5942 142.036C47.7136 142.036 47.7136 141.86 47.5942 141.86Z" fill="#FFB8BC"/>
<path d="M50.3961 143.128C50.2794 143.128 50.2794 143.299 50.3961 143.299C50.5128 143.299 50.5128 143.128 50.3961 143.128Z" fill="#FFB8BC"/>
<path d="M52.0763 142.354C51.9596 142.354 51.9596 142.524 52.0763 142.524C52.193 142.524 52.193 142.354 52.0763 142.354Z" fill="#FFB8BC"/>
<path d="M52.4278 141.749C52.3112 141.749 52.3112 141.92 52.4278 141.92C52.5445 141.92 52.5445 141.749 52.4278 141.749Z" fill="#FFB8BC"/>
<path d="M49.6302 136.083C49.5217 136.083 49.5217 136.24 49.6302 136.24C49.7387 136.24 49.7387 136.083 49.6302 136.083Z" fill="#FFB8BC"/>
<path d="M47.9144 136.008C47.8059 136.008 47.8059 136.165 47.9144 136.165C48.0229 136.165 48.0229 136.008 47.9144 136.008Z" fill="#FFB8BC"/>
<path d="M49.1263 142.786C48.9345 142.786 48.9345 143.07 49.1263 143.07C49.3161 143.07 49.3161 142.786 49.1263 142.786Z" fill="#FFB8BC"/>
<path d="M51.1419 141.794C50.9384 141.794 50.9384 142.094 51.1419 142.094C51.3455 142.094 51.3455 141.794 51.1419 141.794Z" fill="#FFB8BC"/>
<path d="M61.4765 147.7C61.2005 147.7 61.2005 148.105 61.4765 148.105C61.7525 148.105 61.7525 147.7 61.4765 147.7Z" fill="#FFB8BC"/>
<path d="M63.1752 146.815C62.8993 146.815 62.8993 147.22 63.1752 147.22C63.4512 147.218 63.4512 146.815 63.1752 146.815Z" fill="#FFB8BC"/>
<path d="M55.4877 147.7C55.2118 147.7 55.2118 148.105 55.4877 148.105C55.7637 148.105 55.7637 147.7 55.4877 147.7Z" fill="#FFB8BC"/>
<path d="M53.7432 145.141C53.2402 145.141 53.2383 145.752 53.7432 145.752C54.2462 145.752 54.2482 145.141 53.7432 145.141Z" fill="#FFB8BC"/>
<path d="M61.4763 145.754C61.0359 145.754 61.0359 146.289 61.4763 146.289C61.9186 146.289 61.9186 145.754 61.4763 145.754Z" fill="#FFB8BC"/>
<path d="M59.2611 146.48C58.7092 146.48 58.7092 147.289 59.2611 147.289C59.813 147.287 59.813 146.48 59.2611 146.48Z" fill="#FFB8BC"/>
<path d="M216.933 131.16C216.884 131.225 216.809 131.258 216.741 131.245L216.122 131.123C215.88 131.075 215.61 131.147 215.383 131.321L214.803 131.762C214.739 131.81 214.662 131.818 214.608 131.781C214.553 131.744 214.533 131.674 214.561 131.6L214.807 130.937C214.903 130.677 214.885 130.414 214.756 130.213L214.428 129.704C214.392 129.648 214.398 129.569 214.447 129.504C214.496 129.44 214.57 129.406 214.639 129.419L215.257 129.541C215.5 129.589 215.77 129.517 215.997 129.344L216.577 128.902C216.641 128.854 216.717 128.845 216.772 128.882C216.827 128.919 216.847 128.991 216.819 129.063L216.573 129.726C216.477 129.986 216.494 130.25 216.623 130.449L216.952 130.959C216.987 131.016 216.98 131.096 216.933 131.16Z" fill="#FFB8BC"/>
<path d="M219.351 122.681C219.322 122.722 219.269 122.738 219.22 122.724L218.764 122.598C218.586 122.548 218.396 122.578 218.246 122.677L217.862 122.93C217.819 122.958 217.764 122.958 217.721 122.928C217.678 122.901 217.658 122.851 217.672 122.805L217.797 122.38C217.846 122.214 217.811 122.035 217.704 121.893L217.426 121.529C217.394 121.488 217.394 121.437 217.424 121.398C217.453 121.357 217.506 121.341 217.555 121.355L218.011 121.481C218.191 121.531 218.379 121.501 218.529 121.402L218.913 121.149C218.956 121.121 219.011 121.121 219.054 121.149C219.097 121.178 219.117 121.226 219.103 121.274L218.978 121.699C218.929 121.865 218.964 122.044 219.072 122.186L219.349 122.55C219.381 122.589 219.383 122.64 219.351 122.681Z" fill="#FFB8BC"/>
<path d="M222.118 120.258C222.09 120.295 222.043 120.309 221.996 120.296L221.58 120.182C221.417 120.138 221.243 120.164 221.106 120.254L220.756 120.485C220.716 120.511 220.667 120.511 220.626 120.483C220.587 120.457 220.57 120.413 220.583 120.37L220.697 119.983C220.742 119.829 220.711 119.669 220.611 119.538L220.356 119.205C220.329 119.168 220.327 119.122 220.354 119.085C220.382 119.048 220.429 119.034 220.476 119.047L220.893 119.161C221.057 119.205 221.229 119.18 221.366 119.089L221.717 118.858C221.756 118.832 221.807 118.832 221.844 118.858C221.883 118.884 221.9 118.928 221.887 118.973L221.773 119.36C221.728 119.514 221.76 119.674 221.859 119.805L222.114 120.138C222.145 120.175 222.145 120.221 222.118 120.258Z" fill="#FFB8BC"/>
<path d="M219.477 117.173C219.457 117.2 219.422 117.211 219.387 117.202L219.077 117.117C218.956 117.084 218.829 117.104 218.727 117.171L218.469 117.342C218.439 117.361 218.402 117.361 218.373 117.342C218.343 117.324 218.332 117.291 218.34 117.258L218.424 116.97C218.457 116.857 218.433 116.737 218.359 116.641L218.171 116.395C218.15 116.368 218.15 116.333 218.169 116.307C218.189 116.279 218.224 116.268 218.259 116.277L218.568 116.362C218.69 116.395 218.817 116.375 218.919 116.309L219.177 116.137C219.207 116.118 219.244 116.118 219.273 116.137C219.302 116.157 219.314 116.189 219.306 116.222L219.222 116.51C219.189 116.622 219.212 116.742 219.287 116.838L219.475 117.084C219.496 117.11 219.496 117.145 219.477 117.173Z" fill="#FFB8BC"/>
<path d="M216.502 126.616C216.375 126.386 215.995 126.572 216.122 126.803C216.25 127.032 216.629 126.847 216.502 126.616Z" fill="#FFB8BC"/>
<path d="M211.806 132.368C211.678 132.138 211.299 132.324 211.426 132.555C211.553 132.786 211.933 132.601 211.806 132.368Z" fill="#FFB8BC"/>
<path d="M219.015 123.624C218.888 123.393 218.508 123.58 218.635 123.811C218.763 124.041 219.142 123.855 219.015 123.624Z" fill="#FFB8BC"/>
<path d="M213.221 130.077C213.094 129.846 212.714 130.033 212.842 130.264C212.967 130.493 213.349 130.308 213.221 130.077Z" fill="#FFB8BC"/>
<path d="M216.815 122.855C216.687 122.624 216.308 122.81 216.435 123.041C216.56 123.272 216.942 123.085 216.815 122.855Z" fill="#FFB8BC"/>
<path d="M219.808 120.024C219.681 119.793 219.301 119.979 219.429 120.21C219.556 120.439 219.935 120.254 219.808 120.024Z" fill="#FFB8BC"/>
<path d="M218.22 120.402C218.158 120.288 217.966 120.38 218.03 120.494C218.095 120.61 218.285 120.516 218.22 120.402Z" fill="#FFB8BC"/>
<path d="M220.32 118.244C220.258 118.13 220.066 118.222 220.131 118.336C220.195 118.452 220.385 118.36 220.32 118.244Z" fill="#FFB8BC"/>
<path d="M218.921 118.79C218.859 118.675 218.667 118.767 218.731 118.882C218.794 118.997 218.984 118.905 218.921 118.79Z" fill="#FFB8BC"/>
<path d="M217.156 124.094C217.093 123.98 216.901 124.072 216.966 124.186C217.028 124.302 217.22 124.21 217.156 124.094Z" fill="#FFB8BC"/>
<path d="M220.428 121.475C220.365 121.361 220.173 121.453 220.238 121.567C220.302 121.683 220.492 121.591 220.428 121.475Z" fill="#FFB8BC"/>
<path d="M213.004 131.29C212.877 131.059 212.497 131.246 212.625 131.477C212.752 131.707 213.131 131.521 213.004 131.29Z" fill="#FFB8BC"/>
<path d="M211.806 134.028C211.678 133.798 211.299 133.984 211.426 134.215C211.553 134.446 211.933 134.259 211.806 134.028Z" fill="#FFB8BC"/>
<path d="M214.825 127.438C214.592 127.017 214.016 127.297 214.249 127.72C214.482 128.141 215.058 127.859 214.825 127.438Z" fill="#FFB8BC"/>
<path d="M216.067 132.597C215.868 132.236 215.271 132.527 215.47 132.889C215.67 133.251 216.267 132.959 216.067 132.597Z" fill="#FFB8BC"/>
<path d="M213.766 132.611C213.512 132.149 212.752 132.521 213.007 132.984C213.261 133.446 214.021 133.073 213.766 132.611Z" fill="#FFB8BC"/>
<path d="M215.927 43.667C216.101 43.7335 216.131 43.8645 215.998 43.9901L215.287 44.435C214.845 44.8578 214.927 45.4376 215 46.5139L215.013 46.9792C215.033 47.2838 214.771 47.3355 214.661 47.0475L214.477 46.6155C214.09 45.6 213.849 45.0092 213.264 44.7877L212.322 44.7083C212.148 44.6418 212.119 44.5107 212.252 44.3852L213.068 43.9476C213.51 43.5248 213.542 43.0393 213.469 41.9629L213.457 41.577C213.438 41.2724 213.7 41.2207 213.81 41.5087L213.953 41.8854C214.34 42.9008 214.559 43.3107 215.142 43.5341L215.927 43.667Z" fill="#FFB8BC"/>
<path d="M215.657 41.8697C215.953 41.8118 216.123 41.4467 216.037 41.0543C215.951 40.6619 215.641 40.3908 215.344 40.4488C215.048 40.5067 214.878 40.8718 214.964 41.2642C215.05 41.6566 215.36 41.9277 215.657 41.8697Z" fill="#FFB8BC"/>
<path d="M212.632 41.3125C212.904 41.2593 213.06 40.924 212.981 40.5635C212.902 40.2031 212.617 39.954 212.345 40.0072C212.073 40.0604 211.917 40.3957 211.996 40.7562C212.075 41.1166 212.36 41.3657 212.632 41.3125Z" fill="#FFB8BC"/>
<path d="M211.801 43.6796C212.026 43.6356 212.159 43.3732 212.098 43.0936C212.036 42.814 211.804 42.6232 211.578 42.6672C211.353 42.7113 211.22 42.9737 211.281 43.2533C211.343 43.5328 211.575 43.7237 211.801 43.6796Z" fill="#FFB8BC"/>
<path d="M217.318 43.3483C217.438 43.3483 217.535 43.2566 217.535 43.1434C217.535 43.0302 217.438 42.9385 217.318 42.9385C217.198 42.9385 217.101 43.0302 217.101 43.1434C217.101 43.2566 217.198 43.3483 217.318 43.3483Z" fill="#FFB8BC"/>
<path d="M216.189 45.9718C216.322 45.9718 216.429 45.8701 216.429 45.7447C216.429 45.6193 216.322 45.5176 216.189 45.5176C216.056 45.5176 215.948 45.6193 215.948 45.7447C215.948 45.8701 216.056 45.9718 216.189 45.9718Z" fill="#FFB8BC"/>
<path d="M212.975 46.7494C213.072 46.7494 213.151 46.6752 213.151 46.5837C213.151 46.4922 213.072 46.418 212.975 46.418C212.878 46.418 212.799 46.4922 212.799 46.5837C212.799 46.6752 212.878 46.7494 212.975 46.7494Z" fill="#FFB8BC"/>
<path d="M212.343 47.9568C212.492 47.9568 212.613 47.8428 212.613 47.7021C212.613 47.5613 212.492 47.4473 212.343 47.4473C212.194 47.4473 212.073 47.5613 212.073 47.7021C212.073 47.8428 212.194 47.9568 212.343 47.9568Z" fill="#FFB8BC"/>
<path d="M217.564 45.243C217.798 45.1972 217.936 44.9278 217.873 44.6413C217.81 44.3547 217.57 44.1595 217.336 44.2053C217.102 44.251 216.963 44.5204 217.026 44.8069C217.089 45.0935 217.33 45.2887 217.564 45.243Z" fill="#FFB8BC"/>
<path d="M216.821 46.8578C216.918 46.8578 216.997 46.7836 216.997 46.6921C216.997 46.6006 216.918 46.5264 216.821 46.5264C216.724 46.5264 216.645 46.6006 216.645 46.6921C216.645 46.7836 216.724 46.8578 216.821 46.8578Z" fill="#FFB8BC"/>
<path d="M218.26 43.4107C218.39 43.4107 218.496 43.3106 218.496 43.1873C218.496 43.0639 218.39 42.9639 218.26 42.9639C218.129 42.9639 218.023 43.0639 218.023 43.1873C218.023 43.3106 218.129 43.4107 218.26 43.4107Z" fill="#FFB8BC"/>
<path d="M221.982 50.7838C221.996 50.8484 221.974 50.9112 221.927 50.9444L221.5 51.2324C221.332 51.3451 221.226 51.5426 221.207 51.7752L221.16 52.366C221.154 52.4306 221.115 52.4805 221.06 52.4916C221.005 52.5027 220.95 52.4713 220.919 52.414L220.637 51.8878C220.526 51.6811 220.348 51.5389 220.148 51.4983L219.637 51.3931C219.58 51.382 219.535 51.3321 219.522 51.2657C219.508 51.201 219.529 51.1364 219.576 51.105L220.003 50.817C220.171 50.7044 220.277 50.5068 220.297 50.2742L220.344 49.6834C220.35 49.6188 220.389 49.5689 220.442 49.5579C220.496 49.5468 220.553 49.5782 220.582 49.6354L220.864 50.1616C220.974 50.3684 221.154 50.5105 221.354 50.5512L221.864 50.6545C221.923 50.6693 221.968 50.7192 221.982 50.7838Z" fill="#FFB8BC"/>
<path d="M220.003 48.0226C219.733 47.9488 219.612 48.3549 219.884 48.4306C220.154 48.5063 220.275 48.0983 220.003 48.0226Z" fill="#FFB8BC"/>
<path d="M219.215 49.2121C218.945 49.1382 218.823 49.5444 219.095 49.6201C219.365 49.6939 219.487 49.2878 219.215 49.2121Z" fill="#FFB8BC"/>
<path d="M223.259 51.3178C223.047 51.2589 222.953 51.5774 223.165 51.6363C223.376 51.6934 223.47 51.3767 223.259 51.3178Z" fill="#FFB8BC"/>
<path d="M217.764 49.9002C217.645 49.869 217.592 50.0419 217.711 50.075C217.831 50.1063 217.884 49.9315 217.764 49.9002Z" fill="#FFB8BC"/>
<path d="M220.62 53.0761C220.508 53.0448 220.457 53.2141 220.571 53.2435C220.682 53.2767 220.731 53.1074 220.62 53.0761Z" fill="#FFB8BC"/>
<path d="M223.211 52.9945C223.084 52.9595 223.027 53.1509 223.154 53.1858C223.283 53.2208 223.34 53.0294 223.211 52.9945Z" fill="#FFB8BC"/>
<path d="M223.824 52.3978C223.696 52.3628 223.64 52.5542 223.767 52.5892C223.896 52.6241 223.953 52.4328 223.824 52.3978Z" fill="#FFB8BC"/>
<path d="M148.976 0.0832525C148.919 0.239771 149.181 0.324475 149.238 0.167957C149.297 0.0114382 149.033 -0.0732659 148.976 0.0832525Z" fill="#FFB8BC"/>
<path d="M222.34 52.0479C222.107 51.9833 222.003 52.3377 222.236 52.4024C222.469 52.467 222.573 52.1125 222.34 52.0479Z" fill="#FFB8BC"/>
<path d="M66.6941 25.4779C66.653 25.5536 66.5806 25.5979 66.5062 25.5942L65.8349 25.5555C65.5707 25.5407 65.2986 25.6552 65.0892 25.8693L64.551 26.4177C64.4923 26.4786 64.412 26.4971 64.3475 26.4657C64.2829 26.4343 64.2515 26.3623 64.2692 26.2811L64.4199 25.5481C64.4786 25.2601 64.416 24.985 64.2476 24.7948L63.819 24.3056C63.772 24.252 63.7662 24.1689 63.8073 24.0932C63.8484 24.0175 63.9227 23.9732 63.9952 23.9769L64.6665 24.0157C64.9307 24.0305 65.2027 23.916 65.4141 23.7018L65.9523 23.1535C66.011 23.0926 66.0913 23.0741 66.1559 23.1036C66.2205 23.135 66.2518 23.207 66.2342 23.2883L66.0835 24.0212C66.0247 24.3093 66.0874 24.5843 66.2557 24.7745L66.6863 25.2638C66.7293 25.321 66.7332 25.4041 66.6941 25.4779Z" fill="#FFB8BC"/>
<path d="M62.8838 24.7366C62.6 24.3637 61.9855 24.7809 62.2712 25.152C62.5531 25.525 63.1676 25.1096 62.8838 24.7366Z" fill="#FFB8BC"/>
<path d="M64.3251 22.3957C64.1196 22.128 63.6773 22.4271 63.8828 22.6948C64.0863 22.9625 64.5286 22.6634 64.3251 22.3957Z" fill="#FFB8BC"/>
<path d="M66.9427 21.6164C66.7372 21.3487 66.2949 21.6478 66.5004 21.9155C66.7059 22.1851 67.1483 21.886 66.9427 21.6164Z" fill="#FFB8BC"/>
<path d="M67.7311 23.6514C67.6078 23.4893 67.3416 23.6698 67.4649 23.8318C67.5882 23.992 67.8564 23.8116 67.7311 23.6514Z" fill="#FFB8BC"/>
<path d="M62.3015 23.0532C62.1899 22.9077 61.9786 23.0495 62.0921 23.195C62.2017 23.3405 62.4131 23.1987 62.3015 23.0532Z" fill="#FFB8BC"/>
<path d="M65.8053 20.8604C65.682 20.6983 65.4159 20.8788 65.5392 21.0408C65.6625 21.2029 65.9286 21.0224 65.8053 20.8604Z" fill="#FFB8BC"/>
<path d="M63.0412 26.7393C62.9179 26.5772 62.6517 26.7577 62.775 26.9197C62.8983 27.0818 63.1645 26.9013 63.0412 26.7393Z" fill="#FFB8BC"/>
<path d="M57.4195 32.3662C56.2804 32.3662 56.2785 34.0352 57.4195 34.0352C58.5566 34.0352 58.5586 32.3662 57.4195 32.3662Z" fill="#FFB8BC"/>
<path d="M73.4893 25.4727C72.3502 25.4727 72.3483 27.1417 73.4893 27.1417C74.6284 27.1435 74.6304 25.4727 73.4893 25.4727Z" fill="#FFB8BC"/>
<path d="M41.9258 99.2393C40.7868 99.2393 40.7848 100.908 41.9258 100.908C43.063 100.908 43.0649 99.2393 41.9258 99.2393Z" fill="#FFB8BC"/>
<path d="M37.9376 92.5527C36.7985 92.5527 36.7965 94.2218 37.9376 94.2218C39.0766 94.2218 39.0786 92.5527 37.9376 92.5527Z" fill="#FFB8BC"/>
<path d="M64.2364 141.223C63.0973 141.223 63.0954 142.892 64.2364 142.892C65.3755 142.894 65.3774 141.223 64.2364 141.223Z" fill="#FFB8BC"/>
<path d="M43.4058 127.853C42.2667 127.853 42.2648 129.522 43.4058 129.522C44.5449 129.523 44.5469 127.853 43.4058 127.853Z" fill="#FFB8BC"/>
<path d="M88.9551 168.729C87.8161 168.729 87.8141 170.399 88.9551 170.399C90.0942 170.4 90.0962 168.729 88.9551 168.729Z" fill="#FFB8BC"/>
<path d="M147.375 167.893C146.236 167.893 146.234 169.562 147.375 169.562C148.514 169.562 148.516 167.893 147.375 167.893Z" fill="#FFB8BC"/>
<path d="M154.619 169.561C153.48 169.561 153.478 171.23 154.619 171.23C155.758 171.231 155.76 169.561 154.619 169.561Z" fill="#FFB8BC"/>
<path d="M174.155 157.641C173.016 157.641 173.014 159.31 174.155 159.31C175.294 159.31 175.296 157.641 174.155 157.641Z" fill="#FFB8BC"/>
<path d="M192.324 35.3496C191.184 35.3496 191.183 37.0186 192.324 37.0186C193.463 37.0205 193.465 35.3496 192.324 35.3496Z" fill="#FFB8BC"/>
<path d="M209.611 47.9844C208.472 47.9844 208.47 49.6534 209.611 49.6534C210.75 49.6552 210.752 47.9844 209.611 47.9844Z" fill="#FFB8BC"/>
<path d="M139.481 5.71777C138.341 5.71777 138.339 7.38679 139.481 7.38679C140.62 7.38864 140.622 5.71777 139.481 5.71777Z" fill="#FFB8BC"/>
<path d="M149.342 1.52246C149.086 1.52246 149.086 1.85575 149.342 1.85575C149.601 1.85575 149.601 1.52246 149.342 1.52246Z" fill="#FFB8BC"/>
<path d="M149.771 2.80957C149.201 2.80957 149.201 3.64408 149.771 3.64408C150.34 3.64408 150.34 2.80957 149.771 2.80957Z" fill="#FFB8BC"/>
<path d="M150.951 0.393555C150.545 0.393555 150.543 0.808963 150.951 0.808963C151.356 0.808963 151.356 0.393555 150.951 0.393555Z" fill="#FFB8BC"/>
<path d="M88.0992 10.082C86.9601 10.082 86.9581 11.7511 88.0992 11.7511C89.2383 11.7529 89.2402 10.082 88.0992 10.082Z" fill="#FFB8BC"/>
<path d="M215.284 84.341V84.3505C215.284 84.3478 215.283 84.3424 215.283 84.3369C215.283 84.3383 215.284 84.3396 215.284 84.341Z" fill="#FFB8BC"/>
<path d="M207.78 89.0254L207.777 89.0288V89.0254H207.78Z" fill="#FFB8BC"/>
<path d="M206.618 89.0307C206.634 89.021 206.679 88.986 206.743 88.9395C206.698 88.9666 206.657 88.9977 206.618 89.0307ZM206.614 89.0326C206.614 89.0346 206.616 89.0326 206.618 89.0307C206.616 89.0307 206.614 89.0307 206.614 89.0326Z" fill="#FFB8BC"/>
<path d="M206.618 89.0244C206.616 89.0262 206.614 89.0279 206.614 89.0279V89.0262C206.614 89.0244 206.616 89.0244 206.618 89.0244Z" fill="#FFB8BC"/>
<path d="M206.743 88.9385C206.68 88.9851 206.635 89.0201 206.619 89.0298C206.657 88.9967 206.698 88.9657 206.743 88.9385Z" fill="#FFB8BC"/>
<path d="M214.892 83.9709V83.9804C214.892 83.9777 214.891 83.9722 214.891 83.9668C214.891 83.9682 214.892 83.9695 214.892 83.9709Z" fill="#FFB8BC"/>
<path d="M207.388 88.6562L207.385 88.6596V88.6562H207.388Z" fill="#FFB8BC"/>
<path d="M77.4558 61.5249L77.3057 61.502C77.2709 61.4974 77.2383 61.4928 77.2056 61.4882C77.2013 61.4859 77.1947 61.4859 77.1904 61.4859C77.1817 61.4859 77.173 61.4836 77.1664 61.4836C77.347 61.5157 77.6647 61.5685 78.0956 61.6397C77.8823 61.5983 77.6713 61.5593 77.4558 61.5249ZM76.9858 61.4561C76.9858 61.4561 76.9902 61.4561 76.9945 61.4584C77.0011 61.4584 77.0098 61.4606 77.0207 61.4629C77.0272 61.4629 77.0337 61.4652 77.0424 61.4652C77.0228 61.4606 77.0032 61.4561 76.9858 61.4561Z" fill="#FFB8BC" stroke="#FFB8BC"/>
<path d="M113.232 61.1435C112.575 60.0542 111.565 59.4417 110.456 59.0571C107.166 57.9126 103.773 57.6869 100.386 58.304C96.3078 59.0525 92.2715 60.0842 88.8814 62.7693H88.8792C88.8661 62.7785 88.8596 62.7854 88.8466 62.7946C88.7748 62.8522 88.7008 62.9052 88.6312 62.9535C86.5031 62.6058 84.8559 62.2834 83.5199 62.0047C82.2383 61.7399 80.9262 61.5787 79.6293 61.4866C78.2955 61.4152 77.0421 61.2356 75.7344 61.1987C73.0471 61.1274 70.2619 61.2978 67.6095 61.7077C64.0714 62.2558 60.5638 62.9904 57.0932 63.976C54.1426 64.8142 51.1942 65.6686 48.2436 66.5091C43.8047 67.7757 39.4616 69.3877 35.0357 70.6888C33.3146 71.1932 31.5825 71.6514 29.8265 72.0268C26.456 72.743 23.092 73.5674 19.6236 73.7332C16.2814 73.8944 12.9544 74.127 9.66217 73.2174C7.10545 72.5104 4.59877 71.7597 2.62303 69.7378C2.02464 69.1275 1.59163 68.386 1.94849 67.6629C2.10298 67.3566 2.29881 67.0733 2.4446 66.7602C2.58386 66.4585 2.80145 66.2052 2.93201 65.8943C3.07127 65.5442 3.11479 65.0537 2.76881 64.8304C2.5077 64.6599 2.23353 64.7313 1.9833 65.0537C0.808298 66.569 0.420982 69.4798 2.32928 71.1471C2.76664 71.5271 3.22358 71.914 3.68706 72.2272C6.28077 73.975 9.19652 74.8455 12.2167 75.0919C15.8027 75.3936 19.3951 75.3982 23.0006 74.9606C32.3463 73.8253 41.5396 71.7044 50.6459 69.2219C53.2157 68.5218 55.7397 67.6283 58.3139 66.9513C62.3024 65.9012 66.3061 64.911 70.3228 64.0036C71.8569 63.6582 73.4518 63.6121 75.0642 63.421C74.9946 63.9852 74.7552 64.2892 74.5442 64.6093C69.274 72.5242 65.1615 81.0886 61.9803 90.1434C61.049 92.7894 60.3418 95.5574 60.7966 98.4683C60.9185 99.2558 61.1012 100.027 61.6757 100.594C61.8933 100.808 62.2044 101.047 62.5025 100.838C62.7615 100.654 62.6418 100.322 62.5482 100.043C61.9694 98.3186 62.0304 96.5638 62.409 94.8251C63.4774 89.9523 65.4314 85.4318 67.4593 80.9527C70.1379 75.0389 73.6477 69.641 76.9856 64.1372C77.5404 63.2253 78.4217 63.2045 79.2398 63.2713C80.7565 63.398 82.2948 63.444 83.8006 63.6812C84.8537 63.847 85.8699 63.8585 87.1733 64.105C85.6197 65.4752 84.301 66.7141 83.2305 68.211C83.0194 68.508 82.73 68.7199 83.1609 69.086C83.546 69.4107 83.6853 69.1114 83.8811 68.8604C84.9691 67.4625 86.2855 66.3088 87.4757 65.0169C87.998 64.4504 88.592 64.2224 89.3166 64.3491C91.6862 64.7567 94.0623 65.1528 96.4297 65.5742C99.7349 66.1637 103.073 66.2443 106.411 66.2835C108.5 66.3065 110.569 66.0278 112.418 64.8511C113.955 63.8701 114.192 62.7325 113.232 61.1435ZM111.52 64.0174C110.229 64.8764 108.819 65.3117 107.279 65.3738C107.153 65.3761 107.029 65.3807 106.902 65.3853L103.43 65.307C101.915 65.2702 99.8263 65.0031 98.3293 64.7613C95.494 64.3053 92.9917 63.6651 90.0172 63.1792C90.1108 63.1101 90.2044 63.041 90.3001 62.9766C92.5326 61.3692 95.0262 60.5562 97.559 59.8285C101.03 58.836 104.555 58.7715 108.093 59.1999C109.464 59.3657 110.837 59.7917 111.853 60.9109C112.952 62.1245 112.838 63.1378 111.52 64.0174Z" fill="#FFB8BC" stroke="#FFB8BC"/>
<path d="M120.424 86.9667C119.236 87.4296 118.154 88.1089 117.064 88.7722C114.768 90.1723 112.49 91.6116 110.166 92.9657C109.575 93.3088 108.819 93.7993 108.16 93.2766C107.396 92.6755 107.499 91.6853 107.557 90.778C107.566 90.6352 107.625 90.4993 107.647 90.3565C107.827 89.2373 108.319 88.2563 108.839 87.2799C109.078 86.8309 109.4 86.3035 108.765 85.8614C107.257 84.8066 105.814 84.7468 104.45 86.0226C102.87 87.5033 100.956 88.3669 99.1953 89.5022C98.0486 90.2391 96.8605 90.9645 95.5028 91.2754C94.3865 91.5287 94.0122 91.227 94.1798 90.0433C94.219 89.767 94.343 89.5022 94.4561 89.2443C95.024 87.9385 95.605 86.642 96.1686 85.3363C96.471 84.6408 96.6125 83.9569 95.9379 83.3812C95.3222 82.8561 94.8173 83.2223 94.2668 83.5493C92.7176 84.4727 91.6927 86.0018 90.4132 87.2339C89.9454 87.6829 89.532 88.208 88.914 88.4728C88.6638 87.9823 88.9945 87.7543 89.1664 87.4618C89.5494 86.7871 89.9193 86.1008 90.2979 85.4215C90.6374 84.8135 90.2544 84.4727 89.8606 84.1757C89.4232 83.844 89.112 84.102 88.8292 84.4819C88.431 85.0185 87.9697 85.5159 87.763 86.1815C87.4801 87.0865 86.8099 87.6207 86.044 87.8994C83.2718 88.8988 81.0676 90.7826 78.9483 92.816C77.7928 93.9237 76.7963 95.2294 75.4124 96.0538C74.6856 96.4868 74.1938 96.2864 74.1394 95.4366C74.0894 94.6583 74.0524 93.8776 74.2613 93.0808C74.8706 90.7687 75.8432 88.6593 77.1988 86.7387C77.5339 86.2597 77.8407 85.7715 77.2793 85.2212C76.6918 84.6477 76.2196 84.9955 75.767 85.4192C75.5669 85.608 75.408 85.8521 75.2426 86.0778C74.2395 87.4734 73.7652 89.1383 73.1559 90.7296C72.5793 92.238 72.4944 93.7878 72.897 95.3676C73.1494 96.3624 73.6216 97.1891 74.6225 97.4263C75.6191 97.6658 76.4089 97.173 77.0378 96.3785C78.2411 94.8655 79.5815 93.493 81.0002 92.2057C82.7148 90.6559 84.6253 89.4354 86.6424 88.3899C86.8991 88.2563 87.2037 87.9017 87.4039 88.558C87.9523 90.3634 88.5855 90.4809 89.8671 89.1821C91.1444 87.8925 92.2563 86.4186 93.6815 85.2925C93.9209 85.1037 94.195 84.7583 94.4648 84.9771C94.7521 85.205 94.4779 85.5781 94.3713 85.866C94.2233 86.2621 94.0775 86.6743 93.8556 87.0266C93.3725 87.7958 93.1571 88.657 93.0222 89.5459C92.7023 91.6323 94.0318 92.8851 95.9684 92.3163C96.3579 92.2034 96.7387 92.0399 97.1021 91.8534C98.7579 91.0129 100.303 89.9697 101.872 88.9656C102.098 88.8182 102.313 88.5027 102.585 88.6639C102.923 88.862 102.579 89.1683 102.575 89.4285C102.557 90.2437 102.335 91.1718 103.16 91.6876C103.915 92.1574 104.409 91.4481 104.942 91.0359C105.416 90.6674 105.727 90.4026 105.884 91.3836C106.143 93.0094 107.366 94.6191 109.561 94.2253C110.286 94.0964 110.893 93.6888 111.505 93.3019C114.712 91.2846 117.652 88.7791 121.161 87.3052C121.325 87.2362 121.466 87.1417 121.462 86.9069C121.103 86.6674 120.783 86.8263 120.424 86.9667ZM106.959 86.7526C106.226 88.0698 105.614 89.5022 103.965 90.3312C104.283 88.4037 105.34 87.2753 106.515 86.2321C106.639 86.1239 106.842 86.0686 106.974 86.2482C107.09 86.4048 107.053 86.5868 106.959 86.7526Z" fill="#FFB8BC" stroke="#FFB8BC"/>
<path d="M215.035 90.0265C215.054 90.0145 215.104 89.971 215.174 89.9131C215.124 89.9469 215.079 89.9855 215.035 90.0265ZM215.031 90.029V90.0314C215.031 90.0314 215.033 90.029 215.035 90.0265C215.033 90.0265 215.031 90.0265 215.031 90.029Z" fill="#FFB8BC" stroke="#FFB8BC"/>
<path d="M198.329 85.6302C197.694 85.0246 197.071 85.2134 196.519 86.351C196.297 86.8047 196.079 87.1547 195.616 87.2376C194.747 87.3896 194.025 87.8594 193.324 88.3591C191.244 89.8468 189.07 91.1755 186.914 92.5273C186.301 92.9096 185.661 93.2159 184.947 93.354C183.998 93.5383 183.463 93.1399 183.393 92.1197C183.269 90.2935 183.467 88.5526 184.471 86.9751C184.999 86.1461 184.749 85.6717 183.822 85.598C183.663 85.5865 183.517 85.6302 183.343 85.5612C181.744 84.9256 180.909 85.1213 179.975 86.6251C179.518 87.362 179.039 88.0828 178.491 88.7437C177.945 89.4023 177.329 89.9988 176.633 90.4732C176.313 90.6896 175.98 90.8923 175.693 91.1594C175.678 91.1732 175.567 91.2538 175.567 91.2607C175.334 91.4404 175.081 91.6338 175.36 91.9401C175.425 92.0115 175.51 92.0598 175.606 92.0299C175.691 92.0046 175.76 91.9378 175.826 91.8802C175.908 91.8088 176 91.7536 176.089 91.6914C176.309 91.5394 176.511 91.3621 176.702 91.1709C176.768 91.1088 176.844 91.0466 176.9 90.9752C177.183 90.6827 177.458 90.3811 177.771 90.1231C177.873 90.0379 177.98 89.9573 178.091 89.8836C178.145 89.8468 178.202 89.8099 178.26 89.7777C178.278 89.7662 178.439 89.6925 178.439 89.6833C178.478 90.4663 178.5 91.1295 179.27 91.4542C179.975 91.7513 180.354 91.2723 180.808 90.9245C181.02 90.7633 181.163 90.4294 181.492 90.5791C181.803 90.7242 181.725 91.0558 181.755 91.3367C181.968 93.2412 183.313 94.289 185.108 94.0334C186.744 93.8054 187.904 92.6448 189.225 91.7973C191.42 90.3857 193.431 88.6424 195.879 87.6867C196.205 87.56 196.56 87.2538 196.876 87.7143C197.182 88.1542 197.256 88.5963 196.936 89.0984C196.482 89.8099 196.068 90.5561 195.637 91.2884C194.582 93.0869 193.498 94.8762 193.133 97.011C192.915 98.2914 193.773 99.8965 194.824 100.258C195.764 100.58 196.96 99.931 197.578 98.6944C196.865 98.6644 196.488 99.2908 195.938 99.4958C194.913 99.8688 194.452 99.6017 194.197 98.4802C193.892 97.1284 194.471 96.0323 195.048 94.9453C196.02 93.0984 197.037 91.2723 198.046 89.4438C198.294 88.9901 198.512 88.5365 198.153 88.0506C197.785 87.56 197.944 87.2077 198.357 86.8738C198.867 86.4547 198.773 86.0494 198.329 85.6302ZM182.382 87.7443C181.896 88.723 181.026 89.3471 180.384 90.183C180.264 90.3396 180.006 90.563 179.764 90.358C179.59 90.2106 179.629 89.9619 179.699 89.7524C180.175 88.3246 181.048 87.1847 182.101 86.206C182.401 85.9273 182.786 86.0286 183.024 86.503C182.802 86.9314 182.586 87.3344 182.382 87.7443Z" fill="#FFB8BC" stroke="#FFB8BC"/>
<path d="M174.667 84.2818C174.508 84.2334 174.332 84.2357 174.162 84.2334C172.267 84.1966 171.34 85.6474 170.506 87.0751C170.117 87.743 169.76 88.3095 169.061 88.5858C167.279 89.2329 165.473 89.431 163.565 89.0464C164.011 88.2726 164.385 87.5933 164.79 86.9324C165.458 85.8408 165.674 84.588 165.75 83.3491C165.865 81.5114 163.441 80.0744 161.724 81.0762C159.35 82.4602 157.731 84.4337 159.672 87.3123C160.181 88.07 160.047 88.6111 159.411 89.1385C157.433 90.7804 155.505 92.4938 153.473 94.0574C151.795 95.3401 149.15 95.3033 148.175 92.7494C147.733 91.5864 147.154 90.4765 146.547 89.3987C146.158 88.7102 146.399 88.4085 146.967 88.1897C148.242 87.6992 149.428 87.0083 150.66 86.4303C154.254 84.74 157.322 82.2483 160.142 79.4388C162.928 76.6639 165.214 73.4514 166.505 69.5619C167.619 66.1974 166.833 63.434 163.513 61.9601C160.558 60.6475 157.66 61.3798 155.003 62.9089C149.963 65.8059 146.229 70.1192 143.523 75.448C143.255 75.9753 142.935 76.4751 142.641 76.9863C143.131 74.7364 143.731 72.574 144.571 70.4945C146.105 66.6902 147.459 62.7661 150.675 60.0626C150.818 59.9405 150.897 59.7816 150.829 59.5905C150.734 59.3164 150.512 59.3625 150.311 59.3947C150.033 59.4408 149.839 59.655 149.622 59.8277C147.354 61.6308 145.955 64.164 144.558 66.6695C142.548 70.285 141.54 74.3334 140.248 78.2667C138.211 84.4821 137.249 90.9163 136.533 97.4127C136.483 97.8755 136.523 98.4351 137.088 98.5203C137.628 98.6009 137.602 98.0367 137.693 97.6844C138.361 95.0476 138.975 92.3924 139.434 89.7027C139.582 88.8414 139.856 88.4223 140.774 88.7608C141.838 89.1477 142.935 89.3642 144.077 89.0233C144.669 88.846 145.122 89.1155 145.418 89.7165C146.021 90.9255 146.669 92.1115 147.267 93.3228C147.922 94.6469 148.814 95.5796 150.322 95.651C151.6 95.7109 152.709 95.2595 153.732 94.4949C155.342 93.2929 156.948 92.0908 158.563 90.9002C158.787 90.7367 158.996 90.4534 159.342 90.7505C160.556 91.7891 160.974 91.7914 162.109 90.5732C162.632 90.0136 163.136 89.8293 163.883 89.8293C164.771 89.8293 165.658 89.9422 166.548 89.8938C167.314 89.8524 167.971 89.5023 168.694 89.2813C169.155 89.1408 169.941 88.5697 170.345 89.0026C170.743 89.4286 171.248 89.4931 171.727 89.6106C173.183 89.9675 173.579 90.6837 172.891 92.0746C172.123 93.6314 170.854 94.6492 169.336 95.3102C168.803 95.5428 168.202 96.1092 167.662 95.552C167.114 94.9855 167.721 94.4489 167.965 93.9261C168.135 93.5623 168.228 93.1915 167.647 93.2261C166.877 93.2721 166.161 94.3176 166.2 95.3009C166.241 96.2728 166.812 96.5813 167.634 96.5721C170.413 96.5353 172.38 94.9739 173.827 92.655C174.982 90.8012 174.382 89.5922 172.31 89.1915C171.855 89.1039 171.361 89.0072 171.3 88.3279C171.181 86.9646 173.204 84.7769 174.536 84.8575C174.708 84.869 174.902 84.9012 174.943 84.6732C174.982 84.4706 174.834 84.3301 174.667 84.2818ZM143.808 87.9065C143.694 88.2979 143.29 88.3118 142.942 88.3141C142.839 88.3164 142.737 88.3141 142.635 88.3164C141.895 88.367 141.244 88.0331 140.581 87.7637C140.278 87.6416 140.028 87.4505 140.106 87.0452C140.178 86.6698 140.468 86.6629 140.744 86.6537C141.606 86.6215 142.441 86.7527 143.211 87.1719C143.494 87.3261 143.947 87.4367 143.808 87.9065ZM145.176 87.3929C144.127 86.1655 142.785 85.652 141.244 85.7579C140.559 85.8039 140.485 85.5161 140.698 84.9427C143.283 78.0617 146.421 71.5239 151.702 66.4783C154.209 64.0834 157.105 62.3309 160.673 62.3677C161.47 62.3769 162.233 62.5612 162.96 62.849C164.464 63.4432 165.121 64.6176 165.149 66.9965C165.082 70.1537 163.672 73.1428 161.681 75.9224C157.675 81.5114 152.385 85.1753 146.262 87.6301C145.836 87.8005 145.509 87.7844 145.176 87.3929ZM161.605 89.5069C161.38 90.0067 160.987 90.4143 160.486 90.6353C160.216 90.5248 159.997 90.3544 160.138 90.0804C160.364 89.6497 160.395 88.9612 161.069 89.0118C161.3 89.028 161.718 89.2559 161.605 89.5069ZM161.602 88.5397C161.061 88.0884 161.652 87.8604 161.789 87.6048C161.988 87.2409 162.331 86.9669 162.59 86.6376C162.777 86.4027 163.062 86.1586 162.723 85.8178C162.407 85.4954 162.116 85.4746 161.748 85.7901C161.293 86.1793 161.172 86.8264 160.723 87.2225C159.566 85.5069 160.225 83.1211 162.014 82.4256C163.165 81.9789 164.361 82.8931 164.281 84.1666C164.183 85.7164 163.622 87.0682 162.693 88.2634C162.39 88.6526 162.096 88.9474 161.602 88.5397Z" fill="#FFB8BC" stroke="#FFB8BC"/>
<path d="M206.878 82.2973C206.381 82.1638 205.724 82.1568 205.718 81.3324C205.716 80.8995 205.964 80.3238 206.386 80.4665C206.978 80.6669 207.911 80.5725 208.059 81.3462C208.159 81.8667 207.548 82.2789 206.878 82.2973Z" fill="#FFB8BC" stroke="#FFB8BC"/>
<path d="M79.5555 82.3134C78.9876 82.265 78.424 82.1245 78.3762 81.4083C78.3479 80.9915 78.5459 80.4296 79.0551 80.5563C79.6665 80.7106 80.5826 80.6507 80.7305 81.4198C80.8241 81.9104 80.2018 82.3686 79.5555 82.3134Z" fill="#FFB8BC" stroke="#FFB8BC"/>
<path d="M245.089 93.943C244.821 93.6482 244.513 93.3972 244.158 93.236C243.936 93.1347 243.697 93.061 243.431 93.0264C242.535 92.909 241.61 93.1738 240.798 93.563C240.509 93.7012 240.224 93.8601 239.941 94.0259C239.747 94.141 239.556 94.2585 239.362 94.3736C238.318 94.9954 237.238 95.6586 236.002 95.6701C235.646 95.6747 235.247 95.6793 234.906 95.5596C234.682 95.4813 234.392 95.4007 234.196 95.2579C233.983 95.1082 233.792 94.9194 233.633 94.6891C233.108 93.9384 233.011 92.886 232.969 91.9717C232.965 91.8773 232.965 91.7783 232.967 91.6769C232.98 91.0759 233.071 90.392 232.799 89.8715C232.384 89.0793 231.265 89.4754 230.682 89.7863C229.325 90.5232 228.204 91.677 227.068 92.7317C226.644 93.1278 226.195 93.5054 225.715 93.8209C225.427 94.0097 225.125 94.1756 224.809 94.3114C224.709 94.3552 224.607 94.3943 224.505 94.4312C224.274 94.5118 224.026 94.5763 223.793 94.5026C223.319 94.3529 223.156 93.7265 223.151 93.2037C223.138 91.396 224.057 89.6712 223.939 87.8703C223.911 87.4512 223.824 87.0298 223.626 86.6636C223.428 86.2998 223.11 85.9981 222.725 85.8876C222.342 85.7793 221.939 85.8691 221.563 86.0211C221.472 86.058 221.382 86.0971 221.295 86.1386C220.864 86.3435 220.455 86.5899 220.051 86.8479C220.048 86.8479 220.046 86.8502 220.044 86.8525C219.159 87.419 218.303 88.0545 217.346 88.4737C217.205 88.5358 217.061 88.5957 216.922 88.6602C216.806 88.7132 216.323 88.8951 216.197 88.9273C216.164 88.9365 216.145 88.9458 216.134 88.9458C217.12 87.3338 218.112 85.678 218.19 83.7597C218.219 83.0735 218.112 82.3504 217.725 81.7954C217.261 81.1321 216.458 80.8098 215.681 80.7683C214.345 80.6992 212.996 81.4085 212.243 82.576C211.488 83.7436 211.356 85.3303 211.902 86.6222C212.102 87.0943 212.391 87.5571 212.37 88.073C212.337 88.773 211.756 89.282 211.229 89.708C209.143 91.3983 207.171 93.2452 205.33 95.2303C204.974 95.6148 204.608 96.0155 204.138 96.2274C203.668 96.437 203.061 96.4047 202.722 96.0017C202.413 95.6356 202.408 95.0875 202.454 94.5993C202.702 91.8497 203.916 89.2889 205.407 87.0183C205.613 86.7028 205.833 86.3758 205.888 85.9958C205.944 85.6158 205.774 85.1691 205.424 85.0608C205.006 84.9319 204.619 85.3257 204.353 85.6941C203.44 86.9584 202.695 88.3562 202.114 89.8278C201.418 91.5848 200.957 93.5607 201.457 95.3915C201.736 96.4093 202.484 97.4364 203.483 97.4157C204.216 97.4019 204.821 96.8354 205.352 96.3034C207.2 94.4519 209.049 92.6004 210.897 90.7489C210.992 90.6545 211.092 90.5555 211.216 90.514C211.454 90.438 211.704 90.5877 211.878 90.7742C212.052 90.9608 212.189 91.1887 212.394 91.3338C212.864 91.6677 213.516 91.449 213.962 91.0805C214.408 90.7144 214.752 90.2123 215.229 89.8899C215.268 89.8646 215.307 89.8393 215.353 89.8139C215.359 89.8093 215.364 89.8047 215.37 89.8047C215.486 89.7356 215.607 89.6804 215.729 89.6366C215.731 89.6343 215.736 89.632 215.74 89.632C215.788 89.609 215.836 89.586 215.888 89.5652V89.5629H215.89C216.006 89.5238 216.119 89.4777 216.232 89.4317C216.386 89.3695 216.539 89.3119 216.691 89.2474C216.765 89.2152 216.841 89.183 216.917 89.1484C217.067 89.0816 217.218 89.0125 217.368 88.9411C217.666 88.7961 217.96 88.6441 218.253 88.4875C218.545 88.3286 218.836 88.1651 219.124 87.9993C219.413 87.8335 219.7 87.6631 219.988 87.495C220.179 87.3798 220.371 87.267 220.562 87.1541C220.817 87.0044 221.071 86.8548 221.328 86.7097C221.604 86.5508 221.909 86.3919 222.22 86.4402C222.501 86.4863 222.738 86.7028 222.875 86.9676C223.012 87.2301 223.06 87.5364 223.071 87.8358C223.112 88.8398 222.792 89.8162 222.54 90.7834C222.288 91.7529 222.1 92.7984 222.405 93.7495C222.529 94.1387 222.742 94.5095 223.067 94.7351C223.571 95.0829 224.248 95.0138 224.803 94.7651C224.831 94.7513 224.862 94.7398 224.89 94.7236C225.188 94.5855 225.482 94.4104 225.767 94.2216C226.03 94.0466 226.285 93.8601 226.524 93.6758C227.09 93.2406 227.577 92.704 228.082 92.1928C228.58 91.6908 229.122 91.2417 229.686 90.8249C230.093 90.5232 230.565 90.2123 231.065 90.1225C231.274 90.0834 231.487 90.0834 231.703 90.1386C232.43 90.3206 232.349 91.2647 232.334 91.875C232.329 92.0362 232.329 92.1997 232.334 92.3655V92.3724C232.369 93.7933 232.745 95.3707 233.985 96.0271C233.992 96.0317 233.996 96.034 234.003 96.0363C234.103 96.0892 234.207 96.1353 234.318 96.1744C234.362 96.1906 234.403 96.2044 234.451 96.2182C236.12 96.734 237.734 95.7668 239.147 94.9125C239.288 94.8273 239.434 94.7421 239.582 94.6569C239.789 94.5394 240.002 94.4266 240.217 94.3206C241.571 93.6551 243.092 93.3005 244.358 94.3989C245.056 95.0023 245.666 95.6448 246.538 95.9879C247.365 96.3103 248.194 96.4231 249.069 96.3702C251.121 96.2481 253.186 95.8221 255.177 95.3017C255.682 95.1704 256.186 95.0276 256.687 94.8756C256.8 94.8411 256.911 94.7398 257 94.6315C248.098 97.494 246.375 95.3592 245.089 93.943ZM214.047 89.4823C213.841 89.9337 213.505 90.3827 213.018 90.5278C212.622 90.491 212.596 90.1985 212.687 89.9797C212.864 89.5629 212.922 88.9596 213.482 88.9342C213.697 88.9227 214.208 89.1277 214.047 89.4823ZM215.035 90.0235C215.033 90.0258 215.031 90.0281 215.031 90.0281V90.0258C215.031 90.0235 215.033 90.0235 215.035 90.0235C215.076 89.9843 215.12 89.9475 215.168 89.9153C215.1 89.9705 215.053 90.012 215.035 90.0235ZM214.924 88.575C214.63 88.9573 214.376 88.6671 214.136 88.4875C213.854 88.2756 213.854 88.043 214.11 87.7805C214.45 87.4259 214.791 87.0689 215.09 86.6797C215.283 86.4264 215.623 86.1271 215.268 85.7701C214.92 85.4201 214.541 85.48 214.165 85.7862C213.721 86.1455 213.738 86.8594 213.136 87.1841C212.217 85.2243 212.685 83.2945 214.239 82.5024C215.538 81.846 216.735 82.6313 216.75 84.1351C216.765 85.9083 215.919 87.2762 214.924 88.575Z" fill="#FFB8BC"/>
<path d="M215.035 90.0235C215.033 90.0258 215.031 90.0281 215.031 90.0281V90.0258C215.031 90.0235 215.033 90.0235 215.035 90.0235ZM215.035 90.0235C215.076 89.9843 215.12 89.9475 215.168 89.9153C215.1 89.9705 215.053 90.012 215.035 90.0235ZM245.089 93.943C244.821 93.6482 244.513 93.3972 244.158 93.236C243.936 93.1347 243.697 93.061 243.431 93.0264C242.535 92.909 241.61 93.1738 240.798 93.563C240.509 93.7012 240.224 93.8601 239.941 94.0259C239.747 94.141 239.556 94.2585 239.362 94.3736C238.318 94.9954 237.238 95.6586 236.002 95.6701C235.646 95.6747 235.247 95.6793 234.906 95.5596C234.682 95.4813 234.392 95.4007 234.196 95.2579C233.983 95.1082 233.792 94.9194 233.633 94.6891C233.108 93.9384 233.011 92.886 232.969 91.9717C232.965 91.8773 232.965 91.7783 232.967 91.6769C232.98 91.0759 233.071 90.392 232.799 89.8715C232.384 89.0793 231.265 89.4754 230.682 89.7863C229.325 90.5232 228.204 91.677 227.068 92.7317C226.644 93.1278 226.195 93.5054 225.715 93.8209C225.427 94.0097 225.125 94.1756 224.809 94.3114C224.709 94.3552 224.607 94.3943 224.505 94.4312C224.274 94.5118 224.026 94.5763 223.793 94.5026C223.319 94.3529 223.156 93.7265 223.151 93.2037C223.138 91.396 224.057 89.6712 223.939 87.8703C223.911 87.4512 223.824 87.0298 223.626 86.6636C223.428 86.2998 223.11 85.9981 222.725 85.8876C222.342 85.7793 221.939 85.8691 221.563 86.0211C221.472 86.058 221.382 86.0971 221.295 86.1386C220.864 86.3435 220.455 86.5899 220.051 86.8479C220.048 86.8479 220.046 86.8502 220.044 86.8525C219.159 87.419 218.303 88.0545 217.346 88.4737C217.205 88.5358 217.061 88.5957 216.922 88.6602C216.806 88.7132 216.323 88.8951 216.197 88.9273C216.164 88.9365 216.145 88.9458 216.134 88.9458C217.12 87.3338 218.112 85.678 218.19 83.7597C218.219 83.0735 218.112 82.3504 217.725 81.7954C217.261 81.1321 216.458 80.8098 215.681 80.7683C214.345 80.6992 212.996 81.4085 212.243 82.576C211.488 83.7436 211.356 85.3303 211.902 86.6222C212.102 87.0943 212.391 87.5571 212.37 88.073C212.337 88.773 211.756 89.282 211.229 89.708C209.143 91.3983 207.171 93.2452 205.33 95.2303C204.974 95.6148 204.608 96.0155 204.138 96.2274C203.668 96.437 203.061 96.4047 202.722 96.0017C202.413 95.6356 202.408 95.0875 202.454 94.5993C202.702 91.8497 203.916 89.2889 205.407 87.0183C205.613 86.7028 205.833 86.3758 205.888 85.9958C205.944 85.6158 205.774 85.1691 205.424 85.0608C205.006 84.9319 204.619 85.3257 204.353 85.6941C203.44 86.9584 202.695 88.3562 202.114 89.8278C201.418 91.5848 200.957 93.5607 201.457 95.3915C201.736 96.4093 202.484 97.4364 203.483 97.4157C204.216 97.4019 204.821 96.8354 205.352 96.3034C207.2 94.4519 209.049 92.6004 210.897 90.7489C210.992 90.6545 211.092 90.5555 211.216 90.514C211.454 90.438 211.704 90.5877 211.878 90.7742C212.052 90.9608 212.189 91.1887 212.394 91.3338C212.864 91.6677 213.516 91.449 213.962 91.0805C214.408 90.7144 214.752 90.2123 215.229 89.8899C215.268 89.8646 215.307 89.8393 215.353 89.8139C215.359 89.8093 215.364 89.8047 215.37 89.8047C215.486 89.7356 215.607 89.6804 215.729 89.6366C215.731 89.6343 215.736 89.632 215.74 89.632C215.788 89.609 215.836 89.586 215.888 89.5652V89.5629H215.89C216.006 89.5238 216.119 89.4777 216.232 89.4317C216.386 89.3695 216.539 89.3119 216.691 89.2474C216.765 89.2152 216.841 89.183 216.917 89.1484C217.067 89.0816 217.218 89.0125 217.368 88.9411C217.666 88.7961 217.96 88.6441 218.253 88.4875C218.545 88.3286 218.836 88.1651 219.124 87.9993C219.413 87.8335 219.7 87.6631 219.988 87.495C220.179 87.3798 220.371 87.267 220.562 87.1541C220.817 87.0044 221.071 86.8548 221.328 86.7097C221.604 86.5508 221.909 86.3919 222.22 86.4402C222.501 86.4863 222.738 86.7028 222.875 86.9676C223.012 87.2301 223.06 87.5364 223.071 87.8358C223.112 88.8398 222.792 89.8162 222.54 90.7834C222.288 91.7529 222.1 92.7984 222.405 93.7495C222.529 94.1387 222.742 94.5095 223.067 94.7351C223.571 95.0829 224.248 95.0138 224.803 94.7651C224.831 94.7513 224.862 94.7398 224.89 94.7236C225.188 94.5855 225.482 94.4104 225.767 94.2216C226.03 94.0466 226.285 93.8601 226.524 93.6758C227.09 93.2406 227.577 92.704 228.082 92.1928C228.58 91.6908 229.122 91.2417 229.686 90.8249C230.093 90.5232 230.565 90.2123 231.065 90.1225C231.274 90.0834 231.487 90.0834 231.703 90.1386C232.43 90.3206 232.349 91.2647 232.334 91.875C232.329 92.0362 232.329 92.1997 232.334 92.3655V92.3724C232.369 93.7933 232.745 95.3707 233.985 96.0271C233.992 96.0317 233.996 96.034 234.003 96.0363C234.103 96.0892 234.207 96.1353 234.318 96.1744C234.362 96.1906 234.403 96.2044 234.451 96.2182C236.12 96.734 237.734 95.7668 239.147 94.9125C239.288 94.8273 239.434 94.7421 239.582 94.6569C239.789 94.5394 240.002 94.4266 240.217 94.3206C241.571 93.6551 243.092 93.3005 244.358 94.3989C245.056 95.0023 245.666 95.6448 246.538 95.9879C247.365 96.3103 248.194 96.4231 249.069 96.3702C251.121 96.2481 253.186 95.8221 255.177 95.3017C255.682 95.1704 256.186 95.0276 256.687 94.8756C256.8 94.8411 256.911 94.7398 257 94.6315C248.098 97.494 246.375 95.3592 245.089 93.943ZM214.047 89.4823C213.841 89.9337 213.505 90.3827 213.018 90.5278C212.622 90.491 212.596 90.1985 212.687 89.9797C212.864 89.5629 212.922 88.9596 213.482 88.9342C213.697 88.9227 214.208 89.1277 214.047 89.4823ZM214.924 88.575C214.63 88.9573 214.376 88.6671 214.136 88.4875C213.854 88.2756 213.854 88.043 214.11 87.7805C214.45 87.4259 214.791 87.0689 215.09 86.6797C215.283 86.4264 215.623 86.1271 215.268 85.7701C214.92 85.4201 214.541 85.48 214.165 85.7862C213.721 86.1455 213.738 86.8594 213.136 87.1841C212.217 85.2243 212.685 83.2945 214.239 82.5024C215.538 81.846 216.735 82.6313 216.75 84.1351C216.765 85.9083 215.919 87.2762 214.924 88.575Z" stroke="#FFB8BC"/>
<path d="M215.035 90.0225C215.033 90.0242 215.031 90.026 215.031 90.026V90.0242C215.031 90.0225 215.033 90.0225 215.035 90.0225Z" fill="#FFB8BC" stroke="#FFB8BC"/>
<path d="M215.175 89.915C215.104 89.9731 215.054 90.0167 215.036 90.0288C215.079 89.9877 215.125 89.9489 215.175 89.915Z" fill="#FFB8BC" stroke="#FFB8BC"/>
<path d="M224.234 83.7193V83.7298C224.234 83.7268 224.233 83.7208 224.233 83.7148C224.233 83.7163 224.234 83.7178 224.234 83.7193Z" fill="#FFB8BC" stroke="#FFB8BC"/>
<path d="M215.892 89.5596L215.888 89.563V89.5596H215.892Z" fill="#FFB8BC" stroke="#FFB8BC"/>
</svg>
