<svg width="35" height="36" viewBox="0 0 35 36" fill="none" xmlns="http://www.w3.org/2000/svg">
    <path d="M34.6 18.457C34.6 27.9011 26.9441 35.557 17.5 35.557C8.05593 35.557 0.4 27.9011 0.4 18.457C0.4 9.01296 8.05593 1.35703 17.5 1.35703C26.9441 1.35703 34.6 9.01296 34.6 18.457Z" fill="#FFAB52" stroke="black" stroke-width="0.8" />
    <path d="M22.5914 17.6456C22.5914 16.5911 23.4505 15.732 24.505 15.732C25.5601 15.732 26.4185 16.5858 26.4185 17.6456C26.4185 18.7001 25.5595 19.5591 24.505 19.5591C23.4505 19.5591 22.5914 18.7001 22.5914 17.6456Z" fill="black" stroke="black" stroke-width="0.8" />
    <path d="M8.57969 17.6456C8.57969 16.5911 9.43874 15.732 10.4932 15.732C11.5484 15.732 12.4068 16.5858 12.4068 17.6456C12.4068 18.7001 11.5478 19.5591 10.4932 19.5591C9.43874 19.5591 8.57969 18.7001 8.57969 17.6456Z" fill="black" stroke="black" stroke-width="0.8" />
    <path d="M20.7373 25.4931L20.7373 25.4931L20.7424 25.4956C20.7505 25.4995 20.7571 25.5059 20.7612 25.5182C20.7649 25.5294 20.7662 25.5456 20.7595 25.5647C20.7446 25.5864 20.7197 25.5897 20.7027 25.5809L20.7003 25.5797C18.7681 24.6042 16.3657 24.5853 14.4151 25.5285L14.3038 25.5812L14.3038 25.5811L14.2996 25.5832C14.2974 25.5836 14.2929 25.5842 14.2852 25.5842C14.2694 25.5842 14.2513 25.5743 14.2422 25.5556L14.2422 25.5556L14.2415 25.5541C14.2375 25.5459 14.2362 25.5356 14.2406 25.523C14.245 25.5105 14.2533 25.5013 14.2635 25.4961L14.3734 25.444L14.3734 25.444L14.377 25.4423C16.3761 24.4708 18.7542 24.4931 20.7373 25.4931Z" fill="black" stroke="black" stroke-width="0.8" />
    <mask id="path-5-inside-1_1118_14116" fill="white">
        <path d="M11.4024 13.2355L11.4617 13.2177C11.6219 13.1762 11.7109 13.0101 11.6694 12.8558C11.6278 12.6957 11.4617 12.6067 11.3075 12.6482L11.2482 12.666C10.2397 12.9389 9.14225 12.6601 8.38886 11.9423C8.27021 11.8296 8.08038 11.8355 7.96767 11.9541C7.85496 12.0728 7.8609 12.2626 7.97954 12.3753C8.65581 13.016 9.5575 13.3601 10.4711 13.3601C10.7795 13.3601 11.0939 13.3186 11.4024 13.2355Z" />
    </mask>
    <path d="M11.4024 13.2355L11.4617 13.2177C11.6219 13.1762 11.7109 13.0101 11.6694 12.8558C11.6278 12.6957 11.4617 12.6067 11.3075 12.6482L11.2482 12.666C10.2397 12.9389 9.14225 12.6601 8.38886 11.9423C8.27021 11.8296 8.08038 11.8355 7.96767 11.9541C7.85496 12.0728 7.8609 12.2626 7.97954 12.3753C8.65581 13.016 9.5575 13.3601 10.4711 13.3601C10.7795 13.3601 11.0939 13.3186 11.4024 13.2355Z" fill="black" />
    <path d="M11.4024 13.2355L11.6104 14.008L11.6214 14.005L11.6323 14.0018L11.4024 13.2355ZM11.4617 13.2177L11.261 12.4433L11.2463 12.4471L11.2319 12.4514L11.4617 13.2177ZM11.6694 12.8558L10.8949 13.0566L10.8969 13.0638L11.6694 12.8558ZM11.3075 12.6482L11.0995 11.8757L11.0885 11.8787L11.0776 11.882L11.3075 12.6482ZM11.2482 12.666L11.4571 13.4382L11.4676 13.4354L11.4781 13.4323L11.2482 12.666ZM8.38886 11.9423L8.9407 11.3631L8.93986 11.3623L8.38886 11.9423ZM7.97954 12.3753L7.42854 12.9553L7.42934 12.9561L7.97954 12.3753ZM11.6323 14.0018L11.6916 13.984L11.2319 12.4514L11.1725 12.4692L11.6323 14.0018ZM11.6625 13.9921C12.2753 13.8332 12.593 13.2091 12.4419 12.6479L10.8969 13.0638C10.8288 12.811 10.9685 12.5191 11.261 12.4433L11.6625 13.9921ZM12.4438 12.6551C12.2849 12.0423 11.6608 11.7246 11.0995 11.8757L11.5155 13.4207C11.2627 13.4888 10.9708 13.3491 10.895 13.0566L12.4438 12.6551ZM11.0776 11.882L11.0183 11.8998L11.4781 13.4323L11.5374 13.4145L11.0776 11.882ZM11.0392 11.8938C10.3003 12.0937 9.49136 11.8877 8.9407 11.3631L7.83702 12.5215C8.79314 13.4324 10.1791 13.7841 11.4571 13.4382L11.0392 11.8938ZM8.93986 11.3623C8.49709 10.9416 7.80107 10.968 7.38767 11.4031L8.54767 12.5051C8.3597 12.703 8.04334 12.7175 7.83786 12.5223L8.93986 11.3623ZM7.38767 11.4031C6.96703 11.8459 6.9934 12.5419 7.42854 12.9553L8.53054 11.7953C8.72839 11.9833 8.74289 12.2997 8.54767 12.5051L7.38767 11.4031ZM7.42934 12.9561C8.25912 13.7422 9.35968 14.1601 10.4711 14.1601V12.5601C9.75533 12.5601 9.0525 12.2898 8.52973 11.7946L7.42934 12.9561ZM10.4711 14.1601C10.8509 14.1601 11.2352 14.109 11.6104 14.008L11.1944 12.463C10.9527 12.5281 10.7082 12.5601 10.4711 12.5601V14.1601Z" fill="black" mask="url(#path-5-inside-1_1118_14116)" />
    <mask id="path-7-inside-2_1118_14116" fill="white">
        <path d="M26.6168 11.9423C25.8575 12.6601 24.766 12.933 23.7575 12.666L23.6982 12.6482C23.538 12.6067 23.3779 12.6957 23.3363 12.8558C23.2948 13.016 23.3838 13.1762 23.544 13.2177L23.6033 13.2355C23.9118 13.3186 24.2262 13.3601 24.5346 13.3601C25.4482 13.3601 26.3499 13.016 27.0262 12.3753C27.1448 12.2626 27.1507 12.0728 27.038 11.9541C26.9194 11.8355 26.7355 11.8296 26.6168 11.9423Z" />
    </mask>
    <path d="M26.6168 11.9423C25.8575 12.6601 24.766 12.933 23.7575 12.666L23.6982 12.6482C23.538 12.6067 23.3779 12.6957 23.3363 12.8558C23.2948 13.016 23.3838 13.1762 23.544 13.2177L23.6033 13.2355C23.9118 13.3186 24.2262 13.3601 24.5346 13.3601C25.4482 13.3601 26.3499 13.016 27.0262 12.3753C27.1448 12.2626 27.1507 12.0728 27.038 11.9541C26.9194 11.8355 26.7355 11.8296 26.6168 11.9423Z" fill="black" />
    <path d="M26.6168 11.9423L27.1664 12.5236L27.1678 12.5223L26.6168 11.9423ZM23.7575 12.666L23.5276 13.4323L23.5402 13.436L23.5528 13.4394L23.7575 12.666ZM23.6982 12.6482L23.9281 11.882L23.9136 11.8776L23.899 11.8738L23.6982 12.6482ZM23.544 13.2177L23.7738 12.4514L23.7594 12.4471L23.7447 12.4433L23.544 13.2177ZM23.6033 13.2355L23.3734 14.0018L23.3843 14.005L23.3953 14.008L23.6033 13.2355ZM27.0262 12.3753L27.5764 12.9561L27.5772 12.9553L27.0262 12.3753ZM27.038 11.9541L27.618 11.4031L27.611 11.3957L27.6037 11.3885L27.038 11.9541ZM26.0673 11.3609C25.5111 11.8867 24.7056 12.0894 23.9622 11.8926L23.5528 13.4394C24.8264 13.7765 26.2039 13.4335 27.1664 12.5236L26.0673 11.3609ZM23.9874 11.8998L23.9281 11.882L23.4683 13.4145L23.5276 13.4323L23.9874 11.8998ZM23.899 11.8738C23.3332 11.7271 22.72 12.0454 22.5619 12.6551L24.1107 13.0566C24.0357 13.3459 23.7428 13.4862 23.4974 13.4226L23.899 11.8738ZM22.5619 12.6551C22.4153 13.2208 22.7335 13.834 23.3432 13.9921L23.7447 12.4433C24.034 12.5183 24.1744 12.8112 24.1107 13.0566L22.5619 12.6551ZM23.3141 13.984L23.3734 14.0018L23.8332 12.4692L23.7738 12.4514L23.3141 13.984ZM23.3953 14.008C23.7705 14.109 24.1548 14.1601 24.5346 14.1601V12.5601C24.2975 12.5601 24.053 12.5281 23.8113 12.463L23.3953 14.008ZM24.5346 14.1601C25.646 14.1601 26.7466 13.7422 27.5764 12.9561L26.476 11.7946C25.9532 12.2898 25.2504 12.5601 24.5346 12.5601V14.1601ZM27.5772 12.9553C28.0123 12.5419 28.0387 11.8459 27.618 11.4031L26.458 12.5051C26.2628 12.2997 26.2773 11.9833 26.4752 11.7953L27.5772 12.9553ZM27.6037 11.3885C27.1959 10.9807 26.5168 10.9339 26.0658 11.3623L27.1678 12.5223C26.9542 12.7252 26.6429 12.6903 26.4723 12.5198L27.6037 11.3885Z" fill="black" mask="url(#path-7-inside-2_1118_14116)" />
    <path opacity="0.38" d="M22.5914 17.6456C22.5914 16.5911 23.4505 15.732 24.505 15.732C25.5601 15.732 26.4185 16.5858 26.4185 17.6456C26.4185 18.7001 25.5595 19.5591 24.505 19.5591C23.4505 19.5591 22.5914 18.7001 22.5914 17.6456Z" fill="black" stroke="black" stroke-width="0.8" />
    <path opacity="0.38" d="M8.57969 17.6456C8.57969 16.5911 9.43874 15.732 10.4932 15.732C11.5484 15.732 12.4068 16.5858 12.4068 17.6456C12.4068 18.7001 11.5478 19.5591 10.4932 19.5591C9.43874 19.5591 8.57969 18.7001 8.57969 17.6456Z" fill="black" stroke="black" stroke-width="0.8" />
    <path opacity="0.38" d="M20.7373 25.4931L20.7373 25.4931L20.7424 25.4956C20.7505 25.4995 20.7571 25.5059 20.7612 25.5182C20.7649 25.5294 20.7662 25.5456 20.7595 25.5647C20.7446 25.5864 20.7197 25.5897 20.7027 25.5809L20.7003 25.5797C18.7681 24.6042 16.3657 24.5853 14.4151 25.5285L14.3038 25.5812L14.3038 25.5811L14.2996 25.5832C14.2974 25.5836 14.2929 25.5842 14.2852 25.5842C14.2694 25.5842 14.2513 25.5743 14.2422 25.5556L14.2422 25.5556L14.2415 25.5541C14.2375 25.5459 14.2362 25.5356 14.2406 25.523C14.245 25.5105 14.2533 25.5013 14.2635 25.4961L14.3734 25.444L14.3734 25.444L14.377 25.4423C16.3761 24.4708 18.7542 24.4931 20.7373 25.4931Z" fill="black" stroke="black" stroke-width="0.8" />
    <g opacity="0.38">
        <mask id="path-12-inside-3_1118_14116" fill="white">
            <path d="M11.4024 13.2355L11.4617 13.2177C11.6219 13.1762 11.7109 13.0101 11.6694 12.8558C11.6278 12.6957 11.4617 12.6067 11.3075 12.6482L11.2482 12.666C10.2397 12.9389 9.14225 12.6601 8.38886 11.9423C8.27021 11.8296 8.08038 11.8355 7.96767 11.9541C7.85496 12.0728 7.8609 12.2626 7.97954 12.3753C8.65581 13.016 9.5575 13.3601 10.4711 13.3601C10.7795 13.3601 11.0939 13.3186 11.4024 13.2355Z" />
        </mask>
        <path d="M11.4024 13.2355L11.4617 13.2177C11.6219 13.1762 11.7109 13.0101 11.6694 12.8558C11.6278 12.6957 11.4617 12.6067 11.3075 12.6482L11.2482 12.666C10.2397 12.9389 9.14225 12.6601 8.38886 11.9423C8.27021 11.8296 8.08038 11.8355 7.96767 11.9541C7.85496 12.0728 7.8609 12.2626 7.97954 12.3753C8.65581 13.016 9.5575 13.3601 10.4711 13.3601C10.7795 13.3601 11.0939 13.3186 11.4024 13.2355Z" fill="black" />
        <path d="M11.4024 13.2355L11.6104 14.008L11.6214 14.005L11.6323 14.0018L11.4024 13.2355ZM11.4617 13.2177L11.261 12.4433L11.2463 12.4471L11.2319 12.4514L11.4617 13.2177ZM11.6694 12.8558L10.8949 13.0566L10.8969 13.0638L11.6694 12.8558ZM11.3075 12.6482L11.0995 11.8757L11.0885 11.8787L11.0776 11.882L11.3075 12.6482ZM11.2482 12.666L11.4571 13.4382L11.4676 13.4354L11.4781 13.4323L11.2482 12.666ZM8.38886 11.9423L8.9407 11.3631L8.93986 11.3623L8.38886 11.9423ZM7.97954 12.3753L7.42854 12.9553L7.42934 12.9561L7.97954 12.3753ZM11.6323 14.0018L11.6916 13.984L11.2319 12.4514L11.1725 12.4692L11.6323 14.0018ZM11.6625 13.9921C12.2753 13.8332 12.593 13.2091 12.4419 12.6479L10.8969 13.0638C10.8288 12.811 10.9685 12.5191 11.261 12.4433L11.6625 13.9921ZM12.4438 12.6551C12.2849 12.0423 11.6608 11.7246 11.0995 11.8757L11.5155 13.4207C11.2627 13.4888 10.9708 13.3491 10.895 13.0566L12.4438 12.6551ZM11.0776 11.882L11.0183 11.8998L11.4781 13.4323L11.5374 13.4145L11.0776 11.882ZM11.0392 11.8938C10.3003 12.0937 9.49136 11.8877 8.9407 11.3631L7.83702 12.5215C8.79314 13.4324 10.1791 13.7841 11.4571 13.4382L11.0392 11.8938ZM8.93986 11.3623C8.49709 10.9416 7.80107 10.968 7.38767 11.4031L8.54767 12.5051C8.3597 12.703 8.04334 12.7175 7.83786 12.5223L8.93986 11.3623ZM7.38767 11.4031C6.96703 11.8459 6.9934 12.5419 7.42854 12.9553L8.53054 11.7953C8.72839 11.9833 8.74289 12.2997 8.54767 12.5051L7.38767 11.4031ZM7.42934 12.9561C8.25912 13.7422 9.35968 14.1601 10.4711 14.1601V12.5601C9.75533 12.5601 9.0525 12.2898 8.52973 11.7946L7.42934 12.9561ZM10.4711 14.1601C10.8509 14.1601 11.2352 14.109 11.6104 14.008L11.1944 12.463C10.9527 12.5281 10.7082 12.5601 10.4711 12.5601V14.1601Z" fill="black" mask="url(#path-12-inside-3_1118_14116)" />
    </g>
    <g opacity="0.38">
        <mask id="path-14-inside-4_1118_14116" fill="white">
            <path d="M26.6168 11.9423C25.8575 12.6601 24.766 12.933 23.7575 12.666L23.6982 12.6482C23.538 12.6067 23.3779 12.6957 23.3363 12.8558C23.2948 13.016 23.3838 13.1762 23.544 13.2177L23.6033 13.2355C23.9118 13.3186 24.2262 13.3601 24.5346 13.3601C25.4482 13.3601 26.3499 13.016 27.0262 12.3753C27.1448 12.2626 27.1507 12.0728 27.038 11.9541C26.9194 11.8355 26.7355 11.8296 26.6168 11.9423Z" />
        </mask>
        <path d="M26.6168 11.9423C25.8575 12.6601 24.766 12.933 23.7575 12.666L23.6982 12.6482C23.538 12.6067 23.3779 12.6957 23.3363 12.8558C23.2948 13.016 23.3838 13.1762 23.544 13.2177L23.6033 13.2355C23.9118 13.3186 24.2262 13.3601 24.5346 13.3601C25.4482 13.3601 26.3499 13.016 27.0262 12.3753C27.1448 12.2626 27.1507 12.0728 27.038 11.9541C26.9194 11.8355 26.7355 11.8296 26.6168 11.9423Z" fill="black" />
        <path d="M26.6168 11.9423L27.1664 12.5236L27.1678 12.5223L26.6168 11.9423ZM23.7575 12.666L23.5276 13.4323L23.5402 13.436L23.5528 13.4394L23.7575 12.666ZM23.6982 12.6482L23.9281 11.882L23.9136 11.8776L23.899 11.8738L23.6982 12.6482ZM23.544 13.2177L23.7738 12.4514L23.7594 12.4471L23.7447 12.4433L23.544 13.2177ZM23.6033 13.2355L23.3734 14.0018L23.3843 14.005L23.3953 14.008L23.6033 13.2355ZM27.0262 12.3753L27.5764 12.9561L27.5772 12.9553L27.0262 12.3753ZM27.038 11.9541L27.618 11.4031L27.611 11.3957L27.6037 11.3885L27.038 11.9541ZM26.0673 11.3609C25.5111 11.8867 24.7056 12.0894 23.9622 11.8926L23.5528 13.4394C24.8264 13.7765 26.2039 13.4335 27.1664 12.5236L26.0673 11.3609ZM23.9874 11.8998L23.9281 11.882L23.4683 13.4145L23.5276 13.4323L23.9874 11.8998ZM23.899 11.8738C23.3332 11.7271 22.72 12.0454 22.5619 12.6551L24.1107 13.0566C24.0357 13.3459 23.7428 13.4862 23.4974 13.4226L23.899 11.8738ZM22.5619 12.6551C22.4153 13.2208 22.7335 13.834 23.3432 13.9921L23.7447 12.4433C24.034 12.5183 24.1744 12.8112 24.1107 13.0566L22.5619 12.6551ZM23.3141 13.984L23.3734 14.0018L23.8332 12.4692L23.7738 12.4514L23.3141 13.984ZM23.3953 14.008C23.7705 14.109 24.1548 14.1601 24.5346 14.1601V12.5601C24.2975 12.5601 24.053 12.5281 23.8113 12.463L23.3953 14.008ZM24.5346 14.1601C25.646 14.1601 26.7466 13.7422 27.5764 12.9561L26.476 11.7946C25.9532 12.2898 25.2504 12.5601 24.5346 12.5601V14.1601ZM27.5772 12.9553C28.0123 12.5419 28.0387 11.8459 27.618 11.4031L26.458 12.5051C26.2628 12.2997 26.2773 11.9833 26.4752 11.7953L27.5772 12.9553ZM27.6037 11.3885C27.1959 10.9807 26.5168 10.9339 26.0658 11.3623L27.1678 12.5223C26.9542 12.7252 26.6429 12.6903 26.4723 12.5198L27.6037 11.3885Z" fill="black" mask="url(#path-14-inside-4_1118_14116)" />
    </g>
</svg>
    