<svg width="35" height="36" viewBox="0 0 35 36" fill="none" xmlns="http://www.w3.org/2000/svg">
    <path d="M34.6 18.457C34.6 27.9011 26.9441 35.557 17.5 35.557C8.05593 35.557 0.4 27.9011 0.4 18.457C0.4 9.01296 8.05593 1.35703 17.5 1.35703C26.9441 1.35703 34.6 9.01296 34.6 18.457Z" fill="#1BC321" stroke="black" stroke-width="0.8" />
    <path d="M22.5914 17.6456C22.5914 16.5911 23.4505 15.732 24.505 15.732C25.5654 15.732 26.4185 16.5851 26.4185 17.6456C26.4185 18.7001 25.5595 19.5591 24.505 19.5591C23.4505 19.5591 22.5914 18.7001 22.5914 17.6456Z" fill="black" stroke="black" stroke-width="0.8" />
    <path d="M10.4932 15.732C11.5478 15.732 12.4068 16.5911 12.4068 17.6456C12.4068 18.7008 11.553 19.5591 10.4932 19.5591C9.43873 19.5591 8.57969 18.7001 8.57969 17.6456C8.57969 16.5911 9.43873 15.732 10.4932 15.732Z" fill="black" stroke="black" stroke-width="0.8" />
    <path d="M27.2889 13.6261L27.2902 13.6255L27.2889 13.6261Z" fill="black" stroke="black" stroke-width="0.8" />
    <mask id="path-5-inside-1_1118_14080" fill="white">
        <path d="M10.1736 12.0668C10.3279 12.0194 10.4228 11.8533 10.3694 11.699C10.322 11.5448 10.1618 11.4499 10.0016 11.5033C8.16264 12.055 7.48042 13.4609 7.45076 13.5202C7.37957 13.6685 7.44482 13.8465 7.59313 13.9177C7.63465 13.9355 7.67619 13.9473 7.71772 13.9473C7.83043 13.9473 7.9372 13.8821 7.98466 13.7753C7.99652 13.7575 8.58381 12.5414 10.1736 12.0668Z" />
    </mask>
    <path d="M10.1736 12.0668C10.3279 12.0194 10.4228 11.8533 10.3694 11.699C10.322 11.5448 10.1618 11.4499 10.0016 11.5033C8.16264 12.055 7.48042 13.4609 7.45076 13.5202C7.37957 13.6685 7.44482 13.8465 7.59313 13.9177C7.63465 13.9355 7.67619 13.9473 7.71772 13.9473C7.83043 13.9473 7.9372 13.8821 7.98466 13.7753C7.99652 13.7575 8.58381 12.5414 10.1736 12.0668Z" fill="black" />
    <path d="M10.1736 12.0668L10.4025 12.8334L10.4089 12.8314L10.1736 12.0668ZM10.3694 11.699L9.60479 11.9343L9.60888 11.9476L9.61342 11.9607L10.3694 11.699ZM10.0016 11.5033L10.2315 12.2695L10.2431 12.266L10.2546 12.2622L10.0016 11.5033ZM7.45076 13.5202L6.73513 13.1624L6.72954 13.174L7.45076 13.5202ZM7.59313 13.9177L7.24694 14.6389L7.26232 14.6463L7.27799 14.653L7.59313 13.9177ZM7.98466 13.7753L7.31901 13.3315L7.28125 13.3882L7.25361 13.4504L7.98466 13.7753ZM10.4089 12.8314C10.9526 12.6642 11.3413 12.061 11.1254 11.4373L9.61342 11.9607C9.50433 11.6456 9.70316 11.3746 9.93837 11.3022L10.4089 12.8314ZM11.134 11.4638C10.9672 10.9217 10.3749 10.5356 9.74864 10.7443L10.2546 12.2622C9.94872 12.3642 9.67667 12.1679 9.60479 11.9343L11.134 11.4638ZM9.77174 10.737C8.69337 11.0605 7.94708 11.6378 7.46611 12.147C7.22632 12.4009 7.05175 12.6384 6.93282 12.8211C6.87323 12.9126 6.82733 12.9908 6.79396 13.0509C6.77726 13.081 6.76378 13.1065 6.75338 13.1266C6.74818 13.1366 6.74388 13.1451 6.74047 13.1519C6.73919 13.1545 6.73254 13.1678 6.73522 13.1624L8.1663 13.878C8.16753 13.8755 8.20035 13.8067 8.27366 13.6941C8.34845 13.5793 8.46493 13.4197 8.62927 13.2457C8.95658 12.8992 9.47088 12.4977 10.2315 12.2695L9.77174 10.737ZM6.72954 13.174C6.46171 13.732 6.71178 14.382 7.24694 14.6389L7.93931 13.1965C8.17787 13.311 8.29744 13.605 8.17198 13.8664L6.72954 13.174ZM7.27799 14.653C7.37218 14.6934 7.52638 14.7473 7.71772 14.7473V13.1473C7.826 13.1473 7.89712 13.1776 7.90826 13.1824L7.27799 14.653ZM7.71772 14.7473C8.13304 14.7473 8.53443 14.5081 8.7157 14.1002L7.25361 13.4504C7.33996 13.2561 7.52782 13.1473 7.71772 13.1473V14.7473ZM8.6503 14.2191C8.69477 14.1523 9.13462 13.2119 10.4025 12.8334L9.94481 11.3002C8.033 11.8709 7.29827 13.3627 7.31901 13.3315L8.6503 14.2191Z" fill="black" mask="url(#path-5-inside-1_1118_14080)" />
    <path d="M22.6299 24.5055C22.6143 24.5364 22.598 24.5683 22.5809 24.6012C22.3777 24.9918 22.0681 25.5111 21.6427 26.0285C20.7897 27.0659 19.5041 28.0597 17.696 28.0597C15.5524 28.0597 14.1721 27.0473 13.3153 26.0256C12.8847 25.512 12.5878 24.9969 12.3985 24.61C12.3809 24.574 12.3642 24.5391 12.3484 24.5055H22.6299Z" fill="black" stroke="black" stroke-width="0.8" />
    <path opacity="0.38" d="M22.5914 17.6456C22.5914 16.5911 23.4505 15.732 24.505 15.732C25.5654 15.732 26.4185 16.5851 26.4185 17.6456C26.4185 18.7001 25.5595 19.5591 24.505 19.5591C23.4505 19.5591 22.5914 18.7001 22.5914 17.6456Z" fill="black" stroke="black" stroke-width="0.8" />
    <path opacity="0.38" d="M10.4932 15.732C11.5478 15.732 12.4068 16.5911 12.4068 17.6456C12.4068 18.7008 11.553 19.5591 10.4932 19.5591C9.43873 19.5591 8.57969 18.7001 8.57969 17.6456C8.57969 16.5911 9.43873 15.732 10.4932 15.732Z" fill="black" stroke="black" stroke-width="0.8" />
    <path opacity="0.38" d="M27.2889 13.6261L27.2902 13.6255L27.2889 13.6261Z" fill="black" stroke="black" stroke-width="0.8" />
    <g opacity="0.38">
        <mask id="path-11-inside-2_1118_14080" fill="white">
            <path d="M10.1736 12.0668C10.3279 12.0194 10.4228 11.8533 10.3694 11.699C10.322 11.5448 10.1618 11.4499 10.0016 11.5033C8.16264 12.055 7.48042 13.4609 7.45076 13.5202C7.37957 13.6685 7.44482 13.8465 7.59313 13.9177C7.63465 13.9355 7.67619 13.9473 7.71772 13.9473C7.83043 13.9473 7.9372 13.8821 7.98466 13.7753C7.99652 13.7575 8.58381 12.5414 10.1736 12.0668Z" />
        </mask>
        <path d="M10.1736 12.0668C10.3279 12.0194 10.4228 11.8533 10.3694 11.699C10.322 11.5448 10.1618 11.4499 10.0016 11.5033C8.16264 12.055 7.48042 13.4609 7.45076 13.5202C7.37957 13.6685 7.44482 13.8465 7.59313 13.9177C7.63465 13.9355 7.67619 13.9473 7.71772 13.9473C7.83043 13.9473 7.9372 13.8821 7.98466 13.7753C7.99652 13.7575 8.58381 12.5414 10.1736 12.0668Z" fill="black" />
        <path d="M10.1736 12.0668L10.4025 12.8334L10.4089 12.8314L10.1736 12.0668ZM10.3694 11.699L9.60479 11.9343L9.60888 11.9476L9.61342 11.9607L10.3694 11.699ZM10.0016 11.5033L10.2315 12.2695L10.2431 12.266L10.2546 12.2622L10.0016 11.5033ZM7.45076 13.5202L6.73513 13.1624L6.72954 13.174L7.45076 13.5202ZM7.59313 13.9177L7.24694 14.6389L7.26232 14.6463L7.27799 14.653L7.59313 13.9177ZM7.98466 13.7753L7.31901 13.3315L7.28125 13.3882L7.25361 13.4504L7.98466 13.7753ZM10.4089 12.8314C10.9526 12.6642 11.3413 12.061 11.1254 11.4373L9.61342 11.9607C9.50433 11.6456 9.70316 11.3746 9.93837 11.3022L10.4089 12.8314ZM11.134 11.4638C10.9672 10.9217 10.3749 10.5356 9.74864 10.7443L10.2546 12.2622C9.94872 12.3642 9.67667 12.1679 9.60479 11.9343L11.134 11.4638ZM9.77174 10.737C8.69337 11.0605 7.94708 11.6378 7.46611 12.147C7.22632 12.4009 7.05175 12.6384 6.93282 12.8211C6.87323 12.9126 6.82733 12.9908 6.79396 13.0509C6.77726 13.081 6.76378 13.1065 6.75338 13.1266C6.74818 13.1366 6.74388 13.1451 6.74047 13.1519C6.73919 13.1545 6.73254 13.1678 6.73522 13.1624L8.1663 13.878C8.16753 13.8755 8.20035 13.8067 8.27366 13.6941C8.34845 13.5793 8.46493 13.4197 8.62927 13.2457C8.95658 12.8992 9.47088 12.4977 10.2315 12.2695L9.77174 10.737ZM6.72954 13.174C6.46171 13.732 6.71178 14.382 7.24694 14.6389L7.93931 13.1965C8.17787 13.311 8.29744 13.605 8.17198 13.8664L6.72954 13.174ZM7.27799 14.653C7.37218 14.6934 7.52638 14.7473 7.71772 14.7473V13.1473C7.826 13.1473 7.89712 13.1776 7.90826 13.1824L7.27799 14.653ZM7.71772 14.7473C8.13304 14.7473 8.53443 14.5081 8.7157 14.1002L7.25361 13.4504C7.33996 13.2561 7.52782 13.1473 7.71772 13.1473V14.7473ZM8.6503 14.2191C8.69477 14.1523 9.13462 13.2119 10.4025 12.8334L9.94481 11.3002C8.033 11.8709 7.29827 13.3627 7.31901 13.3315L8.6503 14.2191Z" fill="black" mask="url(#path-11-inside-2_1118_14080)" />
    </g>
    <path opacity="0.38" d="M22.6299 24.5055C22.6143 24.5364 22.598 24.5683 22.5809 24.6012C22.3777 24.9918 22.0681 25.5111 21.6427 26.0285C20.7897 27.0659 19.5041 28.0597 17.696 28.0597C15.5524 28.0597 14.1721 27.0473 13.3153 26.0256C12.8847 25.512 12.5878 24.9969 12.3985 24.61C12.3809 24.574 12.3642 24.5391 12.3484 24.5055H22.6299Z" fill="black" stroke="black" stroke-width="0.8" />
</svg>
    