<svg width="35" height="36" viewBox="0 0 35 36" fill="none" xmlns="http://www.w3.org/2000/svg">
    <path d="M34.6 18.457C34.6 27.9011 26.9441 35.557 17.5 35.557C8.05593 35.557 0.4 27.9011 0.4 18.457C0.4 9.01296 8.05593 1.35703 17.5 1.35703C26.9441 1.35703 34.6 9.01296 34.6 18.457Z" fill="#FFE04E" stroke="black" stroke-width="0.8" />
    <path d="M22.5914 17.6456C22.5914 16.5911 23.4505 15.732 24.505 15.732C25.5601 15.732 26.4185 16.5858 26.4185 17.6456C26.4185 18.7001 25.5595 19.5591 24.505 19.5591C23.4505 19.5591 22.5914 18.7001 22.5914 17.6456Z" fill="black" stroke="black" stroke-width="0.8" />
    <path d="M8.57969 17.6456C8.57969 16.5911 9.43873 15.732 10.4932 15.732C11.5484 15.732 12.4068 16.5858 12.4068 17.6456C12.4068 18.7001 11.5478 19.5591 10.4932 19.5591C9.43873 19.5591 8.57969 18.7001 8.57969 17.6456Z" fill="black" stroke="black" stroke-width="0.8" />
    <mask id="path-4-inside-1_1118_14104" fill="white">
        <path d="M8.38214 13.5987C8.39401 13.5928 9.41434 12.697 11.0516 12.8572C11.2177 12.875 11.3601 12.7564 11.3779 12.5903C11.3957 12.4242 11.2771 12.2818 11.1109 12.264C9.19485 12.0623 8.03214 13.1123 7.98468 13.1538C7.86604 13.2665 7.85418 13.4504 7.96689 13.575C8.02621 13.6403 8.10333 13.6699 8.18638 13.6699C8.25163 13.6759 8.32282 13.6521 8.38214 13.5987Z" />
    </mask>
    <path d="M8.38214 13.5987C8.39401 13.5928 9.41434 12.697 11.0516 12.8572C11.2177 12.875 11.3601 12.7564 11.3779 12.5903C11.3957 12.4242 11.2771 12.2818 11.1109 12.264C9.19485 12.0623 8.03214 13.1123 7.98468 13.1538C7.86604 13.2665 7.85418 13.4504 7.96689 13.575C8.02621 13.6403 8.10333 13.6699 8.18638 13.6699C8.25163 13.6759 8.32282 13.6521 8.38214 13.5987Z" fill="black" />
    <path d="M8.38214 13.5987L8.02437 12.8832L7.92748 12.9316L7.84697 13.0041L8.38214 13.5987ZM11.0516 12.8572L11.1369 12.0617L11.1295 12.061L11.0516 12.8572ZM11.1109 12.264L11.1962 11.4685L11.1947 11.4684L11.1109 12.264ZM7.98468 13.1538L7.45788 12.5518L7.44556 12.5625L7.43368 12.5738L7.98468 13.1538ZM7.96689 13.575L7.37366 14.1117L7.37494 14.1131L7.96689 13.575ZM8.18638 13.6699L8.25881 12.8732L8.22267 12.8699H8.18638V13.6699ZM8.73991 14.3143C8.78034 14.2941 8.81001 14.2748 8.81892 14.269C8.83191 14.2605 8.84207 14.2534 8.84766 14.2494C8.85887 14.2414 8.86753 14.2347 8.87092 14.2321C8.87835 14.2264 8.88456 14.2214 8.88614 14.2202C8.88858 14.2182 8.89115 14.2162 8.89247 14.2151C8.89417 14.2137 8.89556 14.2126 8.89708 14.2114C8.9026 14.2069 8.91016 14.2009 8.92029 14.1931C8.94067 14.1775 8.97384 14.1529 9.01916 14.1226C9.11027 14.0615 9.24982 13.9777 9.43183 13.8969C9.79484 13.7358 10.3202 13.5895 10.9737 13.6534L11.1295 12.061C10.1458 11.9648 9.34232 12.1862 8.78288 12.4344C8.50366 12.5583 8.28356 12.6895 8.12886 12.7931C8.05127 12.8451 7.98999 12.8902 7.9459 12.9241C7.9238 12.941 7.90663 12.9547 7.89509 12.964C7.89236 12.9662 7.88996 12.9681 7.88836 12.9694C7.88639 12.971 7.88614 12.9712 7.88625 12.9711C7.88641 12.971 7.88726 12.9703 7.88854 12.9693C7.88966 12.9684 7.89235 12.9663 7.89595 12.9635C7.89866 12.9614 7.90677 12.9552 7.91755 12.9475C7.92292 12.9437 7.93289 12.9366 7.94573 12.9283C7.95449 12.9226 7.98403 12.9034 8.02437 12.8832L8.73991 14.3143ZM10.9664 13.6527C11.5865 13.7191 12.1101 13.2661 12.1734 12.6755L10.5825 12.505C10.6101 12.2466 10.849 12.0309 11.1369 12.0618L10.9664 13.6527ZM12.1734 12.6755C12.2398 12.0554 11.7868 11.5318 11.1962 11.4685L11.0257 13.0594C10.7673 13.0318 10.5516 12.7929 10.5825 12.505L12.1734 12.6755ZM11.1947 11.4684C10.0697 11.35 9.15723 11.5994 8.5174 11.8888C8.19853 12.033 7.94665 12.1873 7.76741 12.3118C7.6776 12.3742 7.6056 12.4294 7.55212 12.4724C7.52535 12.494 7.50337 12.5124 7.48631 12.527C7.47037 12.5407 7.45536 12.554 7.45788 12.5518L8.51149 13.7559C8.51489 13.7529 8.57054 13.7021 8.68006 13.626C8.79205 13.5482 8.9595 13.4449 9.17675 13.3466C9.60916 13.151 10.2361 12.9763 11.0272 13.0596L11.1947 11.4684ZM7.43368 12.5738C7.01236 12.9741 6.95849 13.6529 7.37366 14.1117L8.56012 13.0383C8.74986 13.248 8.71972 13.559 8.53568 13.7338L7.43368 12.5738ZM7.37494 14.1131C7.60035 14.3611 7.90039 14.4699 8.18638 14.4699V12.8699C8.24063 12.8699 8.30719 12.8798 8.37753 12.9094C8.44922 12.9395 8.51106 12.9843 8.55884 13.0369L7.37494 14.1131ZM8.11395 14.4666C8.42428 14.4948 8.71061 14.3794 8.91731 14.1934L7.84697 13.0041C7.93503 12.9248 8.07898 12.8569 8.25881 12.8732L8.11395 14.4666Z" fill="black" mask="url(#path-4-inside-1_1118_14104)" />
    <path d="M26.8862 13.3079L26.886 13.3081C26.8852 13.3074 26.8843 13.3066 26.8835 13.3059C26.8829 13.3054 26.8824 13.3049 26.8818 13.3044C26.8824 13.3049 26.883 13.3053 26.8836 13.3058C26.8847 13.3066 26.8856 13.3074 26.8862 13.3079Z" fill="black" stroke="black" stroke-width="0.8" />
    <path d="M14.4859 25.5895H20.5071C20.5319 25.5895 20.552 25.6086 20.552 25.6344C20.552 25.6434 20.5485 25.6547 20.5379 25.6652C20.5274 25.6757 20.5162 25.6793 20.5071 25.6793H14.4859C14.4769 25.6793 14.4656 25.6757 14.4551 25.6652C14.4446 25.6547 14.441 25.6434 14.441 25.6344C14.441 25.6253 14.4446 25.6141 14.4551 25.6035C14.4656 25.593 14.4769 25.5895 14.4859 25.5895Z" fill="black" stroke="black" stroke-width="0.8" />
    <path opacity="0.38" d="M22.5914 17.6456C22.5914 16.5911 23.4505 15.732 24.505 15.732C25.5601 15.732 26.4185 16.5858 26.4185 17.6456C26.4185 18.7001 25.5595 19.5591 24.505 19.5591C23.4505 19.5591 22.5914 18.7001 22.5914 17.6456Z" fill="black" stroke="black" stroke-width="0.8" />
    <path opacity="0.38" d="M8.57969 17.6456C8.57969 16.5911 9.43873 15.732 10.4932 15.732C11.5484 15.732 12.4068 16.5858 12.4068 17.6456C12.4068 18.7001 11.5478 19.5591 10.4932 19.5591C9.43873 19.5591 8.57969 18.7001 8.57969 17.6456Z" fill="black" stroke="black" stroke-width="0.8" />
    <g opacity="0.38">
        <mask id="path-10-inside-2_1118_14104" fill="white">
            <path d="M8.38214 13.5987C8.39401 13.5928 9.41434 12.697 11.0516 12.8572C11.2177 12.875 11.3601 12.7564 11.3779 12.5903C11.3957 12.4242 11.2771 12.2818 11.1109 12.264C9.19485 12.0623 8.03214 13.1123 7.98468 13.1538C7.86604 13.2665 7.85418 13.4504 7.96689 13.575C8.02621 13.6403 8.10333 13.6699 8.18638 13.6699C8.25163 13.6759 8.32282 13.6521 8.38214 13.5987Z" />
        </mask>
        <path d="M8.38214 13.5987C8.39401 13.5928 9.41434 12.697 11.0516 12.8572C11.2177 12.875 11.3601 12.7564 11.3779 12.5903C11.3957 12.4242 11.2771 12.2818 11.1109 12.264C9.19485 12.0623 8.03214 13.1123 7.98468 13.1538C7.86604 13.2665 7.85418 13.4504 7.96689 13.575C8.02621 13.6403 8.10333 13.6699 8.18638 13.6699C8.25163 13.6759 8.32282 13.6521 8.38214 13.5987Z" fill="black" />
        <path d="M8.38214 13.5987L8.02437 12.8832L7.92748 12.9316L7.84697 13.0041L8.38214 13.5987ZM11.0516 12.8572L11.1369 12.0617L11.1295 12.061L11.0516 12.8572ZM11.1109 12.264L11.1962 11.4685L11.1947 11.4684L11.1109 12.264ZM7.98468 13.1538L7.45788 12.5518L7.44556 12.5625L7.43368 12.5738L7.98468 13.1538ZM7.96689 13.575L7.37366 14.1117L7.37494 14.1131L7.96689 13.575ZM8.18638 13.6699L8.25881 12.8732L8.22267 12.8699H8.18638V13.6699ZM8.73991 14.3143C8.78034 14.2941 8.81001 14.2748 8.81892 14.269C8.83191 14.2605 8.84207 14.2534 8.84766 14.2494C8.85887 14.2414 8.86753 14.2347 8.87092 14.2321C8.87835 14.2264 8.88456 14.2214 8.88614 14.2202C8.88858 14.2182 8.89115 14.2162 8.89247 14.2151C8.89417 14.2137 8.89556 14.2126 8.89708 14.2114C8.9026 14.2069 8.91016 14.2009 8.92029 14.1931C8.94067 14.1775 8.97384 14.1529 9.01916 14.1226C9.11027 14.0615 9.24982 13.9777 9.43183 13.8969C9.79484 13.7358 10.3202 13.5895 10.9737 13.6534L11.1295 12.061C10.1458 11.9648 9.34232 12.1862 8.78288 12.4344C8.50366 12.5583 8.28356 12.6895 8.12886 12.7931C8.05127 12.8451 7.98999 12.8902 7.9459 12.9241C7.9238 12.941 7.90663 12.9547 7.89509 12.964C7.89236 12.9662 7.88996 12.9681 7.88836 12.9694C7.88639 12.971 7.88614 12.9712 7.88625 12.9711C7.88641 12.971 7.88726 12.9703 7.88854 12.9693C7.88966 12.9684 7.89235 12.9663 7.89595 12.9635C7.89866 12.9614 7.90677 12.9552 7.91755 12.9475C7.92292 12.9437 7.93289 12.9366 7.94573 12.9283C7.95449 12.9226 7.98403 12.9034 8.02437 12.8832L8.73991 14.3143ZM10.9664 13.6527C11.5865 13.7191 12.1101 13.2661 12.1734 12.6755L10.5825 12.505C10.6101 12.2466 10.849 12.0309 11.1369 12.0618L10.9664 13.6527ZM12.1734 12.6755C12.2398 12.0554 11.7868 11.5318 11.1962 11.4685L11.0257 13.0594C10.7673 13.0318 10.5516 12.7929 10.5825 12.505L12.1734 12.6755ZM11.1947 11.4684C10.0697 11.35 9.15723 11.5994 8.5174 11.8888C8.19853 12.033 7.94665 12.1873 7.76741 12.3118C7.6776 12.3742 7.6056 12.4294 7.55212 12.4724C7.52535 12.494 7.50337 12.5124 7.48631 12.527C7.47037 12.5407 7.45536 12.554 7.45788 12.5518L8.51149 13.7559C8.51489 13.7529 8.57054 13.7021 8.68006 13.626C8.79205 13.5482 8.9595 13.4449 9.17675 13.3466C9.60916 13.151 10.2361 12.9763 11.0272 13.0596L11.1947 11.4684ZM7.43368 12.5738C7.01236 12.9741 6.95849 13.6529 7.37366 14.1117L8.56012 13.0383C8.74986 13.248 8.71972 13.559 8.53568 13.7338L7.43368 12.5738ZM7.37494 14.1131C7.60035 14.3611 7.90039 14.4699 8.18638 14.4699V12.8699C8.24063 12.8699 8.30719 12.8798 8.37753 12.9094C8.44922 12.9395 8.51106 12.9843 8.55884 13.0369L7.37494 14.1131ZM8.11395 14.4666C8.42428 14.4948 8.71061 14.3794 8.91731 14.1934L7.84697 13.0041C7.93503 12.9248 8.07898 12.8569 8.25881 12.8732L8.11395 14.4666Z" fill="black" mask="url(#path-10-inside-2_1118_14104)" />
    </g>
    <path opacity="0.38" d="M26.8862 13.3079L26.886 13.3081C26.8852 13.3074 26.8843 13.3066 26.8835 13.3059C26.8829 13.3054 26.8824 13.3049 26.8818 13.3044C26.8824 13.3049 26.883 13.3053 26.8836 13.3058C26.8847 13.3066 26.8856 13.3074 26.8862 13.3079Z" fill="black" stroke="black" stroke-width="0.8" />
    <path opacity="0.38" d="M14.4859 25.5895H20.5071C20.5319 25.5895 20.552 25.6086 20.552 25.6344C20.552 25.6434 20.5485 25.6547 20.5379 25.6652C20.5274 25.6757 20.5162 25.6793 20.5071 25.6793H14.4859C14.4769 25.6793 14.4656 25.6757 14.4551 25.6652C14.4446 25.6547 14.441 25.6434 14.441 25.6344C14.441 25.6253 14.4446 25.6141 14.4551 25.6035C14.4656 25.593 14.4769 25.5895 14.4859 25.5895Z" fill="black" stroke="black" stroke-width="0.8" />
</svg>
    