<svg width="35" height="36" viewBox="0 0 35 36" fill="none" xmlns="http://www.w3.org/2000/svg">
    <path d="M34.6 18.457C34.6 27.9011 26.9441 35.557 17.5 35.557C8.05593 35.557 0.4 27.9011 0.4 18.457C0.4 9.01296 8.05593 1.35703 17.5 1.35703C26.9441 1.35703 34.6 9.01296 34.6 18.457Z" fill="#FF704E" stroke="black" stroke-width="0.8" />
    <path d="M9.83089 15.8234C10.5032 16.3982 11.3603 16.9604 12.3598 17.2414L12.4067 17.5701C12.408 17.5789 12.4086 17.592 12.4086 17.6381C12.4086 18.6992 11.5548 19.5517 10.501 19.5517C9.44055 19.5517 8.58743 18.6986 8.58743 17.6381C8.58743 16.9277 8.97365 16.3102 9.55358 15.9809L9.83089 15.8234Z" fill="black" stroke="black" stroke-width="0.8" />
    <path d="M22.9242 26.4541L22.9244 26.454L22.9179 26.4437L22.9174 26.4427L22.9155 26.4397L22.9092 26.4295L22.8891 26.3977C22.8727 26.372 22.8507 26.3384 22.8228 26.298C22.7671 26.2173 22.6884 26.1099 22.5852 25.9852C22.3789 25.7359 22.0736 25.416 21.657 25.1001C20.8198 24.4652 19.5412 23.8531 17.738 23.8531C13.8285 23.8531 12.2186 26.2305 12.0772 26.4621C12.0615 26.4854 12.0348 26.4873 12.0187 26.4772C12.0046 26.4683 11.9962 26.4554 11.9931 26.4428C11.9902 26.4313 11.9923 26.4239 11.9962 26.4177L11.9964 26.4174C12.0506 26.3313 13.6688 23.7633 17.738 23.7633C21.4663 23.7633 22.963 26.3467 23.0037 26.4171L23.0044 26.4182C23.0151 26.4365 23.0088 26.4614 22.9896 26.4721L22.9895 26.472L22.9823 26.4762C22.9788 26.4782 22.9766 26.4792 22.9755 26.4797L22.9737 26.4804L22.9718 26.4807C22.9705 26.4809 22.9682 26.4811 22.9643 26.4811C22.9539 26.4811 22.9364 26.475 22.9242 26.4541Z" fill="black" stroke="black" stroke-width="0.8" />
    <path d="M22.5976 17.3544C23.6532 17.0646 24.5548 16.4655 25.2516 15.8599L25.5079 16.0155C26.0568 16.3488 26.4188 16.951 26.4188 17.6372C26.4188 18.6976 25.5657 19.5507 24.5053 19.5507C23.4514 19.5507 22.5976 18.6983 22.5976 17.6372V17.6134V17.3544Z" fill="black" stroke="black" stroke-width="0.8" />
    <path opacity="0.38" d="M9.83089 15.8234C10.5032 16.3982 11.3603 16.9604 12.3598 17.2414L12.4067 17.5701C12.408 17.5789 12.4086 17.592 12.4086 17.6381C12.4086 18.6992 11.5548 19.5517 10.501 19.5517C9.44055 19.5517 8.58743 18.6986 8.58743 17.6381C8.58743 16.9277 8.97365 16.3102 9.55358 15.9809L9.83089 15.8234Z" fill="black" stroke="black" stroke-width="0.8" />
    <path opacity="0.38" d="M22.9242 26.4541L22.9244 26.454L22.9179 26.4437L22.9174 26.4427L22.9155 26.4397L22.9092 26.4295L22.8891 26.3977C22.8727 26.372 22.8507 26.3384 22.8228 26.298C22.7671 26.2173 22.6884 26.1099 22.5852 25.9852C22.3789 25.7359 22.0736 25.416 21.657 25.1001C20.8198 24.4652 19.5412 23.8531 17.738 23.8531C13.8285 23.8531 12.2186 26.2305 12.0772 26.4621C12.0615 26.4854 12.0348 26.4873 12.0187 26.4772C12.0046 26.4683 11.9962 26.4554 11.9931 26.4428C11.9902 26.4313 11.9923 26.4239 11.9962 26.4177L11.9964 26.4174C12.0506 26.3313 13.6688 23.7633 17.738 23.7633C21.4663 23.7633 22.963 26.3467 23.0037 26.4171L23.0044 26.4182C23.0151 26.4365 23.0088 26.4614 22.9896 26.4721L22.9895 26.472L22.9823 26.4762C22.9788 26.4782 22.9766 26.4792 22.9755 26.4797L22.9737 26.4804L22.9718 26.4807C22.9705 26.4809 22.9682 26.4811 22.9643 26.4811C22.9539 26.4811 22.9364 26.475 22.9242 26.4541Z" fill="black" stroke="black" stroke-width="0.8" />
    <path opacity="0.38" d="M22.5976 17.3544C23.6532 17.0646 24.5548 16.4655 25.2516 15.8599L25.5079 16.0155C26.0568 16.3488 26.4188 16.951 26.4188 17.6372C26.4188 18.6976 25.5657 19.5507 24.5053 19.5507C23.4514 19.5507 22.5976 18.6983 22.5976 17.6372V17.6134V17.3544Z" fill="black" stroke="black" stroke-width="0.8" />
</svg>
    