<svg width="35" height="36" viewBox="0 0 35 36" fill="none" xmlns="http://www.w3.org/2000/svg">
    <path d="M34.6 18.457C34.6 27.9011 26.9441 35.557 17.5 35.557C8.05593 35.557 0.4 27.9011 0.4 18.457C0.4 9.01296 8.05593 1.35703 17.5 1.35703C26.9441 1.35703 34.6 9.01296 34.6 18.457Z" fill="#F2FE68" stroke="black" stroke-width="0.8" />
    <path d="M22.5855 17.6456C22.5855 16.5911 23.4446 15.732 24.4991 15.732C25.5596 15.732 26.4127 16.5851 26.4127 17.6456C26.4127 18.7001 25.5536 19.5591 24.4991 19.5591C23.4446 19.5591 22.5855 18.7001 22.5855 17.6456Z" fill="black" stroke="black" stroke-width="0.8" />
    <path d="M8.57969 17.6456C8.57969 16.5911 9.43873 15.732 10.4932 15.732C11.5484 15.732 12.4068 16.5858 12.4068 17.6456C12.4068 18.7001 11.5478 19.5591 10.4932 19.5591C9.43873 19.5591 8.57969 18.7001 8.57969 17.6456Z" fill="black" stroke="black" stroke-width="0.8" />
    <mask id="path-4-inside-1_1118_14092" fill="white">
        <path d="M8.37627 13.5975C8.38814 13.5856 9.40848 12.6898 11.0458 12.8559C11.1941 12.8737 11.3542 12.7551 11.372 12.589C11.3898 12.4288 11.2712 12.2805 11.1051 12.2627C9.20085 12.0669 8.02628 13.111 7.97882 13.1525C7.86018 13.2652 7.84832 13.4491 7.96103 13.5737C8.02035 13.639 8.09747 13.6686 8.18052 13.6686C8.2517 13.6746 8.32288 13.6508 8.37627 13.5975Z" />
    </mask>
    <path d="M8.37627 13.5975C8.38814 13.5856 9.40848 12.6898 11.0458 12.8559C11.1941 12.8737 11.3542 12.7551 11.372 12.589C11.3898 12.4288 11.2712 12.2805 11.1051 12.2627C9.20085 12.0669 8.02628 13.111 7.97882 13.1525C7.86018 13.2652 7.84832 13.4491 7.96103 13.5737C8.02035 13.639 8.09747 13.6686 8.18052 13.6686C8.2517 13.6746 8.32288 13.6508 8.37627 13.5975Z" fill="black" />
    <path d="M11.0458 12.8559L11.1411 12.0616L11.1338 12.0608L11.1265 12.06L11.0458 12.8559ZM11.372 12.589L10.5769 12.5006L10.5766 12.5038L11.372 12.589ZM11.1051 12.2627L11.1903 11.4673L11.1869 11.4669L11.1051 12.2627ZM7.97882 13.1525L7.45202 12.5505L7.4397 12.5613L7.42783 12.5725L7.97882 13.1525ZM7.96103 13.5737L7.3678 14.1105L7.36908 14.1119L7.96103 13.5737ZM8.18052 13.6686L8.24695 12.8714L8.21379 12.8686H8.18052V13.6686ZM8.94196 14.1631C8.85184 14.2533 9.64839 13.5183 10.965 13.6518L11.1265 12.06C9.16856 11.8614 7.92444 12.9179 7.81059 13.0318L8.94196 14.1631ZM10.9504 13.6502C11.5382 13.7208 12.1019 13.2867 12.1675 12.6742L10.5766 12.5038C10.5932 12.349 10.674 12.2334 10.7609 12.1645C10.8436 12.0989 10.9751 12.0417 11.1411 12.0616L10.9504 13.6502ZM12.1672 12.6773C12.2348 12.0684 11.7885 11.5313 11.1903 11.4673L11.0199 13.0582C10.7539 13.0297 10.5449 12.7892 10.5769 12.5006L12.1672 12.6773ZM11.1869 11.4669C10.0682 11.3519 9.15693 11.6015 8.51758 11.889C8.19875 12.0324 7.94634 12.1856 7.76658 12.309C7.67652 12.3709 7.60422 12.4256 7.55046 12.4684C7.52354 12.4899 7.50136 12.5082 7.48403 12.5229C7.47536 12.5302 7.46806 12.5365 7.46218 12.5416C7.45691 12.5462 7.45135 12.5511 7.45202 12.5505L8.50563 13.7546C8.50846 13.7521 8.52107 13.7408 8.5469 13.7203C8.57389 13.6988 8.61602 13.6667 8.6725 13.6279C8.78583 13.55 8.95498 13.4466 9.17375 13.3483C9.60961 13.1523 10.2377 12.9778 11.0233 13.0585L11.1869 11.4669ZM7.42783 12.5725C7.0065 12.9728 6.95263 13.6516 7.3678 14.1105L8.55426 13.037C8.744 13.2467 8.71386 13.5577 8.52982 13.7325L7.42783 12.5725ZM7.36908 14.1119C7.59449 14.3598 7.89453 14.4686 8.18052 14.4686V12.8686C8.23478 12.8686 8.30133 12.8785 8.37167 12.9081C8.44336 12.9382 8.5052 12.983 8.55298 13.0356L7.36908 14.1119ZM8.11408 14.4659C8.40854 14.4904 8.71436 14.3907 8.94196 14.1631L7.81059 13.0318C7.9314 12.9109 8.09487 12.8587 8.24695 12.8714L8.11408 14.4659Z" fill="black" mask="url(#path-4-inside-1_1118_14092)" />
    <path d="M26.8862 13.3067L26.886 13.3069C26.8852 13.3061 26.8843 13.3054 26.8835 13.3046C26.8829 13.3041 26.8824 13.3036 26.8818 13.3031C26.8824 13.3036 26.883 13.3041 26.8836 13.3045C26.8847 13.3054 26.8856 13.3061 26.8862 13.3067Z" fill="black" stroke="black" stroke-width="0.8" />
    <path d="M20.7123 25.3883C20.5819 25.6249 20.4014 25.9117 20.1676 26.197C19.6105 26.8769 18.7832 27.5129 17.625 27.5129C16.2383 27.5129 15.349 26.8584 14.7938 26.1941C14.5557 25.9092 14.3803 25.6231 14.2571 25.3883H20.7123Z" fill="black" stroke="black" stroke-width="0.8" />
    <path opacity="0.38" d="M22.5855 17.6456C22.5855 16.5911 23.4446 15.732 24.4991 15.732C25.5596 15.732 26.4127 16.5851 26.4127 17.6456C26.4127 18.7001 25.5536 19.5591 24.4991 19.5591C23.4446 19.5591 22.5855 18.7001 22.5855 17.6456Z" fill="black" stroke="black" stroke-width="0.8" />
    <path opacity="0.38" d="M8.57969 17.6456C8.57969 16.5911 9.43873 15.732 10.4932 15.732C11.5484 15.732 12.4068 16.5858 12.4068 17.6456C12.4068 18.7001 11.5478 19.5591 10.4932 19.5591C9.43873 19.5591 8.57969 18.7001 8.57969 17.6456Z" fill="black" stroke="black" stroke-width="0.8" />
    <g opacity="0.38">
        <mask id="path-10-inside-2_1118_14092" fill="white">
            <path d="M8.37627 13.5975C8.38814 13.5856 9.40848 12.6898 11.0458 12.8559C11.1941 12.8737 11.3542 12.7551 11.372 12.589C11.3898 12.4288 11.2712 12.2805 11.1051 12.2627C9.20085 12.0669 8.02628 13.111 7.97882 13.1525C7.86018 13.2652 7.84832 13.4491 7.96103 13.5737C8.02035 13.639 8.09747 13.6686 8.18052 13.6686C8.2517 13.6746 8.32288 13.6508 8.37627 13.5975Z" />
        </mask>
        <path d="M8.37627 13.5975C8.38814 13.5856 9.40848 12.6898 11.0458 12.8559C11.1941 12.8737 11.3542 12.7551 11.372 12.589C11.3898 12.4288 11.2712 12.2805 11.1051 12.2627C9.20085 12.0669 8.02628 13.111 7.97882 13.1525C7.86018 13.2652 7.84832 13.4491 7.96103 13.5737C8.02035 13.639 8.09747 13.6686 8.18052 13.6686C8.2517 13.6746 8.32288 13.6508 8.37627 13.5975Z" fill="black" />
        <path d="M11.0458 12.8559L11.1411 12.0616L11.1338 12.0608L11.1265 12.06L11.0458 12.8559ZM11.372 12.589L10.5769 12.5006L10.5766 12.5038L11.372 12.589ZM11.1051 12.2627L11.1903 11.4673L11.1869 11.4669L11.1051 12.2627ZM7.97882 13.1525L7.45202 12.5505L7.4397 12.5613L7.42783 12.5725L7.97882 13.1525ZM7.96103 13.5737L7.3678 14.1105L7.36908 14.1119L7.96103 13.5737ZM8.18052 13.6686L8.24695 12.8714L8.21379 12.8686H8.18052V13.6686ZM8.94196 14.1631C8.85184 14.2533 9.64839 13.5183 10.965 13.6518L11.1265 12.06C9.16856 11.8614 7.92444 12.9179 7.81059 13.0318L8.94196 14.1631ZM10.9504 13.6502C11.5382 13.7208 12.1019 13.2867 12.1675 12.6742L10.5766 12.5038C10.5932 12.349 10.674 12.2334 10.7609 12.1645C10.8436 12.0989 10.9751 12.0417 11.1411 12.0616L10.9504 13.6502ZM12.1672 12.6773C12.2348 12.0684 11.7885 11.5313 11.1903 11.4673L11.0199 13.0582C10.7539 13.0297 10.5449 12.7892 10.5769 12.5006L12.1672 12.6773ZM11.1869 11.4669C10.0682 11.3519 9.15693 11.6015 8.51758 11.889C8.19875 12.0324 7.94634 12.1856 7.76658 12.309C7.67652 12.3709 7.60422 12.4256 7.55046 12.4684C7.52354 12.4899 7.50136 12.5082 7.48403 12.5229C7.47536 12.5302 7.46806 12.5365 7.46218 12.5416C7.45691 12.5462 7.45135 12.5511 7.45202 12.5505L8.50563 13.7546C8.50846 13.7521 8.52107 13.7408 8.5469 13.7203C8.57389 13.6988 8.61602 13.6667 8.6725 13.6279C8.78583 13.55 8.95498 13.4466 9.17375 13.3483C9.60961 13.1523 10.2377 12.9778 11.0233 13.0585L11.1869 11.4669ZM7.42783 12.5725C7.0065 12.9728 6.95263 13.6516 7.3678 14.1105L8.55426 13.037C8.744 13.2467 8.71386 13.5577 8.52982 13.7325L7.42783 12.5725ZM7.36908 14.1119C7.59449 14.3598 7.89453 14.4686 8.18052 14.4686V12.8686C8.23478 12.8686 8.30133 12.8785 8.37167 12.9081C8.44336 12.9382 8.5052 12.983 8.55298 13.0356L7.36908 14.1119ZM8.11408 14.4659C8.40854 14.4904 8.71436 14.3907 8.94196 14.1631L7.81059 13.0318C7.9314 12.9109 8.09487 12.8587 8.24695 12.8714L8.11408 14.4659Z" fill="black" mask="url(#path-10-inside-2_1118_14092)" />
    </g>
    <path opacity="0.38" d="M26.8862 13.3067L26.886 13.3069C26.8852 13.3061 26.8843 13.3054 26.8835 13.3046C26.8829 13.3041 26.8824 13.3036 26.8818 13.3031C26.8824 13.3036 26.883 13.3041 26.8836 13.3045C26.8847 13.3054 26.8856 13.3061 26.8862 13.3067Z" fill="black" stroke="black" stroke-width="0.8" />
    <path opacity="0.38" d="M20.7123 25.3883C20.5819 25.6249 20.4014 25.9117 20.1676 26.197C19.6105 26.8769 18.7832 27.5129 17.625 27.5129C16.2383 27.5129 15.349 26.8584 14.7938 26.1941C14.5557 25.9092 14.3803 25.6231 14.2571 25.3883H20.7123Z" fill="black" stroke="black" stroke-width="0.8" />
</svg>
    