<?xml version="1.0" encoding="utf-8"?>
<!-- Generator: Adobe Illustrator 25.2.0, SVG Export Plug-In . SVG Version: 6.00 Build 0)  -->
<svg version="1.1" id="Layer_1" xmlns="http://www.w3.org/2000/svg" xmlns:xlink="http://www.w3.org/1999/xlink" x="0px" y="0px"
	 viewBox="0 0 1500 1500" style="enable-background:new 0 0 1500 1500;" xml:space="preserve">
<style type="text/css">
	.st0{fill:#FFB8BC;}
	.st1{opacity:0.75;}
	.st2{opacity:0.85;}
</style>
<g>
	<g>
		<path class="st0" d="M514.83,631.93c0,0,0.02,0,0.04,0.01c0.03,0,0.07,0.01,0.12,0.02c0.03,0,0.06,0.01,0.1,0.01
			C515,631.95,514.91,631.93,514.83,631.93z"/>
	</g>
</g>
<g>
	<defs>
		<path id="SVGID_1_" d="M1004.62,725.08c-0.88-0.25-1.85-0.24-2.79-0.25c-10.49-0.19-15.62,7.39-20.23,14.86
			c-2.16,3.49-4.13,6.45-8,7.9c-9.86,3.38-19.86,4.42-30.42,2.41c2.47-4.05,4.54-7.6,6.78-11.06c3.7-5.71,4.89-12.26,5.31-18.74
			c0.64-9.61-12.78-17.12-22.28-11.89c-13.14,7.24-22.1,17.56-11.36,32.61c2.82,3.96,2.07,6.79-1.45,9.55
			c-10.95,8.59-21.62,17.55-32.86,25.72c-9.28,6.71-23.93,6.52-29.32-6.84c-2.44-6.08-5.65-11.89-9.01-17.52
			c-2.16-3.6-0.82-5.18,2.32-6.32c7.06-2.57,13.62-6.18,20.44-9.2c19.89-8.84,36.87-21.87,52.48-36.56
			c15.41-14.51,28.07-31.31,35.21-51.65c6.17-17.59,1.82-32.05-16.56-39.75c-16.35-6.86-32.39-3.03-47.1,4.96
			c-27.89,15.15-48.56,37.71-63.54,65.57c-1.48,2.76-3.25,5.37-4.88,8.04c2.71-11.77,6.03-23.07,10.68-33.95
			c8.49-19.89,15.98-40.42,33.78-54.55c0.8-0.64,1.23-1.47,0.86-2.47c-0.53-1.43-1.76-1.19-2.87-1.02
			c-1.54,0.24-2.61,1.36-3.82,2.26c-12.55,9.43-20.29,22.68-28.02,35.78c-11.13,18.91-16.7,40.08-23.86,60.65
			c-11.27,32.5-16.59,66.15-20.56,100.12c-0.28,2.42-0.06,5.35,3.07,5.79c2.99,0.42,2.84-2.53,3.35-4.37
			c3.7-13.79,7.09-27.67,9.63-41.74c0.82-4.5,2.34-6.7,7.42-4.93c5.89,2.02,11.96,3.16,18.28,1.37c3.28-0.93,5.78,0.48,7.42,3.62
			c3.34,6.32,6.92,12.52,10.24,18.86c3.62,6.92,8.56,11.8,16.91,12.18c7.07,0.31,13.21-2.05,18.87-6.05
			c8.91-6.29,17.8-12.57,26.73-18.8c1.24-0.86,2.4-2.34,4.31-0.78c6.72,5.43,9.03,5.44,15.32-0.93c2.89-2.93,5.68-3.89,9.81-3.89
			c4.91,0,9.83,0.59,14.75,0.34c4.24-0.22,7.88-2.05,11.87-3.2c2.55-0.73,6.9-3.72,9.14-1.46c2.2,2.23,5,2.57,7.65,3.18
			c8.06,1.87,10.25,5.61,6.44,12.89c-4.25,8.14-11.27,13.46-19.68,16.92c-2.95,1.22-6.27,4.18-9.26,1.26
			c-3.03-2.96,0.33-5.77,1.67-8.5c0.94-1.9,1.46-3.84-1.76-3.66c-4.26,0.24-8.22,5.71-8.01,10.85c0.23,5.08,3.38,6.7,7.94,6.65
			c15.38-0.19,26.26-8.36,34.27-20.48c6.39-9.69,3.07-16.02-8.39-18.11c-2.52-0.46-5.25-0.96-5.59-4.52
			c-0.66-7.13,10.54-18.57,17.91-18.15c0.95,0.06,2.02,0.23,2.25-0.96C1006.36,726.07,1005.55,725.33,1004.62,725.08z
			 M833.83,744.03c-0.63,2.05-2.87,2.12-4.79,2.13c-0.57,0.01-1.13,0-1.7,0.01c-4.09,0.26-7.7-1.48-11.37-2.89
			c-1.67-0.64-3.06-1.64-2.63-3.76c0.4-1.96,2-2,3.53-2.05c4.77-0.17,9.39,0.52,13.66,2.71C832.09,741,834.6,741.58,833.83,744.03z
			 M841.4,741.35c-5.8-6.42-13.23-9.1-21.76-8.55c-3.79,0.24-4.2-1.26-3.02-4.26c14.31-35.98,31.67-70.17,60.9-96.56
			c13.87-12.52,29.9-21.69,49.65-21.5c4.41,0.05,8.63,1.01,12.66,2.52c8.32,3.11,11.96,9.25,12.11,21.69
			c-0.37,16.51-8.18,32.14-19.2,46.68c-22.17,29.23-51.45,48.39-85.33,61.22C845.05,743.48,843.25,743.4,841.4,741.35z
			 M932.33,752.4c-1.24,2.61-3.42,4.74-6.19,5.9c-1.49-0.58-2.71-1.47-1.93-2.9c1.25-2.25,1.42-5.85,5.15-5.59
			C930.64,749.9,932.95,751.09,932.33,752.4z M932.31,747.35c-3-2.36,0.28-3.55,1.04-4.89c1.1-1.9,3-3.34,4.43-5.06
			c1.04-1.23,2.61-2.5,0.73-4.29c-1.75-1.69-3.36-1.79-5.4-0.14c-2.52,2.04-3.19,5.42-5.67,7.49c-6.41-8.97-2.76-21.45,7.14-25.08
			c6.37-2.34,12.99,2.44,12.55,9.1c-0.54,8.1-3.65,15.17-8.79,21.42C936.67,747.94,935.05,749.48,932.31,747.35z"/>
	</defs>
	<use xlink:href="#SVGID_1_"  style="overflow:visible;fill:#FFB8BC;"/>
	<clipPath id="SVGID_2_">
		<use xlink:href="#SVGID_1_"  style="overflow:visible;"/>
	</clipPath>
</g>
<g>
	<g>
		<g class="st1">
			<g>
				<g>
					<path class="st0" d="M347.18,352.42c25.86-26.09,54.45-49.48,85.13-69.7c30.67-20.23,63.43-37.29,97.52-50.98
						c68.21-27.42,141.68-41.35,215.17-41.88c73.49-0.54,147.15,12.26,215.92,38.33c68.74,25.99,132.53,65.67,184.94,117.32
						c26.2,25.79,49.8,54.22,70.27,84.75c20.48,30.52,37.83,63.14,51.72,97.17c27.83,68.06,41.7,141.69,41.19,215.18
						c-0.51,73.5-15.23,146.86-43.22,214.83c-27.93,67.98-69.15,130.49-120.77,182.84c-25.77,26.21-54.07,49.93-84.43,70.64
						c-30.36,20.72-62.78,38.42-96.63,52.76c-67.69,28.72-141.1,43.83-214.63,44.34c-73.54,0.61-147.17-13.41-215.3-41.09
						c-68.17-27.6-130.7-68.95-182.98-120.67c-52.34-51.65-94.56-113.59-122.96-181.44c-28.5-67.8-43.36-141.25-43.68-214.76
						c-0.37-73.52,13.84-147.07,41.68-215.09c13.9-34.01,31.19-66.64,51.51-97.25C297.95,407.09,321.31,378.5,347.18,352.42z
						 M347.26,352.5c-25.83,26.11-49.14,54.72-69.41,85.35c-20.28,30.62-37.51,63.25-51.36,97.26
						c-27.74,68.01-41.84,141.52-41.35,214.94c0.43,73.42,15.39,146.73,43.94,214.36c14.26,33.81,31.85,66.22,52.45,96.59
						c20.6,30.37,44.21,58.69,70.31,84.49c52.17,51.63,114.57,92.91,182.61,120.47c68,27.64,141.5,41.65,214.9,41.05
						c73.4-0.53,146.69-15.51,214.31-44.11c33.81-14.28,66.21-31.92,96.55-52.58c30.35-20.65,58.64-44.32,84.41-70.47
						c51.6-52.26,92.83-114.68,120.8-182.58c14-33.95,24.72-69.25,31.97-105.24c7.26-36,11-72.7,11.23-109.42
						c0.44-73.43-13.49-146.98-41.36-214.93c-13.91-33.97-31.27-66.54-51.75-97c-20.48-30.47-44.06-58.84-70.25-84.56
						c-26.17-25.74-55.21-48.53-86.26-68.09c-31.06-19.56-64.13-35.88-98.42-48.95c-68.62-26.11-142.17-39-215.58-38.56
						c-73.41,0.43-146.84,14.26-215.03,41.58c-34.09,13.65-66.84,30.66-97.53,50.84C401.75,303.09,373.15,326.44,347.26,352.5z"/>
				</g>
			</g>
		</g>
		<g class="st1">
			<g>
				<g>
					<path class="st0" d="M1008.16,259.55c65.8,32.53,124.93,78.36,173.24,133.63c24.16,27.63,45.62,57.63,63.91,89.46
						c18.3,31.82,33.43,65.46,45.12,100.26c23.42,69.6,32.94,143.82,27.97,217.09c-4.92,73.28-24.47,145.54-57.2,211.28
						c-32.68,65.77-78.54,124.9-133.9,173.12c-27.66,24.13-57.68,45.56-89.52,63.82c-31.84,18.27-65.48,33.37-100.28,45.02
						c-69.6,23.32-143.78,32.84-217.02,27.87c-73.24-4.93-145.49-24.36-211.24-57.04c-65.79-32.61-124.97-78.4-173.25-133.72
						c-24.17-27.64-45.63-57.64-63.94-89.48c-18.31-31.83-33.42-65.49-45.11-100.3c-23.4-69.62-32.9-143.86-27.9-217.14
						c4.95-73.28,24.41-145.56,57.13-211.33c16.33-32.89,35.94-64.15,58.41-93.2c11.23-14.53,23.18-28.5,35.76-41.87l9.57-9.9
						l9.88-9.59l4.95-4.79c0.83-0.79,1.64-1.61,2.48-2.38l2.57-2.29l10.28-9.17c1.73-1.51,3.39-3.1,5.18-4.54l5.32-4.37l10.64-8.74
						c3.63-2.81,7.31-5.55,10.97-8.32c3.68-2.74,7.27-5.61,11.09-8.16c7.56-5.21,14.99-10.6,22.83-15.4
						c3.88-2.45,7.73-4.96,11.63-7.37l11.9-6.92c31.77-18.42,65.54-33.3,100.32-45.01l6.51-2.23l6.59-1.98l13.19-3.95
						c4.42-1.24,8.88-2.32,13.32-3.48c4.45-1.13,8.87-2.37,13.37-3.26l13.45-2.92l3.36-0.72l3.39-0.6l6.78-1.2l6.78-1.2
						c2.26-0.4,4.51-0.82,6.79-1.1l13.64-1.87c4.54-0.7,9.11-1.1,13.67-1.55c4.57-0.44,9.13-0.93,13.7-1.32l13.74-0.83l6.87-0.41
						l6.88-0.16l13.76-0.3c4.59-0.01,9.17,0.13,13.76,0.18c9.18-0.01,18.33,0.71,27.5,1.16c2.29,0.09,4.58,0.31,6.86,0.53l6.85,0.64
						l6.85,0.64l3.43,0.32c1.14,0.12,2.27,0.29,3.41,0.44c9.09,1.24,18.22,2.24,27.24,3.94c4.52,0.79,9.05,1.5,13.56,2.37
						l13.47,2.84l6.73,1.43l6.67,1.68l13.34,3.36C940.81,230.22,975.25,243.34,1008.16,259.55l-0.05,0.1
						c-32.93-16.16-67.38-29.23-102.77-38.86L892,217.45l-6.67-1.67l-6.73-1.42l-13.46-2.82c-4.5-0.86-9.04-1.56-13.55-2.35
						c-9.02-1.69-18.14-2.67-27.22-3.9c-1.14-0.14-2.27-0.31-3.41-0.43l-3.42-0.31l-6.85-0.63l-6.85-0.63
						c-2.28-0.22-4.56-0.43-6.86-0.52c-9.16-0.44-18.3-1.15-27.48-1.12c-4.58-0.05-9.17-0.18-13.75-0.17L742,201.81l-6.87,0.17
						l-6.86,0.42l-13.73,0.84c-4.57,0.4-9.12,0.9-13.69,1.34c-4.56,0.45-9.13,0.86-13.66,1.57l-13.62,1.89
						c-2.28,0.28-4.53,0.7-6.78,1.11l-6.77,1.21l-6.77,1.21l-3.38,0.6l-3.36,0.73l-13.43,2.93c-4.5,0.9-8.91,2.15-13.35,3.28
						c-4.43,1.17-8.89,2.25-13.3,3.5l-13.17,3.96l-6.58,1.99l-6.5,2.24c-34.72,11.75-68.41,26.65-100.11,45.09l-11.87,6.93
						c-3.9,2.41-7.73,4.92-11.6,7.37c-7.81,4.8-15.23,10.19-22.77,15.4c-3.81,2.55-7.39,5.42-11.06,8.16
						c-3.64,2.78-7.32,5.52-10.94,8.32l-10.61,8.74l-5.3,4.37c-1.79,1.43-3.44,3.03-5.16,4.53
						c-55.29,48.14-101.03,107.22-133.63,172.87c-32.67,65.63-52.1,137.78-57.06,210.92c-5,73.14,4.47,147.24,27.81,216.74
						c23.27,69.52,60.48,134.32,108.72,189.54c48.15,55.29,107.2,101.1,172.88,133.74c65.65,32.7,137.82,52.17,211,57.15
						c73.18,5.04,147.34-4.41,216.86-27.83c34.76-11.68,68.37-26.8,100.15-45.08c31.79-18.27,61.76-39.71,89.36-63.84
						c55.25-48.22,101-107.32,133.57-173.01c16.3-32.84,29.34-67.29,38.88-102.68c9.54-35.39,15.6-71.72,18.12-108.29
						c5.03-73.14-4.41-147.26-27.73-216.79c-11.64-34.76-26.73-68.38-44.97-100.18c-18.24-31.81-39.65-61.79-63.76-89.42
						c-24.1-27.64-50.91-52.91-79.85-75.43c-14.51-11.22-29.55-21.75-45.05-31.54c-15.54-9.73-31.55-18.72-47.95-26.94
						L1008.16,259.55z"/>
				</g>
			</g>
		</g>
		<g class="st1">
			<g>
				<g>
					<path class="st0" d="M196.47,680.41l2.79-19.29l3.6-19.16l4.28-19.03c1.63-6.29,3.38-12.56,5.06-18.83l5.83-18.61l6.46-18.4
						c2.38-6.05,4.69-12.12,6.99-18.2l7.56-17.97c10.45-23.8,22.61-46.88,36.5-68.87l10.71-16.3l11.34-15.87l11.89-15.45l12.5-14.96
						l0.08,0.07l-12.16,15.22l-11.68,15.58l-11.12,15.98l-10.61,16.32c-13.77,22-26.16,44.87-36.9,68.52l-7.71,17.89
						c-2.36,6.05-4.74,12.09-7,18.18l-6.25,18.45l-5.56,18.66l-5.01,18.81l-4.46,18.95l-3.79,19.1l-3.23,19.21L196.47,680.41z"/>
				</g>
			</g>
		</g>
		<g class="st1">
			<g>
				<g>
					<path class="st0" d="M309.33,1095.58c-11.43-14.44-22.18-29.43-32.05-44.98c-9.88-15.55-19.07-31.54-27.24-48.06
						c-8.23-16.48-15.67-33.36-22.19-50.58c-6.41-17.26-12.47-34.68-17.22-52.48c-4.84-17.77-8.88-35.77-11.98-53.93
						c-3.01-18.18-5.11-36.5-6.33-54.88c-0.24-4.6-0.62-9.19-0.75-13.8l-0.38-13.81l0.05-13.82l0.02-3.45l0.12-3.45l0.24-6.9
						c0.74-18.41,2.37-36.77,4.89-55.01l0.05,0.01c-2.42,18.26-3.95,36.62-4.58,55.02l-0.2,6.9l-0.1,3.45l0,3.45l0.03,13.81
						l0.41,13.8c0.13,4.6,0.5,9.19,0.74,13.78c1.21,18.36,3.3,36.67,6.29,54.84c3.1,18.14,7.02,36.15,11.81,53.92
						c9.6,35.55,22.85,70.11,39.46,102.97c8.27,16.45,17.38,32.46,27.19,48.04c2.45,3.9,4.99,7.73,7.52,11.58
						c2.6,3.79,5.14,7.64,7.83,11.37c5.27,7.55,10.81,14.9,16.42,22.2L309.33,1095.58z"/>
				</g>
			</g>
		</g>
		<g class="st2">
			<g>
				<g>
					<path class="st0" d="M863.5,1302.3c53.63-10.1,105.74-28.15,154.03-53.51c48.32-25.32,92.73-57.99,131.52-96.33
						c19.43-19.14,37.33-39.81,53.73-61.6c8.18-10.91,15.91-22.16,23.28-33.63c1.81-2.89,3.69-5.73,5.44-8.66l5.28-8.76
						c3.4-5.91,6.82-11.81,10.02-17.84c25.98-47.99,44.47-99.98,54.98-153.5c21.09-107.06,9.4-220.31-33.2-320.75
						c-10.58-25.13-23.19-49.39-37.37-72.68c-7.09-11.65-14.67-22.99-22.63-34.06c-7.94-11.08-16.32-21.85-24.82-32.52
						c-17.06-21.28-34.86-42-53.86-61.58c-9.49-9.79-19.3-19.29-29.59-28.25c-10.26-8.98-21.05-17.39-32.61-24.65l0.04-0.07
						c11.58,7.23,22.41,15.61,32.7,24.57c10.32,8.94,20.16,18.41,29.68,28.18c19.06,19.54,36.93,40.21,54.06,61.46
						c8.54,10.65,16.95,21.4,24.93,32.47c7.99,11.06,15.62,22.4,22.75,34.04c14.29,23.27,26.84,47.61,37.45,72.77
						c21.31,50.29,34.9,103.81,40.49,158.13c5.62,54.32,3.08,109.48-7.54,163.03c-5.25,26.79-12.67,53.14-21.85,78.84
						c-9.3,25.66-20.41,50.67-33.34,74.71c-3.19,6.03-6.6,11.94-9.99,17.87l-5.27,8.78c-1.75,2.93-3.62,5.78-5.43,8.68
						c-7.35,11.5-15.06,22.77-23.23,33.71c-16.37,21.84-34.26,42.56-53.67,61.76c-77.33,77.19-178.53,129.99-285.97,149.48
						L863.5,1302.3z"/>
				</g>
			</g>
		</g>
		<g class="st2">
			<g>
				<g>
					<path class="st0" d="M1018.8,262.67c-7.51-3.96-15.04-7.86-22.72-11.48c-7.64-3.7-15.38-7.17-23.16-10.54
						c-15.62-6.63-31.52-12.59-47.66-17.79c-16.16-5.15-32.5-9.76-49.05-13.5c-16.55-3.72-33.27-6.71-50.09-8.93
						c-33.66-4.36-67.74-5.35-101.6-3.25c-16.93,1.02-33.81,2.89-50.59,5.35c-16.77,2.49-33.48,5.5-49.98,9.45
						c-66.07,15.35-129.46,42.58-185.54,80.78c-3.48,2.43-7,4.79-10.44,7.27l-10.26,7.53l-10.05,7.8c-3.36,2.59-6.57,5.37-9.86,8.04
						c-13.01,10.88-25.5,22.38-37.41,34.47c-11.94,12.05-23.14,24.84-33.81,38.02c-10.65,13.21-20.67,26.93-30.02,41.1l-0.09-0.06
						c18.54-28.44,39.71-55.21,63.48-79.5c11.88-12.14,24.35-23.7,37.35-34.64c3.29-2.69,6.49-5.49,9.85-8.09l10.04-7.85l10.25-7.57
						c3.43-2.5,6.96-4.87,10.43-7.32c28.04-19.19,57.94-35.7,89.16-49.12c15.6-6.73,31.48-12.83,47.63-18.11
						c16.16-5.27,32.53-9.83,49.07-13.73c16.53-3.94,33.27-6.95,50.07-9.44c8.4-1.3,16.84-2.22,25.28-3.2
						c8.46-0.8,16.92-1.52,25.41-1.96c16.96-0.91,33.96-1.13,50.94-0.49c16.97,0.63,33.91,2.06,50.77,4.09
						c16.85,2.12,33.61,5,50.2,8.64c16.58,3.7,33.01,8.09,49.17,13.35c16.14,5.3,32.04,11.35,47.63,18.08
						c15.59,6.75,30.82,14.3,45.68,22.52L1018.8,262.67z"/>
				</g>
			</g>
		</g>
		<g>
			<g>
				<path class="st0" d="M857.02,1305.82c-71.23,13.24-145.18,12.88-216.09-2.54c-35.45-7.64-70.12-18.83-103.35-33.31
					c-33.2-14.52-65.18-31.97-94.92-52.73c-29.79-20.67-57.6-44.21-82.77-70.33c-25.17-26.11-47.78-54.69-67.35-85.22
					c-19.61-30.51-36.07-63.04-49.13-96.87c-13.08-33.82-22.77-68.95-28.81-104.69l0.11-0.02c6.4,35.67,16.22,70.71,29.43,104.43
					c13.21,33.72,29.8,66.08,49.29,96.58c39.03,60.99,90.23,114.09,149.56,155.63c1.8,1.37,3.74,2.54,5.62,3.81l5.67,3.73
					l11.35,7.47l11.67,6.94l5.84,3.47c1.96,1.13,3.86,2.38,5.88,3.4l11.98,6.4l5.99,3.2l3,1.59l3.07,1.46l12.28,5.81l6.14,2.9
					c2.04,0.99,4.17,1.77,6.24,2.67c33.26,14.34,67.94,25.37,103.36,32.88c35.42,7.46,71.56,11.57,107.76,12.08l6.79,0.13l3.39,0.06
					c1.13,0.01,2.26-0.06,3.39-0.08l13.57-0.4l6.79-0.2l3.39-0.1l3.39-0.26l13.54-1.06l6.77-0.53l3.39-0.26l3.38-0.35
					c4.5-0.48,9-1.01,13.49-1.6c8.98-1.17,17.93-2.57,26.85-4.18L857.02,1305.82z"/>
			</g>
		</g>
	</g>
	<g>
		<g>
			<g>
				<g>
					<path class="st0" d="M182.06,689.89c1.07,0.43,1.25,1.29,0.44,2.11l-4.37,2.9c-2.72,2.76-2.22,6.54-1.78,13.56l0.09,3.04
						c0.12,1.98-1.5,2.32-2.17,0.45l-1.13-2.82c-2.39-6.62-3.87-10.47-7.47-11.92l-5.79-0.52c-1.07-0.43-1.25-1.29-0.44-2.11
						l5.02-2.86c2.72-2.76,2.91-5.92,2.47-12.95l-0.07-2.52c-0.12-1.98,1.5-2.32,2.17-0.45l0.88,2.46c2.39,6.62,3.73,9.3,7.33,10.75
						L182.06,689.89z"/>
				</g>
			</g>
		</g>
		<g>
			<g>
				
					<ellipse transform="matrix(0.9792 -0.203 0.203 0.9792 -132.7077 46.6109)" class="st0" cx="160.88" cy="670.27" rx="3.1" ry="4.35"/>
			</g>
		</g>
		<g>
			<g>
				
					<ellipse transform="matrix(0.9792 -0.203 0.203 0.9792 -136.1403 45.9557)" class="st0" cx="155.97" cy="686.67" rx="2.56" ry="3.38"/>
			</g>
		</g>
	</g>
	<g>
		<g>
			<circle class="st0" cx="190.62" cy="686.44" r="1.33"/>
		</g>
	</g>
	<g>
		<g>
			<circle class="st0" cx="183.67" cy="703.42" r="1.48"/>
		</g>
	</g>
	<g>
		<g>
			<circle class="st0" cx="163.9" cy="708.9" r="1.08"/>
		</g>
	</g>
	<g>
		<g>
			<circle class="st0" cx="160.02" cy="716.18" r="1.66"/>
		</g>
	</g>
	<g>
		<g>
			
				<ellipse transform="matrix(0.9792 -0.203 0.203 0.9792 -137.4537 53.3593)" class="st0" cx="191.4" cy="696.78" rx="2.66" ry="3.45"/>
		</g>
	</g>
	<g>
		<g>
			<circle class="st0" cx="187.57" cy="709.6" r="1.08"/>
		</g>
	</g>
	<g>
		<g>
			<circle class="st0" cx="196.42" cy="686.73" r="1.46"/>
		</g>
	</g>
	<g>
		<g>
			<circle class="st0" cx="178.37" cy="674.57" r="1.46"/>
		</g>
	</g>
	<g>
		<g>
			<g>
				<g>
					<g>
						<path class="st0" d="M157.45,746.55c0.63,0.27,0.99,1.18,0.52,1.68l-2.44,2.27c-1.58,1.68-1.37,3.49-1.07,7.81l0.07,1.87
							c0.08,1.22-0.86,1.42-1.27,0.26l-1.1-2.95c-1.17-4.16-1.84-4.79-3.95-5.7l-3.47-0.82c-0.63-0.27-0.66-1.38-0.19-1.89
							l2.41-1.83c1.58-1.68,1.96-2.31,1.66-6.63l0.08-2.17c-0.08-1.22,0.86-1.42,1.27-0.26l0.53,1.52c1.44,4.08,1.84,5.13,3.96,6.04
							L157.45,746.55z"/>
					</g>
				</g>
			</g>
		</g>
		<g>
			<g>
				<ellipse class="st0" cx="144.14" cy="741.14" rx="0.98" ry="1.23"/>
			</g>
		</g>
		<g>
			<g>
				<ellipse class="st0" cx="144.14" cy="757.91" rx="1.08" ry="0.96"/>
			</g>
		</g>
		<g>
			<g>
				<circle class="st0" cx="164.99" cy="758.87" r="0.91"/>
			</g>
		</g>
		<g>
			<g>
				<circle class="st0" cx="160.88" cy="755.51" r="0.8"/>
			</g>
		</g>
	</g>
	<g>
		<g>
			<g>
				<g>
					<path class="st0" d="M901.03,184.42c0.61-0.33,1.54-0.04,1.64,0.64l0.26,3.32c0.33,2.28,1.88,3.24,5.45,5.7l1.51,1.11
						c1.01,0.69,0.57,1.56-0.58,1.16l-2.99-0.97c-3.98-1.67-4.89-1.54-6.92-0.45l-2.8,2.21c-0.61,0.33-1.49-0.34-1.59-1.03
						l0.07-3.03c-0.33-2.28-0.59-2.98-4.16-5.43l-1.65-1.41c-1.01-0.69-0.57-1.56,0.58-1.16l1.52,0.53
						c4.09,1.41,5.16,1.75,7.19,0.66L901.03,184.42z"/>
				</g>
			</g>
		</g>
	</g>
	<g>
		<g>
			<g>
				<g>
					<path class="st0" d="M930.93,201.97c0.36-0.16,0.76,0.02,0.68,0.4l-0.49,1.86c-0.27,1.29,0.3,1.87,1.58,3.34l0.52,0.66
						c0.36,0.42-0.01,0.89-0.5,0.63l-1.27-0.63c-1.62-1.05-2.09-1-3.28-0.45l-1.78,1.15c-0.36,0.16-0.66-0.24-0.58-0.62l0.6-1.69
						c0.27-1.29,0.27-1.68-1-3.16l-0.54-0.84c-0.36-0.42,0.01-0.89,0.5-0.63l0.64,0.34c1.72,0.91,2.18,1.13,3.37,0.58L930.93,201.97
						z"/>
				</g>
			</g>
		</g>
	</g>
	<g>
		<g>
			
				<ellipse transform="matrix(0.6222 -0.7829 0.7829 0.6222 185.796 767.9372)" class="st0" cx="888.51" cy="191.48" rx="0.98" ry="1.23"/>
		</g>
	</g>
	<g>
		<g>
			
				<ellipse transform="matrix(0.6222 -0.7829 0.7829 0.6222 182.5877 782.1586)" class="st0" cx="901.64" cy="201.91" rx="1.08" ry="0.96"/>
		</g>
	</g>
	<g>
		<g>
			
				<ellipse transform="matrix(0.6222 -0.7829 0.7829 0.6222 178.6893 761.89)" class="st0" cx="878.69" cy="195.82" rx="1.08" ry="0.96"/>
		</g>
	</g>
	<g>
		<g>
			<circle class="st0" cx="915.37" cy="186.18" r="0.91"/>
		</g>
	</g>
	<g>
		<g>
			<circle class="st0" cx="937.4" cy="201.91" r="0.91"/>
		</g>
	</g>
	<g>
		<g>
			<circle class="st0" cx="940.96" cy="206.35" r="0.91"/>
		</g>
	</g>
	<g>
		<g>
			<circle class="st0" cx="917.18" cy="205.45" r="0.91"/>
		</g>
	</g>
	<g>
		<g>
			<circle class="st0" cx="910.17" cy="187.31" r="0.8"/>
		</g>
	</g>
	<g>
		<g>
			<g>
				<path class="st0" d="M314.92,1120.8c0.24,0.46,0.21,0.97-0.06,1.3l-2.46,3.01c-0.96,1.18-1.31,2.87-0.96,4.63l0.91,4.49
					c0.1,0.5-0.08,0.94-0.45,1.13c-0.37,0.19-0.83,0.08-1.18-0.29l-3.14-3.33c-1.23-1.31-2.81-2-4.33-1.89l-3.88,0.27
					c-0.43,0.03-0.86-0.25-1.1-0.7c-0.24-0.46-0.21-0.97,0.06-1.3l2.46-3.01c0.97-1.18,1.31-2.87,0.96-4.63l-0.91-4.48
					c-0.1-0.5,0.07-0.94,0.44-1.13c0.37-0.19,0.84-0.08,1.18,0.29l3.13,3.33c1.23,1.31,2.81,2,4.33,1.89l3.88-0.27
					C314.25,1120.06,314.68,1120.34,314.92,1120.8z"/>
			</g>
		</g>
	</g>
	<g>
		<g>
			<g>
				<path class="st0" d="M267.76,1093.33c0.16,0.32,0.15,0.67-0.04,0.9l-1.7,2.09c-0.67,0.82-0.91,1.99-0.66,3.2l0.63,3.1
					c0.07,0.34-0.05,0.65-0.31,0.78c-0.26,0.13-0.58,0.05-0.82-0.2l-2.17-2.31c-0.85-0.9-1.94-1.38-3-1.31l-2.69,0.18
					c-0.3,0.02-0.59-0.17-0.76-0.49c-0.16-0.32-0.15-0.67,0.04-0.9l1.7-2.08c0.67-0.82,0.91-1.98,0.66-3.2l-0.63-3.1
					c-0.07-0.34,0.05-0.65,0.31-0.78c0.26-0.13,0.58-0.05,0.82,0.2l2.17,2.31c0.85,0.91,1.94,1.38,3,1.31l2.68-0.19
					C267.3,1092.82,267.6,1093.01,267.76,1093.33z"/>
			</g>
		</g>
	</g>
	<g>
		<g>
			<g>
				<path class="st0" d="M264.95,1067.96c0.12,0.24,0.11,0.5-0.03,0.67l-1.27,1.56c-0.5,0.61-0.68,1.49-0.5,2.4l0.47,2.32
					c0.05,0.26-0.04,0.49-0.23,0.59c-0.19,0.1-0.43,0.04-0.61-0.15l-1.62-1.73c-0.64-0.68-1.45-1.03-2.24-0.98l-2.01,0.14
					c-0.22,0.01-0.44-0.13-0.57-0.36c-0.12-0.24-0.11-0.5,0.03-0.67l1.27-1.56c0.5-0.61,0.68-1.49,0.5-2.4l-0.47-2.32
					c-0.05-0.26,0.04-0.49,0.23-0.59c0.19-0.1,0.43-0.04,0.61,0.15l1.62,1.73c0.64,0.68,1.46,1.03,2.24,0.98l2.01-0.14
					C264.61,1067.57,264.83,1067.72,264.95,1067.96z"/>
			</g>
		</g>
	</g>
	<g>
		<g>
			<path class="st0" d="M287.38,1109.48c-1.7,0-1.7,2.63,0,2.63C289.08,1112.12,289.08,1109.48,287.38,1109.48z"/>
		</g>
	</g>
	<g>
		<g>
			<path class="st0" d="M253.9,1081.94c-1.46,0-1.46,2.26,0,2.26C255.35,1084.2,255.36,1081.94,253.9,1081.94z"/>
		</g>
	</g>
	<g>
		<g>
			<path class="st0" d="M251.71,1089.15c-1.46,0-1.46,2.26,0,2.26C253.17,1091.41,253.17,1089.15,251.71,1089.15z"/>
		</g>
	</g>
	<g>
		<g>
			<path class="st0" d="M274.88,1094.24c-1.14,0-1.14,1.77,0,1.77C276.01,1096.01,276.01,1094.24,274.88,1094.24z"/>
		</g>
	</g>
	<g>
		<g>
			<path class="st0" d="M251.98,1067.85c-1.05,0-1.05,1.63,0,1.63C253.02,1069.48,253.03,1067.85,251.98,1067.85z"/>
		</g>
	</g>
	<g>
		<g>
			<path class="st0" d="M249.53,1099.71c-0.73,0-0.73,1.13,0,1.13C250.26,1100.84,250.26,1099.71,249.53,1099.71z"/>
		</g>
	</g>
	<g>
		<g>
			<path class="st0" d="M266.76,1107.99c-0.69,0-0.69,1.07,0,1.07C267.45,1109.06,267.45,1107.99,266.76,1107.99z"/>
		</g>
	</g>
	<g>
		<g>
			<path class="st0" d="M277.1,1102.93c-0.69,0-0.69,1.07,0,1.07C277.78,1104,277.78,1102.93,277.1,1102.93z"/>
		</g>
	</g>
	<g>
		<g>
			<path class="st0" d="M279.26,1098.99c-0.69,0-0.69,1.07,0,1.07C279.95,1100.06,279.95,1098.99,279.26,1098.99z"/>
		</g>
	</g>
	<g>
		<g>
			<path class="st0" d="M262.06,1062.04c-0.63,0-0.63,0.98,0,0.98C262.69,1063.03,262.69,1062.04,262.06,1062.04z"/>
		</g>
	</g>
	<g>
		<g>
			<path class="st0" d="M251.5,1061.55c-0.63,0-0.63,0.98,0,0.98C252.13,1062.54,252.13,1061.55,251.5,1061.55z"/>
		</g>
	</g>
	<g>
		<g>
			<path class="st0" d="M258.97,1105.74c-1.18,0-1.18,1.85,0,1.85C260.15,1107.6,260.15,1105.74,258.97,1105.74z"/>
		</g>
	</g>
	<g>
		<g>
			<path class="st0" d="M271.38,1099.29c-1.25,0-1.25,1.97,0,1.97C272.63,1101.25,272.63,1099.29,271.38,1099.29z"/>
		</g>
	</g>
	<g>
		<g>
			<path class="st0" d="M334.97,1137.81c-1.7,0-1.7,2.63,0,2.63C336.67,1140.44,336.67,1137.81,334.97,1137.81z"/>
		</g>
	</g>
	<g>
		<g>
			<path class="st0" d="M345.42,1132.03c-1.7,0-1.7,2.63,0,2.63C347.11,1134.67,347.11,1132.03,345.42,1132.03z"/>
		</g>
	</g>
	<g>
		<g>
			<path class="st0" d="M298.12,1137.81c-1.7,0-1.7,2.63,0,2.63C299.81,1140.44,299.81,1137.81,298.12,1137.81z"/>
		</g>
	</g>
	<g>
		<g>
			<path class="st0" d="M287.38,1121.11c-3.1,0-3.1,3.99,0,3.99C290.48,1125.1,290.49,1121.11,287.38,1121.11z"/>
		</g>
	</g>
	<g>
		<g>
			<path class="st0" d="M334.97,1125.1c-2.71,0-2.72,3.49,0,3.49C337.68,1128.59,337.69,1125.1,334.97,1125.1z"/>
		</g>
	</g>
	<g>
		<g>
			<path class="st0" d="M321.34,1129.85c-3.39,0-3.4,5.27,0,5.27C324.73,1135.12,324.73,1129.85,321.34,1129.85z"/>
		</g>
	</g>
	<g>
		<g>
			<g>
				<path class="st0" d="M1291.5,1029.92c-0.3,0.42-0.76,0.64-1.18,0.55l-3.81-0.79c-1.49-0.31-3.15,0.16-4.55,1.28l-3.56,2.87
					c-0.39,0.32-0.87,0.37-1.21,0.12c-0.34-0.24-0.45-0.7-0.29-1.18l1.51-4.32c0.59-1.69,0.48-3.41-0.32-4.72l-2.02-3.32
					c-0.22-0.37-0.18-0.88,0.12-1.3s0.76-0.64,1.18-0.55l3.81,0.8c1.49,0.31,3.15-0.16,4.55-1.28l3.56-2.87
					c0.39-0.32,0.87-0.37,1.21-0.13c0.34,0.24,0.45,0.71,0.29,1.18l-1.51,4.32c-0.59,1.7-0.48,3.42,0.31,4.72l2.03,3.32
					C1291.84,1028.99,1291.8,1029.5,1291.5,1029.92z"/>
			</g>
		</g>
	</g>
	<g>
		<g>
			<g>
				<path class="st0" d="M1306.39,974.6c-0.18,0.26-0.5,0.37-0.81,0.28l-2.81-0.82c-1.1-0.32-2.26-0.13-3.19,0.52l-2.36,1.66
					c-0.26,0.18-0.6,0.18-0.86-0.01c-0.26-0.19-0.38-0.5-0.3-0.81l0.77-2.77c0.3-1.09,0.09-2.25-0.58-3.18l-1.71-2.37
					c-0.19-0.26-0.19-0.6-0.01-0.86c0.18-0.26,0.5-0.37,0.81-0.28l2.81,0.82c1.1,0.32,2.26,0.13,3.19-0.52l2.36-1.65
					c0.26-0.18,0.6-0.18,0.86,0.01c0.27,0.19,0.38,0.51,0.3,0.81l-0.77,2.77c-0.3,1.09-0.09,2.25,0.58,3.18l1.71,2.37
					C1306.57,974,1306.57,974.34,1306.39,974.6z"/>
			</g>
		</g>
	</g>
	<g>
		<g>
			<g>
				<path class="st0" d="M1323.4,958.79c-0.17,0.24-0.46,0.34-0.74,0.25l-2.56-0.74c-1.01-0.29-2.07-0.12-2.91,0.47l-2.15,1.51
					c-0.24,0.17-0.55,0.16-0.79-0.01c-0.24-0.17-0.35-0.46-0.27-0.74l0.7-2.53c0.27-0.99,0.08-2.05-0.53-2.9l-1.56-2.17
					c-0.17-0.24-0.18-0.55-0.01-0.78c0.17-0.24,0.46-0.34,0.74-0.25l2.56,0.75c1.01,0.29,2.07,0.12,2.91-0.47l2.15-1.51
					c0.24-0.17,0.55-0.17,0.79,0c0.24,0.17,0.35,0.46,0.27,0.74l-0.7,2.53c-0.28,0.99-0.08,2.05,0.53,2.9l1.56,2.17
					C1323.57,958.25,1323.57,958.55,1323.4,958.79z"/>
			</g>
		</g>
	</g>
	<g>
		<g>
			<g>
				<path class="st0" d="M1307.16,938.66c-0.12,0.18-0.34,0.25-0.55,0.19l-1.9-0.55c-0.74-0.22-1.53-0.09-2.16,0.35l-1.59,1.12
					c-0.18,0.12-0.41,0.12-0.58,0c-0.18-0.13-0.26-0.34-0.2-0.55l0.52-1.88c0.2-0.74,0.06-1.52-0.39-2.15l-1.16-1.61
					c-0.13-0.18-0.13-0.4-0.01-0.58c0.12-0.18,0.34-0.25,0.55-0.19l1.9,0.55c0.75,0.22,1.53,0.09,2.16-0.35l1.59-1.12
					c0.18-0.12,0.41-0.12,0.58,0c0.18,0.13,0.26,0.34,0.2,0.55l-0.52,1.88c-0.2,0.74-0.06,1.52,0.39,2.15l1.16,1.6
					C1307.28,938.26,1307.28,938.49,1307.16,938.66z"/>
			</g>
		</g>
	</g>
	<g>
		<g>
			<path class="st0" d="M1288.85,1000.27c-0.78-1.5-3.12-0.29-2.34,1.21C1287.3,1002.99,1289.64,1001.78,1288.85,1000.27z"/>
		</g>
	</g>
	<g>
		<g>
			<path class="st0" d="M1259.95,1037.81c-0.78-1.5-3.12-0.29-2.34,1.21C1258.39,1040.53,1260.73,1039.31,1259.95,1037.81z"/>
		</g>
	</g>
	<g>
		<g>
			<path class="st0" d="M1304.32,980.77c-0.78-1.5-3.12-0.29-2.34,1.21C1302.76,983.49,1305.1,982.28,1304.32,980.77z"/>
		</g>
	</g>
	<g>
		<g>
			<path class="st0" d="M1268.66,1022.85c-0.78-1.5-3.12-0.29-2.34,1.21C1267.11,1025.57,1269.45,1024.36,1268.66,1022.85z"/>
		</g>
	</g>
	<g>
		<g>
			<path class="st0" d="M1290.77,975.76c-0.78-1.5-3.12-0.29-2.34,1.21C1289.22,978.48,1291.56,977.27,1290.77,975.76z"/>
		</g>
	</g>
	<g>
		<g>
			<path class="st0" d="M1309.19,957.28c-0.78-1.5-3.12-0.29-2.34,1.21C1307.63,960,1309.97,958.79,1309.19,957.28z"/>
		</g>
	</g>
	<g>
		<g>
			<path class="st0" d="M1299.43,959.75c-0.39-0.75-1.56-0.15-1.17,0.61C1298.65,961.11,1299.82,960.5,1299.43,959.75z"/>
		</g>
	</g>
	<g>
		<g>
			<path class="st0" d="M1312.35,945.68c-0.39-0.75-1.56-0.15-1.17,0.61C1311.57,947.04,1312.74,946.43,1312.35,945.68z"/>
		</g>
	</g>
	<g>
		<g>
			<path class="st0" d="M1303.73,949.23c-0.39-0.75-1.56-0.15-1.17,0.61C1302.95,950.59,1304.12,949.98,1303.73,949.23z"/>
		</g>
	</g>
	<g>
		<g>
			<path class="st0" d="M1292.88,983.84c-0.39-0.75-1.56-0.15-1.17,0.61C1292.1,985.2,1293.27,984.6,1292.88,983.84z"/>
		</g>
	</g>
	<g>
		<g>
			<path class="st0" d="M1313.01,966.75c-0.39-0.75-1.56-0.15-1.17,0.61C1312.24,968.11,1313.4,967.51,1313.01,966.75z"/>
		</g>
	</g>
	<g>
		<g>
			<path class="st0" d="M1267.34,1030.77c-0.78-1.5-3.12-0.29-2.34,1.21C1265.78,1033.49,1268.12,1032.28,1267.34,1030.77z"/>
		</g>
	</g>
	<g>
		<g>
			<path class="st0" d="M1259.95,1048.63c-0.78-1.5-3.12-0.29-2.34,1.21C1258.39,1051.35,1260.73,1050.13,1259.95,1048.63z"/>
		</g>
	</g>
	<g>
		<g>
			<path class="st0" d="M1278.53,1005.63c-1.43-2.75-4.97-0.92-3.54,1.84C1276.42,1010.22,1279.96,1008.39,1278.53,1005.63z"/>
		</g>
	</g>
	<g>
		<g>
			<path class="st0" d="M1286.17,1039.31c-1.23-2.36-4.9-0.46-3.67,1.91C1283.73,1043.58,1287.4,1041.67,1286.17,1039.31z"/>
		</g>
	</g>
	<g>
		<g>
			<path class="st0" d="M1272.02,1039.38c-1.56-3.01-6.24-0.59-4.68,2.43C1268.9,1044.82,1273.58,1042.39,1272.02,1039.38z"/>
		</g>
	</g>
	<g>
		<g>
			<g>
				<g>
					<path class="st0" d="M1285.31,459.25c1.07,0.43,1.25,1.29,0.44,2.11l-4.37,2.9c-2.72,2.76-2.21,6.54-1.78,13.56l0.09,3.04
						c0.12,1.98-1.5,2.32-2.17,0.45l-1.13-2.82c-2.39-6.62-3.87-10.47-7.47-11.92l-5.79-0.52c-1.07-0.43-1.25-1.29-0.44-2.11
						l5.02-2.86c2.72-2.76,2.91-5.92,2.47-12.95l-0.07-2.52c-0.12-1.98,1.5-2.32,2.17-0.45l0.88,2.46c2.39,6.62,3.73,9.3,7.33,10.75
						L1285.31,459.25z"/>
				</g>
			</g>
		</g>
		<g>
			<g>
				
					<ellipse transform="matrix(0.9792 -0.203 0.203 0.9792 -63.1981 269.5869)" class="st0" cx="1282.66" cy="442.89" rx="3.37" ry="4.74"/>
			</g>
		</g>
		<g>
			<g>
				
					<ellipse transform="matrix(0.9792 -0.203 0.203 0.9792 -62.9221 265.7572)" class="st0" cx="1264.13" cy="439.63" rx="3.1" ry="4.35"/>
			</g>
		</g>
		<g>
			<g>
				
					<ellipse transform="matrix(0.9792 -0.203 0.203 0.9792 -66.3546 265.102)" class="st0" cx="1259.21" cy="456.03" rx="2.56" ry="3.38"/>
			</g>
		</g>
	</g>
	<g>
		<g>
			<circle class="st0" cx="1293.87" cy="455.8" r="1.33"/>
		</g>
	</g>
	<g>
		<g>
			<circle class="st0" cx="1286.92" cy="472.78" r="1.48"/>
		</g>
	</g>
	<g>
		<g>
			<circle class="st0" cx="1267.15" cy="478.26" r="1.08"/>
		</g>
	</g>
	<g>
		<g>
			<circle class="st0" cx="1263.26" cy="485.55" r="1.66"/>
		</g>
	</g>
	<g>
		<g>
			
				<ellipse transform="matrix(0.9792 -0.203 0.203 0.9792 -67.6681 272.5056)" class="st0" cx="1294.65" cy="466.14" rx="2.66" ry="3.45"/>
		</g>
	</g>
	<g>
		<g>
			<circle class="st0" cx="1290.81" cy="478.97" r="1.08"/>
		</g>
	</g>
	<g>
		<g>
			<circle class="st0" cx="1299.67" cy="456.09" r="1.46"/>
		</g>
	</g>
	<g>
		<g>
			<g>
				<path class="st0" d="M1322.57,505.68c0.08,0.43-0.05,0.84-0.34,1.04l-2.63,1.88c-1.03,0.74-1.69,2.03-1.8,3.54l-0.29,3.86
					c-0.03,0.43-0.27,0.75-0.61,0.82c-0.34,0.07-0.68-0.13-0.87-0.51l-1.73-3.44c-0.68-1.35-1.78-2.27-3.01-2.54l-3.14-0.68
					c-0.35-0.08-0.62-0.4-0.71-0.83c-0.08-0.43,0.05-0.84,0.34-1.05l2.63-1.88c1.03-0.74,1.69-2.03,1.81-3.54l0.29-3.86
					c0.03-0.43,0.27-0.75,0.61-0.82c0.34-0.07,0.68,0.13,0.87,0.51l1.73,3.43c0.68,1.35,1.78,2.28,3.01,2.54l3.14,0.68
					C1322.21,504.92,1322.48,505.25,1322.57,505.68z"/>
			</g>
		</g>
	</g>
	<g>
		<g>
			<path class="st0" d="M1310.4,487.65c-1.67-0.49-2.41,2.17-0.74,2.66C1311.33,490.8,1312.07,488.14,1310.4,487.65z"/>
		</g>
	</g>
	<g>
		<g>
			<path class="st0" d="M1305.54,495.39c-1.67-0.49-2.41,2.17-0.74,2.66C1306.47,498.54,1307.21,495.88,1305.54,495.39z"/>
		</g>
	</g>
	<g>
		<g>
			<path class="st0" d="M1330.42,509.13c-1.3-0.38-1.88,1.7-0.58,2.08C1331.15,511.59,1331.73,509.51,1330.42,509.13z"/>
		</g>
	</g>
	<g>
		<g>
			<path class="st0" d="M1296.62,499.89c-0.73-0.21-1.06,0.93-0.32,1.14C1297.03,501.24,1297.35,500.1,1296.62,499.89z"/>
		</g>
	</g>
	<g>
		<g>
			<path class="st0" d="M1314.19,520.61c-0.69-0.2-1,0.9-0.31,1.1C1314.57,521.91,1314.88,520.81,1314.19,520.61z"/>
		</g>
	</g>
	<g>
		<g>
			<path class="st0" d="M1330.14,520.09c-0.79-0.23-1.14,1.02-0.35,1.25C1330.57,521.57,1330.92,520.32,1330.14,520.09z"/>
		</g>
	</g>
	<g>
		<g>
			<path class="st0" d="M1333.9,516.18c-0.79-0.23-1.14,1.02-0.35,1.25C1334.34,517.66,1334.69,516.41,1333.9,516.18z"/>
		</g>
	</g>
	<g>
		<g>
			<path class="st0" d="M873.36,174.95c-0.35,1.03,1.27,1.58,1.62,0.55C875.33,174.48,873.71,173.92,873.36,174.95z"/>
		</g>
	</g>
	<g>
		<g>
			<path class="st0" d="M1324.78,513.89c-1.43-0.42-2.07,1.89-0.64,2.31C1325.57,516.62,1326.21,514.31,1324.78,513.89z"/>
		</g>
	</g>
	<g>
		<g>
			<g>
				<path class="st0" d="M367.07,340.59c-0.25,0.49-0.7,0.79-1.16,0.76l-4.13-0.25c-1.62-0.1-3.3,0.65-4.59,2.05l-3.31,3.57
					c-0.37,0.4-0.86,0.52-1.26,0.32c-0.39-0.2-0.59-0.67-0.48-1.2l0.93-4.78c0.36-1.88-0.02-3.67-1.06-4.92l-2.64-3.19
					c-0.29-0.35-0.32-0.9-0.07-1.38s0.71-0.79,1.16-0.76l4.13,0.25c1.62,0.1,3.3-0.65,4.6-2.05l3.31-3.57
					c0.37-0.4,0.86-0.52,1.25-0.32c0.4,0.2,0.59,0.67,0.48,1.2l-0.93,4.78c-0.37,1.88,0.02,3.67,1.06,4.92l2.64,3.19
					C367.29,339.55,367.32,340.1,367.07,340.59z"/>
			</g>
		</g>
	</g>
	<g>
		<g>
			<path class="st0" d="M343.62,335.75c-1.75-2.43-5.52,0.28-3.77,2.71C341.59,340.89,345.37,338.18,343.62,335.75z"/>
		</g>
	</g>
	<g>
		<g>
			<path class="st0" d="M352.5,320.48c-1.26-1.75-3.98,0.2-2.72,1.96C351.04,324.18,353.76,322.23,352.5,320.48z"/>
		</g>
	</g>
	<g>
		<g>
			<path class="st0" d="M368.6,315.4c-1.26-1.75-3.98,0.2-2.72,1.96C367.14,319.11,369.86,317.16,368.6,315.4z"/>
		</g>
	</g>
	<g>
		<g>
			<path class="st0" d="M373.46,328.67c-0.76-1.06-2.4,0.12-1.64,1.18C372.58,330.9,374.22,329.72,373.46,328.67z"/>
		</g>
	</g>
	<g>
		<g>
			<path class="st0" d="M340.04,324.75c-0.69-0.96-1.98-0.03-1.29,0.93C339.44,326.64,340.73,325.71,340.04,324.75z"/>
		</g>
	</g>
	<g>
		<g>
			<path class="st0" d="M361.6,310.46c-0.76-1.06-2.4,0.12-1.64,1.18C360.72,312.7,362.36,311.52,361.6,310.46z"/>
		</g>
	</g>
	<g>
		<g>
			<path class="st0" d="M344.6,348.82c-0.76-1.06-2.4,0.12-1.64,1.18C343.72,351.06,345.36,349.88,344.6,348.82z"/>
		</g>
	</g>
	<g>
		<g>
			<path class="st0" d="M310,385.51c-7.01,0-7.02,10.89,0,10.89C317,396.4,317.01,385.51,310,385.51z"/>
		</g>
	</g>
	<g>
		<g>
			<path class="st0" d="M408.89,340.56c-7.01,0-7.02,10.89,0,10.89C415.89,351.45,415.9,340.56,408.89,340.56z"/>
		</g>
	</g>
	<g>
		<g>
			<path class="st0" d="M214.67,821.71c-7.01,0-7.02,10.89,0,10.89C221.67,832.6,221.68,821.71,214.67,821.71z"/>
		</g>
	</g>
	<g>
		<g>
			<path class="st0" d="M190.13,778.08c-7.01,0-7.02,10.89,0,10.89C197.14,788.97,197.15,778.08,190.13,778.08z"/>
		</g>
	</g>
	<g>
		<g>
			<path class="st0" d="M351.95,1095.56c-7.01,0-7.02,10.89,0,10.89C358.96,1106.45,358.97,1095.56,351.95,1095.56z"/>
		</g>
	</g>
	<g>
		<g>
			<path class="st0" d="M223.78,1008.34c-7.01,0-7.02,10.89,0,10.89C230.79,1019.23,230.8,1008.34,223.78,1008.34z"/>
		</g>
	</g>
	<g>
		<g>
			<path class="st0" d="M504.05,1274.97c-7.01,0-7.02,10.89,0,10.89C511.05,1285.87,511.06,1274.97,504.05,1274.97z"/>
		</g>
	</g>
	<g>
		<g>
			<path class="st0" d="M863.51,1269.53c-7.01,0-7.02,10.89,0,10.89C870.51,1280.42,870.52,1269.53,863.51,1269.53z"/>
		</g>
	</g>
	<g>
		<g>
			<path class="st0" d="M908.08,1280.42c-7.01,0-7.02,10.89,0,10.89C915.09,1291.31,915.1,1280.42,908.08,1280.42z"/>
		</g>
	</g>
	<g>
		<g>
			<path class="st0" d="M1028.28,1202.65c-7.01,0-7.02,10.89,0,10.89C1035.29,1213.54,1035.3,1202.65,1028.28,1202.65z"/>
		</g>
	</g>
	<g>
		<g>
			<path class="st0" d="M1140.07,404.99c-7.01,0-7.02,10.89,0,10.89C1147.08,415.88,1147.09,404.99,1140.07,404.99z"/>
		</g>
	</g>
	<g>
		<g>
			<path class="st0" d="M1246.45,487.4c-7.01,0-7.02,10.89,0,10.89C1253.46,498.29,1253.47,487.4,1246.45,487.4z"/>
		</g>
	</g>
	<g>
		<g>
			<path class="st0" d="M814.93,211.71c-7.01,0-7.02,10.89,0,10.89C821.94,222.6,821.95,211.71,814.93,211.71z"/>
		</g>
	</g>
	<g>
		<g>
			<path class="st0" d="M875.61,184.32c-1.58,0-1.58,2.18,0,2.18C877.19,186.51,877.19,184.32,875.61,184.32z"/>
		</g>
	</g>
	<g>
		<g>
			<path class="st0" d="M878.24,192.74c-3.5,0-3.51,5.45,0,5.45C881.75,198.18,881.75,192.74,878.24,192.74z"/>
		</g>
	</g>
	<g>
		<g>
			<path class="st0" d="M885.5,176.98c-2.5,0-2.5,2.71,0,2.71C888,179.69,888,176.98,885.5,176.98z"/>
		</g>
	</g>
	<g>
		<g>
			<path class="st0" d="M498.79,240.17c-7.01,0-7.02,10.89,0,10.89C505.79,251.06,505.8,240.17,498.79,240.17z"/>
		</g>
	</g>
	<path class="st0" d="M1281.36,724.55v0.08c0-0.02-0.01-0.07-0.01-0.12C1281.35,724.53,1281.36,724.54,1281.36,724.55z"/>
	<g>
		<polygon class="st0" points="1235.18,755.09 1235.16,755.11 1235.16,755.09 		"/>
	</g>
	<g>
		<g>
			<path class="st0" d="M1228.03,755.09c0.1-0.06,0.36-0.28,0.73-0.57C1228.5,754.69,1228.26,754.89,1228.03,755.09z M1228.01,755.1
				v0.01c0,0,0.01-0.01,0.02-0.02C1228.02,755.09,1228.01,755.09,1228.01,755.1z"/>
		</g>
	</g>
	<path class="st0" d="M1228.03,755.09c-0.01,0.01-0.02,0.02-0.02,0.02v-0.01C1228.01,755.09,1228.02,755.09,1228.03,755.09z"/>
	<path class="st0" d="M1228.77,754.53c-0.37,0.29-0.64,0.51-0.73,0.57C1228.26,754.89,1228.5,754.69,1228.77,754.53z"/>
	<path class="st0" d="M1278.95,722.14v0.08c0-0.02-0.01-0.07-0.01-0.12C1278.94,722.12,1278.95,722.13,1278.95,722.14z"/>
	<g>
		<polygon class="st0" points="1232.77,752.68 1232.75,752.69 1232.75,752.68 		"/>
	</g>
</g>
<g>
	<g>
		<path class="st0" d="M414.83,891.58l-0.4,7.92h1.86l0.04-0.49c0.09-1.22,0.38-2.2,0.86-2.9c0.47-0.69,1.02-1.14,1.66-1.38
			c0.36-0.12,1.12-0.27,2.74-0.27h2.99v21.85c0,2-0.24,2.65-0.38,2.85c-0.42,0.6-1.14,0.9-2.2,0.9h-1.56v1.85h13.48v-1.85h-1.54
			c-0.98,0-1.7-0.25-2.13-0.73c-0.14-0.16-0.45-0.76-0.45-3.02v-21.85h3.6c1.12,0,2.02,0.18,2.68,0.53
			c0.65,0.35,1.17,0.88,1.56,1.63c0.24,0.46,0.44,1.27,0.59,2.41l0.06,0.46h1.84l-0.37-7.92H414.83z"/>
		<path class="st0" d="M475.73,893.44h1.56c0.6,0,1.16,0.15,1.71,0.45c0.35,0.2,0.58,0.42,0.68,0.66c0.11,0.28,0.24,0.99,0.24,2.77
			v7.85h-12.55v-7.85c0-1.71,0.12-2.4,0.23-2.68c0.13-0.34,0.35-0.59,0.68-0.76c0.54-0.29,1.12-0.43,1.72-0.43h1.59v-1.85h-13.61
			v1.85h1.56c0.61,0,1.17,0.15,1.72,0.45c0.34,0.2,0.56,0.42,0.66,0.67c0.11,0.28,0.24,0.99,0.24,2.77v18.9c0,2.22-0.29,2.84-0.41,3
			c-0.45,0.58-1.17,0.85-2.22,0.85h-1.56v1.85h13.61v-1.85H470c-0.6,0-1.17-0.15-1.71-0.45c-0.35-0.2-0.58-0.42-0.68-0.66
			c-0.11-0.28-0.24-0.99-0.24-2.74v-8.39h12.55v8.39c0,2.21-0.3,2.84-0.43,3c-0.45,0.58-1.16,0.85-2.2,0.85h-1.56v1.85h13.58v-1.85
			h-1.56c-0.61,0-1.17-0.15-1.72-0.45c-0.34-0.2-0.56-0.42-0.66-0.67c-0.11-0.28-0.24-0.99-0.24-2.75v-18.9
			c0-1.71,0.12-2.4,0.22-2.69c0.12-0.34,0.34-0.58,0.69-0.76c0.54-0.29,1.12-0.43,1.72-0.43h1.56v-1.85h-13.58V893.44z"/>
		<path class="st0" d="M531.45,913.81c-0.91,1.74-1.8,3.06-2.64,3.91c-0.63,0.61-1.28,1.03-1.95,1.23c-0.7,0.21-1.86,0.32-3.45,0.32
			h-4.97c-0.97,0-1.28-0.12-1.38-0.18c-0.18-0.11-0.31-0.24-0.38-0.41c-0.02-0.05-0.13-0.41-0.13-2.17v-9.13h5.91
			c1.14,0,1.98,0.13,2.49,0.38c0.49,0.24,0.83,0.55,1.03,0.95c0.1,0.2,0.3,0.8,0.55,2.58l0.06,0.45h1.79v-11.25h-1.83l-0.03,0.5
			c-0.08,1.52-0.44,2.57-1.08,3.13c-0.32,0.28-1.09,0.62-3,0.62h-5.91v-10.52h7.51c1.72,0,2.51,0.16,2.84,0.28
			c0.62,0.26,1.08,0.63,1.39,1.11c0.23,0.36,0.57,1.16,0.93,2.99l0.08,0.43h1.83l-0.38-7.47h-23.6v1.85h1.56
			c1.05,0,1.79,0.23,2.19,0.68c0.13,0.15,0.43,0.75,0.43,3.09v19.03c0,1.69-0.12,2.37-0.22,2.65c-0.12,0.33-0.34,0.58-0.69,0.75
			c-0.54,0.29-1.12,0.44-1.72,0.44h-1.56v1.85h23.48l2.89-8.4h-1.92L531.45,913.81z"/>
		<path class="st0" d="M601.89,893.12c-2.34-1.02-5.77-1.53-10.2-1.53h-12.45v1.85h1.63c0.96,0,1.65,0.25,2.11,0.77
			c0.14,0.16,0.48,0.79,0.48,3.09v18.92c0,2.02-0.24,2.69-0.39,2.91c-0.42,0.64-1.14,0.95-2.19,0.95h-1.63v1.85h13.62
			c5.82,0,10.22-1.6,13.09-4.75c2.56-2.82,3.85-6.38,3.85-10.57c0-3.12-0.73-5.92-2.16-8.31
			C606.2,895.9,604.27,894.15,601.89,893.12z M603.82,906.82c0,3.86-1.06,6.95-3.16,9.19c-2.09,2.23-4.76,3.35-7.93,3.35
			c-1.1,0-2.47-0.17-4.07-0.5v-24.07c1.45-0.34,2.76-0.51,3.9-0.51c3.29,0,6.02,1.12,8.11,3.33
			C602.76,899.84,603.82,902.93,603.82,906.82z"/>
		<path class="st0" d="M652.71,913.81c-0.91,1.74-1.8,3.06-2.64,3.91c-0.63,0.61-1.28,1.03-1.95,1.23c-0.7,0.21-1.86,0.32-3.45,0.32
			h-4.97c-0.97,0-1.28-0.12-1.38-0.18c-0.18-0.11-0.31-0.24-0.38-0.41c-0.02-0.05-0.13-0.41-0.13-2.17v-9.13h5.91
			c1.14,0,1.98,0.13,2.49,0.38c0.49,0.24,0.83,0.55,1.03,0.95c0.1,0.2,0.3,0.8,0.55,2.58l0.06,0.45h1.79v-11.25h-1.83l-0.03,0.5
			c-0.08,1.52-0.44,2.57-1.08,3.13c-0.32,0.28-1.09,0.62-3,0.62h-5.91v-10.52h7.51c1.72,0,2.51,0.16,2.84,0.28
			c0.62,0.26,1.08,0.63,1.39,1.11c0.23,0.36,0.57,1.16,0.93,2.99l0.08,0.43h1.83l-0.38-7.47h-23.6v1.85h1.56
			c1.05,0,1.79,0.23,2.19,0.68c0.13,0.15,0.43,0.75,0.43,3.09v19.03c0,1.69-0.12,2.37-0.22,2.65c-0.12,0.33-0.34,0.58-0.69,0.75
			c-0.54,0.29-1.12,0.44-1.72,0.44h-1.56v1.85h23.48l2.89-8.4h-1.92L652.71,913.81z"/>
		<path class="st0" d="M691.57,907.39c-1.02-0.8-2.93-1.95-5.68-3.43c-3.28-1.76-5.37-3.17-6.22-4.2c-0.54-0.64-0.8-1.33-0.8-2.1
			c0-1.02,0.43-1.92,1.3-2.74c0.89-0.83,1.98-1.23,3.36-1.23c1.23,0,2.44,0.32,3.59,0.95c1.15,0.63,2.04,1.48,2.66,2.55
			c0.63,1.09,1.08,2.58,1.33,4.45l0.06,0.46h1.79v-11.19h-1.75l-0.09,0.42c-0.16,0.77-0.35,1.01-0.42,1.08
			c-0.14,0.13-0.32,0.19-0.56,0.19c-0.12,0-0.49-0.05-1.49-0.5c-1.8-0.79-3.54-1.19-5.16-1.19c-2.62,0-4.81,0.81-6.52,2.42
			c-1.72,1.62-2.59,3.57-2.59,5.82c0,1.29,0.3,2.5,0.88,3.58c0.58,1.07,1.44,2.05,2.55,2.93c1.09,0.86,2.86,1.97,5.42,3.41
			c2.47,1.39,4,2.3,4.54,2.71c0.77,0.59,1.34,1.22,1.7,1.88c0.35,0.65,0.53,1.3,0.53,1.93c0,1.15-0.46,2.13-1.39,2.98
			c-0.94,0.85-2.25,1.29-3.91,1.29c-1.46,0-2.82-0.33-4.04-0.98c-1.21-0.64-2.12-1.45-2.7-2.41c-0.6-0.98-1.08-2.51-1.44-4.54
			l-0.08-0.44h-1.77v11.1h1.78l0.07-0.45c0.12-0.79,0.28-1,0.32-1.05c0.07-0.07,0.19-0.16,0.48-0.16c0.18,0,0.74,0.09,2.51,0.66
			c1.45,0.47,2.38,0.73,2.85,0.81c0.77,0.13,1.61,0.2,2.49,0.2c2.83,0,5.19-0.86,7-2.55c1.82-1.7,2.75-3.76,2.75-6.12
			c0-1.24-0.29-2.45-0.87-3.59C693.45,909.21,692.62,908.22,691.57,907.39z"/>
		<path class="st0" d="M714.39,893.44h1.56c0.6,0,1.18,0.15,1.72,0.45c0.34,0.2,0.56,0.42,0.66,0.67c0.11,0.28,0.24,0.99,0.24,2.75
			v18.92c0,2.22-0.29,2.84-0.41,3c-0.45,0.58-1.17,0.85-2.22,0.85h-1.56v1.85h13.61v-1.85h-1.59c-0.61,0-1.16-0.15-1.71-0.45
			c-0.35-0.2-0.58-0.42-0.68-0.66c-0.11-0.28-0.24-0.99-0.24-2.75V897.3c0-2.21,0.3-2.84,0.43-3c0.45-0.58,1.16-0.85,2.2-0.85h1.59
			v-1.85h-13.61V893.44z"/>
		<path class="st0" d="M765.08,906.77h0.53c1.36,0,1.97,0.16,2.24,0.3c0.37,0.19,0.63,0.45,0.8,0.8c0.1,0.21,0.28,0.84,0.28,2.65
			v8.16c-0.81,0.44-1.66,0.78-2.53,1.01c-0.96,0.26-1.96,0.39-2.99,0.39c-1.74,0-3.46-0.52-5.11-1.53
			c-1.65-1.01-3.01-2.64-4.04-4.84c-1.04-2.22-1.57-4.72-1.57-7.42c0-3.32,0.79-6.22,2.35-8.61c1.86-2.82,4.5-4.19,8.07-4.19
			c2.58,0,4.72,0.8,6.35,2.38c1.14,1.1,2.09,2.78,2.82,4.99l0.12,0.36h1.71l-0.84-10.3h-1.78l-0.03,0.5
			c-0.05,0.87-0.2,1.13-0.25,1.19c-0.12,0.15-0.21,0.17-0.28,0.17c-0.07,0-0.4-0.03-1.44-0.42c-1.64-0.61-2.88-0.99-3.78-1.17
			c-0.9-0.18-1.91-0.27-3.01-0.27c-3,0-5.65,0.66-7.87,1.95c-2.64,1.56-4.74,3.81-6.25,6.69c-1.27,2.43-1.92,5-1.92,7.65
			c0,3.66,1.15,6.94,3.42,9.75c3.03,3.74,7.51,5.64,13.31,5.64c2,0,3.86-0.22,5.51-0.64c1.65-0.43,3.33-1.1,5.02-2.01l0.28-0.15
			v-9.28c0-1.84,0.2-2.59,0.36-2.9c0.32-0.57,0.93-0.85,1.85-0.85h1.07v-1.88h-12.4V906.77z"/>
		<path class="st0" d="M815.25,893.44h1.54c0.99,0,1.71,0.24,2.14,0.73c0.14,0.16,0.47,0.76,0.47,3.02v15.41l-17.13-21.01h-8.73
			v1.85h0.53c0.79,0,1.38,0.06,1.74,0.17c0.79,0.25,1.39,0.53,1.79,0.81c0.27,0.19,0.78,0.65,1.71,1.73v20.17
			c0,2-0.24,2.65-0.38,2.85c-0.42,0.6-1.14,0.9-2.22,0.9h-1.54v1.85h11.25v-1.85h-1.56c-0.98,0-1.7-0.25-2.13-0.73
			c-0.14-0.16-0.45-0.76-0.45-3.02v-16.56l18.53,22.64h1.56v-25.22c0-2,0.24-2.65,0.38-2.85c0.42-0.6,1.14-0.9,2.2-0.9h1.56v-1.85
			h-11.25V893.44z"/>
		<path class="st0" d="M889.79,893.44h1.56c0.61,0,1.16,0.15,1.71,0.45c0.35,0.2,0.58,0.42,0.68,0.66c0.09,0.23,0.24,0.9,0.24,2.77
			v7.85h-12.55v-7.85c0-1.71,0.12-2.4,0.23-2.68c0.13-0.34,0.35-0.59,0.68-0.77c0.54-0.29,1.12-0.43,1.72-0.43h1.59v-1.85h-13.61
			v1.85h1.56c0.61,0,1.17,0.15,1.72,0.45c0.34,0.2,0.56,0.42,0.66,0.67c0.11,0.28,0.24,0.99,0.24,2.77v18.9c0,2.22-0.29,2.84-0.41,3
			c-0.45,0.58-1.17,0.85-2.22,0.85h-1.56v1.85h13.61v-1.85h-1.59c-0.61,0-1.16-0.15-1.71-0.45c-0.35-0.2-0.58-0.42-0.67-0.66
			c-0.11-0.28-0.24-0.99-0.24-2.74v-8.39h12.55v8.39c0,2.21-0.3,2.84-0.43,3c-0.45,0.58-1.17,0.85-2.2,0.85h-1.56v1.85h13.58v-1.85
			h-1.56c-0.61,0-1.17-0.15-1.72-0.45c-0.34-0.2-0.56-0.42-0.66-0.67c-0.11-0.28-0.24-0.99-0.24-2.74v-18.9
			c0-1.71,0.12-2.4,0.22-2.69c0.12-0.34,0.34-0.58,0.69-0.76c0.54-0.29,1.12-0.43,1.72-0.43h1.56v-1.85h-13.58V893.44z"/>
		<path class="st0" d="M937.01,890.91c-3.95,0-7.39,1.33-10.23,3.96c-3.26,3.03-4.92,6.99-4.92,11.77c0,4.67,1.43,8.54,4.26,11.49
			c2.83,2.96,6.38,4.46,10.55,4.46c4.12,0,7.68-1.54,10.58-4.57c2.89-3.03,4.36-6.88,4.36-11.45c0-4.44-1.46-8.2-4.33-11.18
			C944.4,892.42,940.95,890.91,937.01,890.91z M936.6,893.55c2.65,0,4.66,0.9,6.15,2.74c1.89,2.35,2.84,6.01,2.84,10.88
			c0,4.48-0.86,7.78-2.57,9.81c-1.7,2.04-3.8,3.03-6.41,3.03c-2.43,0-4.33-0.9-5.81-2.74c-1.96-2.47-2.95-6.07-2.95-10.71
			c0-4.52,0.96-7.98,2.84-10.29C932.2,894.44,934.13,893.55,936.6,893.55z"/>
		<path class="st0" d="M990.43,893.44h1.63c0.96,0,1.65,0.25,2.11,0.77c0.14,0.16,0.47,0.79,0.47,3.09v11.86
			c0,3.02-0.27,5.18-0.79,6.41c-0.5,1.19-1.47,2.18-2.87,2.95c-1.43,0.79-3.07,1.19-4.89,1.19c-1.41,0-2.6-0.25-3.55-0.74
			c-0.94-0.49-1.67-1.11-2.17-1.86c-0.5-0.75-0.85-1.83-1.05-3.22c-0.2-1.44-0.31-2.73-0.31-3.84V897.3c0-2,0.28-2.7,0.45-2.94
			c0.42-0.62,1.12-0.91,2.16-0.91h1.65v-1.85h-13.71v1.85h1.63c0.95,0,1.62,0.22,2.01,0.66c0.28,0.32,0.61,1.13,0.61,3.19v11.45
			c0,3.62,0.24,6.04,0.72,7.4c0.73,1.97,1.98,3.56,3.72,4.73c1.74,1.16,4.29,1.75,7.57,1.75c3.03,0,5.47-0.62,7.26-1.83
			c1.79-1.22,3.02-2.71,3.64-4.43c0.6-1.67,0.9-4.03,0.9-7.02v-11.88c0-2.06,0.25-2.65,0.37-2.83c0.52-0.81,1.25-1.2,2.21-1.2h1.63
			v-1.85h-11.42V893.44z"/>
		<path class="st0" d="M1038.31,907.39c-1.02-0.8-2.93-1.95-5.68-3.43c-3.28-1.76-5.37-3.17-6.22-4.2c-0.54-0.64-0.8-1.33-0.8-2.1
			c0-1.02,0.43-1.92,1.3-2.73c0.89-0.83,1.98-1.23,3.36-1.23c1.23,0,2.44,0.32,3.59,0.95c1.15,0.63,2.04,1.48,2.66,2.54
			c0.63,1.09,1.08,2.59,1.33,4.45l0.06,0.46h1.79v-11.19h-1.75l-0.09,0.42c-0.16,0.77-0.35,1.01-0.42,1.07
			c-0.14,0.13-0.32,0.19-0.56,0.19c-0.12,0-0.49-0.05-1.49-0.5c-1.8-0.79-3.54-1.19-5.16-1.19c-2.62,0-4.81,0.81-6.52,2.42
			c-1.72,1.62-2.59,3.57-2.59,5.82c0,1.29,0.3,2.5,0.89,3.58c0.58,1.07,1.44,2.05,2.54,2.93c1.09,0.86,2.86,1.97,5.42,3.41
			c2.48,1.39,4,2.3,4.54,2.71c0.77,0.59,1.34,1.22,1.7,1.88c0.35,0.65,0.53,1.3,0.53,1.93c0,1.15-0.46,2.13-1.39,2.98
			c-0.94,0.85-2.25,1.29-3.91,1.29c-1.46,0-2.82-0.33-4.04-0.98c-1.21-0.64-2.12-1.45-2.7-2.41c-0.6-0.98-1.08-2.51-1.44-4.54
			l-0.08-0.44h-1.77v11.1h1.78l0.07-0.45c0.12-0.79,0.28-1,0.32-1.05c0.07-0.07,0.19-0.16,0.47-0.16c0.18,0,0.74,0.09,2.51,0.66
			c1.44,0.47,2.38,0.73,2.85,0.81c0.77,0.13,1.61,0.2,2.49,0.2c2.83,0,5.19-0.86,7-2.55c1.82-1.7,2.75-3.76,2.75-6.12
			c0-1.24-0.29-2.45-0.87-3.59C1040.2,909.21,1039.37,908.22,1038.31,907.39z"/>
		<path class="st0" d="M1085.39,913.53l-0.15,0.28c-0.91,1.74-1.8,3.06-2.64,3.91c-0.63,0.61-1.28,1.03-1.95,1.23
			c-0.7,0.21-1.86,0.32-3.45,0.32h-4.97c-0.97,0-1.28-0.12-1.38-0.18c-0.18-0.11-0.31-0.24-0.38-0.41
			c-0.03-0.08-0.13-0.45-0.13-2.16v-9.13h5.91c1.14,0,1.98,0.13,2.49,0.38c0.49,0.24,0.83,0.55,1.03,0.95c0.1,0.2,0.3,0.8,0.55,2.58
			l0.06,0.45h1.78v-11.25h-1.83l-0.03,0.5c-0.08,1.52-0.44,2.57-1.08,3.13c-0.32,0.28-1.09,0.62-3,0.62h-5.91v-10.52h7.51
			c1.72,0,2.51,0.16,2.84,0.28c0.62,0.26,1.08,0.63,1.39,1.11c0.23,0.36,0.57,1.17,0.93,2.99l0.08,0.43h1.83l-0.38-7.47h-23.6v1.85
			h1.56c1.05,0,1.79,0.23,2.19,0.68c0.1,0.12,0.43,0.69,0.43,3.09v19.03c0,1.69-0.12,2.37-0.22,2.65c-0.12,0.33-0.34,0.58-0.69,0.75
			c-0.54,0.29-1.12,0.43-1.72,0.43h-1.56v1.85h23.48l2.89-8.4H1085.39z"/>
	</g>
	<g>
		<defs>
			<path id="SVGID_3_" d="M531.45,913.81c-0.91,1.74-1.8,3.06-2.64,3.91c-0.63,0.61-1.28,1.03-1.95,1.23
				c-0.7,0.21-1.86,0.32-3.45,0.32h-4.97c-0.97,0-1.28-0.12-1.38-0.18c-0.18-0.11-0.31-0.24-0.38-0.41
				c-0.02-0.05-0.13-0.41-0.13-2.17v-9.13h5.91c1.14,0,1.98,0.13,2.49,0.38c0.49,0.24,0.83,0.55,1.03,0.95
				c0.1,0.2,0.3,0.8,0.55,2.58l0.06,0.45h1.79v-11.25h-1.83l-0.03,0.5c-0.08,1.52-0.44,2.57-1.08,3.13c-0.32,0.28-1.09,0.62-3,0.62
				h-5.91v-10.52h7.51c1.72,0,2.51,0.16,2.84,0.28c0.62,0.26,1.08,0.63,1.39,1.11c0.23,0.36,0.57,1.16,0.93,2.99l0.08,0.43h1.83
				l-0.38-7.47h-23.6v1.85h1.56c1.05,0,1.79,0.23,2.19,0.68c0.13,0.15,0.43,0.75,0.43,3.09v19.03c0,1.69-0.12,2.37-0.22,2.65
				c-0.12,0.33-0.34,0.58-0.69,0.75c-0.54,0.29-1.12,0.44-1.72,0.44h-1.56v1.85h23.48l2.89-8.4h-1.92L531.45,913.81z"/>
		</defs>
		<use xlink:href="#SVGID_3_"  style="overflow:visible;fill:#FFB8BC;"/>
		<clipPath id="SVGID_4_">
			<use xlink:href="#SVGID_3_"  style="overflow:visible;"/>
		</clipPath>
	</g>
	<g>
		<defs>
			<path id="SVGID_5_" d="M601.89,893.12c-2.34-1.02-5.77-1.53-10.2-1.53h-12.45v1.85h1.63c0.96,0,1.65,0.25,2.11,0.77
				c0.14,0.16,0.48,0.79,0.48,3.09v18.92c0,2.02-0.24,2.69-0.39,2.91c-0.42,0.64-1.14,0.95-2.19,0.95h-1.63v1.85h13.62
				c5.82,0,10.22-1.6,13.09-4.75c2.56-2.82,3.85-6.38,3.85-10.57c0-3.12-0.73-5.92-2.16-8.31
				C606.2,895.9,604.27,894.15,601.89,893.12z M603.82,906.82c0,3.86-1.06,6.95-3.16,9.19c-2.09,2.23-4.76,3.35-7.93,3.35
				c-1.1,0-2.47-0.17-4.07-0.5v-24.07c1.45-0.34,2.76-0.51,3.9-0.51c3.29,0,6.02,1.12,8.11,3.33
				C602.76,899.84,603.82,902.93,603.82,906.82z"/>
		</defs>
		<use xlink:href="#SVGID_5_"  style="overflow:visible;fill:#FFB8BC;"/>
		<clipPath id="SVGID_6_">
			<use xlink:href="#SVGID_5_"  style="overflow:visible;"/>
		</clipPath>
	</g>
	<g>
		<defs>
			<path id="SVGID_7_" d="M691.57,907.39c-1.02-0.8-2.93-1.95-5.68-3.43c-3.28-1.76-5.37-3.17-6.22-4.2c-0.54-0.64-0.8-1.33-0.8-2.1
				c0-1.02,0.43-1.92,1.3-2.74c0.89-0.83,1.98-1.23,3.36-1.23c1.23,0,2.44,0.32,3.59,0.95c1.15,0.63,2.04,1.48,2.66,2.55
				c0.63,1.09,1.08,2.58,1.33,4.45l0.06,0.46h1.79v-11.19h-1.75l-0.09,0.42c-0.16,0.77-0.35,1.01-0.42,1.08
				c-0.14,0.13-0.32,0.19-0.56,0.19c-0.12,0-0.49-0.05-1.49-0.5c-1.8-0.79-3.54-1.19-5.16-1.19c-2.62,0-4.81,0.81-6.52,2.42
				c-1.72,1.62-2.59,3.57-2.59,5.82c0,1.29,0.3,2.5,0.88,3.58c0.58,1.07,1.44,2.05,2.55,2.93c1.09,0.86,2.86,1.97,5.42,3.41
				c2.47,1.39,4,2.3,4.54,2.71c0.77,0.59,1.34,1.22,1.7,1.88c0.35,0.65,0.53,1.3,0.53,1.93c0,1.15-0.46,2.13-1.39,2.98
				c-0.94,0.85-2.25,1.29-3.91,1.29c-1.46,0-2.82-0.33-4.04-0.98c-1.21-0.64-2.12-1.45-2.7-2.41c-0.6-0.98-1.08-2.51-1.44-4.54
				l-0.08-0.44h-1.77v11.1h1.78l0.07-0.45c0.12-0.79,0.28-1,0.32-1.05c0.07-0.07,0.19-0.16,0.48-0.16c0.18,0,0.74,0.09,2.51,0.66
				c1.45,0.47,2.38,0.73,2.85,0.81c0.77,0.13,1.61,0.2,2.49,0.2c2.83,0,5.19-0.86,7-2.55c1.82-1.7,2.75-3.76,2.75-6.12
				c0-1.24-0.29-2.45-0.87-3.59C693.45,909.21,692.62,908.22,691.57,907.39z"/>
		</defs>
		<use xlink:href="#SVGID_7_"  style="overflow:visible;fill:#FFB8BC;"/>
		<clipPath id="SVGID_8_">
			<use xlink:href="#SVGID_7_"  style="overflow:visible;"/>
		</clipPath>
	</g>
	<g>
		<defs>
			<path id="SVGID_9_" d="M765.08,906.77h0.53c1.36,0,1.97,0.16,2.24,0.3c0.37,0.19,0.63,0.45,0.8,0.8c0.1,0.21,0.28,0.84,0.28,2.65
				v8.16c-0.81,0.44-1.66,0.78-2.53,1.01c-0.96,0.26-1.96,0.39-2.99,0.39c-1.74,0-3.46-0.52-5.11-1.53
				c-1.65-1.01-3.01-2.64-4.04-4.84c-1.04-2.22-1.57-4.72-1.57-7.42c0-3.32,0.79-6.22,2.35-8.61c1.86-2.82,4.5-4.19,8.07-4.19
				c2.58,0,4.72,0.8,6.35,2.38c1.14,1.1,2.09,2.78,2.82,4.99l0.12,0.36h1.71l-0.84-10.3h-1.78l-0.03,0.5
				c-0.05,0.87-0.2,1.13-0.25,1.19c-0.12,0.15-0.21,0.17-0.28,0.17c-0.07,0-0.4-0.03-1.44-0.42c-1.64-0.61-2.88-0.99-3.78-1.17
				c-0.9-0.18-1.91-0.27-3.01-0.27c-3,0-5.65,0.66-7.87,1.95c-2.64,1.56-4.74,3.81-6.25,6.69c-1.27,2.43-1.92,5-1.92,7.65
				c0,3.66,1.15,6.94,3.42,9.75c3.03,3.74,7.51,5.64,13.31,5.64c2,0,3.86-0.22,5.51-0.64c1.65-0.43,3.33-1.1,5.02-2.01l0.28-0.15
				v-9.28c0-1.84,0.2-2.59,0.36-2.9c0.32-0.57,0.93-0.85,1.85-0.85h1.07v-1.88h-12.4V906.77z"/>
		</defs>
		<use xlink:href="#SVGID_9_"  style="overflow:visible;fill:#FFB8BC;"/>
		<clipPath id="SVGID_10_">
			<use xlink:href="#SVGID_9_"  style="overflow:visible;"/>
		</clipPath>
	</g>
	<g>
		<defs>
			<path id="SVGID_11_" d="M815.25,893.44h1.54c0.99,0,1.71,0.24,2.14,0.73c0.14,0.16,0.47,0.76,0.47,3.02v15.41l-17.13-21.01h-8.73
				v1.85h0.53c0.79,0,1.38,0.06,1.74,0.17c0.79,0.25,1.39,0.53,1.79,0.81c0.27,0.19,0.78,0.65,1.71,1.73v20.17
				c0,2-0.24,2.65-0.38,2.85c-0.42,0.6-1.14,0.9-2.22,0.9h-1.54v1.85h11.25v-1.85h-1.56c-0.98,0-1.7-0.25-2.13-0.73
				c-0.14-0.16-0.45-0.76-0.45-3.02v-16.56l18.53,22.64h1.56v-25.22c0-2,0.24-2.65,0.38-2.85c0.42-0.6,1.14-0.9,2.2-0.9h1.56v-1.85
				h-11.25V893.44z"/>
		</defs>
		<use xlink:href="#SVGID_11_"  style="overflow:visible;fill:#FFB8BC;"/>
		<clipPath id="SVGID_12_">
			<use xlink:href="#SVGID_11_"  style="overflow:visible;"/>
		</clipPath>
	</g>
	<g>
		<defs>
			<path id="SVGID_13_" d="M889.79,893.44h1.56c0.61,0,1.16,0.15,1.71,0.45c0.35,0.2,0.58,0.42,0.68,0.66
				c0.09,0.23,0.24,0.9,0.24,2.77v7.85h-12.55v-7.85c0-1.71,0.12-2.4,0.23-2.68c0.13-0.34,0.35-0.59,0.68-0.77
				c0.54-0.29,1.12-0.43,1.72-0.43h1.59v-1.85h-13.61v1.85h1.56c0.61,0,1.17,0.15,1.72,0.45c0.34,0.2,0.56,0.42,0.66,0.67
				c0.11,0.28,0.24,0.99,0.24,2.77v18.9c0,2.22-0.29,2.84-0.41,3c-0.45,0.58-1.17,0.85-2.22,0.85h-1.56v1.85h13.61v-1.85h-1.59
				c-0.61,0-1.16-0.15-1.71-0.45c-0.35-0.2-0.58-0.42-0.67-0.66c-0.11-0.28-0.24-0.99-0.24-2.74v-8.39h12.55v8.39
				c0,2.21-0.3,2.84-0.43,3c-0.45,0.58-1.17,0.85-2.2,0.85h-1.56v1.85h13.58v-1.85h-1.56c-0.61,0-1.17-0.15-1.72-0.45
				c-0.34-0.2-0.56-0.42-0.66-0.67c-0.11-0.28-0.24-0.99-0.24-2.74v-18.9c0-1.71,0.12-2.4,0.22-2.69c0.12-0.34,0.34-0.58,0.69-0.76
				c0.54-0.29,1.12-0.43,1.72-0.43h1.56v-1.85h-13.58V893.44z"/>
		</defs>
		<use xlink:href="#SVGID_13_"  style="overflow:visible;fill:#FFB8BC;"/>
		<clipPath id="SVGID_14_">
			<use xlink:href="#SVGID_13_"  style="overflow:visible;"/>
		</clipPath>
	</g>
	<g>
		<defs>
			<path id="SVGID_15_" d="M1038.31,907.39c-1.02-0.8-2.93-1.95-5.68-3.43c-3.28-1.76-5.37-3.17-6.22-4.2
				c-0.54-0.64-0.8-1.33-0.8-2.1c0-1.02,0.43-1.92,1.3-2.73c0.89-0.83,1.98-1.23,3.36-1.23c1.23,0,2.44,0.32,3.59,0.95
				c1.15,0.63,2.04,1.48,2.66,2.54c0.63,1.09,1.08,2.59,1.33,4.45l0.06,0.46h1.79v-11.19h-1.75l-0.09,0.42
				c-0.16,0.77-0.35,1.01-0.42,1.07c-0.14,0.13-0.32,0.19-0.56,0.19c-0.12,0-0.49-0.05-1.49-0.5c-1.8-0.79-3.54-1.19-5.16-1.19
				c-2.62,0-4.81,0.81-6.52,2.42c-1.72,1.62-2.59,3.57-2.59,5.82c0,1.29,0.3,2.5,0.89,3.58c0.58,1.07,1.44,2.05,2.54,2.93
				c1.09,0.86,2.86,1.97,5.42,3.41c2.48,1.39,4,2.3,4.54,2.71c0.77,0.59,1.34,1.22,1.7,1.88c0.35,0.65,0.53,1.3,0.53,1.93
				c0,1.15-0.46,2.13-1.39,2.98c-0.94,0.85-2.25,1.29-3.91,1.29c-1.46,0-2.82-0.33-4.04-0.98c-1.21-0.64-2.12-1.45-2.7-2.41
				c-0.6-0.98-1.08-2.51-1.44-4.54l-0.08-0.44h-1.77v11.1h1.78l0.07-0.45c0.12-0.79,0.28-1,0.32-1.05c0.07-0.07,0.19-0.16,0.47-0.16
				c0.18,0,0.74,0.09,2.51,0.66c1.44,0.47,2.38,0.73,2.85,0.81c0.77,0.13,1.61,0.2,2.49,0.2c2.83,0,5.19-0.86,7-2.55
				c1.82-1.7,2.75-3.76,2.75-6.12c0-1.24-0.29-2.45-0.87-3.59C1040.2,909.21,1039.37,908.22,1038.31,907.39z"/>
		</defs>
		<use xlink:href="#SVGID_15_"  style="overflow:visible;fill:#FFB8BC;"/>
		<clipPath id="SVGID_16_">
			<use xlink:href="#SVGID_15_"  style="overflow:visible;"/>
		</clipPath>
	</g>
	<g>
		<defs>
			<path id="SVGID_17_" d="M1085.39,913.53l-0.15,0.28c-0.91,1.74-1.8,3.06-2.64,3.91c-0.63,0.61-1.28,1.03-1.95,1.23
				c-0.7,0.21-1.86,0.32-3.45,0.32h-4.97c-0.97,0-1.28-0.12-1.38-0.18c-0.18-0.11-0.31-0.24-0.38-0.41
				c-0.03-0.08-0.13-0.45-0.13-2.16v-9.13h5.91c1.14,0,1.98,0.13,2.49,0.38c0.49,0.24,0.83,0.55,1.03,0.95
				c0.1,0.2,0.3,0.8,0.55,2.58l0.06,0.45h1.78v-11.25h-1.83l-0.03,0.5c-0.08,1.52-0.44,2.57-1.08,3.13c-0.32,0.28-1.09,0.62-3,0.62
				h-5.91v-10.52h7.51c1.72,0,2.51,0.16,2.84,0.28c0.62,0.26,1.08,0.63,1.39,1.11c0.23,0.36,0.57,1.17,0.93,2.99l0.08,0.43h1.83
				l-0.38-7.47h-23.6v1.85h1.56c1.05,0,1.79,0.23,2.19,0.68c0.1,0.12,0.43,0.69,0.43,3.09v19.03c0,1.69-0.12,2.37-0.22,2.65
				c-0.12,0.33-0.34,0.58-0.69,0.75c-0.54,0.29-1.12,0.43-1.72,0.43h-1.56v1.85h23.48l2.89-8.4H1085.39z"/>
		</defs>
		<use xlink:href="#SVGID_17_"  style="overflow:visible;fill:#FFB8BC;"/>
		<clipPath id="SVGID_18_">
			<use xlink:href="#SVGID_17_"  style="overflow:visible;"/>
		</clipPath>
	</g>
</g>
<g>
	<g>
		<g>
			<g>
				<path class="st0" d="M466.6,606.09l-0.83-0.12c-0.19-0.02-0.37-0.05-0.55-0.07c-0.02-0.01-0.06-0.01-0.08-0.01
					c-0.05,0-0.1-0.01-0.13-0.01c1,0.17,2.76,0.45,5.14,0.82C468.96,606.47,467.79,606.27,466.6,606.09z M464,605.72
					c0,0,0.02,0,0.05,0.01c0.04,0,0.08,0.01,0.14,0.02c0.04,0,0.07,0.01,0.12,0.01C464.21,605.75,464.1,605.72,464,605.72z"/>
			</g>
		</g>
		<g>
			<path class="st0" d="M664.61,604.07c-3.64-5.7-9.22-8.9-15.37-10.91c-18.21-5.98-36.98-7.17-55.73-3.94
				c-22.57,3.91-44.91,9.31-63.67,23.35h-0.01c-0.07,0.05-0.11,0.08-0.18,0.13c-0.4,0.3-0.81,0.58-1.19,0.83
				c-11.78-1.82-20.89-3.5-28.29-4.96c-7.09-1.38-14.35-2.23-21.53-2.71c-7.38-0.37-14.32-1.31-21.56-1.51
				c-14.87-0.37-30.29,0.52-44.97,2.66c-19.58,2.87-38.99,6.71-58.2,11.86c-16.33,4.38-32.65,8.85-48.98,13.25
				c-24.57,6.62-48.6,15.05-73.1,21.86c-9.53,2.64-19.11,5.03-28.83,7c-18.65,3.75-37.27,8.06-56.47,8.92
				c-18.5,0.84-36.91,2.06-55.13-2.7c-14.15-3.7-28.02-7.62-38.96-18.2c-3.31-3.19-5.71-7.07-3.73-10.85
				c0.86-1.6,1.94-3.08,2.75-4.72c0.77-1.58,1.98-2.9,2.7-4.53c0.77-1.83,1.01-4.4-0.9-5.56c-1.45-0.89-2.96-0.52-4.35,1.17
				c-6.5,7.92-8.65,23.15,1.91,31.86c2.42,1.99,4.95,4.01,7.51,5.65c14.35,9.14,30.49,13.69,47.21,14.98
				c19.85,1.58,39.73,1.6,59.68-0.69c51.72-5.94,102.6-17.03,153-30.01c14.22-3.66,28.19-8.33,42.44-11.87
				c22.07-5.49,44.23-10.67,66.46-15.41c8.49-1.81,17.32-2.05,26.24-3.05c-0.39,2.95-1.71,4.54-2.88,6.21
				c-29.17,41.39-51.93,86.18-69.53,133.53c-5.15,13.84-9.07,28.31-6.55,43.53c0.67,4.12,1.69,8.15,4.87,11.12
				c1.2,1.12,2.93,2.37,4.58,1.28c1.43-0.96,0.77-2.7,0.25-4.15c-3.2-9.02-2.87-18.2-0.77-27.29c5.91-25.48,16.73-49.12,27.95-72.55
				c14.82-30.93,34.25-59.15,52.72-87.93c3.07-4.77,7.95-4.88,12.48-4.53c8.39,0.66,16.91,0.9,25.24,2.14
				c5.83,0.87,11.45,0.93,18.67,2.22c-8.6,7.16-15.9,13.64-21.82,21.47c-1.17,1.55-2.77,2.66-0.39,4.58c2.13,1.7,2.9,0.13,3.99-1.18
				c6.02-7.31,13.31-13.34,19.89-20.1c2.89-2.96,6.18-4.15,10.19-3.49c13.11,2.13,26.27,4.2,39.37,6.41
				c18.29,3.08,36.77,3.5,55.24,3.71c11.56,0.12,23.01-1.34,33.25-7.49C668.61,618.33,669.92,612.38,664.61,604.07z M655.13,619.1
				c-7.14,4.49-14.94,6.77-23.47,7.09c-0.7,0.01-1.38,0.04-2.08,0.06l-19.22-0.41c-8.38-0.19-19.94-1.59-28.23-2.85
				c-15.69-2.39-29.54-5.73-46-8.27c0.52-0.36,1.04-0.72,1.57-1.06c12.36-8.41,26.16-12.66,40.17-16.46
				c19.21-5.19,38.72-5.53,58.3-3.29c7.59,0.87,15.19,3.1,20.81,8.95C663.05,609.2,662.43,614.5,655.13,619.1z"/>
		</g>
		<g>
			<g>
				<path class="st0" d="M704.41,739.11c-6.58,2.42-12.56,5.97-18.59,9.44c-12.71,7.32-25.31,14.85-38.18,21.93
					c-3.28,1.79-7.45,4.36-11.1,1.63c-4.23-3.14-3.66-8.32-3.34-13.07c0.05-0.75,0.37-1.46,0.49-2.2c1-5.85,3.72-10.98,6.6-16.09
					c1.32-2.35,3.11-5.11-0.41-7.42c-8.35-5.52-16.33-5.83-23.88,0.84c-8.74,7.74-19.34,12.26-29.08,18.2
					c-6.35,3.85-12.92,7.65-20.44,9.27c-6.18,1.32-8.25-0.25-7.32-6.44c0.22-1.45,0.9-2.83,1.53-4.18
					c3.14-6.83,6.36-13.61,9.48-20.44c1.67-3.64,2.46-7.21-1.28-10.22c-3.41-2.75-6.2-0.83-9.25,0.88
					c-8.57,4.83-14.25,12.83-21.33,19.27c-2.59,2.35-4.88,5.09-8.3,6.48c-1.38-2.57,0.45-3.76,1.4-5.29
					c2.12-3.53,4.17-7.12,6.26-10.67c1.88-3.18-0.24-4.96-2.42-6.52c-2.42-1.73-4.14-0.39-5.71,1.6c-2.2,2.81-4.76,5.41-5.9,8.89
					c-1.57,4.73-5.27,7.53-9.51,8.98c-15.34,5.23-27.54,15.08-39.27,25.71c-6.39,5.79-11.91,12.62-19.57,16.93
					c-4.02,2.26-6.74,1.22-7.04-3.23c-0.28-4.07-0.48-8.15,0.67-12.32c3.37-12.09,8.75-23.12,16.26-33.17
					c1.85-2.51,3.55-5.06,0.45-7.94c-3.25-3-5.86-1.18-8.37,1.04c-1.11,0.99-1.99,2.26-2.9,3.44c-5.55,7.3-8.18,16-11.55,24.33
					c-3.19,7.89-3.66,15.99-1.43,24.25c1.4,5.2,4.01,9.53,9.55,10.77c5.52,1.25,9.89-1.32,13.37-5.48
					c6.66-7.91,14.08-15.09,21.93-21.82c9.49-8.1,20.06-14.49,31.23-19.96c1.42-0.7,3.11-2.55,4.21,0.88
					c3.03,9.44,6.54,10.06,13.63,3.26c7.07-6.74,13.22-14.45,21.11-20.34c1.32-0.99,2.84-2.79,4.34-1.65
					c1.59,1.19,0.07,3.14-0.52,4.65c-0.82,2.07-1.63,4.23-2.85,6.07c-2.67,4.02-3.87,8.53-4.61,13.17
					c-1.77,10.91,5.59,17.46,16.31,14.49c2.16-0.59,4.26-1.45,6.27-2.42c9.16-4.4,17.71-9.85,26.4-15.1
					c1.25-0.77,2.44-2.42,3.95-1.58c1.87,1.04-0.04,2.64-0.06,4c-0.1,4.26-1.32,9.12,3.24,11.81c4.18,2.46,6.91-1.25,9.86-3.41
					c2.63-1.93,4.35-3.31,5.21,1.82c1.43,8.5,8.2,16.92,20.35,14.86c4.01-0.67,7.37-2.81,10.75-4.83
					c17.75-10.55,34.02-23.65,53.45-31.36c0.9-0.36,1.69-0.86,1.66-2.08C708.17,737.54,706.4,738.37,704.41,739.11z M629.89,737.99
					c-4.06,6.89-7.44,14.38-16.57,18.71c1.76-10.08,7.61-15.98,14.11-21.44c0.69-0.57,1.81-0.85,2.54,0.08
					C630.61,736.17,630.41,737.12,629.89,737.99z"/>
			</g>
		</g>
		<g>
			<g>
				<path class="st0" d="M1228.04,755.09c0.1-0.06,0.36-0.28,0.73-0.57C1228.5,754.69,1228.26,754.88,1228.04,755.09z
					 M1228.01,755.1v0.01c0,0,0.01-0.01,0.02-0.02C1228.02,755.09,1228.01,755.09,1228.01,755.1z"/>
			</g>
		</g>
		<g>
			<g>
				<path class="st0" d="M1135.57,732.14c-3.52-3.17-6.96-2.18-10.02,3.77c-1.23,2.37-2.43,4.2-5,4.64
					c-4.81,0.79-8.8,3.25-12.68,5.86c-11.51,7.78-23.54,14.73-35.48,21.8c-3.4,2-6.94,3.6-10.89,4.32c-5.25,0.96-8.21-1.12-8.6-6.46
					c-0.69-9.55,0.41-18.65,5.96-26.9c2.93-4.34,1.54-6.82-3.59-7.2c-0.88-0.06-1.69,0.17-2.65-0.19
					c-8.85-3.32-13.48-2.3-18.64,5.56c-2.53,3.85-5.18,7.62-8.21,11.08c-3.02,3.44-6.43,6.56-10.28,9.04
					c-1.77,1.13-3.61,2.19-5.2,3.59c-0.08,0.07-0.7,0.49-0.7,0.53c-1.29,0.94-2.69,1.95-1.14,3.55c0.36,0.37,0.83,0.63,1.36,0.47
					c0.47-0.13,0.85-0.48,1.22-0.78c0.46-0.37,0.96-0.66,1.46-0.99c1.22-0.79,2.34-1.72,3.4-2.72c0.36-0.33,0.78-0.65,1.1-1.02
					c1.57-1.53,3.08-3.11,4.82-4.46c0.57-0.45,1.16-0.87,1.77-1.25c0.3-0.19,0.61-0.39,0.94-0.55c0.1-0.06,0.99-0.45,0.99-0.49
					c0.22,4.09,0.34,7.56,4.6,9.26c3.9,1.55,6-0.95,8.51-2.77c1.17-0.84,1.96-2.59,3.78-1.81c1.72,0.76,1.29,2.49,1.46,3.96
					c1.18,9.96,8.62,15.44,18.56,14.1c9.06-1.19,15.47-7.26,22.78-11.69c12.15-7.38,23.28-16.5,36.83-21.5
					c1.81-0.66,3.77-2.26,5.52,0.14c1.7,2.3,2.11,4.61,0.34,7.24c-2.52,3.72-4.8,7.62-7.19,11.45
					c-5.84,9.41-11.84,18.76-13.86,29.93c-1.2,6.7,3.54,15.09,9.36,16.98c5.2,1.69,11.83-1.71,15.25-8.18
					c-3.95-0.16-6.03,3.12-9.08,4.19c-5.67,1.95-8.23,0.55-9.63-5.31c-1.69-7.07,1.52-12.8,4.71-18.49
					c5.38-9.66,11.01-19.21,16.59-28.77c1.37-2.37,2.58-4.74,0.59-7.29c-2.04-2.56-1.16-4.41,1.13-6.15
					C1138.55,736.45,1138.03,734.33,1135.57,732.14z M1047.31,743.19c-2.69,5.12-7.5,8.38-11.06,12.75
					c-0.66,0.82-2.1,1.99-3.43,0.91c-0.96-0.77-0.75-2.07-0.36-3.17c2.64-7.47,7.47-13.43,13.3-18.55c1.66-1.46,3.79-0.93,5.11,1.55
					C1049.64,738.94,1048.44,741.05,1047.31,743.19z"/>
			</g>
		</g>
		<g>
			<g>
				<path class="st0" d="M1004.62,725.08c-0.88-0.25-1.85-0.24-2.79-0.25c-10.49-0.19-15.62,7.39-20.23,14.86
					c-2.16,3.49-4.13,6.45-8,7.9c-9.86,3.38-19.86,4.42-30.42,2.41c2.47-4.05,4.54-7.6,6.78-11.06c3.7-5.71,4.89-12.26,5.31-18.74
					c0.64-9.61-12.78-17.12-22.28-11.89c-13.14,7.24-22.1,17.56-11.36,32.61c2.82,3.96,2.07,6.79-1.45,9.55
					c-10.95,8.59-21.62,17.55-32.86,25.72c-9.28,6.71-23.93,6.52-29.32-6.84c-2.44-6.08-5.65-11.89-9.01-17.52
					c-2.16-3.6-0.82-5.18,2.32-6.32c7.06-2.56,13.62-6.18,20.44-9.2c19.89-8.84,36.87-21.87,52.48-36.56
					c15.41-14.51,28.07-31.31,35.21-51.65c6.17-17.59,1.82-32.05-16.56-39.75c-16.35-6.86-32.39-3.03-47.1,4.96
					c-27.89,15.15-48.56,37.71-63.54,65.57c-1.48,2.76-3.25,5.37-4.88,8.04c2.71-11.77,6.03-23.07,10.68-33.95
					c8.49-19.89,15.98-40.42,33.78-54.55c0.79-0.64,1.23-1.47,0.86-2.47c-0.53-1.43-1.76-1.19-2.87-1.02
					c-1.54,0.24-2.61,1.36-3.82,2.26c-12.55,9.43-20.29,22.68-28.02,35.78c-11.13,18.91-16.7,40.08-23.86,60.65
					c-11.27,32.5-16.59,66.15-20.56,100.12c-0.28,2.42-0.06,5.35,3.07,5.79c2.99,0.42,2.84-2.53,3.35-4.37
					c3.7-13.79,7.09-27.67,9.63-41.74c0.82-4.5,2.34-6.7,7.42-4.93c5.89,2.02,11.96,3.16,18.28,1.37c3.28-0.93,5.78,0.48,7.42,3.62
					c3.34,6.32,6.92,12.52,10.24,18.86c3.62,6.92,8.56,11.8,16.91,12.17c7.07,0.31,13.21-2.05,18.87-6.05
					c8.91-6.29,17.8-12.57,26.73-18.8c1.24-0.85,2.4-2.34,4.31-0.78c6.72,5.43,9.03,5.44,15.32-0.93c2.89-2.93,5.68-3.89,9.81-3.89
					c4.91,0,9.83,0.59,14.75,0.34c4.24-0.22,7.88-2.05,11.87-3.2c2.55-0.73,6.9-3.72,9.14-1.46c2.2,2.23,5,2.57,7.65,3.18
					c8.06,1.87,10.25,5.61,6.44,12.89c-4.25,8.14-11.27,13.46-19.68,16.92c-2.95,1.22-6.27,4.18-9.26,1.26
					c-3.03-2.96,0.33-5.77,1.67-8.5c0.94-1.9,1.46-3.84-1.76-3.66c-4.26,0.24-8.23,5.71-8.01,10.85c0.23,5.08,3.38,6.7,7.94,6.65
					c15.38-0.19,26.27-8.36,34.27-20.48c6.39-9.69,3.07-16.02-8.39-18.11c-2.52-0.46-5.25-0.96-5.59-4.52
					c-0.66-7.13,10.54-18.57,17.91-18.15c0.95,0.06,2.02,0.23,2.25-0.96C1006.37,726.07,1005.55,725.33,1004.62,725.08z
					 M833.83,744.03c-0.63,2.05-2.87,2.12-4.79,2.13c-0.57,0.01-1.13,0-1.7,0.01c-4.09,0.26-7.7-1.48-11.37-2.89
					c-1.67-0.64-3.06-1.64-2.63-3.76c0.4-1.96,2-2,3.53-2.05c4.77-0.17,9.39,0.52,13.66,2.71C832.1,741,834.6,741.58,833.83,744.03z
					 M841.41,741.35c-5.8-6.42-13.23-9.1-21.76-8.55c-3.79,0.24-4.2-1.26-3.02-4.26c14.31-35.98,31.67-70.17,60.9-96.56
					c13.87-12.52,29.9-21.69,49.65-21.5c4.41,0.05,8.63,1.01,12.66,2.52c8.32,3.11,11.96,9.25,12.11,21.69
					c-0.37,16.51-8.18,32.14-19.2,46.68c-22.17,29.23-51.45,48.39-85.33,61.22C845.05,743.48,843.25,743.4,841.41,741.35z
					 M932.33,752.4c-1.24,2.61-3.42,4.74-6.19,5.9c-1.49-0.58-2.71-1.47-1.93-2.9c1.25-2.25,1.42-5.85,5.15-5.59
					C930.64,749.9,932.95,751.09,932.33,752.4z M932.32,747.35c-3-2.36,0.28-3.55,1.04-4.89c1.1-1.9,3-3.34,4.43-5.06
					c1.04-1.23,2.61-2.51,0.73-4.29c-1.75-1.69-3.36-1.79-5.4-0.14c-2.52,2.04-3.19,5.42-5.67,7.49
					c-6.41-8.97-2.76-21.45,7.14-25.08c6.37-2.34,12.99,2.44,12.55,9.1c-0.54,8.11-3.65,15.17-8.79,21.42
					C936.68,747.94,935.05,749.48,932.32,747.35z"/>
			</g>
		</g>
		<g>
			<g>
				<path class="st0" d="M1182.88,714.69c-2.74-0.69-6.39-0.74-6.42-5.05c-0.02-2.26,1.36-5.28,3.7-4.53
					c3.28,1.05,8.44,0.55,9.26,4.6C1189.98,712.44,1186.6,714.59,1182.88,714.69z"/>
			</g>
		</g>
		<g>
			<g>
				<path class="st0" d="M478.22,714.78c-3.15-0.25-6.26-0.98-6.53-4.73c-0.16-2.18,0.94-5.12,3.75-4.45
					c3.38,0.81,8.46,0.5,9.28,4.51C485.24,712.67,481.8,715.07,478.22,714.78z"/>
			</g>
		</g>
	</g>
	<path class="st0" d="M1394.37,775.59c-1.48-1.54-3.19-2.85-5.15-3.7c-1.23-0.53-2.55-0.91-4.02-1.1
		c-4.96-0.61-10.08,0.77-14.57,2.81c-1.6,0.72-3.18,1.55-4.74,2.42c-1.07,0.6-2.13,1.22-3.2,1.82c-5.78,3.25-11.75,6.72-18.59,6.78
		c-1.97,0.02-4.18,0.05-6.07-0.58c-1.24-0.41-2.84-0.83-3.93-1.58c-1.18-0.78-2.24-1.77-3.12-2.97c-2.9-3.93-3.44-9.43-3.67-14.21
		c-0.02-0.49-0.02-1.01-0.01-1.54c0.07-3.14,0.58-6.72-0.93-9.44c-2.3-4.14-8.49-2.07-11.72-0.45c-7.51,3.85-13.72,9.89-20,15.4
		c-2.35,2.07-4.83,4.05-7.49,5.7c-1.59,0.99-3.26,1.85-5.01,2.56c-0.55,0.23-1.12,0.43-1.69,0.63c-1.28,0.42-2.65,0.76-3.94,0.37
		c-2.63-0.78-3.53-4.06-3.55-6.79c-0.07-9.45,5.01-18.47,4.36-27.89c-0.16-2.19-0.64-4.4-1.73-6.31c-1.1-1.9-2.85-3.48-4.99-4.06
		c-2.12-0.57-4.35-0.1-6.43,0.7c-0.51,0.19-1,0.4-1.48,0.61c-2.38,1.07-4.65,2.36-6.89,3.71c-0.01,0-0.02,0.01-0.04,0.02
		c-4.9,2.96-9.63,6.29-14.93,8.48c-0.78,0.32-1.58,0.64-2.35,0.97c-0.64,0.28-3.31,1.23-4.01,1.4c-0.18,0.05-0.29,0.1-0.35,0.1
		c5.46-8.43,10.95-17.09,11.38-27.12c0.16-3.59-0.43-7.37-2.58-10.27c-2.57-3.47-7.01-5.15-11.31-5.37
		c-7.39-0.36-14.86,3.35-19.03,9.45c-4.18,6.11-4.91,14.4-1.89,21.16c1.11,2.47,2.71,4.89,2.59,7.59c-0.18,3.66-3.4,6.32-6.31,8.55
		c-11.55,8.84-22.46,18.5-32.65,28.88c-1.98,2.01-4,4.11-6.6,5.21c-2.6,1.1-5.96,0.93-7.84-1.18c-1.71-1.92-1.73-4.78-1.48-7.33
		c1.37-14.38,8.09-27.77,16.34-39.64c1.14-1.65,2.36-3.36,2.66-5.35c0.31-1.99-0.63-4.32-2.57-4.89c-2.31-0.67-4.46,1.39-5.93,3.31
		c-5.06,6.61-9.18,13.92-12.39,21.62c-3.85,9.19-6.41,19.52-3.64,29.1c1.54,5.32,5.68,10.69,11.21,10.59
		c4.06-0.07,7.41-3.04,10.34-5.82c10.22-9.68,20.46-19.36,30.68-29.05c0.53-0.49,1.08-1.01,1.77-1.23c1.31-0.4,2.7,0.39,3.66,1.36
		c0.96,0.98,1.72,2.17,2.85,2.93c2.6,1.75,6.21,0.6,8.68-1.32c2.47-1.91,4.37-4.54,7.01-6.23c0.22-0.13,0.43-0.27,0.69-0.4
		c0.04-0.02,0.06-0.05,0.1-0.05c0.64-0.36,1.31-0.65,1.99-0.88c0.01-0.01,0.04-0.02,0.06-0.02c0.26-0.12,0.53-0.24,0.82-0.35v-0.01
		h0.01c0.64-0.21,1.26-0.45,1.89-0.69c0.86-0.33,1.7-0.63,2.54-0.96c0.41-0.17,0.83-0.34,1.25-0.52c0.83-0.35,1.66-0.71,2.49-1.08
		c1.65-0.76,3.28-1.55,4.9-2.37c1.61-0.83,3.23-1.69,4.82-2.55c1.6-0.87,3.19-1.76,4.78-2.64c1.06-0.6,2.12-1.19,3.18-1.78
		c1.41-0.78,2.82-1.57,4.24-2.32c1.53-0.83,3.22-1.66,4.94-1.41c1.55,0.24,2.87,1.37,3.62,2.76c0.76,1.37,1.02,2.97,1.08,4.54
		c0.23,5.25-1.54,10.36-2.94,15.41c-1.4,5.07-2.43,10.54-0.75,15.51c0.69,2.04,1.87,3.97,3.66,5.15c2.79,1.82,6.54,1.46,9.61,0.16
		c0.16-0.07,0.33-0.13,0.48-0.22c1.65-0.72,3.28-1.64,4.85-2.62c1.46-0.92,2.87-1.89,4.19-2.85c3.13-2.28,5.83-5.08,8.62-7.76
		c2.76-2.63,5.76-4.97,8.88-7.15c2.25-1.58,4.87-3.2,7.64-3.67c1.16-0.2,2.34-0.2,3.53,0.08c4.02,0.95,3.58,5.89,3.49,9.08
		c-0.02,0.84-0.02,1.7,0,2.57v0.04c0.19,7.43,2.28,15.68,9.14,19.11c0.04,0.02,0.06,0.04,0.1,0.05c0.55,0.28,1.13,0.52,1.75,0.72
		c0.24,0.08,0.47,0.16,0.73,0.23c9.24,2.7,18.17-2.36,25.99-6.83c0.78-0.45,1.59-0.89,2.41-1.34c1.14-0.61,2.32-1.2,3.52-1.76
		c7.49-3.48,15.91-5.33,22.92,0.41c3.87,3.15,7.24,6.51,12.07,8.31c4.58,1.69,9.16,2.28,14.01,2c11.36-0.64,22.78-2.87,33.8-5.59
		c2.79-0.69,5.59-1.43,8.36-2.23c0.63-0.18,1.24-0.71,1.73-1.28C1411.02,794.16,1401.49,782.99,1394.37,775.59z M1222.57,752.26
		c-1.14,2.36-3,4.71-5.7,5.47c-2.19-0.19-2.34-1.72-1.83-2.87c0.98-2.18,1.3-5.34,4.4-5.47
		C1220.63,749.33,1223.46,750.4,1222.57,752.26z M1228.04,755.09c-0.01,0.01-0.02,0.02-0.02,0.02v-0.01
		C1228.01,755.09,1228.02,755.09,1228.04,755.09c0.23-0.21,0.47-0.4,0.73-0.57C1228.4,754.81,1228.13,755.03,1228.04,755.09z
		 M1227.42,747.51c-1.63,2-3.03,0.48-4.36-0.46c-1.57-1.11-1.57-2.32-0.14-3.7c1.88-1.85,3.77-3.72,5.42-5.76
		c1.07-1.32,2.95-2.89,0.99-4.76c-1.93-1.83-4.02-1.52-6.11,0.08c-2.46,1.88-2.36,5.61-5.7,7.31c-5.08-10.25-2.49-20.34,6.11-24.48
		c7.19-3.43,13.81,0.67,13.9,8.54C1237.61,733.57,1232.92,740.72,1227.42,747.51z"/>
	<path class="st0" d="M1228.03,755.09c-0.01,0.01-0.02,0.02-0.02,0.02v-0.01C1228.01,755.09,1228.02,755.09,1228.03,755.09z"/>
	<path class="st0" d="M1228.77,754.53c-0.37,0.29-0.64,0.51-0.73,0.57C1228.26,754.89,1228.5,754.69,1228.77,754.53z"/>
	<path class="st0" d="M1278.95,722.14v0.08c0-0.02-0.01-0.07-0.01-0.12C1278.94,722.12,1278.95,722.13,1278.95,722.14z"/>
	<g>
		<polygon class="st0" points="1232.77,752.68 1232.75,752.69 1232.75,752.68 		"/>
	</g>
</g>
</svg>
