<svg width="52" height="40" viewBox="0 0 52 40" fill="none" xmlns="http://www.w3.org/2000/svg">
<g clip-path="url(#clip0_685_1537)">
<path d="M0.698997 3.93171C2.74253 0.659353 5.76627 -0.545742 9.46955 0.22465C13.4735 1.05542 16.3799 3.37384 17.3308 7.42866C17.6877 8.95012 17.3039 10.6406 17.2477 12.5992C19.4892 13.8695 22.1145 15.3886 24.7862 16.8207C25.0894 16.9825 25.7053 16.7289 26.1062 16.5309C32.7501 13.203 39.3843 9.85334 46.0209 6.50854C48.0228 5.49906 50.257 5.90478 51.9999 7.66292C44.7938 11.7564 37.617 15.8329 30.2935 19.994C37.6023 24.1454 44.7595 28.2123 51.9217 32.2816C50.719 33.9818 48.0546 34.5107 46.0184 33.4819C40.6187 30.7505 35.2214 28.0167 29.8217 25.2877C28.5164 24.6284 27.216 23.9571 25.8887 23.3509C25.5293 23.1867 24.972 23.0611 24.6738 23.2205C22.0705 24.6309 19.5063 26.1088 16.8321 27.6231C17.915 30.0526 17.8563 32.4217 16.573 34.716C15.4046 36.805 13.6617 38.2685 11.4617 39.2007C8.80712 40.3261 5.8836 40.3454 3.43185 38.7225C2.13876 37.8676 1.01433 36.8001 0.576777 35.3052C0.068339 33.5761 0.139227 31.533 0.992327 29.9125C2.62764 26.7488 5.26516 24.9593 8.76312 24.2855C10.7578 23.9015 12.7817 23.561 14.6982 22.9234C16.7857 22.2279 18.7657 21.2088 20.7921 20.3297C20.8019 20.1558 20.8043 20.1268 20.8165 19.953C20.0954 19.5207 19.3988 19.0449 18.6581 18.6513C15.7884 17.1322 12.6864 16.3159 9.494 15.8329C6.70003 15.4103 4.24829 14.3694 2.41009 12.1911C1.76721 11.4303 1.2661 10.5537 0.701442 9.73259C-0.139436 8.06381 -0.322767 6.18734 0.698997 3.93171ZM10.1002 28.2075C7.70713 28.3596 5.79804 29.4971 4.66873 31.7214C3.67629 33.6751 4.6565 35.4791 6.81492 35.8704C9.00022 36.2664 11.6891 34.9744 12.8991 32.9168C13.5175 31.8663 13.8231 30.7554 13.1484 29.6179C12.5006 28.5287 11.4031 28.2727 10.1002 28.2075ZM9.87288 11.766C12.7011 11.7467 14.0528 10.061 13.3195 7.92374C12.5177 5.58841 9.50622 3.74575 7.04225 4.08385C4.67606 4.40747 3.61518 6.3105 4.72984 8.38984C5.8836 10.5416 7.77557 11.6332 9.87288 11.766Z" fill="#270641"/>
</g>
<defs>
<clipPath id="clip0_685_1537">
<rect width="52" height="40" fill="white"/>
</clipPath>
</defs>
</svg>
