<svg width="57" height="51" viewBox="0 0 57 51" fill="none" xmlns="http://www.w3.org/2000/svg">
<g clip-path="url(#clip0_685_1590)">
<path d="M20.7564 50.1315C19.0115 49.1217 17.3219 48.1478 15.6364 47.1685C10.62 44.254 5.60634 41.3339 0.584403 38.4291C0.186517 38.1991 -0.00137399 37.9553 7.56222e-06 37.4608C0.0179677 29.7949 0.0124415 22.1277 0.0138231 14.4618C0.0138231 14.2637 0.0400725 14.0657 0.0607958 13.7637C1.42853 14.441 2.73133 15.0602 3.9996 15.7432C4.17782 15.8387 4.26623 16.2432 4.26623 16.5064C4.28143 21.032 4.29801 25.5589 4.26071 30.0844C4.25242 31.0222 4.53978 31.5653 5.4295 31.9351C7.42584 32.7676 9.37659 33.7054 11.3522 34.5878C12.4492 35.0782 13.1759 34.6045 13.1772 33.4062C13.1828 29.3198 13.18 25.2334 13.1814 21.1469C13.1814 20.8962 13.1814 20.6455 13.1814 20.259C14.27 20.7896 15.2744 21.2744 16.2761 21.7689C17.6383 22.4407 19.0046 23.1043 20.3489 23.8094C20.5589 23.9188 20.7979 24.2291 20.7992 24.4479C20.8214 32.8757 20.8186 41.3048 20.8158 49.7325C20.8158 49.8364 20.7854 49.9431 20.7564 50.1315Z" fill="#270641"/>
<path d="M43.8161 13.7822C43.8161 17.1206 43.8161 20.3676 43.8161 23.6132C33.2721 24.1313 26.4472 35.3849 31.4346 45.281C28.6853 46.8795 25.9319 48.4822 23.0928 50.1334C23.061 49.9007 23.0196 49.7359 23.0196 49.571C23.0168 41.2375 23.0182 32.9025 23.0127 24.569C23.0127 24.2227 23.0569 23.9844 23.4258 23.803C30.0973 20.5255 36.7605 17.2301 43.4251 13.9388C43.5232 13.8917 43.6282 13.857 43.8161 13.7822Z" fill="#270641"/>
<path d="M14.4775 18.3628C16.9256 16.9319 19.2674 15.5619 21.6119 14.1933C25.5659 11.8841 29.5268 9.58462 33.4697 7.25744C33.9104 6.99701 34.2199 7.00671 34.6537 7.26298C37.2455 8.79643 39.8566 10.2966 42.5879 11.8827C41.6374 12.3592 40.7892 12.7887 39.9381 13.2084C34.079 16.1007 28.2212 18.9931 22.3551 21.8716C22.1424 21.9755 21.8067 22.024 21.6091 21.9298C19.3489 20.8452 17.1039 19.7287 14.8547 18.6177C14.7594 18.5692 14.6737 18.4958 14.4775 18.3628Z" fill="#270641"/>
<path d="M47.8899 28.6163C43.2631 26.7836 37.5587 28.9833 35.2308 33.4396C31.5171 40.5472 36.5363 48.8586 44.5396 48.8572C44.7911 48.8572 45.0619 48.8378 45.2912 48.921C45.8051 49.1066 46.0621 49.5166 45.9737 50.061C45.8756 50.665 45.475 50.9628 44.8643 50.9891C42.6773 51.0819 40.6022 50.6276 38.6667 49.6205C33.8064 47.0938 31.1994 41.992 31.9496 36.5481C33.023 28.7659 41.2819 23.8164 48.6263 26.5717C49.1084 26.7531 49.3999 26.6977 49.6293 26.2475C49.6914 26.1256 49.7812 26.0162 49.8683 25.9095C50.2454 25.4482 50.6475 25.4441 50.892 25.9622C51.522 27.2948 52.123 28.6426 52.6977 30.0001C52.9049 30.4905 52.63 30.8423 52.1036 30.7952C50.7055 30.6706 49.3088 30.5306 47.9162 30.3617C47.1273 30.2661 47.0029 29.9128 47.4644 29.2368C47.5929 29.0498 47.7214 28.8628 47.8899 28.6163Z" fill="#270641"/>
<path d="M25.8153 2.14309C24.4227 2.94652 23.113 3.70563 21.8005 4.45919C16.5354 7.48592 11.2648 10.5029 6.00801 13.5449C5.50651 13.8344 5.11691 13.8441 4.61403 13.5698C3.56543 13.0005 2.48091 12.4963 1.27344 11.8965C2.1148 11.3964 2.86222 10.9407 3.62069 10.5016C9.5503 7.05927 15.4827 3.62528 21.404 0.169136C21.8033 -0.0635829 22.081 -0.0552715 22.4637 0.180217C23.5357 0.842357 24.6355 1.4574 25.8153 2.14309Z" fill="#270641"/>
<path d="M7.73828 15.0855C9.02036 14.343 10.1836 13.6643 11.3524 12.9924C16.7004 9.91998 22.0511 6.85308 27.3922 3.77094C27.8316 3.51745 28.1742 3.46481 28.6328 3.75709C29.6386 4.39845 30.6872 4.97332 31.8477 5.6507C30.8254 6.25466 29.8901 6.81291 28.9506 7.36146C23.5059 10.5433 18.0571 13.7183 12.6179 16.9112C12.2159 17.1481 11.8926 17.1827 11.4726 16.9639C10.2817 16.335 9.06733 15.749 7.73828 15.0855Z" fill="#270641"/>
<path d="M10.9714 31.9896C9.48067 31.3163 8.09774 30.7013 6.72724 30.0599C6.60567 30.0031 6.49652 29.7718 6.49652 29.6208C6.49376 25.4665 6.50481 21.3122 6.51449 17.1593C6.51449 17.1385 6.53245 17.1177 6.58771 17C7.31717 17.3532 8.05491 17.694 8.77746 18.0666C9.50692 18.442 10.4906 18.6803 10.8664 19.2884C11.2297 19.8744 10.9686 20.8551 10.9686 21.6613C10.9727 25.0537 10.9714 28.4448 10.9714 31.9896Z" fill="#270641"/>
<path d="M43.4198 36.289C43.4198 35.2279 43.417 34.1654 43.4198 33.1044C43.4225 32.1721 43.7721 31.7067 44.467 31.6983C45.1771 31.69 45.5556 32.1859 45.557 33.1418C45.5598 35.034 45.5377 36.9262 45.5777 38.8184C45.5847 39.1273 45.7905 39.511 46.0267 39.7216C46.6609 40.2882 47.3682 40.7716 48.0341 41.3035C48.6033 41.7579 48.7346 42.3895 48.3864 42.8758C47.9968 43.4188 47.3751 43.4977 46.7493 43.0323C45.7891 42.3161 44.8234 41.6041 43.9199 40.8201C43.6491 40.5846 43.4612 40.1219 43.4419 39.7521C43.3825 38.5982 43.4198 37.4429 43.4198 36.289Z" fill="#270641"/>
<path d="M56.9929 40.5974C56.497 41.8289 56.0466 43.0811 55.4857 44.2821C55.2619 44.76 54.712 44.8542 54.2119 44.6077C53.6938 44.3514 53.4631 43.9012 53.6441 43.343C53.9977 42.25 54.3804 41.1654 54.7811 40.0904C54.9745 39.5696 55.4055 39.3687 55.9471 39.4532C56.4514 39.5308 56.8396 40.0184 56.9929 40.5974Z" fill="#270641"/>
<path d="M57.0001 36.3569C56.8689 37.0205 56.5318 37.4083 55.9474 37.4956C55.3823 37.5801 54.9692 37.2823 54.7952 36.731C54.5064 35.8139 54.2246 34.8928 53.9745 33.9633C53.8212 33.3925 53.9759 32.8925 54.5548 32.6445C55.1212 32.4035 55.6752 32.5614 55.899 33.1127C56.3287 34.1697 56.6395 35.2737 57.0001 36.3569Z" fill="#270641"/>
<path d="M49.9157 49.6163C49.5979 49.3392 49.1945 49.1287 49.0177 48.7976C48.7938 48.3737 48.9016 47.8847 49.3396 47.5703C50.011 47.0896 50.6838 46.6089 51.376 46.1587C51.8084 45.8775 52.3265 45.8789 52.6194 46.2959C52.8376 46.6048 53.0311 47.206 52.8777 47.4567C52.2353 48.5108 51.1383 49.0178 49.9157 49.6163Z" fill="#270641"/>
</g>
<defs>
<clipPath id="clip0_685_1590">
<rect width="57" height="51" fill="white"/>
</clipPath>
</defs>
</svg>
