<svg width="50" height="51" viewBox="0 0 50 51" fill="none" xmlns="http://www.w3.org/2000/svg">
<path d="M45.4164 33.9952L45.4091 33.9884C44.247 32.9005 42.6571 32.6394 41.8494 32.5068C41.7917 32.4973 41.738 32.4885 41.6887 32.4801L41.682 32.4789C41.1119 32.3835 40.8786 32.3071 40.7458 32.2468C40.6395 32.1985 40.5111 32.123 40.2238 31.8624L40.2177 31.8568C39.8017 31.4826 39.7072 31.1411 39.7072 30.9178C39.7072 30.6946 39.8017 30.3532 40.2174 29.9791C40.2175 29.979 40.2176 29.9789 40.2177 29.9789L43.5278 27.0024C43.5286 27.0017 43.5293 27.001 43.5301 27.0003C49.4907 21.6634 49.49 12.8305 43.5278 7.49448L43.5248 7.49185C39.3606 3.77979 33.8416 2 28.2168 2C21.6518 2 14.8059 4.41778 9.51412 9.16828C-0.505067 18.1384 -0.504707 32.9205 9.5152 41.8902C14.4697 46.3277 21.0864 48.4895 27.5569 48.5368L27.5642 48.5368H27.5715H27.7574C34.2208 48.5368 40.6954 46.4267 45.3668 42.2212C46.6822 41.0443 47.1603 39.4116 47.1141 37.9603C47.0686 36.5341 46.5126 35.0317 45.4164 33.9952Z" stroke="#270641" stroke-width="4" stroke-miterlimit="10"/>
<path d="M13.1846 23.4968C14.8786 23.4968 16.2519 22.1058 16.2519 20.39C16.2519 18.6742 14.8786 17.2832 13.1846 17.2832C11.4905 17.2832 10.1172 18.6742 10.1172 20.39C10.1172 22.1058 11.4905 23.4968 13.1846 23.4968Z" fill="#270641"/>
<path d="M14.0556 34.9059C15.7497 34.9059 17.123 33.515 17.123 31.7992C17.123 30.0833 15.7497 28.6924 14.0556 28.6924C12.3616 28.6924 10.9883 30.0833 10.9883 31.7992C10.9883 33.515 12.3616 34.9059 14.0556 34.9059Z" fill="#270641"/>
<path d="M21.9306 16.4069C23.6247 16.4069 24.998 15.016 24.998 13.3001C24.998 11.5843 23.6247 10.1934 21.9306 10.1934C20.2366 10.1934 18.8633 11.5843 18.8633 13.3001C18.8633 15.016 20.2366 16.4069 21.9306 16.4069Z" fill="#270641"/>
<path d="M25.6873 41.7987C28.1077 41.7987 30.0698 39.8113 30.0698 37.3598C30.0698 34.9083 28.1077 32.9209 25.6873 32.9209C23.2668 32.9209 21.3047 34.9083 21.3047 37.3598C21.3047 39.8113 23.2668 41.7987 25.6873 41.7987Z" fill="#270641"/>
<path d="M33.3096 16.4069C35.0036 16.4069 36.3769 15.016 36.3769 13.3001C36.3769 11.5843 35.0036 10.1934 33.3096 10.1934C31.6155 10.1934 30.2422 11.5843 30.2422 13.3001C30.2422 15.016 31.6155 16.4069 33.3096 16.4069Z" fill="#270641"/>
</svg>
