<svg width="51" height="51" viewBox="0 0 51 51" fill="none" xmlns="http://www.w3.org/2000/svg">
<g clip-path="url(#clip0_685_1526)">
<path d="M43.7223 51.0001C31.5721 51.0001 19.4209 51.0001 7.27075 51.0001C7.24282 50.9822 7.21788 50.9552 7.18795 50.9482C4.45044 50.2519 3.19542 48.6376 3.19542 45.8091C3.19542 40.1542 3.19243 34.4993 3.2024 28.8444C3.2034 28.5032 3.1176 28.3286 2.7804 28.1819C1.82766 27.7689 1.05749 27.1094 0.58162 26.1786C0.329219 25.6857 0.18955 25.135 0 24.6112C0 22.5529 0 20.4947 0 18.4375C0.0259385 18.3966 0.0648461 18.3597 0.0758201 18.3148C0.663426 15.8096 2.38035 14.4407 4.94826 14.4367C5.57178 14.4357 6.1943 14.4367 6.90761 14.4367C6.74799 14.2142 6.64823 14.0716 6.54347 13.9309C3.17148 9.42033 4.89239 2.96427 10.0601 0.732433C11.804 -0.0198265 13.6277 -0.108621 15.4813 0.108876C18.9391 0.513939 21.8591 1.94862 24.0739 4.6803C24.5907 5.31782 25.0226 6.02319 25.5195 6.73455C25.6202 6.57092 25.715 6.42426 25.8028 6.27261C28.8256 1.10058 34.4044 -0.566562 38.9246 0.162751C45.4232 1.21232 48.3603 8.75787 44.3947 14.0057C44.3039 14.1254 44.2211 14.2512 44.0914 14.4357C44.8965 14.4357 45.5928 14.4268 46.2892 14.4377C48.9578 14.4766 50.9671 16.485 50.991 19.1498C51.005 20.7262 51.004 22.3025 50.991 23.8779C50.9751 25.8194 50.0732 27.2361 48.3563 28.1071C47.9283 28.3246 47.7836 28.5451 47.7856 29.031C47.8066 34.7218 47.7986 40.4126 47.7996 46.1035C47.7996 47.8145 47.1601 49.2282 45.7225 50.171C45.1289 50.5602 44.3927 50.7308 43.7223 51.0001ZM6.18233 28.6309C6.18233 28.8264 6.18233 28.9881 6.18233 29.1497C6.18233 34.7717 6.18133 40.3947 6.18233 46.0167C6.18233 47.3496 6.83877 48.012 8.15864 48.013C11.6583 48.014 15.158 48.013 18.6587 48.013C18.8323 48.013 19.0069 48.013 19.1755 48.013C19.1755 41.5081 19.1755 35.081 19.1755 28.6309C14.8528 28.6309 10.5609 28.6309 6.18233 28.6309ZM31.7996 48.012C32.0051 48.012 32.1667 48.012 32.3293 48.012C35.829 48.012 39.3287 48.013 42.8284 48.012C44.1493 48.012 44.8087 47.3486 44.8087 46.0197C44.8097 40.3977 44.8097 34.7757 44.8077 29.1527C44.8077 28.9781 44.7927 28.8045 44.7857 28.6468C40.4201 28.6468 36.1173 28.6468 31.7986 28.6468C31.7996 35.1019 31.7996 41.5171 31.7996 48.012ZM24.0001 14.4158C24.0001 13.7962 24.031 13.2315 23.9951 12.6708C23.8345 10.2195 23.0842 7.97867 21.4132 6.13992C19.0837 3.57785 16.0539 2.75276 12.7418 3.10594C9.29894 3.47209 7.12709 6.82334 7.97608 10.1526C8.61456 12.6548 10.8732 14.4118 13.5469 14.4287C16.8979 14.4507 20.249 14.4347 23.6 14.4337C23.7127 14.4347 23.8255 14.4248 24.0001 14.4158ZM27.0019 14.4148C27.1486 14.4238 27.2454 14.4347 27.3421 14.4347C30.7261 14.4347 34.1111 14.4357 37.495 14.4317C37.7425 14.4317 37.9909 14.3958 38.2373 14.3649C40.6795 14.0626 42.7366 12.1021 43.1147 9.71864C43.5247 7.13662 42.2508 4.67631 39.9642 3.57885C38.6663 2.95629 37.3095 2.94731 35.9248 3.09796C33.7609 3.33342 31.7746 4.01384 30.1724 5.53732C27.6484 7.93976 26.8383 10.9777 27.0019 14.4148ZM28.7677 47.9961C28.7677 41.5181 28.7677 35.0889 28.7677 28.6349C26.5769 28.6349 24.4131 28.6349 22.2332 28.6349C22.2332 35.1029 22.2332 41.543 22.2332 47.9961C24.4221 47.9961 26.5739 47.9961 28.7677 47.9961ZM17.5823 17.4517C17.4117 17.4408 17.267 17.4238 17.1224 17.4238C13.0271 17.4228 8.93181 17.4208 4.83553 17.4238C3.6653 17.4248 2.9909 18.1072 2.98791 19.2815C2.98392 20.7242 2.98592 22.1658 2.98691 23.6085C2.98791 24.9853 3.61542 25.6179 4.98717 25.6179C8.99965 25.6189 13.0121 25.6179 17.0246 25.6179C17.2022 25.6179 17.3788 25.6179 17.5813 25.6179C17.5823 22.8672 17.5823 20.1745 17.5823 17.4517ZM33.4077 25.5869C33.5245 25.5999 33.6043 25.6169 33.6851 25.6169C37.8851 25.6179 42.0842 25.6228 46.2832 25.6129C47.2908 25.6109 47.9931 24.8875 48.0011 23.8729C48.0131 22.3794 48.0051 20.8858 48.0041 19.3923C48.0031 18.0564 47.3636 17.4238 46.0128 17.4238C41.9964 17.4228 37.9789 17.4238 33.9624 17.4238C33.7858 17.4238 33.6093 17.4238 33.4077 17.4238C33.4077 20.1695 33.4077 22.8523 33.4077 25.5869ZM30.3739 17.4557C27.0917 17.4557 23.8654 17.4557 20.6281 17.4557C20.6281 20.1834 20.6281 22.8772 20.6281 25.5779C23.8963 25.5779 27.1346 25.5779 30.3739 25.5779C30.3739 22.8542 30.3739 20.1715 30.3739 17.4557Z" fill="#270641"/>
</g>
<defs>
<clipPath id="clip0_685_1526">
<rect width="51" height="51" fill="white"/>
</clipPath>
</defs>
</svg>
