<svg width="56" height="46" viewBox="0 0 56 46" fill="none" xmlns="http://www.w3.org/2000/svg">
<path d="M22.798 37.2417C22.798 38.139 22.798 38.9576 22.798 39.8418C22.3228 39.8418 21.8919 39.8418 21.4624 39.8418C16.0246 39.8418 10.5882 39.8431 5.15049 39.8418C2.62159 39.8405 0.998753 38.2074 1.00006 35.648C1.00398 26.0164 1.01311 16.386 1.01964 6.75439C1.01964 6.22886 0.998753 5.70465 1.00006 5.17912C1.00789 2.65657 2.6007 1.0248 5.11263 1.0156C9.1547 1.00115 13.1994 1.0156 17.2428 1.01429C27.6822 1.01429 38.1202 1.01166 48.5596 1.01166C49.5153 1.01166 50.4775 0.965678 51.4254 1.05633C53.4869 1.25209 54.9178 2.68679 54.9609 4.75475C55.034 8.16675 54.9818 11.5827 54.9792 14.9973C54.9792 15.0591 54.9426 15.1195 54.9008 15.2548C54.205 15.2548 53.4947 15.2798 52.7871 15.2325C52.6579 15.2233 52.4568 14.9264 52.4464 14.7516C52.4059 14.0816 52.4307 13.4063 52.4307 12.6876C36.1319 12.6876 19.8996 12.6876 3.57596 12.6876C3.57596 13.5088 3.57596 14.2892 3.57596 15.0709C3.58249 21.9422 3.58902 28.8148 3.59685 35.6861C3.59816 36.8252 4.01986 37.2404 5.18052 37.2417C10.7697 37.243 16.3589 37.243 21.9481 37.243C22.2079 37.2417 22.4664 37.2417 22.798 37.2417ZM52.4098 10.0403C52.4202 9.83663 52.4307 9.72889 52.4307 9.62116C52.432 8.13259 52.4372 6.64534 52.4294 5.15678C52.4242 4.09521 51.9267 3.60515 50.8588 3.60121C49.4448 3.59596 48.0322 3.5999 46.6183 3.5999C34.2009 3.5999 21.7836 3.5999 9.3662 3.5999C7.90918 3.5999 6.45346 3.59201 4.99643 3.60384C4.23006 3.60909 3.63471 4.0085 3.62035 4.63388C3.57988 6.42068 3.60599 8.2088 3.60599 10.0403C19.8996 10.0403 36.1292 10.0403 52.4098 10.0403Z" fill="#270641" stroke="#270641"/>
<path d="M54.9847 30.8062C54.9455 38.7338 48.5835 45.0546 40.7004 45.0008C32.927 44.9482 26.6759 38.5302 26.715 30.6446C26.7529 22.9758 33.0693 16.5262 40.8805 16.5499C48.5182 16.5748 54.9716 22.784 54.9847 30.8062ZM29.3027 30.7852C29.304 37.2794 34.4937 42.4887 40.968 42.4165C47.2113 42.3468 52.3344 37.4134 52.4192 30.8758C52.5028 24.375 47.2492 19.079 40.8362 19.1355C34.508 19.1907 29.2805 24.0663 29.3027 30.7852Z" fill="#270641" stroke="#270641"/>
<path d="M8.72656 30.7538C8.72656 29.8801 8.72656 29.0734 8.72656 28.2168C12.9932 28.2168 17.2415 28.2168 21.5408 28.2168C21.5408 29.0393 21.5408 29.8762 21.5408 30.7538C17.2807 30.7538 13.0324 30.7538 8.72656 30.7538Z" fill="#270641" stroke="#270641"/>
<path d="M34.2891 32.4504C34.8335 31.7344 35.3296 31.0801 35.8466 30.3996C37.2136 31.4296 38.5479 32.4334 39.9265 33.4726C41.8196 30.8042 43.6853 28.1766 45.5823 25.5029C46.2703 25.9943 46.9362 26.4699 47.6399 26.9718C47.5394 27.1413 47.4636 27.291 47.3683 27.4264C45.3891 30.2222 43.4098 33.018 41.4267 35.8112C40.7726 36.7322 40.1119 36.8478 39.2254 36.183C37.5869 34.9572 35.9602 33.7156 34.2891 32.4504Z" fill="#270641" stroke="#270641"/>
</svg>
