<svg width="47" height="53" viewBox="0 0 47 53" fill="none" xmlns="http://www.w3.org/2000/svg">
<g clip-path="url(#clip0_685_1548)">
<path d="M46.3613 33.2448C43.7255 44.6522 33.323 52.9268 21.4971 52.9989C15.4035 53.0361 9.94903 51.1953 5.13704 47.5379C3.36461 46.1912 1.80747 44.6281 0.470059 42.8628C-0.399981 41.7151 -0.017387 40.246 1.2676 39.7169C2.23579 39.3169 3.11699 39.6415 3.92902 40.6209C9.56198 47.4133 16.8346 50.1657 25.5696 48.4648C36.995 46.2393 44.3401 35.6343 42.5911 24.3363C41.0886 14.6308 32.5667 6.99022 22.5557 6.44806C16.7788 6.13653 11.698 7.75975 7.3456 11.2784H15.4771C16.4933 11.2784 17.3176 12.0861 17.3176 13.0819C17.3176 14.0788 16.4933 14.8855 15.4771 14.8855H3.6602C2.64404 14.8855 1.81974 14.0788 1.81974 13.0819V1.80358C1.81974 0.807784 2.64404 0 3.6602 0C4.67748 0 5.50067 0.807784 5.50067 1.80358V7.55207C11.524 3.00596 18.4966 1.38493 26.3426 2.89009C40.4986 5.6042 49.5492 19.4535 46.3613 33.2448Z" fill="#270641"/>
<path d="M33.67 23.3087H13.001V20.2492C13.001 20.0852 13.001 19.9201 13.0166 19.7573C13.0768 19.1178 13.4739 18.5964 14.1142 18.5647C15.3322 18.5035 16.5559 18.5461 17.852 18.5461L29.0064 18.5101C29.9734 18.5046 30.9405 18.4981 31.9076 18.4991C33.1658 18.4991 33.6689 18.9867 33.6689 20.2153C33.6689 21.2471 33.67 22.2779 33.67 23.3087Z" fill="#270641"/>
<path d="M13.0004 25.0381H33.6694C33.6705 29.1524 33.6694 33.2657 33.6683 37.38C33.6683 38.625 33.1897 39.0907 31.9115 39.0907C28.4715 39.0918 25.0314 39.0907 21.5903 39.0874C19.2479 39.0852 16.9044 39.0721 14.5609 39.0765C14.0042 39.0776 13.4845 38.9683 13.229 38.46C13.0651 38.1353 13.0104 37.7287 13.0093 37.3582C13.0004 33.2515 12.9992 29.1448 13.0004 25.0381Z" fill="#270641"/>
</g>
<defs>
<clipPath id="clip0_685_1548">
<rect width="47" height="53" fill="white"/>
</clipPath>
</defs>
</svg>
