<svg width="61" height="42" viewBox="0 0 61 42" fill="none" xmlns="http://www.w3.org/2000/svg">
<g clip-path="url(#clip0_685_1512)">
<path d="M61.0004 33.6451C61.0004 35.1916 59.7004 36.4359 58.1421 36.3602C58.1298 36.3593 58.1183 36.3593 58.106 36.3584C56.8525 36.2905 55.5911 36.3706 54.335 36.3323C53.721 36.3131 53.4021 36.523 53.1623 37.0959C51.8526 40.2202 49.1857 42.014 45.9557 41.9992C42.7003 41.9852 40.0537 40.1923 38.765 37.0698C38.5445 36.536 38.2687 36.3305 37.6925 36.334C34.4098 36.3541 31.1263 36.3575 27.8428 36.3314C27.2147 36.3262 26.9187 36.5657 26.6903 37.1273C25.4543 40.1627 22.7813 41.973 19.5707 41.9992C16.3364 42.0262 13.6062 40.2124 12.3422 37.1316C12.0875 36.5099 11.7378 36.3097 11.0905 36.3306C9.79918 36.3706 8.50527 36.3628 7.21399 36.3314C5.93414 36.3009 5.12336 35.5765 5.09173 34.502C5.05923 33.397 5.89724 32.5872 7.21311 32.5454C8.53865 32.5027 9.86769 32.5158 11.1941 32.5402C11.7466 32.5506 12.0409 32.4008 12.2658 31.8357C13.5386 28.6374 16.2195 26.7871 19.4732 26.781C22.762 26.7749 25.4675 28.5991 26.7333 31.7539C26.9661 32.3329 27.2463 32.5471 27.8647 32.5428C31.1131 32.5193 34.3615 32.5201 37.609 32.5419C38.2134 32.5462 38.5085 32.3704 38.7448 31.7713C39.9843 28.6218 42.7065 26.7801 45.9918 26.781C49.2164 26.7818 51.9264 28.6226 53.1667 31.7225C53.4109 32.332 53.7201 32.5471 54.3851 32.548C57.16 32.5541 57.16 32.5776 57.16 29.8809C57.16 27.9417 57.1038 26.0008 57.1828 24.0642C57.2241 23.0507 56.7752 22.341 56.2921 21.5155C55.0764 19.437 53.4012 18.8475 51.0198 18.9921C47.4008 19.2124 43.7588 19.0513 40.1257 19.0487C37.8207 19.0478 37.3218 18.5428 37.32 16.2144C37.3183 12.5093 37.2814 8.80337 37.3437 5.09918C37.3613 4.06037 37.0969 3.74689 36.0129 3.75212C26.6525 3.79566 17.2921 3.77824 7.93166 3.77215C7.44589 3.77215 6.9452 3.76518 6.47876 3.65285C5.53621 3.42559 5.07416 2.73682 5.10579 1.81556C5.13917 0.894301 5.66622 0.25952 6.60788 0.0696957C7.01283 -0.0121553 7.4415 0.00264755 7.85963 0.00264755C18.0238 3.52815e-05 28.1871 -0.000835473 38.3513 0.000906037C40.6703 0.000906037 41.1526 0.438896 41.1218 2.70808C41.1104 3.56055 41.3607 3.86445 42.2427 3.84529C44.5116 3.79566 46.7832 3.85487 49.0531 3.81917C50.1686 3.80175 50.8863 4.26325 51.3738 5.24198C52.6871 7.87689 54.082 10.4717 55.3575 13.1241C56.3861 15.2618 57.6185 17.2497 59.154 19.0626C59.5502 19.5311 59.9252 20.017 60.2977 20.5054C60.7536 21.1028 61.0004 21.8325 61.0004 22.5813V33.6451ZM52.1609 15.26C50.8494 12.6835 49.6706 10.3403 48.4496 8.01882C48.3407 7.81245 47.955 7.64265 47.695 7.6383C45.7748 7.60608 43.8546 7.6383 41.9344 7.61044C41.2589 7.60086 41.1201 7.91085 41.1315 8.49948C41.1596 9.95277 41.1403 11.4069 41.1403 12.8611C41.1403 15.26 41.1403 15.26 43.541 15.26C46.33 15.26 49.1181 15.26 52.1609 15.26ZM42.1364 34.4053C42.1469 36.5491 43.8432 38.2305 45.983 38.2183C48.1175 38.2062 49.8375 36.4916 49.8357 34.3783C49.834 32.2711 48.1044 30.5792 45.9566 30.5844C43.7913 30.5888 42.1258 32.2545 42.1364 34.4053ZM23.3391 34.4959C23.3734 32.3111 21.7615 30.6158 19.619 30.5844C17.4388 30.5522 15.703 32.1788 15.6679 34.2878C15.6319 36.4333 17.2754 38.16 19.41 38.2183C21.5612 38.2767 23.3057 36.6249 23.3391 34.4959Z" fill="#270641"/>
<path d="M0 17.2232C0 16.4622 0.486644 15.7821 1.2131 15.5357C1.44851 15.4556 1.68481 15.4008 1.9211 15.3981C7.15999 15.3468 12.3998 15.3677 17.6395 15.3729C17.9514 15.3729 18.2799 15.3729 18.5733 15.4626C19.4376 15.7273 19.9093 16.3386 19.9111 17.2354C19.9129 18.1245 19.4798 18.7671 18.5926 19.0083C18.1956 19.1163 17.7651 19.138 17.3496 19.1389C12.2847 19.1467 7.21972 19.1685 2.15564 19.1154C1.85258 19.1119 1.55129 19.0423 1.24911 18.9465C0.504212 18.7114 0 18.0235 0 17.2485V17.2232Z" fill="#270641"/>
<path d="M12.9315 11.6275C10.3815 11.6275 7.83141 11.6336 5.28136 11.6205C4.86762 11.6188 4.43281 11.597 4.04542 11.4699C3.12572 11.1686 2.7278 10.4546 2.813 9.53421C2.89909 8.60511 3.42789 8.01039 4.4047 7.89371C4.64626 7.86497 4.8931 7.86149 5.1373 7.86149C10.3419 7.85975 15.5474 7.85539 20.7521 7.86845C21.1957 7.86933 21.6858 7.89632 22.0723 8.08179C22.9332 8.49453 23.2406 9.27559 23.0359 10.1733C22.826 11.0937 22.1382 11.5744 21.2106 11.6049C19.8148 11.6501 18.4163 11.6249 17.0197 11.6275C15.6564 11.6292 14.2939 11.6275 12.9315 11.6275Z" fill="#270641"/>
<path d="M9.09251 26.641C7.69758 26.641 6.30265 26.6584 4.90773 26.6357C3.59361 26.614 2.83114 25.9435 2.79337 24.8341C2.75472 23.69 3.52949 22.9046 4.87962 22.8854C7.70373 22.8462 10.5296 22.848 13.3537 22.8837C14.7232 22.9011 15.4892 23.6534 15.4654 24.8054C15.4426 25.9557 14.6687 26.6192 13.2773 26.6375C11.8832 26.6558 10.4874 26.6418 9.09251 26.641Z" fill="#270641"/>
</g>
<defs>
<clipPath id="clip0_685_1512">
<rect width="61" height="42" fill="white"/>
</clipPath>
</defs>
</svg>
