<svg width="44" height="47" viewBox="0 0 44 47" fill="none" xmlns="http://www.w3.org/2000/svg">
<rect x="1.5" y="2.05859" width="41" height="42.8824" rx="3.5" stroke="#270641" stroke-width="3"/>
<path d="M34.7362 28.0884C34.7362 34.0635 29.2096 39.206 22.0009 39.206C14.7922 39.206 9.26562 34.0635 9.26562 28.0884C9.26562 22.1132 14.7922 16.9707 22.0009 16.9707C29.2096 16.9707 34.7362 22.1132 34.7362 28.0884Z" stroke="#270641" stroke-width="3"/>
<path d="M1.29297 10.8818H42.7047" stroke="#270641" stroke-width="3"/>
<path d="M7.76562 6.29395H24.5892" stroke="#270641" stroke-width="3" stroke-linecap="round"/>
<path d="M31.0586 6.29395L34.9409 6.29395" stroke="#270641" stroke-width="3" stroke-linecap="round"/>
<mask id="path-6-inside-1_685_1574" fill="white">
<path d="M16.3537 23.2925C15.1356 24.4198 14.3823 25.8785 14.2157 27.4325C14.0492 28.9864 14.4792 30.5447 15.436 31.8551C16.3929 33.1656 17.8206 34.1515 19.4883 34.6533C21.1559 35.155 22.9657 35.1434 24.6249 34.6201L24.0596 33.212C22.7581 33.6224 21.3384 33.6316 20.0303 33.238C18.7222 32.8444 17.6022 32.071 16.8516 31.0431C16.101 30.0151 15.7637 28.7928 15.8944 27.5738C16.025 26.3548 16.6159 25.2106 17.5714 24.3263L16.3537 23.2925Z"/>
</mask>
<path d="M16.3537 23.2925C15.1356 24.4198 14.3823 25.8785 14.2157 27.4325C14.0492 28.9864 14.4792 30.5447 15.436 31.8551C16.3929 33.1656 17.8206 34.1515 19.4883 34.6533C21.1559 35.155 22.9657 35.1434 24.6249 34.6201L24.0596 33.212C22.7581 33.6224 21.3384 33.6316 20.0303 33.238C18.7222 32.8444 17.6022 32.071 16.8516 31.0431C16.101 30.0151 15.7637 28.7928 15.8944 27.5738C16.025 26.3548 16.6159 25.2106 17.5714 24.3263L16.3537 23.2925Z" stroke="#270641" stroke-width="6" mask="url(#path-6-inside-1_685_1574)"/>
</svg>
