<svg width="115" height="119" viewBox="0 0 115 119" fill="none" xmlns="http://www.w3.org/2000/svg">
<ellipse cx="57.5918" cy="59.711" rx="57.2378" ry="59.0362" fill="#4C2A76"/>
<path d="M41.2651 31.8145H44.8394V42.874H41.2651V31.8145Z" fill="#FFB8BC"/>
<path d="M69.8599 31.8145H73.4341V42.874H69.8599V31.8145Z" fill="#FFB8BC"/>
<path d="M54.1328 83.4257H34.1172V53.9336H80.582V56.1455C82.0117 56.8828 83.0839 57.6201 84.1562 58.7261V35.501H77.0078V46.5605H66.2851V35.501H48.414V46.5605H37.6914V35.501H30.543V87.1123H56.6347C55.5625 86.0063 54.8476 84.9003 54.1328 83.4257Z" fill="#FFB8BC"/>
<path d="M80.5825 76.0517H69.8599V64.9922H73.4341V72.3652H80.5825V76.0517Z" fill="#FFB8BC"/>
<path d="M71.6455 61.3066C78.4365 61.3066 84.1553 67.2051 84.1553 74.2095C84.1553 81.2138 78.4365 87.1123 71.6455 87.1123C64.8545 87.1123 59.1357 81.2138 59.1357 74.2095C59.1357 67.2051 64.8545 61.3066 71.6455 61.3066ZM71.6455 57.6201C62.71 57.6201 55.5615 64.9932 55.5615 74.2095C55.5615 83.4258 62.71 90.7988 71.6455 90.7988C80.581 90.7988 87.7295 83.4258 87.7295 74.2095C87.7295 64.9932 80.581 57.6201 71.6455 57.6201Z" fill="#FFB8BC"/>
</svg>
