<svg width="116" height="112" viewBox="0 0 116 112" fill="none" xmlns="http://www.w3.org/2000/svg">
<g filter="url(#filter0_f_0_1)">
<rect x="20" y="20" width="76" height="72" rx="22" fill="#4C2A76" fill-opacity="0.75"/>
</g>
<rect x="16" y="8" width="84" height="80" rx="22" fill="#4C2A76"/>
<path d="M59.3236 23.0216C54.1835 22.7645 49.0434 24.8206 45.1883 28.4187C41.5902 32.0167 39.5342 37.1568 39.5342 42.2969L34.6511 52.5772C34.1371 53.8622 34.6511 55.4042 35.9361 55.9182C36.1931 56.4322 36.7071 56.4322 36.9641 56.4322H39.5342V61.5723C39.5342 64.3994 41.8472 66.7124 44.6743 66.7124H47.2443V71.8525C47.2443 73.3946 48.2724 74.4226 49.8144 74.4226H72.9449H73.7159C75.0009 73.9086 75.7719 72.6236 75.5149 71.3385L73.2019 63.1144L78.085 44.353C78.085 44.096 78.085 43.839 78.085 43.582V43.068C78.085 32.5307 69.8608 23.5356 59.3236 23.0216V23.0216Z" stroke="#FFB8BC" stroke-width="2"/>
<path d="M61.7769 53.3566C60.9027 53.3566 60.0894 52.368 59.3392 52.368C58.5893 52.368 57.7757 53.3566 56.901 53.3566C56.1805 53.3566 55.1822 52.368 54.4637 52.368C53.7733 52.368 52.5629 52.9981 52.1611 53.2179C52.2129 53.5127 52.2732 53.8102 52.3531 54.1166C52.3531 54.1166 53.8838 53.1913 54.6819 53.1913C55.3681 53.1913 56.3215 54.1795 57.01 54.1795C57.8448 54.1795 58.6225 53.1913 59.3388 53.1913C60.0551 53.1913 60.8331 54.1799 61.668 54.1799C62.356 54.1799 63.3103 53.1917 63.9956 53.1917C64.793 53.1917 66.3244 54.1169 66.3244 54.1169C66.4048 53.8106 66.4651 53.5131 66.5164 53.2183C66.1154 52.9993 64.9039 52.3684 64.2143 52.3684C63.4953 52.3684 62.4974 53.3566 61.7769 53.3566Z" fill="#FFB8BC"/>
<path d="M54.2291 51.2328C54.9821 51.2328 56.0279 52.2214 56.7843 52.2214C57.7003 52.2214 58.5537 51.2328 59.3399 51.2328C60.1261 51.2328 60.9799 52.2214 61.8955 52.2214C62.6527 52.2214 63.6977 51.2328 64.4518 51.2328C65.0819 51.2328 66.1304 51.6546 66.6671 51.9019C66.4295 47.4815 63.2523 44.5813 62.2296 42.4731H62.4309V42.0867V40.5414V40.1551H62.1957C62.6844 38.8246 63.6004 37.0602 63.1619 35.2398C63.1619 35.2398 63.0661 35.2402 62.9046 35.2491V32H62.4348V35.2904C61.6092 35.3835 60.2574 35.6528 59.3399 36.4355C58.4223 35.6524 57.0698 35.3835 56.2442 35.2904V32H55.7756V35.2494C55.6145 35.2406 55.5183 35.2402 55.5183 35.2402C55.079 37.0606 55.9954 38.8246 56.4845 40.1555H56.2485V40.5418V42.0871V42.4735H56.4501C55.4279 44.5817 52.253 47.4822 52.0146 51.9019C52.5516 51.6539 53.5982 51.2328 54.2291 51.2328ZM62.045 40.5897V42.0384H61.5227V42.0392C62.5441 43.9411 62.9007 47.1716 62.9007 47.1716L61.0092 47.8508C61.0092 47.8508 61.0077 45.165 60.3648 42.3726C60.4915 42.2459 60.5723 42.0288 60.6109 41.7784L61.3952 43.5073C61.3279 42.8505 60.9238 42.1165 60.6275 41.6405C60.66 41.277 60.6125 40.8737 60.4923 40.5897H62.045ZM58.6812 40.3455C58.9505 40.0763 59.8931 40.0763 60.1628 40.3455C60.4359 40.6183 60.6101 41.9426 60.1628 42.3896C59.8947 42.6573 58.9489 42.6573 58.6812 42.3896C58.1878 41.8963 58.4305 40.5963 58.6812 40.3455ZM57.4179 42.0384H56.6348V40.5897H58.3513C58.2385 40.8555 58.1886 41.2271 58.2103 41.5729C57.8513 42.0798 57.5937 42.6253 57.4847 42.8494L58.2338 41.7839C58.2609 41.9592 58.3084 42.1188 58.3787 42.242C58.0186 43.4327 57.7003 45.4907 57.7003 45.4907L56.2369 45.1527C56.2369 45.1527 56.5938 43.3995 57.4179 42.0384Z" fill="#FFB8BC"/>
<defs>
<filter id="filter0_f_0_1" x="0" y="0" width="116" height="112" filterUnits="userSpaceOnUse" color-interpolation-filters="sRGB">
<feFlood flood-opacity="0" result="BackgroundImageFix"/>
<feBlend mode="normal" in="SourceGraphic" in2="BackgroundImageFix" result="shape"/>
<feGaussianBlur stdDeviation="10" result="effect1_foregroundBlur_0_1"/>
</filter>
</defs>
</svg>
