<svg width="116" height="112" viewBox="0 0 116 112" fill="none" xmlns="http://www.w3.org/2000/svg">
<g filter="url(#filter0_f_0_1)">
<rect x="20" y="20" width="76" height="72" rx="22" fill="#4C2A76" fill-opacity="0.75"/>
</g>
<rect x="16" y="8" width="84" height="80" rx="22" fill="#4C2A76"/>
<path d="M79.2775 58.8844C78.4433 58.1134 77.2172 57.9238 76.1681 57.7468C74.7145 57.5067 74.1584 57.2412 73.3115 56.4828C71.504 54.8776 71.504 52.5519 73.3115 50.9466L77.1413 47.5465C83.0062 42.3642 83.0062 33.8702 77.1413 28.6879C72.8185 24.8833 67.0169 23 60.9877 23C53.9473 23 46.5909 25.5659 40.9157 30.5965C30.3614 39.9247 30.3614 55.2062 40.9157 64.5344C46.1612 69.1732 53.2395 71.4863 60.2419 71.5368H60.4568C67.4593 71.5368 74.3606 69.2743 79.2648 64.9136C81.085 63.3083 80.7804 60.2874 79.2775 58.8844V58.8844Z" stroke="#FFB8BC" stroke-width="2" stroke-miterlimit="10"/>
<path d="M43.6143 45.2466C45.5722 45.2466 47.1593 43.6594 47.1593 41.7016C47.1593 39.7437 45.5722 38.1566 43.6143 38.1566C41.6565 38.1566 40.0693 39.7437 40.0693 41.7016C40.0693 43.6594 41.6565 45.2466 43.6143 45.2466Z" fill="#FFB8BC"/>
<path d="M44.6251 58.2656C46.5829 58.2656 48.1701 56.6784 48.1701 54.7206C48.1701 52.7627 46.5829 51.1756 44.6251 51.1756C42.6672 51.1756 41.0801 52.7627 41.0801 54.7206C41.0801 56.6784 42.6672 58.2656 44.6251 58.2656Z" fill="#FFB8BC"/>
<path d="M53.7257 37.1571C55.6835 37.1571 57.2707 35.57 57.2707 33.6121C57.2707 31.6543 55.6835 30.0671 53.7257 30.0671C51.7678 30.0671 50.1807 31.6543 50.1807 33.6121C50.1807 35.57 51.7678 37.1571 53.7257 37.1571Z" fill="#FFB8BC"/>
<path d="M58.065 66.13C60.8623 66.13 63.13 63.8623 63.13 61.065C63.13 58.2677 60.8623 56 58.065 56C55.2677 56 53 58.2677 53 61.065C53 63.8623 55.2677 66.13 58.065 66.13Z" fill="#FFB8BC"/>
<path d="M66.8712 37.1571C68.829 37.1571 70.4162 35.57 70.4162 33.6121C70.4162 31.6543 68.829 30.0671 66.8712 30.0671C64.9133 30.0671 63.3262 31.6543 63.3262 33.6121C63.3262 35.57 64.9133 37.1571 66.8712 37.1571Z" fill="#FFB8BC"/>
<defs>
<filter id="filter0_f_0_1" x="0" y="0" width="116" height="112" filterUnits="userSpaceOnUse" color-interpolation-filters="sRGB">
<feFlood flood-opacity="0" result="BackgroundImageFix"/>
<feBlend mode="normal" in="SourceGraphic" in2="BackgroundImageFix" result="shape"/>
<feGaussianBlur stdDeviation="10" result="effect1_foregroundBlur_0_1"/>
</filter>
</defs>
</svg>
