<svg width="885" height="185" viewBox="0 0 885 185" fill="none" xmlns="http://www.w3.org/2000/svg">
<g filter="url(#filter0_d_331_4192)">
<rect x="25" y="69" width="835" height="83" rx="41" fill="#4C2A76"/>
</g>
<g filter="url(#filter1_d_331_4192)">
<circle cx="442.5" cy="54.5" r="38.5" fill="#4C2A76"/>
</g>
<path d="M188.772 107.575L183.722 125H181.172L177.122 110.975L172.922 125L170.397 125.025L165.522 107.575H167.947L171.747 122.35L175.947 107.575H178.497L182.497 122.3L186.322 107.575H188.772ZM203.761 117.625C203.761 118.058 203.736 118.517 203.686 119H192.736C192.82 120.35 193.278 121.408 194.111 122.175C194.961 122.925 195.986 123.3 197.186 123.3C198.17 123.3 198.986 123.075 199.636 122.625C200.303 122.158 200.77 121.542 201.036 120.775H203.486C203.12 122.092 202.386 123.167 201.286 124C200.186 124.817 198.82 125.225 197.186 125.225C195.886 125.225 194.72 124.933 193.686 124.35C192.67 123.767 191.87 122.942 191.286 121.875C190.703 120.792 190.411 119.542 190.411 118.125C190.411 116.708 190.695 115.467 191.261 114.4C191.828 113.333 192.62 112.517 193.636 111.95C194.67 111.367 195.853 111.075 197.186 111.075C198.486 111.075 199.636 111.358 200.636 111.925C201.636 112.492 202.403 113.275 202.936 114.275C203.486 115.258 203.761 116.375 203.761 117.625ZM201.411 117.15C201.411 116.283 201.22 115.542 200.836 114.925C200.453 114.292 199.928 113.817 199.261 113.5C198.611 113.167 197.886 113 197.086 113C195.936 113 194.953 113.367 194.136 114.1C193.336 114.833 192.878 115.85 192.761 117.15H201.411ZM219.079 111.075C220.263 111.075 221.296 111.333 222.179 111.85C223.079 112.367 223.746 113.017 224.179 113.8V111.3H226.479V125.3C226.479 126.55 226.213 127.658 225.679 128.625C225.146 129.608 224.379 130.375 223.379 130.925C222.396 131.475 221.246 131.75 219.929 131.75C218.129 131.75 216.629 131.325 215.429 130.475C214.229 129.625 213.521 128.467 213.304 127H215.554C215.804 127.833 216.321 128.5 217.104 129C217.888 129.517 218.829 129.775 219.929 129.775C221.179 129.775 222.196 129.383 222.979 128.6C223.779 127.817 224.179 126.717 224.179 125.3V122.425C223.729 123.225 223.063 123.892 222.179 124.425C221.296 124.958 220.263 125.225 219.079 125.225C217.863 125.225 216.754 124.925 215.754 124.325C214.771 123.725 213.996 122.883 213.429 121.8C212.863 120.717 212.579 119.483 212.579 118.1C212.579 116.7 212.863 115.475 213.429 114.425C213.996 113.358 214.771 112.533 215.754 111.95C216.754 111.367 217.863 111.075 219.079 111.075ZM224.179 118.125C224.179 117.092 223.971 116.192 223.554 115.425C223.138 114.658 222.571 114.075 221.854 113.675C221.154 113.258 220.379 113.05 219.529 113.05C218.679 113.05 217.904 113.25 217.204 113.65C216.504 114.05 215.946 114.633 215.529 115.4C215.113 116.167 214.904 117.067 214.904 118.1C214.904 119.15 215.113 120.067 215.529 120.85C215.946 121.617 216.504 122.208 217.204 122.625C217.904 123.025 218.679 123.225 219.529 123.225C220.379 123.225 221.154 123.025 221.854 122.625C222.571 122.208 223.138 121.617 223.554 120.85C223.971 120.067 224.179 119.158 224.179 118.125ZM242.474 111.3V125H240.199V122.975C239.766 123.675 239.157 124.225 238.374 124.625C237.607 125.008 236.757 125.2 235.824 125.2C234.757 125.2 233.799 124.983 232.949 124.55C232.099 124.1 231.424 123.433 230.924 122.55C230.441 121.667 230.199 120.592 230.199 119.325V111.3H232.449V119.025C232.449 120.375 232.791 121.417 233.474 122.15C234.157 122.867 235.091 123.225 236.274 123.225C237.491 123.225 238.449 122.85 239.149 122.1C239.849 121.35 240.199 120.258 240.199 118.825V111.3H242.474ZM245.465 118.1C245.465 116.7 245.748 115.475 246.315 114.425C246.882 113.358 247.657 112.533 248.64 111.95C249.64 111.367 250.748 111.075 251.965 111.075C253.165 111.075 254.207 111.333 255.09 111.85C255.973 112.367 256.632 113.017 257.065 113.8V111.3H259.365V125H257.065V122.45C256.615 123.25 255.94 123.917 255.04 124.45C254.157 124.967 253.123 125.225 251.94 125.225C250.723 125.225 249.623 124.925 248.64 124.325C247.657 123.725 246.882 122.883 246.315 121.8C245.748 120.717 245.465 119.483 245.465 118.1ZM257.065 118.125C257.065 117.092 256.857 116.192 256.44 115.425C256.023 114.658 255.457 114.075 254.74 113.675C254.04 113.258 253.265 113.05 252.415 113.05C251.565 113.05 250.79 113.25 250.09 113.65C249.39 114.05 248.832 114.633 248.415 115.4C247.998 116.167 247.79 117.067 247.79 118.1C247.79 119.15 247.998 120.067 248.415 120.85C248.832 121.617 249.39 122.208 250.09 122.625C250.79 123.025 251.565 123.225 252.415 123.225C253.265 123.225 254.04 123.025 254.74 122.625C255.457 122.208 256.023 121.617 256.44 120.85C256.857 120.067 257.065 119.158 257.065 118.125ZM265.485 113.525C265.885 112.742 266.451 112.133 267.185 111.7C267.935 111.267 268.843 111.05 269.91 111.05V113.4H269.31C266.76 113.4 265.485 114.783 265.485 117.55V125H263.21V111.3H265.485V113.525ZM271.686 118.1C271.686 116.7 271.969 115.475 272.536 114.425C273.103 113.358 273.878 112.533 274.861 111.95C275.861 111.367 276.969 111.075 278.186 111.075C279.386 111.075 280.428 111.333 281.311 111.85C282.194 112.367 282.853 113.017 283.286 113.8V111.3H285.586V125H283.286V122.45C282.836 123.25 282.161 123.917 281.261 124.45C280.378 124.967 279.344 125.225 278.161 125.225C276.944 125.225 275.844 124.925 274.861 124.325C273.878 123.725 273.103 122.883 272.536 121.8C271.969 120.717 271.686 119.483 271.686 118.1ZM283.286 118.125C283.286 117.092 283.078 116.192 282.661 115.425C282.244 114.658 281.678 114.075 280.961 113.675C280.261 113.258 279.486 113.05 278.636 113.05C277.786 113.05 277.011 113.25 276.311 113.65C275.611 114.05 275.053 114.633 274.636 115.4C274.219 116.167 274.011 117.067 274.011 118.1C274.011 119.15 274.219 120.067 274.636 120.85C275.053 121.617 275.611 122.208 276.311 122.625C277.011 123.025 277.786 123.225 278.636 123.225C279.486 123.225 280.261 123.025 280.961 122.625C281.678 122.208 282.244 121.617 282.661 120.85C283.078 120.067 283.286 119.158 283.286 118.125ZM296.105 111.05C297.772 111.05 299.122 111.558 300.155 112.575C301.189 113.575 301.705 115.025 301.705 116.925V125H299.455V117.25C299.455 115.883 299.114 114.842 298.43 114.125C297.747 113.392 296.814 113.025 295.63 113.025C294.43 113.025 293.472 113.4 292.755 114.15C292.055 114.9 291.705 115.992 291.705 117.425V125H289.43V111.3H291.705V113.25C292.155 112.55 292.764 112.008 293.53 111.625C294.314 111.242 295.172 111.05 296.105 111.05ZM308.197 113.175V121.25C308.197 121.917 308.338 122.392 308.622 122.675C308.905 122.942 309.397 123.075 310.097 123.075H311.772V125H309.722C308.455 125 307.505 124.708 306.872 124.125C306.238 123.542 305.922 122.583 305.922 121.25V113.175H304.147V111.3H305.922V107.85H308.197V111.3H311.772V113.175H308.197ZM327.028 117.625C327.028 118.058 327.003 118.517 326.953 119H316.003C316.086 120.35 316.545 121.408 317.378 122.175C318.228 122.925 319.253 123.3 320.453 123.3C321.436 123.3 322.253 123.075 322.903 122.625C323.57 122.158 324.036 121.542 324.303 120.775H326.753C326.386 122.092 325.653 123.167 324.553 124C323.453 124.817 322.086 125.225 320.453 125.225C319.153 125.225 317.986 124.933 316.953 124.35C315.936 123.767 315.136 122.942 314.553 121.875C313.97 120.792 313.678 119.542 313.678 118.125C313.678 116.708 313.961 115.467 314.528 114.4C315.095 113.333 315.886 112.517 316.903 111.95C317.936 111.367 319.12 111.075 320.453 111.075C321.753 111.075 322.903 111.358 323.903 111.925C324.903 112.492 325.67 113.275 326.203 114.275C326.753 115.258 327.028 116.375 327.028 117.625ZM324.678 117.15C324.678 116.283 324.486 115.542 324.103 114.925C323.72 114.292 323.195 113.817 322.528 113.5C321.878 113.167 321.153 113 320.353 113C319.203 113 318.22 113.367 317.403 114.1C316.603 114.833 316.145 115.85 316.028 117.15H324.678ZM342.531 117.625C342.531 118.058 342.506 118.517 342.456 119H331.506C331.589 120.35 332.048 121.408 332.881 122.175C333.731 122.925 334.756 123.3 335.956 123.3C336.939 123.3 337.756 123.075 338.406 122.625C339.073 122.158 339.539 121.542 339.806 120.775H342.256C341.889 122.092 341.156 123.167 340.056 124C338.956 124.817 337.589 125.225 335.956 125.225C334.656 125.225 333.489 124.933 332.456 124.35C331.439 123.767 330.639 122.942 330.056 121.875C329.473 120.792 329.181 119.542 329.181 118.125C329.181 116.708 329.464 115.467 330.031 114.4C330.598 113.333 331.389 112.517 332.406 111.95C333.439 111.367 334.623 111.075 335.956 111.075C337.256 111.075 338.406 111.358 339.406 111.925C340.406 112.492 341.173 113.275 341.706 114.275C342.256 115.258 342.531 116.375 342.531 117.625ZM340.181 117.15C340.181 116.283 339.989 115.542 339.606 114.925C339.223 114.292 338.698 113.817 338.031 113.5C337.381 113.167 336.656 113 335.856 113C334.706 113 333.723 113.367 332.906 114.1C332.106 114.833 331.648 115.85 331.531 117.15H340.181ZM363.999 111.3L355.749 131.45H353.399L356.099 124.85L350.574 111.3H353.099L357.399 122.4L361.649 111.3H363.999ZM372.261 125.225C370.978 125.225 369.811 124.933 368.761 124.35C367.728 123.767 366.911 122.942 366.311 121.875C365.728 120.792 365.436 119.542 365.436 118.125C365.436 116.725 365.736 115.492 366.336 114.425C366.953 113.342 367.786 112.517 368.836 111.95C369.886 111.367 371.061 111.075 372.361 111.075C373.661 111.075 374.836 111.367 375.886 111.95C376.936 112.517 377.761 113.333 378.361 114.4C378.978 115.467 379.286 116.708 379.286 118.125C379.286 119.542 378.969 120.792 378.336 121.875C377.719 122.942 376.878 123.767 375.811 124.35C374.744 124.933 373.561 125.225 372.261 125.225ZM372.261 123.225C373.078 123.225 373.844 123.033 374.561 122.65C375.278 122.267 375.853 121.692 376.286 120.925C376.736 120.158 376.961 119.225 376.961 118.125C376.961 117.025 376.744 116.092 376.311 115.325C375.878 114.558 375.311 113.992 374.611 113.625C373.911 113.242 373.153 113.05 372.336 113.05C371.503 113.05 370.736 113.242 370.036 113.625C369.353 113.992 368.803 114.558 368.386 115.325C367.969 116.092 367.761 117.025 367.761 118.125C367.761 119.242 367.961 120.183 368.361 120.95C368.778 121.717 369.328 122.292 370.011 122.675C370.694 123.042 371.444 123.225 372.261 123.225ZM394.427 111.3V125H392.152V122.975C391.719 123.675 391.11 124.225 390.327 124.625C389.56 125.008 388.71 125.2 387.777 125.2C386.71 125.2 385.752 124.983 384.902 124.55C384.052 124.1 383.377 123.433 382.877 122.55C382.394 121.667 382.152 120.592 382.152 119.325V111.3H384.402V119.025C384.402 120.375 384.744 121.417 385.427 122.15C386.11 122.867 387.044 123.225 388.227 123.225C389.444 123.225 390.402 122.85 391.102 122.1C391.802 121.35 392.152 120.258 392.152 118.825V111.3H394.427ZM400.543 113.525C400.943 112.742 401.51 112.133 402.243 111.7C402.993 111.267 403.902 111.05 404.968 111.05V113.4H404.368C401.818 113.4 400.543 114.783 400.543 117.55V125H398.268V111.3H400.543V113.525ZM419.109 125.225C418.059 125.225 417.118 125.05 416.284 124.7C415.451 124.333 414.793 123.833 414.309 123.2C413.826 122.55 413.559 121.808 413.509 120.975H415.859C415.926 121.658 416.243 122.217 416.809 122.65C417.393 123.083 418.151 123.3 419.084 123.3C419.951 123.3 420.634 123.108 421.134 122.725C421.634 122.342 421.884 121.858 421.884 121.275C421.884 120.675 421.618 120.233 421.084 119.95C420.551 119.65 419.726 119.358 418.609 119.075C417.593 118.808 416.759 118.542 416.109 118.275C415.476 117.992 414.926 117.583 414.459 117.05C414.009 116.5 413.784 115.783 413.784 114.9C413.784 114.2 413.993 113.558 414.409 112.975C414.826 112.392 415.418 111.933 416.184 111.6C416.951 111.25 417.826 111.075 418.809 111.075C420.326 111.075 421.551 111.458 422.484 112.225C423.418 112.992 423.918 114.042 423.984 115.375H421.709C421.659 114.658 421.368 114.083 420.834 113.65C420.318 113.217 419.618 113 418.734 113C417.918 113 417.268 113.175 416.784 113.525C416.301 113.875 416.059 114.333 416.059 114.9C416.059 115.35 416.201 115.725 416.484 116.025C416.784 116.308 417.151 116.542 417.584 116.725C418.034 116.892 418.651 117.083 419.434 117.3C420.418 117.567 421.218 117.833 421.834 118.1C422.451 118.35 422.976 118.733 423.409 119.25C423.859 119.767 424.093 120.442 424.109 121.275C424.109 122.025 423.901 122.7 423.484 123.3C423.068 123.9 422.476 124.375 421.709 124.725C420.959 125.058 420.093 125.225 419.109 125.225ZM443.796 111.05C444.863 111.05 445.813 111.275 446.646 111.725C447.479 112.158 448.138 112.817 448.621 113.7C449.104 114.583 449.346 115.658 449.346 116.925V125H447.096V117.25C447.096 115.883 446.754 114.842 446.071 114.125C445.404 113.392 444.496 113.025 443.346 113.025C442.163 113.025 441.221 113.408 440.521 114.175C439.821 114.925 439.471 116.017 439.471 117.45V125H437.221V117.25C437.221 115.883 436.879 114.842 436.196 114.125C435.529 113.392 434.621 113.025 433.471 113.025C432.288 113.025 431.346 113.408 430.646 114.175C429.946 114.925 429.596 116.017 429.596 117.45V125H427.321V111.3H429.596V113.275C430.046 112.558 430.646 112.008 431.396 111.625C432.163 111.242 433.004 111.05 433.921 111.05C435.071 111.05 436.088 111.308 436.971 111.825C437.854 112.342 438.513 113.1 438.946 114.1C439.329 113.133 439.963 112.383 440.846 111.85C441.729 111.317 442.713 111.05 443.796 111.05ZM454.253 109.075C453.819 109.075 453.453 108.925 453.153 108.625C452.853 108.325 452.703 107.958 452.703 107.525C452.703 107.092 452.853 106.725 453.153 106.425C453.453 106.125 453.819 105.975 454.253 105.975C454.669 105.975 455.019 106.125 455.303 106.425C455.603 106.725 455.753 107.092 455.753 107.525C455.753 107.958 455.603 108.325 455.303 108.625C455.019 108.925 454.669 109.075 454.253 109.075ZM455.353 111.3V125H453.078V111.3H455.353ZM461.505 106.5V125H459.23V106.5H461.505ZM477.883 117.625C477.883 118.058 477.858 118.517 477.808 119H466.858C466.941 120.35 467.399 121.408 468.233 122.175C469.083 122.925 470.108 123.3 471.308 123.3C472.291 123.3 473.108 123.075 473.758 122.625C474.424 122.158 474.891 121.542 475.158 120.775H477.608C477.241 122.092 476.508 123.167 475.408 124C474.308 124.817 472.941 125.225 471.308 125.225C470.008 125.225 468.841 124.933 467.808 124.35C466.791 123.767 465.991 122.942 465.408 121.875C464.824 120.792 464.533 119.542 464.533 118.125C464.533 116.708 464.816 115.467 465.383 114.4C465.949 113.333 466.741 112.517 467.758 111.95C468.791 111.367 469.974 111.075 471.308 111.075C472.608 111.075 473.758 111.358 474.758 111.925C475.758 112.492 476.524 113.275 477.058 114.275C477.608 115.258 477.883 116.375 477.883 117.625ZM475.533 117.15C475.533 116.283 475.341 115.542 474.958 114.925C474.574 114.292 474.049 113.817 473.383 113.5C472.733 113.167 472.008 113 471.208 113C470.058 113 469.074 113.367 468.258 114.1C467.458 114.833 466.999 115.85 466.883 117.15H475.533ZM490.325 113.175V121.25C490.325 121.917 490.467 122.392 490.75 122.675C491.034 122.942 491.525 123.075 492.225 123.075H493.9V125H491.85C490.584 125 489.634 124.708 489 124.125C488.367 123.542 488.05 122.583 488.05 121.25V113.175H486.275V111.3H488.05V107.85H490.325V111.3H493.9V113.175H490.325ZM503.457 111.05C504.49 111.05 505.424 111.275 506.257 111.725C507.09 112.158 507.74 112.817 508.207 113.7C508.69 114.583 508.932 115.658 508.932 116.925V125H506.682V117.25C506.682 115.883 506.34 114.842 505.657 114.125C504.974 113.392 504.04 113.025 502.857 113.025C501.657 113.025 500.699 113.4 499.982 114.15C499.282 114.9 498.932 115.992 498.932 117.425V125H496.657V106.5H498.932V113.25C499.382 112.55 499.999 112.008 500.782 111.625C501.582 111.242 502.474 111.05 503.457 111.05ZM514.923 113.525C515.323 112.742 515.89 112.133 516.623 111.7C517.373 111.267 518.281 111.05 519.348 111.05V113.4H518.748C516.198 113.4 514.923 114.783 514.923 117.55V125H512.648V111.3H514.923V113.525ZM527.949 125.225C526.666 125.225 525.499 124.933 524.449 124.35C523.416 123.767 522.599 122.942 521.999 121.875C521.416 120.792 521.124 119.542 521.124 118.125C521.124 116.725 521.424 115.492 522.024 114.425C522.641 113.342 523.474 112.517 524.524 111.95C525.574 111.367 526.749 111.075 528.049 111.075C529.349 111.075 530.524 111.367 531.574 111.95C532.624 112.517 533.449 113.333 534.049 114.4C534.666 115.467 534.974 116.708 534.974 118.125C534.974 119.542 534.658 120.792 534.024 121.875C533.408 122.942 532.566 123.767 531.499 124.35C530.433 124.933 529.249 125.225 527.949 125.225ZM527.949 123.225C528.766 123.225 529.533 123.033 530.249 122.65C530.966 122.267 531.541 121.692 531.974 120.925C532.424 120.158 532.649 119.225 532.649 118.125C532.649 117.025 532.433 116.092 531.999 115.325C531.566 114.558 530.999 113.992 530.299 113.625C529.599 113.242 528.841 113.05 528.024 113.05C527.191 113.05 526.424 113.242 525.724 113.625C525.041 113.992 524.491 114.558 524.074 115.325C523.658 116.092 523.449 117.025 523.449 118.125C523.449 119.242 523.649 120.183 524.049 120.95C524.466 121.717 525.016 122.292 525.699 122.675C526.383 123.042 527.133 123.225 527.949 123.225ZM550.116 111.3V125H547.841V122.975C547.407 123.675 546.799 124.225 546.016 124.625C545.249 125.008 544.399 125.2 543.466 125.2C542.399 125.2 541.441 124.983 540.591 124.55C539.741 124.1 539.066 123.433 538.566 122.55C538.082 121.667 537.841 120.592 537.841 119.325V111.3H540.091V119.025C540.091 120.375 540.432 121.417 541.116 122.15C541.799 122.867 542.732 123.225 543.916 123.225C545.132 123.225 546.091 122.85 546.791 122.1C547.491 121.35 547.841 120.258 547.841 118.825V111.3H550.116ZM559.607 111.075C560.79 111.075 561.823 111.333 562.707 111.85C563.607 112.367 564.273 113.017 564.707 113.8V111.3H567.007V125.3C567.007 126.55 566.74 127.658 566.207 128.625C565.673 129.608 564.907 130.375 563.907 130.925C562.923 131.475 561.773 131.75 560.457 131.75C558.657 131.75 557.157 131.325 555.957 130.475C554.757 129.625 554.048 128.467 553.832 127H556.082C556.332 127.833 556.848 128.5 557.632 129C558.415 129.517 559.357 129.775 560.457 129.775C561.707 129.775 562.723 129.383 563.507 128.6C564.307 127.817 564.707 126.717 564.707 125.3V122.425C564.257 123.225 563.59 123.892 562.707 124.425C561.823 124.958 560.79 125.225 559.607 125.225C558.39 125.225 557.282 124.925 556.282 124.325C555.298 123.725 554.523 122.883 553.957 121.8C553.39 120.717 553.107 119.483 553.107 118.1C553.107 116.7 553.39 115.475 553.957 114.425C554.523 113.358 555.298 112.533 556.282 111.95C557.282 111.367 558.39 111.075 559.607 111.075ZM564.707 118.125C564.707 117.092 564.498 116.192 564.082 115.425C563.665 114.658 563.098 114.075 562.382 113.675C561.682 113.258 560.907 113.05 560.057 113.05C559.207 113.05 558.432 113.25 557.732 113.65C557.032 114.05 556.473 114.633 556.057 115.4C555.64 116.167 555.432 117.067 555.432 118.1C555.432 119.15 555.64 120.067 556.057 120.85C556.473 121.617 557.032 122.208 557.732 122.625C558.432 123.025 559.207 123.225 560.057 123.225C560.907 123.225 561.682 123.025 562.382 122.625C563.098 122.208 563.665 121.617 564.082 120.85C564.498 120.067 564.707 119.158 564.707 118.125ZM577.651 111.05C578.685 111.05 579.618 111.275 580.451 111.725C581.285 112.158 581.935 112.817 582.401 113.7C582.885 114.583 583.126 115.658 583.126 116.925V125H580.876V117.25C580.876 115.883 580.535 114.842 579.851 114.125C579.168 113.392 578.235 113.025 577.051 113.025C575.851 113.025 574.893 113.4 574.176 114.15C573.476 114.9 573.126 115.992 573.126 117.425V125H570.851V106.5H573.126V113.25C573.576 112.55 574.193 112.008 574.976 111.625C575.776 111.242 576.668 111.05 577.651 111.05ZM599.483 125.225C598.199 125.225 597.033 124.933 595.983 124.35C594.949 123.767 594.133 122.942 593.533 121.875C592.949 120.792 592.658 119.542 592.658 118.125C592.658 116.725 592.958 115.492 593.558 114.425C594.174 113.342 595.008 112.517 596.058 111.95C597.108 111.367 598.283 111.075 599.583 111.075C600.883 111.075 602.058 111.367 603.108 111.95C604.158 112.517 604.983 113.333 605.583 114.4C606.199 115.467 606.508 116.708 606.508 118.125C606.508 119.542 606.191 120.792 605.558 121.875C604.941 122.942 604.099 123.767 603.033 124.35C601.966 124.933 600.783 125.225 599.483 125.225ZM599.483 123.225C600.299 123.225 601.066 123.033 601.783 122.65C602.499 122.267 603.074 121.692 603.508 120.925C603.958 120.158 604.183 119.225 604.183 118.125C604.183 117.025 603.966 116.092 603.533 115.325C603.099 114.558 602.533 113.992 601.833 113.625C601.133 113.242 600.374 113.05 599.558 113.05C598.724 113.05 597.958 113.242 597.258 113.625C596.574 113.992 596.024 114.558 595.608 115.325C595.191 116.092 594.983 117.025 594.983 118.125C594.983 119.242 595.183 120.183 595.583 120.95C595.999 121.717 596.549 122.292 597.233 122.675C597.916 123.042 598.666 123.225 599.483 123.225ZM621.649 111.3V125H619.374V122.975C618.94 123.675 618.332 124.225 617.549 124.625C616.782 125.008 615.932 125.2 614.999 125.2C613.932 125.2 612.974 124.983 612.124 124.55C611.274 124.1 610.599 123.433 610.099 122.55C609.615 121.667 609.374 120.592 609.374 119.325V111.3H611.624V119.025C611.624 120.375 611.965 121.417 612.649 122.15C613.332 122.867 614.265 123.225 615.449 123.225C616.665 123.225 617.624 122.85 618.324 122.1C619.024 121.35 619.374 120.258 619.374 118.825V111.3H621.649ZM627.765 113.525C628.165 112.742 628.732 112.133 629.465 111.7C630.215 111.267 631.123 111.05 632.19 111.05V113.4H631.59C629.04 113.4 627.765 114.783 627.765 117.55V125H625.49V111.3H627.765V113.525ZM640.631 118.1C640.631 116.7 640.914 115.475 641.481 114.425C642.048 113.358 642.823 112.533 643.806 111.95C644.806 111.367 645.923 111.075 647.156 111.075C648.223 111.075 649.214 111.325 650.131 111.825C651.048 112.308 651.748 112.95 652.231 113.75V106.5H654.531V125H652.231V122.425C651.781 123.242 651.114 123.917 650.231 124.45C649.348 124.967 648.314 125.225 647.131 125.225C645.914 125.225 644.806 124.925 643.806 124.325C642.823 123.725 642.048 122.883 641.481 121.8C640.914 120.717 640.631 119.483 640.631 118.1ZM652.231 118.125C652.231 117.092 652.023 116.192 651.606 115.425C651.189 114.658 650.623 114.075 649.906 113.675C649.206 113.258 648.431 113.05 647.581 113.05C646.731 113.05 645.956 113.25 645.256 113.65C644.556 114.05 643.998 114.633 643.581 115.4C643.164 116.167 642.956 117.067 642.956 118.1C642.956 119.15 643.164 120.067 643.581 120.85C643.998 121.617 644.556 122.208 645.256 122.625C645.956 123.025 646.731 123.225 647.581 123.225C648.431 123.225 649.206 123.025 649.906 122.625C650.623 122.208 651.189 121.617 651.606 120.85C652.023 120.067 652.231 119.158 652.231 118.125ZM670.876 117.625C670.876 118.058 670.851 118.517 670.801 119H659.851C659.934 120.35 660.392 121.408 661.226 122.175C662.076 122.925 663.101 123.3 664.301 123.3C665.284 123.3 666.101 123.075 666.751 122.625C667.417 122.158 667.884 121.542 668.151 120.775H670.601C670.234 122.092 669.501 123.167 668.401 124C667.301 124.817 665.934 125.225 664.301 125.225C663.001 125.225 661.834 124.933 660.801 124.35C659.784 123.767 658.984 122.942 658.401 121.875C657.817 120.792 657.526 119.542 657.526 118.125C657.526 116.708 657.809 115.467 658.376 114.4C658.942 113.333 659.734 112.517 660.751 111.95C661.784 111.367 662.967 111.075 664.301 111.075C665.601 111.075 666.751 111.358 667.751 111.925C668.751 112.492 669.517 113.275 670.051 114.275C670.601 115.258 670.876 116.375 670.876 117.625ZM668.526 117.15C668.526 116.283 668.334 115.542 667.951 114.925C667.567 114.292 667.042 113.817 666.376 113.5C665.726 113.167 665.001 113 664.201 113C663.051 113 662.067 113.367 661.251 114.1C660.451 114.833 659.992 115.85 659.876 117.15H668.526ZM678.729 125.225C677.679 125.225 676.737 125.05 675.904 124.7C675.07 124.333 674.412 123.833 673.929 123.2C673.445 122.55 673.179 121.808 673.129 120.975H675.479C675.545 121.658 675.862 122.217 676.429 122.65C677.012 123.083 677.77 123.3 678.704 123.3C679.57 123.3 680.254 123.108 680.754 122.725C681.254 122.342 681.504 121.858 681.504 121.275C681.504 120.675 681.237 120.233 680.704 119.95C680.17 119.65 679.345 119.358 678.229 119.075C677.212 118.808 676.379 118.542 675.729 118.275C675.095 117.992 674.545 117.583 674.079 117.05C673.629 116.5 673.404 115.783 673.404 114.9C673.404 114.2 673.612 113.558 674.029 112.975C674.445 112.392 675.037 111.933 675.804 111.6C676.57 111.25 677.445 111.075 678.429 111.075C679.945 111.075 681.17 111.458 682.104 112.225C683.037 112.992 683.537 114.042 683.604 115.375H681.329C681.279 114.658 680.987 114.083 680.454 113.65C679.937 113.217 679.237 113 678.354 113C677.537 113 676.887 113.175 676.404 113.525C675.92 113.875 675.679 114.333 675.679 114.9C675.679 115.35 675.82 115.725 676.104 116.025C676.404 116.308 676.77 116.542 677.204 116.725C677.654 116.892 678.27 117.083 679.054 117.3C680.037 117.567 680.837 117.833 681.454 118.1C682.07 118.35 682.595 118.733 683.029 119.25C683.479 119.767 683.712 120.442 683.729 121.275C683.729 122.025 683.52 122.7 683.104 123.3C682.687 123.9 682.095 124.375 681.329 124.725C680.579 125.058 679.712 125.225 678.729 125.225ZM688.115 109.075C687.682 109.075 687.315 108.925 687.015 108.625C686.715 108.325 686.565 107.958 686.565 107.525C686.565 107.092 686.715 106.725 687.015 106.425C687.315 106.125 687.682 105.975 688.115 105.975C688.532 105.975 688.882 106.125 689.165 106.425C689.465 106.725 689.615 107.092 689.615 107.525C689.615 107.958 689.465 108.325 689.165 108.625C688.882 108.925 688.532 109.075 688.115 109.075ZM689.215 111.3V125H686.94V111.3H689.215ZM698.742 111.075C699.926 111.075 700.959 111.333 701.842 111.85C702.742 112.367 703.409 113.017 703.842 113.8V111.3H706.142V125.3C706.142 126.55 705.876 127.658 705.342 128.625C704.809 129.608 704.042 130.375 703.042 130.925C702.059 131.475 700.909 131.75 699.592 131.75C697.792 131.75 696.292 131.325 695.092 130.475C693.892 129.625 693.184 128.467 692.967 127H695.217C695.467 127.833 695.984 128.5 696.767 129C697.551 129.517 698.492 129.775 699.592 129.775C700.842 129.775 701.859 129.383 702.642 128.6C703.442 127.817 703.842 126.717 703.842 125.3V122.425C703.392 123.225 702.726 123.892 701.842 124.425C700.959 124.958 699.926 125.225 698.742 125.225C697.526 125.225 696.417 124.925 695.417 124.325C694.434 123.725 693.659 122.883 693.092 121.8C692.526 120.717 692.242 119.483 692.242 118.1C692.242 116.7 692.526 115.475 693.092 114.425C693.659 113.358 694.434 112.533 695.417 111.95C696.417 111.367 697.526 111.075 698.742 111.075ZM703.842 118.125C703.842 117.092 703.634 116.192 703.217 115.425C702.801 114.658 702.234 114.075 701.517 113.675C700.817 113.258 700.042 113.05 699.192 113.05C698.342 113.05 697.567 113.25 696.867 113.65C696.167 114.05 695.609 114.633 695.192 115.4C694.776 116.167 694.567 117.067 694.567 118.1C694.567 119.15 694.776 120.067 695.192 120.85C695.609 121.617 696.167 122.208 696.867 122.625C697.567 123.025 698.342 123.225 699.192 123.225C700.042 123.225 700.817 123.025 701.517 122.625C702.234 122.208 702.801 121.617 703.217 120.85C703.634 120.067 703.842 119.158 703.842 118.125ZM716.662 111.05C718.329 111.05 719.679 111.558 720.712 112.575C721.745 113.575 722.262 115.025 722.262 116.925V125H720.012V117.25C720.012 115.883 719.67 114.842 718.987 114.125C718.304 113.392 717.37 113.025 716.187 113.025C714.987 113.025 714.029 113.4 713.312 114.15C712.612 114.9 712.262 115.992 712.262 117.425V125H709.987V111.3H712.262V113.25C712.712 112.55 713.32 112.008 714.087 111.625C714.87 111.242 715.729 111.05 716.662 111.05Z" fill="#FFB8BC"/>
<path d="M443 79C438.253 79 433.613 77.5924 429.666 74.9553C425.72 72.3181 422.643 68.5698 420.827 64.1844C419.01 59.799 418.535 54.9734 419.461 50.3178C420.387 45.6623 422.673 41.3859 426.029 38.0294C429.386 34.673 433.662 32.3872 438.318 31.4612C442.973 30.5351 447.799 31.0104 452.184 32.8269C456.57 34.6434 460.318 37.7195 462.955 41.6663C465.592 45.6131 467 50.2533 467 55C467 61.3652 464.471 67.4697 459.971 71.9706C455.47 76.4714 449.365 79 443 79V79ZM443 34C438.847 34 434.786 35.2316 431.333 37.5391C427.88 39.8467 425.188 43.1264 423.599 46.9637C422.009 50.8009 421.593 55.0233 422.404 59.0969C423.214 63.1705 425.214 66.9123 428.151 69.8492C431.088 72.7861 434.83 74.7862 438.903 75.5965C442.977 76.4068 447.199 75.9909 451.036 74.4015C454.874 72.812 458.153 70.1204 460.461 66.667C462.768 63.2135 464 59.1534 464 55C464 49.4305 461.788 44.089 457.849 40.1508C453.911 36.2125 448.57 34 443 34V34Z" fill="#FFB8BC"/>
<path d="M441.5 50.4999H438.5C438.5 49.7042 438.184 48.9412 437.621 48.3786C437.059 47.8159 436.296 47.4999 435.5 47.4999C434.704 47.4999 433.941 47.8159 433.379 48.3786C432.816 48.9412 432.5 49.7042 432.5 50.4999H429.5C429.5 48.9086 430.132 47.3825 431.257 46.2572C432.383 45.132 433.909 44.4999 435.5 44.4999C437.091 44.4999 438.617 45.132 439.743 46.2572C440.868 47.3825 441.5 48.9086 441.5 50.4999V50.4999Z" fill="#FFB8BC"/>
<path d="M456.5 50.4999H453.5C453.5 49.7042 453.184 48.9412 452.621 48.3786C452.059 47.8159 451.296 47.4999 450.5 47.4999C449.704 47.4999 448.941 47.8159 448.379 48.3786C447.816 48.9412 447.5 49.7042 447.5 50.4999H444.5C444.5 48.9086 445.132 47.3825 446.257 46.2572C447.383 45.132 448.909 44.4999 450.5 44.4999C452.091 44.4999 453.617 45.132 454.743 46.2572C455.868 47.3825 456.5 48.9086 456.5 50.4999V50.4999Z" fill="#FFB8BC"/>
<path d="M443 68.4996C439.817 68.4996 436.765 67.2354 434.515 64.9849C432.264 62.7345 431 59.6822 431 56.4996H434C434 58.8866 434.948 61.1758 436.636 62.8636C438.324 64.5514 440.613 65.4996 443 65.4996C445.387 65.4996 447.676 64.5514 449.364 62.8636C451.052 61.1758 452 58.8866 452 56.4996H455C455 59.6822 453.736 62.7345 451.485 64.9849C449.235 67.2354 446.183 68.4996 443 68.4996Z" fill="#FFB8BC"/>
<defs>
<filter id="filter0_d_331_4192" x="0" y="52" width="885" height="133" filterUnits="userSpaceOnUse" color-interpolation-filters="sRGB">
<feFlood flood-opacity="0" result="BackgroundImageFix"/>
<feColorMatrix in="SourceAlpha" type="matrix" values="0 0 0 0 0 0 0 0 0 0 0 0 0 0 0 0 0 0 127 0" result="hardAlpha"/>
<feOffset dy="8"/>
<feGaussianBlur stdDeviation="12.5"/>
<feComposite in2="hardAlpha" operator="out"/>
<feColorMatrix type="matrix" values="0 0 0 0 0.298039 0 0 0 0 0.164706 0 0 0 0 0.462745 0 0 0 0.55 0"/>
<feBlend mode="normal" in2="BackgroundImageFix" result="effect1_dropShadow_331_4192"/>
<feBlend mode="normal" in="SourceGraphic" in2="effect1_dropShadow_331_4192" result="shape"/>
</filter>
<filter id="filter1_d_331_4192" x="384" y="0" width="117" height="117" filterUnits="userSpaceOnUse" color-interpolation-filters="sRGB">
<feFlood flood-opacity="0" result="BackgroundImageFix"/>
<feColorMatrix in="SourceAlpha" type="matrix" values="0 0 0 0 0 0 0 0 0 0 0 0 0 0 0 0 0 0 127 0" result="hardAlpha"/>
<feOffset dy="4"/>
<feGaussianBlur stdDeviation="10"/>
<feComposite in2="hardAlpha" operator="out"/>
<feColorMatrix type="matrix" values="0 0 0 0 0 0 0 0 0 0 0 0 0 0 0 0 0 0 0.25 0"/>
<feBlend mode="normal" in2="BackgroundImageFix" result="effect1_dropShadow_331_4192"/>
<feBlend mode="normal" in="SourceGraphic" in2="effect1_dropShadow_331_4192" result="shape"/>
</filter>
</defs>
</svg>
