<svg width="1159" height="231" viewBox="0 0 1159 231" fill="none" xmlns="http://www.w3.org/2000/svg">
<rect x="132" y="71" width="934" height="9" fill="#4C2A76"/>
<path d="M8.06982 187.161C7.01182 187.161 6.06115 186.977 5.21782 186.609C4.38982 186.226 3.73815 185.704 3.26282 185.045C2.78749 184.37 2.54215 183.596 2.52682 182.722H4.75782C4.83449 183.473 5.14115 184.11 5.67782 184.631C6.22982 185.137 7.02715 185.39 8.06982 185.39C9.06649 185.39 9.84849 185.145 10.4158 184.654C10.9985 184.148 11.2898 183.504 11.2898 182.722C11.2898 182.109 11.1212 181.61 10.7838 181.227C10.4465 180.844 10.0248 180.552 9.51882 180.353C9.01282 180.154 8.33049 179.939 7.47182 179.709C6.41382 179.433 5.56282 179.157 4.91882 178.881C4.29015 178.605 3.74582 178.176 3.28582 177.593C2.84115 176.995 2.61882 176.198 2.61882 175.201C2.61882 174.327 2.84115 173.553 3.28582 172.878C3.73049 172.203 4.35149 171.682 5.14882 171.314C5.96149 170.946 6.88915 170.762 7.93182 170.762C9.43449 170.762 10.6612 171.138 11.6118 171.889C12.5778 172.64 13.1222 173.637 13.2448 174.879H10.9448C10.8682 174.266 10.5462 173.729 9.97882 173.269C9.41149 172.794 8.66015 172.556 7.72482 172.556C6.85082 172.556 6.13782 172.786 5.58582 173.246C5.03382 173.691 4.75782 174.319 4.75782 175.132C4.75782 175.715 4.91882 176.19 5.24082 176.558C5.57815 176.926 5.98449 177.21 6.45982 177.409C6.95049 177.593 7.63282 177.808 8.50682 178.053C9.56482 178.344 10.4158 178.636 11.0598 178.927C11.7038 179.203 12.2558 179.64 12.7158 180.238C13.1758 180.821 13.4058 181.618 13.4058 182.63C13.4058 183.412 13.1988 184.148 12.7848 184.838C12.3708 185.528 11.7575 186.088 10.9448 186.517C10.1322 186.946 9.17382 187.161 8.06982 187.161ZM15.7038 180.675C15.7038 179.372 15.9645 178.237 16.4858 177.271C17.0072 176.29 17.7278 175.531 18.6478 174.994C19.5832 174.457 20.6488 174.189 21.8448 174.189C23.3935 174.189 24.6662 174.565 25.6628 175.316C26.6748 176.067 27.3418 177.11 27.6638 178.444H25.4098C25.1952 177.677 24.7735 177.072 24.1448 176.627C23.5315 176.182 22.7648 175.96 21.8448 175.96C20.6488 175.96 19.6828 176.374 18.9468 177.202C18.2108 178.015 17.8428 179.172 17.8428 180.675C17.8428 182.193 18.2108 183.366 18.9468 184.194C19.6828 185.022 20.6488 185.436 21.8448 185.436C22.7648 185.436 23.5315 185.221 24.1448 184.792C24.7582 184.363 25.1798 183.749 25.4098 182.952H27.6638C27.3265 184.24 26.6518 185.275 25.6398 186.057C24.6278 186.824 23.3628 187.207 21.8448 187.207C20.6488 187.207 19.5832 186.939 18.6478 186.402C17.7278 185.865 17.0072 185.106 16.4858 184.125C15.9645 183.144 15.7038 181.994 15.7038 180.675ZM36.7125 174.166C37.6632 174.166 38.5219 174.373 39.2885 174.787C40.0552 175.186 40.6532 175.791 41.0825 176.604C41.5272 177.417 41.7495 178.406 41.7495 179.571V187H39.6795V179.87C39.6795 178.613 39.3652 177.654 38.7365 176.995C38.1079 176.32 37.2492 175.983 36.1605 175.983C35.0565 175.983 34.1749 176.328 33.5155 177.018C32.8715 177.708 32.5495 178.712 32.5495 180.031V187H30.4565V169.98H32.5495V176.19C32.9635 175.546 33.5309 175.048 34.2515 174.695C34.9875 174.342 35.8079 174.166 36.7125 174.166ZM56.6685 180.215C56.6685 180.614 56.6455 181.035 56.5995 181.48H46.5255C46.6021 182.722 47.0238 183.696 47.7905 184.401C48.5725 185.091 49.5155 185.436 50.6195 185.436C51.5241 185.436 52.2755 185.229 52.8735 184.815C53.4868 184.386 53.9161 183.818 54.1615 183.113H56.4155C56.0781 184.324 55.4035 185.313 54.3915 186.08C53.3795 186.831 52.1221 187.207 50.6195 187.207C49.4235 187.207 48.3501 186.939 47.3995 186.402C46.4641 185.865 45.7281 185.106 45.1915 184.125C44.6548 183.128 44.3865 181.978 44.3865 180.675C44.3865 179.372 44.6471 178.229 45.1685 177.248C45.6898 176.267 46.4181 175.515 47.3535 174.994C48.3041 174.457 49.3928 174.189 50.6195 174.189C51.8155 174.189 52.8735 174.45 53.7935 174.971C54.7135 175.492 55.4188 176.213 55.9095 177.133C56.4155 178.038 56.6685 179.065 56.6685 180.215ZM54.5065 179.778C54.5065 178.981 54.3301 178.298 53.9775 177.731C53.6248 177.148 53.1418 176.711 52.5285 176.42C51.9305 176.113 51.2635 175.96 50.5275 175.96C49.4695 175.96 48.5648 176.297 47.8135 176.972C47.0775 177.647 46.6558 178.582 46.5485 179.778H54.5065ZM58.6492 180.652C58.6492 179.364 58.9098 178.237 59.4312 177.271C59.9525 176.29 60.6655 175.531 61.5702 174.994C62.4902 174.457 63.5175 174.189 64.6522 174.189C65.6335 174.189 66.5458 174.419 67.3892 174.879C68.2325 175.324 68.8765 175.914 69.3212 176.65V169.98H71.4372V187H69.3212V184.631C68.9072 185.382 68.2938 186.003 67.4812 186.494C66.6685 186.969 65.7178 187.207 64.6292 187.207C63.5098 187.207 62.4902 186.931 61.5702 186.379C60.6655 185.827 59.9525 185.053 59.4312 184.056C58.9098 183.059 58.6492 181.925 58.6492 180.652ZM69.3212 180.675C69.3212 179.724 69.1295 178.896 68.7462 178.191C68.3628 177.486 67.8415 176.949 67.1822 176.581C66.5382 176.198 65.8252 176.006 65.0432 176.006C64.2612 176.006 63.5482 176.19 62.9042 176.558C62.2602 176.926 61.7465 177.463 61.3632 178.168C60.9798 178.873 60.7882 179.701 60.7882 180.652C60.7882 181.618 60.9798 182.461 61.3632 183.182C61.7465 183.887 62.2602 184.432 62.9042 184.815C63.5482 185.183 64.2612 185.367 65.0432 185.367C65.8252 185.367 66.5382 185.183 67.1822 184.815C67.8415 184.432 68.3628 183.887 68.7462 183.182C69.1295 182.461 69.3212 181.626 69.3212 180.675ZM86.1521 174.396V187H84.0591V185.137C83.6605 185.781 83.1008 186.287 82.3801 186.655C81.6748 187.008 80.8928 187.184 80.0341 187.184C79.0528 187.184 78.1711 186.985 77.3891 186.586C76.6071 186.172 75.9861 185.559 75.5261 184.746C75.0815 183.933 74.8591 182.944 74.8591 181.779V174.396H76.9291V181.503C76.9291 182.745 77.2435 183.703 77.8721 184.378C78.5008 185.037 79.3595 185.367 80.4481 185.367C81.5675 185.367 82.4491 185.022 83.0931 184.332C83.7371 183.642 84.0591 182.638 84.0591 181.319V174.396H86.1521ZM91.779 169.98V187H89.686V169.98H91.779ZM106.846 180.215C106.846 180.614 106.823 181.035 106.777 181.48H96.7032C96.7799 182.722 97.2015 183.696 97.9682 184.401C98.7502 185.091 99.6932 185.436 100.797 185.436C101.702 185.436 102.453 185.229 103.051 184.815C103.665 184.386 104.094 183.818 104.339 183.113H106.593C106.256 184.324 105.581 185.313 104.569 186.08C103.557 186.831 102.3 187.207 100.797 187.207C99.6012 187.207 98.5279 186.939 97.5772 186.402C96.6419 185.865 95.9059 185.106 95.3692 184.125C94.8325 183.128 94.5642 181.978 94.5642 180.675C94.5642 179.372 94.8249 178.229 95.3462 177.248C95.8675 176.267 96.5959 175.515 97.5312 174.994C98.4819 174.457 99.5705 174.189 100.797 174.189C101.993 174.189 103.051 174.45 103.971 174.971C104.891 175.492 105.597 176.213 106.087 177.133C106.593 178.038 106.846 179.065 106.846 180.215ZM104.684 179.778C104.684 178.981 104.508 178.298 104.155 177.731C103.803 177.148 103.32 176.711 102.706 176.42C102.108 176.113 101.441 175.96 100.705 175.96C99.6472 175.96 98.7425 176.297 97.9912 176.972C97.2552 177.647 96.8335 178.582 96.7262 179.778H104.684ZM114.959 180.652C114.959 179.364 115.219 178.237 115.741 177.271C116.262 176.29 116.975 175.531 117.88 174.994C118.8 174.457 119.819 174.189 120.939 174.189C122.043 174.189 123.001 174.427 123.814 174.902C124.626 175.377 125.232 175.975 125.631 176.696V174.396H127.747V187H125.631V184.654C125.217 185.39 124.596 186.003 123.768 186.494C122.955 186.969 122.004 187.207 120.916 187.207C119.796 187.207 118.784 186.931 117.88 186.379C116.975 185.827 116.262 185.053 115.741 184.056C115.219 183.059 114.959 181.925 114.959 180.652ZM125.631 180.675C125.631 179.724 125.439 178.896 125.056 178.191C124.672 177.486 124.151 176.949 123.492 176.581C122.848 176.198 122.135 176.006 121.353 176.006C120.571 176.006 119.858 176.19 119.214 176.558C118.57 176.926 118.056 177.463 117.673 178.168C117.289 178.873 117.098 179.701 117.098 180.652C117.098 181.618 117.289 182.461 117.673 183.182C118.056 183.887 118.57 184.432 119.214 184.815C119.858 185.183 120.571 185.367 121.353 185.367C122.135 185.367 122.848 185.183 123.492 184.815C124.151 184.432 124.672 183.887 125.056 183.182C125.439 182.461 125.631 181.626 125.631 180.675ZM139.969 176.121V183.55C139.969 184.163 140.099 184.6 140.36 184.861C140.62 185.106 141.073 185.229 141.717 185.229H143.258V187H141.372C140.206 187 139.332 186.732 138.75 186.195C138.167 185.658 137.876 184.777 137.876 183.55V176.121H136.243V174.396H137.876V171.222H139.969V174.396H143.258V176.121H139.969ZM146.874 172.349C146.476 172.349 146.138 172.211 145.862 171.935C145.586 171.659 145.448 171.322 145.448 170.923C145.448 170.524 145.586 170.187 145.862 169.911C146.138 169.635 146.476 169.497 146.874 169.497C147.258 169.497 147.58 169.635 147.84 169.911C148.116 170.187 148.254 170.524 148.254 170.923C148.254 171.322 148.116 171.659 147.84 171.935C147.58 172.211 147.258 172.349 146.874 172.349ZM147.886 174.396V187H145.793V174.396H147.886ZM166.611 174.166C167.592 174.166 168.466 174.373 169.233 174.787C169.999 175.186 170.605 175.791 171.05 176.604C171.494 177.417 171.717 178.406 171.717 179.571V187H169.647V179.87C169.647 178.613 169.332 177.654 168.704 176.995C168.09 176.32 167.255 175.983 166.197 175.983C165.108 175.983 164.242 176.336 163.598 177.041C162.954 177.731 162.632 178.735 162.632 180.054V187H160.562V179.87C160.562 178.613 160.247 177.654 159.619 176.995C159.005 176.32 158.17 175.983 157.112 175.983C156.023 175.983 155.157 176.336 154.513 177.041C153.869 177.731 153.547 178.735 153.547 180.054V187H151.454V174.396H153.547V176.213C153.961 175.554 154.513 175.048 155.203 174.695C155.908 174.342 156.682 174.166 157.526 174.166C158.584 174.166 159.519 174.404 160.332 174.879C161.144 175.354 161.75 176.052 162.149 176.972C162.501 176.083 163.084 175.393 163.897 174.902C164.709 174.411 165.614 174.166 166.611 174.166ZM186.65 180.215C186.65 180.614 186.627 181.035 186.581 181.48H176.507C176.584 182.722 177.005 183.696 177.772 184.401C178.554 185.091 179.497 185.436 180.601 185.436C181.506 185.436 182.257 185.229 182.855 184.815C183.468 184.386 183.898 183.818 184.143 183.113H186.397C186.06 184.324 185.385 185.313 184.373 186.08C183.361 186.831 182.104 187.207 180.601 187.207C179.405 187.207 178.332 186.939 177.381 186.402C176.446 185.865 175.71 185.106 175.173 184.125C174.636 183.128 174.368 181.978 174.368 180.675C174.368 179.372 174.629 178.229 175.15 177.248C175.671 176.267 176.4 175.515 177.335 174.994C178.286 174.457 179.374 174.189 180.601 174.189C181.797 174.189 182.855 174.45 183.775 174.971C184.695 175.492 185.4 176.213 185.891 177.133C186.397 178.038 186.65 179.065 186.65 180.215ZM184.488 179.778C184.488 178.981 184.312 178.298 183.959 177.731C183.606 177.148 183.123 176.711 182.51 176.42C181.912 176.113 181.245 175.96 180.509 175.96C179.451 175.96 178.546 176.297 177.795 176.972C177.059 177.647 176.637 178.582 176.53 179.778H184.488ZM198.097 176.121V183.55C198.097 184.163 198.228 184.6 198.488 184.861C198.749 185.106 199.201 185.229 199.845 185.229H201.386V187H199.5C198.335 187 197.461 186.732 196.878 186.195C196.296 185.658 196.004 184.777 196.004 183.55V176.121H194.371V174.396H196.004V171.222H198.097V174.396H201.386V176.121H198.097ZM210.178 174.166C211.129 174.166 211.988 174.373 212.754 174.787C213.521 175.186 214.119 175.791 214.548 176.604C214.993 177.417 215.215 178.406 215.215 179.571V187H213.145V179.87C213.145 178.613 212.831 177.654 212.202 176.995C211.574 176.32 210.715 175.983 209.626 175.983C208.522 175.983 207.641 176.328 206.981 177.018C206.337 177.708 206.015 178.712 206.015 180.031V187H203.922V169.98H206.015V176.19C206.429 175.546 206.997 175.048 207.717 174.695C208.453 174.342 209.274 174.166 210.178 174.166ZM217.852 180.652C217.852 179.364 218.113 178.237 218.634 177.271C219.156 176.29 219.869 175.531 220.773 174.994C221.693 174.457 222.713 174.189 223.832 174.189C224.936 174.189 225.895 174.427 226.707 174.902C227.52 175.377 228.126 175.975 228.524 176.696V174.396H230.64V187H228.524V184.654C228.11 185.39 227.489 186.003 226.661 186.494C225.849 186.969 224.898 187.207 223.809 187.207C222.69 187.207 221.678 186.931 220.773 186.379C219.869 185.827 219.156 185.053 218.634 184.056C218.113 183.059 217.852 181.925 217.852 180.652ZM228.524 180.675C228.524 179.724 228.333 178.896 227.949 178.191C227.566 177.486 227.045 176.949 226.385 176.581C225.741 176.198 225.028 176.006 224.246 176.006C223.464 176.006 222.751 176.19 222.107 176.558C221.463 176.926 220.95 177.463 220.566 178.168C220.183 178.873 219.991 179.701 219.991 180.652C219.991 181.618 220.183 182.461 220.566 183.182C220.95 183.887 221.463 184.432 222.107 184.815C222.751 185.183 223.464 185.367 224.246 185.367C225.028 185.367 225.741 185.183 226.385 184.815C227.045 184.432 227.566 183.887 227.949 183.182C228.333 182.461 228.524 181.626 228.524 180.675ZM236.73 176.121V183.55C236.73 184.163 236.861 184.6 237.121 184.861C237.382 185.106 237.834 185.229 238.478 185.229H240.019V187H238.133C236.968 187 236.094 186.732 235.511 186.195C234.929 185.658 234.637 184.777 234.637 183.55V176.121H233.004V174.396H234.637V171.222H236.73V174.396H240.019V176.121H236.73ZM63.8003 209.396L59.8673 222H57.7053L54.6693 211.995L51.6333 222H49.4713L45.5153 209.396H47.6543L50.5523 219.976L53.6803 209.396H55.8193L58.8783 219.999L61.7303 209.396H63.8003ZM71.3744 222.207C70.1938 222.207 69.1204 221.939 68.1544 221.402C67.2038 220.865 66.4524 220.106 65.9004 219.125C65.3638 218.128 65.0954 216.978 65.0954 215.675C65.0954 214.387 65.3714 213.252 65.9234 212.271C66.4908 211.274 67.2574 210.515 68.2234 209.994C69.1894 209.457 70.2704 209.189 71.4664 209.189C72.6624 209.189 73.7434 209.457 74.7094 209.994C75.6754 210.515 76.4344 211.267 76.9864 212.248C77.5538 213.229 77.8374 214.372 77.8374 215.675C77.8374 216.978 77.5461 218.128 76.9634 219.125C76.3961 220.106 75.6218 220.865 74.6404 221.402C73.6591 221.939 72.5704 222.207 71.3744 222.207ZM71.3744 220.367C72.1258 220.367 72.8311 220.191 73.4904 219.838C74.1498 219.485 74.6788 218.956 75.0774 218.251C75.4914 217.546 75.6984 216.687 75.6984 215.675C75.6984 214.663 75.4991 213.804 75.1004 213.099C74.7018 212.394 74.1804 211.872 73.5364 211.535C72.8924 211.182 72.1948 211.006 71.4434 211.006C70.6768 211.006 69.9714 211.182 69.3274 211.535C68.6988 211.872 68.1928 212.394 67.8094 213.099C67.4261 213.804 67.2344 214.663 67.2344 215.675C67.2344 216.702 67.4184 217.569 67.7864 218.274C68.1698 218.979 68.6758 219.508 69.3044 219.861C69.9331 220.198 70.6231 220.367 71.3744 220.367ZM82.6824 211.443C83.0504 210.722 83.5717 210.163 84.2464 209.764C84.9364 209.365 85.772 209.166 86.7534 209.166V211.328H86.2014C83.8554 211.328 82.6824 212.601 82.6824 215.146V222H80.5894V209.396H82.6824V211.443ZM96.2074 222L91.2624 216.434V222H89.1694V204.98H91.2624V214.985L96.1154 209.396H99.0364L93.1024 215.675L99.0594 222H96.2074ZM105.468 222.207C104.502 222.207 103.636 222.046 102.869 221.724C102.103 221.387 101.497 220.927 101.052 220.344C100.608 219.746 100.362 219.064 100.316 218.297H102.478C102.54 218.926 102.831 219.439 103.352 219.838C103.889 220.237 104.587 220.436 105.445 220.436C106.243 220.436 106.871 220.26 107.331 219.907C107.791 219.554 108.021 219.11 108.021 218.573C108.021 218.021 107.776 217.615 107.285 217.354C106.795 217.078 106.036 216.81 105.008 216.549C104.073 216.304 103.306 216.058 102.708 215.813C102.126 215.552 101.62 215.177 101.19 214.686C100.776 214.18 100.569 213.521 100.569 212.708C100.569 212.064 100.761 211.474 101.144 210.937C101.528 210.4 102.072 209.979 102.777 209.672C103.483 209.35 104.288 209.189 105.192 209.189C106.588 209.189 107.715 209.542 108.573 210.247C109.432 210.952 109.892 211.918 109.953 213.145H107.86C107.814 212.486 107.546 211.957 107.055 211.558C106.58 211.159 105.936 210.96 105.123 210.96C104.372 210.96 103.774 211.121 103.329 211.443C102.885 211.765 102.662 212.187 102.662 212.708C102.662 213.122 102.793 213.467 103.053 213.743C103.329 214.004 103.667 214.218 104.065 214.387C104.479 214.54 105.047 214.717 105.767 214.916C106.672 215.161 107.408 215.407 107.975 215.652C108.543 215.882 109.026 216.235 109.424 216.71C109.838 217.185 110.053 217.806 110.068 218.573C110.068 219.263 109.877 219.884 109.493 220.436C109.11 220.988 108.566 221.425 107.86 221.747C107.17 222.054 106.373 222.207 105.468 222.207ZM124.284 211.121H121.639V222H119.546V211.121H117.913V209.396H119.546V208.499C119.546 207.088 119.906 206.061 120.627 205.417C121.363 204.758 122.536 204.428 124.146 204.428V206.176C123.226 206.176 122.574 206.36 122.191 206.728C121.823 207.081 121.639 207.671 121.639 208.499V209.396H124.284V211.121ZM132.221 222.207C131.04 222.207 129.967 221.939 129.001 221.402C128.05 220.865 127.299 220.106 126.747 219.125C126.21 218.128 125.942 216.978 125.942 215.675C125.942 214.387 126.218 213.252 126.77 212.271C127.337 211.274 128.104 210.515 129.07 209.994C130.036 209.457 131.117 209.189 132.313 209.189C133.509 209.189 134.59 209.457 135.556 209.994C136.522 210.515 137.281 211.267 137.833 212.248C138.4 213.229 138.684 214.372 138.684 215.675C138.684 216.978 138.393 218.128 137.81 219.125C137.243 220.106 136.468 220.865 135.487 221.402C134.506 221.939 133.417 222.207 132.221 222.207ZM132.221 220.367C132.972 220.367 133.678 220.191 134.337 219.838C134.996 219.485 135.525 218.956 135.924 218.251C136.338 217.546 136.545 216.687 136.545 215.675C136.545 214.663 136.346 213.804 135.947 213.099C135.548 212.394 135.027 211.872 134.383 211.535C133.739 211.182 133.041 211.006 132.29 211.006C131.523 211.006 130.818 211.182 130.174 211.535C129.545 211.872 129.039 212.394 128.656 213.099C128.273 213.804 128.081 214.663 128.081 215.675C128.081 216.702 128.265 217.569 128.633 218.274C129.016 218.979 129.522 219.508 130.151 219.861C130.78 220.198 131.47 220.367 132.221 220.367ZM143.529 211.443C143.897 210.722 144.418 210.163 145.093 209.764C145.783 209.365 146.619 209.166 147.6 209.166V211.328H147.048C144.702 211.328 143.529 212.601 143.529 215.146V222H141.436V209.396H143.529V211.443ZM167.004 209.396L159.414 227.934H157.252L159.736 221.862L154.653 209.396H156.976L160.932 219.608L164.842 209.396H167.004ZM174.605 222.207C173.424 222.207 172.351 221.939 171.385 221.402C170.434 220.865 169.683 220.106 169.131 219.125C168.594 218.128 168.326 216.978 168.326 215.675C168.326 214.387 168.602 213.252 169.154 212.271C169.721 211.274 170.488 210.515 171.454 209.994C172.42 209.457 173.501 209.189 174.697 209.189C175.893 209.189 176.974 209.457 177.94 209.994C178.906 210.515 179.665 211.267 180.217 212.248C180.784 213.229 181.068 214.372 181.068 215.675C181.068 216.978 180.777 218.128 180.194 219.125C179.627 220.106 178.852 220.865 177.871 221.402C176.89 221.939 175.801 222.207 174.605 222.207ZM174.605 220.367C175.356 220.367 176.062 220.191 176.721 219.838C177.38 219.485 177.909 218.956 178.308 218.251C178.722 217.546 178.929 216.687 178.929 215.675C178.929 214.663 178.73 213.804 178.331 213.099C177.932 212.394 177.411 211.872 176.767 211.535C176.123 211.182 175.425 211.006 174.674 211.006C173.907 211.006 173.202 211.182 172.558 211.535C171.929 211.872 171.423 212.394 171.04 213.099C170.657 213.804 170.465 214.663 170.465 215.675C170.465 216.702 170.649 217.569 171.017 218.274C171.4 218.979 171.906 219.508 172.535 219.861C173.164 220.198 173.854 220.367 174.605 220.367ZM194.998 209.396V222H192.905V220.137C192.506 220.781 191.946 221.287 191.226 221.655C190.52 222.008 189.738 222.184 188.88 222.184C187.898 222.184 187.017 221.985 186.235 221.586C185.453 221.172 184.832 220.559 184.372 219.746C183.927 218.933 183.705 217.944 183.705 216.779V209.396H185.775V216.503C185.775 217.745 186.089 218.703 186.718 219.378C187.346 220.037 188.205 220.367 189.294 220.367C190.413 220.367 191.295 220.022 191.939 219.332C192.583 218.642 192.905 217.638 192.905 216.319V209.396H194.998Z" fill="#270641"/>
<path d="M355.274 170.969L350.628 187H348.282L344.556 174.097L340.692 187L338.369 187.023L333.884 170.969H336.115L339.611 184.562L343.475 170.969H345.821L349.501 184.516L353.02 170.969H355.274ZM356.783 180.652C356.783 179.364 357.044 178.237 357.565 177.271C358.086 176.29 358.799 175.531 359.704 174.994C360.624 174.457 361.644 174.189 362.763 174.189C363.867 174.189 364.825 174.427 365.638 174.902C366.451 175.377 367.056 175.975 367.455 176.696V174.396H369.571V187H367.455V184.654C367.041 185.39 366.42 186.003 365.592 186.494C364.779 186.969 363.829 187.207 362.74 187.207C361.621 187.207 360.609 186.931 359.704 186.379C358.799 185.827 358.086 185.053 357.565 184.056C357.044 183.059 356.783 181.925 356.783 180.652ZM367.455 180.675C367.455 179.724 367.263 178.896 366.88 178.191C366.497 177.486 365.975 176.949 365.316 176.581C364.672 176.198 363.959 176.006 363.177 176.006C362.395 176.006 361.682 176.19 361.038 176.558C360.394 176.926 359.88 177.463 359.497 178.168C359.114 178.873 358.922 179.701 358.922 180.652C358.922 181.618 359.114 182.461 359.497 183.182C359.88 183.887 360.394 184.432 361.038 184.815C361.682 185.183 362.395 185.367 363.177 185.367C363.959 185.367 364.672 185.183 365.316 184.815C365.975 184.432 366.497 183.887 366.88 183.182C367.263 182.461 367.455 181.626 367.455 180.675ZM375.201 169.98V187H373.108V169.98H375.201ZM385.806 187L380.861 181.434V187H378.768V169.98H380.861V179.985L385.714 174.396H388.635L382.701 180.675L388.658 187H385.806ZM397.818 172.349C397.419 172.349 397.082 172.211 396.806 171.935C396.53 171.659 396.392 171.322 396.392 170.923C396.392 170.524 396.53 170.187 396.806 169.911C397.082 169.635 397.419 169.497 397.818 169.497C398.201 169.497 398.523 169.635 398.784 169.911C399.06 170.187 399.198 170.524 399.198 170.923C399.198 171.322 399.06 171.659 398.784 171.935C398.523 172.211 398.201 172.349 397.818 172.349ZM398.83 174.396V187H396.737V174.396H398.83ZM408.538 174.166C410.071 174.166 411.313 174.634 412.264 175.569C413.215 176.489 413.69 177.823 413.69 179.571V187H411.62V179.87C411.62 178.613 411.306 177.654 410.677 176.995C410.048 176.32 409.19 175.983 408.101 175.983C406.997 175.983 406.115 176.328 405.456 177.018C404.812 177.708 404.49 178.712 404.49 180.031V187H402.397V174.396H404.49V176.19C404.904 175.546 405.464 175.048 406.169 174.695C406.89 174.342 407.679 174.166 408.538 174.166ZM419.662 176.121V183.55C419.662 184.163 419.792 184.6 420.053 184.861C420.314 185.106 420.766 185.229 421.41 185.229H422.951V187H421.065C419.9 187 419.026 186.732 418.443 186.195C417.86 185.658 417.569 184.777 417.569 183.55V176.121H415.936V174.396H417.569V171.222H419.662V174.396H422.951V176.121H419.662ZM430.984 187.207C429.803 187.207 428.73 186.939 427.764 186.402C426.813 185.865 426.062 185.106 425.51 184.125C424.973 183.128 424.705 181.978 424.705 180.675C424.705 179.387 424.981 178.252 425.533 177.271C426.1 176.274 426.867 175.515 427.833 174.994C428.799 174.457 429.88 174.189 431.076 174.189C432.272 174.189 433.353 174.457 434.319 174.994C435.285 175.515 436.044 176.267 436.596 177.248C437.163 178.229 437.447 179.372 437.447 180.675C437.447 181.978 437.155 183.128 436.573 184.125C436.005 185.106 435.231 185.865 434.25 186.402C433.268 186.939 432.18 187.207 430.984 187.207ZM430.984 185.367C431.735 185.367 432.44 185.191 433.1 184.838C433.759 184.485 434.288 183.956 434.687 183.251C435.101 182.546 435.308 181.687 435.308 180.675C435.308 179.663 435.108 178.804 434.71 178.099C434.311 177.394 433.79 176.872 433.146 176.535C432.502 176.182 431.804 176.006 431.053 176.006C430.286 176.006 429.581 176.182 428.937 176.535C428.308 176.872 427.802 177.394 427.419 178.099C427.035 178.804 426.844 179.663 426.844 180.675C426.844 181.702 427.028 182.569 427.396 183.274C427.779 183.979 428.285 184.508 428.914 184.861C429.542 185.198 430.232 185.367 430.984 185.367ZM451.828 187.207C450.647 187.207 449.574 186.939 448.608 186.402C447.657 185.865 446.906 185.106 446.354 184.125C445.817 183.128 445.549 181.978 445.549 180.675C445.549 179.387 445.825 178.252 446.377 177.271C446.944 176.274 447.711 175.515 448.677 174.994C449.643 174.457 450.724 174.189 451.92 174.189C453.116 174.189 454.197 174.457 455.163 174.994C456.129 175.515 456.888 176.267 457.44 177.248C458.007 178.229 458.291 179.372 458.291 180.675C458.291 181.978 457.999 183.128 457.417 184.125C456.849 185.106 456.075 185.865 455.094 186.402C454.112 186.939 453.024 187.207 451.828 187.207ZM451.828 185.367C452.579 185.367 453.284 185.191 453.944 184.838C454.603 184.485 455.132 183.956 455.531 183.251C455.945 182.546 456.152 181.687 456.152 180.675C456.152 179.663 455.952 178.804 455.554 178.099C455.155 177.394 454.634 176.872 453.99 176.535C453.346 176.182 452.648 176.006 451.897 176.006C451.13 176.006 450.425 176.182 449.781 176.535C449.152 176.872 448.646 177.394 448.263 178.099C447.879 178.804 447.688 179.663 447.688 180.675C447.688 181.702 447.872 182.569 448.24 183.274C448.623 183.979 449.129 184.508 449.758 184.861C450.386 185.198 451.076 185.367 451.828 185.367ZM472.22 174.396V187H470.127V185.137C469.729 185.781 469.169 186.287 468.448 186.655C467.743 187.008 466.961 187.184 466.102 187.184C465.121 187.184 464.239 186.985 463.457 186.586C462.675 186.172 462.054 185.559 461.594 184.746C461.15 183.933 460.927 182.944 460.927 181.779V174.396H462.997V181.503C462.997 182.745 463.312 183.703 463.94 184.378C464.569 185.037 465.428 185.367 466.516 185.367C467.636 185.367 468.517 185.022 469.161 184.332C469.805 183.642 470.127 182.638 470.127 181.319V174.396H472.22ZM477.847 176.443C478.215 175.722 478.737 175.163 479.411 174.764C480.101 174.365 480.937 174.166 481.918 174.166V176.328H481.366C479.02 176.328 477.847 177.601 477.847 180.146V187H475.754V174.396H477.847V176.443ZM494.928 187.207C493.962 187.207 493.096 187.046 492.329 186.724C491.563 186.387 490.957 185.927 490.512 185.344C490.068 184.746 489.822 184.064 489.776 183.297H491.938C492 183.926 492.291 184.439 492.812 184.838C493.349 185.237 494.047 185.436 494.905 185.436C495.703 185.436 496.331 185.26 496.791 184.907C497.251 184.554 497.481 184.11 497.481 183.573C497.481 183.021 497.236 182.615 496.745 182.354C496.255 182.078 495.496 181.81 494.468 181.549C493.533 181.304 492.766 181.058 492.168 180.813C491.586 180.552 491.08 180.177 490.65 179.686C490.236 179.18 490.029 178.521 490.029 177.708C490.029 177.064 490.221 176.474 490.604 175.937C490.988 175.4 491.532 174.979 492.237 174.672C492.943 174.35 493.748 174.189 494.652 174.189C496.048 174.189 497.175 174.542 498.033 175.247C498.892 175.952 499.352 176.918 499.413 178.145H497.32C497.274 177.486 497.006 176.957 496.515 176.558C496.04 176.159 495.396 175.96 494.583 175.96C493.832 175.96 493.234 176.121 492.789 176.443C492.345 176.765 492.122 177.187 492.122 177.708C492.122 178.122 492.253 178.467 492.513 178.743C492.789 179.004 493.127 179.218 493.525 179.387C493.939 179.54 494.507 179.717 495.227 179.916C496.132 180.161 496.868 180.407 497.435 180.652C498.003 180.882 498.486 181.235 498.884 181.71C499.298 182.185 499.513 182.806 499.528 183.573C499.528 184.263 499.337 184.884 498.953 185.436C498.57 185.988 498.026 186.425 497.32 186.747C496.63 187.054 495.833 187.207 494.928 187.207ZM505.036 176.121V183.55C505.036 184.163 505.166 184.6 505.427 184.861C505.688 185.106 506.14 185.229 506.784 185.229H508.325V187H506.439C505.274 187 504.4 186.732 503.817 186.195C503.234 185.658 502.943 184.777 502.943 183.55V176.121H501.31V174.396H502.943V171.222H505.036V174.396H508.325V176.121H505.036ZM516.358 187.207C515.177 187.207 514.104 186.939 513.138 186.402C512.187 185.865 511.436 185.106 510.884 184.125C510.347 183.128 510.079 181.978 510.079 180.675C510.079 179.387 510.355 178.252 510.907 177.271C511.474 176.274 512.241 175.515 513.207 174.994C514.173 174.457 515.254 174.189 516.45 174.189C517.646 174.189 518.727 174.457 519.693 174.994C520.659 175.515 521.418 176.267 521.97 177.248C522.537 178.229 522.821 179.372 522.821 180.675C522.821 181.978 522.53 183.128 521.947 184.125C521.38 185.106 520.605 185.865 519.624 186.402C518.643 186.939 517.554 187.207 516.358 187.207ZM516.358 185.367C517.109 185.367 517.815 185.191 518.474 184.838C519.133 184.485 519.662 183.956 520.061 183.251C520.475 182.546 520.682 181.687 520.682 180.675C520.682 179.663 520.483 178.804 520.084 178.099C519.685 177.394 519.164 176.872 518.52 176.535C517.876 176.182 517.178 176.006 516.427 176.006C515.66 176.006 514.955 176.182 514.311 176.535C513.682 176.872 513.176 177.394 512.793 178.099C512.41 178.804 512.218 179.663 512.218 180.675C512.218 181.702 512.402 182.569 512.77 183.274C513.153 183.979 513.659 184.508 514.288 184.861C514.917 185.198 515.607 185.367 516.358 185.367ZM527.666 176.443C528.034 175.722 528.555 175.163 529.23 174.764C529.92 174.365 530.755 174.166 531.737 174.166V176.328H531.185C528.839 176.328 527.666 177.601 527.666 180.146V187H525.573V174.396H527.666V176.443ZM545.653 180.215C545.653 180.614 545.63 181.035 545.584 181.48H535.51C535.587 182.722 536.008 183.696 536.775 184.401C537.557 185.091 538.5 185.436 539.604 185.436C540.509 185.436 541.26 185.229 541.858 184.815C542.471 184.386 542.901 183.818 543.146 183.113H545.4C545.063 184.324 544.388 185.313 543.376 186.08C542.364 186.831 541.107 187.207 539.604 187.207C538.408 187.207 537.335 186.939 536.384 186.402C535.449 185.865 534.713 185.106 534.176 184.125C533.639 183.128 533.371 181.978 533.371 180.675C533.371 179.372 533.632 178.229 534.153 177.248C534.674 176.267 535.403 175.515 536.338 174.994C537.289 174.457 538.377 174.189 539.604 174.189C540.8 174.189 541.858 174.45 542.778 174.971C543.698 175.492 544.403 176.213 544.894 177.133C545.4 178.038 545.653 179.065 545.653 180.215ZM543.491 179.778C543.491 178.981 543.315 178.298 542.962 177.731C542.609 177.148 542.126 176.711 541.513 176.42C540.915 176.113 540.248 175.96 539.512 175.96C538.454 175.96 537.549 176.297 536.798 176.972C536.062 177.647 535.64 178.582 535.533 179.778H543.491ZM330.875 222.207C329.695 222.207 328.621 221.939 327.655 221.402C326.705 220.865 325.953 220.106 325.401 219.125C324.865 218.128 324.596 216.978 324.596 215.675C324.596 214.387 324.872 213.252 325.424 212.271C325.992 211.274 326.758 210.515 327.724 209.994C328.69 209.457 329.771 209.189 330.967 209.189C332.163 209.189 333.244 209.457 334.21 209.994C335.176 210.515 335.935 211.267 336.487 212.248C337.055 213.229 337.338 214.372 337.338 215.675C337.338 216.978 337.047 218.128 336.464 219.125C335.897 220.106 335.123 220.865 334.141 221.402C333.16 221.939 332.071 222.207 330.875 222.207ZM330.875 220.367C331.627 220.367 332.332 220.191 332.991 219.838C333.651 219.485 334.18 218.956 334.578 218.251C334.992 217.546 335.199 216.687 335.199 215.675C335.199 214.663 335 213.804 334.601 213.099C334.203 212.394 333.681 211.872 333.037 211.535C332.393 211.182 331.696 211.006 330.944 211.006C330.178 211.006 329.472 211.182 328.828 211.535C328.2 211.872 327.694 212.394 327.31 213.099C326.927 213.804 326.735 214.663 326.735 215.675C326.735 216.702 326.919 217.569 327.287 218.274C327.671 218.979 328.177 219.508 328.805 219.861C329.434 220.198 330.124 220.367 330.875 220.367ZM342.183 211.443C342.551 210.722 343.073 210.163 343.747 209.764C344.437 209.365 345.273 209.166 346.254 209.166V211.328H345.702C343.356 211.328 342.183 212.601 342.183 215.146V222H340.09V209.396H342.183V211.443ZM354.02 215.675C354.02 214.372 354.281 213.237 354.802 212.271C355.324 211.29 356.044 210.531 356.964 209.994C357.9 209.457 358.965 209.189 360.161 209.189C361.71 209.189 362.983 209.565 363.979 210.316C364.991 211.067 365.658 212.11 365.98 213.444H363.726C363.512 212.677 363.09 212.072 362.461 211.627C361.848 211.182 361.081 210.96 360.161 210.96C358.965 210.96 357.999 211.374 357.263 212.202C356.527 213.015 356.159 214.172 356.159 215.675C356.159 217.193 356.527 218.366 357.263 219.194C357.999 220.022 358.965 220.436 360.161 220.436C361.081 220.436 361.848 220.221 362.461 219.792C363.075 219.363 363.496 218.749 363.726 217.952H365.98C365.643 219.24 364.968 220.275 363.956 221.057C362.944 221.824 361.679 222.207 360.161 222.207C358.965 222.207 357.9 221.939 356.964 221.402C356.044 220.865 355.324 220.106 354.802 219.125C354.281 218.144 354.02 216.994 354.02 215.675ZM374.27 222.207C373.089 222.207 372.016 221.939 371.05 221.402C370.099 220.865 369.348 220.106 368.796 219.125C368.259 218.128 367.991 216.978 367.991 215.675C367.991 214.387 368.267 213.252 368.819 212.271C369.386 211.274 370.153 210.515 371.119 209.994C372.085 209.457 373.166 209.189 374.362 209.189C375.558 209.189 376.639 209.457 377.605 209.994C378.571 210.515 379.33 211.267 379.882 212.248C380.449 213.229 380.733 214.372 380.733 215.675C380.733 216.978 380.442 218.128 379.859 219.125C379.292 220.106 378.517 220.865 377.536 221.402C376.555 221.939 375.466 222.207 374.27 222.207ZM374.27 220.367C375.021 220.367 375.727 220.191 376.386 219.838C377.045 219.485 377.574 218.956 377.973 218.251C378.387 217.546 378.594 216.687 378.594 215.675C378.594 214.663 378.395 213.804 377.996 213.099C377.597 212.394 377.076 211.872 376.432 211.535C375.788 211.182 375.09 211.006 374.339 211.006C373.572 211.006 372.867 211.182 372.223 211.535C371.594 211.872 371.088 212.394 370.705 213.099C370.322 213.804 370.13 214.663 370.13 215.675C370.13 216.702 370.314 217.569 370.682 218.274C371.065 218.979 371.571 219.508 372.2 219.861C372.829 220.198 373.519 220.367 374.27 220.367ZM389.626 209.166C391.159 209.166 392.401 209.634 393.352 210.569C394.303 211.489 394.778 212.823 394.778 214.571V222H392.708V214.87C392.708 213.613 392.394 212.654 391.765 211.995C391.136 211.32 390.278 210.983 389.189 210.983C388.085 210.983 387.203 211.328 386.544 212.018C385.9 212.708 385.578 213.712 385.578 215.031V222H383.485V209.396H385.578V211.19C385.992 210.546 386.552 210.048 387.257 209.695C387.978 209.342 388.767 209.166 389.626 209.166ZM404.338 209.166C405.871 209.166 407.113 209.634 408.064 210.569C409.014 211.489 409.49 212.823 409.49 214.571V222H407.42V214.87C407.42 213.613 407.105 212.654 406.477 211.995C405.848 211.32 404.989 210.983 403.901 210.983C402.797 210.983 401.915 211.328 401.256 212.018C400.612 212.708 400.29 213.712 400.29 215.031V222H398.197V209.396H400.29V211.19C400.704 210.546 401.263 210.048 401.969 209.695C402.689 209.342 403.479 209.166 404.338 209.166ZM424.409 215.215C424.409 215.614 424.386 216.035 424.34 216.48H414.266C414.342 217.722 414.764 218.696 415.531 219.401C416.313 220.091 417.256 220.436 418.36 220.436C419.264 220.436 420.016 220.229 420.614 219.815C421.227 219.386 421.656 218.818 421.902 218.113H424.156C423.818 219.324 423.144 220.313 422.132 221.08C421.12 221.831 419.862 222.207 418.36 222.207C417.164 222.207 416.09 221.939 415.14 221.402C414.204 220.865 413.468 220.106 412.932 219.125C412.395 218.128 412.127 216.978 412.127 215.675C412.127 214.372 412.387 213.229 412.909 212.248C413.43 211.267 414.158 210.515 415.094 209.994C416.044 209.457 417.133 209.189 418.36 209.189C419.556 209.189 420.614 209.45 421.534 209.971C422.454 210.492 423.159 211.213 423.65 212.133C424.156 213.038 424.409 214.065 424.409 215.215ZM422.247 214.778C422.247 213.981 422.07 213.298 421.718 212.731C421.365 212.148 420.882 211.711 420.269 211.42C419.671 211.113 419.004 210.96 418.268 210.96C417.21 210.96 416.305 211.297 415.554 211.972C414.818 212.647 414.396 213.582 414.289 214.778H422.247ZM426.389 215.675C426.389 214.372 426.65 213.237 427.171 212.271C427.693 211.29 428.413 210.531 429.333 209.994C430.269 209.457 431.334 209.189 432.53 209.189C434.079 209.189 435.352 209.565 436.348 210.316C437.36 211.067 438.027 212.11 438.349 213.444H436.095C435.881 212.677 435.459 212.072 434.83 211.627C434.217 211.182 433.45 210.96 432.53 210.96C431.334 210.96 430.368 211.374 429.632 212.202C428.896 213.015 428.528 214.172 428.528 215.675C428.528 217.193 428.896 218.366 429.632 219.194C430.368 220.022 431.334 220.436 432.53 220.436C433.45 220.436 434.217 220.221 434.83 219.792C435.444 219.363 435.865 218.749 436.095 217.952H438.349C438.012 219.24 437.337 220.275 436.325 221.057C435.313 221.824 434.048 222.207 432.53 222.207C431.334 222.207 430.269 221.939 429.333 221.402C428.413 220.865 427.693 220.106 427.171 219.125C426.65 218.144 426.389 216.994 426.389 215.675ZM443.695 211.121V218.55C443.695 219.163 443.825 219.6 444.086 219.861C444.347 220.106 444.799 220.229 445.443 220.229H446.984V222H445.098C443.933 222 443.059 221.732 442.476 221.195C441.893 220.658 441.602 219.777 441.602 218.55V211.121H439.969V209.396H441.602V206.222H443.695V209.396H446.984V211.121H443.695ZM457.745 211.443C458.113 210.722 458.634 210.163 459.309 209.764C459.999 209.365 460.835 209.166 461.816 209.166V211.328H461.264C458.918 211.328 457.745 212.601 457.745 215.146V222H455.652V209.396H457.745V211.443ZM475.732 215.215C475.732 215.614 475.709 216.035 475.663 216.48H465.589C465.666 217.722 466.087 218.696 466.854 219.401C467.636 220.091 468.579 220.436 469.683 220.436C470.588 220.436 471.339 220.229 471.937 219.815C472.55 219.386 472.98 218.818 473.225 218.113H475.479C475.142 219.324 474.467 220.313 473.455 221.08C472.443 221.831 471.186 222.207 469.683 222.207C468.487 222.207 467.414 221.939 466.463 221.402C465.528 220.865 464.792 220.106 464.255 219.125C463.718 218.128 463.45 216.978 463.45 215.675C463.45 214.372 463.711 213.229 464.232 212.248C464.753 211.267 465.482 210.515 466.417 209.994C467.368 209.457 468.456 209.189 469.683 209.189C470.879 209.189 471.937 209.45 472.857 209.971C473.777 210.492 474.482 211.213 474.973 212.133C475.479 213.038 475.732 214.065 475.732 215.215ZM473.57 214.778C473.57 213.981 473.394 213.298 473.041 212.731C472.688 212.148 472.205 211.711 471.592 211.42C470.994 211.113 470.327 210.96 469.591 210.96C468.533 210.96 467.628 211.297 466.877 211.972C466.141 212.647 465.719 213.582 465.612 214.778H473.57ZM493.652 209.166C494.633 209.166 495.507 209.373 496.274 209.787C497.04 210.186 497.646 210.791 498.091 211.604C498.535 212.417 498.758 213.406 498.758 214.571V222H496.688V214.87C496.688 213.613 496.373 212.654 495.745 211.995C495.131 211.32 494.296 210.983 493.238 210.983C492.149 210.983 491.283 211.336 490.639 212.041C489.995 212.731 489.673 213.735 489.673 215.054V222H487.603V214.87C487.603 213.613 487.288 212.654 486.66 211.995C486.046 211.32 485.211 210.983 484.153 210.983C483.064 210.983 482.198 211.336 481.554 212.041C480.91 212.731 480.588 213.735 480.588 215.054V222H478.495V209.396H480.588V211.213C481.002 210.554 481.554 210.048 482.244 209.695C482.949 209.342 483.723 209.166 484.567 209.166C485.625 209.166 486.56 209.404 487.373 209.879C488.185 210.354 488.791 211.052 489.19 211.972C489.542 211.083 490.125 210.393 490.938 209.902C491.75 209.411 492.655 209.166 493.652 209.166ZM507.688 222.207C506.507 222.207 505.434 221.939 504.468 221.402C503.517 220.865 502.766 220.106 502.214 219.125C501.677 218.128 501.409 216.978 501.409 215.675C501.409 214.387 501.685 213.252 502.237 212.271C502.804 211.274 503.571 210.515 504.537 209.994C505.503 209.457 506.584 209.189 507.78 209.189C508.976 209.189 510.057 209.457 511.023 209.994C511.989 210.515 512.748 211.267 513.3 212.248C513.867 213.229 514.151 214.372 514.151 215.675C514.151 216.978 513.86 218.128 513.277 219.125C512.71 220.106 511.935 220.865 510.954 221.402C509.973 221.939 508.884 222.207 507.688 222.207ZM507.688 220.367C508.439 220.367 509.145 220.191 509.804 219.838C510.463 219.485 510.992 218.956 511.391 218.251C511.805 217.546 512.012 216.687 512.012 215.675C512.012 214.663 511.813 213.804 511.414 213.099C511.015 212.394 510.494 211.872 509.85 211.535C509.206 211.182 508.508 211.006 507.757 211.006C506.99 211.006 506.285 211.182 505.641 211.535C505.012 211.872 504.506 212.394 504.123 213.099C503.74 213.804 503.548 214.663 503.548 215.675C503.548 216.702 503.732 217.569 504.1 218.274C504.483 218.979 504.989 219.508 505.618 219.861C506.247 220.198 506.937 220.367 507.688 220.367ZM519.456 211.121V218.55C519.456 219.163 519.586 219.6 519.847 219.861C520.108 220.106 520.56 220.229 521.204 220.229H522.745V222H520.859C519.694 222 518.82 221.732 518.237 221.195C517.654 220.658 517.363 219.777 517.363 218.55V211.121H515.73V209.396H517.363V206.222H519.456V209.396H522.745V211.121H519.456ZM536.781 215.215C536.781 215.614 536.758 216.035 536.712 216.48H526.638C526.714 217.722 527.136 218.696 527.903 219.401C528.685 220.091 529.628 220.436 530.732 220.436C531.636 220.436 532.388 220.229 532.986 219.815C533.599 219.386 534.028 218.818 534.274 218.113H536.528C536.19 219.324 535.516 220.313 534.504 221.08C533.492 221.831 532.234 222.207 530.732 222.207C529.536 222.207 528.462 221.939 527.512 221.402C526.576 220.865 525.84 220.106 525.304 219.125C524.767 218.128 524.499 216.978 524.499 215.675C524.499 214.372 524.759 213.229 525.281 212.248C525.802 211.267 526.53 210.515 527.466 209.994C528.416 209.457 529.505 209.189 530.732 209.189C531.928 209.189 532.986 209.45 533.906 209.971C534.826 210.492 535.531 211.213 536.022 212.133C536.528 213.038 536.781 214.065 536.781 215.215ZM534.619 214.778C534.619 213.981 534.442 213.298 534.09 212.731C533.737 212.148 533.254 211.711 532.641 211.42C532.043 211.113 531.376 210.96 530.64 210.96C529.582 210.96 528.677 211.297 527.926 211.972C527.19 212.647 526.768 213.582 526.661 214.778H534.619ZM541.636 204.98V222H539.543V204.98H541.636ZM556.06 209.396L548.47 227.934H546.308L548.792 221.862L543.709 209.396H546.032L549.988 219.608L553.898 209.396H556.06Z" fill="#270641"/>
<path d="M723.867 171.084V187H721.774V175.132L716.484 187H715.012L709.699 175.109V187H707.606V171.084H709.86L715.748 184.24L721.636 171.084H723.867ZM738.917 180.215C738.917 180.614 738.894 181.035 738.848 181.48H728.774C728.85 182.722 729.272 183.696 730.039 184.401C730.821 185.091 731.764 185.436 732.868 185.436C733.772 185.436 734.524 185.229 735.122 184.815C735.735 184.386 736.164 183.818 736.41 183.113H738.664C738.326 184.324 737.652 185.313 736.64 186.08C735.628 186.831 734.37 187.207 732.868 187.207C731.672 187.207 730.598 186.939 729.648 186.402C728.712 185.865 727.976 185.106 727.44 184.125C726.903 183.128 726.635 181.978 726.635 180.675C726.635 179.372 726.895 178.229 727.417 177.248C727.938 176.267 728.666 175.515 729.602 174.994C730.552 174.457 731.641 174.189 732.868 174.189C734.064 174.189 735.122 174.45 736.042 174.971C736.962 175.492 737.667 176.213 738.158 177.133C738.664 178.038 738.917 179.065 738.917 180.215ZM736.755 179.778C736.755 178.981 736.578 178.298 736.226 177.731C735.873 177.148 735.39 176.711 734.777 176.42C734.179 176.113 733.512 175.96 732.776 175.96C731.718 175.96 730.813 176.297 730.062 176.972C729.326 177.647 728.904 178.582 728.797 179.778H736.755ZM753.179 180.215C753.179 180.614 753.156 181.035 753.11 181.48H743.036C743.113 182.722 743.535 183.696 744.301 184.401C745.083 185.091 746.026 185.436 747.13 185.436C748.035 185.436 748.786 185.229 749.384 184.815C749.998 184.386 750.427 183.818 750.672 183.113H752.926C752.589 184.324 751.914 185.313 750.902 186.08C749.89 186.831 748.633 187.207 747.13 187.207C745.934 187.207 744.861 186.939 743.91 186.402C742.975 185.865 742.239 185.106 741.702 184.125C741.166 183.128 740.897 181.978 740.897 180.675C740.897 179.372 741.158 178.229 741.679 177.248C742.201 176.267 742.929 175.515 743.864 174.994C744.815 174.457 745.904 174.189 747.13 174.189C748.326 174.189 749.384 174.45 750.304 174.971C751.224 175.492 751.93 176.213 752.42 177.133C752.926 178.038 753.179 179.065 753.179 180.215ZM751.017 179.778C751.017 178.981 750.841 178.298 750.488 177.731C750.136 177.148 749.653 176.711 749.039 176.42C748.441 176.113 747.774 175.96 747.038 175.96C745.98 175.96 745.076 176.297 744.324 176.972C743.588 177.647 743.167 178.582 743.059 179.778H751.017ZM758.495 176.121V183.55C758.495 184.163 758.625 184.6 758.886 184.861C759.147 185.106 759.599 185.229 760.243 185.229H761.784V187H759.898C758.733 187 757.859 186.732 757.276 186.195C756.693 185.658 756.402 184.777 756.402 183.55V176.121H754.769V174.396H756.402V171.222H758.495V174.396H761.784V176.121H758.495ZM773.005 176.121V183.55C773.005 184.163 773.135 184.6 773.396 184.861C773.656 185.106 774.109 185.229 774.753 185.229H776.294V187H774.408C773.242 187 772.368 186.732 771.786 186.195C771.203 185.658 770.912 184.777 770.912 183.55V176.121H769.279V174.396H770.912V171.222H773.005V174.396H776.294V176.121H773.005ZM785.086 174.166C786.036 174.166 786.895 174.373 787.662 174.787C788.428 175.186 789.026 175.791 789.456 176.604C789.9 177.417 790.123 178.406 790.123 179.571V187H788.053V179.87C788.053 178.613 787.738 177.654 787.11 176.995C786.481 176.32 785.622 175.983 784.534 175.983C783.43 175.983 782.548 176.328 781.889 177.018C781.245 177.708 780.923 178.712 780.923 180.031V187H778.83V169.98H780.923V176.19C781.337 175.546 781.904 175.048 782.625 174.695C783.361 174.342 784.181 174.166 785.086 174.166ZM805.042 180.215C805.042 180.614 805.019 181.035 804.973 181.48H794.899C794.975 182.722 795.397 183.696 796.164 184.401C796.946 185.091 797.889 185.436 798.993 185.436C799.897 185.436 800.649 185.229 801.247 184.815C801.86 184.386 802.289 183.818 802.535 183.113H804.789C804.451 184.324 803.777 185.313 802.765 186.08C801.753 186.831 800.495 187.207 798.993 187.207C797.797 187.207 796.723 186.939 795.773 186.402C794.837 185.865 794.101 185.106 793.565 184.125C793.028 183.128 792.76 181.978 792.76 180.675C792.76 179.372 793.02 178.229 793.542 177.248C794.063 176.267 794.791 175.515 795.727 174.994C796.677 174.457 797.766 174.189 798.993 174.189C800.189 174.189 801.247 174.45 802.167 174.971C803.087 175.492 803.792 176.213 804.283 177.133C804.789 178.038 805.042 179.065 805.042 180.215ZM802.88 179.778C802.88 178.981 802.703 178.298 802.351 177.731C801.998 177.148 801.515 176.711 800.902 176.42C800.304 176.113 799.637 175.96 798.901 175.96C797.843 175.96 796.938 176.297 796.187 176.972C795.451 177.647 795.029 178.582 794.922 179.778H802.88ZM678.347 211.121H675.702V222H673.609V211.121H671.976V209.396H673.609V208.499C673.609 207.088 673.97 206.061 674.69 205.417C675.426 204.758 676.599 204.428 678.209 204.428V206.176C677.289 206.176 676.638 206.36 676.254 206.728C675.886 207.081 675.702 207.671 675.702 208.499V209.396H678.347V211.121ZM680.006 215.652C680.006 214.364 680.266 213.237 680.788 212.271C681.309 211.29 682.022 210.531 682.927 209.994C683.847 209.457 684.866 209.189 685.986 209.189C687.09 209.189 688.048 209.427 688.861 209.902C689.673 210.377 690.279 210.975 690.678 211.696V209.396H692.794V222H690.678V219.654C690.264 220.39 689.643 221.003 688.815 221.494C688.002 221.969 687.051 222.207 685.963 222.207C684.843 222.207 683.831 221.931 682.927 221.379C682.022 220.827 681.309 220.053 680.788 219.056C680.266 218.059 680.006 216.925 680.006 215.652ZM690.678 215.675C690.678 214.724 690.486 213.896 690.103 213.191C689.719 212.486 689.198 211.949 688.539 211.581C687.895 211.198 687.182 211.006 686.4 211.006C685.618 211.006 684.905 211.19 684.261 211.558C683.617 211.926 683.103 212.463 682.72 213.168C682.336 213.873 682.145 214.701 682.145 215.652C682.145 216.618 682.336 217.461 682.72 218.182C683.103 218.887 683.617 219.432 684.261 219.815C684.905 220.183 685.618 220.367 686.4 220.367C687.182 220.367 687.895 220.183 688.539 219.815C689.198 219.432 689.719 218.887 690.103 218.182C690.486 217.461 690.678 216.626 690.678 215.675ZM700.793 222.207C699.827 222.207 698.96 222.046 698.194 221.724C697.427 221.387 696.821 220.927 696.377 220.344C695.932 219.746 695.687 219.064 695.641 218.297H697.803C697.864 218.926 698.155 219.439 698.677 219.838C699.213 220.237 699.911 220.436 700.77 220.436C701.567 220.436 702.196 220.26 702.656 219.907C703.116 219.554 703.346 219.11 703.346 218.573C703.346 218.021 703.1 217.615 702.61 217.354C702.119 217.078 701.36 216.81 700.333 216.549C699.397 216.304 698.631 216.058 698.033 215.813C697.45 215.552 696.944 215.177 696.515 214.686C696.101 214.18 695.894 213.521 695.894 212.708C695.894 212.064 696.085 211.474 696.469 210.937C696.852 210.4 697.396 209.979 698.102 209.672C698.807 209.35 699.612 209.189 700.517 209.189C701.912 209.189 703.039 209.542 703.898 210.247C704.756 210.952 705.216 211.918 705.278 213.145H703.185C703.139 212.486 702.87 211.957 702.38 211.558C701.904 211.159 701.26 210.96 700.448 210.96C699.696 210.96 699.098 211.121 698.654 211.443C698.209 211.765 697.987 212.187 697.987 212.708C697.987 213.122 698.117 213.467 698.378 213.743C698.654 214.004 698.991 214.218 699.39 214.387C699.804 214.54 700.371 214.717 701.092 214.916C701.996 215.161 702.732 215.407 703.3 215.652C703.867 215.882 704.35 216.235 704.749 216.71C705.163 217.185 705.377 217.806 705.393 218.573C705.393 219.263 705.201 219.884 704.818 220.436C704.434 220.988 703.89 221.425 703.185 221.747C702.495 222.054 701.697 222.207 700.793 222.207ZM714.603 209.166C715.554 209.166 716.413 209.373 717.179 209.787C717.946 210.186 718.544 210.791 718.973 211.604C719.418 212.417 719.64 213.406 719.64 214.571V222H717.57V214.87C717.57 213.613 717.256 212.654 716.627 211.995C715.999 211.32 715.14 210.983 714.051 210.983C712.947 210.983 712.066 211.328 711.406 212.018C710.762 212.708 710.44 213.712 710.44 215.031V222H708.347V204.98H710.44V211.19C710.854 210.546 711.422 210.048 712.142 209.695C712.878 209.342 713.699 209.166 714.603 209.166ZM724.14 207.349C723.741 207.349 723.404 207.211 723.128 206.935C722.852 206.659 722.714 206.322 722.714 205.923C722.714 205.524 722.852 205.187 723.128 204.911C723.404 204.635 723.741 204.497 724.14 204.497C724.523 204.497 724.845 204.635 725.106 204.911C725.382 205.187 725.52 205.524 725.52 205.923C725.52 206.322 725.382 206.659 725.106 206.935C724.845 207.211 724.523 207.349 724.14 207.349ZM725.152 209.396V222H723.059V209.396H725.152ZM734.216 222.207C733.036 222.207 731.962 221.939 730.996 221.402C730.046 220.865 729.294 220.106 728.742 219.125C728.206 218.128 727.937 216.978 727.937 215.675C727.937 214.387 728.213 213.252 728.765 212.271C729.333 211.274 730.099 210.515 731.065 209.994C732.031 209.457 733.112 209.189 734.308 209.189C735.504 209.189 736.585 209.457 737.551 209.994C738.517 210.515 739.276 211.267 739.828 212.248C740.396 213.229 740.679 214.372 740.679 215.675C740.679 216.978 740.388 218.128 739.805 219.125C739.238 220.106 738.464 220.865 737.482 221.402C736.501 221.939 735.412 222.207 734.216 222.207ZM734.216 220.367C734.968 220.367 735.673 220.191 736.332 219.838C736.992 219.485 737.521 218.956 737.919 218.251C738.333 217.546 738.54 216.687 738.54 215.675C738.54 214.663 738.341 213.804 737.942 213.099C737.544 212.394 737.022 211.872 736.378 211.535C735.734 211.182 735.037 211.006 734.285 211.006C733.519 211.006 732.813 211.182 732.169 211.535C731.541 211.872 731.035 212.394 730.651 213.099C730.268 213.804 730.076 214.663 730.076 215.675C730.076 216.702 730.26 217.569 730.628 218.274C731.012 218.979 731.518 219.508 732.146 219.861C732.775 220.198 733.465 220.367 734.216 220.367ZM749.572 209.166C751.105 209.166 752.347 209.634 753.298 210.569C754.249 211.489 754.724 212.823 754.724 214.571V222H752.654V214.87C752.654 213.613 752.34 212.654 751.711 211.995C751.082 211.32 750.224 210.983 749.135 210.983C748.031 210.983 747.149 211.328 746.49 212.018C745.846 212.708 745.524 213.712 745.524 215.031V222H743.431V209.396H745.524V211.19C745.938 210.546 746.498 210.048 747.203 209.695C747.924 209.342 748.713 209.166 749.572 209.166ZM775.775 215.215C775.775 215.614 775.752 216.035 775.706 216.48H765.632C765.709 217.722 766.13 218.696 766.897 219.401C767.679 220.091 768.622 220.436 769.726 220.436C770.631 220.436 771.382 220.229 771.98 219.815C772.593 219.386 773.023 218.818 773.268 218.113H775.522C775.185 219.324 774.51 220.313 773.498 221.08C772.486 221.831 771.229 222.207 769.726 222.207C768.53 222.207 767.457 221.939 766.506 221.402C765.571 220.865 764.835 220.106 764.298 219.125C763.761 218.128 763.493 216.978 763.493 215.675C763.493 214.372 763.754 213.229 764.275 212.248C764.796 211.267 765.525 210.515 766.46 209.994C767.411 209.457 768.499 209.189 769.726 209.189C770.922 209.189 771.98 209.45 772.9 209.971C773.82 210.492 774.525 211.213 775.016 212.133C775.522 213.038 775.775 214.065 775.775 215.215ZM773.613 214.778C773.613 213.981 773.437 213.298 773.084 212.731C772.731 212.148 772.248 211.711 771.635 211.42C771.037 211.113 770.37 210.96 769.634 210.96C768.576 210.96 767.671 211.297 766.92 211.972C766.184 212.647 765.762 213.582 765.655 214.778H773.613ZM785.116 222L782.126 217.308L779.251 222H777.066L781.137 215.744L777.066 209.396H779.435L782.425 214.065L785.277 209.396H787.462L783.414 215.629L787.485 222H785.116ZM791.636 211.719C792.05 210.998 792.664 210.4 793.476 209.925C794.304 209.434 795.263 209.189 796.351 209.189C797.471 209.189 798.483 209.457 799.387 209.994C800.307 210.531 801.028 211.29 801.549 212.271C802.071 213.237 802.331 214.364 802.331 215.652C802.331 216.925 802.071 218.059 801.549 219.056C801.028 220.053 800.307 220.827 799.387 221.379C798.483 221.931 797.471 222.207 796.351 222.207C795.278 222.207 794.327 221.969 793.499 221.494C792.687 221.003 792.066 220.398 791.636 219.677V227.98H789.543V209.396H791.636V211.719ZM800.192 215.652C800.192 214.701 800.001 213.873 799.617 213.168C799.234 212.463 798.713 211.926 798.053 211.558C797.409 211.19 796.696 211.006 795.914 211.006C795.148 211.006 794.435 211.198 793.775 211.581C793.131 211.949 792.61 212.493 792.211 213.214C791.828 213.919 791.636 214.74 791.636 215.675C791.636 216.626 791.828 217.461 792.211 218.182C792.61 218.887 793.131 219.432 793.775 219.815C794.435 220.183 795.148 220.367 795.914 220.367C796.696 220.367 797.409 220.183 798.053 219.815C798.713 219.432 799.234 218.887 799.617 218.182C800.001 217.461 800.192 216.618 800.192 215.652ZM816.586 215.215C816.586 215.614 816.563 216.035 816.517 216.48H806.443C806.52 217.722 806.942 218.696 807.708 219.401C808.49 220.091 809.433 220.436 810.537 220.436C811.442 220.436 812.193 220.229 812.791 219.815C813.405 219.386 813.834 218.818 814.079 218.113H816.333C815.996 219.324 815.321 220.313 814.309 221.08C813.297 221.831 812.04 222.207 810.537 222.207C809.341 222.207 808.268 221.939 807.317 221.402C806.382 220.865 805.646 220.106 805.109 219.125C804.573 218.128 804.304 216.978 804.304 215.675C804.304 214.372 804.565 213.229 805.086 212.248C805.608 211.267 806.336 210.515 807.271 209.994C808.222 209.457 809.311 209.189 810.537 209.189C811.733 209.189 812.791 209.45 813.711 209.971C814.631 210.492 815.337 211.213 815.827 212.133C816.333 213.038 816.586 214.065 816.586 215.215ZM814.424 214.778C814.424 213.981 814.248 213.298 813.895 212.731C813.543 212.148 813.06 211.711 812.446 211.42C811.848 211.113 811.181 210.96 810.445 210.96C809.387 210.96 808.483 211.297 807.731 211.972C806.995 212.647 806.574 213.582 806.466 214.778H814.424ZM821.442 211.443C821.81 210.722 822.331 210.163 823.006 209.764C823.696 209.365 824.532 209.166 825.513 209.166V211.328H824.961C822.615 211.328 821.442 212.601 821.442 215.146V222H819.349V209.396H821.442V211.443ZM830.482 211.121V218.55C830.482 219.163 830.613 219.6 830.873 219.861C831.134 220.106 831.586 220.229 832.23 220.229H833.771V222H831.885C830.72 222 829.846 221.732 829.263 221.195C828.681 220.658 828.389 219.777 828.389 218.55V211.121H826.756V209.396H828.389V206.222H830.482V209.396H833.771V211.121H830.482ZM840.769 222.207C839.803 222.207 838.937 222.046 838.17 221.724C837.403 221.387 836.798 220.927 836.353 220.344C835.908 219.746 835.663 219.064 835.617 218.297H837.779C837.84 218.926 838.132 219.439 838.653 219.838C839.19 220.237 839.887 220.436 840.746 220.436C841.543 220.436 842.172 220.26 842.632 219.907C843.092 219.554 843.322 219.11 843.322 218.573C843.322 218.021 843.077 217.615 842.586 217.354C842.095 217.078 841.336 216.81 840.309 216.549C839.374 216.304 838.607 216.058 838.009 215.813C837.426 215.552 836.92 215.177 836.491 214.686C836.077 214.18 835.87 213.521 835.87 212.708C835.87 212.064 836.062 211.474 836.445 210.937C836.828 210.4 837.373 209.979 838.078 209.672C838.783 209.35 839.588 209.189 840.493 209.189C841.888 209.189 843.015 209.542 843.874 210.247C844.733 210.952 845.193 211.918 845.254 213.145H843.161C843.115 212.486 842.847 211.957 842.356 211.558C841.881 211.159 841.237 210.96 840.424 210.96C839.673 210.96 839.075 211.121 838.63 211.443C838.185 211.765 837.963 212.187 837.963 212.708C837.963 213.122 838.093 213.467 838.354 213.743C838.63 214.004 838.967 214.218 839.366 214.387C839.78 214.54 840.347 214.717 841.068 214.916C841.973 215.161 842.709 215.407 843.276 215.652C843.843 215.882 844.326 216.235 844.725 216.71C845.139 217.185 845.354 217.806 845.369 218.573C845.369 219.263 845.177 219.884 844.794 220.436C844.411 220.988 843.866 221.425 843.161 221.747C842.471 222.054 841.674 222.207 840.769 222.207Z" fill="#270641"/>
<path d="M1025.31 170.969V172.671H1018.34V178.076H1024V179.778H1018.34V187H1016.25V170.969H1025.31ZM1028.92 172.349C1028.52 172.349 1028.19 172.211 1027.91 171.935C1027.63 171.659 1027.5 171.322 1027.5 170.923C1027.5 170.524 1027.63 170.187 1027.91 169.911C1028.19 169.635 1028.52 169.497 1028.92 169.497C1029.31 169.497 1029.63 169.635 1029.89 169.911C1030.16 170.187 1030.3 170.524 1030.3 170.923C1030.3 171.322 1030.16 171.659 1029.89 171.935C1029.63 172.211 1029.31 172.349 1028.92 172.349ZM1029.93 174.396V187H1027.84V174.396H1029.93ZM1039.64 174.166C1041.18 174.166 1042.42 174.634 1043.37 175.569C1044.32 176.489 1044.79 177.823 1044.79 179.571V187H1042.72V179.87C1042.72 178.613 1042.41 177.654 1041.78 176.995C1041.15 176.32 1040.29 175.983 1039.21 175.983C1038.1 175.983 1037.22 176.328 1036.56 177.018C1035.92 177.708 1035.59 178.712 1035.59 180.031V187H1033.5V174.396H1035.59V176.19C1036.01 175.546 1036.57 175.048 1037.27 174.695C1037.99 174.342 1038.78 174.166 1039.64 174.166ZM1047.43 180.652C1047.43 179.364 1047.69 178.237 1048.21 177.271C1048.73 176.29 1049.45 175.531 1050.35 174.994C1051.27 174.457 1052.29 174.189 1053.41 174.189C1054.52 174.189 1055.47 174.427 1056.29 174.902C1057.1 175.377 1057.7 175.975 1058.1 176.696V174.396H1060.22V187H1058.1V184.654C1057.69 185.39 1057.07 186.003 1056.24 186.494C1055.43 186.969 1054.48 187.207 1053.39 187.207C1052.27 187.207 1051.26 186.931 1050.35 186.379C1049.45 185.827 1048.73 185.053 1048.21 184.056C1047.69 183.059 1047.43 181.925 1047.43 180.652ZM1058.1 180.675C1058.1 179.724 1057.91 178.896 1057.53 178.191C1057.15 177.486 1056.62 176.949 1055.96 176.581C1055.32 176.198 1054.61 176.006 1053.83 176.006C1053.04 176.006 1052.33 176.19 1051.69 176.558C1051.04 176.926 1050.53 177.463 1050.15 178.168C1049.76 178.873 1049.57 179.701 1049.57 180.652C1049.57 181.618 1049.76 182.461 1050.15 183.182C1050.53 183.887 1051.04 184.432 1051.69 184.815C1052.33 185.183 1053.04 185.367 1053.83 185.367C1054.61 185.367 1055.32 185.183 1055.96 184.815C1056.62 184.432 1057.15 183.887 1057.53 183.182C1057.91 182.461 1058.1 181.626 1058.1 180.675ZM1065.85 169.98V187H1063.76V169.98H1065.85ZM1070.5 172.349C1070.1 172.349 1069.76 172.211 1069.49 171.935C1069.21 171.659 1069.07 171.322 1069.07 170.923C1069.07 170.524 1069.21 170.187 1069.49 169.911C1069.76 169.635 1070.1 169.497 1070.5 169.497C1070.88 169.497 1071.2 169.635 1071.46 169.911C1071.74 170.187 1071.88 170.524 1071.88 170.923C1071.88 171.322 1071.74 171.659 1071.46 171.935C1071.2 172.211 1070.88 172.349 1070.5 172.349ZM1071.51 174.396V187H1069.42V174.396H1071.51ZM1076.64 185.275H1082.83V187H1074.25V185.275L1080.37 176.098H1074.29V174.396H1082.78V176.098L1076.64 185.275ZM1097.04 180.215C1097.04 180.614 1097.02 181.035 1096.97 181.48H1086.9C1086.98 182.722 1087.4 183.696 1088.17 184.401C1088.95 185.091 1089.89 185.436 1090.99 185.436C1091.9 185.436 1092.65 185.229 1093.25 184.815C1093.86 184.386 1094.29 183.818 1094.54 183.113H1096.79C1096.45 184.324 1095.78 185.313 1094.77 186.08C1093.75 186.831 1092.5 187.207 1090.99 187.207C1089.8 187.207 1088.73 186.939 1087.77 186.402C1086.84 185.865 1086.1 185.106 1085.57 184.125C1085.03 183.128 1084.76 181.978 1084.76 180.675C1084.76 179.372 1085.02 178.229 1085.54 177.248C1086.06 176.267 1086.79 175.515 1087.73 174.994C1088.68 174.457 1089.77 174.189 1090.99 174.189C1092.19 174.189 1093.25 174.45 1094.17 174.971C1095.09 175.492 1095.79 176.213 1096.28 177.133C1096.79 178.038 1097.04 179.065 1097.04 180.215ZM1094.88 179.778C1094.88 178.981 1094.71 178.298 1094.35 177.731C1094 177.148 1093.52 176.711 1092.9 176.42C1092.31 176.113 1091.64 175.96 1090.9 175.96C1089.84 175.96 1088.94 176.297 1088.19 176.972C1087.45 177.647 1087.03 178.582 1086.92 179.778H1094.88ZM1108.49 176.121V183.55C1108.49 184.163 1108.62 184.6 1108.88 184.861C1109.14 185.106 1109.59 185.229 1110.24 185.229H1111.78V187H1109.89C1108.73 187 1107.85 186.732 1107.27 186.195C1106.69 185.658 1106.4 184.777 1106.4 183.55V176.121H1104.76V174.396H1106.4V171.222H1108.49V174.396H1111.78V176.121H1108.49ZM1120.57 174.166C1121.52 174.166 1122.38 174.373 1123.15 174.787C1123.91 175.186 1124.51 175.791 1124.94 176.604C1125.39 177.417 1125.61 178.406 1125.61 179.571V187H1123.54V179.87C1123.54 178.613 1123.22 177.654 1122.6 176.995C1121.97 176.32 1121.11 175.983 1120.02 175.983C1118.92 175.983 1118.03 176.328 1117.37 177.018C1116.73 177.708 1116.41 178.712 1116.41 180.031V187H1114.32V169.98H1116.41V176.19C1116.82 175.546 1117.39 175.048 1118.11 174.695C1118.85 174.342 1119.67 174.166 1120.57 174.166ZM1140.53 180.215C1140.53 180.614 1140.5 181.035 1140.46 181.48H1130.38C1130.46 182.722 1130.88 183.696 1131.65 184.401C1132.43 185.091 1133.37 185.436 1134.48 185.436C1135.38 185.436 1136.13 185.229 1136.73 184.815C1137.35 184.386 1137.78 183.818 1138.02 183.113H1140.27C1139.94 184.324 1139.26 185.313 1138.25 186.08C1137.24 186.831 1135.98 187.207 1134.48 187.207C1133.28 187.207 1132.21 186.939 1131.26 186.402C1130.32 185.865 1129.59 185.106 1129.05 184.125C1128.51 183.128 1128.25 181.978 1128.25 180.675C1128.25 179.372 1128.51 178.229 1129.03 177.248C1129.55 176.267 1130.28 175.515 1131.21 174.994C1132.16 174.457 1133.25 174.189 1134.48 174.189C1135.67 174.189 1136.73 174.45 1137.65 174.971C1138.57 175.492 1139.28 176.213 1139.77 177.133C1140.27 178.038 1140.53 179.065 1140.53 180.215ZM1138.37 179.778C1138.37 178.981 1138.19 178.298 1137.84 177.731C1137.48 177.148 1137 176.711 1136.39 176.42C1135.79 176.113 1135.12 175.96 1134.39 175.96C1133.33 175.96 1132.42 176.297 1131.67 176.972C1130.94 177.647 1130.52 178.582 1130.41 179.778H1138.37ZM1005.83 211.719C1006.25 210.998 1006.86 210.4 1007.67 209.925C1008.5 209.434 1009.46 209.189 1010.55 209.189C1011.67 209.189 1012.68 209.457 1013.58 209.994C1014.5 210.531 1015.23 211.29 1015.75 212.271C1016.27 213.237 1016.53 214.364 1016.53 215.652C1016.53 216.925 1016.27 218.059 1015.75 219.056C1015.23 220.053 1014.5 220.827 1013.58 221.379C1012.68 221.931 1011.67 222.207 1010.55 222.207C1009.48 222.207 1008.52 221.969 1007.7 221.494C1006.88 221.003 1006.26 220.398 1005.83 219.677V227.98H1003.74V209.396H1005.83V211.719ZM1014.39 215.652C1014.39 214.701 1014.2 213.873 1013.81 213.168C1013.43 212.463 1012.91 211.926 1012.25 211.558C1011.61 211.19 1010.89 211.006 1010.11 211.006C1009.35 211.006 1008.63 211.198 1007.97 211.581C1007.33 211.949 1006.81 212.493 1006.41 213.214C1006.03 213.919 1005.83 214.74 1005.83 215.675C1005.83 216.626 1006.03 217.461 1006.41 218.182C1006.81 218.887 1007.33 219.432 1007.97 219.815C1008.63 220.183 1009.35 220.367 1010.11 220.367C1010.89 220.367 1011.61 220.183 1012.25 219.815C1012.91 219.432 1013.43 218.887 1013.81 218.182C1014.2 217.461 1014.39 216.618 1014.39 215.652ZM1030.78 215.215C1030.78 215.614 1030.76 216.035 1030.71 216.48H1020.64C1020.72 217.722 1021.14 218.696 1021.91 219.401C1022.69 220.091 1023.63 220.436 1024.73 220.436C1025.64 220.436 1026.39 220.229 1026.99 219.815C1027.6 219.386 1028.03 218.818 1028.28 218.113H1030.53C1030.19 219.324 1029.52 220.313 1028.51 221.08C1027.49 221.831 1026.24 222.207 1024.73 222.207C1023.54 222.207 1022.47 221.939 1021.51 221.402C1020.58 220.865 1019.84 220.106 1019.31 219.125C1018.77 218.128 1018.5 216.978 1018.5 215.675C1018.5 214.372 1018.76 213.229 1019.28 212.248C1019.81 211.267 1020.53 210.515 1021.47 209.994C1022.42 209.457 1023.51 209.189 1024.73 209.189C1025.93 209.189 1026.99 209.45 1027.91 209.971C1028.83 210.492 1029.53 211.213 1030.02 212.133C1030.53 213.038 1030.78 214.065 1030.78 215.215ZM1028.62 214.778C1028.62 213.981 1028.45 213.298 1028.09 212.731C1027.74 212.148 1027.26 211.711 1026.64 211.42C1026.05 211.113 1025.38 210.96 1024.64 210.96C1023.58 210.96 1022.68 211.297 1021.93 211.972C1021.19 212.647 1020.77 213.582 1020.66 214.778H1028.62ZM1035.64 211.443C1036.01 210.722 1036.53 210.163 1037.2 209.764C1037.89 209.365 1038.73 209.166 1039.71 209.166V211.328H1039.16C1036.81 211.328 1035.64 212.601 1035.64 215.146V222H1033.55V209.396H1035.64V211.443ZM1047.26 211.121H1044.61V222H1042.52V211.121H1040.88V209.396H1042.52V208.499C1042.52 207.088 1042.88 206.061 1043.6 205.417C1044.33 204.758 1045.51 204.428 1047.12 204.428V206.176C1046.2 206.176 1045.55 206.36 1045.16 206.728C1044.79 207.081 1044.61 207.671 1044.61 208.499V209.396H1047.26V211.121ZM1061.2 215.215C1061.2 215.614 1061.17 216.035 1061.13 216.48H1051.05C1051.13 217.722 1051.55 218.696 1052.32 219.401C1053.1 220.091 1054.04 220.436 1055.15 220.436C1056.05 220.436 1056.8 220.229 1057.4 219.815C1058.01 219.386 1058.44 218.818 1058.69 218.113H1060.94C1060.61 219.324 1059.93 220.313 1058.92 221.08C1057.91 221.831 1056.65 222.207 1055.15 222.207C1053.95 222.207 1052.88 221.939 1051.93 221.402C1050.99 220.865 1050.26 220.106 1049.72 219.125C1049.18 218.128 1048.91 216.978 1048.91 215.675C1048.91 214.372 1049.17 213.229 1049.7 212.248C1050.22 211.267 1050.95 210.515 1051.88 209.994C1052.83 209.457 1053.92 209.189 1055.15 209.189C1056.34 209.189 1057.4 209.45 1058.32 209.971C1059.24 210.492 1059.95 211.213 1060.44 212.133C1060.94 213.038 1061.2 214.065 1061.2 215.215ZM1059.03 214.778C1059.03 213.981 1058.86 213.298 1058.5 212.731C1058.15 212.148 1057.67 211.711 1057.06 211.42C1056.46 211.113 1055.79 210.96 1055.05 210.96C1054 210.96 1053.09 211.297 1052.34 211.972C1051.6 212.647 1051.18 213.582 1051.08 214.778H1059.03ZM1063.18 215.675C1063.18 214.372 1063.44 213.237 1063.96 212.271C1064.48 211.29 1065.2 210.531 1066.12 209.994C1067.06 209.457 1068.12 209.189 1069.32 209.189C1070.87 209.189 1072.14 209.565 1073.14 210.316C1074.15 211.067 1074.81 212.11 1075.14 213.444H1072.88C1072.67 212.677 1072.25 212.072 1071.62 211.627C1071 211.182 1070.24 210.96 1069.32 210.96C1068.12 210.96 1067.16 211.374 1066.42 212.202C1065.68 213.015 1065.32 214.172 1065.32 215.675C1065.32 217.193 1065.68 218.366 1066.42 219.194C1067.16 220.022 1068.12 220.436 1069.32 220.436C1070.24 220.436 1071 220.221 1071.62 219.792C1072.23 219.363 1072.65 218.749 1072.88 217.952H1075.14C1074.8 219.24 1074.12 220.275 1073.11 221.057C1072.1 221.824 1070.84 222.207 1069.32 222.207C1068.12 222.207 1067.06 221.939 1066.12 221.402C1065.2 220.865 1064.48 220.106 1063.96 219.125C1063.44 218.144 1063.18 216.994 1063.18 215.675ZM1080.48 211.121V218.55C1080.48 219.163 1080.61 219.6 1080.87 219.861C1081.13 220.106 1081.59 220.229 1082.23 220.229H1083.77V222H1081.89C1080.72 222 1079.85 221.732 1079.26 221.195C1078.68 220.658 1078.39 219.777 1078.39 218.55V211.121H1076.76V209.396H1078.39V206.222H1080.48V209.396H1083.77V211.121H1080.48ZM1097.64 209.189C1098.73 209.189 1099.68 209.427 1100.49 209.902C1101.32 210.377 1101.93 210.975 1102.33 211.696V209.396H1104.44V222.276C1104.44 223.426 1104.2 224.446 1103.71 225.335C1103.22 226.24 1102.51 226.945 1101.59 227.451C1100.69 227.957 1099.63 228.21 1098.42 228.21C1096.76 228.21 1095.38 227.819 1094.28 227.037C1093.17 226.255 1092.52 225.189 1092.32 223.84H1094.39C1094.62 224.607 1095.1 225.22 1095.82 225.68C1096.54 226.155 1097.41 226.393 1098.42 226.393C1099.57 226.393 1100.5 226.033 1101.22 225.312C1101.96 224.591 1102.33 223.579 1102.33 222.276V219.631C1101.91 220.367 1101.3 220.98 1100.49 221.471C1099.68 221.962 1098.73 222.207 1097.64 222.207C1096.52 222.207 1095.5 221.931 1094.58 221.379C1093.67 220.827 1092.96 220.053 1092.44 219.056C1091.92 218.059 1091.66 216.925 1091.66 215.652C1091.66 214.364 1091.92 213.237 1092.44 212.271C1092.96 211.29 1093.67 210.531 1094.58 209.994C1095.5 209.457 1096.52 209.189 1097.64 209.189ZM1102.33 215.675C1102.33 214.724 1102.14 213.896 1101.75 213.191C1101.37 212.486 1100.85 211.949 1100.19 211.581C1099.55 211.198 1098.83 211.006 1098.05 211.006C1097.27 211.006 1096.56 211.19 1095.91 211.558C1095.27 211.926 1094.75 212.463 1094.37 213.168C1093.99 213.873 1093.8 214.701 1093.8 215.652C1093.8 216.618 1093.99 217.461 1094.37 218.182C1094.75 218.887 1095.27 219.432 1095.91 219.815C1096.56 220.183 1097.27 220.367 1098.05 220.367C1098.83 220.367 1099.55 220.183 1100.19 219.815C1100.85 219.432 1101.37 218.887 1101.75 218.182C1102.14 217.461 1102.33 216.626 1102.33 215.675ZM1107.2 215.652C1107.2 214.364 1107.46 213.237 1107.98 212.271C1108.5 211.29 1109.22 210.531 1110.12 209.994C1111.04 209.457 1112.06 209.189 1113.18 209.189C1114.28 209.189 1115.24 209.427 1116.05 209.902C1116.87 210.377 1117.47 210.975 1117.87 211.696V209.396H1119.99V222H1117.87V219.654C1117.46 220.39 1116.84 221.003 1116.01 221.494C1115.2 221.969 1114.25 222.207 1113.16 222.207C1112.04 222.207 1111.03 221.931 1110.12 221.379C1109.22 220.827 1108.5 220.053 1107.98 219.056C1107.46 218.059 1107.2 216.925 1107.2 215.652ZM1117.87 215.675C1117.87 214.724 1117.68 213.896 1117.3 213.191C1116.91 212.486 1116.39 211.949 1115.73 211.581C1115.09 211.198 1114.38 211.006 1113.59 211.006C1112.81 211.006 1112.1 211.19 1111.45 211.558C1110.81 211.926 1110.3 212.463 1109.91 213.168C1109.53 213.873 1109.34 214.701 1109.34 215.652C1109.34 216.618 1109.53 217.461 1109.91 218.182C1110.3 218.887 1110.81 219.432 1111.45 219.815C1112.1 220.183 1112.81 220.367 1113.59 220.367C1114.38 220.367 1115.09 220.183 1115.73 219.815C1116.39 219.432 1116.91 218.887 1117.3 218.182C1117.68 217.461 1117.87 216.626 1117.87 215.675ZM1125.62 211.443C1125.99 210.722 1126.51 210.163 1127.18 209.764C1127.87 209.365 1128.71 209.166 1129.69 209.166V211.328H1129.14C1126.79 211.328 1125.62 212.601 1125.62 215.146V222H1123.52V209.396H1125.62V211.443ZM1147.26 209.166C1148.24 209.166 1149.12 209.373 1149.88 209.787C1150.65 210.186 1151.26 210.791 1151.7 211.604C1152.15 212.417 1152.37 213.406 1152.37 214.571V222H1150.3V214.87C1150.3 213.613 1149.98 212.654 1149.35 211.995C1148.74 211.32 1147.91 210.983 1146.85 210.983C1145.76 210.983 1144.89 211.336 1144.25 212.041C1143.6 212.731 1143.28 213.735 1143.28 215.054V222H1141.21V214.87C1141.21 213.613 1140.9 212.654 1140.27 211.995C1139.66 211.32 1138.82 210.983 1137.76 210.983C1136.67 210.983 1135.81 211.336 1135.16 212.041C1134.52 212.731 1134.2 213.735 1134.2 215.054V222H1132.1V209.396H1134.2V211.213C1134.61 210.554 1135.16 210.048 1135.85 209.695C1136.56 209.342 1137.33 209.166 1138.18 209.166C1139.23 209.166 1140.17 209.404 1140.98 209.879C1141.8 210.354 1142.4 211.052 1142.8 211.972C1143.15 211.083 1143.74 210.393 1144.55 209.902C1145.36 209.411 1146.27 209.166 1147.26 209.166Z" fill="#270641"/>
<g filter="url(#filter0_d_332_3)">
<circle cx="121" cy="75" r="65" fill="#4C2A76"/>
</g>
<g filter="url(#filter1_d_332_3)">
<circle cx="440" cy="75" r="65" fill="#4C2A76"/>
</g>
<g filter="url(#filter2_d_332_3)">
<circle cx="759" cy="75" r="65" fill="#4C2A76"/>
</g>
<g filter="url(#filter3_d_332_3)">
<circle cx="1078" cy="75" r="65" fill="#4C2A76"/>
</g>
<path d="M1059.53 87.34V83.2L1080.59 54.04H1087.13V82.6H1093.13V87.34H1087.13V97H1081.73V87.34H1059.53ZM1081.97 59.74L1065.83 82.6H1081.97V59.74Z" fill="#FFB8BC"/>
<path d="M425.804 92.62C430.884 88.54 434.864 85.2 437.744 82.6C440.624 79.96 443.044 77.22 445.004 74.38C447.004 71.5 448.004 68.68 448.004 65.92C448.004 63.32 447.364 61.28 446.084 59.8C444.844 58.28 442.824 57.52 440.024 57.52C437.304 57.52 435.184 58.38 433.664 60.1C432.184 61.78 431.384 64.04 431.264 66.88H425.984C426.144 62.4 427.504 58.94 430.064 56.5C432.624 54.06 435.924 52.84 439.964 52.84C444.084 52.84 447.344 53.98 449.744 56.26C452.184 58.54 453.404 61.68 453.404 65.68C453.404 69 452.404 72.24 450.404 75.4C448.444 78.52 446.204 81.28 443.684 83.68C441.164 86.04 437.944 88.8 434.024 91.96H454.664V96.52H425.804V92.62Z" fill="#FFB8BC"/>
<path d="M744.934 64.54C745.214 60.86 746.634 57.98 749.194 55.9C751.754 53.82 755.074 52.78 759.154 52.78C761.874 52.78 764.214 53.28 766.174 54.28C768.174 55.24 769.674 56.56 770.674 58.24C771.714 59.92 772.234 61.82 772.234 63.94C772.234 66.42 771.514 68.56 770.074 70.36C768.674 72.16 766.834 73.32 764.554 73.84V74.14C767.154 74.78 769.214 76.04 770.734 77.92C772.254 79.8 773.014 82.26 773.014 85.3C773.014 87.58 772.494 89.64 771.454 91.48C770.414 93.28 768.854 94.7 766.774 95.74C764.694 96.78 762.194 97.3 759.274 97.3C755.034 97.3 751.554 96.2 748.834 94C746.114 91.76 744.594 88.6 744.274 84.52H749.554C749.834 86.92 750.814 88.88 752.494 90.4C754.174 91.92 756.414 92.68 759.214 92.68C762.014 92.68 764.134 91.96 765.574 90.52C767.054 89.04 767.794 87.14 767.794 84.82C767.794 81.82 766.794 79.66 764.794 78.34C762.794 77.02 759.774 76.36 755.734 76.36H754.354V71.8H755.794C759.474 71.76 762.254 71.16 764.134 70C766.014 68.8 766.954 66.96 766.954 64.48C766.954 62.36 766.254 60.66 764.854 59.38C763.494 58.1 761.534 57.46 758.974 57.46C756.494 57.46 754.494 58.1 752.974 59.38C751.454 60.66 750.554 62.38 750.274 64.54H744.934Z" fill="#FFB8BC"/>
<path d="M113.671 58.6V53.62H124.951V97H119.431V58.6H113.671Z" fill="#FFB8BC"/>
<defs>
<filter id="filter0_d_332_3" x="41" y="0" width="160" height="160" filterUnits="userSpaceOnUse" color-interpolation-filters="sRGB">
<feFlood flood-opacity="0" result="BackgroundImageFix"/>
<feColorMatrix in="SourceAlpha" type="matrix" values="0 0 0 0 0 0 0 0 0 0 0 0 0 0 0 0 0 0 127 0" result="hardAlpha"/>
<feOffset dy="5"/>
<feGaussianBlur stdDeviation="7.5"/>
<feComposite in2="hardAlpha" operator="out"/>
<feColorMatrix type="matrix" values="0 0 0 0 0 0 0 0 0 0 0 0 0 0 0 0 0 0 0.25 0"/>
<feBlend mode="normal" in2="BackgroundImageFix" result="effect1_dropShadow_332_3"/>
<feBlend mode="normal" in="SourceGraphic" in2="effect1_dropShadow_332_3" result="shape"/>
</filter>
<filter id="filter1_d_332_3" x="360" y="0" width="160" height="160" filterUnits="userSpaceOnUse" color-interpolation-filters="sRGB">
<feFlood flood-opacity="0" result="BackgroundImageFix"/>
<feColorMatrix in="SourceAlpha" type="matrix" values="0 0 0 0 0 0 0 0 0 0 0 0 0 0 0 0 0 0 127 0" result="hardAlpha"/>
<feOffset dy="5"/>
<feGaussianBlur stdDeviation="7.5"/>
<feComposite in2="hardAlpha" operator="out"/>
<feColorMatrix type="matrix" values="0 0 0 0 0 0 0 0 0 0 0 0 0 0 0 0 0 0 0.25 0"/>
<feBlend mode="normal" in2="BackgroundImageFix" result="effect1_dropShadow_332_3"/>
<feBlend mode="normal" in="SourceGraphic" in2="effect1_dropShadow_332_3" result="shape"/>
</filter>
<filter id="filter2_d_332_3" x="679" y="0" width="160" height="160" filterUnits="userSpaceOnUse" color-interpolation-filters="sRGB">
<feFlood flood-opacity="0" result="BackgroundImageFix"/>
<feColorMatrix in="SourceAlpha" type="matrix" values="0 0 0 0 0 0 0 0 0 0 0 0 0 0 0 0 0 0 127 0" result="hardAlpha"/>
<feOffset dy="5"/>
<feGaussianBlur stdDeviation="7.5"/>
<feComposite in2="hardAlpha" operator="out"/>
<feColorMatrix type="matrix" values="0 0 0 0 0 0 0 0 0 0 0 0 0 0 0 0 0 0 0.25 0"/>
<feBlend mode="normal" in2="BackgroundImageFix" result="effect1_dropShadow_332_3"/>
<feBlend mode="normal" in="SourceGraphic" in2="effect1_dropShadow_332_3" result="shape"/>
</filter>
<filter id="filter3_d_332_3" x="998" y="0" width="160" height="160" filterUnits="userSpaceOnUse" color-interpolation-filters="sRGB">
<feFlood flood-opacity="0" result="BackgroundImageFix"/>
<feColorMatrix in="SourceAlpha" type="matrix" values="0 0 0 0 0 0 0 0 0 0 0 0 0 0 0 0 0 0 127 0" result="hardAlpha"/>
<feOffset dy="5"/>
<feGaussianBlur stdDeviation="7.5"/>
<feComposite in2="hardAlpha" operator="out"/>
<feColorMatrix type="matrix" values="0 0 0 0 0 0 0 0 0 0 0 0 0 0 0 0 0 0 0.25 0"/>
<feBlend mode="normal" in2="BackgroundImageFix" result="effect1_dropShadow_332_3"/>
<feBlend mode="normal" in="SourceGraphic" in2="effect1_dropShadow_332_3" result="shape"/>
</filter>
</defs>
</svg>
